<?xml version="1.0" encoding="iso-8859-1"?>
<!-- Generator: Adobe Illustrator 18.1.1, SVG Export Plug-In . SVG Version: 6.00 Build 0)  -->
<svg version="1.1" xmlns="http://www.w3.org/2000/svg" xmlns:xlink="http://www.w3.org/1999/xlink" x="0px" y="0px"
	 viewBox="0 0 180 180" style="enable-background:new 0 0 180 180;" xml:space="preserve">
<g id="ca1">
	<rect y="0" style="fill:#FFFFFF;" width="180" height="180"/>
</g>
<g id="ca2">
	<path style="fill:#BBBBBB;" d="M91.586,172.782c8.381,0,20.641-0.485,23.213-1.676c3.301-1.528,3.15-7.802,3.15-9.179
		c0-1.377-1.147-2.598-1.147-2.598V82.062c0,0,1.147-1.147,1.147-2.523c0-1.377,0-8.949,0-9.867c0-0.918-1.606-1.606-1.606-1.606
		v-1.606c0,0,1.606,0,1.606-3.212c0-15.374-13.444-28.797-14.477-29.83c-1.032-1.032-1.147-4.359-1.147-4.359v-3.671h1.836
		c0,0,0.803-0.804,0-1.606c-0.803-0.804-1.836,0-1.836,0v-1.607h1.836l-0.918-3.213c0,0,0-8.03,0-9.407
		c0-1.377-1.606-1.606-1.606-1.606H78.691c0,0-1.606,0.229-1.606,1.606c0,1.377,0,9.407,0,9.407l-0.918,3.213h1.836v1.607
		c0,0-1.033-0.804-1.836,0c-0.803,0.803,0,1.606,0,1.606h1.836v3.671c0,0-0.115,3.327-1.147,4.359
		c-1.032,1.033-14.477,14.456-14.477,29.83c0,3.212,1.606,3.212,1.606,3.212v1.606c0,0-1.606,0.688-1.606,1.606
		c0,0.918,0,8.49,0,9.867c0,1.376,1.147,2.523,1.147,2.523v77.268c0,0-1.147,1.221-1.147,2.598c0,1.377,0.142,7.923,2.871,9.179
		C67.979,172.361,83.205,172.782,91.586,172.782z"/>
</g>
</svg>
