<?xml version="1.0" encoding="iso-8859-1"?>
<!-- Generator: Adobe Illustrator 18.1.1, SVG Export Plug-In . SVG Version: 6.00 Build 0)  -->
<svg version="1.1" xmlns="http://www.w3.org/2000/svg" xmlns:xlink="http://www.w3.org/1999/xlink" x="0px" y="0px"
	 viewBox="0 0 180 180" style="enable-background:new 0 0 180 180;" xml:space="preserve">
<g id="ca1">
	<rect y="0" style="fill:#FFFFFF;" width="180" height="180"/>
</g>
<g id="ca2">
	<path style="fill:#955C35;" d="M90,173.418c-8.381,0-20.641-0.486-23.213-1.676c-3.301-1.529-3.15-7.803-3.15-9.18
		c0-1.377,0-28.338,0-29.256c0-0.918,1.606-1.605,1.606-1.605v-1.607c0,0-1.606,0-1.606-3.211c0-0.916,0.138-61.821,0.138-62.726
		c0-2.272,0.316-3.54,1.462-5.702c5.562-10.5,12.081-22.607,12.877-23.403c1.032-1.032,1.147-5.359,1.147-5.359v-3.671h-1.836
		c0,0-0.803-0.804,0-1.606c0.803-0.804,1.836,0,1.836,0v-1.606h-1.836l0.918-3.213c0,0,0-8.03,0-9.407
		c0-1.377,1.606-1.606,1.606-1.606h20.102c0,0,1.606,0.229,1.606,1.606c0,1.377,0,9.407,0,9.407l0.918,3.213h-1.836v1.606
		c0,0,1.033-0.804,1.836,0c0.803,0.803,0,1.606,0,1.606h-1.836v3.671c0,0,0.115,4.327,1.147,5.359
		c0.796,0.796,7.314,12.903,12.877,23.403c1.146,2.162,1.462,3.43,1.462,5.702c0,0.905,0.138,61.81,0.138,62.726
		c0,3.211-1.607,3.211-1.607,3.211v1.607c0,0,1.607,0.688,1.607,1.605c0,0.918,0,27.879,0,29.256c0,1.377,0.15,7.65-3.15,9.18
		C110.641,172.932,98.381,173.418,90,173.418z"/>
</g>
<g id="ca3" style="display:none;">
	<polygon style="display:inline;fill:#FFFFFF;stroke:#000000;" points="72.583,81.786 89.917,81.786 87.583,68.12 73.916,69.786 	
		"/>
	<path style="display:inline;" d="M77.885,69.302c0,2.485,1.269,4.5,2.833,4.5c1.565,0,2.834-2.705,2.834-5.191"/>
	<polygon style="display:inline;fill:#FFFFFF;stroke:#000000;" points="108.25,81.786 90.917,81.786 93.25,68.12 106.917,69.786 	
		"/>
	<path style="display:inline;" d="M102.948,69.302c0,2.485-1.269,4.5-2.833,4.5c-1.565,0-2.833-2.706-2.833-5.19"/>
</g>
</svg>
