<?xml version="1.0" encoding="iso-8859-1"?>
<!-- Generator: Adobe Illustrator 18.1.1, SVG Export Plug-In . SVG Version: 6.00 Build 0)  -->
<svg version="1.1" xmlns="http://www.w3.org/2000/svg" xmlns:xlink="http://www.w3.org/1999/xlink" x="0px" y="0px"
	 viewBox="0 0 180 180" style="enable-background:new 0 0 180 180;" xml:space="preserve">
<g id="ca1">
	<rect y="0" style="fill:#FFFFFF;" width="180" height="180"/>
</g>
<g id="ca2">
	<path style="fill:#00A63D;" d="M101.48,41.947c0,0,1.606,0.229,1.606,1.606c0,1.377,0,9.407,0,9.407l0.918,3.213h-1.836v1.606
		c0,0,1.033-0.804,1.836,0c0.803,0.803,0,1.606,0,1.606h-1.836v2.671c0,0,0.115,1.327,1.147,2.359
		c1.032,1.033,17.477,5.25,17.477,14.83c0,3.212-1.607,3.212-1.607,3.212v1.606c0,0,1.607,0.688,1.607,1.606c0,0.918,0,8.49,0,9.867
		c0,1.376-1.148,2.523-1.148,2.523v39.268c0,0,1.148,1.221,1.148,2.598c0,1.377-0.142,7.923-2.871,9.179
		c-2.729,1.255-17.955,1.676-26.336,1.676c-8.381,0-23.606-0.421-26.336-1.676c-2.73-1.256-2.871-7.802-2.871-9.179
		c0-1.377,1.147-2.598,1.147-2.598V98.062c0,0-1.147-1.147-1.147-2.523c0-1.377,0-8.949,0-9.867c0-0.918,1.606-1.606,1.606-1.606
		v-1.606c0,0-1.606,0-1.606-3.212c0-9.58,16.444-13.797,17.477-14.83c1.032-1.032,1.147-2.359,1.147-2.359v-2.671h-1.836
		c0,0-0.803-0.804,0-1.606c0.803-0.804,1.836,0,1.836,0v-1.606h-1.836l0.918-3.213c0,0,0-8.03,0-9.407
		c0-1.377,1.606-1.606,1.606-1.606H101.48z"/>
</g>
</svg>
