<?xml version="1.0" encoding="iso-8859-1"?>
<!-- Generator: Adobe Illustrator 18.1.1, SVG Export Plug-In . SVG Version: 6.00 Build 0)  -->
<svg version="1.1" xmlns="http://www.w3.org/2000/svg" xmlns:xlink="http://www.w3.org/1999/xlink" x="0px" y="0px"
	 viewBox="0 0 180 180" style="enable-background:new 0 0 180 180;" xml:space="preserve">
<g id="ca1">
	<rect y="0" style="fill:#FFFFFF;" width="180" height="180"/>
</g>
<g id="ca2">
	<path style="fill:#BE2388;" d="M66.526,72.062c0,0-1.148-1.147-1.148-2.523c0-1.377,0-6.949,0-7.867
		c0-0.918,1.607-1.606,1.607-1.606v-1.606c0,0-1.607,0-1.607-3.212c0-9.58,13.444-20.797,14.477-21.831
		c1.032-1.032,1.147-4.359,1.147-4.359v-3.671h-1.836c0,0-0.803-0.804,0-1.606c0.803-0.804,1.836,0,1.836,0v-1.607h-1.836
		l0.918-3.213c0,0,0-8.03,0-9.407c0-1.377,1.606-1.606,1.606-1.606h19.789c0,0,1.606,0.229,1.606,1.606c0,1.377,0,9.407,0,9.407
		l0.918,3.213h-1.836v1.607c0,0,1.033-0.804,1.836,0c0.803,0.803,0,1.606,0,1.606h-1.836v3.671c0,0,0.115,3.327,1.147,4.359
		c1.032,1.033,14.477,12.25,14.477,21.831c0,3.212-1.607,3.212-1.607,3.212v1.606c0,0,1.607,0.688,1.607,1.606
		c0,0.918,0,6.49,0,7.867c0,1.376-1.148,2.523-1.148,2.523l-0.459,0.204v1.606c0,0,1.607,0.688,1.607,1.606s0,6.49,0,7.867
		c0,3.212-1.607,3.212-1.607,3.212v1.606c0,0,1.607,0.688,1.607,1.606c0,0.918,0,6.49,0,7.867c0,3.212-1.607,3.212-1.607,3.212
		v1.606c0,0,1.607,0.688,1.607,1.606c0,0.918,0,6.49,0,7.867c0,3.212-1.607,3.212-1.607,3.212v1.606c0,0,1.607,0.688,1.607,1.606
		c0,0.918,0,6.49,0,7.867c0,3.212-1.607,3.212-1.607,3.212v1.606c0,0,1.607,0.688,1.607,1.606c0,0.918,0,6.49,0,7.867
		c0,3.212-1.607,3.212-1.607,3.212v1.606c0,0,1.607,0.689,1.607,1.606c0,0.918,0,6.49,0,7.867c0,1.376-1.148,2.523-1.148,2.523
		s1.148,1.221,1.148,2.598c0,1.377-0.142,9.923-2.871,11.179c-2.729,1.255-14.955,1.676-23.336,1.676
		c-8.381,0-20.606-0.421-23.336-1.676c-2.73-1.256-2.871-9.802-2.871-11.179c0-1.377,1.148-2.598,1.148-2.598
		s-1.148-1.147-1.148-2.523c0-1.377,0-6.949,0-7.867c0-0.918,1.607-1.606,1.607-1.606v-1.606c0,0-1.607,0-1.607-3.212
		c0-1.377,0-6.949,0-7.867c0-0.918,1.607-1.606,1.607-1.606v-1.606c0,0-1.607,0-1.607-3.212c0-1.377,0-6.949,0-7.867
		c0-0.918,1.607-1.606,1.607-1.606v-1.606c0,0-1.607,0-1.607-3.212c0-1.377,0-6.949,0-7.867c0-0.918,1.607-1.606,1.607-1.606v-1.606
		c0,0-1.607,0-1.607-3.212c0-1.377,0-6.949,0-7.867c0-0.918,1.607-1.606,1.607-1.606v-1.606c0,0-1.607,0-1.607-3.212
		c0-1.377,0-6.949,0-7.867s1.607-1.606,1.607-1.606v-1.606L66.526,72.062z"/>
</g>
</svg>
