<?xml version="1.0" encoding="iso-8859-1"?>
<!-- Generator: Adobe Illustrator 18.1.1, SVG Export Plug-In . SVG Version: 6.00 Build 0)  -->
<svg version="1.1" xmlns="http://www.w3.org/2000/svg" xmlns:xlink="http://www.w3.org/1999/xlink" x="0px" y="0px"
	 viewBox="0 0 180 180" style="enable-background:new 0 0 180 180;" xml:space="preserve">
<g id="ca1">
	<rect y="0" style="fill:#FFFFFF;" width="180" height="180"/>
</g>
<g id="ca2">
	<path style="fill:#F2B70A;" d="M101.48,7.947c0,0,1.606,0.229,1.606,1.606c0,1.377,0,9.407,0,9.407l0.918,3.213h-1.836v1.607
		c0,0,1.033-0.804,1.836,0c0.803,0.803,0,1.606,0,1.606h-1.836v3.671c0,0,0.115,3.327,1.147,4.359c0,0,14.477,8.25,14.477,9.917
		s0,16,0,16s-1.477-0.046-1.477,1.477c0,1.523,1.522,0,1.522,1.523c0,1.523,0,5.667,0,7.667s-1.5,1.667-1.5,3.5
		c0,0,1.454,0.551,1.454,1.928c0,0,0,48.822,0,50.619c0,1.797-0.538,0.537-1.454,1.453c-0.917,0.916,0,1.5,0,1.5
		s1.454,0.551,1.454,1.928c0,0.998,0,33.591,0,35.572c0,1.686-2.121,4.262-2.871,4.606c-2.729,1.255-14.955,1.676-23.336,1.676
		c-8.381,0-20.606-0.421-23.336-1.676c-0.75-0.345-2.871-2.921-2.871-4.606c0-1.982,0-34.574,0-35.572
		c0-1.377,1.454-1.928,1.454-1.928s0.916-0.584,0-1.5c-0.917-0.916-1.454,0.344-1.454-1.453c0-1.797,0-50.619,0-50.619
		c0-1.377,1.454-1.928,1.454-1.928c0-1.833-1.5-1.5-1.5-3.5s0-6.144,0-7.667c0-1.523,1.523,0,1.523-1.523
		c0-1.523-1.477-1.477-1.477-1.477s0-14.333,0-16s14.477-9.917,14.477-9.917c1.032-1.032,1.147-4.359,1.147-4.359v-3.671h-1.836
		c0,0-0.803-0.804,0-1.606c0.803-0.804,1.836,0,1.836,0v-1.607h-1.836l0.918-3.213c0,0,0-8.03,0-9.407
		c0-1.377,1.606-1.606,1.606-1.606H101.48z"/>
</g>
</svg>
