<?xml version="1.0" encoding="iso-8859-1"?>
<!-- Generator: Adobe Illustrator 18.1.1, SVG Export Plug-In . SVG Version: 6.00 Build 0)  -->
<svg version="1.1" xmlns="http://www.w3.org/2000/svg" xmlns:xlink="http://www.w3.org/1999/xlink" x="0px" y="0px"
	 viewBox="0 0 180 180" style="enable-background:new 0 0 180 180;" xml:space="preserve">
<g id="ca1">
	<rect y="0" style="fill:#FFFFFF;" width="180" height="180"/>
</g>
<g id="ca2">
	<path style="fill:#EA583B;" d="M100.48,7.947c0,0,1.606,0.229,1.606,1.606c0,1.377,0,7.407,0,7.407l0.918,3.213h-1.836v1.607
		c0,0,1.033-0.804,1.836,0c0.803,0.803,0,1.606,0,1.606h-1.836v2.671c0,0,0.115,3.327,1.147,4.359c0,0,14.477,19.083,14.477,46.583
		s-1,81.001-1,85.5c0,4.499-0.323,6.464-1.871,7.606c-2.417,1.784-13.955,2.676-22.336,2.676c-8.381,0-19.919-0.892-22.336-2.676
		c-1.548-1.143-1.871-3.107-1.871-7.606c0-4.499-1-58-1-85.5s14.477-46.583,14.477-46.583c1.032-1.032,1.147-4.359,1.147-4.359
		v-2.671h-1.836c0,0-0.803-0.804,0-1.606c0.803-0.804,1.836,0,1.836,0v-1.607h-1.836l0.918-3.213c0,0,0-6.03,0-7.407
		c0-1.377,1.606-1.606,1.606-1.606H100.48z"/>
</g>
</svg>
