<?xml version="1.0" encoding="iso-8859-1"?>
<svg version="1.1" xmlns="http://www.w3.org/2000/svg" xmlns:xlink="http://www.w3.org/1999/xlink" x="0px" y="0px"
   viewBox="0 0 250 250" style="enable-background:new 0 0 250 250;" xml:space="preserve">
  <rect style="fill:#FFFFFF;" width="250" height="250"/>
  <path style="fill:none;stroke:#636262;stroke-width:0.75;" d="M102.666,99.333c-30.571-16.305,105.334-14.667,46.666-28
    c-58.666-13.333-12.401-23.146-30.667-26C97.333,42,11.333,104.667,40.667,98.667S104.667,175.333,70,160
    s-12.614,15.75-4.667,16.667C100,180.667,88,197.333,136,190s39,12.333,48,21.333S244,166,216,166s-50.333-23-39-34.334
    c11.333-11.333,29.666-48.999,12.333-45.666S122.666,110,102.666,99.333z"/>
</svg>
