<?xml version="1.0" encoding="iso-8859-1"?>
<svg version="1.1" xmlns="http://www.w3.org/2000/svg" xmlns:xlink="http://www.w3.org/1999/xlink" x="0px" y="0px"
   viewBox="0 0 250 250" style="enable-background:new 0 0 250 250;" xml:space="preserve">
  <rect y="0" style="fill:#FFFFFF;" width="250" height="250"/>
  <path style="fill:none;stroke:#636262;stroke-width:0.75;" d="M134.954,29.071c49.506,0,5.403,63.71,54.976,63.71"/>
  <path style="fill:none;stroke:#636262;stroke-width:0.75;" d="M189.93,93.38c2.105,7.789,3.969,20.705,13.357,22.797
    c4.891,1.089,8.613-0.571,12.998,1.62c5.33,2.664,10.256,6.816,10.816,12.89c1.469,15.915-14.082,13.541-25.076,13.63
    c-3.887,0.031-7.918-0.209-12.23-0.014c-6.285,0.285-21.898-2.044-26.059,1.797"/>
  <path style="fill:none;stroke:#636262;stroke-width:0.75;" d="M163.736,146.1c0,13.273,0.404,27.834-1.234,40.699
    c-1.256,9.881-4.508,24.748-1.264,34.664c-20.578,0.611-40.848,2.439-61.208,0.695c-6.732-0.576-12.998-0.311-19.715-0.574
    c-3.794-0.148-13.232-3.535-15.876-2.393"/>
  <path style="fill:none;stroke:#636262;stroke-width:0.75;" d="M64.439,219.191c-3.51-7.053-5.964-12.814-6.703-20.344
    c-0.859-8.764-4.223-16.402-5.463-25.102c-1.021-7.17-1.838-14.645-1.1-21.988c0.58-5.77,4.122-10.177,4.828-15.785
    c12.021,0.367,24.591-0.656,36.796-0.656c3.297,0,16.368,1.957,18.52-0.121c1.85-1.787,0.51-8.258,1.169-10.558
    c-5.265-0.749-11.045,0.502-16.42,0.495c-10.109-0.013-20.34-0.482-30.44-0.031c-7.193,0.321-14.22,1.536-21.807,1.139
    c-0.664-11.907-0.39-21.859-3.747-32.261"/>
  <path style="fill:none;stroke:#636262;stroke-width:0.75;" d="M134.954,29.071c-12.884,0-23.589-0.398-35.449,3.417
    c-10.392,3.342-16.66,12.487-21.168,21.5c-4.054,8.104-8.48,22.216-21.039,15.828c-6.145-3.126-6.081-9.406-8.267-14.963
    c-1.862-4.733-6.993-10.145-12.164-12.019C21.053,37.102,19.327,58.52,23.849,68.352c4.249,9.236,14.414,15.312,16.223,25.627"/>
</svg>
