<?xml version="1.0" encoding="iso-8859-1"?>
<svg version="1.1" xmlns="http://www.w3.org/2000/svg" xmlns:xlink="http://www.w3.org/1999/xlink" x="0px" y="0px"
   viewBox="0 0 250 250" style="enable-background:new 0 0 250 250;" xml:space="preserve">
  <rect y="0" style="fill:#FFFFFF;" width="250" height="250"/>
  <path style="fill:none;stroke:#636262;stroke-width:0.75;" d="M120.549,221.778c0.052-3.738-1.998-19.128-4.905-21.897
    c-2.874-2.74-10.994-1.075-14.837-1.067c-11.896,0.024-23.806-4.023-34.761-7.69c-5.085-1.703-7.565-2.732-9.917-6.816
    c-3.755-6.522-5.863-17.577-6.855-24.991c-1.555-11.629-7.918-30.148-2.031-36.036c5.888-5.889,10.525-2.228,14.993,2.239
    c4.468,4.468-7.026,21.953-4.294,33.033c0.816,3.31,2.023,5.498,2.643,8.877c0.55,2.994,0.853,6.373,2.521,8.965
    c4.899,7.614,17.288,7.573,25.048,8.291c6.905,0.638,14.93,7.925,19.426,3.43c4.496-4.496-1.347-13.293-2.141-19.845
    c-1.149-9.477-3.773-5.067-11.272-7.516c-13.178-4.304-15.947-18.077-17.296-30.393c-2.985-27.231-13.441-52.948-12.334-80.531
    c0.147-3.66,2.49-10.924,7.388-10.698c5.766,0.267,6.57,8.101,6.613,12.211c0.143,13.589,4.738,25.649,5.477,39.072
    c0.553,10.037-0.223,20.179,0.714,30.145c0.596,6.344,0.49,18.722,5.014,23.356c2.639,2.704,6.969,1.278,10.487,1.932
    c2.259,0.419,4.772,7.285,9.002,3.056c4.23-4.23-0.367-6.367-0.441-9.526c-0.181-7.741,1.454-15.396,1.688-23.165
    c0.441-14.654-1.418-29.896,0.52-44.43c1.164-8.739,3.396-17.646,5.351-26.266c1.227-5.411-8.12-16.52,3.081-16.52
    s5.485,7.367,9.113,11.702c5.528,6.606-0.388,23.165-0.727,31.551c-0.662,16.429,0.181,32.452-1.667,48.676
    c-0.959,8.42-6.637,21.788-1.596,26.83c5.041,5.041,30.635-20.062,33.981-36.347c3.686-17.933,3.531-36.2,5.115-54.353
    c0.337-3.868,0.767-12.834,3.939-14.535c8.979-4.813,8.417,9.069,8.412,13.318c-0.012,11.039,1.109,22.352,0.573,33.268
    c-0.416,8.479-3.275,17.005-4.491,25.248c-1.239,8.401-2.2,17.001-4.332,25.039c-3.162,11.924-19.396,17.213-29.809,18.652
    c-6.46,0.894-8.975,0.118-10.142,7.131c-0.884,5.307-1.759,11.271-1.651,16.817c0.162,8.332,6.087,5.465,12.717,4.102
    c9.236-1.9,18.862-4.218,27.582-6.921c11.185-3.467,17.116-18.394,20.611-29.012c4.204-12.774-0.971-31.752,4.835-37.557
    c5.805-5.805,17.65,0.652,17.183,10.143c-0.227,4.636-2.198,9.373-2.855,13.976c-0.958,6.706-0.632,13.608-1.641,20.254
    c-1.054,6.938-5.581,12.2-8.567,18.156c-2.453,4.893-4.519,9.378-8.686,13.156c-6.018,5.457-15.386,4.834-23.258,5.464
    c-13.185,1.053-25.396,2.463-38.272,5.714c-1.066,8.244,2.242,14.764,1.961,22.781
    C125.237,222.598,122.967,222.073,120.549,221.778"/>
</svg>
