<?xml version="1.0" encoding="iso-8859-1"?>
<svg version="1.1" xmlns="http://www.w3.org/2000/svg" xmlns:xlink="http://www.w3.org/1999/xlink" x="0px" y="0px"
   viewBox="0 0 250 250" style="enable-background:new 0 0 250 250;" xml:space="preserve">
  <rect y="0" style="fill:#FFFFFF;" width="250" height="250"/>
  <path style="fill:none;stroke:#636262;stroke-width:0.75;" d="M46.143,188.371c-6.13-13.276-5.069-21.988-6.301-36.697
    c-1.282-15.302,2.875-31.509,4.862-46.61c1.794-13.647,3.939-27.337,6.742-40.777c2.441-11.705,4.979-32.055,21.044-31.802
    C83.079,32.65,89.752,48.21,92.802,56.433c7.588,20.461,15.581,22.77,23.064,43.315c5.537,15.199,10.127,31.389,16.754,46.018
    c3.753,8.284,8.584,33.073,14.07,40.141c3.67,4.729,5.857,11.93,10.698,15.611c6.085,4.627,4.815,10.497,12.206,10.569
    c6.501,0.064,8.973,0.901,15.098-1.05c12.354-3.935,21.332-19.1,22.521-30.958c3.694-36.872,12.52-81.469-1.73-118.248
    c-2.766-7.142-5.586-13.862-8.951-20.406c-4.39-8.538-3.798-9.384-12.625-4.708c-16.523,8.753-18.841,16.437-28.53,33.16
    c-13.605,23.481-21.085,33.089-31.752,57.961c-5.247,12.233-13.345,40.513-19.111,52.451c-2.943,6.093-6.094,13.878-10.927,18.239
    c-5.41,4.883-11.474,12.418-17.609,15.935c-2.465,1.413-12.826,4.92-15.666,3.428C54.876,215.033,51.362,193.591,46.143,188.371z"
    />
</svg>
