<?xml version="1.0" encoding="iso-8859-1"?>
<svg version="1.1" xmlns="http://www.w3.org/2000/svg" xmlns:xlink="http://www.w3.org/1999/xlink" x="0px" y="0px"
   viewBox="0 0 250 250" style="enable-background:new 0 0 250 250;" xml:space="preserve">
  <rect style="fill:#FFFFFF;" width="250" height="250"/>
  <polygon style="fill:none;stroke:#636262;stroke-width:0.75;" points="26.333,39.334 37.667,62 49.667,50 22,94 37.667,106
    29.667,138.667 17.667,136.667 23,173.333 44.333,139.333 41,178.667 56.333,173.333 30.333,191.333 47,218.667 57,200
    70.334,225.333 88,213.333 124.333,223 111.666,207.333 95,202.667 98.334,172.667 112.333,190 121.667,186.667 124.333,202
    137.667,212.667 133.667,226 153.667,223 149.667,206.667 151,184 159,207.333 163.667,194.667 190,212 201.667,196
    204.333,182.667 222.333,182 221,160.667 204.333,176 202.667,144 220.333,140 221,120.667 187.333,107.334 217.667,106
    234.333,80.667 224.333,75.334 217.667,86 205.667,71.334 193,37.334 166.333,50.667 178.333,65.334 153.333,53.334 146.333,36
    120.333,67.334 109,41.334 112.333,24.667 93.666,30.667 96.334,42 79,50.667 70.334,38.667 75,22.667 54.333,33.334 50.333,26
    39,26.667   "/>
</svg>
