<?xml version="1.0" encoding="iso-8859-1"?>
<svg version="1.1" xmlns="http://www.w3.org/2000/svg" xmlns:xlink="http://www.w3.org/1999/xlink" x="0px" y="0px"
   viewBox="0 0 250 250" style="enable-background:new 0 0 250 250;" xml:space="preserve">
  <rect style="fill:#FFFFFF;" width="250" height="250"/>
  <path style="fill:none;stroke:#636262;stroke-width:0.75;" d="M44.667,22C58,22,133.667,28.667,159,28.667s66-1.334,66,6
    c0,7.333-72.666-0.666-91.333,2.667C115,40.667,60,46.667,48.667,46.667s-25.333,0.667-25.333,4.667s58.333,8,87.667,8
    s77.333,0.666,77.333,7.333S218.334,88,225.667,88C233,88,192.334,121.333,117,121.333c-75.333,0-51.666,8.668-35,9.334
    c16.666,0.666,105.243,4.049,104.333,11.333c-1,8-52.667,10.333-71.333,10.333c-18.666,0-68,3.667-68,9.667
    s28.334,12.333,43,12.333S149.667,181,169,181s-50.334,20.667-79,20.667s-74.667,12-54,12s137.333,13,183.333,13"/>
</svg>
