<?xml version="1.0" encoding="iso-8859-1"?>
<svg version="1.1" xmlns="http://www.w3.org/2000/svg" xmlns:xlink="http://www.w3.org/1999/xlink" x="0px" y="0px"
   viewBox="0 0 250 250" style="enable-background:new 0 0 250 250;" xml:space="preserve">
  <rect style="fill:#FFFFFF;" width="250" height="250"/>
  <path style="fill:none;stroke:#636262;stroke-width:0.75;" d="M67.985,52.718c0.845,2.005,3.026,3.78,5.995,5.34
    c3.87,2.032,9.079,3.698,14.419,5.029c11.814,2.944,24.268,4.247,24.268,4.247l-31.575,7.664L44,84l27.304,0.835l14.032,0.43
    l13.332,0.408L109.333,86c0,0-2.666,18-6,18c-1.743,0-10.957,0.547-19.354,1.068c-0.924,0.058-1.838,0.115-2.731,0.171
    C74.734,105.648,69.334,106,69.334,106l30-14l-0.741-2.779l-4.006-15.022l-1.707-6.403L91.334,62c0,0-3.333-26.666-2-10.666
    c1.333,16-6.667,40-6.667,40L76,92.667l-13.333,2.667L50,72c0,0,9.807,11.693,16.086,20.609c2.069,2.938,3.754,5.573,4.581,7.391
    c3.334,7.334,14.667,3.333,12,10.667c-2.666,7.333,38,18.666,38,18.666L85.676,88.875l-3.078-3.559c0,0-5.632-10.198-5.888-14.693
    c-0.361-6.336,0.823-11.904,8.623-1.956c9.327,11.895,18,26.068,22.372,33.512c1.878,3.199,2.961,5.155,2.961,5.155
    s-23.348,7.004-25.491,11.243c-0.418,0.826-0.031,1.547,1.491,2.09C96,124,129.334,94,126.667,94
    c-0.789,0-6.131-1.226-13.263-2.952c-5.665-1.371-12.461-3.059-18.999-4.698C81.359,83.08,69.334,80,69.334,80s13.333-58,2-25.333
    S60.667,100,60.667,100L45.333,60c0,0,47.333,66,39.333,64.667s-24.667-16-22-20.667c2.667-4.666,30.667-1.333,32,6
    c1.334,7.334,46.002-19.333,36.001-11.333c-10.001,8-28,22-27.334,24c0.667,2-3.333-18.666-2-23.333S72,100.667,74,95.334
    C76,90,88.666,80.667,88.666,80.667l16-1.333c0,0-7.333,9.333-4,14.666c3.334,5.334,22,3.334,22,3.334l-21.333-22.667
    c0,0,10-6,8-3.333c-2,2.666-9.333,1.333-11.333,2C96,74,103.333,42.667,94,60s-31.333-16-28.666-6c2.666,10,8.667,31.334,8,33.334
    C72.666,89.334,52,54,54.667,58.667S62,46,66,64.667s-12.667,5.334-8.667-1.333S67.14,50.713,67.985,52.718z"/>
  <path style="fill:none;stroke:#636262;stroke-width:0.75;" d="M67.14,50.713"/>
</svg>
