<?xml version="1.0" encoding="utf-8"?>
<!DOCTYPE svg PUBLIC "-//W3C//DTD SVG 1.1//EN" "http://www.w3.org/Graphics/SVG/1.1/DTD/svg11.dtd">
<svg
  version="1.1"
  xmlns="http://www.w3.org/2000/svg"
  xmlns:xlink="http://www.w3.org/1999/xlink"
  xml:space="preserve"
  viewBox="0 0 89 14">
  <title>ALLAURMONO</title>
  <path
    id="allaurmono"
    fill="none"
    stroke="skyblue"
    stroke-linecap="round"
    stroke-linejoin="round"
    stroke-width="2"
    d="
      m1,13 l0,-6 l6,0 l0,-3 a3,3,0,1,0,-6,0 l0,3 l6,0 l0,6
      m3,-12 l0,12 l6,0
      m3,-12 l0,12 l6,0
      m3,0 l0,-6 l6,0 l0,-3 a3,3,0,1,0,-6,0 l0,3 l6,0 l0,6
      m3,-12 l0,9 a3,3,0,1,0,6,0 l0,-9
      m3,12 l0,-12 l3,0 a3,3,0,0,1,0,6 l-3,0 l3,0 a3,3,0,0,1,3,3 l0,3
      m3,0 l0,-12 l3,5 l3,-5 l0,12
      m6,0 a3,3,0,0,0,3,-3 l0,-6 a3,3,0,0,0,-6,0 l0,6 a3,3,0,0,0,3,3
      m6,0 l0,-12 l6,12 l0-12
      m6,12 a3,3,0,0,0,3,-3 l0,-6 a3,3,0,0,0,-6,0 l0,6 a3,3,0,0,0,3,3
    ">
  </path>
</svg>
