<?xml version="1.0" encoding="utf-8"?>
<!-- Generator: Adobe Illustrator 18.1.1, SVG Export Plug-In . SVG Version: 6.00 Build 0)  -->
<svg version="1.1" xmlns="http://www.w3.org/2000/svg" xmlns:xlink="http://www.w3.org/1999/xlink" x="0px" y="0px"
	 viewBox="0 0 250 250" enable-background="new 0 0 250 250" xml:space="preserve">
<g id="bg">
	<rect fill="#E07F00" width="250" height="250"/>
</g>
<g id="char">
	<g>
		<path fill="#FFFFFF" d="M98.8,87.7c-1.5,3.3-4.2,5.6-4.2,5.6v95.3H87v-88.3c-5.4,4.7-8.8,6.4-8.8,6.4l-6-8.8
			c12.8-8.7,24.7-23.3,31.5-36.6l11,2.3c0,0-5.6,9.3-8.4,14.2h12.5V61.3h10v16.5h18.8v9.9h-18.8V93h18.8v46.4h-18.8v4.7h17.6
			l-0.9,9.1h-16.7v5.5l14.9-1.2l-3.9,9.9l-41.6,5.3v-10.6l20.5-2.3v-6.7H98.3v-9.1h20.5v-4.7H98.3V93h20.5v-5.3H98.8"/>
		<rect x="110" y="102.4" fill="#E07F00" width="8.8" height="8.8"/>
		<rect x="110" y="120.6" fill="#E07F00" width="8.8" height="8.8"/>
		<rect x="128.8" y="102.4" fill="#E07F00" width="8.8" height="8.8"/>
		<rect x="128.8" y="120.6" fill="#E07F00" width="8.8" height="8.8"/>
		<path fill="#FFFFFF" d="M149.7,79.7h5.1V61.3h9.4v18.3h13.6c0,0,1.3,108.5-12.7,108.5c-14.1,0-14.4-9.8-14.4-9.8l5.3-9.7
			c0,0,2,8.6,4.9,8.7c7.5,0.1,9.4-87.8,9.4-87.8h-6c0,0,0.8,28.9-2.3,56.2c-2,17.4-11.8,33.8-22.9,42.4l-8-6.3
			c3-2.2,14-7.8,20.4-36.2c2.9-13.2,3.5-32.1,3.5-56.2h-5.1V79.7z"/>
	</g>
</g>
</svg>
