<?xml version="1.0" encoding="utf-8"?>
<!-- Generator: Adobe Illustrator 18.1.1, SVG Export Plug-In . SVG Version: 6.00 Build 0)  -->
<svg version="1.1" xmlns="http://www.w3.org/2000/svg" xmlns:xlink="http://www.w3.org/1999/xlink" x="0px" y="0px"
	 viewBox="0 0 250 250" enable-background="new 0 0 250 250" xml:space="preserve">
<g id="bg">
	<rect x="0" fill="#FFFFFF" width="250" height="250"/>
</g>
<g id="green">
	<polygon fill="#009944" points="220.9,240.3 29.1,240.3 9.7,220.9 9.7,29.1 29.1,9.7 29.1,9.7 220.9,9.7 240.3,29.1 240.3,220.9 	
		"/>
</g>
<g id="char">
	<path fill="#FFFFFF" d="M111.6,54.1c0,0-56.7,67.5-37.6,121.3c9.8,27.8,56.9,39.4,105.8-43.6c0,0-90,71-83.7,12.6
		c0,0,59.8-3.9,83-86.8c0,0-35.7,58.7-78.7,58.7C100.4,116.3,99.5,91.8,111.6,54.1z"/>
</g>
</svg>
