<?xml version="1.0" encoding="utf-8"?>
<!-- Generator: Adobe Illustrator 18.1.1, SVG Export Plug-In . SVG Version: 6.00 Build 0)  -->
<svg version="1.1" xmlns="http://www.w3.org/2000/svg" xmlns:xlink="http://www.w3.org/1999/xlink" x="0px" y="0px"
	 viewBox="0 0 250 250" enable-background="new 0 0 250 250" xml:space="preserve">
<g id="bg">
	<rect x="0" fill="#FFFFFF" width="250" height="250"/>
</g>
<g id="blue">
	<path fill="#0068B7" d="M237,214.6c0,12.4-10,22.4-22.4,22.4H35.4C23,237,13,227,13,214.6V35.4C13,23,23,13,35.4,13h179.2
		C227,13,237,23,237,35.4V214.6z"/>
</g>
<g id="char">
	<g>
		<path fill="#FFFFFF" d="M169.9,123.9c0,0,33.1-37.7,44.9-63.7H65.2l-8.7,19.5h106.2c0,0-26.1,66.4-127.4,110.1
			c0,0,62.1-10.2,115-47.8c0,0-5.6,10.7,1.9,16.6c9.1,7.2,21.6-3.1,28.4-14.3C187.3,133.1,184,122.6,169.9,123.9z"/>
		<ellipse fill="#0068B7" cx="164.5" cy="142.2" rx="6.5" ry="12.9"/>
	</g>
</g>
</svg>
