<?xml version="1.0" encoding="iso-8859-1"?>
<!-- Generator: Adobe Illustrator 18.1.1, SVG Export Plug-In . SVG Version: 6.00 Build 0)  -->
<svg version="1.1" xmlns="http://www.w3.org/2000/svg" xmlns:xlink="http://www.w3.org/1999/xlink" x="0px" y="0px"
	 viewBox="0 0 250 250" style="enable-background:new 0 0 250 250;" xml:space="preserve">
<g id="ca1">
	<rect style="fill:#B60081;" width="250" height="250"/>
</g>
<g id="ca2">
	<g>
		<polygon style="fill:#FFFFFF;" points="112.23,93.175 120.646,93.175 125,79.844 129.354,93.175 137.771,93.174 125,54.076 		"/>
		<polygon style="fill:#FFFFFF;" points="88.923,128.664 91.523,120.662 80.19,112.4 94.215,112.379 96.815,104.374 55.685,104.438 
					"/>
		<polygon style="fill:#FFFFFF;" points="115.473,161.799 108.665,156.852 97.306,165.076 101.621,151.732 94.811,146.785 
			82.161,185.924 		"/>
		<polygon style="fill:#FFFFFF;" points="155.189,146.785 148.381,151.73 152.693,165.076 141.336,156.85 134.526,161.797 
			167.84,185.922 		"/>
		<polygon style="fill:#FFFFFF;" points="153.185,104.375 155.784,112.379 169.81,112.401 158.476,120.661 161.077,128.666 
			194.315,104.438 		"/>
	</g>
</g>
</svg>
