<?xml version="1.0" encoding="iso-8859-1"?>
<!-- Generator: Adobe Illustrator 18.1.1, SVG Export Plug-In . SVG Version: 6.00 Build 0)  -->
<svg version="1.1" id="Layer_1" xmlns="http://www.w3.org/2000/svg" xmlns:xlink="http://www.w3.org/1999/xlink" x="0px" y="0px"
	 viewBox="162.448 283.896 271.79 271.79" style="enable-background:new 162.448 283.896 271.79 271.79;" xml:space="preserve">
<g id="ca1" style="display:none;">
	<rect x="162.448" y="283.896" style="display:inline;fill:#FFFFFF;" width="271.79" height="271.79"/>
	<g style="display:inline;">
		<g>
			<polyline style="fill:none;stroke:#000000;stroke-width:0.3;" points="125.468,555.687 153.202,555.687 153.202,592.667 			"/>
			<polyline style="fill:none;stroke:#000000;stroke-width:0.3;" points="162.448,592.667 162.448,564.933 125.468,564.933 			"/>
		</g>
		<g>
			<polyline style="fill:none;stroke:#000000;stroke-width:0.3;" points="125.468,283.896 153.202,283.896 153.202,246.917 			"/>
			<polyline style="fill:none;stroke:#000000;stroke-width:0.3;" points="162.448,246.917 162.448,274.651 125.468,274.651 			"/>
		</g>
		<g>
			<polyline style="fill:none;stroke:#000000;stroke-width:0.3;" points="471.218,283.896 443.483,283.896 443.483,246.917 			"/>
			<polyline style="fill:none;stroke:#000000;stroke-width:0.3;" points="434.238,246.917 434.238,274.651 471.218,274.651 			"/>
		</g>
		<g>
			<polyline style="fill:none;stroke:#000000;stroke-width:0.3;" points="471.218,555.687 443.483,555.687 443.483,592.667 			"/>
			<polyline style="fill:none;stroke:#000000;stroke-width:0.3;" points="434.238,592.667 434.238,564.933 471.218,564.933 			"/>
		</g>
		<g>
			<line style="fill:none;stroke:#000000;stroke-width:0.3;" x1="123.31" y1="419.792" x2="149.402" y2="419.792"/>
			<line style="fill:none;stroke:#000000;stroke-width:0.3;" x1="142.879" y1="380.655" x2="142.879" y2="458.93"/>
		</g>
		<g>
			<line style="fill:none;stroke:#000000;stroke-width:0.3;" x1="473.375" y1="419.792" x2="447.283" y2="419.792"/>
			<line style="fill:none;stroke:#000000;stroke-width:0.3;" x1="453.806" y1="458.93" x2="453.806" y2="380.655"/>
		</g>
		<g>
			<line style="fill:none;stroke:#000000;stroke-width:0.3;" x1="259.205" y1="264.328" x2="337.48" y2="264.328"/>
			<line style="fill:none;stroke:#000000;stroke-width:0.3;" x1="298.343" y1="244.759" x2="298.343" y2="270.851"/>
		</g>
		<g>
			<line style="fill:none;stroke:#000000;stroke-width:0.3;" x1="337.48" y1="575.256" x2="259.205" y2="575.256"/>
			<line style="fill:none;stroke:#000000;stroke-width:0.3;" x1="298.343" y1="594.825" x2="298.343" y2="568.733"/>
		</g>
	</g>
</g>
<g id="ca2">
	<rect x="162.448" y="283.896" style="fill:#FFE100;" width="271.79" height="271.79"/>
</g>
<g id="ca3">
	<polygon style="fill:#00A73C;" points="434.238,356.588 162.448,388.116 162.448,397.9 434.238,366.373 	"/>
</g>
</svg>
