<?xml version="1.0" encoding="utf-8"?>
<!-- Generator: Adobe Illustrator 18.1.1, SVG Export Plug-In . SVG Version: 6.00 Build 0)  -->
<svg version="1.1" xmlns="http://www.w3.org/2000/svg" xmlns:xlink="http://www.w3.org/1999/xlink" x="0px" y="0px"
	 viewBox="0 0 160 160" enable-background="new 0 0 160 160" xml:space="preserve">
<g id="background">
	<rect fill="#009E96" width="160" height="160"/>
</g>
<g id="text">
	<g>
		<rect x="15" y="10" fill="#EA609E" width="10" height="140"/>
		<rect x="35" y="60" fill="#EA609E" width="10" height="80"/>
		<rect x="55" y="60" fill="#EA609E" width="10" height="80"/>
		<rect x="95" y="50" fill="#EA609E" width="10" height="80"/>
		<rect x="75" y="50" fill="#EA609E" width="10" height="80"/>
		<rect x="115" y="60" fill="#EA609E" width="10" height="80"/>
		<rect x="135" y="60" fill="#EA609E" width="10" height="40"/>
		<rect x="45" y="50" fill="#EA609E" width="10" height="10"/>
		<rect x="125" y="50" fill="#EA609E" width="10" height="10"/>
		<rect x="140" y="10" fill="#FFF100" width="10" height="10"/>
		<rect x="125" y="100" fill="#EA609E" width="10" height="10"/>
		<rect x="125" y="140" fill="#EA609E" width="10" height="10"/>
		<rect x="135" y="120" fill="#EA609E" width="10" height="20"/>
		<rect x="85" y="130" fill="#EA609E" width="10" height="20"/>
		<rect x="45" y="140" fill="#EA609E" width="10" height="10"/>
	</g>
</g>
</svg>
