<?xml version="1.0" encoding="utf-8"?>
<!-- Generator: Adobe Illustrator 18.1.1, SVG Export Plug-In . SVG Version: 6.00 Build 0)  -->
<svg version="1.1" id="layer1" xmlns="http://www.w3.org/2000/svg" xmlns:xlink="http://www.w3.org/1999/xlink" x="0px" y="0px"
	 viewBox="0 0 160 160" enable-background="new 0 0 160 160" xml:space="preserve">
<rect fill="#FFFFFF" width="160" height="160"/>
<g>
	<ellipse fill="#00A0E9" cx="103.8" cy="130" rx="41.2" ry="7.8"/>
	<g>
		<path d="M54.1,43.5v57.2h-3.8V43.5"/>
		<path d="M55.3,94.5l3.5-0.5c0.2,1.4,0.7,2.5,1.6,3.2c0.9,0.7,2.1,1.1,3.7,1.1c1.6,0,2.8-0.3,3.6-1c0.8-0.7,1.2-1.4,1.2-2.3
			c0-0.8-0.3-1.4-1-1.9c-0.5-0.3-1.7-0.7-3.6-1.2c-2.6-0.6-4.4-1.2-5.3-1.7c-1-0.5-1.7-1.1-2.3-2c-0.5-0.8-0.8-1.8-0.8-2.8
			c0-0.9,0.2-1.8,0.6-2.6c0.4-0.8,1-1.4,1.7-2c0.5-0.4,1.3-0.7,2.2-1c0.9-0.3,2-0.4,3-0.4c1.6,0,3,0.2,4.3,0.7
			c1.2,0.5,2.1,1.1,2.7,1.9c0.6,0.8,1,1.9,1.2,3.2l-3.4,0.5c-0.2-1.1-0.6-1.9-1.4-2.5c-0.7-0.6-1.8-0.9-3.2-0.9
			c-1.6,0-2.8,0.3-3.4,0.8c-0.7,0.5-1,1.2-1,1.9c0,0.5,0.1,0.9,0.4,1.2c0.3,0.4,0.7,0.7,1.3,0.9c0.4,0.1,1.4,0.4,3.1,0.9
			c2.5,0.7,4.2,1.2,5.2,1.6c1,0.4,1.8,1,2.3,1.8c0.6,0.8,0.8,1.8,0.8,3c0,1.2-0.3,2.3-1,3.3c-0.7,1-1.7,1.8-3,2.4
			c-1.3,0.6-2.7,0.8-4.4,0.8c-2.7,0-4.7-0.6-6.1-1.7C56.5,98.3,55.6,96.7,55.3,94.5z"/>
		<path d="M87.2,107v-9.3c-1.6,2.3-3.8,3.5-6.6,3.5c-1.2,0-2.4-0.2-3.4-0.7c-1.1-0.5-1.9-1.1-2.4-1.8c-0.5-0.7-0.9-1.6-1.1-2.6
			c-0.1-0.7-0.2-1.8-0.2-3.3V80H77v11.5c0,1.8,0.1,3.1,0.2,3.7c0.2,0.9,0.7,1.7,1.4,2.2c0.7,0.5,1.6,0.8,2.7,0.8s2-0.3,3-0.8
			c0.9-0.5,1.6-1.3,2-2.2c0.4-0.9,0.6-2.3,0.6-4.1V80h3.5v27H87.2z"/>
		<path d="M93.7,108.7l-0.5-3.3c0.8,0.2,1.5,0.3,2.1,0.3c0.8,0,1.4-0.1,1.9-0.4c0.5-0.3,0.9-0.6,1.2-1.1c0.2-0.4,0.6-1.2,1.1-2.6
			c0.1-0.2,0.2-0.5,0.3-0.9L91.8,80h3.7l4.4,12c0.6,1.5,1.1,3.1,1.5,4.8c0.4-1.6,0.9-3.2,1.5-4.7l4.4-12.1h3.5l-7.9,21.1
			c-0.9,2.3-1.5,3.8-2,4.7c-0.6,1.2-1.3,2-2.2,2.5c-0.8,0.5-1.8,0.8-2.9,0.8C95.3,109.1,94.5,109,93.7,108.7z"/>
		<path d="M126.4,107v-9.3c-1.6,2.3-3.8,3.5-6.6,3.5c-1.2,0-2.4-0.2-3.4-0.7c-1.1-0.5-1.9-1.1-2.4-1.8c-0.5-0.7-0.9-1.6-1.1-2.6
			c-0.1-0.7-0.2-1.8-0.2-3.3V80h3.5v11.5c0,1.8,0.1,3.1,0.2,3.7c0.2,0.9,0.7,1.7,1.4,2.2c0.7,0.5,1.6,0.8,2.7,0.8c1.1,0,2-0.3,3-0.8
			c0.9-0.5,1.6-1.3,2-2.2c0.4-0.9,0.6-2.3,0.6-4.1V80h3.5v27H126.4z"/>
		<path d="M14.9,43.5c0,0,8.8-2.6,14.9,0c0,0,8.8-2.6,14.9,0c0,0,8.8-2.6,14.9,0c0,0,8.8-2.6,14.9,0c0,0,8.8-2.6,14.9,0
			c0,0-14.3-19.2-37.2-19.2C29.4,24.2,14.9,43.5,14.9,43.5z"/>
		<path stroke="#FFFFFF" stroke-width="0.75" d="M123.7,108.5h8.1v13.1c0,0,0.9,2.4,0.9,4.4l0,0v1.9h-5.2v-1.5c0,0-3.4,1.5-6.4,1.5
			s-6.5-0.5-6.5-0.5v-0.8h0.6c0,0-0.2-4.1,3-4.1s4.3-1.1,4.8-1.6S123.7,108.5,123.7,108.5z"/>
		<path stroke="#FFFFFF" stroke-width="0.75" d="M84.4,108.5h8.1v13.1c0,0,0.9,2.4,0.9,4.4l0,0v1.9h-5.2v-1.5c0,0-3.4,1.5-6.4,1.5
			s-6.5-0.5-6.5-0.5v-0.8h0.6c0,0-0.2-4.1,3-4.1c3.2,0,4.3-1.1,4.8-1.6S84.4,108.5,84.4,108.5z"/>
		<line fill="none" stroke="#000000" stroke-width="0.5" x1="52.3" y1="24.2" x2="52.3" y2="22.2"/>
	</g>
</g>
</svg>
