<?xml version="1.0" encoding="utf-8"?>
<!-- Generator: Adobe Illustrator 18.1.1, SVG Export Plug-In . SVG Version: 6.00 Build 0)  -->
<svg version="1.1" id="layer1" xmlns="http://www.w3.org/2000/svg" xmlns:xlink="http://www.w3.org/1999/xlink" x="0px" y="0px"
   viewBox="0 0 160 160" enable-background="new 0 0 160 160" xml:space="preserve">
  <rect fill="#FFFFFF" width="160" height="160"/>
<g>
  <path fill="#00A0E9" d="M24,21c0,1.7-1.3,3-3,3H11c-1.7,0-3-1.3-3-3V11c0-1.7,1.3-3,3-3h10c1.7,0,3,1.3,3,3V21z"/>
  <path fill="#E4007F" d="M40,37c0,1.7-1.3,3-3,3H27c-1.7,0-3-1.3-3-3V27c0-1.7,1.3-3,3-3h10c1.7,0,3,1.3,3,3V37z"/>
  <path fill="#FFF100" d="M56,53c0,1.7-1.3,3-3,3H43c-1.7,0-3-1.3-3-3V43c0-1.7,1.3-3,3-3h10c1.7,0,3,1.3,3,3V53z"/>
  <path fill="#009944" d="M72,69c0,1.7-1.3,3-3,3H59c-1.7,0-3-1.3-3-3V59c0-1.7,1.3-3,3-3h10c1.7,0,3,1.3,3,3V69z"/>
  <path fill="#1D2088" d="M88,85c0,1.7-1.3,3-3,3H75c-1.7,0-3-1.3-3-3V75c0-1.7,1.3-3,3-3h10c1.7,0,3,1.3,3,3V85z"/>
  <path fill="#009944" d="M104,101c0,1.7-1.3,3-3,3H91c-1.7,0-3-1.3-3-3V91c0-1.7,1.3-3,3-3h10c1.7,0,3,1.3,3,3V101z"/>
  <path fill="#FFF100" d="M120,117c0,1.7-1.3,3-3,3h-10c-1.7,0-3-1.3-3-3v-10c0-1.7,1.3-3,3-3h10c1.7,0,3,1.3,3,3V117z"/>
  <path fill="#E4007F" d="M136,133c0,1.7-1.3,3-3,3h-10c-1.7,0-3-1.3-3-3v-10c0-1.7,1.3-3,3-3h10c1.7,0,3,1.3,3,3V133z"/>
  <path fill="#00A0E9" d="M152,149c0,1.7-1.3,3-3,3h-10c-1.7,0-3-1.3-3-3v-10c0-1.7,1.3-3,3-3h10c1.7,0,3,1.3,3,3V149z"/>
  <path fill="#00A0E9" d="M139,24c-1.7,0-3-1.3-3-3V11c0-1.7,1.3-3,3-3h10c1.7,0,3,1.3,3,3v10c0,1.7-1.3,3-3,3H139z"/>
  <path fill="#E4007F" d="M123,40c-1.7,0-3-1.3-3-3V27c0-1.7,1.3-3,3-3h10c1.7,0,3,1.3,3,3v10c0,1.7-1.3,3-3,3H123z"/>
  <path fill="#FFF100" d="M107,56c-1.7,0-3-1.3-3-3V43c0-1.7,1.3-3,3-3h10c1.7,0,3,1.3,3,3v10c0,1.7-1.3,3-3,3H107z"/>
  <path fill="#009944" d="M91,72c-1.7,0-3-1.3-3-3V59c0-1.7,1.3-3,3-3h10c1.7,0,3,1.3,3,3v10c0,1.7-1.3,3-3,3H91z"/>
  <path fill="#009944" d="M59,104c-1.7,0-3-1.3-3-3V91c0-1.7,1.3-3,3-3h10c1.7,0,3,1.3,3,3v10c0,1.7-1.3,3-3,3H59z"/>
  <path fill="#FFF100" d="M43,120c-1.7,0-3-1.3-3-3v-10c0-1.7,1.3-3,3-3h10c1.7,0,3,1.3,3,3v10c0,1.7-1.3,3-3,3H43z"/>
  <path fill="#E4007F" d="M27,136c-1.7,0-3-1.3-3-3v-10c0-1.7,1.3-3,3-3h10c1.7,0,3,1.3,3,3v10c0,1.7-1.3,3-3,3H27z"/>
  <path fill="#00A0E9" d="M11,152c-1.7,0-3-1.3-3-3v-10c0-1.7,1.3-3,3-3h10c1.7,0,3,1.3,3,3v10c0,1.7-1.3,3-3,3H11z"/>
</g>
</svg>
