<?xml version="1.0" encoding="utf-8"?>
<!-- Generator: Adobe Illustrator 18.1.1, SVG Export Plug-In . SVG Version: 6.00 Build 0)  -->
<svg version="1.1" xmlns="http://www.w3.org/2000/svg" xmlns:xlink="http://www.w3.org/1999/xlink" x="0px" y="0px"
	 viewBox="0 0 160 160" enable-background="new 0 0 160 160" xml:space="preserve">
<g id="background">
	<rect y="0.3" fill="#E60012" width="160" height="160"/>
</g>
<g id="box">
	<g>
		<polygon fill="#FFF9B1" stroke="#000000" points="40,71.4 78.4,55.4 116.5,70.7 116.5,101 42.8,100.6 		"/>
		<line fill="#FFFFFF" stroke="#000000" x1="81.6" y1="56.8" x2="81.6" y2="87.1"/>
		<line fill="#FFFFFF" stroke="#000000" x1="78.4" y1="55.4" x2="78.4" y2="85.8"/>
		<line fill="#FFFFFF" stroke="#000000" x1="85" y1="58.2" x2="85" y2="88.5"/>
		<line fill="#FFFFFF" stroke="#000000" x1="88.5" y1="59.6" x2="88.5" y2="90"/>
		<line fill="#FFFFFF" stroke="#000000" x1="91.9" y1="61.1" x2="91.9" y2="91.4"/>
		<line fill="#FFFFFF" stroke="#000000" x1="95.3" y1="62.5" x2="95.3" y2="92.8"/>
		<line fill="#FFFFFF" stroke="#000000" x1="98.8" y1="63.9" x2="98.8" y2="94.3"/>
		<line fill="#FFFFFF" stroke="#000000" x1="102.2" y1="65.4" x2="102.2" y2="95.7"/>
		<line fill="#FFFFFF" stroke="#000000" x1="105.6" y1="66.8" x2="105.6" y2="97.1"/>
		<line fill="#FFFFFF" stroke="#000000" x1="109.1" y1="68.2" x2="109.1" y2="98.6"/>
		<line fill="#FFFFFF" stroke="#000000" x1="112.5" y1="69.7" x2="112.5" y2="100"/>
		<line fill="#FFFFFF" stroke="#000000" x1="76.1" y1="56.4" x2="76.1" y2="86.7"/>
		<line fill="#FFFFFF" stroke="#000000" x1="72.8" y1="57.8" x2="72.8" y2="88.1"/>
		<line fill="#FFFFFF" stroke="#000000" x1="69.5" y1="59.1" x2="69.5" y2="89.4"/>
		<line fill="#FFFFFF" stroke="#000000" x1="66.2" y1="60.5" x2="66.2" y2="90.8"/>
		<line fill="#FFFFFF" stroke="#000000" x1="62.9" y1="61.9" x2="62.9" y2="92.2"/>
		<line fill="#FFFFFF" stroke="#000000" x1="59.7" y1="63.2" x2="59.7" y2="93.6"/>
		<line fill="#FFFFFF" stroke="#000000" x1="56.4" y1="64.6" x2="56.4" y2="94.9"/>
		<line fill="#FFFFFF" stroke="#000000" x1="53.1" y1="66" x2="53.1" y2="96.3"/>
		<line fill="#FFFFFF" stroke="#000000" x1="49.4" y1="67.5" x2="49.4" y2="97.9"/>
		<line fill="#FFFFFF" stroke="#000000" x1="46.1" y1="68.9" x2="46.1" y2="99.2"/>
		<line fill="#FFFFFF" stroke="#000000" x1="42.8" y1="70.3" x2="42.8" y2="100.6"/>
		<circle fill="#FFFFFF" stroke="#000000" cx="79.1" cy="79.1" r="17.8"/>
		<path fill="#FFFFFF" stroke="#000000" d="M74.2,77.2"/>
		<polygon fill="#FFF100" stroke="#000000" stroke-width="0.5" points="76.6,75.9 77,72.7 79.2,74.9 81.7,74.4 81,76.4 81.5,78.7 
			78.6,77.8 76.7,79.9 76,77.6 73.7,76.2 		"/>
		<polygon fill="#FFF100" stroke="#000000" stroke-width="0.5" points="88.1,72.3 85.6,73.6 88.1,74.4 88.1,76.6 90,74.3 92,74.7 
			91.3,72.9 91.2,70.4 89.6,71.3 87.5,69.8 		"/>
		<path fill="#F19EC2" stroke="#000000" stroke-width="0.5" d="M77.2,83.9c0-1.3,1.6-2.4,3.6-2.4s4.6-0.1,5.6-0.4s4.1-2.9,5.9-3.4
			s1.2,0.9,1.4,0.9s0.5,1.6-0.9,2.5s-2.8,2.2-5.2,3.2S77.2,87.1,77.2,83.9z"/>
		<path fill="none" stroke="#E60012" stroke-width="0.5" d="M77.8,83.7c0,0,6.9,0.1,9.5-1s6-3.9,6-3.9"/>
		<path fill="none" stroke="#000000" stroke-width="0.5" d="M68.2,78.9c0,0-3.4-0.6-2.9,1.5s3.1,3.9,3.1,3.9s0.9-0.6,1.4-1.6"/>
		<path fill="#00A0E9" stroke="#000000" stroke-width="0.5" d="M62.4,73.2c0,0,15.7-1.1,26.2-9.3c0,0-7-4.2-14.7-1.8
			C66.1,64.3,62.4,73.2,62.4,73.2z"/>
		<path fill="#009944" stroke="#000000" stroke-width="0.5" d="M64.5,69.3c0,0,9.7-0.7,20.3-7.1C84.8,62.3,72.7,58,64.5,69.3z"/>
		<path fill="#F08300" stroke="#000000" stroke-width="0.5" d="M67.1,65.9c0,0,6.3-0.8,12.8-4.6C80,61.3,73.4,60.6,67.1,65.9z"/>
		<polygon fill="#FFF9B1" stroke="#000000" points="40,71.4 40,109.1 78.4,125.4 78.4,87.8 		"/>
		<polygon fill="#FFF5AF" stroke="#000000" points="78.4,125.4 78.4,87.8 116.7,71.4 116.7,109.1 		"/>
		<line fill="#FFFFFF" stroke="#000000" x1="113.1" y1="73" x2="113.1" y2="110.6"/>
		<line fill="#FFFFFF" stroke="#000000" x1="109.1" y1="74.7" x2="109.1" y2="112.3"/>
		<line fill="#FFFFFF" stroke="#000000" x1="105.2" y1="76.3" x2="105.2" y2="114"/>
		<line fill="#FFFFFF" stroke="#000000" x1="101.3" y1="78" x2="101.3" y2="115.7"/>
		<line fill="#FFFFFF" stroke="#000000" x1="97.4" y1="79.7" x2="97.4" y2="117.3"/>
		<line fill="#FFFFFF" stroke="#000000" x1="93.4" y1="81.3" x2="93.4" y2="119"/>
		<line fill="#FFFFFF" stroke="#000000" x1="89.5" y1="83" x2="89.5" y2="120.7"/>
		<line fill="#FFFFFF" stroke="#000000" x1="85.6" y1="84.7" x2="85.6" y2="122.4"/>
		<line fill="#FFFFFF" stroke="#000000" x1="81.7" y1="86.4" x2="81.7" y2="124"/>
		<line fill="#FFFFFF" stroke="#000000" x1="74.2" y1="86" x2="74.2" y2="123.7"/>
		<line fill="#FFFFFF" stroke="#000000" x1="70.5" y1="84.4" x2="70.5" y2="122.1"/>
		<line fill="#FFFFFF" stroke="#000000" x1="66.7" y1="82.8" x2="66.7" y2="120.4"/>
		<line fill="#FFFFFF" stroke="#000000" x1="62.9" y1="81.2" x2="62.9" y2="118.8"/>
		<line fill="#FFFFFF" stroke="#000000" x1="59.1" y1="79.6" x2="59.1" y2="117.2"/>
		<line fill="#FFFFFF" stroke="#000000" x1="55.3" y1="77.9" x2="55.3" y2="115.6"/>
		<line fill="#FFFFFF" stroke="#000000" x1="51.5" y1="76.3" x2="51.5" y2="114"/>
		<line fill="#FFFFFF" stroke="#000000" x1="47.8" y1="74.7" x2="47.8" y2="112.4"/>
		<line fill="#FFFFFF" stroke="#000000" x1="44" y1="73.1" x2="44" y2="110.8"/>
		<polyline fill="none" stroke="#000000" points="40,71.4 78.4,55.4 116.7,71.4 		"/>
		<polygon fill="#FFF9B1" stroke="#000000" points="116.7,71.4 135,59.7 96.7,43.8 78.4,55.4 		"/>
		<polygon fill="#FFF9B1" stroke="#000000" points="40,71.4 26.4,51.1 64.7,35.1 78.4,55.4 		"/>
		<polygon fill="#FFF9B1" stroke="#000000" points="78.1,87.8 97.1,106.8 135.5,90.4 116.5,71.4 		"/>
		<polygon fill="#FFF9B1" stroke="#000000" points="78.4,87.8 62.9,103.3 24.5,86.9 40,71.4 		"/>
		<line fill="none" stroke="#000000" x1="43.2" y1="70.1" x2="29.5" y2="49.8"/>
		<line fill="none" stroke="#000000" x1="46.5" y1="68.7" x2="32.8" y2="48.4"/>
		<line fill="none" stroke="#000000" x1="49.8" y1="67.4" x2="36.1" y2="47"/>
		<line fill="none" stroke="#000000" x1="53.1" y1="66" x2="39.4" y2="45.7"/>
		<line fill="none" stroke="#000000" x1="56.4" y1="64.6" x2="42.7" y2="44.3"/>
		<line fill="none" stroke="#000000" x1="59.7" y1="63.2" x2="46" y2="42.9"/>
		<line fill="none" stroke="#000000" x1="62.9" y1="61.9" x2="49.3" y2="41.5"/>
		<line fill="none" stroke="#000000" x1="66.2" y1="60.5" x2="52.6" y2="40.2"/>
		<line fill="none" stroke="#000000" x1="69.5" y1="59.1" x2="55.9" y2="38.8"/>
		<line fill="none" stroke="#000000" x1="72.8" y1="57.8" x2="59.1" y2="37.4"/>
		<line fill="none" stroke="#000000" x1="76.1" y1="56.4" x2="62.4" y2="36"/>
		<line fill="#FFFFFF" stroke="#000000" x1="27.6" y1="88.2" x2="43.1" y2="72.7"/>
		<line fill="#FFFFFF" stroke="#000000" x1="30.7" y1="89.6" x2="46.2" y2="74"/>
		<line fill="#FFFFFF" stroke="#000000" x1="33.8" y1="90.9" x2="49.3" y2="75.4"/>
		<line fill="#FFFFFF" stroke="#000000" x1="36.9" y1="92.2" x2="52.4" y2="76.7"/>
		<line fill="#FFFFFF" stroke="#000000" x1="40" y1="93.5" x2="55.5" y2="78"/>
		<line fill="#FFFFFF" stroke="#000000" x1="43.1" y1="94.8" x2="58.6" y2="79.3"/>
		<line fill="#FFFFFF" stroke="#000000" x1="46.2" y1="96.2" x2="61.7" y2="80.7"/>
		<line fill="#FFFFFF" stroke="#000000" x1="49.3" y1="97.5" x2="64.8" y2="82"/>
		<line fill="#FFFFFF" stroke="#000000" x1="52.4" y1="98.8" x2="67.9" y2="83.3"/>
		<line fill="#FFFFFF" stroke="#000000" x1="55.5" y1="100.1" x2="71" y2="84.6"/>
		<line fill="#FFFFFF" stroke="#000000" x1="58.6" y1="101.4" x2="74.1" y2="85.9"/>
		<line fill="none" stroke="#000000" x1="81.6" y1="56.8" x2="99.9" y2="45.1"/>
		<line fill="none" stroke="#000000" x1="85" y1="58.2" x2="103.4" y2="46.5"/>
		<line fill="none" stroke="#000000" x1="88.5" y1="59.6" x2="106.8" y2="48"/>
		<line fill="none" stroke="#000000" x1="91.9" y1="61.1" x2="110.2" y2="49.4"/>
		<line fill="none" stroke="#000000" x1="95.3" y1="62.5" x2="113.7" y2="50.8"/>
		<line fill="none" stroke="#000000" x1="98.8" y1="63.9" x2="117.1" y2="52.3"/>
		<line fill="none" stroke="#000000" x1="102.2" y1="65.4" x2="120.5" y2="53.7"/>
		<line fill="none" stroke="#000000" x1="105.6" y1="66.8" x2="124" y2="55.1"/>
		<line fill="none" stroke="#000000" x1="109.1" y1="68.2" x2="127.4" y2="56.6"/>
		<line fill="none" stroke="#000000" x1="112.5" y1="69.7" x2="130.8" y2="58"/>
		<line fill="#FFFFFF" stroke="#000000" x1="101.4" y1="105.1" x2="82.4" y2="86.1"/>
		<line fill="#FFFFFF" stroke="#000000" x1="105.6" y1="103.2" x2="86.6" y2="84.2"/>
		<line fill="#FFFFFF" stroke="#000000" x1="109.9" y1="101.4" x2="90.9" y2="82.4"/>
		<line fill="#FFFFFF" stroke="#000000" x1="114.1" y1="99.6" x2="95.1" y2="80.6"/>
		<line fill="#FFFFFF" stroke="#000000" x1="118.4" y1="97.8" x2="99.4" y2="78.8"/>
		<line fill="#FFFFFF" stroke="#000000" x1="122.6" y1="96" x2="103.6" y2="77"/>
		<line fill="#FFFFFF" stroke="#000000" x1="126.8" y1="94.2" x2="107.8" y2="75.2"/>
		<line fill="#FFFFFF" stroke="#000000" x1="131.1" y1="92.4" x2="112.1" y2="73.4"/>
	</g>
</g>
</svg>
