<?xml version="1.0" encoding="utf-8"?>
<!-- Generator: Adobe Illustrator 18.1.1, SVG Export Plug-In . SVG Version: 6.00 Build 0)  -->
<svg version="1.1" xmlns="http://www.w3.org/2000/svg" xmlns:xlink="http://www.w3.org/1999/xlink" x="0px" y="0px"
	 viewBox="0 0 160 160" enable-background="new 0 0 160 160" xml:space="preserve">
<g id="bg">
	<rect fill="#EB6EA5" width="160" height="160"/>
</g>
<g id="bin">
	<path fill="#FFFFFF" stroke="#000000" d="M35.7,80.9c0.4-0.8,1.3-1.2,2.2-0.9c0.8,0.4,1.2,1.3,0.9,2.2c0,0,15.4,8.8,31.8,13.7
		c0,0,14.1-8.4,23.6-4.3c9.5,4.1,51.6,24.3,51.6,24.3c1.5,3.7-4.9,18.6-4.9,18.6s-6.4,14.9-10.1,16.3c0,0-43.7-16.6-53.2-20.7
		C68.2,126,64.6,110,64.6,110c-14.8-8.6-31.8-13.7-31.8-13.7c-0.4,0.8-1.3,1.2-2.2,0.9c-0.8-0.4-1.2-1.3-0.9-2.2L35.7,80.9z"/>
</g>
<g id="word">
	<path fill="#FFFFFF" d="M82.1,58.1C89.6,53,94.2,46,94.2,38.2c0-15.4-18.3-27.9-41-27.9c-22.6,0-41,12.5-41,27.9
		c0,15.4,18.3,27.9,41,27.9c5.8,0,11.3-0.8,16.3-2.3l16.3,15.3L82.1,58.1z"/>
</g>
<g id="text">
	<g>
		<path d="M24.1,44.2l0.4-2.7h-1.2v-0.8h1.3l0.3-2h-1.2v-0.8h1.3l0.4-2.7h0.8l-0.4,2.7h1.5l0.4-2.7h0.8l-0.4,2.7h1.1v0.8h-1.3
			l-0.3,2h1.2v0.8h-1.3l-0.4,2.7h-0.8l0.4-2.7h-1.5l-0.4,2.7H24.1z M26.8,40.7l0.3-2h-1.5l-0.3,2H26.8z"/>
		<path d="M36.7,44.2c-0.3-0.3-0.5-0.5-0.9-0.9c-0.8,0.7-1.7,1.1-2.8,1.1c-1.8,0-2.9-1.2-2.9-2.6c0-1.3,0.8-2.2,1.8-2.8v0
			c-0.5-0.6-0.8-1.3-0.8-2c0-1.2,0.8-2.3,2.4-2.3c1.2,0,2.1,0.8,2.1,2c0,1-0.6,1.8-2.1,2.5v0.1c0.8,0.9,1.7,1.9,2.3,2.6
			c0.4-0.7,0.7-1.6,0.9-2.8h1.1c-0.3,1.5-0.7,2.7-1.4,3.5c0.5,0.5,1,1.1,1.6,1.7H36.7z M35.2,42.6c-0.6-0.6-1.6-1.8-2.7-3
			c-0.5,0.3-1.2,0.9-1.2,1.9c0,1.1,0.8,1.9,1.9,1.9C34.1,43.5,34.8,43.1,35.2,42.6z M32.3,36.9c0,0.7,0.3,1.2,0.7,1.7
			c1-0.5,1.6-1.1,1.6-1.9c0-0.6-0.3-1.2-1.1-1.2C32.7,35.5,32.3,36.1,32.3,36.9z"/>
		<path d="M39,43.5c0-0.5,0.4-0.9,0.8-0.9s0.8,0.4,0.8,0.9c0,0.5-0.3,0.9-0.8,0.9C39.3,44.4,39,44,39,43.5z M39.3,41.5l-0.2-6.7h1.3
			l-0.2,6.7H39.3z"/>
		<path d="M44.5,45.4V44c-0.8,0-1.6-0.3-2.1-0.6l0.3-0.9c0.5,0.3,1.2,0.6,2,0.6c1,0,1.7-0.6,1.7-1.4c0-0.8-0.5-1.2-1.6-1.7
			c-1.4-0.6-2.3-1.2-2.3-2.4c0-1.2,0.8-2,2.1-2.3V34h0.9v1.4c0.8,0,1.4,0.3,1.8,0.5l-0.4,0.9c-0.3-0.2-0.9-0.5-1.8-0.5
			c-1.1,0-1.5,0.6-1.5,1.2c0,0.7,0.5,1.1,1.7,1.6c1.4,0.6,2.2,1.3,2.2,2.5c0,1.1-0.8,2.2-2.2,2.4v1.5H44.5z"/>
		<path d="M53.3,37.7c0,1.9-1,2.9-2.2,2.9c-1.1,0-2.1-0.9-2.1-2.7c0-1.8,1-2.8,2.2-2.8C52.5,35,53.3,36,53.3,37.7z M50,37.8
			c0,1.2,0.4,2,1.2,2c0.8,0,1.2-0.9,1.2-2.1c0-1.1-0.3-2-1.2-2C50.4,35.7,50,36.6,50,37.8z M51,44.4l5.4-9.4h0.8l-5.4,9.4H51z
			 M59.2,41.5c0,1.9-1,2.9-2.2,2.9c-1.1,0-2.1-0.9-2.1-2.7c0-1.8,1-2.8,2.2-2.8C58.4,38.8,59.2,39.7,59.2,41.5z M55.9,41.6
			c0,1.2,0.4,2,1.2,2c0.8,0,1.2-0.9,1.2-2.1c0-1.1-0.3-2-1.2-2C56.3,39.5,55.9,40.4,55.9,41.6z"/>
		<path d="M61.6,41.6l0-0.4c-0.1-0.7,0.2-1.6,0.9-2.4c0.6-0.7,1-1.3,1-1.9c0-0.7-0.4-1.2-1.3-1.2c-0.5,0-1.1,0.2-1.4,0.4l-0.3-0.9
			c0.5-0.3,1.3-0.6,2-0.6c1.6,0,2.3,1,2.3,2.1c0,1-0.5,1.6-1.2,2.4c-0.6,0.7-0.8,1.4-0.8,2.1l0,0.4H61.6z M61.3,43.5
			c0-0.5,0.4-0.9,0.8-0.9c0.5,0,0.8,0.4,0.8,0.9c0,0.5-0.3,0.9-0.8,0.9C61.7,44.4,61.3,44,61.3,43.5z"/>
		<path d="M70,36.8v3.3h3.2v0.8H70v3.3h-0.9v-3.3h-3.2v-0.8h3.2v-3.3H70z"/>
		<path d="M74.5,43.5c0-0.5,0.4-0.9,0.8-0.9s0.8,0.4,0.8,0.9c0,0.5-0.3,0.9-0.8,0.9C74.8,44.4,74.5,44,74.5,43.5z M74.8,41.5
			l-0.2-6.7H76l-0.2,6.7H74.8z"/>
		<path d="M77.5,39.5v-0.8h7.2v0.8H77.5z M77.5,42.3v-0.8h7.2v0.8H77.5z"/>
	</g>
	<rect fill="none" stroke="#000000" stroke-width="2" width="160" height="160"/>
	<path fill="none" stroke="#E60012" stroke-width="1.1944" stroke-linecap="round" d="M84.2,98.5c1.8,2.4,1.3,5.7-1.1,7.5"/>
	<path fill="none" stroke="#E60012" stroke-width="1.1944" stroke-linecap="round" d="M93.9,98c-2.4,1.8-5.7,1.3-7.5-1.1"/>
	<path fill="none" stroke="#E60012" stroke-width="1.1944" stroke-linecap="round" d="M94.5,107.5c-1.8-2.4-1.3-5.7,1.1-7.5"/>
	<path fill="none" stroke="#E60012" stroke-width="1.1944" stroke-linecap="round" d="M84.7,108.1c2.4-1.8,5.7-1.3,7.5,1.1"/>
</g>
</svg>
