<?xml version="1.0" encoding="utf-8"?>
<!-- Generator: Adobe Illustrator 18.1.1, SVG Export Plug-In . SVG Version: 6.00 Build 0)  -->
<svg version="1.1" xmlns="http://www.w3.org/2000/svg" xmlns:xlink="http://www.w3.org/1999/xlink" x="0px" y="0px"
   viewBox="0 0 160 160" enable-background="new 0 0 160 160" xml:space="preserve">
  <rect fill="#FFFFFF" width="160" height="160"/>
<g id="grid">
  <line fill="#FFFFFF" stroke="#000000" stroke-width="0.25" x1="10" y1="0" x2="10" y2="160"/>
  <line fill="#FFFFFF" stroke="#000000" stroke-width="0.25" x1="20" y1="0" x2="20" y2="160"/>
  <line fill="#FFFFFF" stroke="#000000" stroke-width="0.25" x1="30" y1="0" x2="30" y2="160"/>
  <line fill="#FFFFFF" stroke="#000000" stroke-width="0.25" x1="40" y1="0" x2="40" y2="160"/>
  <line fill="#FFFFFF" stroke="#000000" stroke-width="0.25" x1="50" y1="0" x2="50" y2="160"/>
  <line fill="#FFFFFF" stroke="#000000" stroke-width="0.25" x1="60" y1="0" x2="60" y2="160"/>
  <line fill="#FFFFFF" stroke="#000000" stroke-width="0.25" x1="70" y1="0" x2="70" y2="160"/>
  <line fill="#FFFFFF" stroke="#000000" stroke-width="0.25" x1="80" y1="0" x2="80" y2="160"/>
  <line fill="#FFFFFF" stroke="#000000" stroke-width="0.25" x1="90" y1="0" x2="90" y2="160"/>
  <line fill="#FFFFFF" stroke="#000000" stroke-width="0.25" x1="100" y1="0" x2="100" y2="160"/>
  <line fill="#FFFFFF" stroke="#000000" stroke-width="0.25" x1="110" y1="0" x2="110" y2="160"/>
  <line fill="#FFFFFF" stroke="#000000" stroke-width="0.25" x1="120" y1="0" x2="120" y2="160"/>
  <line fill="#FFFFFF" stroke="#000000" stroke-width="0.25" x1="130" y1="0" x2="130" y2="160"/>
  <line fill="#FFFFFF" stroke="#000000" stroke-width="0.25" x1="140" y1="0" x2="140" y2="160"/>
  <line fill="#FFFFFF" stroke="#000000" stroke-width="0.25" x1="150" y1="0" x2="150" y2="160"/>
  <line fill="#FFFFFF" stroke="#000000" stroke-width="0.25" x1="160" y1="10" x2="0" y2="10"/>
  <line fill="#FFFFFF" stroke="#000000" stroke-width="0.25" x1="160" y1="20" x2="0" y2="20"/>
  <line fill="#FFFFFF" stroke="#000000" stroke-width="0.25" x1="160" y1="30" x2="0" y2="30"/>
  <line fill="#FFFFFF" stroke="#000000" stroke-width="0.25" x1="160" y1="40" x2="0" y2="40"/>
  <line fill="#FFFFFF" stroke="#000000" stroke-width="0.25" x1="160" y1="50" x2="0" y2="50"/>
  <line fill="#FFFFFF" stroke="#000000" stroke-width="0.25" x1="160" y1="60" x2="0" y2="60"/>
  <line fill="#FFFFFF" stroke="#000000" stroke-width="0.25" x1="160" y1="70" x2="0" y2="70"/>
  <line fill="#FFFFFF" stroke="#000000" stroke-width="0.25" x1="160" y1="80" x2="0" y2="80"/>
  <line fill="#FFFFFF" stroke="#000000" stroke-width="0.25" x1="160" y1="90" x2="0" y2="90"/>
  <line fill="#FFFFFF" stroke="#000000" stroke-width="0.25" x1="160" y1="100" x2="0" y2="100"/>
  <line fill="#FFFFFF" stroke="#000000" stroke-width="0.25" x1="160" y1="110" x2="0" y2="110"/>
  <line fill="#FFFFFF" stroke="#000000" stroke-width="0.25" x1="160" y1="120" x2="0" y2="120"/>
  <line fill="#FFFFFF" stroke="#000000" stroke-width="0.25" x1="160" y1="130" x2="0" y2="130"/>
  <line fill="#FFFFFF" stroke="#000000" stroke-width="0.25" x1="160" y1="140" x2="0" y2="140"/>
  <line fill="#FFFFFF" stroke="#000000" stroke-width="0.25" x1="160" y1="150" x2="0" y2="150"/>
</g>
<g id="shade">
  <polyline fill="#B5B5B6" points="160,9.5 99.5,54 110,140 160,111 160,9.5   "/>
  <polygon fill="#9FA0A0" points="98,0 52.5,54 99.5,54 160,9.5 160,0   "/>
</g>
<g id="box">
  <polygon fill="#FFFFFF" stroke="#000000" stroke-linecap="round" stroke-linejoin="round" points="50,20 110,20 150,100 10,100"/>
  <polygon fill="#EFEFEF" stroke="#000000" stroke-linecap="round" stroke-linejoin="round" points="150,100 110,140 50,140 10,100"/>
</g>
<g id="hole">
  <path fill="#4C4948" stroke="#000000" stroke-linecap="round" stroke-linejoin="round" d="M58.5,80.2c0,0,3.5-3.5,6.5-6.5
    c3-3,5.3,0,13.5-3.2s14.2-14.2,16.8-20.8C98,43,99,38,99,38s-5,1-11.7,3.7c-6.7,2.7-17.7,8.7-20.8,16.8C63.3,66.7,66.3,69,63.3,72
    c-3,3-6.5,6.5-6.5,6.5S58.5,78.3,58.5,80.2z"/>
  <path fill="none" stroke="#000000" stroke-linecap="round" stroke-linejoin="round" d="M56.8,78.5c0,0-0.4,1.7,1.7,1.7"/>
</g>
</svg>
