<?xml version="1.0" encoding="utf-8"?>
<!-- Generator: Adobe Illustrator 18.1.1, SVG Export Plug-In . SVG Version: 6.00 Build 0)  -->
<svg version="1.1" xmlns="http://www.w3.org/2000/svg" xmlns:xlink="http://www.w3.org/1999/xlink" x="0px" y="0px"
	 viewBox="0 0 160 160" enable-background="new 0 0 160 160" xml:space="preserve">
<g id="tile">
	<rect y="0" fill="#EFEFEF" width="16" height="16"/>
	<polygon fill="#C9CACA" points="1.6,1.6 1.6,14.4 0,16 0,0 	"/>
	<polygon fill="#DCDDDD" points="14.4,1.6 1.6,1.6 0,0 16,0 	"/>
	<polygon fill="#9FA0A0" points="14.4,14.4 14.4,1.6 16,0 16,16 	"/>
	<polygon fill="#B5B5B6" points="1.6,14.4 14.4,14.4 16,16 0,16 	"/>
	<rect x="16" y="0" fill="#EFEFEF" width="16" height="16"/>
	<polygon fill="#C9CACA" points="17.6,1.6 17.6,14.4 16,16 16,0 	"/>
	<polygon fill="#DCDDDD" points="30.4,1.6 17.6,1.6 16,0 32,0 	"/>
	<polygon fill="#9FA0A0" points="30.4,14.4 30.4,1.6 32,0 32,16 	"/>
	<polygon fill="#B5B5B6" points="17.6,14.4 30.4,14.4 32,16 16,16 	"/>
	<rect x="32" y="0" fill="#EFEFEF" width="16" height="16"/>
	<polygon fill="#C9CACA" points="33.6,1.6 33.6,14.4 32,16 32,0 	"/>
	<polygon fill="#DCDDDD" points="46.4,1.6 33.6,1.6 32,0 48,0 	"/>
	<polygon fill="#9FA0A0" points="46.4,14.4 46.4,1.6 48,0 48,16 	"/>
	<polygon fill="#B5B5B6" points="33.6,14.4 46.4,14.4 48,16 32,16 	"/>
	<rect x="48" y="0" fill="#EFEFEF" width="16" height="16"/>
	<polygon fill="#C9CACA" points="49.6,1.6 49.6,14.4 48,16 48,0 	"/>
	<polygon fill="#DCDDDD" points="62.4,1.6 49.6,1.6 48,0 64,0 	"/>
	<polygon fill="#9FA0A0" points="62.4,14.4 62.4,1.6 64,0 64,16 	"/>
	<polygon fill="#B5B5B6" points="49.6,14.4 62.4,14.4 64,16 48,16 	"/>
	<rect x="64" y="0" fill="#EFEFEF" width="16" height="16"/>
	<polygon fill="#C9CACA" points="65.6,1.6 65.6,14.4 64,16 64,0 	"/>
	<polygon fill="#DCDDDD" points="78.4,1.6 65.6,1.6 64,0 80,0 	"/>
	<polygon fill="#9FA0A0" points="78.4,14.4 78.4,1.6 80,0 80,16 	"/>
	<polygon fill="#B5B5B6" points="65.6,14.4 78.4,14.4 80,16 64,16 	"/>
	<rect x="80" y="0" fill="#EFEFEF" width="16" height="16"/>
	<polygon fill="#C9CACA" points="81.6,1.6 81.6,14.4 80,16 80,0 	"/>
	<polygon fill="#DCDDDD" points="94.4,1.6 81.6,1.6 80,0 96,0 	"/>
	<polygon fill="#9FA0A0" points="94.4,14.4 94.4,1.6 96,0 96,16 	"/>
	<polygon fill="#B5B5B6" points="81.6,14.4 94.4,14.4 96,16 80,16 	"/>
	<rect x="96" y="0" fill="#EFEFEF" width="16" height="16"/>
	<polygon fill="#C9CACA" points="97.6,1.6 97.6,14.4 96,16 96,0 	"/>
	<polygon fill="#DCDDDD" points="110.4,1.6 97.6,1.6 96,0 112,0 	"/>
	<polygon fill="#9FA0A0" points="110.4,14.4 110.4,1.6 112,0 112,16 	"/>
	<polygon fill="#B5B5B6" points="97.6,14.4 110.4,14.4 112,16 96,16 	"/>
	<rect x="112" y="0" fill="#EFEFEF" width="16" height="16"/>
	<polygon fill="#C9CACA" points="113.6,1.6 113.6,14.4 112,16 112,0 	"/>
	<polygon fill="#DCDDDD" points="126.4,1.6 113.6,1.6 112,0 128,0 	"/>
	<polygon fill="#9FA0A0" points="126.4,14.4 126.4,1.6 128,0 128,16 	"/>
	<polygon fill="#B5B5B6" points="113.6,14.4 126.4,14.4 128,16 112,16 	"/>
	<rect x="128" y="0" fill="#EFEFEF" width="16" height="16"/>
	<polygon fill="#C9CACA" points="129.6,1.6 129.6,14.4 128,16 128,0 	"/>
	<polygon fill="#DCDDDD" points="142.4,1.6 129.6,1.6 128,0 144,0 	"/>
	<polygon fill="#9FA0A0" points="142.4,14.4 142.4,1.6 144,0 144,16 	"/>
	<polygon fill="#B5B5B6" points="129.6,14.4 142.4,14.4 144,16 128,16 	"/>
	<rect x="144" y="0" fill="#EFEFEF" width="16" height="16"/>
	<polygon fill="#C9CACA" points="145.6,1.6 145.6,14.4 144,16 144,0 	"/>
	<polygon fill="#DCDDDD" points="158.4,1.6 145.6,1.6 144,0 160,0 	"/>
	<polygon fill="#9FA0A0" points="158.4,14.4 158.4,1.6 160,0 160,16 	"/>
	<polygon fill="#B5B5B6" points="145.6,14.4 158.4,14.4 160,16 144,16 	"/>
	<rect x="0" y="16" fill="#EFEFEF" width="16" height="16"/>
	<polygon fill="#C9CACA" points="1.6,17.6 1.6,30.4 0,32 0,16 	"/>
	<polygon fill="#DCDDDD" points="14.4,17.6 1.6,17.6 0,16 16,16 	"/>
	<polygon fill="#9FA0A0" points="14.4,30.4 14.4,17.6 16,16 16,32 	"/>
	<polygon fill="#B5B5B6" points="1.6,30.4 14.4,30.4 16,32 0,32 	"/>
	<rect x="16" y="16" fill="#EFEFEF" width="16" height="16"/>
	<polygon fill="#C9CACA" points="17.6,17.6 17.6,30.4 16,32 16,16 	"/>
	<polygon fill="#DCDDDD" points="30.4,17.6 17.6,17.6 16,16 32,16 	"/>
	<polygon fill="#9FA0A0" points="30.4,30.4 30.4,17.6 32,16 32,32 	"/>
	<polygon fill="#B5B5B6" points="17.6,30.4 30.4,30.4 32,32 16,32 	"/>
	<rect x="32" y="16" fill="#EFEFEF" width="16" height="16"/>
	<polygon fill="#C9CACA" points="33.6,17.6 33.6,30.4 32,32 32,16 	"/>
	<polygon fill="#DCDDDD" points="46.4,17.6 33.6,17.6 32,16 48,16 	"/>
	<polygon fill="#9FA0A0" points="46.4,30.4 46.4,17.6 48,16 48,32 	"/>
	<polygon fill="#B5B5B6" points="33.6,30.4 46.4,30.4 48,32 32,32 	"/>
	<rect x="48" y="16" fill="#EFEFEF" width="16" height="16"/>
	<polygon fill="#C9CACA" points="49.6,17.6 49.6,30.4 48,32 48,16 	"/>
	<polygon fill="#DCDDDD" points="62.4,17.6 49.6,17.6 48,16 64,16 	"/>
	<polygon fill="#9FA0A0" points="62.4,30.4 62.4,17.6 64,16 64,32 	"/>
	<polygon fill="#B5B5B6" points="49.6,30.4 62.4,30.4 64,32 48,32 	"/>
	<rect x="64" y="16" fill="#EFEFEF" width="16" height="16"/>
	<polygon fill="#C9CACA" points="65.6,17.6 65.6,30.4 64,32 64,16 	"/>
	<polygon fill="#DCDDDD" points="78.4,17.6 65.6,17.6 64,16 80,16 	"/>
	<polygon fill="#9FA0A0" points="78.4,30.4 78.4,17.6 80,16 80,32 	"/>
	<polygon fill="#B5B5B6" points="65.6,30.4 78.4,30.4 80,32 64,32 	"/>
	<rect x="80" y="16" fill="#EFEFEF" width="16" height="16"/>
	<polygon fill="#C9CACA" points="81.6,17.6 81.6,30.4 80,32 80,16 	"/>
	<polygon fill="#DCDDDD" points="94.4,17.6 81.6,17.6 80,16 96,16 	"/>
	<polygon fill="#9FA0A0" points="94.4,30.4 94.4,17.6 96,16 96,32 	"/>
	<polygon fill="#B5B5B6" points="81.6,30.4 94.4,30.4 96,32 80,32 	"/>
	<rect x="96" y="16" fill="#EFEFEF" width="16" height="16"/>
	<polygon fill="#C9CACA" points="97.6,17.6 97.6,30.4 96,32 96,16 	"/>
	<polygon fill="#DCDDDD" points="110.4,17.6 97.6,17.6 96,16 112,16 	"/>
	<polygon fill="#9FA0A0" points="110.4,30.4 110.4,17.6 112,16 112,32 	"/>
	<polygon fill="#B5B5B6" points="97.6,30.4 110.4,30.4 112,32 96,32 	"/>
	<rect x="112" y="16" fill="#EFEFEF" width="16" height="16"/>
	<polygon fill="#C9CACA" points="113.6,17.6 113.6,30.4 112,32 112,16 	"/>
	<polygon fill="#DCDDDD" points="126.4,17.6 113.6,17.6 112,16 128,16 	"/>
	<polygon fill="#9FA0A0" points="126.4,30.4 126.4,17.6 128,16 128,32 	"/>
	<polygon fill="#B5B5B6" points="113.6,30.4 126.4,30.4 128,32 112,32 	"/>
	<rect x="128" y="16" fill="#EFEFEF" width="16" height="16"/>
	<polygon fill="#C9CACA" points="129.6,17.6 129.6,30.4 128,32 128,16 	"/>
	<polygon fill="#DCDDDD" points="142.4,17.6 129.6,17.6 128,16 144,16 	"/>
	<polygon fill="#9FA0A0" points="142.4,30.4 142.4,17.6 144,16 144,32 	"/>
	<polygon fill="#B5B5B6" points="129.6,30.4 142.4,30.4 144,32 128,32 	"/>
	<rect x="144" y="16" fill="#EFEFEF" width="16" height="16"/>
	<polygon fill="#C9CACA" points="145.6,17.6 145.6,30.4 144,32 144,16 	"/>
	<polygon fill="#DCDDDD" points="158.4,17.6 145.6,17.6 144,16 160,16 	"/>
	<polygon fill="#9FA0A0" points="158.4,30.4 158.4,17.6 160,16 160,32 	"/>
	<polygon fill="#B5B5B6" points="145.6,30.4 158.4,30.4 160,32 144,32 	"/>
	<rect x="0" y="32" fill="#EFEFEF" width="16" height="16"/>
	<polygon fill="#C9CACA" points="1.6,33.6 1.6,46.4 0,48 0,32 	"/>
	<polygon fill="#DCDDDD" points="14.4,33.6 1.6,33.6 0,32 16,32 	"/>
	<polygon fill="#9FA0A0" points="14.4,46.4 14.4,33.6 16,32 16,48 	"/>
	<polygon fill="#B5B5B6" points="1.6,46.4 14.4,46.4 16,48 0,48 	"/>
	<rect x="16" y="32" fill="#EFEFEF" width="16" height="16"/>
	<polygon fill="#C9CACA" points="17.6,33.6 17.6,46.4 16,48 16,32 	"/>
	<polygon fill="#DCDDDD" points="30.4,33.6 17.6,33.6 16,32 32,32 	"/>
	<polygon fill="#9FA0A0" points="30.4,46.4 30.4,33.6 32,32 32,48 	"/>
	<polygon fill="#B5B5B6" points="17.6,46.4 30.4,46.4 32,48 16,48 	"/>
	<rect x="32" y="32" fill="#EFEFEF" width="16" height="16"/>
	<polygon fill="#C9CACA" points="33.6,33.6 33.6,46.4 32,48 32,32 	"/>
	<polygon fill="#DCDDDD" points="46.4,33.6 33.6,33.6 32,32 48,32 	"/>
	<polygon fill="#9FA0A0" points="46.4,46.4 46.4,33.6 48,32 48,48 	"/>
	<polygon fill="#B5B5B6" points="33.6,46.4 46.4,46.4 48,48 32,48 	"/>
	<rect x="48" y="32" fill="#EFEFEF" width="16" height="16"/>
	<polygon fill="#C9CACA" points="49.6,33.6 49.6,46.4 48,48 48,32 	"/>
	<polygon fill="#DCDDDD" points="62.4,33.6 49.6,33.6 48,32 64,32 	"/>
	<polygon fill="#9FA0A0" points="62.4,46.4 62.4,33.6 64,32 64,48 	"/>
	<polygon fill="#B5B5B6" points="49.6,46.4 62.4,46.4 64,48 48,48 	"/>
	<rect x="64" y="32" fill="#EFEFEF" width="16" height="16"/>
	<polygon fill="#C9CACA" points="65.6,33.6 65.6,46.4 64,48 64,32 	"/>
	<polygon fill="#DCDDDD" points="78.4,33.6 65.6,33.6 64,32 80,32 	"/>
	<polygon fill="#9FA0A0" points="78.4,46.4 78.4,33.6 80,32 80,48 	"/>
	<polygon fill="#B5B5B6" points="65.6,46.4 78.4,46.4 80,48 64,48 	"/>
	<rect x="80" y="32" fill="#EFEFEF" width="16" height="16"/>
	<polygon fill="#C9CACA" points="81.6,33.6 81.6,46.4 80,48 80,32 	"/>
	<polygon fill="#DCDDDD" points="94.4,33.6 81.6,33.6 80,32 96,32 	"/>
	<polygon fill="#9FA0A0" points="94.4,46.4 94.4,33.6 96,32 96,48 	"/>
	<polygon fill="#B5B5B6" points="81.6,46.4 94.4,46.4 96,48 80,48 	"/>
	<rect x="96" y="32" fill="#EFEFEF" width="16" height="16"/>
	<polygon fill="#C9CACA" points="97.6,33.6 97.6,46.4 96,48 96,32 	"/>
	<polygon fill="#DCDDDD" points="110.4,33.6 97.6,33.6 96,32 112,32 	"/>
	<polygon fill="#9FA0A0" points="110.4,46.4 110.4,33.6 112,32 112,48 	"/>
	<polygon fill="#B5B5B6" points="97.6,46.4 110.4,46.4 112,48 96,48 	"/>
	<rect x="112" y="32" fill="#EFEFEF" width="16" height="16"/>
	<polygon fill="#C9CACA" points="113.6,33.6 113.6,46.4 112,48 112,32 	"/>
	<polygon fill="#DCDDDD" points="126.4,33.6 113.6,33.6 112,32 128,32 	"/>
	<polygon fill="#9FA0A0" points="126.4,46.4 126.4,33.6 128,32 128,48 	"/>
	<polygon fill="#B5B5B6" points="113.6,46.4 126.4,46.4 128,48 112,48 	"/>
	<rect x="128" y="32" fill="#EFEFEF" width="16" height="16"/>
	<polygon fill="#C9CACA" points="129.6,33.6 129.6,46.4 128,48 128,32 	"/>
	<polygon fill="#DCDDDD" points="142.4,33.6 129.6,33.6 128,32 144,32 	"/>
	<polygon fill="#9FA0A0" points="142.4,46.4 142.4,33.6 144,32 144,48 	"/>
	<polygon fill="#B5B5B6" points="129.6,46.4 142.4,46.4 144,48 128,48 	"/>
	<rect x="144" y="32" fill="#EFEFEF" width="16" height="16"/>
	<polygon fill="#C9CACA" points="145.6,33.6 145.6,46.4 144,48 144,32 	"/>
	<polygon fill="#DCDDDD" points="158.4,33.6 145.6,33.6 144,32 160,32 	"/>
	<polygon fill="#9FA0A0" points="158.4,46.4 158.4,33.6 160,32 160,48 	"/>
	<polygon fill="#B5B5B6" points="145.6,46.4 158.4,46.4 160,48 144,48 	"/>
	<rect x="0" y="48" fill="#EFEFEF" width="16" height="16"/>
	<polygon fill="#C9CACA" points="1.6,49.6 1.6,62.4 0,64 0,48 	"/>
	<polygon fill="#DCDDDD" points="14.4,49.6 1.6,49.6 0,48 16,48 	"/>
	<polygon fill="#9FA0A0" points="14.4,62.4 14.4,49.6 16,48 16,64 	"/>
	<polygon fill="#B5B5B6" points="1.6,62.4 14.4,62.4 16,64 0,64 	"/>
	<rect x="16" y="48" fill="#EFEFEF" width="16" height="16"/>
	<polygon fill="#C9CACA" points="17.6,49.6 17.6,62.4 16,64 16,48 	"/>
	<polygon fill="#DCDDDD" points="30.4,49.6 17.6,49.6 16,48 32,48 	"/>
	<polygon fill="#9FA0A0" points="30.4,62.4 30.4,49.6 32,48 32,64 	"/>
	<polygon fill="#B5B5B6" points="17.6,62.4 30.4,62.4 32,64 16,64 	"/>
	<rect x="32" y="48" fill="#EFEFEF" width="16" height="16"/>
	<polygon fill="#C9CACA" points="33.6,49.6 33.6,62.4 32,64 32,48 	"/>
	<polygon fill="#DCDDDD" points="46.4,49.6 33.6,49.6 32,48 48,48 	"/>
	<polygon fill="#9FA0A0" points="46.4,62.4 46.4,49.6 48,48 48,64 	"/>
	<polygon fill="#B5B5B6" points="33.6,62.4 46.4,62.4 48,64 32,64 	"/>
	<rect x="48" y="48" fill="#EFEFEF" width="16" height="16"/>
	<polygon fill="#C9CACA" points="49.6,49.6 49.6,62.4 48,64 48,48 	"/>
	<polygon fill="#DCDDDD" points="62.4,49.6 49.6,49.6 48,48 64,48 	"/>
	<polygon fill="#9FA0A0" points="62.4,62.4 62.4,49.6 64,48 64,64 	"/>
	<polygon fill="#B5B5B6" points="49.6,62.4 62.4,62.4 64,64 48,64 	"/>
	<rect x="64" y="48" fill="#EFEFEF" width="16" height="16"/>
	<polygon fill="#C9CACA" points="65.6,49.6 65.6,62.4 64,64 64,48 	"/>
	<polygon fill="#DCDDDD" points="78.4,49.6 65.6,49.6 64,48 80,48 	"/>
	<polygon fill="#9FA0A0" points="78.4,62.4 78.4,49.6 80,48 80,64 	"/>
	<polygon fill="#B5B5B6" points="65.6,62.4 78.4,62.4 80,64 64,64 	"/>
	<rect x="80" y="48" fill="#EFEFEF" width="16" height="16"/>
	<polygon fill="#C9CACA" points="81.6,49.6 81.6,62.4 80,64 80,48 	"/>
	<polygon fill="#DCDDDD" points="94.4,49.6 81.6,49.6 80,48 96,48 	"/>
	<polygon fill="#9FA0A0" points="94.4,62.4 94.4,49.6 96,48 96,64 	"/>
	<polygon fill="#B5B5B6" points="81.6,62.4 94.4,62.4 96,64 80,64 	"/>
	<rect x="96" y="48" fill="#EFEFEF" width="16" height="16"/>
	<polygon fill="#C9CACA" points="97.6,49.6 97.6,62.4 96,64 96,48 	"/>
	<polygon fill="#DCDDDD" points="110.4,49.6 97.6,49.6 96,48 112,48 	"/>
	<polygon fill="#9FA0A0" points="110.4,62.4 110.4,49.6 112,48 112,64 	"/>
	<polygon fill="#B5B5B6" points="97.6,62.4 110.4,62.4 112,64 96,64 	"/>
	<rect x="112" y="48" fill="#EFEFEF" width="16" height="16"/>
	<polygon fill="#C9CACA" points="113.6,49.6 113.6,62.4 112,64 112,48 	"/>
	<polygon fill="#DCDDDD" points="126.4,49.6 113.6,49.6 112,48 128,48 	"/>
	<polygon fill="#9FA0A0" points="126.4,62.4 126.4,49.6 128,48 128,64 	"/>
	<polygon fill="#B5B5B6" points="113.6,62.4 126.4,62.4 128,64 112,64 	"/>
	<rect x="128" y="48" fill="#EFEFEF" width="16" height="16"/>
	<polygon fill="#C9CACA" points="129.6,49.6 129.6,62.4 128,64 128,48 	"/>
	<polygon fill="#DCDDDD" points="142.4,49.6 129.6,49.6 128,48 144,48 	"/>
	<polygon fill="#9FA0A0" points="142.4,62.4 142.4,49.6 144,48 144,64 	"/>
	<polygon fill="#B5B5B6" points="129.6,62.4 142.4,62.4 144,64 128,64 	"/>
	<rect x="144" y="48" fill="#EFEFEF" width="16" height="16"/>
	<polygon fill="#C9CACA" points="145.6,49.6 145.6,62.4 144,64 144,48 	"/>
	<polygon fill="#DCDDDD" points="158.4,49.6 145.6,49.6 144,48 160,48 	"/>
	<polygon fill="#9FA0A0" points="158.4,62.4 158.4,49.6 160,48 160,64 	"/>
	<polygon fill="#B5B5B6" points="145.6,62.4 158.4,62.4 160,64 144,64 	"/>
	<rect x="0" y="64" fill="#EFEFEF" width="16" height="16"/>
	<polygon fill="#C9CACA" points="1.6,65.6 1.6,78.4 0,80 0,64 	"/>
	<polygon fill="#DCDDDD" points="14.4,65.6 1.6,65.6 0,64 16,64 	"/>
	<polygon fill="#9FA0A0" points="14.4,78.4 14.4,65.6 16,64 16,80 	"/>
	<polygon fill="#B5B5B6" points="1.6,78.4 14.4,78.4 16,80 0,80 	"/>
	<rect x="16" y="64" fill="#EFEFEF" width="16" height="16"/>
	<polygon fill="#C9CACA" points="17.6,65.6 17.6,78.4 16,80 16,64 	"/>
	<polygon fill="#DCDDDD" points="30.4,65.6 17.6,65.6 16,64 32,64 	"/>
	<polygon fill="#9FA0A0" points="30.4,78.4 30.4,65.6 32,64 32,80 	"/>
	<polygon fill="#B5B5B6" points="17.6,78.4 30.4,78.4 32,80 16,80 	"/>
	<rect x="32" y="64" fill="#EFEFEF" width="16" height="16"/>
	<polygon fill="#C9CACA" points="33.6,65.6 33.6,78.4 32,80 32,64 	"/>
	<polygon fill="#DCDDDD" points="46.4,65.6 33.6,65.6 32,64 48,64 	"/>
	<polygon fill="#9FA0A0" points="46.4,78.4 46.4,65.6 48,64 48,80 	"/>
	<polygon fill="#B5B5B6" points="33.6,78.4 46.4,78.4 48,80 32,80 	"/>
	<rect x="48" y="64" fill="#EFEFEF" width="16" height="16"/>
	<polygon fill="#C9CACA" points="49.6,65.6 49.6,78.4 48,80 48,64 	"/>
	<polygon fill="#DCDDDD" points="62.4,65.6 49.6,65.6 48,64 64,64 	"/>
	<polygon fill="#9FA0A0" points="62.4,78.4 62.4,65.6 64,64 64,80 	"/>
	<polygon fill="#B5B5B6" points="49.6,78.4 62.4,78.4 64,80 48,80 	"/>
	<rect x="64" y="64" fill="#EFEFEF" width="16" height="16"/>
	<polygon fill="#C9CACA" points="65.6,65.6 65.6,78.4 64,80 64,64 	"/>
	<polygon fill="#DCDDDD" points="78.4,65.6 65.6,65.6 64,64 80,64 	"/>
	<polygon fill="#9FA0A0" points="78.4,78.4 78.4,65.6 80,64 80,80 	"/>
	<polygon fill="#B5B5B6" points="65.6,78.4 78.4,78.4 80,80 64,80 	"/>
	<rect x="80" y="64" fill="#EFEFEF" width="16" height="16"/>
	<polygon fill="#C9CACA" points="81.6,65.6 81.6,78.4 80,80 80,64 	"/>
	<polygon fill="#DCDDDD" points="94.4,65.6 81.6,65.6 80,64 96,64 	"/>
	<polygon fill="#9FA0A0" points="94.4,78.4 94.4,65.6 96,64 96,80 	"/>
	<polygon fill="#B5B5B6" points="81.6,78.4 94.4,78.4 96,80 80,80 	"/>
	<rect x="96" y="64" fill="#EFEFEF" width="16" height="16"/>
	<polygon fill="#C9CACA" points="97.6,65.6 97.6,78.4 96,80 96,64 	"/>
	<polygon fill="#DCDDDD" points="110.4,65.6 97.6,65.6 96,64 112,64 	"/>
	<polygon fill="#9FA0A0" points="110.4,78.4 110.4,65.6 112,64 112,80 	"/>
	<polygon fill="#B5B5B6" points="97.6,78.4 110.4,78.4 112,80 96,80 	"/>
	<rect x="112" y="64" fill="#EFEFEF" width="16" height="16"/>
	<polygon fill="#C9CACA" points="113.6,65.6 113.6,78.4 112,80 112,64 	"/>
	<polygon fill="#DCDDDD" points="126.4,65.6 113.6,65.6 112,64 128,64 	"/>
	<polygon fill="#9FA0A0" points="126.4,78.4 126.4,65.6 128,64 128,80 	"/>
	<polygon fill="#B5B5B6" points="113.6,78.4 126.4,78.4 128,80 112,80 	"/>
	<rect x="128" y="64" fill="#EFEFEF" width="16" height="16"/>
	<polygon fill="#C9CACA" points="129.6,65.6 129.6,78.4 128,80 128,64 	"/>
	<polygon fill="#DCDDDD" points="142.4,65.6 129.6,65.6 128,64 144,64 	"/>
	<polygon fill="#9FA0A0" points="142.4,78.4 142.4,65.6 144,64 144,80 	"/>
	<polygon fill="#B5B5B6" points="129.6,78.4 142.4,78.4 144,80 128,80 	"/>
	<rect x="144" y="64" fill="#EFEFEF" width="16" height="16"/>
	<polygon fill="#C9CACA" points="145.6,65.6 145.6,78.4 144,80 144,64 	"/>
	<polygon fill="#DCDDDD" points="158.4,65.6 145.6,65.6 144,64 160,64 	"/>
	<polygon fill="#9FA0A0" points="158.4,78.4 158.4,65.6 160,64 160,80 	"/>
	<polygon fill="#B5B5B6" points="145.6,78.4 158.4,78.4 160,80 144,80 	"/>
	<rect x="0" y="80" fill="#EFEFEF" width="16" height="16"/>
	<polygon fill="#C9CACA" points="1.6,81.6 1.6,94.4 0,96 0,80 	"/>
	<polygon fill="#DCDDDD" points="14.4,81.6 1.6,81.6 0,80 16,80 	"/>
	<polygon fill="#9FA0A0" points="14.4,94.4 14.4,81.6 16,80 16,96 	"/>
	<polygon fill="#B5B5B6" points="1.6,94.4 14.4,94.4 16,96 0,96 	"/>
	<rect x="16" y="80" fill="#EFEFEF" width="16" height="16"/>
	<polygon fill="#C9CACA" points="17.6,81.6 17.6,94.4 16,96 16,80 	"/>
	<polygon fill="#DCDDDD" points="30.4,81.6 17.6,81.6 16,80 32,80 	"/>
	<polygon fill="#9FA0A0" points="30.4,94.4 30.4,81.6 32,80 32,96 	"/>
	<polygon fill="#B5B5B6" points="17.6,94.4 30.4,94.4 32,96 16,96 	"/>
	<rect x="32" y="80" fill="#EFEFEF" width="16" height="16"/>
	<polygon fill="#C9CACA" points="33.6,81.6 33.6,94.4 32,96 32,80 	"/>
	<polygon fill="#DCDDDD" points="46.4,81.6 33.6,81.6 32,80 48,80 	"/>
	<polygon fill="#9FA0A0" points="46.4,94.4 46.4,81.6 48,80 48,96 	"/>
	<polygon fill="#B5B5B6" points="33.6,94.4 46.4,94.4 48,96 32,96 	"/>
	<rect x="64" y="80" fill="#EFEFEF" width="16" height="16"/>
	<polygon fill="#C9CACA" points="65.6,81.6 65.6,94.4 64,96 64,80 	"/>
	<polygon fill="#DCDDDD" points="78.4,81.6 65.6,81.6 64,80 80,80 	"/>
	<polygon fill="#9FA0A0" points="78.4,94.4 78.4,81.6 80,80 80,96 	"/>
	<polygon fill="#B5B5B6" points="65.6,94.4 78.4,94.4 80,96 64,96 	"/>
	<rect x="80" y="80" fill="#EFEFEF" width="16" height="16"/>
	<polygon fill="#C9CACA" points="81.6,81.6 81.6,94.4 80,96 80,80 	"/>
	<polygon fill="#DCDDDD" points="94.4,81.6 81.6,81.6 80,80 96,80 	"/>
	<polygon fill="#9FA0A0" points="94.4,94.4 94.4,81.6 96,80 96,96 	"/>
	<polygon fill="#B5B5B6" points="81.6,94.4 94.4,94.4 96,96 80,96 	"/>
	<rect x="96" y="80" fill="#EFEFEF" width="16" height="16"/>
	<polygon fill="#C9CACA" points="97.6,81.6 97.6,94.4 96,96 96,80 	"/>
	<polygon fill="#DCDDDD" points="110.4,81.6 97.6,81.6 96,80 112,80 	"/>
	<polygon fill="#9FA0A0" points="110.4,94.4 110.4,81.6 112,80 112,96 	"/>
	<polygon fill="#B5B5B6" points="97.6,94.4 110.4,94.4 112,96 96,96 	"/>
	<rect x="112" y="80" fill="#EFEFEF" width="16" height="16"/>
	<polygon fill="#C9CACA" points="113.6,81.6 113.6,94.4 112,96 112,80 	"/>
	<polygon fill="#DCDDDD" points="126.4,81.6 113.6,81.6 112,80 128,80 	"/>
	<polygon fill="#9FA0A0" points="126.4,94.4 126.4,81.6 128,80 128,96 	"/>
	<polygon fill="#B5B5B6" points="113.6,94.4 126.4,94.4 128,96 112,96 	"/>
	<rect x="128" y="80" fill="#EFEFEF" width="16" height="16"/>
	<polygon fill="#C9CACA" points="129.6,81.6 129.6,94.4 128,96 128,80 	"/>
	<polygon fill="#DCDDDD" points="142.4,81.6 129.6,81.6 128,80 144,80 	"/>
	<polygon fill="#9FA0A0" points="142.4,94.4 142.4,81.6 144,80 144,96 	"/>
	<polygon fill="#B5B5B6" points="129.6,94.4 142.4,94.4 144,96 128,96 	"/>
	<rect x="144" y="80" fill="#EFEFEF" width="16" height="16"/>
	<polygon fill="#C9CACA" points="145.6,81.6 145.6,94.4 144,96 144,80 	"/>
	<polygon fill="#DCDDDD" points="158.4,81.6 145.6,81.6 144,80 160,80 	"/>
	<polygon fill="#9FA0A0" points="158.4,94.4 158.4,81.6 160,80 160,96 	"/>
	<polygon fill="#B5B5B6" points="145.6,94.4 158.4,94.4 160,96 144,96 	"/>
	<rect x="0" y="96" fill="#EFEFEF" width="16" height="16"/>
	<polygon fill="#C9CACA" points="1.6,97.6 1.6,110.4 0,112 0,96 	"/>
	<polygon fill="#DCDDDD" points="14.4,97.6 1.6,97.6 0,96 16,96 	"/>
	<polygon fill="#9FA0A0" points="14.4,110.4 14.4,97.6 16,96 16,112 	"/>
	<polygon fill="#B5B5B6" points="1.6,110.4 14.4,110.4 16,112 0,112 	"/>
	<rect x="16" y="96" fill="#EFEFEF" width="16" height="16"/>
	<polygon fill="#C9CACA" points="17.6,97.6 17.6,110.4 16,112 16,96 	"/>
	<polygon fill="#DCDDDD" points="30.4,97.6 17.6,97.6 16,96 32,96 	"/>
	<polygon fill="#9FA0A0" points="30.4,110.4 30.4,97.6 32,96 32,112 	"/>
	<polygon fill="#B5B5B6" points="17.6,110.4 30.4,110.4 32,112 16,112 	"/>
	<rect x="32" y="96" fill="#EFEFEF" width="16" height="16"/>
	<polygon fill="#C9CACA" points="33.6,97.6 33.6,110.4 32,112 32,96 	"/>
	<polygon fill="#DCDDDD" points="46.4,97.6 33.6,97.6 32,96 48,96 	"/>
	<polygon fill="#9FA0A0" points="46.4,110.4 46.4,97.6 48,96 48,112 	"/>
	<polygon fill="#B5B5B6" points="33.6,110.4 46.4,110.4 48,112 32,112 	"/>
	<rect x="48" y="96" fill="#EFEFEF" width="16" height="16"/>
	<polygon fill="#C9CACA" points="49.6,97.6 49.6,110.4 48,112 48,96 	"/>
	<polygon fill="#DCDDDD" points="62.4,97.6 49.6,97.6 48,96 64,96 	"/>
	<polygon fill="#9FA0A0" points="62.4,110.4 62.4,97.6 64,96 64,112 	"/>
	<polygon fill="#B5B5B6" points="49.6,110.4 62.4,110.4 64,112 48,112 	"/>
	<rect x="64" y="96" fill="#EFEFEF" width="16" height="16"/>
	<polygon fill="#C9CACA" points="65.6,97.6 65.6,110.4 64,112 64,96 	"/>
	<polygon fill="#DCDDDD" points="78.4,97.6 65.6,97.6 64,96 80,96 	"/>
	<polygon fill="#9FA0A0" points="78.4,110.4 78.4,97.6 80,96 80,112 	"/>
	<polygon fill="#B5B5B6" points="65.6,110.4 78.4,110.4 80,112 64,112 	"/>
	<rect x="80" y="96" fill="#EFEFEF" width="16" height="16"/>
	<polygon fill="#C9CACA" points="81.6,97.6 81.6,110.4 80,112 80,96 	"/>
	<polygon fill="#DCDDDD" points="94.4,97.6 81.6,97.6 80,96 96,96 	"/>
	<polygon fill="#9FA0A0" points="94.4,110.4 94.4,97.6 96,96 96,112 	"/>
	<polygon fill="#B5B5B6" points="81.6,110.4 94.4,110.4 96,112 80,112 	"/>
	<rect x="96" y="96" fill="#EFEFEF" width="16" height="16"/>
	<polygon fill="#C9CACA" points="97.6,97.6 97.6,110.4 96,112 96,96 	"/>
	<polygon fill="#DCDDDD" points="110.4,97.6 97.6,97.6 96,96 112,96 	"/>
	<polygon fill="#9FA0A0" points="110.4,110.4 110.4,97.6 112,96 112,112 	"/>
	<polygon fill="#B5B5B6" points="97.6,110.4 110.4,110.4 112,112 96,112 	"/>
	<rect x="112" y="96" fill="#EFEFEF" width="16" height="16"/>
	<polygon fill="#C9CACA" points="113.6,97.6 113.6,110.4 112,112 112,96 	"/>
	<polygon fill="#DCDDDD" points="126.4,97.6 113.6,97.6 112,96 128,96 	"/>
	<polygon fill="#9FA0A0" points="126.4,110.4 126.4,97.6 128,96 128,112 	"/>
	<polygon fill="#B5B5B6" points="113.6,110.4 126.4,110.4 128,112 112,112 	"/>
	<rect x="128" y="96" fill="#EFEFEF" width="16" height="16"/>
	<polygon fill="#C9CACA" points="129.6,97.6 129.6,110.4 128,112 128,96 	"/>
	<polygon fill="#DCDDDD" points="142.4,97.6 129.6,97.6 128,96 144,96 	"/>
	<polygon fill="#9FA0A0" points="142.4,110.4 142.4,97.6 144,96 144,112 	"/>
	<polygon fill="#B5B5B6" points="129.6,110.4 142.4,110.4 144,112 128,112 	"/>
	<rect x="144" y="96" fill="#EFEFEF" width="16" height="16"/>
	<polygon fill="#C9CACA" points="145.6,97.6 145.6,110.4 144,112 144,96 	"/>
	<polygon fill="#DCDDDD" points="158.4,97.6 145.6,97.6 144,96 160,96 	"/>
	<polygon fill="#9FA0A0" points="158.4,110.4 158.4,97.6 160,96 160,112 	"/>
	<polygon fill="#B5B5B6" points="145.6,110.4 158.4,110.4 160,112 144,112 	"/>
	<rect x="0" y="112" fill="#EFEFEF" width="16" height="16"/>
	<polygon fill="#C9CACA" points="1.6,113.6 1.6,126.4 0,128 0,112 	"/>
	<polygon fill="#DCDDDD" points="14.4,113.6 1.6,113.6 0,112 16,112 	"/>
	<polygon fill="#9FA0A0" points="14.4,126.4 14.4,113.6 16,112 16,128 	"/>
	<polygon fill="#B5B5B6" points="1.6,126.4 14.4,126.4 16,128 0,128 	"/>
	<rect x="16" y="112" fill="#EFEFEF" width="16" height="16"/>
	<polygon fill="#C9CACA" points="17.6,113.6 17.6,126.4 16,128 16,112 	"/>
	<polygon fill="#DCDDDD" points="30.4,113.6 17.6,113.6 16,112 32,112 	"/>
	<polygon fill="#9FA0A0" points="30.4,126.4 30.4,113.6 32,112 32,128 	"/>
	<polygon fill="#B5B5B6" points="17.6,126.4 30.4,126.4 32,128 16,128 	"/>
	<rect x="32" y="112" fill="#EFEFEF" width="16" height="16"/>
	<polygon fill="#C9CACA" points="33.6,113.6 33.6,126.4 32,128 32,112 	"/>
	<polygon fill="#DCDDDD" points="46.4,113.6 33.6,113.6 32,112 48,112 	"/>
	<polygon fill="#9FA0A0" points="46.4,126.4 46.4,113.6 48,112 48,128 	"/>
	<polygon fill="#B5B5B6" points="33.6,126.4 46.4,126.4 48,128 32,128 	"/>
	<rect x="48" y="112" fill="#EFEFEF" width="16" height="16"/>
	<polygon fill="#C9CACA" points="49.6,113.6 49.6,126.4 48,128 48,112 	"/>
	<polygon fill="#DCDDDD" points="62.4,113.6 49.6,113.6 48,112 64,112 	"/>
	<polygon fill="#9FA0A0" points="62.4,126.4 62.4,113.6 64,112 64,128 	"/>
	<polygon fill="#B5B5B6" points="49.6,126.4 62.4,126.4 64,128 48,128 	"/>
	<rect x="64" y="112" fill="#EFEFEF" width="16" height="16"/>
	<polygon fill="#C9CACA" points="65.6,113.6 65.6,126.4 64,128 64,112 	"/>
	<polygon fill="#DCDDDD" points="78.4,113.6 65.6,113.6 64,112 80,112 	"/>
	<polygon fill="#9FA0A0" points="78.4,126.4 78.4,113.6 80,112 80,128 	"/>
	<polygon fill="#B5B5B6" points="65.6,126.4 78.4,126.4 80,128 64,128 	"/>
	<rect x="80" y="112" fill="#EFEFEF" width="16" height="16"/>
	<polygon fill="#C9CACA" points="81.6,113.6 81.6,126.4 80,128 80,112 	"/>
	<polygon fill="#DCDDDD" points="94.4,113.6 81.6,113.6 80,112 96,112 	"/>
	<polygon fill="#9FA0A0" points="94.4,126.4 94.4,113.6 96,112 96,128 	"/>
	<polygon fill="#B5B5B6" points="81.6,126.4 94.4,126.4 96,128 80,128 	"/>
	<rect x="96" y="112" fill="#EFEFEF" width="16" height="16"/>
	<polygon fill="#C9CACA" points="97.6,113.6 97.6,126.4 96,128 96,112 	"/>
	<polygon fill="#DCDDDD" points="110.4,113.6 97.6,113.6 96,112 112,112 	"/>
	<polygon fill="#9FA0A0" points="110.4,126.4 110.4,113.6 112,112 112,128 	"/>
	<polygon fill="#B5B5B6" points="97.6,126.4 110.4,126.4 112,128 96,128 	"/>
	<rect x="112" y="112" fill="#EFEFEF" width="16" height="16"/>
	<polygon fill="#C9CACA" points="113.6,113.6 113.6,126.4 112,128 112,112 	"/>
	<polygon fill="#DCDDDD" points="126.4,113.6 113.6,113.6 112,112 128,112 	"/>
	<polygon fill="#9FA0A0" points="126.4,126.4 126.4,113.6 128,112 128,128 	"/>
	<polygon fill="#B5B5B6" points="113.6,126.4 126.4,126.4 128,128 112,128 	"/>
	<rect x="128" y="112" fill="#EFEFEF" width="16" height="16"/>
	<polygon fill="#C9CACA" points="129.6,113.6 129.6,126.4 128,128 128,112 	"/>
	<polygon fill="#DCDDDD" points="142.4,113.6 129.6,113.6 128,112 144,112 	"/>
	<polygon fill="#9FA0A0" points="142.4,126.4 142.4,113.6 144,112 144,128 	"/>
	<polygon fill="#B5B5B6" points="129.6,126.4 142.4,126.4 144,128 128,128 	"/>
	<rect x="144" y="112" fill="#EFEFEF" width="16" height="16"/>
	<polygon fill="#C9CACA" points="145.6,113.6 145.6,126.4 144,128 144,112 	"/>
	<polygon fill="#DCDDDD" points="158.4,113.6 145.6,113.6 144,112 160,112 	"/>
	<polygon fill="#9FA0A0" points="158.4,126.4 158.4,113.6 160,112 160,128 	"/>
	<polygon fill="#B5B5B6" points="145.6,126.4 158.4,126.4 160,128 144,128 	"/>
	<rect x="0" y="128" fill="#EFEFEF" width="16" height="16"/>
	<polygon fill="#C9CACA" points="1.6,129.6 1.6,142.4 0,144 0,128 	"/>
	<polygon fill="#DCDDDD" points="14.4,129.6 1.6,129.6 0,128 16,128 	"/>
	<polygon fill="#9FA0A0" points="14.4,142.4 14.4,129.6 16,128 16,144 	"/>
	<polygon fill="#B5B5B6" points="1.6,142.4 14.4,142.4 16,144 0,144 	"/>
	<rect x="16" y="128" fill="#EFEFEF" width="16" height="16"/>
	<polygon fill="#C9CACA" points="17.6,129.6 17.6,142.4 16,144 16,128 	"/>
	<polygon fill="#DCDDDD" points="30.4,129.6 17.6,129.6 16,128 32,128 	"/>
	<polygon fill="#9FA0A0" points="30.4,142.4 30.4,129.6 32,128 32,144 	"/>
	<polygon fill="#B5B5B6" points="17.6,142.4 30.4,142.4 32,144 16,144 	"/>
	<rect x="32" y="128" fill="#EFEFEF" width="16" height="16"/>
	<polygon fill="#C9CACA" points="33.6,129.6 33.6,142.4 32,144 32,128 	"/>
	<polygon fill="#DCDDDD" points="46.4,129.6 33.6,129.6 32,128 48,128 	"/>
	<polygon fill="#9FA0A0" points="46.4,142.4 46.4,129.6 48,128 48,144 	"/>
	<polygon fill="#B5B5B6" points="33.6,142.4 46.4,142.4 48,144 32,144 	"/>
	<rect x="48" y="128" fill="#EFEFEF" width="16" height="16"/>
	<polygon fill="#C9CACA" points="49.6,129.6 49.6,142.4 48,144 48,128 	"/>
	<polygon fill="#DCDDDD" points="62.4,129.6 49.6,129.6 48,128 64,128 	"/>
	<polygon fill="#9FA0A0" points="62.4,142.4 62.4,129.6 64,128 64,144 	"/>
	<polygon fill="#B5B5B6" points="49.6,142.4 62.4,142.4 64,144 48,144 	"/>
	<rect x="64" y="128" fill="#EFEFEF" width="16" height="16"/>
	<polygon fill="#C9CACA" points="65.6,129.6 65.6,142.4 64,144 64,128 	"/>
	<polygon fill="#DCDDDD" points="78.4,129.6 65.6,129.6 64,128 80,128 	"/>
	<polygon fill="#9FA0A0" points="78.4,142.4 78.4,129.6 80,128 80,144 	"/>
	<polygon fill="#B5B5B6" points="65.6,142.4 78.4,142.4 80,144 64,144 	"/>
	<rect x="80" y="128" fill="#EFEFEF" width="16" height="16"/>
	<polygon fill="#C9CACA" points="81.6,129.6 81.6,142.4 80,144 80,128 	"/>
	<polygon fill="#DCDDDD" points="94.4,129.6 81.6,129.6 80,128 96,128 	"/>
	<polygon fill="#9FA0A0" points="94.4,142.4 94.4,129.6 96,128 96,144 	"/>
	<polygon fill="#B5B5B6" points="81.6,142.4 94.4,142.4 96,144 80,144 	"/>
	<rect x="96" y="128" fill="#EFEFEF" width="16" height="16"/>
	<polygon fill="#C9CACA" points="97.6,129.6 97.6,142.4 96,144 96,128 	"/>
	<polygon fill="#DCDDDD" points="110.4,129.6 97.6,129.6 96,128 112,128 	"/>
	<polygon fill="#9FA0A0" points="110.4,142.4 110.4,129.6 112,128 112,144 	"/>
	<polygon fill="#B5B5B6" points="97.6,142.4 110.4,142.4 112,144 96,144 	"/>
	<rect x="112" y="128" fill="#EFEFEF" width="16" height="16"/>
	<polygon fill="#C9CACA" points="113.6,129.6 113.6,142.4 112,144 112,128 	"/>
	<polygon fill="#DCDDDD" points="126.4,129.6 113.6,129.6 112,128 128,128 	"/>
	<polygon fill="#9FA0A0" points="126.4,142.4 126.4,129.6 128,128 128,144 	"/>
	<polygon fill="#B5B5B6" points="113.6,142.4 126.4,142.4 128,144 112,144 	"/>
	<rect x="128" y="128" fill="#EFEFEF" width="16" height="16"/>
	<polygon fill="#C9CACA" points="129.6,129.6 129.6,142.4 128,144 128,128 	"/>
	<polygon fill="#DCDDDD" points="142.4,129.6 129.6,129.6 128,128 144,128 	"/>
	<polygon fill="#9FA0A0" points="142.4,142.4 142.4,129.6 144,128 144,144 	"/>
	<polygon fill="#B5B5B6" points="129.6,142.4 142.4,142.4 144,144 128,144 	"/>
	<rect x="144" y="128" fill="#EFEFEF" width="16" height="16"/>
	<polygon fill="#C9CACA" points="145.6,129.6 145.6,142.4 144,144 144,128 	"/>
	<polygon fill="#DCDDDD" points="158.4,129.6 145.6,129.6 144,128 160,128 	"/>
	<polygon fill="#9FA0A0" points="158.4,142.4 158.4,129.6 160,128 160,144 	"/>
	<polygon fill="#B5B5B6" points="145.6,142.4 158.4,142.4 160,144 144,144 	"/>
	<rect x="0" y="144" fill="#EFEFEF" width="16" height="16"/>
	<polygon fill="#C9CACA" points="1.6,145.6 1.6,158.4 0,160 0,144 	"/>
	<polygon fill="#DCDDDD" points="14.4,145.6 1.6,145.6 0,144 16,144 	"/>
	<polygon fill="#9FA0A0" points="14.4,158.4 14.4,145.6 16,144 16,160 	"/>
	<polygon fill="#B5B5B6" points="1.6,158.4 14.4,158.4 16,160 0,160 	"/>
	<rect x="16" y="144" fill="#EFEFEF" width="16" height="16"/>
	<polygon fill="#C9CACA" points="17.6,145.6 17.6,158.4 16,160 16,144 	"/>
	<polygon fill="#DCDDDD" points="30.4,145.6 17.6,145.6 16,144 32,144 	"/>
	<polygon fill="#9FA0A0" points="30.4,158.4 30.4,145.6 32,144 32,160 	"/>
	<polygon fill="#B5B5B6" points="17.6,158.4 30.4,158.4 32,160 16,160 	"/>
	<rect x="32" y="144" fill="#EFEFEF" width="16" height="16"/>
	<polygon fill="#C9CACA" points="33.6,145.6 33.6,158.4 32,160 32,144 	"/>
	<polygon fill="#DCDDDD" points="46.4,145.6 33.6,145.6 32,144 48,144 	"/>
	<polygon fill="#9FA0A0" points="46.4,158.4 46.4,145.6 48,144 48,160 	"/>
	<polygon fill="#B5B5B6" points="33.6,158.4 46.4,158.4 48,160 32,160 	"/>
	<rect x="48" y="144" fill="#EFEFEF" width="16" height="16"/>
	<polygon fill="#C9CACA" points="49.6,145.6 49.6,158.4 48,160 48,144 	"/>
	<polygon fill="#DCDDDD" points="62.4,145.6 49.6,145.6 48,144 64,144 	"/>
	<polygon fill="#9FA0A0" points="62.4,158.4 62.4,145.6 64,144 64,160 	"/>
	<polygon fill="#B5B5B6" points="49.6,158.4 62.4,158.4 64,160 48,160 	"/>
	<rect x="64" y="144" fill="#EFEFEF" width="16" height="16"/>
	<polygon fill="#C9CACA" points="65.6,145.6 65.6,158.4 64,160 64,144 	"/>
	<polygon fill="#DCDDDD" points="78.4,145.6 65.6,145.6 64,144 80,144 	"/>
	<polygon fill="#9FA0A0" points="78.4,158.4 78.4,145.6 80,144 80,160 	"/>
	<polygon fill="#B5B5B6" points="65.6,158.4 78.4,158.4 80,160 64,160 	"/>
	<rect x="80" y="144" fill="#EFEFEF" width="16" height="16"/>
	<polygon fill="#C9CACA" points="81.6,145.6 81.6,158.4 80,160 80,144 	"/>
	<polygon fill="#DCDDDD" points="94.4,145.6 81.6,145.6 80,144 96,144 	"/>
	<polygon fill="#9FA0A0" points="94.4,158.4 94.4,145.6 96,144 96,160 	"/>
	<polygon fill="#B5B5B6" points="81.6,158.4 94.4,158.4 96,160 80,160 	"/>
	<rect x="96" y="144" fill="#EFEFEF" width="16" height="16"/>
	<polygon fill="#C9CACA" points="97.6,145.6 97.6,158.4 96,160 96,144 	"/>
	<polygon fill="#DCDDDD" points="110.4,145.6 97.6,145.6 96,144 112,144 	"/>
	<polygon fill="#9FA0A0" points="110.4,158.4 110.4,145.6 112,144 112,160 	"/>
	<polygon fill="#B5B5B6" points="97.6,158.4 110.4,158.4 112,160 96,160 	"/>
	<rect x="112" y="144" fill="#EFEFEF" width="16" height="16"/>
	<polygon fill="#C9CACA" points="113.6,145.6 113.6,158.4 112,160 112,144 	"/>
	<polygon fill="#DCDDDD" points="126.4,145.6 113.6,145.6 112,144 128,144 	"/>
	<polygon fill="#9FA0A0" points="126.4,158.4 126.4,145.6 128,144 128,160 	"/>
	<polygon fill="#B5B5B6" points="113.6,158.4 126.4,158.4 128,160 112,160 	"/>
	<rect x="128" y="144" fill="#EFEFEF" width="16" height="16"/>
	<polygon fill="#C9CACA" points="129.6,145.6 129.6,158.4 128,160 128,144 	"/>
	<polygon fill="#DCDDDD" points="142.4,145.6 129.6,145.6 128,144 144,144 	"/>
	<polygon fill="#9FA0A0" points="142.4,158.4 142.4,145.6 144,144 144,160 	"/>
	<polygon fill="#B5B5B6" points="129.6,158.4 142.4,158.4 144,160 128,160 	"/>
	<rect x="144" y="144" fill="#EFEFEF" width="16" height="16"/>
	<polygon fill="#C9CACA" points="145.6,145.6 145.6,158.4 144,160 144,144 	"/>
	<polygon fill="#DCDDDD" points="158.4,145.6 145.6,145.6 144,144 160,144 	"/>
	<polygon fill="#9FA0A0" points="158.4,158.4 158.4,145.6 160,144 160,160 	"/>
	<polygon fill="#B5B5B6" points="145.6,158.4 158.4,158.4 160,160 144,160 	"/>
</g>
<g id="bomb">
	<rect x="32" y="32" fill="#007C36" width="96" height="96"/>
	<path fill="#005A75" d="M71.8,68.7c0,0-7.7,50.9-12.2,48.5c-5.3-2.9-24.1-30.9,4.7-49.9L71.8,68.7z"/>
	<path fill="#16667B" d="M71.8,68.8l30,5.8c0,0,8.1,10.3,6.9,21.5c-1.2,11.1-10.8,30.8-36,27.4c0,0-8.9-1.9-13.2-6.2
		C59.6,117.2,52.4,84.3,71.8,68.8z"/>
	<path fill="#FFFFFF" d="M104.6,104c0,0,2.4-4.8,2.4-10.1c0.1-3.9-1.4-8.5-1.4-8.5c-0.3-1.1-1.5-1.8-2.6-1.5
		c-1.1,0.3-1.8,1.5-1.5,2.6c0,0,1.4,4.2,1.4,8.1c-0.1,5.2-2,7.4-2,7.4c-0.5,1-0.1,2.3,0.9,2.9C102.8,105.5,104.1,105.1,104.6,104z"
		/>
	<circle fill="#FFFFFF" cx="101.3" cy="80.8" r="2"/>
	<path fill="none" stroke="#000000" d="M101.8,74.5c4.3,5.2,7,12,7,19.3c0,16.7-13.5,30.2-30.2,30.2s-30.2-13.5-30.2-30.2
		c0-11.5,6.4-21.4,15.8-26.5"/>
	<polygon fill="#E60012" stroke="#000000" points="84.3,52.9 79.2,52.9 81.2,49.9 76.1,47.2 80.9,44.7 76.5,39.3 84.3,40.8 
		88.2,36.7 90.8,40.6 99.5,38.8 97.5,43 104.4,43.8 99.5,47.5 104.3,51.6 97.4,51.8 98.1,55.5 92,54.8 90.9,56.8 87.8,53.4 	"/>
	<polygon fill="#F39800" stroke="#000000" points="86.4,50.8 83.6,50.8 84.7,49.1 81.8,47.6 84.5,46.2 82,43.2 86.4,44 88.7,41.6 
		90.1,43.9 95,42.8 93.9,45.2 97.8,45.6 95,47.8 97.7,50.1 93.8,50.2 94.2,52.3 90.8,51.9 90.2,53 88.4,51.1 	"/>
	<polygon fill="#CDC356" stroke="#000000" points="82.5,63.8 84.8,51 83.3,49.5 85.7,49.5 85.8,47.8 87.1,49.3 89,47.6 88.9,49.4 
		90.5,49.5 89.2,50.8 90.8,52 88.6,51.9 86.2,64.3 	"/>
	<line fill="#FFFFFF" stroke="#000000" stroke-width="0.6559" x1="84.3" y1="53.5" x2="88.4" y2="52.9"/>
	<line fill="#FFFFFF" stroke="#000000" stroke-width="0.6559" x1="83.9" y1="56.2" x2="87.8" y2="55.7"/>
	<line fill="#FFFFFF" stroke="#000000" stroke-width="0.6559" x1="83.4" y1="58.9" x2="87.2" y2="58.9"/>
	<line fill="#FFFFFF" stroke="#000000" stroke-width="0.6559" x1="82.9" y1="61.6" x2="86.7" y2="61.6"/>
	<linearGradient id="SVGID_1_" gradientUnits="userSpaceOnUse" x1="64.5049" y1="67.784" x2="103.0635" y2="67.784">
		<stop  offset="0" style="stop-color:#0B416F"/>
		<stop  offset="0.1778" style="stop-color:#004773"/>
		<stop  offset="0.4987" style="stop-color:#00557C"/>
		<stop  offset="0.9234" style="stop-color:#006A89"/>
		<stop  offset="1" style="stop-color:#006D8C"/>
	</linearGradient>
	<polygon fill="url(#SVGID_1_)" stroke="#000000" stroke-linecap="round" stroke-linejoin="round" points="65.7,61 64.5,67.5 
		101.8,74.5 103.1,68.1 	"/>
</g>
</svg>
