<?xml version="1.0" encoding="utf-8"?>
<!-- Generator: Adobe Illustrator 18.1.1, SVG Export Plug-In . SVG Version: 6.00 Build 0)  -->
<svg version="1.1" xmlns="http://www.w3.org/2000/svg" xmlns:xlink="http://www.w3.org/1999/xlink" x="0px" y="0px"
	 viewBox="0 0 160 160" enable-background="new 0 0 160 160" xml:space="preserve">
<g id="bg">
	<rect fill="#FFFFFF" width="160" height="160"/>
</g>
<g id="lines">
	<g>
		<polygon fill="none" points="0,0 0,0 0.4,0.4 0,0.7 0,4.6 4.6,0 		"/>
		<polygon fill="none" points="5.3,0 5.7,0.4 0,6 0,9.9 10,0 		"/>
		<polygon fill="none" points="160,68.6 160,64.7 64.7,160 69.3,160 69,159.6 		"/>
		<polygon fill="none" points="160,74 160,70 70,160 74.7,160 74.3,159.6 		"/>
		<polygon fill="none" points="160,84.6 160,80.7 80.7,160 85.3,160 85,159.6 		"/>
		<polygon fill="none" points="160,79.3 160,75.4 75.4,160 80,160 79.7,159.6 		"/>
		<polygon fill="none" points="32,0 32.4,0.4 0,32.7 0,36.6 36.6,0 		"/>
		<polygon fill="none" points="10.7,0 11,0.4 0,11.4 0,15.3 15.3,0 		"/>
		<polygon fill="none" points="37.3,0 37.7,0.4 0,38 0,41.9 42,0 		"/>
		<polygon fill="none" points="26.7,0 27,0.4 0,27.4 0,31.3 31.3,0 		"/>
		<polygon fill="none" points="16,0 16.4,0.4 0,16.7 0,20.6 20.6,0 		"/>
		<polygon fill="none" points="21.3,0 21.7,0.4 0,22 0,25.9 26,0 		"/>
		<polygon fill="none" points="160,63.3 160,59.4 59.4,160 64,160 63.7,159.6 		"/>
		<polygon fill="none" points="160,95.3 160,91.4 91.4,160 96,160 95.7,159.6 		"/>
		<polygon fill="none" points="160,127.3 160,123.4 123.4,160 128,160 127.7,159.6 		"/>
		<polygon fill="none" points="160,138 160,134 134.1,160 138.7,160 138.3,159.6 		"/>
		<polygon fill="none" points="160,132.6 160,128.7 128.7,160 133.3,160 133,159.6 		"/>
		<polygon fill="none" points="160,90 160,86 86,160 90.7,160 90.3,159.6 		"/>
		<polygon fill="none" points="159.7,159.6 160,159.3 160,155.4 155.4,160 160,160 160,160 		"/>
		<polygon fill="none" points="160,148.6 160,144.7 144.7,160 149.3,160 149,159.6 		"/>
		<polygon fill="none" points="160,154 160,150 150.1,160 154.7,160 154.3,159.6 		"/>
		<polygon fill="none" points="160,143.3 160,139.4 139.4,160 144,160 143.7,159.6 		"/>
		<polygon fill="none" points="160,100.6 160,96.7 96.7,160 101.3,160 101,159.6 		"/>
		<polygon fill="none" points="42.7,0 43,0.4 0,43.4 0,47.3 47.3,0 		"/>
		<polygon fill="none" points="160,106 160,102 102,160 106.7,160 106.3,159.6 		"/>
		<polygon fill="none" points="160,111.3 160,107.4 107.4,160 112,160 111.7,159.6 		"/>
		<polygon fill="none" points="160,122 160,118 118.1,160 122.7,160 122.3,159.6 		"/>
		<polygon fill="none" points="160,116.6 160,112.7 112.7,160 117.3,160 117,159.6 		"/>
		<polygon fill="none" points="74.7,0 75,0.4 0,75.4 0,79.3 79.3,0 		"/>
		<polygon fill="none" points="160,52.6 160,48.7 48.7,160 53.3,160 53,159.6 		"/>
		<polygon fill="none" points="112,0 112.4,0.4 0,112.7 0,116.6 116.6,0 		"/>
		<polygon fill="none" points="154.7,0 155,0.4 0,155.4 0,159.3 159.3,0 		"/>
		<polygon fill="none" points="160,10 160,6 6,160 10.7,160 10.3,159.6 		"/>
		<polygon fill="none" points="160,4.6 160,0.7 0.7,160 5.3,160 5,159.6 		"/>
		<polygon fill="none" points="101.3,0 101.7,0.4 0,102 0,106 106,0 		"/>
		<polygon fill="none" points="106.7,0 107,0.4 0,107.4 0,111.3 111.3,0 		"/>
		<polygon fill="none" points="160,15.3 160,11.4 11.4,160 16,160 15.7,159.6 		"/>
		<polygon fill="none" points="79.3,101.3 112.7,68 160,20.6 160,16.7 16.7,160 21.3,160 21,159.6 		"/>
		<polygon fill="none" points="133.3,0 133.7,0.4 0,134 0,138 138,0 		"/>
		<polygon fill="none" points="138.7,0 139,0.4 0,139.4 0,143.3 143.3,0 		"/>
		<polygon fill="none" points="144,0 144.4,0.4 0,144.7 0,148.6 148.6,0 		"/>
		<polygon fill="none" points="149.3,0 149.7,0.4 0,150 0,154 154,0 		"/>
		<polygon fill="none" points="117.3,0 117.7,0.4 0,118 0,122 122,0 		"/>
		<polygon fill="none" points="128,0 128.4,0.4 0,128.7 0,132.6 132.6,0 		"/>
		<polygon fill="none" points="48,0 48.4,0.4 0,48.7 0,52.6 52.6,0 		"/>
		<polygon fill="none" points="122.7,0 123,0.4 0,123.4 0,127.3 127.3,0 		"/>
		<polygon fill="none" points="160,58 160,54 54,160 58.7,160 58.3,159.6 		"/>
		<polygon fill="none" points="64,0 64.4,0.4 0,64.7 0,68.6 68.6,0 		"/>
		<polygon fill="none" points="69.3,0 69.7,0.4 0,70 0,74 74,0 		"/>
		<polygon fill="none" points="160,31.3 160,27.4 27.4,160 32,160 31.7,159.6 		"/>
		<polygon fill="none" points="160,26 160.1,21.9 22.1,159.9 26.7,160 26.3,159.6 		"/>
		<polygon fill="none" points="160,36.6 160,32.7 32.7,160 37.3,160 37,159.6 		"/>
		<polygon fill="none" points="160,47.3 160,43.4 43.4,160 48,160 47.7,159.6 		"/>
		<polygon fill="none" points="160,42 160,38 38,160 42.7,160 42.3,159.6 		"/>
		<polygon fill="none" points="53.3,0 53.7,0.4 0,54 0,57.9 58,0 		"/>
		<polygon fill="none" points="96,0 96.4,0.4 0,96.7 0,100.6 100.6,0 		"/>
		<polygon fill="none" points="90.7,0 91,0.4 0,91.4 0,95.3 95.3,0 		"/>
		<polygon fill="none" points="85.3,0 85.7,0.4 0,86 0,90 90,0 		"/>
		<polygon fill="none" points="80,0 80.4,0.4 0,80.7 0,84.6 84.6,0 		"/>
		<polygon fill="none" points="58.7,0 59,0.4 0,59.4 0,63.3 63.3,0 		"/>
		<polygon fill="#1D2088" points="0,0 0,0.7 0.4,0.4 		"/>
		<polygon fill="#1D2088" points="5.3,0 4.6,0 0,4.6 0,6 5.7,0.4 		"/>
		<polygon fill="#1D2088" points="10.7,0 10,0 0,9.9 0,11.4 11,0.4 		"/>
		<polygon fill="#1D2088" points="16,0 15.3,0 0,15.3 0,16.7 16.4,0.4 		"/>
		<polygon fill="#1D2088" points="21.3,0 20.6,0 0,20.6 0,22 21.7,0.4 		"/>
		<polygon fill="#1D2088" points="26.7,0 26,0 0,25.9 0,27.4 27,0.4 		"/>
		<polygon fill="#1D2088" points="32,0 31.3,0 0,31.3 0,32.7 32.4,0.4 		"/>
		<polygon fill="#1D2088" points="37.3,0 36.6,0 0,36.6 0,38 37.7,0.4 		"/>
		<polygon fill="#1D2088" points="42.7,0 42,0 0,41.9 0,43.4 43,0.4 		"/>
		<polygon fill="#1D2088" points="48,0 47.3,0 0,47.3 0,48.7 48.4,0.4 		"/>
		<polygon fill="#1D2088" points="53.3,0 52.6,0 0,52.6 0,54 53.7,0.4 		"/>
		<polygon fill="#1D2088" points="58.7,0 58,0 0,57.9 0,59.4 59,0.4 		"/>
		<polygon fill="#1D2088" points="64,0 63.3,0 0,63.3 0,64.7 64.4,0.4 		"/>
		<polygon fill="#1D2088" points="69.3,0 68.6,0 0,68.6 0,70 69.7,0.4 		"/>
		<polygon fill="#1D2088" points="74.7,0 74,0 0,74 0,75.4 75,0.4 		"/>
		<polygon fill="#1D2088" points="80,0 79.3,0 0,79.3 0,80.7 80.4,0.4 		"/>
		<polygon fill="#1D2088" points="85.3,0 84.6,0 0,84.6 0,86 85.7,0.4 		"/>
		<polygon fill="#1D2088" points="90.7,0 90,0 0,90 0,91.4 91,0.4 		"/>
		<polygon fill="#1D2088" points="96,0 95.3,0 0,95.3 0,96.7 96.4,0.4 		"/>
		<polygon fill="#1D2088" points="101.3,0 100.6,0 0,100.6 0,102 101.7,0.4 		"/>
		<polygon fill="#1D2088" points="106.7,0 106,0 0,106 0,107.4 107,0.4 		"/>
		<polygon fill="#1D2088" points="112,0 111.3,0 0,111.3 0,112.7 112.4,0.4 		"/>
		<polygon fill="#1D2088" points="117.3,0 116.6,0 0,116.6 0,118 117.7,0.4 		"/>
		<polygon fill="#1D2088" points="122.7,0 122,0 0,122 0,123.4 123,0.4 		"/>
		<polygon fill="#1D2088" points="128,0 127.3,0 0,127.3 0,128.7 128.4,0.4 		"/>
		<polygon fill="#1D2088" points="133.3,0 132.6,0 0,132.6 0,134 133.7,0.4 		"/>
		<polygon fill="#1D2088" points="138.7,0 138,0 0,138 0,139.4 139,0.4 		"/>
		<polygon fill="#1D2088" points="144,0 143.3,0 0,143.3 0,144.7 144.4,0.4 		"/>
		<polygon fill="#1D2088" points="149.3,0 148.6,0 0,148.6 0,150 149.7,0.4 		"/>
		<polygon fill="#1D2088" points="154.7,0 154,0 0,154 0,155.4 155,0.4 		"/>
		<polygon fill="#1D2088" points="160,0 159.3,0 0,159.3 0,160 0.7,160 160,0.7 		"/>
		<polygon fill="#1D2088" points="160,4.6 5,159.6 5.3,160 6,160 160,6 		"/>
		<polygon fill="#1D2088" points="160,10 10.3,159.6 10.7,160 11.4,160 160,11.4 		"/>
		<polygon fill="#1D2088" points="160,15.3 15.7,159.6 16,160 16.7,160 160,16.7 		"/>
		<polyline fill="#1D2088" points="115.7,66.3 160,22 160,20.6 114.9,65.7 		"/>
		<polyline fill="#1D2088" points="77.1,103.6 21,159.6 21.3,160 22,160 77.8,104.2 		"/>
		<polygon fill="#1D2088" points="160,26 26.3,159.6 26.7,160 27.4,160 160,27.4 		"/>
		<polygon fill="#1D2088" points="160,31.3 31.7,159.6 32,160 32.7,160 160,32.7 		"/>
		<polygon fill="#1D2088" points="160,36.6 37,159.6 37.3,160 38,160 160,38 		"/>
		<polygon fill="#1D2088" points="160,42 42.3,159.6 42.7,160 43.4,160 160,43.4 		"/>
		<polygon fill="#1D2088" points="160,47.3 47.7,159.6 48,160 48.7,160 160,48.7 		"/>
		<polygon fill="#1D2088" points="160,52.6 53,159.6 53.3,160 54,160 160,54 		"/>
		<polygon fill="#1D2088" points="160,58 58.3,159.6 58.7,160 59.4,160 160,59.4 		"/>
		<polygon fill="#1D2088" points="160,63.3 63.7,159.6 64,160 64.7,160 160,64.7 		"/>
		<polygon fill="#1D2088" points="160,68.6 69,159.6 69.3,160 70,160 160,70 		"/>
		<polygon fill="#1D2088" points="160,74 74.3,159.6 74.7,160 75.4,160 160,75.4 		"/>
		<polygon fill="#1D2088" points="160,79.3 79.7,159.6 80,160 80.7,160 160,80.7 		"/>
		<polygon fill="#1D2088" points="160,84.6 85,159.6 85.3,160 86,160 160,86 		"/>
		<polygon fill="#1D2088" points="160,90 90.3,159.6 90.7,160 91.4,160 160,91.4 		"/>
		<polygon fill="#1D2088" points="160,95.3 95.7,159.6 96,160 96.7,160 160,96.7 		"/>
		<polygon fill="#1D2088" points="160,100.6 101,159.6 101.3,160 102,160 160,102 		"/>
		<polygon fill="#1D2088" points="160,106 106.3,159.6 106.7,160 107.4,160 160,107.4 		"/>
		<polygon fill="#1D2088" points="160,111.3 111.7,159.6 112,160 112.7,160 160,112.7 		"/>
		<polygon fill="#1D2088" points="160,116.6 117,159.6 117.3,160 118.1,160 160,118 		"/>
		<polygon fill="#1D2088" points="160,122 122.3,159.6 122.7,160 123.4,160 160,123.4 		"/>
		<polygon fill="#1D2088" points="160,127.3 127.7,159.6 128,160 128.7,160 160,128.7 		"/>
		<polygon fill="#1D2088" points="160,132.6 133,159.6 133.3,160 134.1,160 160,134 		"/>
		<polygon fill="#1D2088" points="160,138 138.3,159.6 138.7,160 139.4,160 160,139.4 		"/>
		<polygon fill="#1D2088" points="160,143.3 143.7,159.6 144,160 144.7,160 160,144.7 		"/>
		<polygon fill="#1D2088" points="160,148.6 149,159.6 149.3,160 150.1,160 160,150 		"/>
		<polygon fill="#1D2088" points="160,154 154.3,159.6 154.7,160 155.4,160 160,155.4 		"/>
		<polygon fill="#1D2088" points="160,160 160,159.3 159.7,159.6 		"/>
	</g>
	
		<rect x="72.8" y="84.5" transform="matrix(-0.7067 0.7075 -0.7075 -0.7067 224.5406 76.9159)" fill="#1D2088" width="47.1" height="1"/>
</g>
</svg>
