<?xml version="1.0" encoding="utf-8"?>
<!-- Generator: Adobe Illustrator 18.1.1, SVG Export Plug-In . SVG Version: 6.00 Build 0)  -->
<svg version="1.1" xmlns="http://www.w3.org/2000/svg" xmlns:xlink="http://www.w3.org/1999/xlink" x="0px" y="0px"
	 viewBox="0 0 160 160" enable-background="new 0 0 160 160" xml:space="preserve">
<g id="bg">
	<rect fill="#FFFFFF" width="160" height="160"/>
</g>
<g id="word">
	<g>
		<path fill="#E60012" d="M160,16.7l-7.1,1.4l-1.2-5.9l0.6-0.1c2.1,1.9,4.7,2.8,7.7,2.5 M32,39.5l0.6-0.1l0.7,5.9l-17.9,2l-0.7-5.9
			l0.6-0.1c2.3,2.4,5.2,3.4,8.7,3C27.6,44,30.3,42.3,32,39.5z M12.2,8.3L29,14.8l-2.2,5.6l-0.6-0.2c-0.9-3.2-3-5.4-6.3-6.7
			c-3.4-1.3-6.5-1.1-9.3,0.6L10,13.8L12.2,8.3z M20.9,58.2l4.3,4.1l-0.4,0.4c-3.3-0.4-6.1,0.7-8.6,3.2c-2.5,2.6-3.5,5.6-3,8.9
			l-0.4,0.4l-4.3-4.1L20.9,58.2z M7,126.1l-2-5.6l0.6-0.2c2.7,1.8,5.8,2.1,9.2,0.9c3.4-1.2,5.6-3.4,6.6-6.6l0.6-0.2l2,5.6L7,126.1z
			 M23.1,94.6c-1.4,3.4-1.2,6.5,0.5,9.3l-0.2,0.6l-5.5-2.3l6.8-16.7l5.5,2.3l-0.2,0.6C26.8,89.2,24.5,91.3,23.1,94.6z M28.3,153.9
			l0-0.6c2.6-2,3.8-4.8,3.7-8.4c-0.1-3.6-1.5-6.4-4.2-8.4l0-0.6l6-0.2l0.5,18L28.3,153.9z M55,81.7c-2.5-2.2-5.4-2.9-8.9-2.2
			c-3.6,0.7-6.1,2.6-7.5,5.6L38,85.2l-1.2-5.9l17.7-3.6l1.2,5.9L55,81.7z M56.5,19.7l-15.7-8.8l2.9-5.2l0.5,0.3
			c0.4,3.3,2.2,5.8,5.3,7.5c3.2,1.8,6.3,2,9.3,0.7l0.5,0.3L56.5,19.7z M67.7,35.2c-2.8,1.8-4.3,4.4-4.6,8c-0.3,3.6,0.8,6.5,3.3,8.7
			l0,0.6l-6-0.4l1.3-18l6,0.4L67.7,35.2z M73.3,24.4l-0.6,0.1l-0.8-5.9l17.9-2.4l0.8,5.9l-0.6,0.1c-2.3-2.4-5.2-3.3-8.8-2.8
			C77.5,19.9,74.9,21.6,73.3,24.4z M95.9,133.1l-0.6-0.2c-1.1-3.1-3.3-5.2-6.7-6.3c-3.5-1.1-6.6-0.7-9.3,1.2l-0.6-0.2l1.8-5.7
			l17.2,5.4L95.9,133.1z M124.5,98.5l-18-1.1l0.4-6l0.6,0c1.8,2.8,4.5,4.2,8.1,4.5c3.6,0.2,6.5-0.9,8.7-3.4l0.6,0L124.5,98.5z
			 M124.6,20.7l0.5-0.4c3.2,0.6,6.2-0.4,8.8-2.8c2.6-2.5,3.8-5.4,3.4-8.7l0.5-0.4l4.1,4.3L128.7,25L124.6,20.7z M130,66.6l5.1-3.1
			l0.3,0.5c-1.2,3.1-0.9,6.1,1,9.2c1.9,3.1,4.5,4.8,7.8,5.1l0.3,0.5l-5.1,3.1L130,66.6z M147.2,114.7c-2.8,1.8-4.3,4.4-4.6,8
			c-0.3,3.6,0.8,6.5,3.3,8.7l0,0.6l-6-0.4l1.3-18l6,0.4L147.2,114.7z M137.2,44.1l3.7-4.7l0.5,0.4c-0.1,3.3,1.3,6,4.1,8.3
			c2.8,2.2,5.9,3,9.1,2.1l0.5,0.4l-3.7,4.7L137.2,44.1z"/>
		<path fill="#E60012" d="M20,13.5c3.3,1.3,5.4,3.5,6.3,6.7l0.6,0.2l2.2-5.6L12.2,8.3L10,13.8l0.6,0.2C13.5,12.3,16.6,12.1,20,13.5z
			"/>
		<path fill="#E60012" d="M137.7,8.3l-0.5,0.4c0.3,3.3-0.8,6.2-3.4,8.7c-2.6,2.5-5.5,3.4-8.8,2.8l-0.5,0.4l4.1,4.3l13.1-12.4
			L137.7,8.3z"/>
		<path fill="#E60012" d="M15.3,41.4l-0.6,0.1l0.7,5.9l17.9-2l-0.7-5.9L32,39.5c-1.7,2.9-4.4,4.5-8,4.9
			C20.5,44.8,17.6,43.8,15.3,41.4z"/>
		<path fill="#E60012" d="M144.2,78.3c-3.3-0.3-5.9-2.1-7.8-5.1c-1.9-3-2.2-6.1-1-9.2l-0.3-0.5l-5.1,3.1l9.4,15.4l5.1-3.1
			L144.2,78.3z"/>
		<path fill="#E60012" d="M30.2,87.8l-5.5-2.3l-6.8,16.7l5.5,2.3l0.2-0.6c-1.7-2.9-1.8-6-0.5-9.3c1.3-3.3,3.6-5.4,6.8-6.2L30.2,87.8
			z"/>
		<path fill="#E60012" d="M36.8,79.3l1.2,5.9l0.6-0.1c1.4-3,3.9-4.9,7.5-5.6c3.5-0.7,6.5,0,8.9,2.2l0.6-0.1l-1.2-5.9L36.8,79.3z"/>
		<path fill="#E60012" d="M13.1,74.9c-0.5-3.3,0.5-6.2,3-8.9c2.5-2.6,5.4-3.7,8.6-3.2l0.4-0.4l-4.3-4.1l-12.5,13l4.3,4.1L13.1,74.9z
			"/>
		<path fill="#E60012" d="M78.7,127.7l0.6,0.2c2.7-1.9,5.8-2.3,9.3-1.2c3.4,1.1,5.7,3.2,6.7,6.3l0.6,0.2l1.8-5.7L80.5,122
			L78.7,127.7z"/>
		<path fill="#E60012" d="M27.8,135.9l0,0.6c2.7,1.9,4.1,4.7,4.2,8.4c0.1,3.6-1.1,6.4-3.7,8.4l0,0.6l6-0.2l-0.5-18L27.8,135.9z"/>
		<path fill="#E60012" d="M21.4,114.6c-1,3.2-3.2,5.4-6.6,6.6c-3.4,1.2-6.4,0.9-9.2-0.9L5,120.4l2,5.6l17-6l-2-5.6L21.4,114.6z"/>
		<path fill="#E60012" d="M115.6,95.9c-3.6-0.2-6.3-1.7-8.1-4.5l-0.6,0l-0.4,6l18,1.1l0.4-6l-0.6,0C122.1,95,119.2,96.1,115.6,95.9z
			"/>
		<path fill="#E60012" d="M154.5,50.2c-3.2,0.8-6.3,0.1-9.1-2.1c-2.8-2.2-4.2-5-4.1-8.3l-0.5-0.4l-3.7,4.7l14.2,11.2l3.7-4.7
			L154.5,50.2z"/>
		<path fill="#E60012" d="M139.9,131.6l6,0.4l0-0.6c-2.5-2.2-3.6-5.1-3.3-8.7c0.3-3.6,1.8-6.2,4.6-8l0-0.6l-6-0.4L139.9,131.6z"/>
		<path fill="#E60012" d="M60.5,52.2l6,0.4l0-0.6c-2.5-2.2-3.6-5.1-3.3-8.7c0.3-3.6,1.8-6.2,4.6-8l0-0.6l-6-0.4L60.5,52.2z"/>
		<path fill="#E60012" d="M78.2,151.2l0.3-0.6l-5.5-2.4L67.7,160h2.6c0.2-0.9,0.5-1.9,0.9-2.8C72.6,153.9,75,151.9,78.2,151.2z"/>
		<path fill="#E60012" d="M119.4,148.9l-0.3-0.5l-5.1,3.1l5.1,8.5h2.6c-0.5-0.6-1-1.2-1.4-1.9C118.4,155,118.1,152,119.4,148.9z"/>
		<polygon fill="#E60012" points="116.8,0 110.1,0 111.8,2.9 		"/>
		<path fill="#E60012" d="M49.6,13.5c-3.1-1.8-4.9-4.3-5.3-7.5l-0.5-0.3l-2.9,5.2l15.7,8.8l2.9-5.2l-0.5-0.3
			C55.8,15.5,52.7,15.2,49.6,13.5z"/>
		<path fill="#E60012" d="M7.5,36.7l-0.3-0.5c-3-0.4-5.4-2-7.2-4.8v4.2l2.3,4L7.5,36.7z"/>
		<path fill="#E60012" d="M154.6,145.4l-0.3,0.6l5.3,2.7l0.3-0.6v-5.5C158.6,144.1,156.8,145.1,154.6,145.4z"/>
		<path fill="#E60012" d="M152.3,12.1l-0.6,0.1l1.2,5.9l7.1-1.4v-2.1C157,14.9,154.5,14.1,152.3,12.1z"/>
		<path fill="#E60012" d="M3.8,141.4l-0.4,0.5c0.6,3.3-0.3,6.2-2.7,9c-0.2,0.2-0.5,0.5-0.7,0.7v3.1l8.2-9.3L3.8,141.4z"/>
		<path fill="#E60012" d="M89.9,22.2l0.6-0.1l-0.8-5.9l-17.9,2.4l0.8,5.9l0.6-0.1c1.6-2.9,4.3-4.6,7.9-5.1
			C84.7,18.9,87.6,19.8,89.9,22.2z"/>
	</g>
</g>
<g id="up">
	<path fill="#005BAC" stroke="#000000" d="M93.7,102.7V31.3C93,30,91.3,30,91.3,30l-46,27.7l7.9,37.5L93.7,102.7z"/>
	<polygon fill="#F6D0A3" points="45.3,61.3 66.9,66.7 114.5,39.5 91.1,33.3 	"/>
	<path fill="#F6D0A3" stroke="#000000" d="M45.3,61.3l45.8-28c0,0,1.8-0.2,1.8,0.8"/>
	<path fill="#F6D0A3" stroke="#000000" d="M47.3,61.8l45.8-28c0,0,1.8-0.2,1.8,0.8"/>
	<path fill="#F6D0A3" stroke="#000000" d="M49.3,62.3l45.8-28c0,0,1.8-0.2,1.8,0.8"/>
	<path fill="#F6D0A3" stroke="#000000" d="M51.2,62.8l45.8-28c0,0,1.8-0.2,1.8,0.8"/>
	<path fill="#F6D0A3" stroke="#000000" d="M53.2,63.3l45.8-28c0,0,1.8-0.2,1.8,0.8"/>
	<path fill="#F6D0A3" stroke="#000000" d="M55.1,63.8l45.8-28c0,0,1.8-0.2,1.8,0.8"/>
	<path fill="#F6D0A3" stroke="#000000" d="M57.1,64.3l45.8-28c0,0,1.8-0.2,1.8,0.8"/>
	<path fill="#F6D0A3" stroke="#000000" d="M59.1,64.8l45.8-28c0,0,1.8-0.2,1.8,0.8"/>
	<path fill="#F6D0A3" stroke="#000000" d="M61,65.3l45.8-28c0,0,1.8-0.2,1.8,0.8"/>
	<path fill="#F6D0A3" stroke="#000000" d="M63,65.7l45.8-28c0,0,1.8-0.2,1.8,0.8"/>
	<path fill="#F6D0A3" stroke="#000000" d="M64.9,66.2l45.8-28c0,0,1.8-0.2,1.8,0.8"/>
	<path fill="#F6D0A3" stroke="#000000" d="M114.5,39.5c0-1-1.8-0.8-1.8-0.8l-45.8,28"/>
</g>
<g id="face">
	<path fill="#005BAC" stroke="#000000" d="M45.3,57.7c0.7,1.3,1.3,1.7,1.3,1.7c5,3.3,16.7,4.3,16.7,4.3c1.3,0,3.3-0.7,3.3-0.7
		l46-27.7c0,0,1.7,0,2.3,1.3V108c-0.3,1.3-1,1.7-1,1.7l-46,27.7c0,0-2,0.7-3.3,0.7c0,0-13-1-18-4.3c0,0-0.7-0.3-1.3-1.7V57.7z"/>
</g>
<g id="edge">
	<path fill="#679DD4" stroke="#000000" d="M63.3,63.7v74.2c0,0,3.3,0.1,4.7-0.5V62.7C68,62.7,66.4,63.4,63.3,63.7z"/>
</g>
</svg>
