<?xml version="1.0" encoding="utf-8"?>
<!-- Generator: Adobe Illustrator 18.1.1, SVG Export Plug-In . SVG Version: 6.00 Build 0)  -->
<svg version="1.1" xmlns="http://www.w3.org/2000/svg" xmlns:xlink="http://www.w3.org/1999/xlink" x="0px" y="0px"
	 viewBox="0 0 160 160" enable-background="new 0 0 160 160" xml:space="preserve">
<g id="bg">
	<rect fill="#FFFFFF" width="160" height="160"/>
</g>
<g id="tile">
	<g>
		<path fill="none" stroke="#898989" stroke-width="0.5" d="M10.4,148.7c0-1.9-1.5-3.4-3.4-3.4s-3.4,1.5-3.4,3.4v4.7
			c0,1.9,1.5,3.4,3.4,3.4s3.4-1.5,3.4-3.4V148.7z"/>
		<path fill="none" stroke="#898989" stroke-width="0.5" d="M21.7,148.7c0-1.9-1.5-3.4-3.4-3.4c-1.9,0-3.4,1.5-3.4,3.4v4.7
			c0,1.9,1.5,3.4,3.4,3.4c1.9,0,3.4-1.5,3.4-3.4V148.7z"/>
		<path fill="none" stroke="#898989" stroke-width="0.5" d="M32.9,148.7c0-1.9-1.5-3.4-3.4-3.4s-3.4,1.5-3.4,3.4v4.7
			c0,1.9,1.5,3.4,3.4,3.4s3.4-1.5,3.4-3.4V148.7z"/>
		<path fill="none" stroke="#898989" stroke-width="0.5" d="M44.2,148.7c0-1.9-1.5-3.4-3.4-3.4c-1.9,0-3.4,1.5-3.4,3.4v4.7
			c0,1.9,1.5,3.4,3.4,3.4c1.9,0,3.4-1.5,3.4-3.4V148.7z"/>
		<path fill="none" stroke="#898989" stroke-width="0.5" d="M55.4,148.7c0-1.9-1.5-3.4-3.4-3.4c-1.9,0-3.4,1.5-3.4,3.4v4.7
			c0,1.9,1.5,3.4,3.4,3.4c1.9,0,3.4-1.5,3.4-3.4V148.7z"/>
		<path fill="none" stroke="#898989" stroke-width="0.5" d="M66.7,148.7c0-1.9-1.5-3.4-3.4-3.4s-3.4,1.5-3.4,3.4v4.7
			c0,1.9,1.5,3.4,3.4,3.4s3.4-1.5,3.4-3.4V148.7z"/>
		<path fill="none" stroke="#898989" stroke-width="0.5" d="M78,148.7c0-1.9-1.5-3.4-3.4-3.4c-1.9,0-3.4,1.5-3.4,3.4v4.7
			c0,1.9,1.5,3.4,3.4,3.4c1.9,0,3.4-1.5,3.4-3.4V148.7z"/>
		<path fill="none" stroke="#898989" stroke-width="0.5" d="M89.2,148.7c0-1.9-1.5-3.4-3.4-3.4c-1.9,0-3.4,1.5-3.4,3.4v4.7
			c0,1.9,1.5,3.4,3.4,3.4c1.9,0,3.4-1.5,3.4-3.4V148.7z"/>
		<path fill="none" stroke="#898989" stroke-width="0.5" d="M100.5,148.7c0-1.9-1.5-3.4-3.4-3.4c-1.9,0-3.4,1.5-3.4,3.4v4.7
			c0,1.9,1.5,3.4,3.4,3.4c1.9,0,3.4-1.5,3.4-3.4V148.7z"/>
		<path fill="none" stroke="#898989" stroke-width="0.5" d="M111.7,148.7c0-1.9-1.5-3.4-3.4-3.4c-1.9,0-3.4,1.5-3.4,3.4v4.7
			c0,1.9,1.5,3.4,3.4,3.4c1.9,0,3.4-1.5,3.4-3.4V148.7z"/>
		<path fill="none" stroke="#898989" stroke-width="0.5" d="M123,148.7c0-1.9-1.5-3.4-3.4-3.4c-1.9,0-3.4,1.5-3.4,3.4v4.7
			c0,1.9,1.5,3.4,3.4,3.4c1.9,0,3.4-1.5,3.4-3.4V148.7z"/>
		<path fill="none" stroke="#898989" stroke-width="0.5" d="M134.2,148.7c0-1.9-1.5-3.4-3.4-3.4c-1.9,0-3.4,1.5-3.4,3.4v4.7
			c0,1.9,1.5,3.4,3.4,3.4c1.9,0,3.4-1.5,3.4-3.4V148.7z"/>
		<path fill="none" stroke="#898989" stroke-width="0.5" d="M145.5,148.7c0-1.9-1.5-3.4-3.4-3.4c-1.9,0-3.4,1.5-3.4,3.4v4.7
			c0,1.9,1.5,3.4,3.4,3.4c1.9,0,3.4-1.5,3.4-3.4V148.7z"/>
		<path fill="none" stroke="#898989" stroke-width="0.5" d="M156.7,148.7c0-1.9-1.5-3.4-3.4-3.4c-1.9,0-3.4,1.5-3.4,3.4v4.7
			c0,1.9,1.5,3.4,3.4,3.4c1.9,0,3.4-1.5,3.4-3.4V148.7z"/>
	</g>
	<g>
		<path fill="none" stroke="#898989" stroke-width="0.5" d="M10.4,132.9c0-1.9-1.5-3.4-3.4-3.4s-3.4,1.5-3.4,3.4v4.7
			c0,1.9,1.5,3.4,3.4,3.4s3.4-1.5,3.4-3.4V132.9z"/>
		<path fill="none" stroke="#898989" stroke-width="0.5" d="M21.7,132.9c0-1.9-1.5-3.4-3.4-3.4c-1.9,0-3.4,1.5-3.4,3.4v4.7
			c0,1.9,1.5,3.4,3.4,3.4c1.9,0,3.4-1.5,3.4-3.4V132.9z"/>
		<path fill="none" stroke="#898989" stroke-width="0.5" d="M32.9,132.9c0-1.9-1.5-3.4-3.4-3.4s-3.4,1.5-3.4,3.4v4.7
			c0,1.9,1.5,3.4,3.4,3.4s3.4-1.5,3.4-3.4V132.9z"/>
		<path fill="none" stroke="#898989" stroke-width="0.5" d="M44.2,132.9c0-1.9-1.5-3.4-3.4-3.4c-1.9,0-3.4,1.5-3.4,3.4v4.7
			c0,1.9,1.5,3.4,3.4,3.4c1.9,0,3.4-1.5,3.4-3.4V132.9z"/>
		<path fill="none" stroke="#898989" stroke-width="0.5" d="M55.4,132.9c0-1.9-1.5-3.4-3.4-3.4c-1.9,0-3.4,1.5-3.4,3.4v4.7
			c0,1.9,1.5,3.4,3.4,3.4c1.9,0,3.4-1.5,3.4-3.4V132.9z"/>
		<path fill="none" stroke="#898989" stroke-width="0.5" d="M66.7,132.9c0-1.9-1.5-3.4-3.4-3.4s-3.4,1.5-3.4,3.4v4.7
			c0,1.9,1.5,3.4,3.4,3.4s3.4-1.5,3.4-3.4V132.9z"/>
		<path fill="none" stroke="#898989" stroke-width="0.5" d="M78,132.9c0-1.9-1.5-3.4-3.4-3.4c-1.9,0-3.4,1.5-3.4,3.4v4.7
			c0,1.9,1.5,3.4,3.4,3.4c1.9,0,3.4-1.5,3.4-3.4V132.9z"/>
		<path fill="none" stroke="#898989" stroke-width="0.5" d="M89.2,132.9c0-1.9-1.5-3.4-3.4-3.4c-1.9,0-3.4,1.5-3.4,3.4v4.7
			c0,1.9,1.5,3.4,3.4,3.4c1.9,0,3.4-1.5,3.4-3.4V132.9z"/>
		<path fill="none" stroke="#898989" stroke-width="0.5" d="M100.5,132.9c0-1.9-1.5-3.4-3.4-3.4c-1.9,0-3.4,1.5-3.4,3.4v4.7
			c0,1.9,1.5,3.4,3.4,3.4c1.9,0,3.4-1.5,3.4-3.4V132.9z"/>
		<path fill="none" stroke="#898989" stroke-width="0.5" d="M111.7,132.9c0-1.9-1.5-3.4-3.4-3.4c-1.9,0-3.4,1.5-3.4,3.4v4.7
			c0,1.9,1.5,3.4,3.4,3.4c1.9,0,3.4-1.5,3.4-3.4V132.9z"/>
		<path fill="none" stroke="#898989" stroke-width="0.5" d="M123,132.9c0-1.9-1.5-3.4-3.4-3.4c-1.9,0-3.4,1.5-3.4,3.4v4.7
			c0,1.9,1.5,3.4,3.4,3.4c1.9,0,3.4-1.5,3.4-3.4V132.9z"/>
		<path fill="none" stroke="#898989" stroke-width="0.5" d="M134.2,132.9c0-1.9-1.5-3.4-3.4-3.4c-1.9,0-3.4,1.5-3.4,3.4v4.7
			c0,1.9,1.5,3.4,3.4,3.4c1.9,0,3.4-1.5,3.4-3.4V132.9z"/>
		<path fill="none" stroke="#898989" stroke-width="0.5" d="M145.5,132.9c0-1.9-1.5-3.4-3.4-3.4c-1.9,0-3.4,1.5-3.4,3.4v4.7
			c0,1.9,1.5,3.4,3.4,3.4c1.9,0,3.4-1.5,3.4-3.4V132.9z"/>
		<path fill="none" stroke="#898989" stroke-width="0.5" d="M156.7,132.9c0-1.9-1.5-3.4-3.4-3.4c-1.9,0-3.4,1.5-3.4,3.4v4.7
			c0,1.9,1.5,3.4,3.4,3.4c1.9,0,3.4-1.5,3.4-3.4V132.9z"/>
	</g>
	<g>
		<path fill="none" stroke="#898989" stroke-width="0.5" d="M10.4,117.2c0-1.9-1.5-3.4-3.4-3.4s-3.4,1.5-3.4,3.4v4.7
			c0,1.9,1.5,3.4,3.4,3.4s3.4-1.5,3.4-3.4V117.2z"/>
		<path fill="none" stroke="#898989" stroke-width="0.5" d="M21.7,117.2c0-1.9-1.5-3.4-3.4-3.4c-1.9,0-3.4,1.5-3.4,3.4v4.7
			c0,1.9,1.5,3.4,3.4,3.4c1.9,0,3.4-1.5,3.4-3.4V117.2z"/>
		<path fill="none" stroke="#898989" stroke-width="0.5" d="M32.9,117.2c0-1.9-1.5-3.4-3.4-3.4s-3.4,1.5-3.4,3.4v4.7
			c0,1.9,1.5,3.4,3.4,3.4s3.4-1.5,3.4-3.4V117.2z"/>
		<path fill="none" stroke="#898989" stroke-width="0.5" d="M44.2,117.2c0-1.9-1.5-3.4-3.4-3.4c-1.9,0-3.4,1.5-3.4,3.4v4.7
			c0,1.9,1.5,3.4,3.4,3.4c1.9,0,3.4-1.5,3.4-3.4V117.2z"/>
		<path fill="none" stroke="#898989" stroke-width="0.5" d="M55.4,117.2c0-1.9-1.5-3.4-3.4-3.4c-1.9,0-3.4,1.5-3.4,3.4v4.7
			c0,1.9,1.5,3.4,3.4,3.4c1.9,0,3.4-1.5,3.4-3.4V117.2z"/>
		<path fill="none" stroke="#898989" stroke-width="0.5" d="M66.7,117.2c0-1.9-1.5-3.4-3.4-3.4s-3.4,1.5-3.4,3.4v4.7
			c0,1.9,1.5,3.4,3.4,3.4s3.4-1.5,3.4-3.4V117.2z"/>
		<path fill="none" stroke="#898989" stroke-width="0.5" d="M78,117.2c0-1.9-1.5-3.4-3.4-3.4c-1.9,0-3.4,1.5-3.4,3.4v4.7
			c0,1.9,1.5,3.4,3.4,3.4c1.9,0,3.4-1.5,3.4-3.4V117.2z"/>
		<path fill="none" stroke="#898989" stroke-width="0.5" d="M89.2,117.2c0-1.9-1.5-3.4-3.4-3.4c-1.9,0-3.4,1.5-3.4,3.4v4.7
			c0,1.9,1.5,3.4,3.4,3.4c1.9,0,3.4-1.5,3.4-3.4V117.2z"/>
		<path fill="none" stroke="#898989" stroke-width="0.5" d="M100.5,117.2c0-1.9-1.5-3.4-3.4-3.4c-1.9,0-3.4,1.5-3.4,3.4v4.7
			c0,1.9,1.5,3.4,3.4,3.4c1.9,0,3.4-1.5,3.4-3.4V117.2z"/>
		<path fill="none" stroke="#898989" stroke-width="0.5" d="M111.7,117.2c0-1.9-1.5-3.4-3.4-3.4c-1.9,0-3.4,1.5-3.4,3.4v4.7
			c0,1.9,1.5,3.4,3.4,3.4c1.9,0,3.4-1.5,3.4-3.4V117.2z"/>
		<path fill="none" stroke="#898989" stroke-width="0.5" d="M123,117.2c0-1.9-1.5-3.4-3.4-3.4c-1.9,0-3.4,1.5-3.4,3.4v4.7
			c0,1.9,1.5,3.4,3.4,3.4c1.9,0,3.4-1.5,3.4-3.4V117.2z"/>
		<path fill="none" stroke="#898989" stroke-width="0.5" d="M134.2,117.2c0-1.9-1.5-3.4-3.4-3.4c-1.9,0-3.4,1.5-3.4,3.4v4.7
			c0,1.9,1.5,3.4,3.4,3.4c1.9,0,3.4-1.5,3.4-3.4V117.2z"/>
		<path fill="none" stroke="#898989" stroke-width="0.5" d="M145.5,117.2c0-1.9-1.5-3.4-3.4-3.4c-1.9,0-3.4,1.5-3.4,3.4v4.7
			c0,1.9,1.5,3.4,3.4,3.4c1.9,0,3.4-1.5,3.4-3.4V117.2z"/>
		<path fill="none" stroke="#898989" stroke-width="0.5" d="M156.7,117.2c0-1.9-1.5-3.4-3.4-3.4c-1.9,0-3.4,1.5-3.4,3.4v4.7
			c0,1.9,1.5,3.4,3.4,3.4c1.9,0,3.4-1.5,3.4-3.4V117.2z"/>
	</g>
	<g>
		<path fill="none" stroke="#898989" stroke-width="0.5" d="M10.4,101.5c0-1.9-1.5-3.4-3.4-3.4s-3.4,1.5-3.4,3.4v4.7
			c0,1.9,1.5,3.4,3.4,3.4s3.4-1.5,3.4-3.4V101.5z"/>
		<path fill="none" stroke="#898989" stroke-width="0.5" d="M21.7,101.5c0-1.9-1.5-3.4-3.4-3.4c-1.9,0-3.4,1.5-3.4,3.4v4.7
			c0,1.9,1.5,3.4,3.4,3.4c1.9,0,3.4-1.5,3.4-3.4V101.5z"/>
		<path fill="none" stroke="#898989" stroke-width="0.5" d="M32.9,101.5c0-1.9-1.5-3.4-3.4-3.4s-3.4,1.5-3.4,3.4v4.7
			c0,1.9,1.5,3.4,3.4,3.4s3.4-1.5,3.4-3.4V101.5z"/>
		<path fill="none" stroke="#898989" stroke-width="0.5" d="M44.2,101.5c0-1.9-1.5-3.4-3.4-3.4c-1.9,0-3.4,1.5-3.4,3.4v4.7
			c0,1.9,1.5,3.4,3.4,3.4c1.9,0,3.4-1.5,3.4-3.4V101.5z"/>
		<path fill="none" stroke="#898989" stroke-width="0.5" d="M55.4,101.5c0-1.9-1.5-3.4-3.4-3.4c-1.9,0-3.4,1.5-3.4,3.4v4.7
			c0,1.9,1.5,3.4,3.4,3.4c1.9,0,3.4-1.5,3.4-3.4V101.5z"/>
		<path fill="none" stroke="#898989" stroke-width="0.5" d="M66.7,101.5c0-1.9-1.5-3.4-3.4-3.4s-3.4,1.5-3.4,3.4v4.7
			c0,1.9,1.5,3.4,3.4,3.4s3.4-1.5,3.4-3.4V101.5z"/>
		<path fill="none" stroke="#898989" stroke-width="0.5" d="M78,101.5c0-1.9-1.5-3.4-3.4-3.4c-1.9,0-3.4,1.5-3.4,3.4v4.7
			c0,1.9,1.5,3.4,3.4,3.4c1.9,0,3.4-1.5,3.4-3.4V101.5z"/>
		<path fill="none" stroke="#898989" stroke-width="0.5" d="M89.2,101.5c0-1.9-1.5-3.4-3.4-3.4c-1.9,0-3.4,1.5-3.4,3.4v4.7
			c0,1.9,1.5,3.4,3.4,3.4c1.9,0,3.4-1.5,3.4-3.4V101.5z"/>
		<path fill="none" stroke="#898989" stroke-width="0.5" d="M100.5,101.5c0-1.9-1.5-3.4-3.4-3.4c-1.9,0-3.4,1.5-3.4,3.4v4.7
			c0,1.9,1.5,3.4,3.4,3.4c1.9,0,3.4-1.5,3.4-3.4V101.5z"/>
		<path fill="none" stroke="#898989" stroke-width="0.5" d="M111.7,101.5c0-1.9-1.5-3.4-3.4-3.4c-1.9,0-3.4,1.5-3.4,3.4v4.7
			c0,1.9,1.5,3.4,3.4,3.4c1.9,0,3.4-1.5,3.4-3.4V101.5z"/>
		<path fill="none" stroke="#898989" stroke-width="0.5" d="M123,101.5c0-1.9-1.5-3.4-3.4-3.4c-1.9,0-3.4,1.5-3.4,3.4v4.7
			c0,1.9,1.5,3.4,3.4,3.4c1.9,0,3.4-1.5,3.4-3.4V101.5z"/>
		<path fill="none" stroke="#898989" stroke-width="0.5" d="M134.2,101.5c0-1.9-1.5-3.4-3.4-3.4c-1.9,0-3.4,1.5-3.4,3.4v4.7
			c0,1.9,1.5,3.4,3.4,3.4c1.9,0,3.4-1.5,3.4-3.4V101.5z"/>
		<path fill="none" stroke="#898989" stroke-width="0.5" d="M145.5,101.5c0-1.9-1.5-3.4-3.4-3.4c-1.9,0-3.4,1.5-3.4,3.4v4.7
			c0,1.9,1.5,3.4,3.4,3.4c1.9,0,3.4-1.5,3.4-3.4V101.5z"/>
		<path fill="none" stroke="#898989" stroke-width="0.5" d="M156.7,101.5c0-1.9-1.5-3.4-3.4-3.4c-1.9,0-3.4,1.5-3.4,3.4v4.7
			c0,1.9,1.5,3.4,3.4,3.4c1.9,0,3.4-1.5,3.4-3.4V101.5z"/>
	</g>
	<g>
		<path fill="none" stroke="#898989" stroke-width="0.5" d="M10.4,85.7c0-1.9-1.5-3.4-3.4-3.4s-3.4,1.5-3.4,3.4v4.7
			c0,1.9,1.5,3.4,3.4,3.4s3.4-1.5,3.4-3.4V85.7z"/>
		<path fill="none" stroke="#898989" stroke-width="0.5" d="M21.7,85.7c0-1.9-1.5-3.4-3.4-3.4c-1.9,0-3.4,1.5-3.4,3.4v4.7
			c0,1.9,1.5,3.4,3.4,3.4c1.9,0,3.4-1.5,3.4-3.4V85.7z"/>
		<path fill="none" stroke="#898989" stroke-width="0.5" d="M32.9,85.7c0-1.9-1.5-3.4-3.4-3.4s-3.4,1.5-3.4,3.4v4.7
			c0,1.9,1.5,3.4,3.4,3.4s3.4-1.5,3.4-3.4V85.7z"/>
		<path fill="none" stroke="#898989" stroke-width="0.5" d="M44.2,85.7c0-1.9-1.5-3.4-3.4-3.4c-1.9,0-3.4,1.5-3.4,3.4v4.7
			c0,1.9,1.5,3.4,3.4,3.4c1.9,0,3.4-1.5,3.4-3.4V85.7z"/>
		<path fill="none" stroke="#898989" stroke-width="0.5" d="M55.4,85.7c0-1.9-1.5-3.4-3.4-3.4c-1.9,0-3.4,1.5-3.4,3.4v4.7
			c0,1.9,1.5,3.4,3.4,3.4c1.9,0,3.4-1.5,3.4-3.4V85.7z"/>
		<path fill="none" stroke="#898989" stroke-width="0.5" d="M66.7,85.7c0-1.9-1.5-3.4-3.4-3.4s-3.4,1.5-3.4,3.4v4.7
			c0,1.9,1.5,3.4,3.4,3.4s3.4-1.5,3.4-3.4V85.7z"/>
		<path fill="none" stroke="#898989" stroke-width="0.5" d="M78,85.7c0-1.9-1.5-3.4-3.4-3.4c-1.9,0-3.4,1.5-3.4,3.4v4.7
			c0,1.9,1.5,3.4,3.4,3.4c1.9,0,3.4-1.5,3.4-3.4V85.7z"/>
		<path fill="none" stroke="#898989" stroke-width="0.5" d="M89.2,85.7c0-1.9-1.5-3.4-3.4-3.4c-1.9,0-3.4,1.5-3.4,3.4v4.7
			c0,1.9,1.5,3.4,3.4,3.4c1.9,0,3.4-1.5,3.4-3.4V85.7z"/>
		<path fill="none" stroke="#898989" stroke-width="0.5" d="M100.5,85.7c0-1.9-1.5-3.4-3.4-3.4c-1.9,0-3.4,1.5-3.4,3.4v4.7
			c0,1.9,1.5,3.4,3.4,3.4c1.9,0,3.4-1.5,3.4-3.4V85.7z"/>
		<path fill="none" stroke="#898989" stroke-width="0.5" d="M111.7,85.7c0-1.9-1.5-3.4-3.4-3.4c-1.9,0-3.4,1.5-3.4,3.4v4.7
			c0,1.9,1.5,3.4,3.4,3.4c1.9,0,3.4-1.5,3.4-3.4V85.7z"/>
		<path fill="none" stroke="#898989" stroke-width="0.5" d="M123,85.7c0-1.9-1.5-3.4-3.4-3.4c-1.9,0-3.4,1.5-3.4,3.4v4.7
			c0,1.9,1.5,3.4,3.4,3.4c1.9,0,3.4-1.5,3.4-3.4V85.7z"/>
		<path fill="none" stroke="#898989" stroke-width="0.5" d="M134.2,85.7c0-1.9-1.5-3.4-3.4-3.4c-1.9,0-3.4,1.5-3.4,3.4v4.7
			c0,1.9,1.5,3.4,3.4,3.4c1.9,0,3.4-1.5,3.4-3.4V85.7z"/>
		<path fill="none" stroke="#898989" stroke-width="0.5" d="M145.5,85.7c0-1.9-1.5-3.4-3.4-3.4c-1.9,0-3.4,1.5-3.4,3.4v4.7
			c0,1.9,1.5,3.4,3.4,3.4c1.9,0,3.4-1.5,3.4-3.4V85.7z"/>
		<path fill="none" stroke="#898989" stroke-width="0.5" d="M156.7,85.7c0-1.9-1.5-3.4-3.4-3.4c-1.9,0-3.4,1.5-3.4,3.4v4.7
			c0,1.9,1.5,3.4,3.4,3.4c1.9,0,3.4-1.5,3.4-3.4V85.7z"/>
	</g>
	<g>
		<path fill="none" stroke="#898989" stroke-width="0.5" d="M10.4,70c0-1.9-1.5-3.4-3.4-3.4S3.6,68.1,3.6,70v4.7
			c0,1.9,1.5,3.4,3.4,3.4s3.4-1.5,3.4-3.4V70z"/>
		<path fill="none" stroke="#898989" stroke-width="0.5" d="M21.7,70c0-1.9-1.5-3.4-3.4-3.4c-1.9,0-3.4,1.5-3.4,3.4v4.7
			c0,1.9,1.5,3.4,3.4,3.4c1.9,0,3.4-1.5,3.4-3.4V70z"/>
		<path fill="none" stroke="#898989" stroke-width="0.5" d="M32.9,70c0-1.9-1.5-3.4-3.4-3.4s-3.4,1.5-3.4,3.4v4.7
			c0,1.9,1.5,3.4,3.4,3.4s3.4-1.5,3.4-3.4V70z"/>
		<path fill="none" stroke="#898989" stroke-width="0.5" d="M44.2,70c0-1.9-1.5-3.4-3.4-3.4c-1.9,0-3.4,1.5-3.4,3.4v4.7
			c0,1.9,1.5,3.4,3.4,3.4c1.9,0,3.4-1.5,3.4-3.4V70z"/>
		<path fill="none" stroke="#898989" stroke-width="0.5" d="M55.4,70c0-1.9-1.5-3.4-3.4-3.4c-1.9,0-3.4,1.5-3.4,3.4v4.7
			c0,1.9,1.5,3.4,3.4,3.4c1.9,0,3.4-1.5,3.4-3.4V70z"/>
		<path fill="none" stroke="#898989" stroke-width="0.5" d="M66.7,70c0-1.9-1.5-3.4-3.4-3.4s-3.4,1.5-3.4,3.4v4.7
			c0,1.9,1.5,3.4,3.4,3.4s3.4-1.5,3.4-3.4V70z"/>
		<path fill="none" stroke="#898989" stroke-width="0.5" d="M78,70c0-1.9-1.5-3.4-3.4-3.4c-1.9,0-3.4,1.5-3.4,3.4v4.7
			c0,1.9,1.5,3.4,3.4,3.4c1.9,0,3.4-1.5,3.4-3.4V70z"/>
		<path fill="none" stroke="#898989" stroke-width="0.5" d="M89.2,70c0-1.9-1.5-3.4-3.4-3.4c-1.9,0-3.4,1.5-3.4,3.4v4.7
			c0,1.9,1.5,3.4,3.4,3.4c1.9,0,3.4-1.5,3.4-3.4V70z"/>
		<path fill="none" stroke="#898989" stroke-width="0.5" d="M100.5,70c0-1.9-1.5-3.4-3.4-3.4c-1.9,0-3.4,1.5-3.4,3.4v4.7
			c0,1.9,1.5,3.4,3.4,3.4c1.9,0,3.4-1.5,3.4-3.4V70z"/>
		<path fill="none" stroke="#898989" stroke-width="0.5" d="M111.7,70c0-1.9-1.5-3.4-3.4-3.4c-1.9,0-3.4,1.5-3.4,3.4v4.7
			c0,1.9,1.5,3.4,3.4,3.4c1.9,0,3.4-1.5,3.4-3.4V70z"/>
		<path fill="none" stroke="#898989" stroke-width="0.5" d="M123,70c0-1.9-1.5-3.4-3.4-3.4c-1.9,0-3.4,1.5-3.4,3.4v4.7
			c0,1.9,1.5,3.4,3.4,3.4c1.9,0,3.4-1.5,3.4-3.4V70z"/>
		<path fill="none" stroke="#898989" stroke-width="0.5" d="M134.2,70c0-1.9-1.5-3.4-3.4-3.4c-1.9,0-3.4,1.5-3.4,3.4v4.7
			c0,1.9,1.5,3.4,3.4,3.4c1.9,0,3.4-1.5,3.4-3.4V70z"/>
		<path fill="none" stroke="#898989" stroke-width="0.5" d="M145.5,70c0-1.9-1.5-3.4-3.4-3.4c-1.9,0-3.4,1.5-3.4,3.4v4.7
			c0,1.9,1.5,3.4,3.4,3.4c1.9,0,3.4-1.5,3.4-3.4V70z"/>
		<path fill="none" stroke="#898989" stroke-width="0.5" d="M156.7,70c0-1.9-1.5-3.4-3.4-3.4c-1.9,0-3.4,1.5-3.4,3.4v4.7
			c0,1.9,1.5,3.4,3.4,3.4c1.9,0,3.4-1.5,3.4-3.4V70z"/>
	</g>
	<g>
		<path fill="none" stroke="#898989" stroke-width="0.5" d="M10.4,54.3c0-1.9-1.5-3.4-3.4-3.4s-3.4,1.5-3.4,3.4v4.7
			c0,1.9,1.5,3.4,3.4,3.4s3.4-1.5,3.4-3.4V54.3z"/>
		<path fill="none" stroke="#898989" stroke-width="0.5" d="M21.7,54.3c0-1.9-1.5-3.4-3.4-3.4c-1.9,0-3.4,1.5-3.4,3.4v4.7
			c0,1.9,1.5,3.4,3.4,3.4c1.9,0,3.4-1.5,3.4-3.4V54.3z"/>
		<path fill="none" stroke="#898989" stroke-width="0.5" d="M32.9,54.3c0-1.9-1.5-3.4-3.4-3.4s-3.4,1.5-3.4,3.4v4.7
			c0,1.9,1.5,3.4,3.4,3.4s3.4-1.5,3.4-3.4V54.3z"/>
		<path fill="none" stroke="#898989" stroke-width="0.5" d="M44.2,54.3c0-1.9-1.5-3.4-3.4-3.4c-1.9,0-3.4,1.5-3.4,3.4v4.7
			c0,1.9,1.5,3.4,3.4,3.4c1.9,0,3.4-1.5,3.4-3.4V54.3z"/>
		<path fill="none" stroke="#898989" stroke-width="0.5" d="M55.4,54.3c0-1.9-1.5-3.4-3.4-3.4c-1.9,0-3.4,1.5-3.4,3.4v4.7
			c0,1.9,1.5,3.4,3.4,3.4c1.9,0,3.4-1.5,3.4-3.4V54.3z"/>
		<path fill="none" stroke="#898989" stroke-width="0.5" d="M66.7,54.3c0-1.9-1.5-3.4-3.4-3.4s-3.4,1.5-3.4,3.4v4.7
			c0,1.9,1.5,3.4,3.4,3.4s3.4-1.5,3.4-3.4V54.3z"/>
		<path fill="none" stroke="#898989" stroke-width="0.5" d="M78,54.3c0-1.9-1.5-3.4-3.4-3.4c-1.9,0-3.4,1.5-3.4,3.4v4.7
			c0,1.9,1.5,3.4,3.4,3.4c1.9,0,3.4-1.5,3.4-3.4V54.3z"/>
		<path fill="none" stroke="#898989" stroke-width="0.5" d="M89.2,54.3c0-1.9-1.5-3.4-3.4-3.4c-1.9,0-3.4,1.5-3.4,3.4v4.7
			c0,1.9,1.5,3.4,3.4,3.4c1.9,0,3.4-1.5,3.4-3.4V54.3z"/>
		<path fill="none" stroke="#898989" stroke-width="0.5" d="M100.5,54.3c0-1.9-1.5-3.4-3.4-3.4c-1.9,0-3.4,1.5-3.4,3.4v4.7
			c0,1.9,1.5,3.4,3.4,3.4c1.9,0,3.4-1.5,3.4-3.4V54.3z"/>
		<path fill="none" stroke="#898989" stroke-width="0.5" d="M111.7,54.3c0-1.9-1.5-3.4-3.4-3.4c-1.9,0-3.4,1.5-3.4,3.4v4.7
			c0,1.9,1.5,3.4,3.4,3.4c1.9,0,3.4-1.5,3.4-3.4V54.3z"/>
		<path fill="none" stroke="#898989" stroke-width="0.5" d="M123,54.3c0-1.9-1.5-3.4-3.4-3.4c-1.9,0-3.4,1.5-3.4,3.4v4.7
			c0,1.9,1.5,3.4,3.4,3.4c1.9,0,3.4-1.5,3.4-3.4V54.3z"/>
		<path fill="none" stroke="#898989" stroke-width="0.5" d="M134.2,54.3c0-1.9-1.5-3.4-3.4-3.4c-1.9,0-3.4,1.5-3.4,3.4v4.7
			c0,1.9,1.5,3.4,3.4,3.4c1.9,0,3.4-1.5,3.4-3.4V54.3z"/>
		<path fill="none" stroke="#898989" stroke-width="0.5" d="M145.5,54.3c0-1.9-1.5-3.4-3.4-3.4c-1.9,0-3.4,1.5-3.4,3.4v4.7
			c0,1.9,1.5,3.4,3.4,3.4c1.9,0,3.4-1.5,3.4-3.4V54.3z"/>
		<path fill="none" stroke="#898989" stroke-width="0.5" d="M156.7,54.3c0-1.9-1.5-3.4-3.4-3.4c-1.9,0-3.4,1.5-3.4,3.4v4.7
			c0,1.9,1.5,3.4,3.4,3.4c1.9,0,3.4-1.5,3.4-3.4V54.3z"/>
	</g>
	<g>
		<path fill="none" stroke="#898989" stroke-width="0.5" d="M10.4,38.5c0-1.9-1.5-3.4-3.4-3.4s-3.4,1.5-3.4,3.4v4.7
			c0,1.9,1.5,3.4,3.4,3.4s3.4-1.5,3.4-3.4V38.5z"/>
		<path fill="none" stroke="#898989" stroke-width="0.5" d="M21.7,38.5c0-1.9-1.5-3.4-3.4-3.4c-1.9,0-3.4,1.5-3.4,3.4v4.7
			c0,1.9,1.5,3.4,3.4,3.4c1.9,0,3.4-1.5,3.4-3.4V38.5z"/>
		<path fill="none" stroke="#898989" stroke-width="0.5" d="M32.9,38.5c0-1.9-1.5-3.4-3.4-3.4s-3.4,1.5-3.4,3.4v4.7
			c0,1.9,1.5,3.4,3.4,3.4s3.4-1.5,3.4-3.4V38.5z"/>
		<path fill="none" stroke="#898989" stroke-width="0.5" d="M44.2,38.5c0-1.9-1.5-3.4-3.4-3.4c-1.9,0-3.4,1.5-3.4,3.4v4.7
			c0,1.9,1.5,3.4,3.4,3.4c1.9,0,3.4-1.5,3.4-3.4V38.5z"/>
		<path fill="none" stroke="#898989" stroke-width="0.5" d="M55.4,38.5c0-1.9-1.5-3.4-3.4-3.4c-1.9,0-3.4,1.5-3.4,3.4v4.7
			c0,1.9,1.5,3.4,3.4,3.4c1.9,0,3.4-1.5,3.4-3.4V38.5z"/>
		<path fill="none" stroke="#898989" stroke-width="0.5" d="M66.7,38.5c0-1.9-1.5-3.4-3.4-3.4s-3.4,1.5-3.4,3.4v4.7
			c0,1.9,1.5,3.4,3.4,3.4s3.4-1.5,3.4-3.4V38.5z"/>
		<path fill="none" stroke="#898989" stroke-width="0.5" d="M78,38.5c0-1.9-1.5-3.4-3.4-3.4c-1.9,0-3.4,1.5-3.4,3.4v4.7
			c0,1.9,1.5,3.4,3.4,3.4c1.9,0,3.4-1.5,3.4-3.4V38.5z"/>
		<path fill="none" stroke="#898989" stroke-width="0.5" d="M89.2,38.5c0-1.9-1.5-3.4-3.4-3.4c-1.9,0-3.4,1.5-3.4,3.4v4.7
			c0,1.9,1.5,3.4,3.4,3.4c1.9,0,3.4-1.5,3.4-3.4V38.5z"/>
		<path fill="none" stroke="#898989" stroke-width="0.5" d="M100.5,38.5c0-1.9-1.5-3.4-3.4-3.4c-1.9,0-3.4,1.5-3.4,3.4v4.7
			c0,1.9,1.5,3.4,3.4,3.4c1.9,0,3.4-1.5,3.4-3.4V38.5z"/>
		<path fill="none" stroke="#898989" stroke-width="0.5" d="M111.7,38.5c0-1.9-1.5-3.4-3.4-3.4c-1.9,0-3.4,1.5-3.4,3.4v4.7
			c0,1.9,1.5,3.4,3.4,3.4c1.9,0,3.4-1.5,3.4-3.4V38.5z"/>
		<path fill="none" stroke="#898989" stroke-width="0.5" d="M123,38.5c0-1.9-1.5-3.4-3.4-3.4c-1.9,0-3.4,1.5-3.4,3.4v4.7
			c0,1.9,1.5,3.4,3.4,3.4c1.9,0,3.4-1.5,3.4-3.4V38.5z"/>
		<path fill="none" stroke="#898989" stroke-width="0.5" d="M134.2,38.5c0-1.9-1.5-3.4-3.4-3.4c-1.9,0-3.4,1.5-3.4,3.4v4.7
			c0,1.9,1.5,3.4,3.4,3.4c1.9,0,3.4-1.5,3.4-3.4V38.5z"/>
		<path fill="none" stroke="#898989" stroke-width="0.5" d="M145.5,38.5c0-1.9-1.5-3.4-3.4-3.4c-1.9,0-3.4,1.5-3.4,3.4v4.7
			c0,1.9,1.5,3.4,3.4,3.4c1.9,0,3.4-1.5,3.4-3.4V38.5z"/>
		<path fill="none" stroke="#898989" stroke-width="0.5" d="M156.7,38.5c0-1.9-1.5-3.4-3.4-3.4c-1.9,0-3.4,1.5-3.4,3.4v4.7
			c0,1.9,1.5,3.4,3.4,3.4c1.9,0,3.4-1.5,3.4-3.4V38.5z"/>
	</g>
	<g>
		<path fill="none" stroke="#898989" stroke-width="0.5" d="M10.4,22.8c0-1.9-1.5-3.4-3.4-3.4s-3.4,1.5-3.4,3.4v4.7
			c0,1.9,1.5,3.4,3.4,3.4s3.4-1.5,3.4-3.4V22.8z"/>
		<path fill="none" stroke="#898989" stroke-width="0.5" d="M21.7,22.8c0-1.9-1.5-3.4-3.4-3.4c-1.9,0-3.4,1.5-3.4,3.4v4.7
			c0,1.9,1.5,3.4,3.4,3.4c1.9,0,3.4-1.5,3.4-3.4V22.8z"/>
		<path fill="none" stroke="#898989" stroke-width="0.5" d="M32.9,22.8c0-1.9-1.5-3.4-3.4-3.4s-3.4,1.5-3.4,3.4v4.7
			c0,1.9,1.5,3.4,3.4,3.4s3.4-1.5,3.4-3.4V22.8z"/>
		<path fill="none" stroke="#898989" stroke-width="0.5" d="M44.2,22.8c0-1.9-1.5-3.4-3.4-3.4c-1.9,0-3.4,1.5-3.4,3.4v4.7
			c0,1.9,1.5,3.4,3.4,3.4c1.9,0,3.4-1.5,3.4-3.4V22.8z"/>
		<path fill="none" stroke="#898989" stroke-width="0.5" d="M55.4,22.8c0-1.9-1.5-3.4-3.4-3.4c-1.9,0-3.4,1.5-3.4,3.4v4.7
			c0,1.9,1.5,3.4,3.4,3.4c1.9,0,3.4-1.5,3.4-3.4V22.8z"/>
		<path fill="none" stroke="#898989" stroke-width="0.5" d="M66.7,22.8c0-1.9-1.5-3.4-3.4-3.4s-3.4,1.5-3.4,3.4v4.7
			c0,1.9,1.5,3.4,3.4,3.4s3.4-1.5,3.4-3.4V22.8z"/>
		<path fill="none" stroke="#898989" stroke-width="0.5" d="M78,22.8c0-1.9-1.5-3.4-3.4-3.4c-1.9,0-3.4,1.5-3.4,3.4v4.7
			c0,1.9,1.5,3.4,3.4,3.4c1.9,0,3.4-1.5,3.4-3.4V22.8z"/>
		<path fill="none" stroke="#898989" stroke-width="0.5" d="M89.2,22.8c0-1.9-1.5-3.4-3.4-3.4c-1.9,0-3.4,1.5-3.4,3.4v4.7
			c0,1.9,1.5,3.4,3.4,3.4c1.9,0,3.4-1.5,3.4-3.4V22.8z"/>
		<path fill="none" stroke="#898989" stroke-width="0.5" d="M100.5,22.8c0-1.9-1.5-3.4-3.4-3.4c-1.9,0-3.4,1.5-3.4,3.4v4.7
			c0,1.9,1.5,3.4,3.4,3.4c1.9,0,3.4-1.5,3.4-3.4V22.8z"/>
		<path fill="none" stroke="#898989" stroke-width="0.5" d="M111.7,22.8c0-1.9-1.5-3.4-3.4-3.4c-1.9,0-3.4,1.5-3.4,3.4v4.7
			c0,1.9,1.5,3.4,3.4,3.4c1.9,0,3.4-1.5,3.4-3.4V22.8z"/>
		<path fill="none" stroke="#898989" stroke-width="0.5" d="M123,22.8c0-1.9-1.5-3.4-3.4-3.4c-1.9,0-3.4,1.5-3.4,3.4v4.7
			c0,1.9,1.5,3.4,3.4,3.4c1.9,0,3.4-1.5,3.4-3.4V22.8z"/>
		<path fill="none" stroke="#898989" stroke-width="0.5" d="M134.2,22.8c0-1.9-1.5-3.4-3.4-3.4c-1.9,0-3.4,1.5-3.4,3.4v4.7
			c0,1.9,1.5,3.4,3.4,3.4c1.9,0,3.4-1.5,3.4-3.4V22.8z"/>
		<path fill="none" stroke="#898989" stroke-width="0.5" d="M145.5,22.8c0-1.9-1.5-3.4-3.4-3.4c-1.9,0-3.4,1.5-3.4,3.4v4.7
			c0,1.9,1.5,3.4,3.4,3.4c1.9,0,3.4-1.5,3.4-3.4V22.8z"/>
		<path fill="none" stroke="#898989" stroke-width="0.5" d="M156.7,22.8c0-1.9-1.5-3.4-3.4-3.4c-1.9,0-3.4,1.5-3.4,3.4v4.7
			c0,1.9,1.5,3.4,3.4,3.4c1.9,0,3.4-1.5,3.4-3.4V22.8z"/>
	</g>
	<path fill="none" stroke="#898989" stroke-width="0.5" d="M10.4,7.1c0-1.9-1.5-3.4-3.4-3.4c-1.9,0-3.4,1.5-3.4,3.4v4.7
		c0,1.9,1.5,3.4,3.4,3.4c1.9,0,3.4-1.5,3.4-3.4V7.1z"/>
	<path fill="none" stroke="#898989" stroke-width="0.5" d="M21.7,7.1c0-1.9-1.5-3.4-3.4-3.4c-1.9,0-3.4,1.5-3.4,3.4v4.7
		c0,1.9,1.5,3.4,3.4,3.4c1.9,0,3.4-1.5,3.4-3.4V7.1z"/>
	<path fill="none" stroke="#898989" stroke-width="0.5" d="M32.9,7.1c0-1.9-1.5-3.4-3.4-3.4c-1.9,0-3.4,1.5-3.4,3.4v4.7
		c0,1.9,1.5,3.4,3.4,3.4c1.9,0,3.4-1.5,3.4-3.4V7.1z"/>
	<path fill="none" stroke="#898989" stroke-width="0.5" d="M44.2,7.1c0-1.9-1.5-3.4-3.4-3.4s-3.4,1.5-3.4,3.4v4.7
		c0,1.9,1.5,3.4,3.4,3.4s3.4-1.5,3.4-3.4V7.1z"/>
	<path fill="none" stroke="#898989" stroke-width="0.5" d="M55.4,7.1c0-1.9-1.5-3.4-3.4-3.4c-1.9,0-3.4,1.5-3.4,3.4v4.7
		c0,1.9,1.5,3.4,3.4,3.4c1.9,0,3.4-1.5,3.4-3.4V7.1z"/>
	<path fill="none" stroke="#898989" stroke-width="0.5" d="M66.7,7.1c0-1.9-1.5-3.4-3.4-3.4c-1.9,0-3.4,1.5-3.4,3.4v4.7
		c0,1.9,1.5,3.4,3.4,3.4c1.9,0,3.4-1.5,3.4-3.4V7.1z"/>
	<path fill="none" stroke="#898989" stroke-width="0.5" d="M77.9,7.1c0-1.9-1.5-3.4-3.4-3.4c-1.9,0-3.4,1.5-3.4,3.4v4.7
		c0,1.9,1.5,3.4,3.4,3.4c1.9,0,3.4-1.5,3.4-3.4V7.1z"/>
	<path fill="none" stroke="#898989" stroke-width="0.5" d="M89.2,7.1c0-1.9-1.5-3.4-3.4-3.4c-1.9,0-3.4,1.5-3.4,3.4v4.7
		c0,1.9,1.5,3.4,3.4,3.4c1.9,0,3.4-1.5,3.4-3.4V7.1z"/>
	<path fill="none" stroke="#898989" stroke-width="0.5" d="M100.5,7.1c0-1.9-1.5-3.4-3.4-3.4c-1.9,0-3.4,1.5-3.4,3.4v4.7
		c0,1.9,1.5,3.4,3.4,3.4c1.9,0,3.4-1.5,3.4-3.4V7.1z"/>
	<path fill="none" stroke="#898989" stroke-width="0.5" d="M111.7,7.1c0-1.9-1.5-3.4-3.4-3.4c-1.9,0-3.4,1.5-3.4,3.4v4.7
		c0,1.9,1.5,3.4,3.4,3.4c1.9,0,3.4-1.5,3.4-3.4V7.1z"/>
	<path fill="none" stroke="#898989" stroke-width="0.5" d="M123,7.1c0-1.9-1.5-3.4-3.4-3.4c-1.9,0-3.4,1.5-3.4,3.4v4.7
		c0,1.9,1.5,3.4,3.4,3.4c1.9,0,3.4-1.5,3.4-3.4V7.1z"/>
	<path fill="none" stroke="#898989" stroke-width="0.5" d="M134.2,7.1c0-1.9-1.5-3.4-3.4-3.4c-1.9,0-3.4,1.5-3.4,3.4v4.7
		c0,1.9,1.5,3.4,3.4,3.4c1.9,0,3.4-1.5,3.4-3.4V7.1z"/>
	<path fill="none" stroke="#898989" stroke-width="0.5" d="M145.5,7.1c0-1.9-1.5-3.4-3.4-3.4c-1.9,0-3.4,1.5-3.4,3.4v4.7
		c0,1.9,1.5,3.4,3.4,3.4c1.9,0,3.4-1.5,3.4-3.4V7.1z"/>
	<path fill="none" stroke="#898989" stroke-width="0.5" d="M156.7,7.1c0-1.9-1.5-3.4-3.4-3.4c-1.9,0-3.4,1.5-3.4,3.4v4.7
		c0,1.9,1.5,3.4,3.4,3.4c1.9,0,3.4-1.5,3.4-3.4V7.1z"/>
</g>
<g id="marked">
	<path fill="#FFF100" d="M21.7,22.8c0-1.9-1.5-3.4-3.4-3.4c-1.9,0-3.4,1.5-3.4,3.4v4.7c0,1.9,1.5,3.4,3.4,3.4c1.9,0,3.4-1.5,3.4-3.4
		V22.8z"/>
	<path fill="#00A0E9" d="M66.7,38.5c0-1.9-1.5-3.4-3.4-3.4c-1.9,0-3.4,1.5-3.4,3.4v4.7c0,1.9,1.5,3.4,3.4,3.4c1.9,0,3.4-1.5,3.4-3.4
		V38.5z"/>
	<path fill="#009944" d="M123,54.3c0-1.9-1.5-3.4-3.4-3.4c-1.9,0-3.4,1.5-3.4,3.4v4.7c0,1.9,1.5,3.4,3.4,3.4c1.9,0,3.4-1.5,3.4-3.4
		V54.3z"/>
	<path fill="#E60012" d="M111.7,70c0-1.9-1.5-3.4-3.4-3.4c-1.9,0-3.4,1.5-3.4,3.4v4.7c0,1.9,1.5,3.4,3.4,3.4c1.9,0,3.4-1.5,3.4-3.4
		V70z"/>
	<path fill="#1D2088" d="M55.4,85.7c0-1.9-1.5-3.4-3.4-3.4c-1.9,0-3.4,1.5-3.4,3.4v4.7c0,1.9,1.5,3.4,3.4,3.4c1.9,0,3.4-1.5,3.4-3.4
		V85.7z"/>
	<path fill="#A50082" d="M32.9,117.2c0-1.9-1.5-3.4-3.4-3.4c-1.9,0-3.4,1.5-3.4,3.4v4.7c0,1.9,1.5,3.4,3.4,3.4
		c1.9,0,3.4-1.5,3.4-3.4V117.2z"/>
	<path fill="#8FC31F" d="M89.2,132.9c0-1.9-1.5-3.4-3.4-3.4c-1.9,0-3.4,1.5-3.4,3.4v4.7c0,1.9,1.5,3.4,3.4,3.4
		c1.9,0,3.4-1.5,3.4-3.4V132.9z"/>
	<path fill="#009E9C" d="M145.5,148.7c0-1.9-1.5-3.4-3.4-3.4c-1.9,0-3.4,1.5-3.4,3.4v4.7c0,1.9,1.5,3.4,3.4,3.4
		c1.9,0,3.4-1.5,3.4-3.4V148.7z"/>
	<path fill="#F08300" d="M100.5,101.5c0-1.9-1.5-3.4-3.4-3.4c-1.9,0-3.4,1.5-3.4,3.4v4.7c0,1.9,1.5,3.4,3.4,3.4
		c1.9,0,3.4-1.5,3.4-3.4V101.5z"/>
	<path fill="#E4007F" d="M77.9,7.1c0-1.9-1.5-3.4-3.4-3.4c-1.9,0-3.4,1.5-3.4,3.4v4.7c0,1.9,1.5,3.4,3.4,3.4c1.9,0,3.4-1.5,3.4-3.4
		V7.1z"/>
</g>
</svg>
