<?xml version="1.0" encoding="utf-8"?>
<!-- Generator: Adobe Illustrator 18.1.1, SVG Export Plug-In . SVG Version: 6.00 Build 0)  -->
<svg version="1.1" xmlns="http://www.w3.org/2000/svg" xmlns:xlink="http://www.w3.org/1999/xlink" x="0px" y="0px"
	 viewBox="0 0 160 160" enable-background="new 0 0 160 160" xml:space="preserve">
<g id="bg">
	<rect fill="#FFFFFF" width="160" height="160"/>
</g>
<g id="yellow">
	<polygon fill="#FFF100" points="0,160 122,160 122,152 33,152 33,144.3 66,144.3 66,137 148.7,137 148.7,128 86,128 86,120 
		38.3,120 38.3,111.7 106,111.7 106,102.3 4.3,102.3 4.3,94.3 45.3,94.3 45.3,85.7 128.3,85.7 128.3,77.7 63,77.7 63,68.7 
		17.7,68.7 17.7,59.7 141,59.7 141,51.3 31.3,51.3 31.3,43.3 82.7,43.3 82.7,36 119,36 119,27 9,27 9,17.7 86.7,17.7 86.7,9 50,9 
		50,0 0,0 	"/>
</g>
<g id="cyan">
	<polygon fill="#00A0E9" points="0,0 0,122 8,122 8,33 15.7,33 15.7,66 23,66 23,148.7 32,148.7 32,86 40,86 40,38.3 48.3,38.3 
		48.3,106 57.7,106 57.7,4.3 65.7,4.3 65.7,45.3 74.3,45.3 74.3,128.3 82.3,128.3 82.3,63 91.3,63 91.3,17.7 100.3,17.7 100.3,141 
		108.7,141 108.7,31.3 116.7,31.3 116.7,82.7 124,82.7 124,119 133,119 133,9 142.3,9 142.3,86.7 151,86.7 151,50 160,50 160,0 	"/>
</g>
<g id="magenda">
	<polygon fill="#E4007F" points="160,0 38,0 38,8 127,8 127,15.7 94,15.7 94,23 11.3,23 11.3,32 74,32 74,40 121.7,40 121.7,48.3 
		54,48.3 54,57.7 155.7,57.7 155.7,65.7 114.7,65.7 114.7,74.3 31.7,74.3 31.7,82.3 97,82.3 97,91.3 142.3,91.3 142.3,100.3 
		19,100.3 19,108.7 128.7,108.7 128.7,116.7 77.3,116.7 77.3,124 41,124 41,133 151,133 151,142.3 73.3,142.3 73.3,151 110,151 
		110,160 160,160 	"/>
</g>
<g id="green">
	<polygon fill="#009944" points="160,160 160,88 152,88 152,127 144.3,127 144.3,111 137,111 137,61.3 128,61.3 128,99 120,99 
		120,138.7 111.7,138.7 111.7,87 102.3,87 102.3,155.7 94.3,155.7 94.3,140.7 85.7,140.7 85.7,64.7 77.7,64.7 77.7,123 68.7,123 
		68.7,142.3 59.7,142.3 59.7,52 51.3,52 51.3,128.7 43.3,128.7 43.3,102.3 36,102.3 36,74 27,74 27,151 17.7,151 17.7,98.3 9,98.3 
		9,127 0,127 0,160 	"/>
</g>
</svg>
