<?xml version="1.0" encoding="utf-8"?>
<!-- Generator: Adobe Illustrator 18.1.1, SVG Export Plug-In . SVG Version: 6.00 Build 0)  -->
<svg version="1.1" xmlns="http://www.w3.org/2000/svg" xmlns:xlink="http://www.w3.org/1999/xlink" x="0px" y="0px"
	 viewBox="0 0 160 160" enable-background="new 0 0 160 160" xml:space="preserve">
<g id="sky">
	<rect fill="#7ECEF4" width="160" height="160"/>
</g>
<g id="cloud">
	<path fill="#FFFFFF" d="M31.3,14c0,0-7-3.7-12.3,4c0,0-10.3,2.3-10,6.3s1.7,3.3,4.3,4.3s-0.3,2.7,11,3.7s11-2,15.7-2
		c0,0,1.7,2.3,9.7,2.3s11-5.3,11-5.3s4.3,1,6.3-4.3s-4.7-7-4.7-7s-0.7-3.3-5.3-4.7C52.3,10,46,12,46,12s-5-3.7-8.7-2.7
		S31.3,14,31.3,14z"/>
	<path fill="#FFFFFF" d="M107.3,90c6,0,13.3,5.3,13.3,5.3s4.3-4.7,7.3-4.7c3,0,10,6,10,6s3.3-2.7,9,1.3c5.7,4,4,7.3,4,7.3
		s3.3,2.7,2.7,5c-0.7,2.3-7,7-7,7s-3.3,3.7-9,2.3c-5.7-1.3-13.3-5.3-13.3-5.3s-3,3.3-8.3,2.3s-8-4-8-4s-9.7-2.3-8.7-7.3s5.7-6,5.7-6
		s-5-7.3-1.3-8.3S107.3,90,107.3,90z"/>
</g>
<g id="lip">
	<path fill="#E4007F" stroke="#E4007F" d="M15,66.3c-3.2-0.7-3.8-2.7-1.3-5.7c1-1.2,19.3-3.3,43.8-13.6c6.8-2.9,13-4.5,18.6-4.5
		c5.6,0,6.1,1.6,9.7,1.6c4.6,0,5.8-2.6,9.7-2.6c3.8,0,8.5,1.4,17.2,4.5c11.2,3.9,12.1,6.9,32.5,9.1c1.8,0.2,4,0.9,4,2.4
		c0,1.2-0.3,3.8-4.1,4.3c-2,0.2-32.1,12.3-40.2,16.1c-3.6,1.7-7.1,5.9-18.7,6.2C73.2,84.4,63.6,76.6,15,66.3z"/>
	<path fill="none" stroke="#970053" d="M14.1,63.4c0,0,29.9,2,68.5,0c0,0,4,1.2,5.9,0c0,0,6.7-2.4,58.6-5.2"/>
	<polygon fill="#009944" points="0,160 0,143.7 41,132.7 58.3,138 96.7,128.3 112.3,135.3 133,129.7 160,136.7 160,160 	"/>
</g>
</svg>
