<?xml version="1.0" encoding="utf-8"?>
<!-- Generator: Adobe Illustrator 18.1.1, SVG Export Plug-In . SVG Version: 6.00 Build 0)  -->
<svg version="1.1" xmlns="http://www.w3.org/2000/svg" xmlns:xlink="http://www.w3.org/1999/xlink" x="0px" y="0px"
	 viewBox="0 0 160 160" enable-background="new 0 0 160 160" xml:space="preserve">
<g id="bg">
	<rect x="0.2" width="160" height="160"/>
</g>
<g id="sky">
	<circle fill="#00A0E9" cx="80.2" cy="80" r="71.2"/>
</g>
<g id="tree">
	<polyline fill="none" stroke="#000000" stroke-width="0.25" points="81.9,65.2 81.9,68.1 81,68.7 	"/>
	<line fill="none" stroke="#000000" stroke-width="0.25" x1="81.9" y1="68.1" x2="82.7" y2="69"/>
	<path stroke="#000000" stroke-width="0.25" d="M78.6,61.5c0.8,0.8-0.4,2.2,0.8,3.4c1.2,1.2,2.7,0.4,4.2,1.2c1,0.5,1.1,1.1,1.1,1.1
		l1.9-1.9c0,0-1.4,0.3-1.9-0.7c-0.7-1.2-0.6-2.2-1.9-3.5c-1.3-1.3-2.3-0.2-2.9-0.8c-0.6-0.6-0.3-2.3-1.2-3.2
		c-0.9-0.9-1.4-0.5-2.1,0.2l-0.3,0.3l-0.8,0.8l1.4-0.3c0,0,0,0.6,0.6,0.6s0.6,0.8,0.6,1S78.6,61.5,78.6,61.5z"/>
	<path d="M112.9,79.6l21-6.7l6.8-0.5l-11.5,3.5l-8.5,4.5l-3.5,3.5l0.2,0.2c0,0-2.3,9.7,2.3,18s17.2,21,17.2,21s-3.2,6.3-9.4,10.2
		c0,0-17-28-19.5-30.5s0-14.3,0-14.3l-5.3-12l-19-5L81,68.7l20,3.3l-3.8-21.2l2.2,2.2l5.2,18.2l8,8L112.9,79.6z"/>
</g>
<g id="rain" display="none">
	<polygon display="inline" fill="#009944" points="82.4,8.8 82.4,151.2 87.4,150.8 87.4,9.2 	"/>
	<polygon display="inline" fill="#009944" points="92.4,9.9 92.4,150.1 96.4,149.3 96.4,10.7 	"/>
	<polygon display="inline" fill="#009944" points="102.4,12.4 102.4,147.6 105.4,146.6 105.4,13.4 	"/>
	<polygon display="inline" fill="#009944" points="112.4,16.5 112.4,143.5 114.4,142.4 114.4,17.6 	"/>
	<polygon display="inline" fill="#009944" points="122.4,22.7 122.4,137.3 123.4,136.6 123.4,23.4 	"/>
	<polygon display="inline" fill="#009944" points="132,31.2 132,128.8 132.7,128 132.7,32 	"/>
	<polygon display="inline" fill="#009944" points="141.6,44 141.6,116 142.1,115.1 142.1,44.9 	"/>
	<polygon display="inline" fill="#009944" points="77.9,151.2 77.9,8.9 72.9,9.2 72.9,150.8 	"/>
	<polygon display="inline" fill="#009944" points="67.9,150.2 67.9,9.9 63.9,10.7 63.9,149.3 	"/>
	<polygon display="inline" fill="#009944" points="57.9,147.7 57.9,12.4 54.9,13.5 54.9,146.6 	"/>
	<polygon display="inline" fill="#009944" points="47.9,143.5 47.9,16.6 45.9,17.6 45.9,142.5 	"/>
	<polygon display="inline" fill="#009944" points="37.9,137.3 37.9,22.7 36.9,23.5 36.9,136.6 	"/>
	<polygon display="inline" fill="#009944" points="28.3,128.8 28.3,31.3 27.6,32.1 27.6,128 	"/>
	<polygon display="inline" fill="#009944" points="18.7,116 18.7,44.1 18.2,45 18.2,115.1 	"/>
</g>
<g id="moon">
	<path fill="#FFF100" d="M60.7,28c3.1,3.4,3,8.7-0.4,11.8c-3.4,3.1-8.7,3-11.8-0.4c0,0,3.9,2.4,9.1-2.5C62.7,32.1,60.7,28,60.7,28z"
		/>
</g>
</svg>
