<?xml version="1.0" encoding="utf-8"?>
<!-- Generator: Adobe Illustrator 18.1.1, SVG Export Plug-In . SVG Version: 6.00 Build 0)  -->
<svg version="1.1" xmlns="http://www.w3.org/2000/svg" xmlns:xlink="http://www.w3.org/1999/xlink" x="0px" y="0px"
	 viewBox="0 0 160 160" enable-background="new 0 0 160 160" xml:space="preserve">
<g id="bg">
	<rect fill="#FFFFFF" width="160" height="160"/>
</g>
<g id="who">
	<path stroke="#000000" stroke-width="1.3142" d="M43.8,27.6c0,0,2.2-8.5,9.2-7.9c4.8,0.4,6.1,7.9,6.1,7.9s0.4,3.1-1.3,7.4
		c0,0,6.1,28,8.8,33.3c2.6,5.3,19.3,11,32.4,19.7c8,5.3,10.1,9.2,14.9,16.6c2,3,23.7,6.1,29.8,6.1l-6.6,11
		c-5.7-0.4-14.5-3.1-18.4-3.1c-3.9,0-21.9,7-21.9,7s-2.6,1.8-1.3,2.2c1.3,0.4,17.1,4.4,18.8,6.6c1.8,2.2-17.5,7.4-22.3,5.7
		c-4.8-1.8-16.6-9.3-20.6-10.2c0,0-6.1,2-18.3-2c0,0-23.7,8.3-28.1,7.4c-4.4-0.9-9.2-7.4-9.2-7.4s-0.9-3.1,3.5-2.6
		c4.4,0.4,22.2-0.4,24.8-2.6c0,0-3.3-16.8-2-23.2c1.8-8.8,3.5-11.4,5.3-16.6c1.8-5.3,3.9-15.3,4.4-21c0.4-5.7-3.5-25-3.5-25
		s-5.7,1.3-7-0.9C39.2,32.5,40.7,27.6,43.8,27.6z"/>
</g>
</svg>
