<?xml version="1.0" encoding="utf-8"?>
<!-- Generator: Adobe Illustrator 18.1.1, SVG Export Plug-In . SVG Version: 6.00 Build 0)  -->
<svg version="1.1" xmlns="http://www.w3.org/2000/svg" xmlns:xlink="http://www.w3.org/1999/xlink" x="0px" y="0px"
	 viewBox="0 0 160 160" enable-background="new 0 0 160 160" xml:space="preserve">
<g id="bg">
	<rect fill="#FFFFFF" width="160" height="160"/>
</g>
<g id="pencils">
	<g>
		<g>
			<linearGradient id="SVGID_1_" gradientUnits="userSpaceOnUse" x1="11.9991" y1="10.4658" x2="11.9991" y2="2.2607">
				<stop  offset="0" style="stop-color:#EAB84F"/>
				<stop  offset="0.3331" style="stop-color:#EAB951"/>
				<stop  offset="0.4838" style="stop-color:#EBBC58"/>
				<stop  offset="0.5978" style="stop-color:#EDC165"/>
				<stop  offset="0.6933" style="stop-color:#EFC877"/>
				<stop  offset="0.7772" style="stop-color:#F2D28F"/>
				<stop  offset="0.853" style="stop-color:#F5DDAC"/>
				<stop  offset="0.9227" style="stop-color:#F9EBCE"/>
				<stop  offset="0.9858" style="stop-color:#FEFBF5"/>
				<stop  offset="1" style="stop-color:#FFFFFF"/>
			</linearGradient>
			<polygon fill="url(#SVGID_1_)" stroke="#000000" stroke-width="0.5" points="22.4,10.5 1.6,6.4 22.4,2.3 			"/>
			<path fill="#009944" stroke="#000000" stroke-width="0.5" d="M156.7,4.1H22.4c0,0-1.6-0.3-2-0.6c-0.4-0.2,2-1.5,2-1.5h134.3"/>
			<path fill="#008647" stroke="#000000" stroke-width="0.5" d="M156.7,8.5H22.4c0,0-0.8-1.2-1.2-1.5c-0.4-0.2-0.8-0.4-1-1
				c-0.2-0.6,1.6-1.9,1.6-1.9h135"/>
			<path fill="#00663D" stroke="#000000" stroke-width="0.5" d="M156.5,10.5H22.3c0,0-0.9-0.7-1.6-1.3c0,0,0.6-0.7,1.4-0.7
				s134.4,0,134.4,0"/>
			<path fill="#009944" stroke="#000000" stroke-width="0.5" d="M156.7,2.1v8.3c0,0-0.1,0.1,0.3,0.1s1.4-2.4,1.4-4.3
				S157.6,2,157.1,2S156.7,2.1,156.7,2.1z"/>
			<polygon stroke="#000000" stroke-width="0.5" points="6.9,5.5 6.7,7.3 2.1,6.4 			"/>
		</g>
		<g>
			<linearGradient id="SVGID_2_" gradientUnits="userSpaceOnUse" x1="11.9991" y1="20.9912" x2="11.9991" y2="12.7861">
				<stop  offset="0" style="stop-color:#EAB84F"/>
				<stop  offset="0.3331" style="stop-color:#EAB951"/>
				<stop  offset="0.4838" style="stop-color:#EBBC58"/>
				<stop  offset="0.5978" style="stop-color:#EDC165"/>
				<stop  offset="0.6933" style="stop-color:#EFC877"/>
				<stop  offset="0.7772" style="stop-color:#F2D28F"/>
				<stop  offset="0.853" style="stop-color:#F5DDAC"/>
				<stop  offset="0.9227" style="stop-color:#F9EBCE"/>
				<stop  offset="0.9858" style="stop-color:#FEFBF5"/>
				<stop  offset="1" style="stop-color:#FFFFFF"/>
			</linearGradient>
			<polygon fill="url(#SVGID_2_)" stroke="#000000" stroke-width="0.5" points="22.4,21 1.6,16.9 22.4,12.8 			"/>
			<path fill="#009944" stroke="#000000" stroke-width="0.5" d="M156.7,14.7H22.4c0,0-1.6-0.3-2-0.6c-0.4-0.2,2-1.5,2-1.5h134.3"/>
			<path fill="#008647" stroke="#000000" stroke-width="0.5" d="M156.7,19H22.4c0,0-0.8-1.2-1.2-1.5c-0.4-0.2-0.8-0.4-1-1
				c-0.2-0.6,1.6-1.9,1.6-1.9h135"/>
			<path fill="#00663D" stroke="#000000" stroke-width="0.5" d="M156.5,21H22.3c0,0-0.9-0.7-1.6-1.3c0,0,0.6-0.7,1.4-0.7
				s134.4,0,134.4,0"/>
			<path fill="#009944" stroke="#000000" stroke-width="0.5" d="M156.7,12.7V21c0,0-0.1,0.1,0.3,0.1s1.4-2.4,1.4-4.3
				s-0.8-4.3-1.3-4.3S156.7,12.7,156.7,12.7z"/>
			<polygon stroke="#000000" stroke-width="0.5" points="6.9,16 6.7,17.8 2.1,16.9 			"/>
		</g>
		<g>
			<linearGradient id="SVGID_3_" gradientUnits="userSpaceOnUse" x1="11.9991" y1="31.5166" x2="11.9991" y2="23.3115">
				<stop  offset="0" style="stop-color:#EAB84F"/>
				<stop  offset="0.3331" style="stop-color:#EAB951"/>
				<stop  offset="0.4838" style="stop-color:#EBBC58"/>
				<stop  offset="0.5978" style="stop-color:#EDC165"/>
				<stop  offset="0.6933" style="stop-color:#EFC877"/>
				<stop  offset="0.7772" style="stop-color:#F2D28F"/>
				<stop  offset="0.853" style="stop-color:#F5DDAC"/>
				<stop  offset="0.9227" style="stop-color:#F9EBCE"/>
				<stop  offset="0.9858" style="stop-color:#FEFBF5"/>
				<stop  offset="1" style="stop-color:#FFFFFF"/>
			</linearGradient>
			<polygon fill="url(#SVGID_3_)" stroke="#000000" stroke-width="0.5" points="22.4,31.5 1.6,27.4 22.4,23.3 			"/>
			<path fill="#009944" stroke="#000000" stroke-width="0.5" d="M156.7,25.2H22.4c0,0-1.6-0.3-2-0.6c-0.4-0.2,2-1.5,2-1.5h134.3"/>
			<path fill="#008647" stroke="#000000" stroke-width="0.5" d="M156.7,29.6H22.4c0,0-0.8-1.2-1.2-1.5c-0.4-0.2-0.8-0.4-1-1
				c-0.2-0.6,1.6-1.9,1.6-1.9h135"/>
			<path fill="#00663D" stroke="#000000" stroke-width="0.5" d="M156.5,31.5H22.3c0,0-0.9-0.7-1.6-1.3c0,0,0.6-0.7,1.4-0.7
				s134.4,0,134.4,0"/>
			<path fill="#009944" stroke="#000000" stroke-width="0.5" d="M156.7,23.2v8.3c0,0-0.1,0.1,0.3,0.1s1.4-2.4,1.4-4.3
				s-0.8-4.2-1.3-4.2S156.7,23.2,156.7,23.2z"/>
			<polygon stroke="#000000" stroke-width="0.5" points="6.9,26.6 6.7,28.3 2.1,27.4 			"/>
		</g>
		<g>
			<linearGradient id="SVGID_4_" gradientUnits="userSpaceOnUse" x1="11.9991" y1="42.042" x2="11.9991" y2="33.8369">
				<stop  offset="0" style="stop-color:#EAB84F"/>
				<stop  offset="0.3331" style="stop-color:#EAB951"/>
				<stop  offset="0.4838" style="stop-color:#EBBC58"/>
				<stop  offset="0.5978" style="stop-color:#EDC165"/>
				<stop  offset="0.6933" style="stop-color:#EFC877"/>
				<stop  offset="0.7772" style="stop-color:#F2D28F"/>
				<stop  offset="0.853" style="stop-color:#F5DDAC"/>
				<stop  offset="0.9227" style="stop-color:#F9EBCE"/>
				<stop  offset="0.9858" style="stop-color:#FEFBF5"/>
				<stop  offset="1" style="stop-color:#FFFFFF"/>
			</linearGradient>
			<polygon fill="url(#SVGID_4_)" stroke="#000000" stroke-width="0.5" points="22.4,42 1.6,37.9 22.4,33.8 			"/>
			<path fill="#009944" stroke="#000000" stroke-width="0.5" d="M156.7,35.7H22.4c0,0-1.6-0.3-2-0.6c-0.4-0.2,2-1.5,2-1.5h134.3"/>
			<path fill="#008647" stroke="#000000" stroke-width="0.5" d="M156.7,40.1H22.4c0,0-0.8-1.2-1.2-1.5c-0.4-0.2-0.8-0.4-1-1
				c-0.2-0.6,1.6-1.9,1.6-1.9h135"/>
			<path fill="#00663D" stroke="#000000" stroke-width="0.5" d="M156.5,42H22.3c0,0-0.9-0.7-1.6-1.3c0,0,0.6-0.7,1.4-0.7
				s134.4,0,134.4,0"/>
			<path fill="#009944" stroke="#000000" stroke-width="0.5" d="M156.7,33.7V42c0,0-0.1,0.1,0.3,0.1s1.4-2.4,1.4-4.3
				s-0.8-4.2-1.3-4.2S156.7,33.7,156.7,33.7z"/>
			<polygon stroke="#000000" stroke-width="0.5" points="6.9,37.1 6.7,38.8 2.1,38 			"/>
		</g>
		<g>
			<linearGradient id="SVGID_5_" gradientUnits="userSpaceOnUse" x1="11.9991" y1="52.5674" x2="11.9991" y2="44.3623">
				<stop  offset="0" style="stop-color:#EAB84F"/>
				<stop  offset="0.3331" style="stop-color:#EAB951"/>
				<stop  offset="0.4838" style="stop-color:#EBBC58"/>
				<stop  offset="0.5978" style="stop-color:#EDC165"/>
				<stop  offset="0.6933" style="stop-color:#EFC877"/>
				<stop  offset="0.7772" style="stop-color:#F2D28F"/>
				<stop  offset="0.853" style="stop-color:#F5DDAC"/>
				<stop  offset="0.9227" style="stop-color:#F9EBCE"/>
				<stop  offset="0.9858" style="stop-color:#FEFBF5"/>
				<stop  offset="1" style="stop-color:#FFFFFF"/>
			</linearGradient>
			<polygon fill="url(#SVGID_5_)" stroke="#000000" stroke-width="0.5" points="22.4,52.6 1.6,48.5 22.4,44.4 			"/>
			<path fill="#009944" stroke="#000000" stroke-width="0.5" d="M156.7,46.2H22.4c0,0-1.6-0.3-2-0.6c-0.4-0.2,2-1.5,2-1.5h134.3"/>
			<path fill="#008647" stroke="#000000" stroke-width="0.5" d="M156.7,50.6H22.4c0,0-0.8-1.2-1.2-1.5c-0.4-0.2-0.8-0.4-1-1
				c-0.2-0.6,1.6-1.9,1.6-1.9h135"/>
			<path fill="#00663D" stroke="#000000" stroke-width="0.5" d="M156.5,52.6H22.3c0,0-0.9-0.7-1.6-1.3c0,0,0.6-0.7,1.4-0.7
				s134.4,0,134.4,0"/>
			<path fill="#009944" stroke="#000000" stroke-width="0.5" d="M156.7,44.2v8.3c0,0-0.1,0.1,0.3,0.1s1.4-2.4,1.4-4.3
				s-0.8-4.2-1.3-4.2S156.7,44.2,156.7,44.2z"/>
			<polygon stroke="#000000" stroke-width="0.5" points="6.9,47.6 6.7,49.4 2.1,48.5 			"/>
		</g>
		<g>
			<linearGradient id="SVGID_6_" gradientUnits="userSpaceOnUse" x1="11.9991" y1="63.0928" x2="11.9991" y2="54.8877">
				<stop  offset="0" style="stop-color:#EAB84F"/>
				<stop  offset="0.3331" style="stop-color:#EAB951"/>
				<stop  offset="0.4838" style="stop-color:#EBBC58"/>
				<stop  offset="0.5978" style="stop-color:#EDC165"/>
				<stop  offset="0.6933" style="stop-color:#EFC877"/>
				<stop  offset="0.7772" style="stop-color:#F2D28F"/>
				<stop  offset="0.853" style="stop-color:#F5DDAC"/>
				<stop  offset="0.9227" style="stop-color:#F9EBCE"/>
				<stop  offset="0.9858" style="stop-color:#FEFBF5"/>
				<stop  offset="1" style="stop-color:#FFFFFF"/>
			</linearGradient>
			<polygon fill="url(#SVGID_6_)" stroke="#000000" stroke-width="0.5" points="22.4,63.1 1.6,59 22.4,54.9 			"/>
			<path fill="#009944" stroke="#000000" stroke-width="0.5" d="M156.7,56.8H22.4c0,0-1.6-0.3-2-0.6c-0.4-0.2,2-1.5,2-1.5h134.3"/>
			<path fill="#008647" stroke="#000000" stroke-width="0.5" d="M156.7,61.1H22.4c0,0-0.8-1.2-1.2-1.5c-0.4-0.2-0.8-0.4-1-1
				c-0.2-0.6,1.6-1.9,1.6-1.9h135"/>
			<path fill="#00663D" stroke="#000000" stroke-width="0.5" d="M156.5,63.1H22.3c0,0-0.9-0.7-1.6-1.3c0,0,0.6-0.7,1.4-0.7
				s134.4,0,134.4,0"/>
			<path fill="#009944" stroke="#000000" stroke-width="0.5" d="M156.7,54.8v8.3c0,0-0.1,0.1,0.3,0.1s1.4-2.4,1.4-4.3
				c0-1.9-0.8-4.2-1.3-4.2S156.7,54.8,156.7,54.8z"/>
			<polygon stroke="#000000" stroke-width="0.5" points="6.9,58.1 6.7,59.9 2.1,59 			"/>
		</g>
		<g>
			<linearGradient id="SVGID_7_" gradientUnits="userSpaceOnUse" x1="11.9991" y1="73.6182" x2="11.9991" y2="65.4131">
				<stop  offset="0" style="stop-color:#EAB84F"/>
				<stop  offset="0.3331" style="stop-color:#EAB951"/>
				<stop  offset="0.4838" style="stop-color:#EBBC58"/>
				<stop  offset="0.5978" style="stop-color:#EDC165"/>
				<stop  offset="0.6933" style="stop-color:#EFC877"/>
				<stop  offset="0.7772" style="stop-color:#F2D28F"/>
				<stop  offset="0.853" style="stop-color:#F5DDAC"/>
				<stop  offset="0.9227" style="stop-color:#F9EBCE"/>
				<stop  offset="0.9858" style="stop-color:#FEFBF5"/>
				<stop  offset="1" style="stop-color:#FFFFFF"/>
			</linearGradient>
			<polygon fill="url(#SVGID_7_)" stroke="#000000" stroke-width="0.5" points="22.4,73.6 1.6,69.5 22.4,65.4 			"/>
			<path fill="#009944" stroke="#000000" stroke-width="0.5" d="M156.7,67.3H22.4c0,0-1.6-0.3-2-0.6c-0.4-0.2,2-1.5,2-1.5h134.3"/>
			<path fill="#008647" stroke="#000000" stroke-width="0.5" d="M156.7,71.7H22.4c0,0-0.8-1.2-1.2-1.5c-0.4-0.2-0.8-0.4-1-1
				c-0.2-0.6,1.6-1.9,1.6-1.9h135"/>
			<path fill="#00663D" stroke="#000000" stroke-width="0.5" d="M156.5,73.6H22.3c0,0-0.9-0.7-1.6-1.3c0,0,0.6-0.7,1.4-0.7
				s134.4,0,134.4,0"/>
			<path fill="#009944" stroke="#000000" stroke-width="0.5" d="M156.7,65.3v8.3c0,0-0.1,0.1,0.3,0.1s1.4-2.4,1.4-4.3
				s-0.8-4.2-1.3-4.2S156.7,65.3,156.7,65.3z"/>
			<polygon stroke="#000000" stroke-width="0.5" points="6.9,68.7 6.7,70.4 2.1,69.5 			"/>
		</g>
		<g>
			<linearGradient id="SVGID_8_" gradientUnits="userSpaceOnUse" x1="11.9991" y1="84.1436" x2="11.9991" y2="75.9385">
				<stop  offset="0" style="stop-color:#EAB84F"/>
				<stop  offset="0.3331" style="stop-color:#EAB951"/>
				<stop  offset="0.4838" style="stop-color:#EBBC58"/>
				<stop  offset="0.5978" style="stop-color:#EDC165"/>
				<stop  offset="0.6933" style="stop-color:#EFC877"/>
				<stop  offset="0.7772" style="stop-color:#F2D28F"/>
				<stop  offset="0.853" style="stop-color:#F5DDAC"/>
				<stop  offset="0.9227" style="stop-color:#F9EBCE"/>
				<stop  offset="0.9858" style="stop-color:#FEFBF5"/>
				<stop  offset="1" style="stop-color:#FFFFFF"/>
			</linearGradient>
			<polygon fill="url(#SVGID_8_)" stroke="#000000" stroke-width="0.5" points="22.4,84.1 1.6,80 22.4,75.9 			"/>
			<path fill="#009944" stroke="#000000" stroke-width="0.5" d="M156.7,77.8H22.4c0,0-1.6-0.3-2-0.6c-0.4-0.2,2-1.5,2-1.5h134.3"/>
			<path fill="#008647" stroke="#000000" stroke-width="0.5" d="M156.7,82.2H22.4c0,0-0.8-1.2-1.2-1.5c-0.4-0.2-0.8-0.4-1-1
				c-0.2-0.6,1.6-1.9,1.6-1.9h135"/>
			<path fill="#00663D" stroke="#000000" stroke-width="0.5" d="M156.5,84.1H22.3c0,0-0.9-0.7-1.6-1.3c0,0,0.6-0.7,1.4-0.7
				s134.4,0,134.4,0"/>
			<path fill="#009944" stroke="#000000" stroke-width="0.5" d="M156.7,75.8v8.3c0,0-0.1,0.1,0.3,0.1s1.4-2.4,1.4-4.3
				s-0.8-4.2-1.3-4.2S156.7,75.8,156.7,75.8z"/>
			<polygon stroke="#000000" stroke-width="0.5" points="6.9,79.2 6.7,80.9 2.1,80.1 			"/>
		</g>
		<g>
			<linearGradient id="SVGID_9_" gradientUnits="userSpaceOnUse" x1="11.9991" y1="94.6689" x2="11.9991" y2="86.4639">
				<stop  offset="0" style="stop-color:#EAB84F"/>
				<stop  offset="0.3331" style="stop-color:#EAB951"/>
				<stop  offset="0.4838" style="stop-color:#EBBC58"/>
				<stop  offset="0.5978" style="stop-color:#EDC165"/>
				<stop  offset="0.6933" style="stop-color:#EFC877"/>
				<stop  offset="0.7772" style="stop-color:#F2D28F"/>
				<stop  offset="0.853" style="stop-color:#F5DDAC"/>
				<stop  offset="0.9227" style="stop-color:#F9EBCE"/>
				<stop  offset="0.9858" style="stop-color:#FEFBF5"/>
				<stop  offset="1" style="stop-color:#FFFFFF"/>
			</linearGradient>
			<polygon fill="url(#SVGID_9_)" stroke="#000000" stroke-width="0.5" points="22.4,94.7 1.6,90.6 22.4,86.5 			"/>
			<path fill="#009944" stroke="#000000" stroke-width="0.5" d="M156.7,88.3H22.4c0,0-1.6-0.3-2-0.6c-0.4-0.2,2-1.5,2-1.5h134.3"/>
			<path fill="#008647" stroke="#000000" stroke-width="0.5" d="M156.7,92.7H22.4c0,0-0.8-1.2-1.2-1.5c-0.4-0.2-0.8-0.4-1-1
				c-0.2-0.6,1.6-1.9,1.6-1.9h135"/>
			<path fill="#00663D" stroke="#000000" stroke-width="0.5" d="M156.5,94.7H22.3c0,0-0.9-0.7-1.6-1.3c0,0,0.6-0.7,1.4-0.7
				s134.4,0,134.4,0"/>
			<path fill="#009944" stroke="#000000" stroke-width="0.5" d="M156.7,86.3v8.3c0,0-0.1,0.1,0.3,0.1s1.4-2.4,1.4-4.3
				s-0.8-4.2-1.3-4.2S156.7,86.3,156.7,86.3z"/>
			<polygon stroke="#000000" stroke-width="0.5" points="6.9,89.7 6.7,91.5 2.1,90.6 			"/>
		</g>
		<g>
			
				<linearGradient id="SVGID_10_" gradientUnits="userSpaceOnUse" x1="13.1011" y1="105.1943" x2="13.1011" y2="96.9893" gradientTransform="matrix(-1 0 0 1 161.1016 0)">
				<stop  offset="0" style="stop-color:#EAB84F"/>
				<stop  offset="0.3331" style="stop-color:#EAB951"/>
				<stop  offset="0.4838" style="stop-color:#EBBC58"/>
				<stop  offset="0.5978" style="stop-color:#EDC165"/>
				<stop  offset="0.6933" style="stop-color:#EFC877"/>
				<stop  offset="0.7772" style="stop-color:#F2D28F"/>
				<stop  offset="0.853" style="stop-color:#F5DDAC"/>
				<stop  offset="0.9227" style="stop-color:#F9EBCE"/>
				<stop  offset="0.9858" style="stop-color:#FEFBF5"/>
				<stop  offset="1" style="stop-color:#FFFFFF"/>
			</linearGradient>
			<polygon fill="url(#SVGID_10_)" stroke="#000000" stroke-width="0.5" points="137.6,105.2 158.4,101.1 137.6,97 			"/>
			<path fill="#009944" stroke="#000000" stroke-width="0.5" d="M3.3,98.9h134.3c0,0,1.6-0.3,2-0.6c0.4-0.2-2-1.5-2-1.5H3.3"/>
			<path fill="#008647" stroke="#000000" stroke-width="0.5" d="M3.3,103.2h134.3c0,0,0.8-1.2,1.2-1.5c0.4-0.2,0.8-0.4,1-1
				c0.2-0.6-1.6-1.9-1.6-1.9H3.3"/>
			<path fill="#00663D" stroke="#000000" stroke-width="0.5" d="M3.5,105.2h134.3c0,0,0.9-0.7,1.6-1.3c0,0-0.6-0.7-1.4-0.7
				c-0.8,0-134.4,0-134.4,0"/>
			<path fill="#009944" stroke="#000000" stroke-width="0.5" d="M3.3,96.9v8.3c0,0,0.1,0.1-0.3,0.1s-1.4-2.4-1.4-4.3
				s0.8-4.2,1.3-4.2S3.3,96.9,3.3,96.9z"/>
			<polygon stroke="#000000" stroke-width="0.5" points="153.1,100.2 153.3,102 157.9,101.1 			"/>
		</g>
		<g>
			<linearGradient id="SVGID_11_" gradientUnits="userSpaceOnUse" x1="11.9991" y1="115.7197" x2="11.9991" y2="107.5146">
				<stop  offset="0" style="stop-color:#EAB84F"/>
				<stop  offset="0.3331" style="stop-color:#EAB951"/>
				<stop  offset="0.4838" style="stop-color:#EBBC58"/>
				<stop  offset="0.5978" style="stop-color:#EDC165"/>
				<stop  offset="0.6933" style="stop-color:#EFC877"/>
				<stop  offset="0.7772" style="stop-color:#F2D28F"/>
				<stop  offset="0.853" style="stop-color:#F5DDAC"/>
				<stop  offset="0.9227" style="stop-color:#F9EBCE"/>
				<stop  offset="0.9858" style="stop-color:#FEFBF5"/>
				<stop  offset="1" style="stop-color:#FFFFFF"/>
			</linearGradient>
			<polygon fill="url(#SVGID_11_)" stroke="#000000" stroke-width="0.5" points="22.4,115.7 1.6,111.6 22.4,107.5 			"/>
			<path fill="#009944" stroke="#000000" stroke-width="0.5" d="M156.7,109.4H22.4c0,0-1.6-0.3-2-0.6c-0.4-0.2,2-1.5,2-1.5h134.3"/>
			<path fill="#008647" stroke="#000000" stroke-width="0.5" d="M156.7,113.8H22.4c0,0-0.8-1.2-1.2-1.5c-0.4-0.2-0.8-0.4-1-1
				c-0.2-0.6,1.6-1.9,1.6-1.9h135"/>
			<path fill="#00663D" stroke="#000000" stroke-width="0.5" d="M156.5,115.7H22.3c0,0-0.9-0.7-1.6-1.3c0,0,0.6-0.7,1.4-0.7
				s134.4,0,134.4,0"/>
			<path fill="#009944" stroke="#000000" stroke-width="0.5" d="M156.7,107.4v8.3c0,0-0.1,0.1,0.3,0.1s1.4-2.4,1.4-4.3
				s-0.8-4.2-1.3-4.2S156.7,107.4,156.7,107.4z"/>
			<polygon stroke="#000000" stroke-width="0.5" points="6.9,110.8 6.7,112.5 2.1,111.6 			"/>
		</g>
		<g>
			<linearGradient id="SVGID_12_" gradientUnits="userSpaceOnUse" x1="11.9991" y1="126.2451" x2="11.9991" y2="118.04">
				<stop  offset="0" style="stop-color:#EAB84F"/>
				<stop  offset="0.3331" style="stop-color:#EAB951"/>
				<stop  offset="0.4838" style="stop-color:#EBBC58"/>
				<stop  offset="0.5978" style="stop-color:#EDC165"/>
				<stop  offset="0.6933" style="stop-color:#EFC877"/>
				<stop  offset="0.7772" style="stop-color:#F2D28F"/>
				<stop  offset="0.853" style="stop-color:#F5DDAC"/>
				<stop  offset="0.9227" style="stop-color:#F9EBCE"/>
				<stop  offset="0.9858" style="stop-color:#FEFBF5"/>
				<stop  offset="1" style="stop-color:#FFFFFF"/>
			</linearGradient>
			<polygon fill="url(#SVGID_12_)" stroke="#000000" stroke-width="0.5" points="22.4,126.2 1.6,122.1 22.4,118 			"/>
			<path fill="#009944" stroke="#000000" stroke-width="0.5" d="M156.7,119.9H22.4c0,0-1.6-0.3-2-0.6c-0.4-0.2,2-1.5,2-1.5h134.3"/>
			<path fill="#008647" stroke="#000000" stroke-width="0.5" d="M156.7,124.3H22.4c0,0-0.8-1.2-1.2-1.5c-0.4-0.2-0.8-0.4-1-1
				c-0.2-0.6,1.6-1.9,1.6-1.9h135"/>
			<path fill="#00663D" stroke="#000000" stroke-width="0.5" d="M156.5,126.2H22.3c0,0-0.9-0.7-1.6-1.3c0,0,0.6-0.7,1.4-0.7
				s134.4,0,134.4,0"/>
			<path fill="#009944" stroke="#000000" stroke-width="0.5" d="M156.7,117.9v8.3c0,0-0.1,0.1,0.3,0.1s1.4-2.4,1.4-4.3
				s-0.8-4.2-1.3-4.2S156.7,117.9,156.7,117.9z"/>
			<polygon stroke="#000000" stroke-width="0.5" points="6.9,121.3 6.7,123 2.1,122.2 			"/>
		</g>
		<g>
			<linearGradient id="SVGID_13_" gradientUnits="userSpaceOnUse" x1="11.9991" y1="136.7705" x2="11.9991" y2="128.5654">
				<stop  offset="0" style="stop-color:#EAB84F"/>
				<stop  offset="0.3331" style="stop-color:#EAB951"/>
				<stop  offset="0.4838" style="stop-color:#EBBC58"/>
				<stop  offset="0.5978" style="stop-color:#EDC165"/>
				<stop  offset="0.6933" style="stop-color:#EFC877"/>
				<stop  offset="0.7772" style="stop-color:#F2D28F"/>
				<stop  offset="0.853" style="stop-color:#F5DDAC"/>
				<stop  offset="0.9227" style="stop-color:#F9EBCE"/>
				<stop  offset="0.9858" style="stop-color:#FEFBF5"/>
				<stop  offset="1" style="stop-color:#FFFFFF"/>
			</linearGradient>
			<polygon fill="url(#SVGID_13_)" stroke="#000000" stroke-width="0.5" points="22.4,136.8 1.6,132.7 22.4,128.6 			"/>
			<path fill="#009944" stroke="#000000" stroke-width="0.5" d="M156.7,130.4H22.4c0,0-1.6-0.3-2-0.6c-0.4-0.2,2-1.5,2-1.5h134.3"/>
			<path fill="#008647" stroke="#000000" stroke-width="0.5" d="M156.7,134.8H22.4c0,0-0.8-1.2-1.2-1.5c-0.4-0.2-0.8-0.4-1-1
				c-0.2-0.6,1.6-1.9,1.6-1.9h135"/>
			<path fill="#00663D" stroke="#000000" stroke-width="0.5" d="M156.5,136.8H22.3c0,0-0.9-0.7-1.6-1.3c0,0,0.6-0.7,1.4-0.7
				s134.4,0,134.4,0"/>
			<path fill="#009944" stroke="#000000" stroke-width="0.5" d="M156.7,128.4v8.3c0,0-0.1,0.1,0.3,0.1s1.4-2.4,1.4-4.3
				s-0.8-4.2-1.3-4.2S156.7,128.4,156.7,128.4z"/>
			<polygon stroke="#000000" stroke-width="0.5" points="6.9,131.8 6.7,133.6 2.1,132.7 			"/>
		</g>
		<g>
			<linearGradient id="SVGID_14_" gradientUnits="userSpaceOnUse" x1="11.9991" y1="147.2959" x2="11.9991" y2="139.0908">
				<stop  offset="0" style="stop-color:#EAB84F"/>
				<stop  offset="0.3331" style="stop-color:#EAB951"/>
				<stop  offset="0.4838" style="stop-color:#EBBC58"/>
				<stop  offset="0.5978" style="stop-color:#EDC165"/>
				<stop  offset="0.6933" style="stop-color:#EFC877"/>
				<stop  offset="0.7772" style="stop-color:#F2D28F"/>
				<stop  offset="0.853" style="stop-color:#F5DDAC"/>
				<stop  offset="0.9227" style="stop-color:#F9EBCE"/>
				<stop  offset="0.9858" style="stop-color:#FEFBF5"/>
				<stop  offset="1" style="stop-color:#FFFFFF"/>
			</linearGradient>
			<polygon fill="url(#SVGID_14_)" stroke="#000000" stroke-width="0.5" points="22.4,147.3 1.6,143.2 22.4,139.1 			"/>
			<path fill="#009944" stroke="#000000" stroke-width="0.5" d="M156.7,141H22.4c0,0-1.6-0.3-2-0.6c-0.4-0.2,2-1.5,2-1.5h134.3"/>
			<path fill="#008647" stroke="#000000" stroke-width="0.5" d="M156.7,145.3H22.4c0,0-0.8-1.2-1.2-1.5c-0.4-0.2-0.8-0.4-1-1
				c-0.2-0.6,1.6-1.9,1.6-1.9h135"/>
			<path fill="#00663D" stroke="#000000" stroke-width="0.5" d="M156.5,147.3H22.3c0,0-0.9-0.7-1.6-1.3c0,0,0.6-0.7,1.4-0.7
				s134.4,0,134.4,0"/>
			<path fill="#009944" stroke="#000000" stroke-width="0.5" d="M156.7,139v8.3c0,0-0.1,0.1,0.3,0.1s1.4-2.4,1.4-4.3
				s-0.8-4.2-1.3-4.2S156.7,139,156.7,139z"/>
			<polygon stroke="#000000" stroke-width="0.5" points="6.9,142.3 6.7,144.1 2.1,143.2 			"/>
		</g>
		<g>
			<linearGradient id="SVGID_15_" gradientUnits="userSpaceOnUse" x1="11.9991" y1="157.8213" x2="11.9991" y2="149.6162">
				<stop  offset="0" style="stop-color:#EAB84F"/>
				<stop  offset="0.3331" style="stop-color:#EAB951"/>
				<stop  offset="0.4838" style="stop-color:#EBBC58"/>
				<stop  offset="0.5978" style="stop-color:#EDC165"/>
				<stop  offset="0.6933" style="stop-color:#EFC877"/>
				<stop  offset="0.7772" style="stop-color:#F2D28F"/>
				<stop  offset="0.853" style="stop-color:#F5DDAC"/>
				<stop  offset="0.9227" style="stop-color:#F9EBCE"/>
				<stop  offset="0.9858" style="stop-color:#FEFBF5"/>
				<stop  offset="1" style="stop-color:#FFFFFF"/>
			</linearGradient>
			<polygon fill="url(#SVGID_15_)" stroke="#000000" stroke-width="0.5" points="22.4,157.8 1.6,153.7 22.4,149.6 			"/>
			<path fill="#009944" stroke="#000000" stroke-width="0.5" d="M156.7,151.5H22.4c0,0-1.6-0.3-2-0.6c-0.4-0.2,2-1.5,2-1.5h134.3"/>
			<path fill="#008647" stroke="#000000" stroke-width="0.5" d="M156.7,155.9H22.4c0,0-0.8-1.2-1.2-1.5c-0.4-0.2-0.8-0.4-1-1
				c-0.2-0.6,1.6-1.9,1.6-1.9h135"/>
			<path fill="#00663D" stroke="#000000" stroke-width="0.5" d="M156.5,157.8H22.3c0,0-0.9-0.7-1.6-1.3c0,0,0.6-0.7,1.4-0.7
				s134.4,0,134.4,0"/>
			<path fill="#009944" stroke="#000000" stroke-width="0.5" d="M156.7,149.5v8.3c0,0-0.1,0.1,0.3,0.1s1.4-2.4,1.4-4.3
				s-0.8-4.2-1.3-4.2S156.7,149.5,156.7,149.5z"/>
			<polygon stroke="#000000" stroke-width="0.5" points="6.9,152.9 6.7,154.6 2.1,153.7 			"/>
		</g>
	</g>
</g>
</svg>
