<?xml version="1.0" encoding="utf-8"?>
<!-- Generator: Adobe Illustrator 18.1.1, SVG Export Plug-In . SVG Version: 6.00 Build 0)  -->
<svg version="1.1" xmlns="http://www.w3.org/2000/svg" xmlns:xlink="http://www.w3.org/1999/xlink" x="0px" y="0px"
	 viewBox="0 0 160 160" enable-background="new 0 0 160 160" xml:space="preserve">
<g id="bg">
	<rect fill="#FFFFFF" width="160" height="160"/>
</g>
<g id="noise">
	<g>
		<polygon fill="none" points="148,102 131.4,102 99.8,144 111,111.2 94.4,111.2 62.8,153.3 74,120.5 57.4,120.5 27.7,160 39.8,160 
			51.6,143.3 46.5,160 70.2,160 88.6,134.1 80.6,160 100.6,160 125.6,124.8 114.9,159.5 131.4,159.5 160,119.3 160,104 136.8,134.8 
					"/>
		<polygon fill="none" points="57.4,5.5 61.3,0 42.6,0 40.9,5.5 		"/>
		<polygon fill="none" points="148,44.5 131.4,44.5 99.8,86.5 111,53.8 94.4,53.8 62.8,95.8 74,63 57.4,63 25.8,105 37,72.2 
			20.4,72.2 0,99.4 0,115.7 14.6,95.1 3.9,129.8 20.4,129.8 51.6,85.8 40.9,120.5 57.4,120.5 88.6,76.6 77.9,111.2 94.4,111.2 
			125.6,67.3 114.9,102 131.4,102 160,61.8 160,46.5 136.8,77.3 		"/>
		<polygon fill="none" points="20.4,129.8 0,156.9 0,160 9.4,160 14.6,152.6 12.3,160 26.7,160 37,129.8 		"/>
		<polygon fill="none" points="0.5,0 0,0 0,0.7 		"/>
		<polygon fill="none" points="20.4,14.8 30.9,0 8.4,0 3.9,14.8 		"/>
		<polygon fill="none" points="160,35.2 160,9.1 151.9,35.2 		"/>
		<polygon fill="none" points="74,5.5 57.4,5.5 25.8,47.5 37,14.8 20.4,14.8 0,41.9 0,58.2 14.6,37.6 3.9,72.2 20.4,72.2 51.6,28.3 
			40.9,63 57.4,63 88.6,19.1 77.9,53.8 94.4,53.8 125.6,9.8 114.9,44.5 131.4,44.5 160,4.3 160,0 151.7,0 136.8,19.8 143.6,0 
			121.6,0 99.8,29 109.7,0 91.6,0 62.8,38.3 		"/>
		<polygon fill="none" points="160,150.2 160,124.1 151.9,150.2 		"/>
		<polygon fill="none" points="160,92.8 160,66.6 151.9,92.8 		"/>
		<polygon fill="none" points="131.4,159.5 131.1,160 147.8,160 148,159.5 		"/>
		<polygon fill="#F39800" points="0,41.9 20.4,14.8 3.9,14.8 8.4,0 0.5,0 0,0.7 		"/>
		<polygon fill="#F39800" points="3.9,72.2 14.6,37.6 0,58.2 0,99.4 20.4,72.2 		"/>
		<polygon fill="#F39800" points="3.9,129.8 14.6,95.1 0,115.7 0,156.9 20.4,129.8 		"/>
		<polygon fill="#F39800" points="9.4,160 12.3,160 14.6,152.6 		"/>
		<polygon fill="#F39800" points="37,14.8 25.8,47.5 57.4,5.5 40.9,5.5 42.6,0 30.9,0 20.4,14.8 		"/>
		<polygon fill="#F39800" points="25.8,105 57.4,63 40.9,63 51.6,28.3 20.4,72.2 37,72.2 		"/>
		<polygon fill="#F39800" points="40.9,120.5 51.6,85.8 20.4,129.8 37,129.8 26.7,160 27.7,160 57.4,120.5 		"/>
		<polygon fill="#F39800" points="39.8,160 46.5,160 51.6,143.3 		"/>
		<polygon fill="#F39800" points="74,5.5 62.8,38.3 91.6,0 61.3,0 57.4,5.5 		"/>
		<polygon fill="#F39800" points="62.8,95.8 94.4,53.8 77.9,53.8 88.6,19.1 57.4,63 74,63 		"/>
		<polygon fill="#F39800" points="62.8,153.3 94.4,111.2 77.9,111.2 88.6,76.6 57.4,120.5 74,120.5 		"/>
		<polygon fill="#F39800" points="70.2,160 80.6,160 88.6,134.1 		"/>
		<polygon fill="#F39800" points="121.6,0 109.7,0 99.8,29 		"/>
		<polygon fill="#F39800" points="99.8,86.5 131.4,44.5 114.9,44.5 125.6,9.8 94.4,53.8 111,53.8 		"/>
		<polygon fill="#F39800" points="99.8,144 131.4,102 114.9,102 125.6,67.3 94.4,111.2 111,111.2 		"/>
		<polygon fill="#F39800" points="114.9,159.5 125.6,124.8 100.6,160 114.5,160 114.9,159.5 		"/>
		<polygon fill="#F39800" points="151.7,0 143.6,0 136.8,19.8 		"/>
		<polygon fill="#F39800" points="148,44.5 136.8,77.3 160,46.5 160,35.2 151.9,35.2 160,9.1 160,4.3 131.4,44.5 		"/>
		<polygon fill="#F39800" points="148,102 136.8,134.8 160,104 160,92.8 151.9,92.8 160,66.6 160,61.8 131.4,102 		"/>
		<polygon fill="#F39800" points="148,159.5 147.8,160 160,160 160,150.2 151.9,150.2 160,124.1 160,119.3 131.4,159.5 		"/>
	</g>
</g>
<g id="radio">
	<polygon fill="#C9CACA" stroke="#000000" stroke-linecap="round" stroke-linejoin="round" points="73.3,74.2 60.7,78.2 95,86.5 
		108.7,79.8 	"/>
	<polygon fill="#9FA0A0" stroke="#000000" stroke-linecap="round" stroke-linejoin="round" points="60.7,78.2 65.2,119.8 
		94.7,137.2 95,86.5 	"/>
	<polygon fill="#DCDDDD" stroke="#000000" stroke-linecap="round" stroke-linejoin="round" points="94.7,137.2 104,130.2 
		108.7,79.8 95,86.5 	"/>
	<path fill="#EFEFEF" stroke="#000000" stroke-linecap="round" stroke-linejoin="round" d="M90.8,107.8c-0.1,9.9-7.2,13.9-14.3,10.4
		c-5.7-2.9-10.1-10.1-10.7-17c-0.6-7.3,3-13.4,9.2-13.5C82.9,87.6,90.9,97,90.8,107.8z"/>
	<path fill="#FFFFFF" stroke="#000000" stroke-width="0.2441" stroke-linecap="round" stroke-linejoin="round" d="M83.4,104.7
		c0,2.4-1.8,3.4-3.5,2.5c-1.4-0.7-2.5-2.5-2.6-4.2c-0.2-1.8,0.7-3.3,2.2-3.3C81.4,99.8,83.4,102.1,83.4,104.7z"/>
	<line fill="#FFFFFF" stroke="#000000" stroke-linecap="round" stroke-linejoin="round" x1="75.3" y1="73.8" x2="74.3" y2="56.2"/>
	
		<line fill="#FFFFFF" stroke="#000000" stroke-width="0.5" stroke-linecap="round" stroke-linejoin="round" x1="74.3" y1="56.2" x2="73.7" y2="38.8"/>
	
		<line fill="#FFFFFF" stroke="#000000" stroke-width="0.25" stroke-linecap="round" stroke-linejoin="round" x1="73.7" y1="38.8" x2="72.8" y2="20.5"/>
	<path fill="#FFFFFF" stroke="#000000" stroke-width="0.5" stroke-linecap="round" stroke-linejoin="round" d="M105.6,92.1
		c-0.2,2.4-1.7,5.1-3.4,6.6c-1.9,1.7-4,1.8-4.7-0.2c-0.9-2.7,1-7.5,4.1-9.5C104.3,87.3,106,89.1,105.6,92.1z"/>
	<path fill="#FFFFFF" stroke="#000000" stroke-width="0.5" stroke-linecap="round" stroke-linejoin="round" d="M107.1,92.1
		c-0.2,2.4-1.7,5.1-3.4,6.6c-1.9,1.7-4,1.8-4.7-0.2c-0.9-2.7,1-7.5,4.1-9.5C105.8,87.3,107.4,89.1,107.1,92.1z"/>
	<polygon fill="#00A0E9" stroke="#000000" stroke-width="0.5" stroke-linecap="round" stroke-linejoin="round" points="63.3,81.9 
		63.8,84.5 65.7,85 65.1,82.4 	"/>
	<polygon fill="#E4007F" stroke="#000000" stroke-width="0.5" stroke-linecap="round" stroke-linejoin="round" points="66.6,82.7 
		67.1,85.3 68.9,85.8 68.4,83.1 	"/>
	<polygon fill="#FFFFFF" stroke="#000000" stroke-width="0.5" stroke-linecap="round" stroke-linejoin="round" points="82.2,127.8 
		92.3,133.5 92,131.6 81.8,126.5 	"/>
</g>
</svg>
