<?xml version="1.0" encoding="utf-8"?>
<!-- Generator: Adobe Illustrator 18.1.1, SVG Export Plug-In . SVG Version: 6.00 Build 0)  -->
<svg version="1.1" xmlns="http://www.w3.org/2000/svg" xmlns:xlink="http://www.w3.org/1999/xlink" x="0px" y="0px"
	 viewBox="0 0 160 160" enable-background="new 0 0 160 160" xml:space="preserve">
<g id="bg">
	<rect fill="#007CC4" width="160" height="160"/>
</g>
<g id="sandal">
	<path fill="#FFFFFF" stroke="#000000" d="M49,149c7.3,2,15.3-3.7,17-7.7c0.8-2,7.1-13.7,13.7-33.3c2-6,21.9-28.9,30.7-50.3
		C123,26.7,110.2,16.2,95,17c-19,1-35.3,26.3-40.7,39.3C48.7,70,46.7,81,44.7,96.7c-2.2,17-5.2,26.4-7,34.3
		C36,138.3,41.5,147,49,149z"/>
	<path fill="none" stroke="#000000" d="M60.8,55.2c-5.2,8.5-6.8,39-6.8,39c-1.8,2-4.5,0-4.5,0S49.2,71.5,55.8,59s39.9-16,39.9-16
		c2.5,2.8,6.8,22.8,3.3,30.5s-19.2,29.8-19.2,29.8s-3.2-0.2-4.2-3.8c0,0,14.8-14.5,23.2-32"/>
	<path fill="none" stroke="#000000" d="M57.2,54.5c0,0,4-15.8,39.5-17l2.2-3.2c0,0,1.8-0.2,2.2,1l-1.8,3.5c0,0,11.5,16,2,32.8"/>
</g>
<g id="star">
	<polygon fill="#E60012" points="76.7,42.2 74.3,43.3 76.7,44.5 77.3,47.2 78.7,44.7 81.2,46.2 80.5,43.5 81.5,41.5 79,41.5 
		77.3,39.5 	"/>
</g>
</svg>
