<?xml version="1.0" encoding="utf-8"?>
<!-- Generator: Adobe Illustrator 18.1.1, SVG Export Plug-In . SVG Version: 6.00 Build 0)  -->
<svg version="1.1" id="stars" xmlns="http://www.w3.org/2000/svg" xmlns:xlink="http://www.w3.org/1999/xlink" x="0px" y="0px"
	 viewBox="0 0 160 160" enable-background="new 0 0 160 160" xml:space="preserve">
<rect fill="#E60012" width="10" height="10"/>
<polygon fill="#FFF100" points="5,7.5 7.9,9.5 6.9,6.1 9.8,3.9 6.2,3.9 5,0.5 3.8,3.9 0.2,3.9 3.1,6.1 2.1,9.5 "/>
<rect x="10" fill="#E60012" width="10" height="10"/>
<polygon fill="#FFF100" points="15,7.5 17.9,9.5 16.9,6.1 19.8,3.9 16.2,3.9 15,0.5 13.8,3.9 10.2,3.9 13.1,6.1 12.1,9.5 "/>
<rect x="20" fill="#E60012" width="10" height="10"/>
<polygon fill="#FFF100" points="25,7.5 27.9,9.5 26.9,6.1 29.8,3.9 26.2,3.9 25,0.5 23.8,3.9 20.2,3.9 23.1,6.1 22.1,9.5 "/>
<rect x="30" fill="#E60012" width="10" height="10"/>
<polygon fill="#FFF100" points="35,7.5 37.9,9.5 36.9,6.1 39.8,3.9 36.2,3.9 35,0.5 33.8,3.9 30.2,3.9 33.1,6.1 32.1,9.5 "/>
<rect x="40" fill="#E60012" width="10" height="10"/>
<polygon fill="#FFF100" points="45,7.5 47.9,9.5 46.9,6.1 49.8,3.9 46.2,3.9 45,0.5 43.8,3.9 40.2,3.9 43.1,6.1 42.1,9.5 "/>
<rect x="50" fill="#E60012" width="10" height="10"/>
<polygon fill="#FFF100" points="55,7.5 57.9,9.5 56.9,6.1 59.8,3.9 56.2,3.9 55,0.5 53.8,3.9 50.2,3.9 53.1,6.1 52.1,9.5 "/>
<rect x="60" fill="#E60012" width="10" height="10"/>
<polygon fill="#FFF100" points="65,7.5 67.9,9.5 66.9,6.1 69.8,3.9 66.2,3.9 65,0.5 63.8,3.9 60.2,3.9 63.1,6.1 62.1,9.5 "/>
<rect x="70" fill="#E60012" width="10" height="10"/>
<polygon fill="#FFF100" points="75,7.5 77.9,9.5 76.9,6.1 79.8,3.9 76.2,3.9 75,0.5 73.8,3.9 70.2,3.9 73.1,6.1 72.1,9.5 "/>
<rect x="80" fill="#E60012" width="10" height="10"/>
<polygon fill="#FFF100" points="85,7.5 87.9,9.5 86.9,6.1 89.8,3.9 86.2,3.9 85,0.5 83.8,3.9 80.2,3.9 83.1,6.1 82.1,9.5 "/>
<rect x="90" fill="#E60012" width="10" height="10"/>
<polygon fill="#FFF100" points="95,7.5 97.9,9.5 96.9,6.1 99.8,3.9 96.2,3.9 95,0.5 93.8,3.9 90.2,3.9 93.1,6.1 92.1,9.5 "/>
<rect x="100" fill="#E60012" width="10" height="10"/>
<polygon fill="#FFF100" points="105,7.5 107.9,9.5 106.9,6.1 109.8,3.9 106.2,3.9 105,0.5 103.8,3.9 100.2,3.9 103.1,6.1 102.1,9.5 
	"/>
<rect x="110" fill="#E60012" width="10" height="10"/>
<polygon fill="#FFF100" points="115,7.5 117.9,9.5 116.9,6.1 119.8,3.9 116.2,3.9 115,0.5 113.8,3.9 110.2,3.9 113.1,6.1 112.1,9.5 
	"/>
<rect x="120" fill="#E60012" width="10" height="10"/>
<polygon fill="#FFF100" points="125,7.5 127.9,9.5 126.9,6.1 129.8,3.9 126.2,3.9 125,0.5 123.8,3.9 120.2,3.9 123.1,6.1 122.1,9.5 
	"/>
<rect x="130" fill="#E60012" width="10" height="10"/>
<polygon fill="#FFF100" points="135,7.5 137.9,9.5 136.9,6.1 139.8,3.9 136.2,3.9 135,0.5 133.8,3.9 130.2,3.9 133.1,6.1 132.1,9.5 
	"/>
<rect x="140" fill="#E60012" width="10" height="10"/>
<polygon fill="#FFF100" points="145,7.5 147.9,9.5 146.9,6.1 149.8,3.9 146.2,3.9 145,0.5 143.8,3.9 140.2,3.9 143.1,6.1 142.1,9.5 
	"/>
<rect x="150" fill="#E60012" width="10" height="10"/>
<polygon fill="#FFF100" points="155,7.5 157.9,9.5 156.9,6.1 159.8,3.9 156.2,3.9 155,0.5 153.8,3.9 150.2,3.9 153.1,6.1 152.1,9.5 
	"/>
<rect y="10" fill="#E60012" width="10" height="10"/>
<polygon fill="#FFF100" points="5,17.5 7.9,19.5 6.9,16.1 9.8,13.9 6.2,13.9 5,10.5 3.8,13.9 0.2,13.9 3.1,16.1 2.1,19.5 "/>
<rect x="10" y="10" fill="#E60012" width="10" height="10"/>
<polygon fill="#FFF100" points="15,17.5 17.9,19.5 16.9,16.1 19.8,13.9 16.2,13.9 15,10.5 13.8,13.9 10.2,13.9 13.1,16.1 12.1,19.5 
	"/>
<rect x="20" y="10" fill="#E60012" width="10" height="10"/>
<polygon fill="#FFF100" points="25,17.5 27.9,19.5 26.9,16.1 29.8,13.9 26.2,13.9 25,10.5 23.8,13.9 20.2,13.9 23.1,16.1 22.1,19.5 
	"/>
<rect x="30" y="10" fill="#E60012" width="10" height="10"/>
<polygon fill="#FFF100" points="35,17.5 37.9,19.5 36.9,16.1 39.8,13.9 36.2,13.9 35,10.5 33.8,13.9 30.2,13.9 33.1,16.1 32.1,19.5 
	"/>
<rect x="40" y="10" fill="#E60012" width="10" height="10"/>
<polygon fill="#FFF100" points="45,17.5 47.9,19.5 46.9,16.1 49.8,13.9 46.2,13.9 45,10.5 43.8,13.9 40.2,13.9 43.1,16.1 42.1,19.5 
	"/>
<rect x="50" y="10" fill="#E60012" width="10" height="10"/>
<polygon fill="#FFF100" points="55,17.5 57.9,19.5 56.9,16.1 59.8,13.9 56.2,13.9 55,10.5 53.8,13.9 50.2,13.9 53.1,16.1 52.1,19.5 
	"/>
<rect x="60" y="10" fill="#E60012" width="10" height="10"/>
<polygon fill="#FFF100" points="65,17.5 67.9,19.5 66.9,16.1 69.8,13.9 66.2,13.9 65,10.5 63.8,13.9 60.2,13.9 63.1,16.1 62.1,19.5 
	"/>
<rect x="70" y="10" fill="#E60012" width="10" height="10"/>
<polygon fill="#FFF100" points="75,17.5 77.9,19.5 76.9,16.1 79.8,13.9 76.2,13.9 75,10.5 73.8,13.9 70.2,13.9 73.1,16.1 72.1,19.5 
	"/>
<rect x="80" y="10" fill="#E60012" width="10" height="10"/>
<polygon fill="#FFF100" points="85,17.5 87.9,19.5 86.9,16.1 89.8,13.9 86.2,13.9 85,10.5 83.8,13.9 80.2,13.9 83.1,16.1 82.1,19.5 
	"/>
<rect x="90" y="10" fill="#E60012" width="10" height="10"/>
<polygon fill="#FFF100" points="95,17.5 97.9,19.5 96.9,16.1 99.8,13.9 96.2,13.9 95,10.5 93.8,13.9 90.2,13.9 93.1,16.1 92.1,19.5 
	"/>
<rect x="100" y="10" fill="#E60012" width="10" height="10"/>
<polygon fill="#FFF100" points="105,17.5 107.9,19.5 106.9,16.1 109.8,13.9 106.2,13.9 105,10.5 103.8,13.9 100.2,13.9 103.1,16.1 
	102.1,19.5 "/>
<rect x="110" y="10" fill="#E60012" width="10" height="10"/>
<polygon fill="#FFF100" points="115,17.5 117.9,19.5 116.9,16.1 119.8,13.9 116.2,13.9 115,10.5 113.8,13.9 110.2,13.9 113.1,16.1 
	112.1,19.5 "/>
<rect x="120" y="10" fill="#E60012" width="10" height="10"/>
<polygon fill="#FFF100" points="125,17.5 127.9,19.5 126.9,16.1 129.8,13.9 126.2,13.9 125,10.5 123.8,13.9 120.2,13.9 123.1,16.1 
	122.1,19.5 "/>
<rect x="130" y="10" fill="#E60012" width="10" height="10"/>
<polygon fill="#FFF100" points="135,17.5 137.9,19.5 136.9,16.1 139.8,13.9 136.2,13.9 135,10.5 133.8,13.9 130.2,13.9 133.1,16.1 
	132.1,19.5 "/>
<rect x="140" y="10" fill="#E60012" width="10" height="10"/>
<polygon fill="#FFF100" points="145,17.5 147.9,19.5 146.9,16.1 149.8,13.9 146.2,13.9 145,10.5 143.8,13.9 140.2,13.9 143.1,16.1 
	142.1,19.5 "/>
<rect x="150" y="10" fill="#E60012" width="10" height="10"/>
<polygon fill="#FFF100" points="155,17.5 157.9,19.5 156.9,16.1 159.8,13.9 156.2,13.9 155,10.5 153.8,13.9 150.2,13.9 153.1,16.1 
	152.1,19.5 "/>
<rect y="20" fill="#E60012" width="10" height="10"/>
<polygon fill="#FFF100" points="5,27.5 7.9,29.5 6.9,26.1 9.8,23.9 6.2,23.9 5,20.5 3.8,23.9 0.2,23.9 3.1,26.1 2.1,29.5 "/>
<rect x="10" y="20" fill="#E60012" width="10" height="10"/>
<polygon fill="#FFF100" points="15,27.5 17.9,29.5 16.9,26.1 19.8,23.9 16.2,23.9 15,20.5 13.8,23.9 10.2,23.9 13.1,26.1 12.1,29.5 
	"/>
<rect x="20" y="20" fill="#E60012" width="10" height="10"/>
<polygon fill="#FFF100" points="25,27.5 27.9,29.5 26.9,26.1 29.8,23.9 26.2,23.9 25,20.5 23.8,23.9 20.2,23.9 23.1,26.1 22.1,29.5 
	"/>
<rect x="30" y="20" fill="#E60012" width="10" height="10"/>
<polygon fill="#FFF100" points="35,27.5 37.9,29.5 36.9,26.1 39.8,23.9 36.2,23.9 35,20.5 33.8,23.9 30.2,23.9 33.1,26.1 32.1,29.5 
	"/>
<rect x="40" y="20" fill="#E60012" width="10" height="10"/>
<polygon fill="#FFF100" points="45,27.5 47.9,29.5 46.9,26.1 49.8,23.9 46.2,23.9 45,20.5 43.8,23.9 40.2,23.9 43.1,26.1 42.1,29.5 
	"/>
<rect x="50" y="20" fill="#E60012" width="10" height="10"/>
<polygon fill="#FFF100" points="55,27.5 57.9,29.5 56.9,26.1 59.8,23.9 56.2,23.9 55,20.5 53.8,23.9 50.2,23.9 53.1,26.1 52.1,29.5 
	"/>
<rect x="60" y="20" fill="#E60012" width="10" height="10"/>
<polygon fill="#FFF100" points="65,27.5 67.9,29.5 66.9,26.1 69.8,23.9 66.2,23.9 65,20.5 63.8,23.9 60.2,23.9 63.1,26.1 62.1,29.5 
	"/>
<rect x="70" y="20" fill="#E60012" width="10" height="10"/>
<polygon fill="#FFF100" points="75,27.5 77.9,29.5 76.9,26.1 79.8,23.9 76.2,23.9 75,20.5 73.8,23.9 70.2,23.9 73.1,26.1 72.1,29.5 
	"/>
<rect x="80" y="20" fill="#E60012" width="10" height="10"/>
<polygon fill="#FFF100" points="85,27.5 87.9,29.5 86.9,26.1 89.8,23.9 86.2,23.9 85,20.5 83.8,23.9 80.2,23.9 83.1,26.1 82.1,29.5 
	"/>
<rect x="90" y="20" fill="#E60012" width="10" height="10"/>
<polygon fill="#FFF100" points="95,27.5 97.9,29.5 96.9,26.1 99.8,23.9 96.2,23.9 95,20.5 93.8,23.9 90.2,23.9 93.1,26.1 92.1,29.5 
	"/>
<rect x="100" y="20" fill="#E60012" width="10" height="10"/>
<polygon fill="#FFF100" points="105,27.5 107.9,29.5 106.9,26.1 109.8,23.9 106.2,23.9 105,20.5 103.8,23.9 100.2,23.9 103.1,26.1 
	102.1,29.5 "/>
<rect x="110" y="20" fill="#E60012" width="10" height="10"/>
<polygon fill="#FFF100" points="115,27.5 117.9,29.5 116.9,26.1 119.8,23.9 116.2,23.9 115,20.5 113.8,23.9 110.2,23.9 113.1,26.1 
	112.1,29.5 "/>
<rect x="120" y="20" fill="#E60012" width="10" height="10"/>
<polygon fill="#FFF100" points="125,27.5 127.9,29.5 126.9,26.1 129.8,23.9 126.2,23.9 125,20.5 123.8,23.9 120.2,23.9 123.1,26.1 
	122.1,29.5 "/>
<rect x="130" y="20" fill="#E60012" width="10" height="10"/>
<polygon fill="#FFF100" points="135,27.5 137.9,29.5 136.9,26.1 139.8,23.9 136.2,23.9 135,20.5 133.8,23.9 130.2,23.9 133.1,26.1 
	132.1,29.5 "/>
<rect x="140" y="20" fill="#E60012" width="10" height="10"/>
<polygon fill="#FFF100" points="145,27.5 147.9,29.5 146.9,26.1 149.8,23.9 146.2,23.9 145,20.5 143.8,23.9 140.2,23.9 143.1,26.1 
	142.1,29.5 "/>
<rect x="150" y="20" fill="#E60012" width="10" height="10"/>
<polygon fill="#FFF100" points="155,27.5 157.9,29.5 156.9,26.1 159.8,23.9 156.2,23.9 155,20.5 153.8,23.9 150.2,23.9 153.1,26.1 
	152.1,29.5 "/>
<rect y="30" fill="#E60012" width="10" height="10"/>
<polygon fill="#FFF100" points="5,37.5 7.9,39.5 6.9,36.1 9.8,33.9 6.2,33.9 5,30.5 3.8,33.9 0.2,33.9 3.1,36.1 2.1,39.5 "/>
<rect x="10" y="30" fill="#E60012" width="10" height="10"/>
<polygon fill="#FFF100" points="15,37.5 17.9,39.5 16.9,36.1 19.8,33.9 16.2,33.9 15,30.5 13.8,33.9 10.2,33.9 13.1,36.1 12.1,39.5 
	"/>
<rect x="20" y="30" fill="#E60012" width="10" height="10"/>
<polygon fill="#FFF100" points="25,37.5 27.9,39.5 26.9,36.1 29.8,33.9 26.2,33.9 25,30.5 23.8,33.9 20.2,33.9 23.1,36.1 22.1,39.5 
	"/>
<rect x="30" y="30" fill="#E60012" width="10" height="10"/>
<polygon fill="#FFF100" points="35,37.5 37.9,39.5 36.9,36.1 39.8,33.9 36.2,33.9 35,30.5 33.8,33.9 30.2,33.9 33.1,36.1 32.1,39.5 
	"/>
<rect x="40" y="30" fill="#E60012" width="10" height="10"/>
<polygon fill="#FFF100" points="45,37.5 47.9,39.5 46.9,36.1 49.8,33.9 46.2,33.9 45,30.5 43.8,33.9 40.2,33.9 43.1,36.1 42.1,39.5 
	"/>
<rect x="50" y="30" fill="#E60012" width="10" height="10"/>
<polygon fill="#FFF100" points="55,37.5 57.9,39.5 56.9,36.1 59.8,33.9 56.2,33.9 55,30.5 53.8,33.9 50.2,33.9 53.1,36.1 52.1,39.5 
	"/>
<rect x="60" y="30" fill="#E60012" width="10" height="10"/>
<polygon fill="#FFF100" points="65,37.5 67.9,39.5 66.9,36.1 69.8,33.9 66.2,33.9 65,30.5 63.8,33.9 60.2,33.9 63.1,36.1 62.1,39.5 
	"/>
<rect x="70" y="30" fill="#E60012" width="10" height="10"/>
<polygon fill="#FFF100" points="75,37.5 77.9,39.5 76.9,36.1 79.8,33.9 76.2,33.9 75,30.5 73.8,33.9 70.2,33.9 73.1,36.1 72.1,39.5 
	"/>
<rect x="80" y="30" fill="#E60012" width="10" height="10"/>
<polygon fill="#FFF100" points="85,37.5 87.9,39.5 86.9,36.1 89.8,33.9 86.2,33.9 85,30.5 83.8,33.9 80.2,33.9 83.1,36.1 82.1,39.5 
	"/>
<rect x="90" y="30" fill="#E60012" width="10" height="10"/>
<polygon fill="#FFF100" points="95,37.5 97.9,39.5 96.9,36.1 99.8,33.9 96.2,33.9 95,30.5 93.8,33.9 90.2,33.9 93.1,36.1 92.1,39.5 
	"/>
<rect x="100" y="30" fill="#E60012" width="10" height="10"/>
<polygon fill="#FFF100" points="105,37.5 107.9,39.5 106.9,36.1 109.8,33.9 106.2,33.9 105,30.5 103.8,33.9 100.2,33.9 103.1,36.1 
	102.1,39.5 "/>
<rect x="110" y="30" fill="#E60012" width="10" height="10"/>
<polygon points="115,37.5 117.9,39.5 116.9,36.1 119.8,33.9 116.2,33.9 115,30.5 113.8,33.9 110.2,33.9 113.1,36.1 112.1,39.5 "/>
<rect x="120" y="30" fill="#E60012" width="10" height="10"/>
<polygon fill="#FFF100" points="125,37.5 127.9,39.5 126.9,36.1 129.8,33.9 126.2,33.9 125,30.5 123.8,33.9 120.2,33.9 123.1,36.1 
	122.1,39.5 "/>
<rect x="130" y="30" fill="#E60012" width="10" height="10"/>
<polygon fill="#FFF100" points="135,37.5 137.9,39.5 136.9,36.1 139.8,33.9 136.2,33.9 135,30.5 133.8,33.9 130.2,33.9 133.1,36.1 
	132.1,39.5 "/>
<rect x="140" y="30" fill="#E60012" width="10" height="10"/>
<polygon fill="#FFF100" points="145,37.5 147.9,39.5 146.9,36.1 149.8,33.9 146.2,33.9 145,30.5 143.8,33.9 140.2,33.9 143.1,36.1 
	142.1,39.5 "/>
<rect x="150" y="30" fill="#E60012" width="10" height="10"/>
<polygon fill="#FFF100" points="155,37.5 157.9,39.5 156.9,36.1 159.8,33.9 156.2,33.9 155,30.5 153.8,33.9 150.2,33.9 153.1,36.1 
	152.1,39.5 "/>
<rect y="40" fill="#E60012" width="10" height="10"/>
<polygon fill="#FFF100" points="5,47.5 7.9,49.5 6.9,46.1 9.8,43.9 6.2,43.9 5,40.5 3.8,43.9 0.2,43.9 3.1,46.1 2.1,49.5 "/>
<rect x="10" y="40" fill="#E60012" width="10" height="10"/>
<polygon fill="#FFF100" points="15,47.5 17.9,49.5 16.9,46.1 19.8,43.9 16.2,43.9 15,40.5 13.8,43.9 10.2,43.9 13.1,46.1 12.1,49.5 
	"/>
<rect x="20" y="40" fill="#E60012" width="10" height="10"/>
<polygon fill="#FFF100" points="25,47.5 27.9,49.5 26.9,46.1 29.8,43.9 26.2,43.9 25,40.5 23.8,43.9 20.2,43.9 23.1,46.1 22.1,49.5 
	"/>
<rect x="30" y="40" fill="#E60012" width="10" height="10"/>
<polygon fill="#FFF100" points="35,47.5 37.9,49.5 36.9,46.1 39.8,43.9 36.2,43.9 35,40.5 33.8,43.9 30.2,43.9 33.1,46.1 32.1,49.5 
	"/>
<rect x="40" y="40" fill="#E60012" width="10" height="10"/>
<polygon fill="#FFF100" points="45,47.5 47.9,49.5 46.9,46.1 49.8,43.9 46.2,43.9 45,40.5 43.8,43.9 40.2,43.9 43.1,46.1 42.1,49.5 
	"/>
<rect x="50" y="40" fill="#E60012" width="10" height="10"/>
<polygon fill="#FFF100" points="55,47.5 57.9,49.5 56.9,46.1 59.8,43.9 56.2,43.9 55,40.5 53.8,43.9 50.2,43.9 53.1,46.1 52.1,49.5 
	"/>
<rect x="60" y="40" fill="#E60012" width="10" height="10"/>
<polygon fill="#FFF100" points="65,47.5 67.9,49.5 66.9,46.1 69.8,43.9 66.2,43.9 65,40.5 63.8,43.9 60.2,43.9 63.1,46.1 62.1,49.5 
	"/>
<rect x="70" y="40" fill="#E60012" width="10" height="10"/>
<polygon fill="#FFF100" points="75,47.5 77.9,49.5 76.9,46.1 79.8,43.9 76.2,43.9 75,40.5 73.8,43.9 70.2,43.9 73.1,46.1 72.1,49.5 
	"/>
<rect x="80" y="40" fill="#E60012" width="10" height="10"/>
<polygon fill="#FFF100" points="85,47.5 87.9,49.5 86.9,46.1 89.8,43.9 86.2,43.9 85,40.5 83.8,43.9 80.2,43.9 83.1,46.1 82.1,49.5 
	"/>
<rect x="90" y="40" fill="#E60012" width="10" height="10"/>
<polygon fill="#FFF100" points="95,47.5 97.9,49.5 96.9,46.1 99.8,43.9 96.2,43.9 95,40.5 93.8,43.9 90.2,43.9 93.1,46.1 92.1,49.5 
	"/>
<rect x="100" y="40" fill="#E60012" width="10" height="10"/>
<polygon fill="#FFF100" points="105,47.5 107.9,49.5 106.9,46.1 109.8,43.9 106.2,43.9 105,40.5 103.8,43.9 100.2,43.9 103.1,46.1 
	102.1,49.5 "/>
<rect x="110" y="40" fill="#E60012" width="10" height="10"/>
<polygon fill="#FFF100" points="115,47.5 117.9,49.5 116.9,46.1 119.8,43.9 116.2,43.9 115,40.5 113.8,43.9 110.2,43.9 113.1,46.1 
	112.1,49.5 "/>
<rect x="120" y="40" fill="#E60012" width="10" height="10"/>
<polygon fill="#FFF100" points="125,47.5 127.9,49.5 126.9,46.1 129.8,43.9 126.2,43.9 125,40.5 123.8,43.9 120.2,43.9 123.1,46.1 
	122.1,49.5 "/>
<rect x="130" y="40" fill="#E60012" width="10" height="10"/>
<polygon fill="#FFF100" points="135,47.5 137.9,49.5 136.9,46.1 139.8,43.9 136.2,43.9 135,40.5 133.8,43.9 130.2,43.9 133.1,46.1 
	132.1,49.5 "/>
<rect x="140" y="40" fill="#E60012" width="10" height="10"/>
<polygon fill="#FFF100" points="145,47.5 147.9,49.5 146.9,46.1 149.8,43.9 146.2,43.9 145,40.5 143.8,43.9 140.2,43.9 143.1,46.1 
	142.1,49.5 "/>
<rect x="150" y="40" fill="#E60012" width="10" height="10"/>
<polygon fill="#FFF100" points="155,47.5 157.9,49.5 156.9,46.1 159.8,43.9 156.2,43.9 155,40.5 153.8,43.9 150.2,43.9 153.1,46.1 
	152.1,49.5 "/>
<rect y="50" fill="#E60012" width="10" height="10"/>
<polygon fill="#FFF100" points="5,57.5 7.9,59.5 6.9,56.1 9.8,53.9 6.2,53.9 5,50.5 3.8,53.9 0.2,53.9 3.1,56.1 2.1,59.5 "/>
<rect x="10" y="50" fill="#E60012" width="10" height="10"/>
<polygon fill="#FFF100" points="15,57.5 17.9,59.5 16.9,56.1 19.8,53.9 16.2,53.9 15,50.5 13.8,53.9 10.2,53.9 13.1,56.1 12.1,59.5 
	"/>
<rect x="20" y="50" fill="#E60012" width="10" height="10"/>
<polygon fill="#FFF100" points="25,57.5 27.9,59.5 26.9,56.1 29.8,53.9 26.2,53.9 25,50.5 23.8,53.9 20.2,53.9 23.1,56.1 22.1,59.5 
	"/>
<rect x="30" y="50" fill="#E60012" width="10" height="10"/>
<polygon fill="#FFF100" points="35,57.5 37.9,59.5 36.9,56.1 39.8,53.9 36.2,53.9 35,50.5 33.8,53.9 30.2,53.9 33.1,56.1 32.1,59.5 
	"/>
<rect x="40" y="50" fill="#E60012" width="10" height="10"/>
<polygon fill="#FFF100" points="45,57.5 47.9,59.5 46.9,56.1 49.8,53.9 46.2,53.9 45,50.5 43.8,53.9 40.2,53.9 43.1,56.1 42.1,59.5 
	"/>
<rect x="50" y="50" fill="#E60012" width="10" height="10"/>
<polygon fill="#FFF100" points="55,57.5 57.9,59.5 56.9,56.1 59.8,53.9 56.2,53.9 55,50.5 53.8,53.9 50.2,53.9 53.1,56.1 52.1,59.5 
	"/>
<rect x="60" y="50" fill="#E60012" width="10" height="10"/>
<polygon fill="#FFF100" points="65,57.5 67.9,59.5 66.9,56.1 69.8,53.9 66.2,53.9 65,50.5 63.8,53.9 60.2,53.9 63.1,56.1 62.1,59.5 
	"/>
<rect x="70" y="50" fill="#E60012" width="10" height="10"/>
<polygon fill="#FFF100" points="75,57.5 77.9,59.5 76.9,56.1 79.8,53.9 76.2,53.9 75,50.5 73.8,53.9 70.2,53.9 73.1,56.1 72.1,59.5 
	"/>
<rect x="80" y="50" fill="#E60012" width="10" height="10"/>
<polygon fill="#FFF100" points="85,57.5 87.9,59.5 86.9,56.1 89.8,53.9 86.2,53.9 85,50.5 83.8,53.9 80.2,53.9 83.1,56.1 82.1,59.5 
	"/>
<rect x="90" y="50" fill="#E60012" width="10" height="10"/>
<polygon fill="#FFF100" points="95,57.5 97.9,59.5 96.9,56.1 99.8,53.9 96.2,53.9 95,50.5 93.8,53.9 90.2,53.9 93.1,56.1 92.1,59.5 
	"/>
<rect x="100" y="50" fill="#E60012" width="10" height="10"/>
<polygon fill="#FFF100" points="105,57.5 107.9,59.5 106.9,56.1 109.8,53.9 106.2,53.9 105,50.5 103.8,53.9 100.2,53.9 103.1,56.1 
	102.1,59.5 "/>
<rect x="110" y="50" fill="#E60012" width="10" height="10"/>
<polygon fill="#FFF100" points="115,57.5 117.9,59.5 116.9,56.1 119.8,53.9 116.2,53.9 115,50.5 113.8,53.9 110.2,53.9 113.1,56.1 
	112.1,59.5 "/>
<rect x="120" y="50" fill="#E60012" width="10" height="10"/>
<polygon fill="#FFF100" points="125,57.5 127.9,59.5 126.9,56.1 129.8,53.9 126.2,53.9 125,50.5 123.8,53.9 120.2,53.9 123.1,56.1 
	122.1,59.5 "/>
<rect x="130" y="50" fill="#E60012" width="10" height="10"/>
<polygon fill="#FFF100" points="135,57.5 137.9,59.5 136.9,56.1 139.8,53.9 136.2,53.9 135,50.5 133.8,53.9 130.2,53.9 133.1,56.1 
	132.1,59.5 "/>
<rect x="140" y="50" fill="#E60012" width="10" height="10"/>
<polygon fill="#FFF100" points="145,57.5 147.9,59.5 146.9,56.1 149.8,53.9 146.2,53.9 145,50.5 143.8,53.9 140.2,53.9 143.1,56.1 
	142.1,59.5 "/>
<rect x="150" y="50" fill="#E60012" width="10" height="10"/>
<polygon fill="#FFF100" points="155,57.5 157.9,59.5 156.9,56.1 159.8,53.9 156.2,53.9 155,50.5 153.8,53.9 150.2,53.9 153.1,56.1 
	152.1,59.5 "/>
<rect y="60" fill="#E60012" width="10" height="10"/>
<polygon fill="#FFF100" points="5,67.5 7.9,69.5 6.9,66.1 9.8,63.9 6.2,63.9 5,60.5 3.8,63.9 0.2,63.9 3.1,66.1 2.1,69.5 "/>
<rect x="10" y="60" fill="#E60012" width="10" height="10"/>
<polygon fill="#FFF100" points="15,67.5 17.9,69.5 16.9,66.1 19.8,63.9 16.2,63.9 15,60.5 13.8,63.9 10.2,63.9 13.1,66.1 12.1,69.5 
	"/>
<rect x="20" y="60" fill="#E60012" width="10" height="10"/>
<polygon fill="#FFF100" points="25,67.5 27.9,69.5 26.9,66.1 29.8,63.9 26.2,63.9 25,60.5 23.8,63.9 20.2,63.9 23.1,66.1 22.1,69.5 
	"/>
<rect x="30" y="60" fill="#E60012" width="10" height="10"/>
<polygon fill="#FFF100" points="35,67.5 37.9,69.5 36.9,66.1 39.8,63.9 36.2,63.9 35,60.5 33.8,63.9 30.2,63.9 33.1,66.1 32.1,69.5 
	"/>
<rect x="40" y="60" fill="#E60012" width="10" height="10"/>
<polygon fill="#FFF100" points="45,67.5 47.9,69.5 46.9,66.1 49.8,63.9 46.2,63.9 45,60.5 43.8,63.9 40.2,63.9 43.1,66.1 42.1,69.5 
	"/>
<rect x="50" y="60" fill="#E60012" width="10" height="10"/>
<polygon fill="#FFF100" points="55,67.5 57.9,69.5 56.9,66.1 59.8,63.9 56.2,63.9 55,60.5 53.8,63.9 50.2,63.9 53.1,66.1 52.1,69.5 
	"/>
<rect x="60" y="60" fill="#E60012" width="10" height="10"/>
<polygon fill="#FFF100" points="65,67.5 67.9,69.5 66.9,66.1 69.8,63.9 66.2,63.9 65,60.5 63.8,63.9 60.2,63.9 63.1,66.1 62.1,69.5 
	"/>
<rect x="70" y="60" fill="#E60012" width="10" height="10"/>
<polygon fill="#FFF100" points="75,67.5 77.9,69.5 76.9,66.1 79.8,63.9 76.2,63.9 75,60.5 73.8,63.9 70.2,63.9 73.1,66.1 72.1,69.5 
	"/>
<rect x="80" y="60" fill="#E60012" width="10" height="10"/>
<polygon fill="#FFF100" points="85,67.5 87.9,69.5 86.9,66.1 89.8,63.9 86.2,63.9 85,60.5 83.8,63.9 80.2,63.9 83.1,66.1 82.1,69.5 
	"/>
<rect x="90" y="60" fill="#E60012" width="10" height="10"/>
<polygon fill="#FFF100" points="95,67.5 97.9,69.5 96.9,66.1 99.8,63.9 96.2,63.9 95,60.5 93.8,63.9 90.2,63.9 93.1,66.1 92.1,69.5 
	"/>
<rect x="100" y="60" fill="#E60012" width="10" height="10"/>
<polygon fill="#FFF100" points="105,67.5 107.9,69.5 106.9,66.1 109.8,63.9 106.2,63.9 105,60.5 103.8,63.9 100.2,63.9 103.1,66.1 
	102.1,69.5 "/>
<rect x="110" y="60" fill="#E60012" width="10" height="10"/>
<polygon fill="#FFF100" points="115,67.5 117.9,69.5 116.9,66.1 119.8,63.9 116.2,63.9 115,60.5 113.8,63.9 110.2,63.9 113.1,66.1 
	112.1,69.5 "/>
<rect x="120" y="60" fill="#E60012" width="10" height="10"/>
<polygon fill="#FFF100" points="125,67.5 127.9,69.5 126.9,66.1 129.8,63.9 126.2,63.9 125,60.5 123.8,63.9 120.2,63.9 123.1,66.1 
	122.1,69.5 "/>
<rect x="130" y="60" fill="#E60012" width="10" height="10"/>
<polygon fill="#FFF100" points="135,67.5 137.9,69.5 136.9,66.1 139.8,63.9 136.2,63.9 135,60.5 133.8,63.9 130.2,63.9 133.1,66.1 
	132.1,69.5 "/>
<rect x="140" y="60" fill="#E60012" width="10" height="10"/>
<polygon fill="#FFF100" points="145,67.5 147.9,69.5 146.9,66.1 149.8,63.9 146.2,63.9 145,60.5 143.8,63.9 140.2,63.9 143.1,66.1 
	142.1,69.5 "/>
<rect x="150" y="60" fill="#E60012" width="10" height="10"/>
<polygon fill="#FFF100" points="155,67.5 157.9,69.5 156.9,66.1 159.8,63.9 156.2,63.9 155,60.5 153.8,63.9 150.2,63.9 153.1,66.1 
	152.1,69.5 "/>
<rect y="70" fill="#E60012" width="10" height="10"/>
<polygon fill="#FFF100" points="5,77.5 7.9,79.5 6.9,76.1 9.8,73.9 6.2,73.9 5,70.5 3.8,73.9 0.2,73.9 3.1,76.1 2.1,79.5 "/>
<rect x="10" y="70" fill="#E60012" width="10" height="10"/>
<polygon fill="#FFF100" points="15,77.5 17.9,79.5 16.9,76.1 19.8,73.9 16.2,73.9 15,70.5 13.8,73.9 10.2,73.9 13.1,76.1 12.1,79.5 
	"/>
<rect x="20" y="70" fill="#E60012" width="10" height="10"/>
<polygon fill="#FFF100" points="25,77.5 27.9,79.5 26.9,76.1 29.8,73.9 26.2,73.9 25,70.5 23.8,73.9 20.2,73.9 23.1,76.1 22.1,79.5 
	"/>
<rect x="30" y="70" fill="#E60012" width="10" height="10"/>
<polygon fill="#FFF100" points="35,77.5 37.9,79.5 36.9,76.1 39.8,73.9 36.2,73.9 35,70.5 33.8,73.9 30.2,73.9 33.1,76.1 32.1,79.5 
	"/>
<rect x="40" y="70" fill="#E60012" width="10" height="10"/>
<polygon fill="#FFF100" points="45,77.5 47.9,79.5 46.9,76.1 49.8,73.9 46.2,73.9 45,70.5 43.8,73.9 40.2,73.9 43.1,76.1 42.1,79.5 
	"/>
<rect x="50" y="70" fill="#E60012" width="10" height="10"/>
<polygon fill="#FFF100" points="55,77.5 57.9,79.5 56.9,76.1 59.8,73.9 56.2,73.9 55,70.5 53.8,73.9 50.2,73.9 53.1,76.1 52.1,79.5 
	"/>
<rect x="60" y="70" fill="#E60012" width="10" height="10"/>
<polygon fill="#FFF100" points="65,77.5 67.9,79.5 66.9,76.1 69.8,73.9 66.2,73.9 65,70.5 63.8,73.9 60.2,73.9 63.1,76.1 62.1,79.5 
	"/>
<rect x="70" y="70" fill="#E60012" width="10" height="10"/>
<polygon fill="#FFF100" points="75,77.5 77.9,79.5 76.9,76.1 79.8,73.9 76.2,73.9 75,70.5 73.8,73.9 70.2,73.9 73.1,76.1 72.1,79.5 
	"/>
<rect x="80" y="70" fill="#E60012" width="10" height="10"/>
<polygon fill="#FFF100" points="85,77.5 87.9,79.5 86.9,76.1 89.8,73.9 86.2,73.9 85,70.5 83.8,73.9 80.2,73.9 83.1,76.1 82.1,79.5 
	"/>
<rect x="90" y="70" fill="#E60012" width="10" height="10"/>
<polygon fill="#FFF100" points="95,77.5 97.9,79.5 96.9,76.1 99.8,73.9 96.2,73.9 95,70.5 93.8,73.9 90.2,73.9 93.1,76.1 92.1,79.5 
	"/>
<rect x="100" y="70" fill="#E60012" width="10" height="10"/>
<polygon fill="#FFF100" points="105,77.5 107.9,79.5 106.9,76.1 109.8,73.9 106.2,73.9 105,70.5 103.8,73.9 100.2,73.9 103.1,76.1 
	102.1,79.5 "/>
<rect x="110" y="70" fill="#E60012" width="10" height="10"/>
<polygon fill="#FFF100" points="115,77.5 117.9,79.5 116.9,76.1 119.8,73.9 116.2,73.9 115,70.5 113.8,73.9 110.2,73.9 113.1,76.1 
	112.1,79.5 "/>
<rect x="120" y="70" fill="#E60012" width="10" height="10"/>
<polygon fill="#FFF100" points="125,77.5 127.9,79.5 126.9,76.1 129.8,73.9 126.2,73.9 125,70.5 123.8,73.9 120.2,73.9 123.1,76.1 
	122.1,79.5 "/>
<rect x="130" y="70" fill="#E60012" width="10" height="10"/>
<polygon fill="#FFF100" points="135,77.5 137.9,79.5 136.9,76.1 139.8,73.9 136.2,73.9 135,70.5 133.8,73.9 130.2,73.9 133.1,76.1 
	132.1,79.5 "/>
<rect x="140" y="70" fill="#E60012" width="10" height="10"/>
<polygon fill="#FFF100" points="145,77.5 147.9,79.5 146.9,76.1 149.8,73.9 146.2,73.9 145,70.5 143.8,73.9 140.2,73.9 143.1,76.1 
	142.1,79.5 "/>
<rect x="150" y="70" fill="#E60012" width="10" height="10"/>
<polygon fill="#FFF100" points="155,77.5 157.9,79.5 156.9,76.1 159.8,73.9 156.2,73.9 155,70.5 153.8,73.9 150.2,73.9 153.1,76.1 
	152.1,79.5 "/>
<rect y="80" fill="#E60012" width="10" height="10"/>
<polygon fill="#FFF100" points="5,87.5 7.9,89.5 6.9,86.1 9.8,83.9 6.2,83.9 5,80.5 3.8,83.9 0.2,83.9 3.1,86.1 2.1,89.5 "/>
<rect x="10" y="80" fill="#E60012" width="10" height="10"/>
<polygon fill="#FFF100" points="15,87.5 17.9,89.5 16.9,86.1 19.8,83.9 16.2,83.9 15,80.5 13.8,83.9 10.2,83.9 13.1,86.1 12.1,89.5 
	"/>
<rect x="20" y="80" fill="#E60012" width="10" height="10"/>
<polygon fill="#FFF100" points="25,87.5 27.9,89.5 26.9,86.1 29.8,83.9 26.2,83.9 25,80.5 23.8,83.9 20.2,83.9 23.1,86.1 22.1,89.5 
	"/>
<rect x="30" y="80" fill="#E60012" width="10" height="10"/>
<polygon fill="#FFF100" points="35,87.5 37.9,89.5 36.9,86.1 39.8,83.9 36.2,83.9 35,80.5 33.8,83.9 30.2,83.9 33.1,86.1 32.1,89.5 
	"/>
<rect x="40" y="80" fill="#E60012" width="10" height="10"/>
<polygon fill="#FFF100" points="45,87.5 47.9,89.5 46.9,86.1 49.8,83.9 46.2,83.9 45,80.5 43.8,83.9 40.2,83.9 43.1,86.1 42.1,89.5 
	"/>
<rect x="50" y="80" fill="#E60012" width="10" height="10"/>
<polygon fill="#FFF100" points="55,87.5 57.9,89.5 56.9,86.1 59.8,83.9 56.2,83.9 55,80.5 53.8,83.9 50.2,83.9 53.1,86.1 52.1,89.5 
	"/>
<rect x="60" y="80" fill="#E60012" width="10" height="10"/>
<polygon fill="#FFF100" points="65,87.5 67.9,89.5 66.9,86.1 69.8,83.9 66.2,83.9 65,80.5 63.8,83.9 60.2,83.9 63.1,86.1 62.1,89.5 
	"/>
<rect x="70" y="80" fill="#E60012" width="10" height="10"/>
<polygon fill="#FFF100" points="75,87.5 77.9,89.5 76.9,86.1 79.8,83.9 76.2,83.9 75,80.5 73.8,83.9 70.2,83.9 73.1,86.1 72.1,89.5 
	"/>
<rect x="80" y="80" fill="#E60012" width="10" height="10"/>
<polygon fill="#FFF100" points="85,87.5 87.9,89.5 86.9,86.1 89.8,83.9 86.2,83.9 85,80.5 83.8,83.9 80.2,83.9 83.1,86.1 82.1,89.5 
	"/>
<rect x="90" y="80" fill="#E60012" width="10" height="10"/>
<polygon fill="#FFF100" points="95,87.5 97.9,89.5 96.9,86.1 99.8,83.9 96.2,83.9 95,80.5 93.8,83.9 90.2,83.9 93.1,86.1 92.1,89.5 
	"/>
<rect x="100" y="80" fill="#E60012" width="10" height="10"/>
<polygon fill="#FFF100" points="105,87.5 107.9,89.5 106.9,86.1 109.8,83.9 106.2,83.9 105,80.5 103.8,83.9 100.2,83.9 103.1,86.1 
	102.1,89.5 "/>
<rect x="110" y="80" fill="#E60012" width="10" height="10"/>
<polygon fill="#FFF100" points="115,87.5 117.9,89.5 116.9,86.1 119.8,83.9 116.2,83.9 115,80.5 113.8,83.9 110.2,83.9 113.1,86.1 
	112.1,89.5 "/>
<rect x="120" y="80" fill="#E60012" width="10" height="10"/>
<polygon fill="#FFF100" points="125,87.5 127.9,89.5 126.9,86.1 129.8,83.9 126.2,83.9 125,80.5 123.8,83.9 120.2,83.9 123.1,86.1 
	122.1,89.5 "/>
<rect x="130" y="80" fill="#E60012" width="10" height="10"/>
<polygon fill="#FFF100" points="135,87.5 137.9,89.5 136.9,86.1 139.8,83.9 136.2,83.9 135,80.5 133.8,83.9 130.2,83.9 133.1,86.1 
	132.1,89.5 "/>
<rect x="140" y="80" fill="#E60012" width="10" height="10"/>
<polygon fill="#FFF100" points="145,87.5 147.9,89.5 146.9,86.1 149.8,83.9 146.2,83.9 145,80.5 143.8,83.9 140.2,83.9 143.1,86.1 
	142.1,89.5 "/>
<rect x="150" y="80" fill="#E60012" width="10" height="10"/>
<polygon fill="#FFF100" points="155,87.5 157.9,89.5 156.9,86.1 159.8,83.9 156.2,83.9 155,80.5 153.8,83.9 150.2,83.9 153.1,86.1 
	152.1,89.5 "/>
<rect y="90" fill="#E60012" width="10" height="10"/>
<polygon fill="#FFF100" points="5,97.5 7.9,99.5 6.9,96.1 9.8,93.9 6.2,93.9 5,90.5 3.8,93.9 0.2,93.9 3.1,96.1 2.1,99.5 "/>
<rect x="10" y="90" fill="#E60012" width="10" height="10"/>
<polygon fill="#FFF100" points="15,97.5 17.9,99.5 16.9,96.1 19.8,93.9 16.2,93.9 15,90.5 13.8,93.9 10.2,93.9 13.1,96.1 12.1,99.5 
	"/>
<rect x="20" y="90" fill="#E60012" width="10" height="10"/>
<polygon fill="#FFF100" points="25,97.5 27.9,99.5 26.9,96.1 29.8,93.9 26.2,93.9 25,90.5 23.8,93.9 20.2,93.9 23.1,96.1 22.1,99.5 
	"/>
<rect x="30" y="90" fill="#E60012" width="10" height="10"/>
<polygon fill="#FFF100" points="35,97.5 37.9,99.5 36.9,96.1 39.8,93.9 36.2,93.9 35,90.5 33.8,93.9 30.2,93.9 33.1,96.1 32.1,99.5 
	"/>
<rect x="40" y="90" fill="#E60012" width="10" height="10"/>
<polygon fill="#FFF100" points="45,97.5 47.9,99.5 46.9,96.1 49.8,93.9 46.2,93.9 45,90.5 43.8,93.9 40.2,93.9 43.1,96.1 42.1,99.5 
	"/>
<rect x="50" y="90" fill="#E60012" width="10" height="10"/>
<polygon fill="#FFF100" points="55,97.5 57.9,99.5 56.9,96.1 59.8,93.9 56.2,93.9 55,90.5 53.8,93.9 50.2,93.9 53.1,96.1 52.1,99.5 
	"/>
<rect x="60" y="90" fill="#E60012" width="10" height="10"/>
<polygon fill="#FFF100" points="65,97.5 67.9,99.5 66.9,96.1 69.8,93.9 66.2,93.9 65,90.5 63.8,93.9 60.2,93.9 63.1,96.1 62.1,99.5 
	"/>
<rect x="70" y="90" fill="#E60012" width="10" height="10"/>
<polygon fill="#FFF100" points="75,97.5 77.9,99.5 76.9,96.1 79.8,93.9 76.2,93.9 75,90.5 73.8,93.9 70.2,93.9 73.1,96.1 72.1,99.5 
	"/>
<rect x="80" y="90" fill="#E60012" width="10" height="10"/>
<polygon fill="#FFF100" points="85,97.5 87.9,99.5 86.9,96.1 89.8,93.9 86.2,93.9 85,90.5 83.8,93.9 80.2,93.9 83.1,96.1 82.1,99.5 
	"/>
<rect x="90" y="90" fill="#E60012" width="10" height="10"/>
<polygon fill="#FFF100" points="95,97.5 97.9,99.5 96.9,96.1 99.8,93.9 96.2,93.9 95,90.5 93.8,93.9 90.2,93.9 93.1,96.1 92.1,99.5 
	"/>
<rect x="100" y="90" fill="#E60012" width="10" height="10"/>
<polygon fill="#FFF100" points="105,97.5 107.9,99.5 106.9,96.1 109.8,93.9 106.2,93.9 105,90.5 103.8,93.9 100.2,93.9 103.1,96.1 
	102.1,99.5 "/>
<rect x="110" y="90" fill="#E60012" width="10" height="10"/>
<polygon fill="#FFF100" points="115,97.5 117.9,99.5 116.9,96.1 119.8,93.9 116.2,93.9 115,90.5 113.8,93.9 110.2,93.9 113.1,96.1 
	112.1,99.5 "/>
<rect x="120" y="90" fill="#E60012" width="10" height="10"/>
<polygon fill="#FFF100" points="125,97.5 127.9,99.5 126.9,96.1 129.8,93.9 126.2,93.9 125,90.5 123.8,93.9 120.2,93.9 123.1,96.1 
	122.1,99.5 "/>
<rect x="130" y="90" fill="#E60012" width="10" height="10"/>
<polygon fill="#FFF100" points="135,97.5 137.9,99.5 136.9,96.1 139.8,93.9 136.2,93.9 135,90.5 133.8,93.9 130.2,93.9 133.1,96.1 
	132.1,99.5 "/>
<rect x="140" y="90" fill="#E60012" width="10" height="10"/>
<polygon fill="#FFF100" points="145,97.5 147.9,99.5 146.9,96.1 149.8,93.9 146.2,93.9 145,90.5 143.8,93.9 140.2,93.9 143.1,96.1 
	142.1,99.5 "/>
<rect x="150" y="90" fill="#E60012" width="10" height="10"/>
<polygon fill="#FFF100" points="155,97.5 157.9,99.5 156.9,96.1 159.8,93.9 156.2,93.9 155,90.5 153.8,93.9 150.2,93.9 153.1,96.1 
	152.1,99.5 "/>
<rect y="100" fill="#E60012" width="10" height="10"/>
<polygon fill="#FFF100" points="5,107.5 7.9,109.5 6.9,106.1 9.8,103.9 6.2,103.9 5,100.5 3.8,103.9 0.2,103.9 3.1,106.1 2.1,109.5 
	"/>
<rect x="10" y="100" fill="#E60012" width="10" height="10"/>
<polygon fill="#FFF100" points="15,107.5 17.9,109.5 16.9,106.1 19.8,103.9 16.2,103.9 15,100.5 13.8,103.9 10.2,103.9 13.1,106.1 
	12.1,109.5 "/>
<rect x="20" y="100" fill="#E60012" width="10" height="10"/>
<polygon fill="#FFF100" points="25,107.5 27.9,109.5 26.9,106.1 29.8,103.9 26.2,103.9 25,100.5 23.8,103.9 20.2,103.9 23.1,106.1 
	22.1,109.5 "/>
<rect x="30" y="100" fill="#E60012" width="10" height="10"/>
<polygon fill="#FFF100" points="35,107.5 37.9,109.5 36.9,106.1 39.8,103.9 36.2,103.9 35,100.5 33.8,103.9 30.2,103.9 33.1,106.1 
	32.1,109.5 "/>
<rect x="40" y="100" fill="#E60012" width="10" height="10"/>
<polygon fill="#FFF100" points="45,107.5 47.9,109.5 46.9,106.1 49.8,103.9 46.2,103.9 45,100.5 43.8,103.9 40.2,103.9 43.1,106.1 
	42.1,109.5 "/>
<rect x="50" y="100" fill="#E60012" width="10" height="10"/>
<polygon fill="#FFF100" points="55,107.5 57.9,109.5 56.9,106.1 59.8,103.9 56.2,103.9 55,100.5 53.8,103.9 50.2,103.9 53.1,106.1 
	52.1,109.5 "/>
<rect x="60" y="100" fill="#E60012" width="10" height="10"/>
<polygon fill="#FFF100" points="65,107.5 67.9,109.5 66.9,106.1 69.8,103.9 66.2,103.9 65,100.5 63.8,103.9 60.2,103.9 63.1,106.1 
	62.1,109.5 "/>
<rect x="70" y="100" fill="#E60012" width="10" height="10"/>
<polygon fill="#FFF100" points="75,107.5 77.9,109.5 76.9,106.1 79.8,103.9 76.2,103.9 75,100.5 73.8,103.9 70.2,103.9 73.1,106.1 
	72.1,109.5 "/>
<rect x="80" y="100" fill="#E60012" width="10" height="10"/>
<polygon fill="#FFF100" points="85,107.5 87.9,109.5 86.9,106.1 89.8,103.9 86.2,103.9 85,100.5 83.8,103.9 80.2,103.9 83.1,106.1 
	82.1,109.5 "/>
<rect x="90" y="100" fill="#E60012" width="10" height="10"/>
<polygon fill="#FFF100" points="95,107.5 97.9,109.5 96.9,106.1 99.8,103.9 96.2,103.9 95,100.5 93.8,103.9 90.2,103.9 93.1,106.1 
	92.1,109.5 "/>
<rect x="100" y="100" fill="#E60012" width="10" height="10"/>
<polygon fill="#FFF100" points="105,107.5 107.9,109.5 106.9,106.1 109.8,103.9 106.2,103.9 105,100.5 103.8,103.9 100.2,103.9 
	103.1,106.1 102.1,109.5 "/>
<rect x="110" y="100" fill="#E60012" width="10" height="10"/>
<polygon fill="#FFF100" points="115,107.5 117.9,109.5 116.9,106.1 119.8,103.9 116.2,103.9 115,100.5 113.8,103.9 110.2,103.9 
	113.1,106.1 112.1,109.5 "/>
<rect x="120" y="100" fill="#E60012" width="10" height="10"/>
<polygon fill="#FFF100" points="125,107.5 127.9,109.5 126.9,106.1 129.8,103.9 126.2,103.9 125,100.5 123.8,103.9 120.2,103.9 
	123.1,106.1 122.1,109.5 "/>
<rect x="130" y="100" fill="#E60012" width="10" height="10"/>
<polygon fill="#FFF100" points="135,107.5 137.9,109.5 136.9,106.1 139.8,103.9 136.2,103.9 135,100.5 133.8,103.9 130.2,103.9 
	133.1,106.1 132.1,109.5 "/>
<rect x="140" y="100" fill="#E60012" width="10" height="10"/>
<polygon fill="#FFF100" points="145,107.5 147.9,109.5 146.9,106.1 149.8,103.9 146.2,103.9 145,100.5 143.8,103.9 140.2,103.9 
	143.1,106.1 142.1,109.5 "/>
<rect x="150" y="100" fill="#E60012" width="10" height="10"/>
<polygon fill="#FFF100" points="155,107.5 157.9,109.5 156.9,106.1 159.8,103.9 156.2,103.9 155,100.5 153.8,103.9 150.2,103.9 
	153.1,106.1 152.1,109.5 "/>
<rect y="110" fill="#E60012" width="10" height="10"/>
<polygon fill="#FFF100" points="5,117.5 7.9,119.5 6.9,116.1 9.8,113.9 6.2,113.9 5,110.5 3.8,113.9 0.2,113.9 3.1,116.1 2.1,119.5 
	"/>
<rect x="10" y="110" fill="#E60012" width="10" height="10"/>
<polygon fill="#FFF100" points="15,117.5 17.9,119.5 16.9,116.1 19.8,113.9 16.2,113.9 15,110.5 13.8,113.9 10.2,113.9 13.1,116.1 
	12.1,119.5 "/>
<rect x="20" y="110" fill="#E60012" width="10" height="10"/>
<polygon fill="#FFF100" points="25,117.5 27.9,119.5 26.9,116.1 29.8,113.9 26.2,113.9 25,110.5 23.8,113.9 20.2,113.9 23.1,116.1 
	22.1,119.5 "/>
<rect x="30" y="110" fill="#E60012" width="10" height="10"/>
<polygon fill="#FFF100" points="35,117.5 37.9,119.5 36.9,116.1 39.8,113.9 36.2,113.9 35,110.5 33.8,113.9 30.2,113.9 33.1,116.1 
	32.1,119.5 "/>
<rect x="40" y="110" fill="#E60012" width="10" height="10"/>
<polygon fill="#FFF100" points="45,117.5 47.9,119.5 46.9,116.1 49.8,113.9 46.2,113.9 45,110.5 43.8,113.9 40.2,113.9 43.1,116.1 
	42.1,119.5 "/>
<rect x="50" y="110" fill="#E60012" width="10" height="10"/>
<polygon fill="#FFF100" points="55,117.5 57.9,119.5 56.9,116.1 59.8,113.9 56.2,113.9 55,110.5 53.8,113.9 50.2,113.9 53.1,116.1 
	52.1,119.5 "/>
<rect x="60" y="110" fill="#E60012" width="10" height="10"/>
<polygon fill="#FFF100" points="65,117.5 67.9,119.5 66.9,116.1 69.8,113.9 66.2,113.9 65,110.5 63.8,113.9 60.2,113.9 63.1,116.1 
	62.1,119.5 "/>
<rect x="70" y="110" fill="#E60012" width="10" height="10"/>
<polygon fill="#FFF100" points="75,117.5 77.9,119.5 76.9,116.1 79.8,113.9 76.2,113.9 75,110.5 73.8,113.9 70.2,113.9 73.1,116.1 
	72.1,119.5 "/>
<rect x="80" y="110" fill="#E60012" width="10" height="10"/>
<polygon fill="#FFF100" points="85,117.5 87.9,119.5 86.9,116.1 89.8,113.9 86.2,113.9 85,110.5 83.8,113.9 80.2,113.9 83.1,116.1 
	82.1,119.5 "/>
<rect x="90" y="110" fill="#E60012" width="10" height="10"/>
<polygon fill="#FFF100" points="95,117.5 97.9,119.5 96.9,116.1 99.8,113.9 96.2,113.9 95,110.5 93.8,113.9 90.2,113.9 93.1,116.1 
	92.1,119.5 "/>
<rect x="100" y="110" fill="#E60012" width="10" height="10"/>
<polygon fill="#FFF100" points="105,117.5 107.9,119.5 106.9,116.1 109.8,113.9 106.2,113.9 105,110.5 103.8,113.9 100.2,113.9 
	103.1,116.1 102.1,119.5 "/>
<rect x="110" y="110" fill="#E60012" width="10" height="10"/>
<polygon fill="#FFF100" points="115,117.5 117.9,119.5 116.9,116.1 119.8,113.9 116.2,113.9 115,110.5 113.8,113.9 110.2,113.9 
	113.1,116.1 112.1,119.5 "/>
<rect x="120" y="110" fill="#E60012" width="10" height="10"/>
<polygon fill="#FFF100" points="125,117.5 127.9,119.5 126.9,116.1 129.8,113.9 126.2,113.9 125,110.5 123.8,113.9 120.2,113.9 
	123.1,116.1 122.1,119.5 "/>
<rect x="130" y="110" fill="#E60012" width="10" height="10"/>
<polygon fill="#FFF100" points="135,117.5 137.9,119.5 136.9,116.1 139.8,113.9 136.2,113.9 135,110.5 133.8,113.9 130.2,113.9 
	133.1,116.1 132.1,119.5 "/>
<rect x="140" y="110" fill="#E60012" width="10" height="10"/>
<polygon fill="#FFF100" points="145,117.5 147.9,119.5 146.9,116.1 149.8,113.9 146.2,113.9 145,110.5 143.8,113.9 140.2,113.9 
	143.1,116.1 142.1,119.5 "/>
<rect x="150" y="110" fill="#E60012" width="10" height="10"/>
<polygon fill="#FFF100" points="155,117.5 157.9,119.5 156.9,116.1 159.8,113.9 156.2,113.9 155,110.5 153.8,113.9 150.2,113.9 
	153.1,116.1 152.1,119.5 "/>
<rect y="120" fill="#E60012" width="10" height="10"/>
<polygon fill="#FFF100" points="5,127.5 7.9,129.5 6.9,126.1 9.8,123.9 6.2,123.9 5,120.5 3.8,123.9 0.2,123.9 3.1,126.1 2.1,129.5 
	"/>
<rect x="10" y="120" fill="#E60012" width="10" height="10"/>
<polygon fill="#FFF100" points="15,127.5 17.9,129.5 16.9,126.1 19.8,123.9 16.2,123.9 15,120.5 13.8,123.9 10.2,123.9 13.1,126.1 
	12.1,129.5 "/>
<rect x="20" y="120" fill="#E60012" width="10" height="10"/>
<polygon fill="#FFF100" points="25,127.5 27.9,129.5 26.9,126.1 29.8,123.9 26.2,123.9 25,120.5 23.8,123.9 20.2,123.9 23.1,126.1 
	22.1,129.5 "/>
<rect x="30" y="120" fill="#E60012" width="10" height="10"/>
<polygon fill="#FFF100" points="35,127.5 37.9,129.5 36.9,126.1 39.8,123.9 36.2,123.9 35,120.5 33.8,123.9 30.2,123.9 33.1,126.1 
	32.1,129.5 "/>
<rect x="40" y="120" fill="#E60012" width="10" height="10"/>
<polygon fill="#FFF100" points="45,127.5 47.9,129.5 46.9,126.1 49.8,123.9 46.2,123.9 45,120.5 43.8,123.9 40.2,123.9 43.1,126.1 
	42.1,129.5 "/>
<rect x="50" y="120" fill="#E60012" width="10" height="10"/>
<polygon fill="#FFF100" points="55,127.5 57.9,129.5 56.9,126.1 59.8,123.9 56.2,123.9 55,120.5 53.8,123.9 50.2,123.9 53.1,126.1 
	52.1,129.5 "/>
<rect x="60" y="120" fill="#E60012" width="10" height="10"/>
<polygon fill="#FFF100" points="65,127.5 67.9,129.5 66.9,126.1 69.8,123.9 66.2,123.9 65,120.5 63.8,123.9 60.2,123.9 63.1,126.1 
	62.1,129.5 "/>
<rect x="70" y="120" fill="#E60012" width="10" height="10"/>
<polygon fill="#FFF100" points="75,127.5 77.9,129.5 76.9,126.1 79.8,123.9 76.2,123.9 75,120.5 73.8,123.9 70.2,123.9 73.1,126.1 
	72.1,129.5 "/>
<rect x="80" y="120" fill="#E60012" width="10" height="10"/>
<polygon fill="#FFF100" points="85,127.5 87.9,129.5 86.9,126.1 89.8,123.9 86.2,123.9 85,120.5 83.8,123.9 80.2,123.9 83.1,126.1 
	82.1,129.5 "/>
<rect x="90" y="120" fill="#E60012" width="10" height="10"/>
<polygon fill="#FFF100" points="95,127.5 97.9,129.5 96.9,126.1 99.8,123.9 96.2,123.9 95,120.5 93.8,123.9 90.2,123.9 93.1,126.1 
	92.1,129.5 "/>
<rect x="100" y="120" fill="#E60012" width="10" height="10"/>
<polygon fill="#FFF100" points="105,127.5 107.9,129.5 106.9,126.1 109.8,123.9 106.2,123.9 105,120.5 103.8,123.9 100.2,123.9 
	103.1,126.1 102.1,129.5 "/>
<rect x="110" y="120" fill="#E60012" width="10" height="10"/>
<polygon fill="#FFF100" points="115,127.5 117.9,129.5 116.9,126.1 119.8,123.9 116.2,123.9 115,120.5 113.8,123.9 110.2,123.9 
	113.1,126.1 112.1,129.5 "/>
<rect x="120" y="120" fill="#E60012" width="10" height="10"/>
<polygon fill="#FFF100" points="125,127.5 127.9,129.5 126.9,126.1 129.8,123.9 126.2,123.9 125,120.5 123.8,123.9 120.2,123.9 
	123.1,126.1 122.1,129.5 "/>
<rect x="130" y="120" fill="#E60012" width="10" height="10"/>
<polygon fill="#FFF100" points="135,127.5 137.9,129.5 136.9,126.1 139.8,123.9 136.2,123.9 135,120.5 133.8,123.9 130.2,123.9 
	133.1,126.1 132.1,129.5 "/>
<rect x="140" y="120" fill="#E60012" width="10" height="10"/>
<polygon fill="#FFF100" points="145,127.5 147.9,129.5 146.9,126.1 149.8,123.9 146.2,123.9 145,120.5 143.8,123.9 140.2,123.9 
	143.1,126.1 142.1,129.5 "/>
<rect x="150" y="120" fill="#E60012" width="10" height="10"/>
<polygon fill="#FFF100" points="155,127.5 157.9,129.5 156.9,126.1 159.8,123.9 156.2,123.9 155,120.5 153.8,123.9 150.2,123.9 
	153.1,126.1 152.1,129.5 "/>
<rect y="130" fill="#E60012" width="10" height="10"/>
<polygon fill="#FFF100" points="5,137.5 7.9,139.5 6.9,136.1 9.8,133.9 6.2,133.9 5,130.5 3.8,133.9 0.2,133.9 3.1,136.1 2.1,139.5 
	"/>
<rect x="10" y="130" fill="#E60012" width="10" height="10"/>
<polygon fill="#FFF100" points="15,137.5 17.9,139.5 16.9,136.1 19.8,133.9 16.2,133.9 15,130.5 13.8,133.9 10.2,133.9 13.1,136.1 
	12.1,139.5 "/>
<rect x="20" y="130" fill="#E60012" width="10" height="10"/>
<polygon fill="#FFF100" points="25,137.5 27.9,139.5 26.9,136.1 29.8,133.9 26.2,133.9 25,130.5 23.8,133.9 20.2,133.9 23.1,136.1 
	22.1,139.5 "/>
<rect x="30" y="130" fill="#E60012" width="10" height="10"/>
<polygon fill="#FFF100" points="35,137.5 37.9,139.5 36.9,136.1 39.8,133.9 36.2,133.9 35,130.5 33.8,133.9 30.2,133.9 33.1,136.1 
	32.1,139.5 "/>
<rect x="40" y="130" fill="#E60012" width="10" height="10"/>
<polygon fill="#FFF100" points="45,137.5 47.9,139.5 46.9,136.1 49.8,133.9 46.2,133.9 45,130.5 43.8,133.9 40.2,133.9 43.1,136.1 
	42.1,139.5 "/>
<rect x="50" y="130" fill="#E60012" width="10" height="10"/>
<polygon fill="#FFF100" points="55,137.5 57.9,139.5 56.9,136.1 59.8,133.9 56.2,133.9 55,130.5 53.8,133.9 50.2,133.9 53.1,136.1 
	52.1,139.5 "/>
<rect x="60" y="130" fill="#E60012" width="10" height="10"/>
<polygon fill="#FFF100" points="65,137.5 67.9,139.5 66.9,136.1 69.8,133.9 66.2,133.9 65,130.5 63.8,133.9 60.2,133.9 63.1,136.1 
	62.1,139.5 "/>
<rect x="70" y="130" fill="#E60012" width="10" height="10"/>
<polygon fill="#FFF100" points="75,137.5 77.9,139.5 76.9,136.1 79.8,133.9 76.2,133.9 75,130.5 73.8,133.9 70.2,133.9 73.1,136.1 
	72.1,139.5 "/>
<rect x="80" y="130" fill="#E60012" width="10" height="10"/>
<polygon fill="#FFF100" points="85,137.5 87.9,139.5 86.9,136.1 89.8,133.9 86.2,133.9 85,130.5 83.8,133.9 80.2,133.9 83.1,136.1 
	82.1,139.5 "/>
<rect x="90" y="130" fill="#E60012" width="10" height="10"/>
<polygon fill="#FFF100" points="95,137.5 97.9,139.5 96.9,136.1 99.8,133.9 96.2,133.9 95,130.5 93.8,133.9 90.2,133.9 93.1,136.1 
	92.1,139.5 "/>
<rect x="100" y="130" fill="#E60012" width="10" height="10"/>
<polygon fill="#FFF100" points="105,137.5 107.9,139.5 106.9,136.1 109.8,133.9 106.2,133.9 105,130.5 103.8,133.9 100.2,133.9 
	103.1,136.1 102.1,139.5 "/>
<rect x="110" y="130" fill="#E60012" width="10" height="10"/>
<polygon fill="#FFF100" points="115,137.5 117.9,139.5 116.9,136.1 119.8,133.9 116.2,133.9 115,130.5 113.8,133.9 110.2,133.9 
	113.1,136.1 112.1,139.5 "/>
<rect x="120" y="130" fill="#E60012" width="10" height="10"/>
<polygon fill="#FFF100" points="125,137.5 127.9,139.5 126.9,136.1 129.8,133.9 126.2,133.9 125,130.5 123.8,133.9 120.2,133.9 
	123.1,136.1 122.1,139.5 "/>
<rect x="130" y="130" fill="#E60012" width="10" height="10"/>
<polygon fill="#FFF100" points="135,137.5 137.9,139.5 136.9,136.1 139.8,133.9 136.2,133.9 135,130.5 133.8,133.9 130.2,133.9 
	133.1,136.1 132.1,139.5 "/>
<rect x="140" y="130" fill="#E60012" width="10" height="10"/>
<polygon fill="#FFF100" points="145,137.5 147.9,139.5 146.9,136.1 149.8,133.9 146.2,133.9 145,130.5 143.8,133.9 140.2,133.9 
	143.1,136.1 142.1,139.5 "/>
<rect x="150" y="130" fill="#E60012" width="10" height="10"/>
<polygon fill="#FFF100" points="155,137.5 157.9,139.5 156.9,136.1 159.8,133.9 156.2,133.9 155,130.5 153.8,133.9 150.2,133.9 
	153.1,136.1 152.1,139.5 "/>
<rect y="140" fill="#E60012" width="10" height="10"/>
<polygon fill="#FFF100" points="5,147.5 7.9,149.5 6.9,146.1 9.8,143.9 6.2,143.9 5,140.5 3.8,143.9 0.2,143.9 3.1,146.1 2.1,149.5 
	"/>
<rect x="10" y="140" fill="#E60012" width="10" height="10"/>
<polygon fill="#FFF100" points="15,147.5 17.9,149.5 16.9,146.1 19.8,143.9 16.2,143.9 15,140.5 13.8,143.9 10.2,143.9 13.1,146.1 
	12.1,149.5 "/>
<rect x="20" y="140" fill="#E60012" width="10" height="10"/>
<polygon fill="#FFF100" points="25,147.5 27.9,149.5 26.9,146.1 29.8,143.9 26.2,143.9 25,140.5 23.8,143.9 20.2,143.9 23.1,146.1 
	22.1,149.5 "/>
<rect x="30" y="140" fill="#E60012" width="10" height="10"/>
<polygon fill="#FFF100" points="35,147.5 37.9,149.5 36.9,146.1 39.8,143.9 36.2,143.9 35,140.5 33.8,143.9 30.2,143.9 33.1,146.1 
	32.1,149.5 "/>
<rect x="40" y="140" fill="#E60012" width="10" height="10"/>
<polygon fill="#FFF100" points="45,147.5 47.9,149.5 46.9,146.1 49.8,143.9 46.2,143.9 45,140.5 43.8,143.9 40.2,143.9 43.1,146.1 
	42.1,149.5 "/>
<rect x="50" y="140" fill="#E60012" width="10" height="10"/>
<polygon fill="#FFF100" points="55,147.5 57.9,149.5 56.9,146.1 59.8,143.9 56.2,143.9 55,140.5 53.8,143.9 50.2,143.9 53.1,146.1 
	52.1,149.5 "/>
<rect x="60" y="140" fill="#E60012" width="10" height="10"/>
<polygon fill="#FFF100" points="65,147.5 67.9,149.5 66.9,146.1 69.8,143.9 66.2,143.9 65,140.5 63.8,143.9 60.2,143.9 63.1,146.1 
	62.1,149.5 "/>
<rect x="70" y="140" fill="#E60012" width="10" height="10"/>
<polygon fill="#FFF100" points="75,147.5 77.9,149.5 76.9,146.1 79.8,143.9 76.2,143.9 75,140.5 73.8,143.9 70.2,143.9 73.1,146.1 
	72.1,149.5 "/>
<rect x="80" y="140" fill="#E60012" width="10" height="10"/>
<polygon fill="#FFF100" points="85,147.5 87.9,149.5 86.9,146.1 89.8,143.9 86.2,143.9 85,140.5 83.8,143.9 80.2,143.9 83.1,146.1 
	82.1,149.5 "/>
<rect x="90" y="140" fill="#E60012" width="10" height="10"/>
<polygon fill="#FFF100" points="95,147.5 97.9,149.5 96.9,146.1 99.8,143.9 96.2,143.9 95,140.5 93.8,143.9 90.2,143.9 93.1,146.1 
	92.1,149.5 "/>
<rect x="100" y="140" fill="#E60012" width="10" height="10"/>
<polygon fill="#FFF100" points="105,147.5 107.9,149.5 106.9,146.1 109.8,143.9 106.2,143.9 105,140.5 103.8,143.9 100.2,143.9 
	103.1,146.1 102.1,149.5 "/>
<rect x="110" y="140" fill="#E60012" width="10" height="10"/>
<polygon fill="#FFF100" points="115,147.5 117.9,149.5 116.9,146.1 119.8,143.9 116.2,143.9 115,140.5 113.8,143.9 110.2,143.9 
	113.1,146.1 112.1,149.5 "/>
<rect x="120" y="140" fill="#E60012" width="10" height="10"/>
<polygon fill="#FFF100" points="125,147.5 127.9,149.5 126.9,146.1 129.8,143.9 126.2,143.9 125,140.5 123.8,143.9 120.2,143.9 
	123.1,146.1 122.1,149.5 "/>
<rect x="130" y="140" fill="#E60012" width="10" height="10"/>
<polygon fill="#FFF100" points="135,147.5 137.9,149.5 136.9,146.1 139.8,143.9 136.2,143.9 135,140.5 133.8,143.9 130.2,143.9 
	133.1,146.1 132.1,149.5 "/>
<rect x="140" y="140" fill="#E60012" width="10" height="10"/>
<polygon fill="#FFF100" points="145,147.5 147.9,149.5 146.9,146.1 149.8,143.9 146.2,143.9 145,140.5 143.8,143.9 140.2,143.9 
	143.1,146.1 142.1,149.5 "/>
<rect x="150" y="140" fill="#E60012" width="10" height="10"/>
<polygon fill="#FFF100" points="155,147.5 157.9,149.5 156.9,146.1 159.8,143.9 156.2,143.9 155,140.5 153.8,143.9 150.2,143.9 
	153.1,146.1 152.1,149.5 "/>
<rect y="150" fill="#E60012" width="10" height="10"/>
<polygon fill="#FFF100" points="5,157.5 7.9,159.5 6.9,156.1 9.8,153.9 6.2,153.9 5,150.5 3.8,153.9 0.2,153.9 3.1,156.1 2.1,159.5 
	"/>
<rect x="10" y="150" fill="#E60012" width="10" height="10"/>
<polygon fill="#FFF100" points="15,157.5 17.9,159.5 16.9,156.1 19.8,153.9 16.2,153.9 15,150.5 13.8,153.9 10.2,153.9 13.1,156.1 
	12.1,159.5 "/>
<rect x="20" y="150" fill="#E60012" width="10" height="10"/>
<polygon fill="#FFF100" points="25,157.5 27.9,159.5 26.9,156.1 29.8,153.9 26.2,153.9 25,150.5 23.8,153.9 20.2,153.9 23.1,156.1 
	22.1,159.5 "/>
<rect x="30" y="150" fill="#E60012" width="10" height="10"/>
<polygon fill="#FFF100" points="35,157.5 37.9,159.5 36.9,156.1 39.8,153.9 36.2,153.9 35,150.5 33.8,153.9 30.2,153.9 33.1,156.1 
	32.1,159.5 "/>
<rect x="40" y="150" fill="#E60012" width="10" height="10"/>
<polygon fill="#FFF100" points="45,157.5 47.9,159.5 46.9,156.1 49.8,153.9 46.2,153.9 45,150.5 43.8,153.9 40.2,153.9 43.1,156.1 
	42.1,159.5 "/>
<rect x="50" y="150" fill="#E60012" width="10" height="10"/>
<polygon fill="#FFF100" points="55,157.5 57.9,159.5 56.9,156.1 59.8,153.9 56.2,153.9 55,150.5 53.8,153.9 50.2,153.9 53.1,156.1 
	52.1,159.5 "/>
<rect x="60" y="150" fill="#E60012" width="10" height="10"/>
<polygon fill="#FFF100" points="65,157.5 67.9,159.5 66.9,156.1 69.8,153.9 66.2,153.9 65,150.5 63.8,153.9 60.2,153.9 63.1,156.1 
	62.1,159.5 "/>
<rect x="70" y="150" fill="#E60012" width="10" height="10"/>
<polygon fill="#FFF100" points="75,157.5 77.9,159.5 76.9,156.1 79.8,153.9 76.2,153.9 75,150.5 73.8,153.9 70.2,153.9 73.1,156.1 
	72.1,159.5 "/>
<rect x="80" y="150" fill="#E60012" width="10" height="10"/>
<polygon fill="#FFF100" points="85,157.5 87.9,159.5 86.9,156.1 89.8,153.9 86.2,153.9 85,150.5 83.8,153.9 80.2,153.9 83.1,156.1 
	82.1,159.5 "/>
<rect x="90" y="150" fill="#E60012" width="10" height="10"/>
<polygon fill="#FFF100" points="95,157.5 97.9,159.5 96.9,156.1 99.8,153.9 96.2,153.9 95,150.5 93.8,153.9 90.2,153.9 93.1,156.1 
	92.1,159.5 "/>
<rect x="100" y="150" fill="#E60012" width="10" height="10"/>
<polygon fill="#FFF100" points="105,157.5 107.9,159.5 106.9,156.1 109.8,153.9 106.2,153.9 105,150.5 103.8,153.9 100.2,153.9 
	103.1,156.1 102.1,159.5 "/>
<rect x="110" y="150" fill="#E60012" width="10" height="10"/>
<polygon fill="#FFF100" points="115,157.5 117.9,159.5 116.9,156.1 119.8,153.9 116.2,153.9 115,150.5 113.8,153.9 110.2,153.9 
	113.1,156.1 112.1,159.5 "/>
<rect x="120" y="150" fill="#E60012" width="10" height="10"/>
<polygon fill="#FFF100" points="125,157.5 127.9,159.5 126.9,156.1 129.8,153.9 126.2,153.9 125,150.5 123.8,153.9 120.2,153.9 
	123.1,156.1 122.1,159.5 "/>
<rect x="130" y="150" fill="#E60012" width="10" height="10"/>
<polygon fill="#FFF100" points="135,157.5 137.9,159.5 136.9,156.1 139.8,153.9 136.2,153.9 135,150.5 133.8,153.9 130.2,153.9 
	133.1,156.1 132.1,159.5 "/>
<rect x="140" y="150" fill="#E60012" width="10" height="10"/>
<polygon fill="#FFF100" points="145,157.5 147.9,159.5 146.9,156.1 149.8,153.9 146.2,153.9 145,150.5 143.8,153.9 140.2,153.9 
	143.1,156.1 142.1,159.5 "/>
<rect x="150" y="150" fill="#E60012" width="10" height="10"/>
<polygon fill="#FFF100" points="155,157.5 157.9,159.5 156.9,156.1 159.8,153.9 156.2,153.9 155,150.5 153.8,153.9 150.2,153.9 
	153.1,156.1 152.1,159.5 "/>
</svg>
