<?xml version="1.0" encoding="utf-8"?>
<!-- Generator: Adobe Illustrator 18.1.1, SVG Export Plug-In . SVG Version: 6.00 Build 0)  -->
<svg version="1.1" id="draw" xmlns="http://www.w3.org/2000/svg" xmlns:xlink="http://www.w3.org/1999/xlink" x="0px" y="0px"
   viewBox="0 0 160 160" enable-background="new 0 0 160 160" xml:space="preserve">
  <rect fill="#FFFFFF" width="160" height="160"/>
<polygon fill="#00A0E9" stroke="#FFFFFF" stroke-width="0.75" points="10,0 0,0 0,6 8,6 8,8 0,8 0,10 10,10 10,4 2,4 2,2 10,2 "/>
<polygon fill="#00A0E9" stroke="#FFFFFF" stroke-width="0.75" points="20,0 10,0 10,6 18,6 18,8 10,8 10,10 20,10 20,4 12,4 12,2
  20,2 "/>
<polygon fill="#00A0E9" stroke="#FFFFFF" stroke-width="0.75" points="30,0 20,0 20,6 28,6 28,8 20,8 20,10 30,10 30,4 22,4 22,2
  30,2 "/>
<polygon fill="#00A0E9" stroke="#FFFFFF" stroke-width="0.75" points="40,0 30,0 30,6 38,6 38,8 30,8 30,10 40,10 40,4 32,4 32,2
  40,2 "/>
<polygon fill="#00A0E9" stroke="#FFFFFF" stroke-width="0.75" points="50,0 40,0 40,6 48,6 48,8 40,8 40,10 50,10 50,4 42,4 42,2
  50,2 "/>
<polygon fill="#00A0E9" stroke="#FFFFFF" stroke-width="0.75" points="60,0 50,0 50,6 58,6 58,8 50,8 50,10 60,10 60,4 52,4 52,2
  60,2 "/>
<polygon fill="#00A0E9" stroke="#FFFFFF" stroke-width="0.75" points="70,0 60,0 60,6 68,6 68,8 60,8 60,10 70,10 70,4 62,4 62,2
  70,2 "/>
<polygon fill="#00A0E9" stroke="#FFFFFF" stroke-width="0.75" points="80,0 70,0 70,6 78,6 78,8 70,8 70,10 80,10 80,4 72,4 72,2
  80,2 "/>
<polygon fill="#00A0E9" stroke="#FFFFFF" stroke-width="0.75" points="90,0 80,0 80,6 88,6 88,8 80,8 80,10 90,10 90,4 82,4 82,2
  90,2 "/>
<polygon fill="#00A0E9" stroke="#FFFFFF" stroke-width="0.75" points="100,0 90,0 90,6 98,6 98,8 90,8 90,10 100,10 100,4 92,4
  92,2 100,2 "/>
<polygon fill="#00A0E9" stroke="#FFFFFF" stroke-width="0.75" points="110,0 100,0 100,6 108,6 108,8 100,8 100,10 110,10 110,4
  102,4 102,2 110,2 "/>
<polygon fill="#00A0E9" stroke="#FFFFFF" stroke-width="0.75" points="120,0 110,0 110,6 118,6 118,8 110,8 110,10 120,10 120,4
  112,4 112,2 120,2 "/>
<polygon fill="#00A0E9" stroke="#FFFFFF" stroke-width="0.75" points="130,0 120,0 120,6 128,6 128,8 120,8 120,10 130,10 130,4
  122,4 122,2 130,2 "/>
<polygon fill="#00A0E9" stroke="#FFFFFF" stroke-width="0.75" points="140,0 130,0 130,6 138,6 138,8 130,8 130,10 140,10 140,4
  132,4 132,2 140,2 "/>
<polygon fill="#00A0E9" stroke="#FFFFFF" stroke-width="0.75" points="150,0 140,0 140,6 148,6 148,8 140,8 140,10 150,10 150,4
  142,4 142,2 150,2 "/>
<polygon fill="#00A0E9" stroke="#FFFFFF" stroke-width="0.75" points="160,0 150,0 150,6 158,6 158,8 150,8 150,10 160,10 160,4
  152,4 152,2 160,2 "/>
<polygon fill="#00A0E9" stroke="#FFFFFF" stroke-width="0.75" points="160,30 150,30 150,36 158,36 158,38 150,38 150,40 160,40
  160,34 152,34 152,32 160,32 "/>
<polygon fill="#00A0E9" stroke="#FFFFFF" stroke-width="0.75" points="160,40 150,40 150,46 158,46 158,48 150,48 150,50 160,50
  160,44 152,44 152,42 160,42 "/>
<polygon fill="#00A0E9" stroke="#FFFFFF" stroke-width="0.75" points="160,50 150,50 150,56 158,56 158,58 150,58 150,60 160,60
  160,54 152,54 152,52 160,52 "/>
<polygon fill="#00A0E9" stroke="#FFFFFF" stroke-width="0.75" points="160,60 150,60 150,66 158,66 158,68 150,68 150,70 160,70
  160,64 152,64 152,62 160,62 "/>
<polygon fill="#00A0E9" stroke="#FFFFFF" stroke-width="0.75" points="160,70 150,70 150,76 158,76 158,78 150,78 150,80 160,80
  160,74 152,74 152,72 160,72 "/>
<polygon fill="#00A0E9" stroke="#FFFFFF" stroke-width="0.75" points="150,20 140,20 140,26 148,26 148,28 140,28 140,30 150,30
  150,24 142,24 142,22 150,22 "/>
<polygon fill="#00A0E9" stroke="#FFFFFF" stroke-width="0.75" points="140,20 130,20 130,26 138,26 138,28 130,28 130,30 140,30
  140,24 132,24 132,22 140,22 "/>
<polygon fill="#00A0E9" stroke="#FFFFFF" stroke-width="0.75" points="130,20 120,20 120,26 128,26 128,28 120,28 120,30 130,30
  130,24 122,24 122,22 130,22 "/>
<polygon fill="#00A0E9" stroke="#FFFFFF" stroke-width="0.75" points="120,20 110,20 110,26 118,26 118,28 110,28 110,30 120,30
  120,24 112,24 112,22 120,22 "/>
<polygon fill="#00A0E9" stroke="#FFFFFF" stroke-width="0.75" points="110,20 100,20 100,26 108,26 108,28 100,28 100,30 110,30
  110,24 102,24 102,22 110,22 "/>
<polygon fill="#00A0E9" stroke="#FFFFFF" stroke-width="0.75" points="100,20 90,20 90,26 98,26 98,28 90,28 90,30 100,30 100,24
  92,24 92,22 100,22 "/>
<polygon fill="#00A0E9" stroke="#FFFFFF" stroke-width="0.75" points="90,20 80,20 80,26 88,26 88,28 80,28 80,30 90,30 90,24
  82,24 82,22 90,22 "/>
<polygon fill="#00A0E9" stroke="#FFFFFF" stroke-width="0.75" points="80,20 70,20 70,26 78,26 78,28 70,28 70,30 80,30 80,24
  72,24 72,22 80,22 "/>
<polygon fill="#00A0E9" stroke="#FFFFFF" stroke-width="0.75" points="70,20 60,20 60,26 68,26 68,28 60,28 60,30 70,30 70,24
  62,24 62,22 70,22 "/>
<polygon fill="#00A0E9" stroke="#FFFFFF" stroke-width="0.75" points="60,20 50,20 50,26 58,26 58,28 50,28 50,30 60,30 60,24
  52,24 52,22 60,22 "/>
<polygon fill="#00A0E9" stroke="#FFFFFF" stroke-width="0.75" points="50,20 40,20 40,26 48,26 48,28 40,28 40,30 50,30 50,24
  42,24 42,22 50,22 "/>
<polygon fill="#00A0E9" stroke="#FFFFFF" stroke-width="0.75" points="40,20 30,20 30,26 38,26 38,28 30,28 30,30 40,30 40,24
  32,24 32,22 40,22 "/>
<polygon fill="#00A0E9" stroke="#FFFFFF" stroke-width="0.75" points="30,20 20,20 20,26 28,26 28,28 20,28 20,30 30,30 30,24
  22,24 22,22 30,22 "/>
<polygon fill="#00A0E9" stroke="#FFFFFF" stroke-width="0.75" points="20,20 10,20 10,26 18,26 18,28 10,28 10,30 20,30 20,24
  12,24 12,22 20,22 "/>
<polygon fill="#00A0E9" stroke="#FFFFFF" stroke-width="0.75" points="40,10 30,10 30,16 38,16 38,18 30,18 30,20 40,20 40,14
  32,14 32,12 40,12 "/>
<polygon fill="#FFF100" stroke="#FFFFFF" stroke-width="0.75" points="30,10 20,10 20,16 28,16 28,18 20,18 20,20 30,20 30,14
  22,14 22,12 30,12 "/>
<polygon fill="#FFF100" stroke="#FFFFFF" stroke-width="0.75" points="20,10 10,10 10,16 18,16 18,18 10,18 10,20 20,20 20,14
  12,14 12,12 20,12 "/>
<polygon fill="#FFF100" stroke="#FFFFFF" stroke-width="0.75" points="10,10 0,10 0,16 8,16 8,18 0,18 0,20 10,20 10,14 2,14 2,12
  10,12 "/>
<polygon fill="#FFF100" stroke="#FFFFFF" stroke-width="0.75" points="10,20 0,20 0,26 8,26 8,28 0,28 0,30 10,30 10,24 2,24 2,22
  10,22 "/>
<polygon fill="#FFF100" stroke="#FFFFFF" stroke-width="0.75" points="50,10 40,10 40,16 48,16 48,18 40,18 40,20 50,20 50,14
  42,14 42,12 50,12 "/>
<polygon fill="#FFF100" stroke="#FFFFFF" stroke-width="0.75" points="60,10 50,10 50,16 58,16 58,18 50,18 50,20 60,20 60,14
  52,14 52,12 60,12 "/>
<polygon fill="#FFF100" stroke="#FFFFFF" stroke-width="0.75" points="70,10 60,10 60,16 68,16 68,18 60,18 60,20 70,20 70,14
  62,14 62,12 70,12 "/>
<polygon fill="#FFF100" stroke="#FFFFFF" stroke-width="0.75" points="80,10 70,10 70,16 78,16 78,18 70,18 70,20 80,20 80,14
  72,14 72,12 80,12 "/>
<polygon fill="#FFF100" stroke="#FFFFFF" stroke-width="0.75" points="90,10 80,10 80,16 88,16 88,18 80,18 80,20 90,20 90,14
  82,14 82,12 90,12 "/>
<polygon fill="#FFF100" stroke="#FFFFFF" stroke-width="0.75" points="100,10 90,10 90,16 98,16 98,18 90,18 90,20 100,20 100,14
  92,14 92,12 100,12 "/>
<polygon fill="#FFF100" stroke="#FFFFFF" stroke-width="0.75" points="110,10 100,10 100,16 108,16 108,18 100,18 100,20 110,20
  110,14 102,14 102,12 110,12 "/>
<polygon fill="#FFF100" stroke="#FFFFFF" stroke-width="0.75" points="120,10 110,10 110,16 118,16 118,18 110,18 110,20 120,20
  120,14 112,14 112,12 120,12 "/>
<polygon fill="#FFF100" stroke="#FFFFFF" stroke-width="0.75" points="130,10 120,10 120,16 128,16 128,18 120,18 120,20 130,20
  130,14 122,14 122,12 130,12 "/>
<polygon fill="#FFF100" stroke="#FFFFFF" stroke-width="0.75" points="140,10 130,10 130,16 138,16 138,18 130,18 130,20 140,20
  140,14 132,14 132,12 140,12 "/>
<polygon fill="#FFF100" stroke="#FFFFFF" stroke-width="0.75" points="150,10 140,10 140,16 148,16 148,18 140,18 140,20 150,20
  150,14 142,14 142,12 150,12 "/>
<polygon fill="#FFF100" stroke="#FFFFFF" stroke-width="0.75" points="160,10 150,10 150,16 158,16 158,18 150,18 150,20 160,20
  160,14 152,14 152,12 160,12 "/>
<polygon fill="#FFF100" stroke="#FFFFFF" stroke-width="0.75" points="160,20 150,20 150,26 158,26 158,28 150,28 150,30 160,30
  160,24 152,24 152,22 160,22 "/>
<polygon fill="#FFF100" stroke="#FFFFFF" stroke-width="0.75" points="150,30 140,30 140,36 148,36 148,38 140,38 140,40 150,40
  150,34 142,34 142,32 150,32 "/>
<polygon fill="#FFF100" stroke="#FFFFFF" stroke-width="0.75" points="140,30 130,30 130,36 138,36 138,38 130,38 130,40 140,40
  140,34 132,34 132,32 140,32 "/>
<polygon fill="#FFF100" stroke="#FFFFFF" stroke-width="0.75" points="130,30 120,30 120,36 128,36 128,38 120,38 120,40 130,40
  130,34 122,34 122,32 130,32 "/>
<polygon fill="#FFF100" stroke="#FFFFFF" stroke-width="0.75" points="120,30 110,30 110,36 118,36 118,38 110,38 110,40 120,40
  120,34 112,34 112,32 120,32 "/>
<polygon fill="#FFF100" stroke="#FFFFFF" stroke-width="0.75" points="110,30 100,30 100,36 108,36 108,38 100,38 100,40 110,40
  110,34 102,34 102,32 110,32 "/>
<polygon fill="#FFF100" stroke="#FFFFFF" stroke-width="0.75" points="100,30 90,30 90,36 98,36 98,38 90,38 90,40 100,40 100,34
  92,34 92,32 100,32 "/>
<polygon fill="#FFF100" stroke="#FFFFFF" stroke-width="0.75" points="90,30 80,30 80,36 88,36 88,38 80,38 80,40 90,40 90,34
  82,34 82,32 90,32 "/>
<polygon fill="#FFF100" stroke="#FFFFFF" stroke-width="0.75" points="80,30 70,30 70,36 78,36 78,38 70,38 70,40 80,40 80,34
  72,34 72,32 80,32 "/>
<polygon fill="#FFF100" stroke="#FFFFFF" stroke-width="0.75" points="70,30 60,30 60,36 68,36 68,38 60,38 60,40 70,40 70,34
  62,34 62,32 70,32 "/>
<polygon fill="#FFF100" stroke="#FFFFFF" stroke-width="0.75" points="60,30 50,30 50,36 58,36 58,38 50,38 50,40 60,40 60,34
  52,34 52,32 60,32 "/>
<polygon fill="#FFF100" stroke="#FFFFFF" stroke-width="0.75" points="50,30 40,30 40,36 48,36 48,38 40,38 40,40 50,40 50,34
  42,34 42,32 50,32 "/>
<polygon fill="#FFF100" stroke="#FFFFFF" stroke-width="0.75" points="40,30 30,30 30,36 38,36 38,38 30,38 30,40 40,40 40,34
  32,34 32,32 40,32 "/>
<polygon fill="#FFF100" stroke="#FFFFFF" stroke-width="0.75" points="30,30 20,30 20,36 28,36 28,38 20,38 20,40 30,40 30,34
  22,34 22,32 30,32 "/>
<polygon fill="#FFF100" stroke="#FFFFFF" stroke-width="0.75" points="20,30 10,30 10,36 18,36 18,38 10,38 10,40 20,40 20,34
  12,34 12,32 20,32 "/>
<polygon fill="#FFF100" stroke="#FFFFFF" stroke-width="0.75" points="20,50 10,50 10,56 18,56 18,58 10,58 10,60 20,60 20,54
  12,54 12,52 20,52 "/>
<polygon fill="#FFF100" stroke="#FFFFFF" stroke-width="0.75" points="30,50 20,50 20,56 28,56 28,58 20,58 20,60 30,60 30,54
  22,54 22,52 30,52 "/>
<polygon fill="#FFF100" stroke="#FFFFFF" stroke-width="0.75" points="40,50 30,50 30,56 38,56 38,58 30,58 30,60 40,60 40,54
  32,54 32,52 40,52 "/>
<polygon fill="#FFF100" stroke="#FFFFFF" stroke-width="0.75" points="50,50 40,50 40,56 48,56 48,58 40,58 40,60 50,60 50,54
  42,54 42,52 50,52 "/>
<polygon fill="#FFF100" stroke="#FFFFFF" stroke-width="0.75" points="60,50 50,50 50,56 58,56 58,58 50,58 50,60 60,60 60,54
  52,54 52,52 60,52 "/>
<polygon fill="#FFF100" stroke="#FFFFFF" stroke-width="0.75" points="70,50 60,50 60,56 68,56 68,58 60,58 60,60 70,60 70,54
  62,54 62,52 70,52 "/>
<polygon fill="#FFF100" stroke="#FFFFFF" stroke-width="0.75" points="80,50 70,50 70,56 78,56 78,58 70,58 70,60 80,60 80,54
  72,54 72,52 80,52 "/>
<polygon fill="#FFF100" stroke="#FFFFFF" stroke-width="0.75" points="90,50 80,50 80,56 88,56 88,58 80,58 80,60 90,60 90,54
  82,54 82,52 90,52 "/>
<polygon fill="#FFF100" stroke="#FFFFFF" stroke-width="0.75" points="100,50 90,50 90,56 98,56 98,58 90,58 90,60 100,60 100,54
  92,54 92,52 100,52 "/>
<polygon fill="#FFF100" stroke="#FFFFFF" stroke-width="0.75" points="110,50 100,50 100,56 108,56 108,58 100,58 100,60 110,60
  110,54 102,54 102,52 110,52 "/>
<polygon fill="#FFF100" stroke="#FFFFFF" stroke-width="0.75" points="120,50 110,50 110,56 118,56 118,58 110,58 110,60 120,60
  120,54 112,54 112,52 120,52 "/>
<polygon fill="#FFF100" stroke="#FFFFFF" stroke-width="0.75" points="130,50 120,50 120,56 128,56 128,58 120,58 120,60 130,60
  130,54 122,54 122,52 130,52 "/>
<polygon fill="#FFF100" stroke="#FFFFFF" stroke-width="0.75" points="140,50 130,50 130,56 138,56 138,58 130,58 130,60 140,60
  140,54 132,54 132,52 140,52 "/>
<polygon fill="#FFF100" stroke="#FFFFFF" stroke-width="0.75" points="150,50 140,50 140,56 148,56 148,58 140,58 140,60 150,60
  150,54 142,54 142,52 150,52 "/>
<polygon fill="#FFF100" stroke="#FFFFFF" stroke-width="0.75" points="150,70 140,70 140,76 148,76 148,78 140,78 140,80 150,80
  150,74 142,74 142,72 150,72 "/>
<polygon fill="#FFF100" stroke="#FFFFFF" stroke-width="0.75" points="140,70 130,70 130,76 138,76 138,78 130,78 130,80 140,80
  140,74 132,74 132,72 140,72 "/>
<polygon fill="#FFF100" stroke="#FFFFFF" stroke-width="0.75" points="130,70 120,70 120,76 128,76 128,78 120,78 120,80 130,80
  130,74 122,74 122,72 130,72 "/>
<polygon fill="#FFF100" stroke="#FFFFFF" stroke-width="0.75" points="120,70 110,70 110,76 118,76 118,78 110,78 110,80 120,80
  120,74 112,74 112,72 120,72 "/>
<polygon fill="#FFF100" stroke="#FFFFFF" stroke-width="0.75" points="110,70 100,70 100,76 108,76 108,78 100,78 100,80 110,80
  110,74 102,74 102,72 110,72 "/>
<polygon fill="#FFF100" stroke="#FFFFFF" stroke-width="0.75" points="100,70 90,70 90,76 98,76 98,78 90,78 90,80 100,80 100,74
  92,74 92,72 100,72 "/>
<polygon fill="#FFF100" stroke="#FFFFFF" stroke-width="0.75" points="90,70 80,70 80,76 88,76 88,78 80,78 80,80 90,80 90,74
  82,74 82,72 90,72 "/>
<polygon fill="#FFF100" stroke="#FFFFFF" stroke-width="0.75" points="80,70 70,70 70,76 78,76 78,78 70,78 70,80 80,80 80,74
  72,74 72,72 80,72 "/>
<polygon fill="#FFF100" stroke="#FFFFFF" stroke-width="0.75" points="70,70 60,70 60,76 68,76 68,78 60,78 60,80 70,80 70,74
  62,74 62,72 70,72 "/>
<polygon fill="#FFF100" stroke="#FFFFFF" stroke-width="0.75" points="60,70 50,70 50,76 58,76 58,78 50,78 50,80 60,80 60,74
  52,74 52,72 60,72 "/>
<polygon fill="#FFF100" stroke="#FFFFFF" stroke-width="0.75" points="50,70 40,70 40,76 48,76 48,78 40,78 40,80 50,80 50,74
  42,74 42,72 50,72 "/>
<polygon fill="#FFF100" stroke="#FFFFFF" stroke-width="0.75" points="40,70 30,70 30,76 38,76 38,78 30,78 30,80 40,80 40,74
  32,74 32,72 40,72 "/>
<polygon fill="#FFF100" stroke="#FFFFFF" stroke-width="0.75" points="30,70 20,70 20,76 28,76 28,78 20,78 20,80 30,80 30,74
  22,74 22,72 30,72 "/>
<polygon fill="#FFF100" stroke="#FFFFFF" stroke-width="0.75" points="20,70 10,70 10,76 18,76 18,78 10,78 10,80 20,80 20,74
  12,74 12,72 20,72 "/>
<polygon fill="#FFF100" stroke="#FFFFFF" stroke-width="0.75" points="10,80 0,80 0,86 8,86 8,88 0,88 0,90 10,90 10,84 2,84 2,82
  10,82 "/>
<polygon fill="#FFF100" stroke="#FFFFFF" stroke-width="0.75" points="10,90 0,90 0,96 8,96 8,98 0,98 0,100 10,100 10,94 2,94
  2,92 10,92 "/>
<polygon fill="#FFF100" stroke="#FFFFFF" stroke-width="0.75" points="10,100 0,100 0,106 8,106 8,108 0,108 0,110 10,110 10,104
  2,104 2,102 10,102 "/>
<polygon fill="#FFF100" stroke="#FFFFFF" stroke-width="0.75" points="10,110 0,110 0,116 8,116 8,118 0,118 0,120 10,120 10,114
  2,114 2,112 10,112 "/>
<polygon fill="#FFF100" stroke="#FFFFFF" stroke-width="0.75" points="20,90 10,90 10,96 18,96 18,98 10,98 10,100 20,100 20,94
  12,94 12,92 20,92 "/>
<polygon fill="#FFF100" stroke="#FFFFFF" stroke-width="0.75" points="20,100 10,100 10,106 18,106 18,108 10,108 10,110 20,110
  20,104 12,104 12,102 20,102 "/>
<polygon fill="#FFF100" stroke="#FFFFFF" stroke-width="0.75" points="20,110 10,110 10,116 18,116 18,118 10,118 10,120 20,120
  20,114 12,114 12,112 20,112 "/>
<polygon fill="#FFF100" stroke="#FFFFFF" stroke-width="0.75" points="30,100 20,100 20,106 28,106 28,108 20,108 20,110 30,110
  30,104 22,104 22,102 30,102 "/>
<polygon fill="#FFF100" stroke="#FFFFFF" stroke-width="0.75" points="30,90 20,90 20,96 28,96 28,98 20,98 20,100 30,100 30,94
  22,94 22,92 30,92 "/>
<polygon fill="#FFF100" stroke="#FFFFFF" stroke-width="0.75" points="40,90 30,90 30,96 38,96 38,98 30,98 30,100 40,100 40,94
  32,94 32,92 40,92 "/>
<polygon fill="#FFF100" stroke="#FFFFFF" stroke-width="0.75" points="50,90 40,90 40,96 48,96 48,98 40,98 40,100 50,100 50,94
  42,94 42,92 50,92 "/>
<polygon fill="#FFF100" stroke="#FFFFFF" stroke-width="0.75" points="60,90 50,90 50,96 58,96 58,98 50,98 50,100 60,100 60,94
  52,94 52,92 60,92 "/>
<polygon fill="#FFF100" stroke="#FFFFFF" stroke-width="0.75" points="70,90 60,90 60,96 68,96 68,98 60,98 60,100 70,100 70,94
  62,94 62,92 70,92 "/>
<polygon fill="#FFF100" stroke="#FFFFFF" stroke-width="0.75" points="80,90 70,90 70,96 78,96 78,98 70,98 70,100 80,100 80,94
  72,94 72,92 80,92 "/>
<polygon fill="#FFF100" stroke="#FFFFFF" stroke-width="0.75" points="90,90 80,90 80,96 88,96 88,98 80,98 80,100 90,100 90,94
  82,94 82,92 90,92 "/>
<polygon fill="#FFF100" stroke="#FFFFFF" stroke-width="0.75" points="100,90 90,90 90,96 98,96 98,98 90,98 90,100 100,100 100,94
  92,94 92,92 100,92 "/>
<polygon fill="#FFF100" stroke="#FFFFFF" stroke-width="0.75" points="110,90 100,90 100,96 108,96 108,98 100,98 100,100 110,100
  110,94 102,94 102,92 110,92 "/>
<polygon fill="#FFF100" stroke="#FFFFFF" stroke-width="0.75" points="120,90 110,90 110,96 118,96 118,98 110,98 110,100 120,100
  120,94 112,94 112,92 120,92 "/>
<polygon fill="#FFF100" stroke="#FFFFFF" stroke-width="0.75" points="130,90 120,90 120,96 128,96 128,98 120,98 120,100 130,100
  130,94 122,94 122,92 130,92 "/>
<polygon fill="#FFF100" stroke="#FFFFFF" stroke-width="0.75" points="140,90 130,90 130,96 138,96 138,98 130,98 130,100 140,100
  140,94 132,94 132,92 140,92 "/>
<polygon fill="#FFF100" stroke="#FFFFFF" stroke-width="0.75" points="150,90 140,90 140,96 148,96 148,98 140,98 140,100 150,100
  150,94 142,94 142,92 150,92 "/>
<polygon fill="#FFF100" stroke="#FFFFFF" stroke-width="0.75" points="160,90 150,90 150,96 158,96 158,98 150,98 150,100 160,100
  160,94 152,94 152,92 160,92 "/>
<polygon fill="#FFF100" stroke="#FFFFFF" stroke-width="0.75" points="160,80 150,80 150,86 158,86 158,88 150,88 150,90 160,90
  160,84 152,84 152,82 160,82 "/>
<polygon fill="#FFF100" stroke="#FFFFFF" stroke-width="0.75" points="160,100 150,100 150,106 158,106 158,108 150,108 150,110
  160,110 160,104 152,104 152,102 160,102 "/>
<polygon fill="#FFF100" stroke="#FFFFFF" stroke-width="0.75" points="150,100 140,100 140,106 148,106 148,108 140,108 140,110
  150,110 150,104 142,104 142,102 150,102 "/>
<polygon fill="#FFF100" stroke="#FFFFFF" stroke-width="0.75" points="150,110 140,110 140,116 148,116 148,118 140,118 140,120
  150,120 150,114 142,114 142,112 150,112 "/>
<polygon fill="#FFF100" stroke="#FFFFFF" stroke-width="0.75" points="160,110 150,110 150,116 158,116 158,118 150,118 150,120
  160,120 160,114 152,114 152,112 160,112 "/>
<polygon fill="#FFF100" stroke="#FFFFFF" stroke-width="0.75" points="160,120 150,120 150,126 158,126 158,128 150,128 150,130
  160,130 160,124 152,124 152,122 160,122 "/>
<polygon fill="#FFF100" stroke="#FFFFFF" stroke-width="0.75" points="160,130 150,130 150,136 158,136 158,138 150,138 150,140
  160,140 160,134 152,134 152,132 160,132 "/>
<polygon fill="#FFF100" stroke="#FFFFFF" stroke-width="0.75" points="160,140 150,140 150,146 158,146 158,148 150,148 150,150
  160,150 160,144 152,144 152,142 160,142 "/>
<polygon fill="#FFF100" stroke="#FFFFFF" stroke-width="0.75" points="150,120 140,120 140,126 148,126 148,128 140,128 140,130
  150,130 150,124 142,124 142,122 150,122 "/>
<polygon fill="#FFF100" stroke="#FFFFFF" stroke-width="0.75" points="140,120 130,120 130,126 138,126 138,128 130,128 130,130
  140,130 140,124 132,124 132,122 140,122 "/>
<polygon fill="#FFF100" stroke="#FFFFFF" stroke-width="0.75" points="150,130 140,130 140,136 148,136 148,138 140,138 140,140
  150,140 150,134 142,134 142,132 150,132 "/>
<polygon fill="#FFF100" stroke="#FFFFFF" stroke-width="0.75" points="150,140 140,140 140,146 148,146 148,148 140,148 140,150
  150,150 150,144 142,144 142,142 150,142 "/>
<polygon fill="#FFF100" stroke="#FFFFFF" stroke-width="0.75" points="140,130 130,130 130,136 138,136 138,138 130,138 130,140
  140,140 140,134 132,134 132,132 140,132 "/>
<polygon fill="#FFF100" stroke="#FFFFFF" stroke-width="0.75" points="130,130 120,130 120,136 128,136 128,138 120,138 120,140
  130,140 130,134 122,134 122,132 130,132 "/>
<polygon fill="#FFF100" stroke="#FFFFFF" stroke-width="0.75" points="140,140 130,140 130,146 138,146 138,148 130,148 130,150
  140,150 140,144 132,144 132,142 140,142 "/>
<polygon fill="#FFF100" stroke="#FFFFFF" stroke-width="0.75" points="130,150 120,150 120,156 128,156 128,158 120,158 120,160
  130,160 130,154 122,154 122,152 130,152 "/>
<polygon fill="#FFF100" stroke="#FFFFFF" stroke-width="0.75" points="120,140 110,140 110,146 118,146 118,148 110,148 110,150
  120,150 120,144 112,144 112,142 120,142 "/>
<polygon fill="#FFF100" stroke="#FFFFFF" stroke-width="0.75" points="120,150 110,150 110,156 118,156 118,158 110,158 110,160
  120,160 120,154 112,154 112,152 120,152 "/>
<polygon fill="#FFF100" stroke="#FFFFFF" stroke-width="0.75" points="110,150 100,150 100,156 108,156 108,158 100,158 100,160
  110,160 110,154 102,154 102,152 110,152 "/>
<polygon fill="#FFF100" stroke="#FFFFFF" stroke-width="0.75" points="100,140 90,140 90,146 98,146 98,148 90,148 90,150 100,150
  100,144 92,144 92,142 100,142 "/>
<polygon fill="#FFF100" stroke="#FFFFFF" stroke-width="0.75" points="90,140 80,140 80,146 88,146 88,148 80,148 80,150 90,150
  90,144 82,144 82,142 90,142 "/>
<polygon fill="#FFF100" stroke="#FFFFFF" stroke-width="0.75" points="80,140 70,140 70,146 78,146 78,148 70,148 70,150 80,150
  80,144 72,144 72,142 80,142 "/>
<polygon fill="#FFF100" stroke="#FFFFFF" stroke-width="0.75" points="70,140 60,140 60,146 68,146 68,148 60,148 60,150 70,150
  70,144 62,144 62,142 70,142 "/>
<polygon fill="#FFF100" stroke="#FFFFFF" stroke-width="0.75" points="60,140 50,140 50,146 58,146 58,148 50,148 50,150 60,150
  60,144 52,144 52,142 60,142 "/>
<polygon fill="#FFF100" stroke="#FFFFFF" stroke-width="0.75" points="50,140 40,140 40,146 48,146 48,148 40,148 40,150 50,150
  50,144 42,144 42,142 50,142 "/>
<polygon fill="#FFF100" stroke="#FFFFFF" stroke-width="0.75" points="40,140 30,140 30,146 38,146 38,148 30,148 30,150 40,150
  40,144 32,144 32,142 40,142 "/>
<polygon fill="#FFF100" stroke="#FFFFFF" stroke-width="0.75" points="30,140 20,140 20,146 28,146 28,148 20,148 20,150 30,150
  30,144 22,144 22,142 30,142 "/>
<polygon fill="#FFF100" stroke="#FFFFFF" stroke-width="0.75" points="20,140 10,140 10,146 18,146 18,148 10,148 10,150 20,150
  20,144 12,144 12,142 20,142 "/>
<polygon fill="#FFF100" stroke="#FFFFFF" stroke-width="0.75" points="10,140 0,140 0,146 8,146 8,148 0,148 0,150 10,150 10,144
  2,144 2,142 10,142 "/>
<polygon fill="#FFF100" stroke="#FFFFFF" stroke-width="0.75" points="10,130 0,130 0,136 8,136 8,138 0,138 0,140 10,140 10,134
  2,134 2,132 10,132 "/>
<polygon fill="#FFF100" stroke="#FFFFFF" stroke-width="0.75" points="20,130 10,130 10,136 18,136 18,138 10,138 10,140 20,140
  20,134 12,134 12,132 20,132 "/>
<polygon fill="#FFF100" stroke="#FFFFFF" stroke-width="0.75" points="30,130 20,130 20,136 28,136 28,138 20,138 20,140 30,140
  30,134 22,134 22,132 30,132 "/>
<polygon fill="#FFF100" stroke="#FFFFFF" stroke-width="0.75" points="40,130 30,130 30,136 38,136 38,138 30,138 30,140 40,140
  40,134 32,134 32,132 40,132 "/>
<polygon fill="#FFF100" stroke="#FFFFFF" stroke-width="0.75" points="50,130 40,130 40,136 48,136 48,138 40,138 40,140 50,140
  50,134 42,134 42,132 50,132 "/>
<polygon fill="#FFF100" stroke="#FFFFFF" stroke-width="0.75" points="60,130 50,130 50,136 58,136 58,138 50,138 50,140 60,140
  60,134 52,134 52,132 60,132 "/>
<polygon fill="#FFF100" stroke="#FFFFFF" stroke-width="0.75" points="70,130 60,130 60,136 68,136 68,138 60,138 60,140 70,140
  70,134 62,134 62,132 70,132 "/>
<polygon fill="#FFF100" stroke="#FFFFFF" stroke-width="0.75" points="80,130 70,130 70,136 78,136 78,138 70,138 70,140 80,140
  80,134 72,134 72,132 80,132 "/>
<polygon fill="#FFF100" stroke="#FFFFFF" stroke-width="0.75" points="90,130 80,130 80,136 88,136 88,138 80,138 80,140 90,140
  90,134 82,134 82,132 90,132 "/>
<polygon fill="#FFF100" stroke="#FFFFFF" stroke-width="0.75" points="100,130 90,130 90,136 98,136 98,138 90,138 90,140 100,140
  100,134 92,134 92,132 100,132 "/>
<polygon fill="#FFF100" stroke="#FFFFFF" stroke-width="0.75" points="110,130 100,130 100,136 108,136 108,138 100,138 100,140
  110,140 110,134 102,134 102,132 110,132 "/>
<polygon fill="#FFF100" stroke="#FFFFFF" stroke-width="0.75" points="120,120 110,120 110,126 118,126 118,128 110,128 110,130
  120,130 120,124 112,124 112,122 120,122 "/>
<polygon fill="#FFF100" stroke="#FFFFFF" stroke-width="0.75" points="130,110 120,110 120,116 128,116 128,118 120,118 120,120
  130,120 130,114 122,114 122,112 130,112 "/>
<polygon fill="#FFF100" stroke="#FFFFFF" stroke-width="0.75" points="120,110 110,110 110,116 118,116 118,118 110,118 110,120
  120,120 120,114 112,114 112,112 120,112 "/>
<polygon fill="#FFF100" stroke="#FFFFFF" stroke-width="0.75" points="110,110 100,110 100,116 108,116 108,118 100,118 100,120
  110,120 110,114 102,114 102,112 110,112 "/>
<polygon fill="#FFF100" stroke="#FFFFFF" stroke-width="0.75" points="100,110 90,110 90,116 98,116 98,118 90,118 90,120 100,120
  100,114 92,114 92,112 100,112 "/>
<polygon fill="#FFF100" stroke="#FFFFFF" stroke-width="0.75" points="90,110 80,110 80,116 88,116 88,118 80,118 80,120 90,120
  90,114 82,114 82,112 90,112 "/>
<polygon fill="#FFF100" stroke="#FFFFFF" stroke-width="0.75" points="80,110 70,110 70,116 78,116 78,118 70,118 70,120 80,120
  80,114 72,114 72,112 80,112 "/>
<polygon fill="#FFF100" stroke="#FFFFFF" stroke-width="0.75" points="70,110 60,110 60,116 68,116 68,118 60,118 60,120 70,120
  70,114 62,114 62,112 70,112 "/>
<polygon fill="#FFF100" stroke="#FFFFFF" stroke-width="0.75" points="60,110 50,110 50,116 58,116 58,118 50,118 50,120 60,120
  60,114 52,114 52,112 60,112 "/>
<polygon fill="#FFF100" stroke="#FFFFFF" stroke-width="0.75" points="50,110 40,110 40,116 48,116 48,118 40,118 40,120 50,120
  50,114 42,114 42,112 50,112 "/>
<polygon fill="#FFF100" stroke="#FFFFFF" stroke-width="0.75" points="40,110 30,110 30,116 38,116 38,118 30,118 30,120 40,120
  40,114 32,114 32,112 40,112 "/>
<polygon fill="#FFF100" stroke="#FFFFFF" stroke-width="0.75" points="30,120 20,120 20,126 28,126 28,128 20,128 20,130 30,130
  30,124 22,124 22,122 30,122 "/>
<polygon fill="#00A0E9" stroke="#FFFFFF" stroke-width="0.75" points="10,30 0,30 0,36 8,36 8,38 0,38 0,40 10,40 10,34 2,34 2,32
  10,32 "/>
<polygon fill="#00A0E9" stroke="#FFFFFF" stroke-width="0.75" points="10,40 0,40 0,46 8,46 8,48 0,48 0,50 10,50 10,44 2,44 2,42
  10,42 "/>
<polygon fill="#00A0E9" stroke="#FFFFFF" stroke-width="0.75" points="10,50 0,50 0,56 8,56 8,58 0,58 0,60 10,60 10,54 2,54 2,52
  10,52 "/>
<polygon fill="#00A0E9" stroke="#FFFFFF" stroke-width="0.75" points="10,60 0,60 0,66 8,66 8,68 0,68 0,70 10,70 10,64 2,64 2,62
  10,62 "/>
<polygon fill="#00A0E9" stroke="#FFFFFF" stroke-width="0.75" points="10,70 0,70 0,76 8,76 8,78 0,78 0,80 10,80 10,74 2,74 2,72
  10,72 "/>
<polygon fill="#00A0E9" stroke="#FFFFFF" stroke-width="0.75" points="20,40 10,40 10,46 18,46 18,48 10,48 10,50 20,50 20,44
  12,44 12,42 20,42 "/>
<polygon fill="#00A0E9" stroke="#FFFFFF" stroke-width="0.75" points="30,40 20,40 20,46 28,46 28,48 20,48 20,50 30,50 30,44
  22,44 22,42 30,42 "/>
<polygon fill="#00A0E9" stroke="#FFFFFF" stroke-width="0.75" points="40,40 30,40 30,46 38,46 38,48 30,48 30,50 40,50 40,44
  32,44 32,42 40,42 "/>
<polygon fill="#00A0E9" stroke="#FFFFFF" stroke-width="0.75" points="50,40 40,40 40,46 48,46 48,48 40,48 40,50 50,50 50,44
  42,44 42,42 50,42 "/>
<polygon fill="#00A0E9" stroke="#FFFFFF" stroke-width="0.75" points="60,40 50,40 50,46 58,46 58,48 50,48 50,50 60,50 60,44
  52,44 52,42 60,42 "/>
<polygon fill="#00A0E9" stroke="#FFFFFF" stroke-width="0.75" points="70,40 60,40 60,46 68,46 68,48 60,48 60,50 70,50 70,44
  62,44 62,42 70,42 "/>
<polygon fill="#00A0E9" stroke="#FFFFFF" stroke-width="0.75" points="80,40 70,40 70,46 78,46 78,48 70,48 70,50 80,50 80,44
  72,44 72,42 80,42 "/>
<polygon fill="#00A0E9" stroke="#FFFFFF" stroke-width="0.75" points="90,40 80,40 80,46 88,46 88,48 80,48 80,50 90,50 90,44
  82,44 82,42 90,42 "/>
<polygon fill="#00A0E9" stroke="#FFFFFF" stroke-width="0.75" points="100,40 90,40 90,46 98,46 98,48 90,48 90,50 100,50 100,44
  92,44 92,42 100,42 "/>
<polygon fill="#00A0E9" stroke="#FFFFFF" stroke-width="0.75" points="110,40 100,40 100,46 108,46 108,48 100,48 100,50 110,50
  110,44 102,44 102,42 110,42 "/>
<polygon fill="#00A0E9" stroke="#FFFFFF" stroke-width="0.75" points="120,40 110,40 110,46 118,46 118,48 110,48 110,50 120,50
  120,44 112,44 112,42 120,42 "/>
<polygon fill="#00A0E9" stroke="#FFFFFF" stroke-width="0.75" points="130,40 120,40 120,46 128,46 128,48 120,48 120,50 130,50
  130,44 122,44 122,42 130,42 "/>
<polygon fill="#00A0E9" stroke="#FFFFFF" stroke-width="0.75" points="140,40 130,40 130,46 138,46 138,48 130,48 130,50 140,50
  140,44 132,44 132,42 140,42 "/>
<polygon fill="#00A0E9" stroke="#FFFFFF" stroke-width="0.75" points="150,40 140,40 140,46 148,46 148,48 140,48 140,50 150,50
  150,44 142,44 142,42 150,42 "/>
<polygon fill="#00A0E9" stroke="#FFFFFF" stroke-width="0.75" points="150,60 140,60 140,66 148,66 148,68 140,68 140,70 150,70
  150,64 142,64 142,62 150,62 "/>
<polygon fill="#00A0E9" stroke="#FFFFFF" stroke-width="0.75" points="140,60 130,60 130,66 138,66 138,68 130,68 130,70 140,70
  140,64 132,64 132,62 140,62 "/>
<polygon fill="#00A0E9" stroke="#FFFFFF" stroke-width="0.75" points="130,60 120,60 120,66 128,66 128,68 120,68 120,70 130,70
  130,64 122,64 122,62 130,62 "/>
<polygon fill="#00A0E9" stroke="#FFFFFF" stroke-width="0.75" points="120,60 110,60 110,66 118,66 118,68 110,68 110,70 120,70
  120,64 112,64 112,62 120,62 "/>
<polygon fill="#00A0E9" stroke="#FFFFFF" stroke-width="0.75" points="110,60 100,60 100,66 108,66 108,68 100,68 100,70 110,70
  110,64 102,64 102,62 110,62 "/>
<polygon fill="#00A0E9" stroke="#FFFFFF" stroke-width="0.75" points="100,60 90,60 90,66 98,66 98,68 90,68 90,70 100,70 100,64
  92,64 92,62 100,62 "/>
<polygon fill="#00A0E9" stroke="#FFFFFF" stroke-width="0.75" points="90,60 80,60 80,66 88,66 88,68 80,68 80,70 90,70 90,64
  82,64 82,62 90,62 "/>
<polygon fill="#00A0E9" stroke="#FFFFFF" stroke-width="0.75" points="80,60 70,60 70,66 78,66 78,68 70,68 70,70 80,70 80,64
  72,64 72,62 80,62 "/>
<polygon fill="#00A0E9" stroke="#FFFFFF" stroke-width="0.75" points="70,60 60,60 60,66 68,66 68,68 60,68 60,70 70,70 70,64
  62,64 62,62 70,62 "/>
<polygon fill="#00A0E9" stroke="#FFFFFF" stroke-width="0.75" points="60,60 50,60 50,66 58,66 58,68 50,68 50,70 60,70 60,64
  52,64 52,62 60,62 "/>
<polygon fill="#00A0E9" stroke="#FFFFFF" stroke-width="0.75" points="50,60 40,60 40,66 48,66 48,68 40,68 40,70 50,70 50,64
  42,64 42,62 50,62 "/>
<polygon fill="#00A0E9" stroke="#FFFFFF" stroke-width="0.75" points="40,60 30,60 30,66 38,66 38,68 30,68 30,70 40,70 40,64
  32,64 32,62 40,62 "/>
<polygon fill="#00A0E9" stroke="#FFFFFF" stroke-width="0.75" points="30,60 20,60 20,66 28,66 28,68 20,68 20,70 30,70 30,64
  22,64 22,62 30,62 "/>
<polygon fill="#00A0E9" stroke="#FFFFFF" stroke-width="0.75" points="20,60 10,60 10,66 18,66 18,68 10,68 10,70 20,70 20,64
  12,64 12,62 20,62 "/>
<polygon fill="#00A0E9" stroke="#FFFFFF" stroke-width="0.75" points="20,80 10,80 10,86 18,86 18,88 10,88 10,90 20,90 20,84
  12,84 12,82 20,82 "/>
<polygon fill="#00A0E9" stroke="#FFFFFF" stroke-width="0.75" points="30,80 20,80 20,86 28,86 28,88 20,88 20,90 30,90 30,84
  22,84 22,82 30,82 "/>
<polygon fill="#00A0E9" stroke="#FFFFFF" stroke-width="0.75" points="40,80 30,80 30,86 38,86 38,88 30,88 30,90 40,90 40,84
  32,84 32,82 40,82 "/>
<polygon fill="#00A0E9" stroke="#FFFFFF" stroke-width="0.75" points="50,80 40,80 40,86 48,86 48,88 40,88 40,90 50,90 50,84
  42,84 42,82 50,82 "/>
<polygon fill="#00A0E9" stroke="#FFFFFF" stroke-width="0.75" points="60,80 50,80 50,86 58,86 58,88 50,88 50,90 60,90 60,84
  52,84 52,82 60,82 "/>
<polygon fill="#00A0E9" stroke="#FFFFFF" stroke-width="0.75" points="70,80 60,80 60,86 68,86 68,88 60,88 60,90 70,90 70,84
  62,84 62,82 70,82 "/>
<polygon fill="#00A0E9" stroke="#FFFFFF" stroke-width="0.75" points="80,80 70,80 70,86 78,86 78,88 70,88 70,90 80,90 80,84
  72,84 72,82 80,82 "/>
<polygon fill="#00A0E9" stroke="#FFFFFF" stroke-width="0.75" points="90,80 80,80 80,86 88,86 88,88 80,88 80,90 90,90 90,84
  82,84 82,82 90,82 "/>
<polygon fill="#00A0E9" stroke="#FFFFFF" stroke-width="0.75" points="100,80 90,80 90,86 98,86 98,88 90,88 90,90 100,90 100,84
  92,84 92,82 100,82 "/>
<polygon fill="#00A0E9" stroke="#FFFFFF" stroke-width="0.75" points="110,80 100,80 100,86 108,86 108,88 100,88 100,90 110,90
  110,84 102,84 102,82 110,82 "/>
<polygon fill="#00A0E9" stroke="#FFFFFF" stroke-width="0.75" points="120,80 110,80 110,86 118,86 118,88 110,88 110,90 120,90
  120,84 112,84 112,82 120,82 "/>
<polygon fill="#00A0E9" stroke="#FFFFFF" stroke-width="0.75" points="130,80 120,80 120,86 128,86 128,88 120,88 120,90 130,90
  130,84 122,84 122,82 130,82 "/>
<polygon fill="#00A0E9" stroke="#FFFFFF" stroke-width="0.75" points="140,80 130,80 130,86 138,86 138,88 130,88 130,90 140,90
  140,84 132,84 132,82 140,82 "/>
<polygon fill="#00A0E9" stroke="#FFFFFF" stroke-width="0.75" points="150,80 140,80 140,86 148,86 148,88 140,88 140,90 150,90
  150,84 142,84 142,82 150,82 "/>
<polygon fill="#00A0E9" stroke="#FFFFFF" stroke-width="0.75" points="140,100 130,100 130,106 138,106 138,108 130,108 130,110
  140,110 140,104 132,104 132,102 140,102 "/>
<polygon fill="#00A0E9" stroke="#FFFFFF" stroke-width="0.75" points="130,100 120,100 120,106 128,106 128,108 120,108 120,110
  130,110 130,104 122,104 122,102 130,102 "/>
<polygon fill="#00A0E9" stroke="#FFFFFF" stroke-width="0.75" points="120,100 110,100 110,106 118,106 118,108 110,108 110,110
  120,110 120,104 112,104 112,102 120,102 "/>
<polygon fill="#00A0E9" stroke="#FFFFFF" stroke-width="0.75" points="110,100 100,100 100,106 108,106 108,108 100,108 100,110
  110,110 110,104 102,104 102,102 110,102 "/>
<polygon fill="#00A0E9" stroke="#FFFFFF" stroke-width="0.75" points="100,100 90,100 90,106 98,106 98,108 90,108 90,110 100,110
  100,104 92,104 92,102 100,102 "/>
<polygon fill="#00A0E9" stroke="#FFFFFF" stroke-width="0.75" points="90,100 80,100 80,106 88,106 88,108 80,108 80,110 90,110
  90,104 82,104 82,102 90,102 "/>
<polygon fill="#00A0E9" stroke="#FFFFFF" stroke-width="0.75" points="80,100 70,100 70,106 78,106 78,108 70,108 70,110 80,110
  80,104 72,104 72,102 80,102 "/>
<polygon fill="#00A0E9" stroke="#FFFFFF" stroke-width="0.75" points="70,100 60,100 60,106 68,106 68,108 60,108 60,110 70,110
  70,104 62,104 62,102 70,102 "/>
<polygon fill="#00A0E9" stroke="#FFFFFF" stroke-width="0.75" points="60,100 50,100 50,106 58,106 58,108 50,108 50,110 60,110
  60,104 52,104 52,102 60,102 "/>
<polygon fill="#00A0E9" stroke="#FFFFFF" stroke-width="0.75" points="50,100 40,100 40,106 48,106 48,108 40,108 40,110 50,110
  50,104 42,104 42,102 50,102 "/>
<polygon fill="#00A0E9" stroke="#FFFFFF" stroke-width="0.75" points="40,100 30,100 30,106 38,106 38,108 30,108 30,110 40,110
  40,104 32,104 32,102 40,102 "/>
<polygon fill="#00A0E9" stroke="#FFFFFF" stroke-width="0.75" points="30,110 20,110 20,116 28,116 28,118 20,118 20,120 30,120
  30,114 22,114 22,112 30,112 "/>
<polygon fill="#00A0E9" stroke="#FFFFFF" stroke-width="0.75" points="20,120 10,120 10,126 18,126 18,128 10,128 10,130 20,130
  20,124 12,124 12,122 20,122 "/>
<polygon fill="#00A0E9" stroke="#FFFFFF" stroke-width="0.75" points="10,120 0,120 0,126 8,126 8,128 0,128 0,130 10,130 10,124
  2,124 2,122 10,122 "/>
<polygon fill="#00A0E9" stroke="#FFFFFF" stroke-width="0.75" points="40,120 30,120 30,126 38,126 38,128 30,128 30,130 40,130
  40,124 32,124 32,122 40,122 "/>
<polygon fill="#00A0E9" stroke="#FFFFFF" stroke-width="0.75" points="50,120 40,120 40,126 48,126 48,128 40,128 40,130 50,130
  50,124 42,124 42,122 50,122 "/>
<polygon fill="#00A0E9" stroke="#FFFFFF" stroke-width="0.75" points="60,120 50,120 50,126 58,126 58,128 50,128 50,130 60,130
  60,124 52,124 52,122 60,122 "/>
<polygon fill="#00A0E9" stroke="#FFFFFF" stroke-width="0.75" points="70,120 60,120 60,126 68,126 68,128 60,128 60,130 70,130
  70,124 62,124 62,122 70,122 "/>
<polygon fill="#00A0E9" stroke="#FFFFFF" stroke-width="0.75" points="80,120 70,120 70,126 78,126 78,128 70,128 70,130 80,130
  80,124 72,124 72,122 80,122 "/>
<polygon fill="#00A0E9" stroke="#FFFFFF" stroke-width="0.75" points="90,120 80,120 80,126 88,126 88,128 80,128 80,130 90,130
  90,124 82,124 82,122 90,122 "/>
<polygon fill="#00A0E9" stroke="#FFFFFF" stroke-width="0.75" points="100,120 90,120 90,126 98,126 98,128 90,128 90,130 100,130
  100,124 92,124 92,122 100,122 "/>
<polygon fill="#00A0E9" stroke="#FFFFFF" stroke-width="0.75" points="110,120 100,120 100,126 108,126 108,128 100,128 100,130
  110,130 110,124 102,124 102,122 110,122 "/>
<polygon fill="#00A0E9" stroke="#FFFFFF" stroke-width="0.75" points="130,120 120,120 120,126 128,126 128,128 120,128 120,130
  130,130 130,124 122,124 122,122 130,122 "/>
<polygon fill="#00A0E9" stroke="#FFFFFF" stroke-width="0.75" points="140,110 130,110 130,116 138,116 138,118 130,118 130,120
  140,120 140,114 132,114 132,112 140,112 "/>
<polygon fill="#00A0E9" stroke="#FFFFFF" stroke-width="0.75" points="120,130 110,130 110,136 118,136 118,138 110,138 110,140
  120,140 120,134 112,134 112,132 120,132 "/>
<polygon fill="#00A0E9" stroke="#FFFFFF" stroke-width="0.75" points="110,140 100,140 100,146 108,146 108,148 100,148 100,150
  110,150 110,144 102,144 102,142 110,142 "/>
<polygon fill="#00A0E9" stroke="#FFFFFF" stroke-width="0.75" points="130,140 120,140 120,146 128,146 128,148 120,148 120,150
  130,150 130,144 122,144 122,142 130,142 "/>
<polygon fill="#00A0E9" stroke="#FFFFFF" stroke-width="0.75" points="140,150 130,150 130,156 138,156 138,158 130,158 130,160
  140,160 140,154 132,154 132,152 140,152 "/>
<polygon fill="#00A0E9" stroke="#FFFFFF" stroke-width="0.75" points="150,150 140,150 140,156 148,156 148,158 140,158 140,160
  150,160 150,154 142,154 142,152 150,152 "/>
<polygon fill="#00A0E9" stroke="#FFFFFF" stroke-width="0.75" points="160,150 150,150 150,156 158,156 158,158 150,158 150,160
  160,160 160,154 152,154 152,152 160,152 "/>
<polygon fill="#00A0E9" stroke="#FFFFFF" stroke-width="0.75" points="100,150 90,150 90,156 98,156 98,158 90,158 90,160 100,160
  100,154 92,154 92,152 100,152 "/>
<polygon fill="#00A0E9" stroke="#FFFFFF" stroke-width="0.75" points="90,150 80,150 80,156 88,156 88,158 80,158 80,160 90,160
  90,154 82,154 82,152 90,152 "/>
<polygon fill="#00A0E9" stroke="#FFFFFF" stroke-width="0.75" points="80,150 70,150 70,156 78,156 78,158 70,158 70,160 80,160
  80,154 72,154 72,152 80,152 "/>
<polygon fill="#00A0E9" stroke="#FFFFFF" stroke-width="0.75" points="70,150 60,150 60,156 68,156 68,158 60,158 60,160 70,160
  70,154 62,154 62,152 70,152 "/>
<polygon fill="#00A0E9" stroke="#FFFFFF" stroke-width="0.75" points="10,150 0,150 0,156 8,156 8,158 0,158 0,160 10,160 10,154
  2,154 2,152 10,152 "/>
<polygon fill="#00A0E9" stroke="#FFFFFF" stroke-width="0.75" points="20,160 20,150 30,150 30,160 28,160 28,152 26,152 26,160
  24,160 24,152 22,152 22,160 "/>
<polygon fill="#00A0E9" stroke="#FFFFFF" stroke-width="0.75" points="30,160 30,150 40,150 40,160 38,160 38,152 36,152 36,160
  34,160 34,152 32,152 32,160 "/>
<polyline fill="#00A0E9" stroke="#FFFFFF" stroke-width="0.75" points="50,150 40,150 40,160 50,160 50,158 42,158 42,152 50,152
  "/>
<polyline fill="#00A0E9" stroke="#FFFFFF" stroke-width="0.75" points="41.6,156 49.6,156 49.6,154 41.6,154 "/>
<polyline fill="#00A0E9" stroke="#FFFFFF" stroke-width="0.75" points="10,150 10,160 20,160 20,150 18,150 18,158 12,158 12,150
  10,150 "/>
<polygon fill="#00A0E9" stroke="#FFFFFF" stroke-width="0.75" points="50,150 50,160 52,160 52,156 52,152 58,152 58,154 52,154
  52,156 60,156 60,150 "/>
<rect x="56" y="158" fill="#00A0E9" stroke="#FFFFFF" stroke-width="0.75" width="4" height="2"/>
<polygon fill="#00A0E9" stroke="#FFFFFF" stroke-width="0.75" points="56,160 56,156 58,156 58,158 60,158 60,160 "/>
</svg>
