<?xml version="1.0" encoding="utf-8"?>
<!-- Generator: Adobe Illustrator 18.1.1, SVG Export Plug-In . SVG Version: 6.00 Build 0)  -->
<svg version="1.1" xmlns="http://www.w3.org/2000/svg" xmlns:xlink="http://www.w3.org/1999/xlink" x="0px" y="0px"
	 viewBox="0 0 160 160" enable-background="new 0 0 160 160" xml:space="preserve">
<g id="bg">
	<rect fill="#009944" width="160.1" height="160.1"/>
</g>
<g id="bg2">
	<rect x="8" y="8" fill="#FFF100" stroke="#FFFFFF" stroke-width="0.75" width="16" height="16"/>
	<rect x="24" y="8" fill="#FFF100" stroke="#FFFFFF" stroke-width="0.75" width="16" height="16"/>
	<rect x="40" y="8" fill="#FFF100" stroke="#FFFFFF" stroke-width="0.75" width="16" height="16"/>
	<rect x="56" y="8" fill="#FFF100" stroke="#FFFFFF" stroke-width="0.75" width="16" height="16"/>
	<rect x="72" y="8" fill="#FFF100" stroke="#FFFFFF" stroke-width="0.75" width="16" height="16"/>
	<rect x="88" y="8" fill="#FFF100" stroke="#FFFFFF" stroke-width="0.75" width="16" height="16"/>
	<rect x="104" y="8" fill="#FFF100" stroke="#FFFFFF" stroke-width="0.75" width="16" height="16"/>
	<rect x="120" y="8" fill="#FFF100" stroke="#FFFFFF" stroke-width="0.75" width="16" height="16"/>
	<rect x="136" y="8" fill="#FFF100" stroke="#FFFFFF" stroke-width="0.75" width="16" height="16"/>
	<rect x="8" y="24" fill="#FFF100" stroke="#FFFFFF" stroke-width="0.75" width="16" height="16"/>
	<rect x="24" y="24" fill="#FFF100" stroke="#FFFFFF" stroke-width="0.75" width="16" height="16"/>
	<rect x="40" y="24" fill="#FFF100" stroke="#FFFFFF" stroke-width="0.75" width="16" height="16"/>
	<rect x="56" y="24" fill="#FFF100" stroke="#FFFFFF" stroke-width="0.75" width="16" height="16"/>
	<rect x="72" y="24" fill="#FFF100" stroke="#FFFFFF" stroke-width="0.75" width="16" height="16"/>
	<rect x="88" y="24" fill="#FFF100" stroke="#FFFFFF" stroke-width="0.75" width="16" height="16"/>
	<rect x="104" y="24" fill="#FFF100" stroke="#FFFFFF" stroke-width="0.75" width="16" height="16"/>
	<rect x="120" y="24" fill="#FFF100" stroke="#FFFFFF" stroke-width="0.75" width="16" height="16"/>
	<rect x="136" y="24" fill="#FFF100" stroke="#FFFFFF" stroke-width="0.75" width="16" height="16"/>
	<rect x="8" y="40" fill="#FFF100" stroke="#FFFFFF" stroke-width="0.75" width="16" height="16"/>
	<rect x="24" y="40" fill="#FFF100" stroke="#FFFFFF" stroke-width="0.75" width="16" height="16"/>
	<rect x="40" y="40" fill="#FFF100" stroke="#FFFFFF" stroke-width="0.75" width="16" height="16"/>
	<rect x="56" y="40" fill="#FFF100" stroke="#FFFFFF" stroke-width="0.75" width="16" height="16"/>
	<rect x="72" y="40" fill="#FFF100" stroke="#FFFFFF" stroke-width="0.75" width="16" height="16"/>
	<rect x="88" y="40" fill="#FFF100" stroke="#FFFFFF" stroke-width="0.75" width="16" height="16"/>
	<rect x="104" y="40" fill="#FFF100" stroke="#FFFFFF" stroke-width="0.75" width="16" height="16"/>
	<rect x="120" y="40" fill="#FFF100" stroke="#FFFFFF" stroke-width="0.75" width="16" height="16"/>
	<rect x="136" y="40" fill="#FFF100" stroke="#FFFFFF" stroke-width="0.75" width="16" height="16"/>
	<rect x="8" y="56" fill="#FFF100" stroke="#FFFFFF" stroke-width="0.75" width="16" height="16"/>
	<rect x="24" y="56" fill="#FFF100" stroke="#FFFFFF" stroke-width="0.75" width="16" height="16"/>
	<rect x="40" y="56" fill="#FFF100" stroke="#FFFFFF" stroke-width="0.75" width="16" height="16"/>
	<rect x="56" y="56" fill="#FFF100" stroke="#FFFFFF" stroke-width="0.75" width="16" height="16"/>
	<rect x="72" y="56" fill="#FFF100" stroke="#FFFFFF" stroke-width="0.75" width="16" height="16"/>
	<rect x="88" y="56" fill="#FFF100" stroke="#FFFFFF" stroke-width="0.75" width="16" height="16"/>
	<rect x="104" y="56" fill="#FFF100" stroke="#FFFFFF" stroke-width="0.75" width="16" height="16"/>
	<rect x="120" y="56" fill="#FFF100" stroke="#FFFFFF" stroke-width="0.75" width="16" height="16"/>
	<rect x="136" y="56" fill="#FFF100" stroke="#FFFFFF" stroke-width="0.75" width="16" height="16"/>
	<rect x="8" y="72" fill="#FFF100" stroke="#FFFFFF" stroke-width="0.75" width="16" height="16"/>
	<rect x="24" y="72" fill="#FFF100" stroke="#FFFFFF" stroke-width="0.75" width="16" height="16"/>
	<rect x="40" y="72" fill="#FFF100" stroke="#FFFFFF" stroke-width="0.75" width="16" height="16"/>
	<rect x="56" y="72" fill="#FFF100" stroke="#FFFFFF" stroke-width="0.75" width="16" height="16"/>
	<rect x="72" y="72" fill="#FFF100" stroke="#FFFFFF" stroke-width="0.75" width="16" height="16"/>
	<rect x="88" y="72" fill="#FFF100" stroke="#FFFFFF" stroke-width="0.75" width="16" height="16"/>
	<rect x="104" y="72" fill="#FFF100" stroke="#FFFFFF" stroke-width="0.75" width="16" height="16"/>
	<rect x="120" y="72" fill="#FFF100" stroke="#FFFFFF" stroke-width="0.75" width="16" height="16"/>
	<rect x="136" y="72" fill="#FFF100" stroke="#FFFFFF" stroke-width="0.75" width="16" height="16"/>
	<rect x="8" y="88" fill="#FFF100" stroke="#FFFFFF" stroke-width="0.75" width="16" height="16"/>
	<rect x="24" y="88" fill="#FFF100" stroke="#FFFFFF" stroke-width="0.75" width="16" height="16"/>
	<rect x="40" y="88" fill="#FFF100" stroke="#FFFFFF" stroke-width="0.75" width="16" height="16"/>
	<rect x="56" y="88" fill="#FFF100" stroke="#FFFFFF" stroke-width="0.75" width="16" height="16"/>
	<rect x="72" y="88" fill="#FFF100" stroke="#FFFFFF" stroke-width="0.75" width="16" height="16"/>
	<rect x="88" y="88" fill="#FFF100" stroke="#FFFFFF" stroke-width="0.75" width="16" height="16"/>
	<rect x="104" y="88" fill="#FFF100" stroke="#FFFFFF" stroke-width="0.75" width="16" height="16"/>
	<rect x="120" y="88" fill="#FFF100" stroke="#FFFFFF" stroke-width="0.75" width="16" height="16"/>
	<rect x="136" y="88" fill="#FFF100" stroke="#FFFFFF" stroke-width="0.75" width="16" height="16"/>
	<rect x="8" y="104" fill="#FFF100" stroke="#FFFFFF" stroke-width="0.75" width="16" height="16"/>
	<rect x="24" y="104" fill="#FFF100" stroke="#FFFFFF" stroke-width="0.75" width="16" height="16"/>
	<rect x="40" y="104" fill="#FFF100" stroke="#FFFFFF" stroke-width="0.75" width="16" height="16"/>
	<rect x="56" y="104" fill="#FFF100" stroke="#FFFFFF" stroke-width="0.75" width="16" height="16"/>
	<rect x="72" y="104" fill="#FFF100" stroke="#FFFFFF" stroke-width="0.75" width="16" height="16"/>
	<rect x="88" y="104" fill="#FFF100" stroke="#FFFFFF" stroke-width="0.75" width="16" height="16"/>
	<rect x="104" y="104" fill="#FFF100" stroke="#FFFFFF" stroke-width="0.75" width="16" height="16"/>
	<rect x="120" y="104" fill="#FFF100" stroke="#FFFFFF" stroke-width="0.75" width="16" height="16"/>
	<rect x="136" y="104" fill="#FFF100" stroke="#FFFFFF" stroke-width="0.75" width="16" height="16"/>
	<rect x="8" y="120" fill="#FFF100" stroke="#FFFFFF" stroke-width="0.75" width="16" height="16"/>
	<rect x="24" y="120" fill="#FFF100" stroke="#FFFFFF" stroke-width="0.75" width="16" height="16"/>
	<rect x="40" y="120" fill="#FFF100" stroke="#FFFFFF" stroke-width="0.75" width="16" height="16"/>
	<rect x="56" y="120" fill="#FFF100" stroke="#FFFFFF" stroke-width="0.75" width="16" height="16"/>
	<rect x="72" y="120" fill="#FFF100" stroke="#FFFFFF" stroke-width="0.75" width="16" height="16"/>
	<rect x="88" y="120" fill="#FFF100" stroke="#FFFFFF" stroke-width="0.75" width="16" height="16"/>
	<rect x="104" y="120" fill="#FFF100" stroke="#FFFFFF" stroke-width="0.75" width="16" height="16"/>
	<rect x="120" y="120" fill="#FFF100" stroke="#FFFFFF" stroke-width="0.75" width="16" height="16"/>
	<rect x="136" y="120" fill="#FFF100" stroke="#FFFFFF" stroke-width="0.75" width="16" height="16"/>
	<rect x="8" y="136" fill="#FFF100" stroke="#FFFFFF" stroke-width="0.75" width="16" height="16"/>
	<rect x="24" y="136" fill="#FFF100" stroke="#FFFFFF" stroke-width="0.75" width="16" height="16"/>
	<rect x="40" y="136" fill="#FFF100" stroke="#FFFFFF" stroke-width="0.75" width="16" height="16"/>
	<rect x="56" y="136" fill="#FFF100" stroke="#FFFFFF" stroke-width="0.75" width="16" height="16"/>
	<rect x="72" y="136" fill="#FFF100" stroke="#FFFFFF" stroke-width="0.75" width="16" height="16"/>
	<rect x="88" y="136" fill="#FFF100" stroke="#FFFFFF" stroke-width="0.75" width="16" height="16"/>
	<rect x="104" y="136" fill="#FFF100" stroke="#FFFFFF" stroke-width="0.75" width="16" height="16"/>
	<rect x="120" y="136" fill="#FFF100" stroke="#FFFFFF" stroke-width="0.75" width="16" height="16"/>
	<rect x="136" y="136" fill="#FFF100" stroke="#FFFFFF" stroke-width="0.75" width="16" height="16"/>
</g>
<g id="word">
	<g>
		<path fill="#FFFFFF" d="M16.9,6.5h-0.6V2.6C16.2,2.7,16,2.9,15.7,3c-0.2,0.1-0.5,0.2-0.6,0.3V2.7c0.3-0.2,0.6-0.4,0.9-0.6
			c0.3-0.2,0.4-0.5,0.5-0.7h0.4V6.5z"/>
	</g>
	<g>
		<path fill="#FFFFFF" d="M33.7,5.9v0.6h-3.3c0-0.1,0-0.3,0.1-0.4c0.1-0.2,0.2-0.4,0.4-0.7c0.2-0.2,0.5-0.5,0.8-0.8
			c0.5-0.4,0.9-0.8,1.1-1.1c0.2-0.3,0.3-0.5,0.3-0.7c0-0.2-0.1-0.5-0.3-0.6C32.7,2.1,32.4,2,32.1,2c-0.3,0-0.5,0.1-0.7,0.3
			c-0.2,0.2-0.3,0.4-0.3,0.7l-0.6-0.1c0-0.5,0.2-0.8,0.5-1.1c0.3-0.2,0.7-0.4,1.1-0.4c0.5,0,0.9,0.1,1.1,0.4c0.3,0.3,0.4,0.6,0.4,1
			c0,0.2,0,0.4-0.1,0.6c-0.1,0.2-0.2,0.4-0.4,0.6C33,4.3,32.7,4.6,32.2,5c-0.4,0.3-0.6,0.5-0.7,0.6c-0.1,0.1-0.2,0.2-0.3,0.3H33.7z"
			/>
	</g>
	<g>
		<path fill="#FFFFFF" d="M46.4,5.1L47,5.1c0.1,0.4,0.2,0.6,0.4,0.8C47.5,6,47.7,6.1,48,6.1c0.3,0,0.5-0.1,0.7-0.3
			C48.9,5.6,49,5.3,49,5c0-0.3-0.1-0.5-0.3-0.7C48.5,4.1,48.3,4,48,4c-0.1,0-0.3,0-0.4,0.1l0.1-0.5c0,0,0.1,0,0.1,0
			c0.3,0,0.5-0.1,0.7-0.2c0.2-0.1,0.3-0.3,0.3-0.6c0-0.2-0.1-0.4-0.2-0.6C48.4,2,48.2,1.9,48,1.9c-0.2,0-0.4,0.1-0.6,0.2
			c-0.2,0.1-0.3,0.4-0.3,0.7l-0.6-0.1c0.1-0.4,0.2-0.7,0.5-1c0.3-0.2,0.6-0.3,1-0.3c0.3,0,0.5,0.1,0.8,0.2c0.2,0.1,0.4,0.3,0.5,0.5
			c0.1,0.2,0.2,0.4,0.2,0.6c0,0.2-0.1,0.4-0.2,0.6c-0.1,0.2-0.3,0.3-0.5,0.4C49,3.8,49.2,4,49.4,4.2c0.2,0.2,0.2,0.5,0.2,0.8
			c0,0.4-0.2,0.8-0.5,1.1c-0.3,0.3-0.7,0.5-1.2,0.5c-0.4,0-0.8-0.1-1.1-0.4C46.6,5.9,46.4,5.6,46.4,5.1z"/>
	</g>
	<g>
		<path fill="#FFFFFF" d="M64.2,6.5V5.3H62V4.7l2.3-3.2h0.5v3.2h0.7v0.6h-0.7v1.2H64.2z M64.2,4.7V2.5l-1.6,2.2H64.2z"/>
	</g>
	<g>
		<path fill="#FFFFFF" d="M78.1,5.1l0.6,0c0,0.3,0.2,0.5,0.3,0.7C79.3,5.9,79.5,6,79.7,6c0.3,0,0.5-0.1,0.8-0.3
			c0.2-0.2,0.3-0.5,0.3-0.9c0-0.3-0.1-0.6-0.3-0.8c-0.2-0.2-0.5-0.3-0.8-0.3c-0.2,0-0.4,0-0.5,0.1C79,3.9,78.9,4,78.8,4.1l-0.6-0.1
			l0.5-2.6h2.5v0.6h-2l-0.3,1.4c0.3-0.2,0.6-0.3,0.9-0.3c0.4,0,0.8,0.2,1.1,0.5c0.3,0.3,0.5,0.7,0.5,1.2c0,0.5-0.1,0.8-0.4,1.2
			c-0.3,0.4-0.8,0.6-1.3,0.6c-0.5,0-0.8-0.1-1.1-0.4C78.3,5.9,78.2,5.5,78.1,5.1z"/>
	</g>
	<g>
		<path fill="#FFFFFF" d="M97.2,2.7l-0.6,0c-0.1-0.2-0.1-0.4-0.2-0.5C96.2,2,96,1.9,95.7,1.9c-0.2,0-0.4,0.1-0.5,0.2
			c-0.2,0.1-0.3,0.3-0.5,0.6c-0.1,0.3-0.2,0.7-0.2,1.2c0.1-0.2,0.3-0.4,0.5-0.5c0.2-0.1,0.4-0.2,0.7-0.2c0.4,0,0.8,0.2,1,0.5
			c0.3,0.3,0.4,0.7,0.4,1.2c0,0.3-0.1,0.6-0.2,0.9c-0.1,0.3-0.3,0.5-0.6,0.6c-0.2,0.1-0.5,0.2-0.8,0.2c-0.5,0-0.9-0.2-1.3-0.6
			C94.1,5.6,94,5,94,4.1c0-1,0.2-1.7,0.5-2.1c0.3-0.4,0.7-0.6,1.3-0.6c0.4,0,0.7,0.1,1,0.3C97,2,97.1,2.3,97.2,2.7z M94.7,4.9
			c0,0.2,0,0.4,0.1,0.6c0.1,0.2,0.2,0.3,0.4,0.4c0.2,0.1,0.3,0.2,0.5,0.2c0.3,0,0.5-0.1,0.7-0.3c0.2-0.2,0.3-0.5,0.3-0.9
			c0-0.3-0.1-0.6-0.3-0.8c-0.2-0.2-0.4-0.3-0.7-0.3c-0.3,0-0.5,0.1-0.7,0.3C94.8,4.3,94.7,4.5,94.7,4.9z"/>
	</g>
	<g>
		<path fill="#FFFFFF" d="M109.9,2.1V1.5h3.2V2c-0.3,0.3-0.6,0.8-0.9,1.4s-0.6,1.1-0.7,1.7c-0.1,0.4-0.2,0.9-0.2,1.4h-0.6
			c0-0.4,0.1-0.9,0.2-1.4c0.1-0.6,0.4-1.1,0.6-1.6c0.3-0.5,0.6-1,0.9-1.3H109.9z"/>
	</g>
	<g>
		<path fill="#FFFFFF" d="M126.7,3.8c-0.3-0.1-0.4-0.2-0.6-0.4c-0.1-0.2-0.2-0.4-0.2-0.6c0-0.4,0.1-0.7,0.4-0.9
			c0.3-0.2,0.6-0.4,1-0.4c0.4,0,0.8,0.1,1.1,0.4s0.4,0.6,0.4,0.9c0,0.2-0.1,0.4-0.2,0.6c-0.1,0.2-0.3,0.3-0.6,0.4
			c0.3,0.1,0.5,0.3,0.7,0.5C129,4.5,129,4.7,129,5c0,0.4-0.2,0.8-0.5,1.1c-0.3,0.3-0.7,0.4-1.2,0.4c-0.5,0-0.9-0.1-1.2-0.4
			c-0.3-0.3-0.5-0.7-0.5-1.1c0-0.3,0.1-0.6,0.2-0.8C126.2,4,126.4,3.8,126.7,3.8z M126.4,5c0,0.2,0,0.3,0.1,0.5
			c0.1,0.2,0.2,0.3,0.4,0.4c0.2,0.1,0.3,0.1,0.5,0.1c0.3,0,0.5-0.1,0.7-0.3c0.2-0.2,0.3-0.4,0.3-0.7c0-0.3-0.1-0.5-0.3-0.7
			c-0.2-0.2-0.4-0.3-0.7-0.3c-0.3,0-0.5,0.1-0.7,0.3C126.5,4.5,126.4,4.7,126.4,5z M126.6,2.7c0,0.2,0.1,0.4,0.2,0.6
			c0.2,0.2,0.4,0.2,0.6,0.2c0.2,0,0.4-0.1,0.6-0.2c0.2-0.1,0.2-0.3,0.2-0.6c0-0.2-0.1-0.4-0.2-0.6c-0.2-0.2-0.3-0.2-0.6-0.2
			c-0.2,0-0.4,0.1-0.6,0.2C126.7,2.3,126.6,2.5,126.6,2.7z"/>
	</g>
	<g>
		<path fill="#FFFFFF" d="M141.7,5.3l0.6,0c0,0.3,0.1,0.5,0.3,0.6c0.1,0.1,0.3,0.2,0.5,0.2c0.2,0,0.4,0,0.5-0.1
			c0.1-0.1,0.3-0.2,0.3-0.3c0.1-0.1,0.2-0.3,0.2-0.6c0.1-0.2,0.1-0.5,0.1-0.8c0,0,0-0.1,0-0.1c-0.1,0.2-0.3,0.4-0.5,0.5
			c-0.2,0.1-0.4,0.2-0.7,0.2c-0.4,0-0.8-0.2-1-0.5c-0.3-0.3-0.4-0.7-0.4-1.2c0-0.5,0.1-0.9,0.4-1.2c0.3-0.3,0.7-0.5,1.1-0.5
			c0.3,0,0.6,0.1,0.9,0.3c0.3,0.2,0.5,0.4,0.6,0.8c0.1,0.3,0.2,0.8,0.2,1.4c0,0.6-0.1,1.2-0.2,1.5c-0.1,0.4-0.3,0.7-0.6,0.9
			c-0.3,0.2-0.6,0.3-1,0.3c-0.4,0-0.7-0.1-1-0.3C141.9,6,141.8,5.7,141.7,5.3z M144.2,3.1c0-0.4-0.1-0.6-0.3-0.8
			c-0.2-0.2-0.4-0.3-0.7-0.3c-0.3,0-0.5,0.1-0.7,0.3c-0.2,0.2-0.3,0.5-0.3,0.9c0,0.3,0.1,0.6,0.3,0.8c0.2,0.2,0.4,0.3,0.7,0.3
			c0.3,0,0.5-0.1,0.7-0.3C144.1,3.7,144.2,3.5,144.2,3.1z"/>
	</g>
	<g>
		<path fill="#FFFFFF" d="M5,19.3H4.4v-3.9c-0.1,0.1-0.3,0.3-0.6,0.4c-0.2,0.1-0.5,0.2-0.6,0.3v-0.6C3.5,15.4,3.8,15.2,4,15
			c0.3-0.2,0.4-0.5,0.5-0.7H5V19.3z"/>
	</g>
	<g>
		<path fill="#FFFFFF" d="M5.7,34.7v0.6H2.4c0-0.1,0-0.3,0.1-0.4c0.1-0.2,0.2-0.4,0.4-0.7c0.2-0.2,0.5-0.5,0.8-0.8
			c0.5-0.4,0.9-0.8,1.1-1.1c0.2-0.3,0.3-0.5,0.3-0.7c0-0.2-0.1-0.5-0.3-0.6c-0.2-0.2-0.4-0.3-0.7-0.3c-0.3,0-0.5,0.1-0.7,0.3
			c-0.2,0.2-0.3,0.4-0.3,0.7l-0.6-0.1c0-0.5,0.2-0.8,0.5-1.1c0.3-0.2,0.7-0.4,1.1-0.4c0.5,0,0.9,0.1,1.1,0.4c0.3,0.3,0.4,0.6,0.4,1
			c0,0.2,0,0.4-0.1,0.6c-0.1,0.2-0.2,0.4-0.4,0.6C5,33,4.7,33.3,4.2,33.7c-0.4,0.3-0.6,0.5-0.7,0.6c-0.1,0.1-0.2,0.2-0.3,0.3H5.7z"
			/>
	</g>
	<g>
		<path fill="#FFFFFF" d="M2.4,49.9L3,49.8c0.1,0.4,0.2,0.6,0.4,0.8c0.2,0.2,0.4,0.2,0.6,0.2c0.3,0,0.5-0.1,0.7-0.3
			C4.9,50.3,5,50,5,49.7C5,49.5,5,49.2,4.8,49c-0.2-0.2-0.4-0.3-0.7-0.3c-0.1,0-0.3,0-0.4,0.1l0.1-0.5c0,0,0.1,0,0.1,0
			c0.3,0,0.5-0.1,0.7-0.2c0.2-0.1,0.3-0.3,0.3-0.6c0-0.2-0.1-0.4-0.2-0.6c-0.2-0.1-0.3-0.2-0.6-0.2c-0.2,0-0.4,0.1-0.6,0.2
			c-0.2,0.1-0.3,0.4-0.3,0.7l-0.6-0.1c0.1-0.4,0.2-0.7,0.5-1c0.3-0.2,0.6-0.3,1-0.3c0.3,0,0.5,0.1,0.8,0.2c0.2,0.1,0.4,0.3,0.5,0.5
			c0.1,0.2,0.2,0.4,0.2,0.6c0,0.2-0.1,0.4-0.2,0.6c-0.1,0.2-0.3,0.3-0.5,0.4c0.3,0.1,0.5,0.2,0.7,0.4c0.2,0.2,0.2,0.5,0.2,0.8
			c0,0.4-0.2,0.8-0.5,1.1c-0.3,0.3-0.7,0.5-1.2,0.5c-0.4,0-0.8-0.1-1.1-0.4C2.6,50.6,2.5,50.3,2.4,49.9z"/>
	</g>
	<g>
		<path fill="#FFFFFF" d="M4.5,67.1v-1.2H2.3v-0.6l2.3-3.2h0.5v3.2h0.7v0.6H5.1v1.2H4.5z M4.5,65.4v-2.2l-1.6,2.2H4.5z"/>
	</g>
	<g>
		<path fill="#FFFFFF" d="M2.4,81.8l0.6,0c0,0.3,0.2,0.5,0.3,0.7c0.2,0.2,0.4,0.2,0.6,0.2c0.3,0,0.5-0.1,0.8-0.3
			c0.2-0.2,0.3-0.5,0.3-0.9c0-0.4-0.1-0.6-0.3-0.8c-0.2-0.2-0.5-0.3-0.8-0.3c-0.2,0-0.4,0-0.5,0.1c-0.2,0.1-0.3,0.2-0.4,0.4
			l-0.6-0.1L3,78.1h2.5v0.6h-2l-0.3,1.4c0.3-0.2,0.6-0.3,0.9-0.3c0.4,0,0.8,0.2,1.1,0.5c0.3,0.3,0.5,0.7,0.5,1.2
			c0,0.5-0.1,0.8-0.4,1.2C5,83,4.6,83.2,4,83.2c-0.5,0-0.8-0.1-1.1-0.4C2.6,82.5,2.4,82.2,2.4,81.8z"/>
	</g>
	<g>
		<path fill="#FFFFFF" d="M5.6,95.2l-0.6,0C5,95,4.9,94.9,4.8,94.8c-0.2-0.2-0.4-0.3-0.6-0.3c-0.2,0-0.4,0.1-0.5,0.2
			c-0.2,0.1-0.3,0.3-0.5,0.6C3.1,95.5,3,95.9,3,96.4c0.1-0.2,0.3-0.4,0.5-0.5c0.2-0.1,0.4-0.2,0.7-0.2c0.4,0,0.8,0.2,1,0.5
			c0.3,0.3,0.4,0.7,0.4,1.2c0,0.3-0.1,0.6-0.2,0.9c-0.1,0.3-0.3,0.5-0.6,0.6c-0.2,0.1-0.5,0.2-0.8,0.2c-0.5,0-0.9-0.2-1.3-0.6
			c-0.3-0.4-0.5-1-0.5-1.9c0-1,0.2-1.7,0.5-2.1C3.3,94.2,3.7,94,4.2,94c0.4,0,0.7,0.1,1,0.3C5.4,94.5,5.6,94.8,5.6,95.2z M3.1,97.4
			c0,0.2,0,0.4,0.1,0.6c0.1,0.2,0.2,0.3,0.4,0.4c0.2,0.1,0.3,0.2,0.5,0.2c0.3,0,0.5-0.1,0.7-0.3c0.2-0.2,0.3-0.5,0.3-0.9
			c0-0.3-0.1-0.6-0.3-0.8c-0.2-0.2-0.4-0.3-0.7-0.3c-0.3,0-0.5,0.1-0.7,0.3C3.2,96.8,3.1,97.1,3.1,97.4z"/>
	</g>
	<g>
		<path fill="#FFFFFF" d="M2.4,110.6V110h3.2v0.5c-0.3,0.3-0.6,0.8-0.9,1.4S4.2,113,4,113.6c-0.1,0.4-0.2,0.9-0.2,1.4H3.1
			c0-0.4,0.1-0.9,0.2-1.4c0.1-0.6,0.4-1.1,0.6-1.6c0.3-0.5,0.6-1,0.9-1.3H2.4z"/>
	</g>
	<g>
		<path fill="#FFFFFF" d="M3.4,128.2c-0.3-0.1-0.4-0.2-0.6-0.4c-0.1-0.2-0.2-0.4-0.2-0.6c0-0.4,0.1-0.7,0.4-0.9
			c0.3-0.2,0.6-0.4,1-0.4c0.4,0,0.8,0.1,1.1,0.4c0.3,0.3,0.4,0.6,0.4,0.9c0,0.2-0.1,0.4-0.2,0.6c-0.1,0.2-0.3,0.3-0.6,0.4
			c0.3,0.1,0.5,0.3,0.7,0.5c0.2,0.2,0.2,0.5,0.2,0.8c0,0.4-0.2,0.8-0.5,1.1C5,130.8,4.6,131,4.1,131c-0.5,0-0.9-0.1-1.2-0.4
			c-0.3-0.3-0.5-0.7-0.5-1.1c0-0.3,0.1-0.6,0.2-0.8C2.8,128.4,3.1,128.3,3.4,128.2z M3,129.4c0,0.2,0,0.3,0.1,0.5
			c0.1,0.2,0.2,0.3,0.4,0.4c0.2,0.1,0.3,0.1,0.5,0.1c0.3,0,0.5-0.1,0.7-0.3c0.2-0.2,0.3-0.4,0.3-0.7c0-0.3-0.1-0.5-0.3-0.7
			c-0.2-0.2-0.4-0.3-0.7-0.3c-0.3,0-0.5,0.1-0.7,0.3C3.1,128.9,3,129.2,3,129.4z M3.2,127.1c0,0.2,0.1,0.4,0.2,0.6
			c0.2,0.2,0.3,0.2,0.6,0.2c0.2,0,0.4-0.1,0.6-0.2c0.1-0.2,0.2-0.3,0.2-0.6c0-0.2-0.1-0.4-0.2-0.6c-0.2-0.2-0.3-0.2-0.6-0.2
			c-0.2,0-0.4,0.1-0.6,0.2C3.3,126.7,3.2,126.9,3.2,127.1z"/>
	</g>
	<g>
		<path fill="#FFFFFF" d="M2.5,145.7l0.6,0c0,0.3,0.1,0.5,0.3,0.6c0.1,0.1,0.3,0.2,0.5,0.2c0.2,0,0.4,0,0.5-0.1
			c0.1-0.1,0.3-0.2,0.3-0.3c0.1-0.1,0.2-0.3,0.2-0.6c0.1-0.2,0.1-0.5,0.1-0.8c0,0,0-0.1,0-0.1c-0.1,0.2-0.3,0.4-0.5,0.5
			c-0.2,0.1-0.4,0.2-0.7,0.2c-0.4,0-0.8-0.2-1-0.5c-0.3-0.3-0.4-0.7-0.4-1.2c0-0.5,0.1-0.9,0.4-1.2c0.3-0.3,0.7-0.5,1.1-0.5
			c0.3,0,0.6,0.1,0.9,0.3c0.3,0.2,0.5,0.4,0.6,0.8c0.1,0.3,0.2,0.8,0.2,1.4c0,0.6-0.1,1.2-0.2,1.5c-0.1,0.4-0.3,0.7-0.6,0.9
			c-0.3,0.2-0.6,0.3-1,0.3c-0.4,0-0.7-0.1-1-0.3C2.7,146.4,2.6,146.1,2.5,145.7z M5,143.5c0-0.4-0.1-0.6-0.3-0.8
			c-0.2-0.2-0.4-0.3-0.7-0.3c-0.3,0-0.5,0.1-0.7,0.3c-0.2,0.2-0.3,0.5-0.3,0.9c0,0.3,0.1,0.6,0.3,0.8c0.2,0.2,0.4,0.3,0.7,0.3
			c0.3,0,0.5-0.1,0.7-0.3C4.9,144.1,5,143.8,5,143.5z"/>
	</g>
	<g>
		<path d="M107.2,39.9c0.7,0,1.3,0.1,1.9,0.3c0.8,0.3,1.2,0.6,1.2,0.9c0,0.1-0.1,0.3-0.2,0.5c-0.1,0.2-0.2,0.4-0.3,0.7
			c0,0.3-0.1,0.6-0.1,0.9c0.2-0.1,0.3-0.1,0.4-0.1c0.1,0,0.3,0.1,0.6,0.4c0.2,0.2,0.4,0.4,0.4,0.6c0,0.1-0.2,0.3-0.5,0.6
			c-0.2,0.1-0.6,0.5-1.2,1c0,0.3,0,0.5,0,0.7c2-1.7,3.9-2.5,5.8-2.5c1.5,0,2.7,0.4,3.6,1.3c1,0.8,1.4,2.2,1.4,4c0,1.6-0.5,2.9-1.5,4
			c-1,1.1-3,2.5-6.2,3l-0.2-0.5c1.9-0.4,3.2-1.7,4.2-2.6c1-1.1,1.5-2.4,1.5-4c0-1.4-0.3-2.5-0.9-3.1c-0.6-0.7-1.5-1-2.6-1
			c-1.6,0-3.4,0.8-5.3,2.5c0,1.4,0,2.5,0,3.3c0.1,1.8,0.2,2.9,0.2,3.3s-0.1,0.9-0.4,1.3c-0.4,0.4-0.7,0.7-1,0.7
			c-0.3,0-0.5-0.3-0.5-1c0-1.1-0.5-2.2-1.6-3.1c-0.5,0.9-0.8,1.3-1.1,1.3c-0.2,0-0.4-0.2-0.6-0.5c-0.2-0.3-0.3-0.7-0.3-1.1
			c0-0.2,0.2-0.5,0.6-0.8c0.4-0.2,1.5-1.6,3.4-4.2c0-0.2,0-0.7,0-1.5c-0.8,0.4-1.3,0.7-1.5,0.8c-0.3,0.2-0.5,0.3-0.6,0.3
			c-0.2,0-0.6-0.2-1-0.7c-0.3-0.4-0.6-1.2-0.7-2.2l0.4-0.1c0.4,0.8,0.7,1.2,1.1,1.2c0.7,0,1.4-0.2,2.2-0.5l0.1-2.3
			c0-0.7-0.5-1.1-1.5-1.2V40C106.7,39.9,107,39.9,107.2,39.9z M107.6,49.4c-0.5,0.6-0.8,1-0.9,1.2c-0.1,0.1-0.3,0.5-0.7,1
			c0.6,0.4,1.1,0.9,1.6,1.3V49.4z"/>
	</g>
	<g>
		<path d="M40.3,104.4c0.8,0.2,1.6,0.6,2.2,1.3c0.5,0.6,0.8,1.2,0.8,1.6c0,0.2-0.2,0.6-0.6,1.1c-0.8,1.1-1.3,2.7-1.3,4.8
			c0,0.4,0.1,1.1,0.4,2.2c1.3-2.1,2.1-3.5,2.6-4.2l0.4,0.2c-1.2,2.9-1.8,4.6-1.8,5c0,0.3,0,0.6,0.1,0.9c0,0.2,0.1,0.4,0.1,0.7
			c0,0.8-0.2,1.3-0.7,1.3c-0.7,0-1.3-0.6-1.7-1.9c-0.4-1.1-0.6-2.5-0.6-4.2c0-1.1,0.2-2.5,0.6-4.3c0.3-1.3,0.4-2.1,0.4-2.4
			c0-0.7-0.3-1.3-1-1.6L40.3,104.4z M48.9,103.8c1.1,0,2,0.1,2.7,0.4c0.9,0.3,1.4,0.7,1.4,1.1c0,0.1-0.1,0.3-0.2,0.5
			c-0.2,0.3-0.3,0.6-0.3,1c0,0.2,0,0.7,0,1.3c1-0.2,1.5-0.4,1.7-0.5c0.2-0.2,0.4-0.3,0.5-0.3c0.2,0,0.5,0.1,0.8,0.4
			c0.3,0.3,0.5,0.6,0.5,1c0,0.3-0.2,0.5-0.7,0.6c-0.7,0.1-1.6,0.3-2.8,0.4c0,1.3,0,3,0,5.1c0,1.3-0.2,2.3-0.7,3
			c-1,1.3-2.9,1.9-5.2,2.6l-0.2-0.4c1.4-0.6,2.7-0.9,3.3-1.9c0.6-1,1-2.6,1-4.6v-3.6c-1.4,0.1-2.3,0.2-2.7,0.2c-1,0-1.7-0.2-2-0.6
			c-0.5-0.5-0.8-1.1-1-1.8l0.4-0.2c0.4,0.8,1,1.2,1.9,1.2c0.6,0,1.7-0.1,3.4-0.4v-2.2c0-1.1-0.5-1.7-1.6-1.9L48.9,103.8z"/>
	</g>
</g>
</svg>
