<?xml version="1.0" encoding="utf-8"?>
<!-- Generator: Adobe Illustrator 18.1.1, SVG Export Plug-In . SVG Version: 6.00 Build 0)  -->
<svg version="1.1" xmlns="http://www.w3.org/2000/svg" xmlns:xlink="http://www.w3.org/1999/xlink" x="0px" y="0px"
	 viewBox="0 0 160 160" enable-background="new 0 0 160 160" xml:space="preserve">
<g id="bg">
	<rect fill="#FFFFFF" width="160" height="160"/>
</g>
<g id="words">
	<g>
		<g>
			<path d="M3.9,10.8V2.9H5l4.1,6.2V2.9h1v7.9H9L4.9,4.6v6.2H3.9z"/>
			<path d="M11,6.9c0-1.3,0.4-2.3,1.1-3.1c0.7-0.7,1.6-1.1,2.7-1.1c0.7,0,1.4,0.2,2,0.5c0.6,0.3,1,0.8,1.3,1.5
				c0.3,0.6,0.5,1.3,0.5,2.1c0,0.8-0.2,1.5-0.5,2.1c-0.3,0.6-0.8,1.1-1.4,1.4c-0.6,0.3-1.2,0.5-1.9,0.5c-0.7,0-1.4-0.2-2-0.5
				c-0.6-0.4-1-0.8-1.3-1.5C11.1,8.3,11,7.6,11,6.9z M12,6.9c0,0.9,0.3,1.7,0.8,2.2C13.3,9.7,14,10,14.7,10c0.8,0,1.4-0.3,1.9-0.8
				c0.5-0.6,0.8-1.3,0.8-2.3c0-0.6-0.1-1.2-0.3-1.7c-0.2-0.5-0.5-0.8-0.9-1.1c-0.4-0.3-0.9-0.4-1.4-0.4c-0.7,0-1.4,0.3-1.9,0.8
				C12.3,4.9,12,5.7,12,6.9z"/>
			<path d="M19.3,10.8V2.9h1.1l4.1,6.2V2.9h1v7.9h-1.1l-4.1-6.2v6.2H19.3z"/>
			<path d="M26.4,6.9c0-1.3,0.4-2.3,1.1-3.1c0.7-0.7,1.6-1.1,2.7-1.1c0.7,0,1.4,0.2,2,0.5c0.6,0.3,1,0.8,1.3,1.5
				c0.3,0.6,0.5,1.3,0.5,2.1c0,0.8-0.2,1.5-0.5,2.1c-0.3,0.6-0.8,1.1-1.4,1.4c-0.6,0.3-1.2,0.5-1.9,0.5c-0.7,0-1.4-0.2-2-0.5
				c-0.6-0.4-1-0.8-1.3-1.5C26.5,8.3,26.4,7.6,26.4,6.9z M27.4,6.9c0,0.9,0.3,1.7,0.8,2.2c0.5,0.5,1.1,0.8,1.9,0.8
				c0.8,0,1.4-0.3,1.9-0.8c0.5-0.6,0.8-1.3,0.8-2.3c0-0.6-0.1-1.2-0.3-1.7C32.3,4.7,32,4.3,31.5,4c-0.4-0.3-0.9-0.4-1.4-0.4
				c-0.7,0-1.4,0.3-1.9,0.8C27.7,4.9,27.4,5.7,27.4,6.9z"/>
			<path d="M34.7,10.8V2.9h1.1l4.1,6.2V2.9h1v7.9h-1.1l-4.1-6.2v6.2H34.7z"/>
			<path d="M41.8,6.9c0-1.3,0.4-2.3,1.1-3.1c0.7-0.7,1.6-1.1,2.7-1.1c0.7,0,1.4,0.2,2,0.5c0.6,0.3,1,0.8,1.3,1.5
				c0.3,0.6,0.5,1.3,0.5,2.1c0,0.8-0.2,1.5-0.5,2.1c-0.3,0.6-0.8,1.1-1.4,1.4c-0.6,0.3-1.2,0.5-1.9,0.5c-0.7,0-1.4-0.2-2-0.5
				s-1-0.8-1.3-1.5C41.9,8.3,41.8,7.6,41.8,6.9z M42.8,6.9c0,0.9,0.3,1.7,0.8,2.2c0.5,0.5,1.1,0.8,1.9,0.8c0.8,0,1.4-0.3,1.9-0.8
				c0.5-0.6,0.8-1.3,0.8-2.3c0-0.6-0.1-1.2-0.3-1.7c-0.2-0.5-0.5-0.8-0.9-1.1c-0.4-0.3-0.9-0.4-1.4-0.4c-0.7,0-1.4,0.3-1.9,0.8
				C43.1,4.9,42.8,5.7,42.8,6.9z"/>
			<path d="M50.1,10.8V2.9h1.1l4.1,6.2V2.9h1v7.9h-1.1l-4.1-6.2v6.2H50.1z"/>
			<path d="M57.2,6.9c0-1.3,0.4-2.3,1.1-3.1c0.7-0.7,1.6-1.1,2.7-1.1c0.7,0,1.4,0.2,2,0.5c0.6,0.3,1,0.8,1.3,1.5
				c0.3,0.6,0.5,1.3,0.5,2.1c0,0.8-0.2,1.5-0.5,2.1c-0.3,0.6-0.8,1.1-1.4,1.4c-0.6,0.3-1.2,0.5-1.9,0.5c-0.7,0-1.4-0.2-2-0.5
				c-0.6-0.4-1-0.8-1.3-1.5C57.3,8.3,57.2,7.6,57.2,6.9z M58.2,6.9c0,0.9,0.3,1.7,0.8,2.2c0.5,0.5,1.1,0.8,1.9,0.8
				c0.8,0,1.4-0.3,1.9-0.8c0.5-0.6,0.8-1.3,0.8-2.3c0-0.6-0.1-1.2-0.3-1.7c-0.2-0.5-0.5-0.8-0.9-1.1c-0.4-0.3-0.9-0.4-1.4-0.4
				c-0.7,0-1.4,0.3-1.9,0.8C58.5,4.9,58.2,5.7,58.2,6.9z"/>
			<path d="M65.5,10.8V2.9h1.1l4.1,6.2V2.9h1v7.9h-1.1l-4.1-6.2v6.2H65.5z"/>
			<path d="M72.6,6.9c0-1.3,0.4-2.3,1.1-3.1c0.7-0.7,1.6-1.1,2.7-1.1c0.7,0,1.4,0.2,2,0.5c0.6,0.3,1,0.8,1.3,1.5
				c0.3,0.6,0.5,1.3,0.5,2.1c0,0.8-0.2,1.5-0.5,2.1c-0.3,0.6-0.8,1.1-1.4,1.4c-0.6,0.3-1.2,0.5-1.9,0.5c-0.7,0-1.4-0.2-2-0.5
				c-0.6-0.4-1-0.8-1.3-1.5C72.7,8.3,72.6,7.6,72.6,6.9z M73.6,6.9c0,0.9,0.3,1.7,0.8,2.2c0.5,0.5,1.1,0.8,1.9,0.8
				c0.8,0,1.4-0.3,1.9-0.8C78.8,8.6,79,7.8,79,6.8c0-0.6-0.1-1.2-0.3-1.7c-0.2-0.5-0.5-0.8-0.9-1.1c-0.4-0.3-0.9-0.4-1.4-0.4
				c-0.7,0-1.4,0.3-1.9,0.8C73.9,4.9,73.6,5.7,73.6,6.9z"/>
			<path d="M80.9,10.8V2.9H82l4.1,6.2V2.9h1v7.9H86l-4.1-6.2v6.2H80.9z"/>
			<path d="M88,6.9c0-1.3,0.4-2.3,1.1-3.1c0.7-0.7,1.6-1.1,2.7-1.1c0.7,0,1.4,0.2,2,0.5c0.6,0.3,1,0.8,1.3,1.5
				c0.3,0.6,0.5,1.3,0.5,2.1c0,0.8-0.2,1.5-0.5,2.1c-0.3,0.6-0.8,1.1-1.4,1.4c-0.6,0.3-1.2,0.5-1.9,0.5c-0.7,0-1.4-0.2-2-0.5
				c-0.6-0.4-1-0.8-1.3-1.5C88.1,8.3,88,7.6,88,6.9z M89,6.9c0,0.9,0.3,1.7,0.8,2.2C90.3,9.7,91,10,91.7,10c0.8,0,1.4-0.3,1.9-0.8
				c0.5-0.6,0.8-1.3,0.8-2.3c0-0.6-0.1-1.2-0.3-1.7c-0.2-0.5-0.5-0.8-0.9-1.1c-0.4-0.3-0.9-0.4-1.4-0.4c-0.7,0-1.4,0.3-1.9,0.8
				C89.3,4.9,89,5.7,89,6.9z"/>
			<path d="M96.3,10.8V2.9h1.1l4.1,6.2V2.9h1v7.9h-1.1l-4.1-6.2v6.2H96.3z"/>
			<path d="M103.4,6.9c0-1.3,0.4-2.3,1.1-3.1c0.7-0.7,1.6-1.1,2.7-1.1c0.7,0,1.4,0.2,2,0.5c0.6,0.3,1,0.8,1.3,1.5
				c0.3,0.6,0.5,1.3,0.5,2.1c0,0.8-0.2,1.5-0.5,2.1c-0.3,0.6-0.8,1.1-1.4,1.4c-0.6,0.3-1.2,0.5-1.9,0.5c-0.7,0-1.4-0.2-2-0.5
				s-1-0.8-1.3-1.5C103.5,8.3,103.4,7.6,103.4,6.9z M104.4,6.9c0,0.9,0.3,1.7,0.8,2.2c0.5,0.5,1.1,0.8,1.9,0.8
				c0.8,0,1.4-0.3,1.9-0.8c0.5-0.6,0.8-1.3,0.8-2.3c0-0.6-0.1-1.2-0.3-1.7c-0.2-0.5-0.5-0.8-0.9-1.1c-0.4-0.3-0.9-0.4-1.4-0.4
				c-0.7,0-1.4,0.3-1.9,0.8C104.7,4.9,104.4,5.7,104.4,6.9z"/>
			<path d="M111.7,10.8V2.9h1.1l4.1,6.2V2.9h1v7.9h-1.1l-4.1-6.2v6.2H111.7z"/>
			<path d="M118.8,6.9c0-1.3,0.4-2.3,1.1-3.1c0.7-0.7,1.6-1.1,2.7-1.1c0.7,0,1.4,0.2,2,0.5c0.6,0.3,1,0.8,1.3,1.5
				c0.3,0.6,0.5,1.3,0.5,2.1c0,0.8-0.2,1.5-0.5,2.1c-0.3,0.6-0.8,1.1-1.4,1.4c-0.6,0.3-1.2,0.5-1.9,0.5c-0.7,0-1.4-0.2-2-0.5
				c-0.6-0.4-1-0.8-1.3-1.5C118.9,8.3,118.8,7.6,118.8,6.9z M119.8,6.9c0,0.9,0.3,1.7,0.8,2.2c0.5,0.5,1.1,0.8,1.9,0.8
				c0.8,0,1.4-0.3,1.9-0.8c0.5-0.6,0.8-1.3,0.8-2.3c0-0.6-0.1-1.2-0.3-1.7c-0.2-0.5-0.5-0.8-0.9-1.1c-0.4-0.3-0.9-0.4-1.4-0.4
				c-0.7,0-1.4,0.3-1.9,0.8C120.1,4.9,119.8,5.7,119.8,6.9z"/>
			<path d="M127.1,10.8V2.9h1.1l4.1,6.2V2.9h1v7.9h-1.1l-4.1-6.2v6.2H127.1z"/>
			<path d="M134.2,6.9c0-1.3,0.4-2.3,1.1-3.1c0.7-0.7,1.6-1.1,2.7-1.1c0.7,0,1.4,0.2,2,0.5c0.6,0.3,1,0.8,1.3,1.5
				c0.3,0.6,0.5,1.3,0.5,2.1c0,0.8-0.2,1.5-0.5,2.1c-0.3,0.6-0.8,1.1-1.4,1.4c-0.6,0.3-1.2,0.5-1.9,0.5c-0.7,0-1.4-0.2-2-0.5
				s-1-0.8-1.3-1.5C134.3,8.3,134.2,7.6,134.2,6.9z M135.2,6.9c0,0.9,0.3,1.7,0.8,2.2c0.5,0.5,1.1,0.8,1.9,0.8
				c0.8,0,1.4-0.3,1.9-0.8c0.5-0.6,0.8-1.3,0.8-2.3c0-0.6-0.1-1.2-0.3-1.7c-0.2-0.5-0.5-0.8-0.9-1.1c-0.4-0.3-0.9-0.4-1.4-0.4
				c-0.7,0-1.4,0.3-1.9,0.8C135.5,4.9,135.2,5.7,135.2,6.9z"/>
			<path d="M142.5,10.8V2.9h1.1l4.1,6.2V2.9h1v7.9h-1.1l-4.1-6.2v6.2H142.5z"/>
			<path d="M149.6,6.9c0-1.3,0.4-2.3,1.1-3.1c0.7-0.7,1.6-1.1,2.7-1.1c0.7,0,1.4,0.2,2,0.5c0.6,0.3,1,0.8,1.3,1.5
				c0.3,0.6,0.5,1.3,0.5,2.1c0,0.8-0.2,1.5-0.5,2.1c-0.3,0.6-0.8,1.1-1.4,1.4c-0.6,0.3-1.2,0.5-1.9,0.5c-0.7,0-1.4-0.2-2-0.5
				c-0.6-0.4-1-0.8-1.3-1.5C149.7,8.3,149.6,7.6,149.6,6.9z M150.6,6.9c0,0.9,0.3,1.7,0.8,2.2c0.5,0.5,1.1,0.8,1.9,0.8
				c0.8,0,1.4-0.3,1.9-0.8c0.5-0.6,0.8-1.3,0.8-2.3c0-0.6-0.1-1.2-0.3-1.7c-0.2-0.5-0.5-0.8-1-1.1c-0.4-0.3-0.9-0.4-1.4-0.4
				c-0.7,0-1.4,0.3-1.9,0.8C150.9,4.9,150.6,5.7,150.6,6.9z"/>
		</g>
		<g>
			<path d="M3.9,19.8v-7.9H5l4.1,6.2v-6.2h1v7.9H9l-4.1-6.2v6.2H3.9z"/>
			<path d="M11,16c0-1.3,0.4-2.3,1.1-3.1c0.7-0.7,1.6-1.1,2.7-1.1c0.7,0,1.4,0.2,2,0.5c0.6,0.3,1,0.8,1.3,1.5
				c0.3,0.6,0.5,1.3,0.5,2.1c0,0.8-0.2,1.5-0.5,2.1c-0.3,0.6-0.8,1.1-1.4,1.4c-0.6,0.3-1.2,0.5-1.9,0.5c-0.7,0-1.4-0.2-2-0.5
				c-0.6-0.4-1-0.8-1.3-1.5C11.1,17.3,11,16.7,11,16z M12,16c0,0.9,0.3,1.7,0.8,2.2c0.5,0.5,1.1,0.8,1.9,0.8c0.8,0,1.4-0.3,1.9-0.8
				c0.5-0.6,0.8-1.3,0.8-2.3c0-0.6-0.1-1.2-0.3-1.7c-0.2-0.5-0.5-0.8-0.9-1.1c-0.4-0.3-0.9-0.4-1.4-0.4c-0.7,0-1.4,0.3-1.9,0.8
				C12.3,14,12,14.8,12,16z"/>
			<path d="M19.3,19.8v-7.9h1.1l4.1,6.2v-6.2h1v7.9h-1.1l-4.1-6.2v6.2H19.3z"/>
			<path d="M26.4,16c0-1.3,0.4-2.3,1.1-3.1c0.7-0.7,1.6-1.1,2.7-1.1c0.7,0,1.4,0.2,2,0.5c0.6,0.3,1,0.8,1.3,1.5
				c0.3,0.6,0.5,1.3,0.5,2.1c0,0.8-0.2,1.5-0.5,2.1c-0.3,0.6-0.8,1.1-1.4,1.4c-0.6,0.3-1.2,0.5-1.9,0.5c-0.7,0-1.4-0.2-2-0.5
				c-0.6-0.4-1-0.8-1.3-1.5C26.5,17.3,26.4,16.7,26.4,16z M27.4,16c0,0.9,0.3,1.7,0.8,2.2c0.5,0.5,1.1,0.8,1.9,0.8
				c0.8,0,1.4-0.3,1.9-0.8c0.5-0.6,0.8-1.3,0.8-2.3c0-0.6-0.1-1.2-0.3-1.7c-0.2-0.5-0.5-0.8-0.9-1.1c-0.4-0.3-0.9-0.4-1.4-0.4
				c-0.7,0-1.4,0.3-1.9,0.8C27.7,14,27.4,14.8,27.4,16z"/>
			<path d="M34.7,19.8v-7.9h1.1l4.1,6.2v-6.2h1v7.9h-1.1l-4.1-6.2v6.2H34.7z"/>
			<path d="M41.8,16c0-1.3,0.4-2.3,1.1-3.1c0.7-0.7,1.6-1.1,2.7-1.1c0.7,0,1.4,0.2,2,0.5c0.6,0.3,1,0.8,1.3,1.5
				c0.3,0.6,0.5,1.3,0.5,2.1c0,0.8-0.2,1.5-0.5,2.1c-0.3,0.6-0.8,1.1-1.4,1.4c-0.6,0.3-1.2,0.5-1.9,0.5c-0.7,0-1.4-0.2-2-0.5
				c-0.6-0.4-1-0.8-1.3-1.5C41.9,17.3,41.8,16.7,41.8,16z M42.8,16c0,0.9,0.3,1.7,0.8,2.2c0.5,0.5,1.1,0.8,1.9,0.8
				c0.8,0,1.4-0.3,1.9-0.8c0.5-0.6,0.8-1.3,0.8-2.3c0-0.6-0.1-1.2-0.3-1.7c-0.2-0.5-0.5-0.8-0.9-1.1c-0.4-0.3-0.9-0.4-1.4-0.4
				c-0.7,0-1.4,0.3-1.9,0.8C43.1,14,42.8,14.8,42.8,16z"/>
			<path d="M50.1,19.8v-7.9h1.1l4.1,6.2v-6.2h1v7.9h-1.1l-4.1-6.2v6.2H50.1z"/>
			<path d="M57.2,16c0-1.3,0.4-2.3,1.1-3.1c0.7-0.7,1.6-1.1,2.7-1.1c0.7,0,1.4,0.2,2,0.5c0.6,0.3,1,0.8,1.3,1.5
				c0.3,0.6,0.5,1.3,0.5,2.1c0,0.8-0.2,1.5-0.5,2.1c-0.3,0.6-0.8,1.1-1.4,1.4c-0.6,0.3-1.2,0.5-1.9,0.5c-0.7,0-1.4-0.2-2-0.5
				c-0.6-0.4-1-0.8-1.3-1.5C57.3,17.3,57.2,16.7,57.2,16z M58.2,16c0,0.9,0.3,1.7,0.8,2.2c0.5,0.5,1.1,0.8,1.9,0.8
				c0.8,0,1.4-0.3,1.9-0.8c0.5-0.6,0.8-1.3,0.8-2.3c0-0.6-0.1-1.2-0.3-1.7c-0.2-0.5-0.5-0.8-0.9-1.1c-0.4-0.3-0.9-0.4-1.4-0.4
				c-0.7,0-1.4,0.3-1.9,0.8C58.5,14,58.2,14.8,58.2,16z"/>
			<path d="M65.5,19.8v-7.9h1.1l4.1,6.2v-6.2h1v7.9h-1.1l-4.1-6.2v6.2H65.5z"/>
			<path d="M72.6,16c0-1.3,0.4-2.3,1.1-3.1c0.7-0.7,1.6-1.1,2.7-1.1c0.7,0,1.4,0.2,2,0.5c0.6,0.3,1,0.8,1.3,1.5
				c0.3,0.6,0.5,1.3,0.5,2.1c0,0.8-0.2,1.5-0.5,2.1c-0.3,0.6-0.8,1.1-1.4,1.4c-0.6,0.3-1.2,0.5-1.9,0.5c-0.7,0-1.4-0.2-2-0.5
				c-0.6-0.4-1-0.8-1.3-1.5C72.7,17.3,72.6,16.7,72.6,16z M73.6,16c0,0.9,0.3,1.7,0.8,2.2c0.5,0.5,1.1,0.8,1.9,0.8
				c0.8,0,1.4-0.3,1.9-0.8c0.5-0.6,0.8-1.3,0.8-2.3c0-0.6-0.1-1.2-0.3-1.7c-0.2-0.5-0.5-0.8-0.9-1.1c-0.4-0.3-0.9-0.4-1.4-0.4
				c-0.7,0-1.4,0.3-1.9,0.8C73.9,14,73.6,14.8,73.6,16z"/>
			<path d="M80.9,19.8v-7.9H82l4.1,6.2v-6.2h1v7.9H86l-4.1-6.2v6.2H80.9z"/>
			<path d="M88,16c0-1.3,0.4-2.3,1.1-3.1c0.7-0.7,1.6-1.1,2.7-1.1c0.7,0,1.4,0.2,2,0.5c0.6,0.3,1,0.8,1.3,1.5
				c0.3,0.6,0.5,1.3,0.5,2.1c0,0.8-0.2,1.5-0.5,2.1c-0.3,0.6-0.8,1.1-1.4,1.4c-0.6,0.3-1.2,0.5-1.9,0.5c-0.7,0-1.4-0.2-2-0.5
				c-0.6-0.4-1-0.8-1.3-1.5C88.1,17.3,88,16.7,88,16z M89,16c0,0.9,0.3,1.7,0.8,2.2c0.5,0.5,1.1,0.8,1.9,0.8c0.8,0,1.4-0.3,1.9-0.8
				c0.5-0.6,0.8-1.3,0.8-2.3c0-0.6-0.1-1.2-0.3-1.7c-0.2-0.5-0.5-0.8-0.9-1.1c-0.4-0.3-0.9-0.4-1.4-0.4c-0.7,0-1.4,0.3-1.9,0.8
				C89.3,14,89,14.8,89,16z"/>
			<path d="M96.3,19.8v-7.9h1.1l4.1,6.2v-6.2h1v7.9h-1.1l-4.1-6.2v6.2H96.3z"/>
			<path d="M103.4,16c0-1.3,0.4-2.3,1.1-3.1c0.7-0.7,1.6-1.1,2.7-1.1c0.7,0,1.4,0.2,2,0.5c0.6,0.3,1,0.8,1.3,1.5
				c0.3,0.6,0.5,1.3,0.5,2.1c0,0.8-0.2,1.5-0.5,2.1c-0.3,0.6-0.8,1.1-1.4,1.4c-0.6,0.3-1.2,0.5-1.9,0.5c-0.7,0-1.4-0.2-2-0.5
				c-0.6-0.4-1-0.8-1.3-1.5C103.5,17.3,103.4,16.7,103.4,16z M104.4,16c0,0.9,0.3,1.7,0.8,2.2c0.5,0.5,1.1,0.8,1.9,0.8
				c0.8,0,1.4-0.3,1.9-0.8c0.5-0.6,0.8-1.3,0.8-2.3c0-0.6-0.1-1.2-0.3-1.7c-0.2-0.5-0.5-0.8-0.9-1.1c-0.4-0.3-0.9-0.4-1.4-0.4
				c-0.7,0-1.4,0.3-1.9,0.8C104.7,14,104.4,14.8,104.4,16z"/>
			<path d="M111.7,19.8v-7.9h1.1l4.1,6.2v-6.2h1v7.9h-1.1l-4.1-6.2v6.2H111.7z"/>
			<path d="M118.8,16c0-1.3,0.4-2.3,1.1-3.1c0.7-0.7,1.6-1.1,2.7-1.1c0.7,0,1.4,0.2,2,0.5c0.6,0.3,1,0.8,1.3,1.5
				c0.3,0.6,0.5,1.3,0.5,2.1c0,0.8-0.2,1.5-0.5,2.1c-0.3,0.6-0.8,1.1-1.4,1.4c-0.6,0.3-1.2,0.5-1.9,0.5c-0.7,0-1.4-0.2-2-0.5
				c-0.6-0.4-1-0.8-1.3-1.5C118.9,17.3,118.8,16.7,118.8,16z M119.8,16c0,0.9,0.3,1.7,0.8,2.2c0.5,0.5,1.1,0.8,1.9,0.8
				c0.8,0,1.4-0.3,1.9-0.8c0.5-0.6,0.8-1.3,0.8-2.3c0-0.6-0.1-1.2-0.3-1.7c-0.2-0.5-0.5-0.8-0.9-1.1c-0.4-0.3-0.9-0.4-1.4-0.4
				c-0.7,0-1.4,0.3-1.9,0.8C120.1,14,119.8,14.8,119.8,16z"/>
			<path d="M127.1,19.8v-7.9h1.1l4.1,6.2v-6.2h1v7.9h-1.1l-4.1-6.2v6.2H127.1z"/>
			<path d="M134.2,16c0-1.3,0.4-2.3,1.1-3.1c0.7-0.7,1.6-1.1,2.7-1.1c0.7,0,1.4,0.2,2,0.5c0.6,0.3,1,0.8,1.3,1.5
				c0.3,0.6,0.5,1.3,0.5,2.1c0,0.8-0.2,1.5-0.5,2.1c-0.3,0.6-0.8,1.1-1.4,1.4c-0.6,0.3-1.2,0.5-1.9,0.5c-0.7,0-1.4-0.2-2-0.5
				c-0.6-0.4-1-0.8-1.3-1.5C134.3,17.3,134.2,16.7,134.2,16z M135.2,16c0,0.9,0.3,1.7,0.8,2.2c0.5,0.5,1.1,0.8,1.9,0.8
				c0.8,0,1.4-0.3,1.9-0.8c0.5-0.6,0.8-1.3,0.8-2.3c0-0.6-0.1-1.2-0.3-1.7c-0.2-0.5-0.5-0.8-0.9-1.1c-0.4-0.3-0.9-0.4-1.4-0.4
				c-0.7,0-1.4,0.3-1.9,0.8C135.5,14,135.2,14.8,135.2,16z"/>
			<path d="M142.5,19.8v-7.9h1.1l4.1,6.2v-6.2h1v7.9h-1.1l-4.1-6.2v6.2H142.5z"/>
			<path d="M149.6,16c0-1.3,0.4-2.3,1.1-3.1c0.7-0.7,1.6-1.1,2.7-1.1c0.7,0,1.4,0.2,2,0.5c0.6,0.3,1,0.8,1.3,1.5
				c0.3,0.6,0.5,1.3,0.5,2.1c0,0.8-0.2,1.5-0.5,2.1c-0.3,0.6-0.8,1.1-1.4,1.4c-0.6,0.3-1.2,0.5-1.9,0.5c-0.7,0-1.4-0.2-2-0.5
				c-0.6-0.4-1-0.8-1.3-1.5C149.7,17.3,149.6,16.7,149.6,16z M150.6,16c0,0.9,0.3,1.7,0.8,2.2c0.5,0.5,1.1,0.8,1.9,0.8
				c0.8,0,1.4-0.3,1.9-0.8c0.5-0.6,0.8-1.3,0.8-2.3c0-0.6-0.1-1.2-0.3-1.7c-0.2-0.5-0.5-0.8-1-1.1c-0.4-0.3-0.9-0.4-1.4-0.4
				c-0.7,0-1.4,0.3-1.9,0.8C150.9,14,150.6,14.8,150.6,16z"/>
		</g>
		<g>
			<path d="M3.9,28.9V21H5l4.1,6.2V21h1v7.9H9l-4.1-6.2v6.2H3.9z"/>
			<path d="M11,25c0-1.3,0.4-2.3,1.1-3.1c0.7-0.7,1.6-1.1,2.7-1.1c0.7,0,1.4,0.2,2,0.5c0.6,0.3,1,0.8,1.3,1.5
				c0.3,0.6,0.5,1.3,0.5,2.1c0,0.8-0.2,1.5-0.5,2.1c-0.3,0.6-0.8,1.1-1.4,1.4c-0.6,0.3-1.2,0.5-1.9,0.5c-0.7,0-1.4-0.2-2-0.5
				c-0.6-0.4-1-0.8-1.3-1.5C11.1,26.4,11,25.7,11,25z M12,25c0,0.9,0.3,1.7,0.8,2.2c0.5,0.5,1.1,0.8,1.9,0.8c0.8,0,1.4-0.3,1.9-0.8
				c0.5-0.6,0.8-1.3,0.8-2.3c0-0.6-0.1-1.2-0.3-1.7c-0.2-0.5-0.5-0.8-0.9-1.1c-0.4-0.3-0.9-0.4-1.4-0.4c-0.7,0-1.4,0.3-1.9,0.8
				C12.3,23,12,23.9,12,25z"/>
			<path d="M19.3,28.9V21h1.1l4.1,6.2V21h1v7.9h-1.1l-4.1-6.2v6.2H19.3z"/>
			<path d="M26.4,25c0-1.3,0.4-2.3,1.1-3.1c0.7-0.7,1.6-1.1,2.7-1.1c0.7,0,1.4,0.2,2,0.5c0.6,0.3,1,0.8,1.3,1.5
				c0.3,0.6,0.5,1.3,0.5,2.1c0,0.8-0.2,1.5-0.5,2.1c-0.3,0.6-0.8,1.1-1.4,1.4c-0.6,0.3-1.2,0.5-1.9,0.5c-0.7,0-1.4-0.2-2-0.5
				c-0.6-0.4-1-0.8-1.3-1.5C26.5,26.4,26.4,25.7,26.4,25z M27.4,25c0,0.9,0.3,1.7,0.8,2.2c0.5,0.5,1.1,0.8,1.9,0.8
				c0.8,0,1.4-0.3,1.9-0.8c0.5-0.6,0.8-1.3,0.8-2.3c0-0.6-0.1-1.2-0.3-1.7c-0.2-0.5-0.5-0.8-0.9-1.1c-0.4-0.3-0.9-0.4-1.4-0.4
				c-0.7,0-1.4,0.3-1.9,0.8C27.7,23,27.4,23.9,27.4,25z"/>
			<path d="M34.7,28.9V21h1.1l4.1,6.2V21h1v7.9h-1.1l-4.1-6.2v6.2H34.7z"/>
			<path d="M41.8,25c0-1.3,0.4-2.3,1.1-3.1c0.7-0.7,1.6-1.1,2.7-1.1c0.7,0,1.4,0.2,2,0.5c0.6,0.3,1,0.8,1.3,1.5
				c0.3,0.6,0.5,1.3,0.5,2.1c0,0.8-0.2,1.5-0.5,2.1c-0.3,0.6-0.8,1.1-1.4,1.4c-0.6,0.3-1.2,0.5-1.9,0.5c-0.7,0-1.4-0.2-2-0.5
				c-0.6-0.4-1-0.8-1.3-1.5C41.9,26.4,41.8,25.7,41.8,25z M42.8,25c0,0.9,0.3,1.7,0.8,2.2c0.5,0.5,1.1,0.8,1.9,0.8
				c0.8,0,1.4-0.3,1.9-0.8c0.5-0.6,0.8-1.3,0.8-2.3c0-0.6-0.1-1.2-0.3-1.7c-0.2-0.5-0.5-0.8-0.9-1.1c-0.4-0.3-0.9-0.4-1.4-0.4
				c-0.7,0-1.4,0.3-1.9,0.8C43.1,23,42.8,23.9,42.8,25z"/>
			<path d="M50.1,28.9V21h1.1l4.1,6.2V21h1v7.9h-1.1l-4.1-6.2v6.2H50.1z"/>
			<path d="M57.2,25c0-1.3,0.4-2.3,1.1-3.1c0.7-0.7,1.6-1.1,2.7-1.1c0.7,0,1.4,0.2,2,0.5c0.6,0.3,1,0.8,1.3,1.5
				c0.3,0.6,0.5,1.3,0.5,2.1c0,0.8-0.2,1.5-0.5,2.1c-0.3,0.6-0.8,1.1-1.4,1.4c-0.6,0.3-1.2,0.5-1.9,0.5c-0.7,0-1.4-0.2-2-0.5
				c-0.6-0.4-1-0.8-1.3-1.5C57.3,26.4,57.2,25.7,57.2,25z M58.2,25c0,0.9,0.3,1.7,0.8,2.2c0.5,0.5,1.1,0.8,1.9,0.8
				c0.8,0,1.4-0.3,1.9-0.8c0.5-0.6,0.8-1.3,0.8-2.3c0-0.6-0.1-1.2-0.3-1.7c-0.2-0.5-0.5-0.8-0.9-1.1c-0.4-0.3-0.9-0.4-1.4-0.4
				c-0.7,0-1.4,0.3-1.9,0.8C58.5,23,58.2,23.9,58.2,25z"/>
			<path d="M65.5,28.9V21h1.1l4.1,6.2V21h1v7.9h-1.1l-4.1-6.2v6.2H65.5z"/>
			<path d="M72.6,25c0-1.3,0.4-2.3,1.1-3.1c0.7-0.7,1.6-1.1,2.7-1.1c0.7,0,1.4,0.2,2,0.5c0.6,0.3,1,0.8,1.3,1.5
				c0.3,0.6,0.5,1.3,0.5,2.1c0,0.8-0.2,1.5-0.5,2.1c-0.3,0.6-0.8,1.1-1.4,1.4C77.7,28.8,77,29,76.3,29c-0.7,0-1.4-0.2-2-0.5
				c-0.6-0.4-1-0.8-1.3-1.5C72.7,26.4,72.6,25.7,72.6,25z M73.6,25c0,0.9,0.3,1.7,0.8,2.2c0.5,0.5,1.1,0.8,1.9,0.8
				c0.8,0,1.4-0.3,1.9-0.8c0.5-0.6,0.8-1.3,0.8-2.3c0-0.6-0.1-1.2-0.3-1.7c-0.2-0.5-0.5-0.8-0.9-1.1c-0.4-0.3-0.9-0.4-1.4-0.4
				c-0.7,0-1.4,0.3-1.9,0.8C73.9,23,73.6,23.9,73.6,25z"/>
			<path d="M80.9,28.9V21H82l4.1,6.2V21h1v7.9H86l-4.1-6.2v6.2H80.9z"/>
			<path d="M88,25c0-1.3,0.4-2.3,1.1-3.1c0.7-0.7,1.6-1.1,2.7-1.1c0.7,0,1.4,0.2,2,0.5c0.6,0.3,1,0.8,1.3,1.5
				c0.3,0.6,0.5,1.3,0.5,2.1c0,0.8-0.2,1.5-0.5,2.1c-0.3,0.6-0.8,1.1-1.4,1.4c-0.6,0.3-1.2,0.5-1.9,0.5c-0.7,0-1.4-0.2-2-0.5
				c-0.6-0.4-1-0.8-1.3-1.5C88.1,26.4,88,25.7,88,25z M89,25c0,0.9,0.3,1.7,0.8,2.2c0.5,0.5,1.1,0.8,1.9,0.8c0.8,0,1.4-0.3,1.9-0.8
				c0.5-0.6,0.8-1.3,0.8-2.3c0-0.6-0.1-1.2-0.3-1.7c-0.2-0.5-0.5-0.8-0.9-1.1c-0.4-0.3-0.9-0.4-1.4-0.4c-0.7,0-1.4,0.3-1.9,0.8
				C89.3,23,89,23.9,89,25z"/>
			<path d="M96.3,28.9V21h1.1l4.1,6.2V21h1v7.9h-1.1l-4.1-6.2v6.2H96.3z"/>
			<path d="M103.4,25c0-1.3,0.4-2.3,1.1-3.1c0.7-0.7,1.6-1.1,2.7-1.1c0.7,0,1.4,0.2,2,0.5c0.6,0.3,1,0.8,1.3,1.5
				c0.3,0.6,0.5,1.3,0.5,2.1c0,0.8-0.2,1.5-0.5,2.1c-0.3,0.6-0.8,1.1-1.4,1.4c-0.6,0.3-1.2,0.5-1.9,0.5c-0.7,0-1.4-0.2-2-0.5
				c-0.6-0.4-1-0.8-1.3-1.5C103.5,26.4,103.4,25.7,103.4,25z M104.4,25c0,0.9,0.3,1.7,0.8,2.2c0.5,0.5,1.1,0.8,1.9,0.8
				c0.8,0,1.4-0.3,1.9-0.8c0.5-0.6,0.8-1.3,0.8-2.3c0-0.6-0.1-1.2-0.3-1.7c-0.2-0.5-0.5-0.8-0.9-1.1c-0.4-0.3-0.9-0.4-1.4-0.4
				c-0.7,0-1.4,0.3-1.9,0.8C104.7,23,104.4,23.9,104.4,25z"/>
			<path d="M111.7,28.9V21h1.1l4.1,6.2V21h1v7.9h-1.1l-4.1-6.2v6.2H111.7z"/>
			<path d="M118.8,25c0-1.3,0.4-2.3,1.1-3.1c0.7-0.7,1.6-1.1,2.7-1.1c0.7,0,1.4,0.2,2,0.5c0.6,0.3,1,0.8,1.3,1.5
				c0.3,0.6,0.5,1.3,0.5,2.1c0,0.8-0.2,1.5-0.5,2.1c-0.3,0.6-0.8,1.1-1.4,1.4c-0.6,0.3-1.2,0.5-1.9,0.5c-0.7,0-1.4-0.2-2-0.5
				c-0.6-0.4-1-0.8-1.3-1.5C118.9,26.4,118.8,25.7,118.8,25z M119.8,25c0,0.9,0.3,1.7,0.8,2.2c0.5,0.5,1.1,0.8,1.9,0.8
				c0.8,0,1.4-0.3,1.9-0.8c0.5-0.6,0.8-1.3,0.8-2.3c0-0.6-0.1-1.2-0.3-1.7c-0.2-0.5-0.5-0.8-0.9-1.1c-0.4-0.3-0.9-0.4-1.4-0.4
				c-0.7,0-1.4,0.3-1.9,0.8C120.1,23,119.8,23.9,119.8,25z"/>
			<path d="M127.1,28.9V21h1.1l4.1,6.2V21h1v7.9h-1.1l-4.1-6.2v6.2H127.1z"/>
			<path d="M134.2,25c0-1.3,0.4-2.3,1.1-3.1c0.7-0.7,1.6-1.1,2.7-1.1c0.7,0,1.4,0.2,2,0.5c0.6,0.3,1,0.8,1.3,1.5
				c0.3,0.6,0.5,1.3,0.5,2.1c0,0.8-0.2,1.5-0.5,2.1c-0.3,0.6-0.8,1.1-1.4,1.4c-0.6,0.3-1.2,0.5-1.9,0.5c-0.7,0-1.4-0.2-2-0.5
				c-0.6-0.4-1-0.8-1.3-1.5C134.3,26.4,134.2,25.7,134.2,25z M135.2,25c0,0.9,0.3,1.7,0.8,2.2c0.5,0.5,1.1,0.8,1.9,0.8
				c0.8,0,1.4-0.3,1.9-0.8c0.5-0.6,0.8-1.3,0.8-2.3c0-0.6-0.1-1.2-0.3-1.7c-0.2-0.5-0.5-0.8-0.9-1.1c-0.4-0.3-0.9-0.4-1.4-0.4
				c-0.7,0-1.4,0.3-1.9,0.8C135.5,23,135.2,23.9,135.2,25z"/>
			<path d="M142.5,28.9V21h1.1l4.1,6.2V21h1v7.9h-1.1l-4.1-6.2v6.2H142.5z"/>
			<path d="M149.6,25c0-1.3,0.4-2.3,1.1-3.1c0.7-0.7,1.6-1.1,2.7-1.1c0.7,0,1.4,0.2,2,0.5c0.6,0.3,1,0.8,1.3,1.5
				c0.3,0.6,0.5,1.3,0.5,2.1c0,0.8-0.2,1.5-0.5,2.1c-0.3,0.6-0.8,1.1-1.4,1.4c-0.6,0.3-1.2,0.5-1.9,0.5c-0.7,0-1.4-0.2-2-0.5
				c-0.6-0.4-1-0.8-1.3-1.5C149.7,26.4,149.6,25.7,149.6,25z M150.6,25c0,0.9,0.3,1.7,0.8,2.2c0.5,0.5,1.1,0.8,1.9,0.8
				c0.8,0,1.4-0.3,1.9-0.8c0.5-0.6,0.8-1.3,0.8-2.3c0-0.6-0.1-1.2-0.3-1.7c-0.2-0.5-0.5-0.8-1-1.1c-0.4-0.3-0.9-0.4-1.4-0.4
				c-0.7,0-1.4,0.3-1.9,0.8C150.9,23,150.6,23.9,150.6,25z"/>
		</g>
		<g>
			<path d="M3.9,37.9V30H5l4.1,6.2V30h1v7.9H9l-4.1-6.2v6.2H3.9z"/>
			<path d="M11,34.1c0-1.3,0.4-2.3,1.1-3.1c0.7-0.7,1.6-1.1,2.7-1.1c0.7,0,1.4,0.2,2,0.5c0.6,0.3,1,0.8,1.3,1.5
				c0.3,0.6,0.5,1.3,0.5,2.1c0,0.8-0.2,1.5-0.5,2.1c-0.3,0.6-0.8,1.1-1.4,1.4c-0.6,0.3-1.2,0.5-1.9,0.5c-0.7,0-1.4-0.2-2-0.5
				c-0.6-0.4-1-0.8-1.3-1.5C11.1,35.4,11,34.8,11,34.1z M12,34.1c0,0.9,0.3,1.7,0.8,2.2c0.5,0.5,1.1,0.8,1.9,0.8
				c0.8,0,1.4-0.3,1.9-0.8c0.5-0.6,0.8-1.3,0.8-2.3c0-0.6-0.1-1.2-0.3-1.7c-0.2-0.5-0.5-0.8-0.9-1.1c-0.4-0.3-0.9-0.4-1.4-0.4
				c-0.7,0-1.4,0.3-1.9,0.8C12.3,32.1,12,32.9,12,34.1z"/>
			<path d="M19.3,37.9V30h1.1l4.1,6.2V30h1v7.9h-1.1l-4.1-6.2v6.2H19.3z"/>
			<path d="M26.4,34.1c0-1.3,0.4-2.3,1.1-3.1c0.7-0.7,1.6-1.1,2.7-1.1c0.7,0,1.4,0.2,2,0.5c0.6,0.3,1,0.8,1.3,1.5
				c0.3,0.6,0.5,1.3,0.5,2.1c0,0.8-0.2,1.5-0.5,2.1c-0.3,0.6-0.8,1.1-1.4,1.4c-0.6,0.3-1.2,0.5-1.9,0.5c-0.7,0-1.4-0.2-2-0.5
				c-0.6-0.4-1-0.8-1.3-1.5C26.5,35.4,26.4,34.8,26.4,34.1z M27.4,34.1c0,0.9,0.3,1.7,0.8,2.2c0.5,0.5,1.1,0.8,1.9,0.8
				c0.8,0,1.4-0.3,1.9-0.8c0.5-0.6,0.8-1.3,0.8-2.3c0-0.6-0.1-1.2-0.3-1.7c-0.2-0.5-0.5-0.8-0.9-1.1c-0.4-0.3-0.9-0.4-1.4-0.4
				c-0.7,0-1.4,0.3-1.9,0.8C27.7,32.1,27.4,32.9,27.4,34.1z"/>
			<path d="M34.7,37.9V30h1.1l4.1,6.2V30h1v7.9h-1.1l-4.1-6.2v6.2H34.7z"/>
			<path d="M41.8,34.1c0-1.3,0.4-2.3,1.1-3.1c0.7-0.7,1.6-1.1,2.7-1.1c0.7,0,1.4,0.2,2,0.5c0.6,0.3,1,0.8,1.3,1.5
				c0.3,0.6,0.5,1.3,0.5,2.1c0,0.8-0.2,1.5-0.5,2.1c-0.3,0.6-0.8,1.1-1.4,1.4c-0.6,0.3-1.2,0.5-1.9,0.5c-0.7,0-1.4-0.2-2-0.5
				s-1-0.8-1.3-1.5C41.9,35.4,41.8,34.8,41.8,34.1z M42.8,34.1c0,0.9,0.3,1.7,0.8,2.2c0.5,0.5,1.1,0.8,1.9,0.8
				c0.8,0,1.4-0.3,1.9-0.8c0.5-0.6,0.8-1.3,0.8-2.3c0-0.6-0.1-1.2-0.3-1.7c-0.2-0.5-0.5-0.8-0.9-1.1c-0.4-0.3-0.9-0.4-1.4-0.4
				c-0.7,0-1.4,0.3-1.9,0.8C43.1,32.1,42.8,32.9,42.8,34.1z"/>
			<path d="M50.1,37.9V30h1.1l4.1,6.2V30h1v7.9h-1.1l-4.1-6.2v6.2H50.1z"/>
			<path d="M57.2,34.1c0-1.3,0.4-2.3,1.1-3.1c0.7-0.7,1.6-1.1,2.7-1.1c0.7,0,1.4,0.2,2,0.5c0.6,0.3,1,0.8,1.3,1.5
				c0.3,0.6,0.5,1.3,0.5,2.1c0,0.8-0.2,1.5-0.5,2.1c-0.3,0.6-0.8,1.1-1.4,1.4c-0.6,0.3-1.2,0.5-1.9,0.5c-0.7,0-1.4-0.2-2-0.5
				c-0.6-0.4-1-0.8-1.3-1.5C57.3,35.4,57.2,34.8,57.2,34.1z M58.2,34.1c0,0.9,0.3,1.7,0.8,2.2c0.5,0.5,1.1,0.8,1.9,0.8
				c0.8,0,1.4-0.3,1.9-0.8c0.5-0.6,0.8-1.3,0.8-2.3c0-0.6-0.1-1.2-0.3-1.7c-0.2-0.5-0.5-0.8-0.9-1.1c-0.4-0.3-0.9-0.4-1.4-0.4
				c-0.7,0-1.4,0.3-1.9,0.8C58.5,32.1,58.2,32.9,58.2,34.1z"/>
			<path d="M65.5,37.9V30h1.1l4.1,6.2V30h1v7.9h-1.1l-4.1-6.2v6.2H65.5z"/>
			<path d="M72.6,34.1c0-1.3,0.4-2.3,1.1-3.1c0.7-0.7,1.6-1.1,2.7-1.1c0.7,0,1.4,0.2,2,0.5c0.6,0.3,1,0.8,1.3,1.5
				c0.3,0.6,0.5,1.3,0.5,2.1c0,0.8-0.2,1.5-0.5,2.1c-0.3,0.6-0.8,1.1-1.4,1.4C77.7,37.9,77,38,76.3,38c-0.7,0-1.4-0.2-2-0.5
				c-0.6-0.4-1-0.8-1.3-1.5C72.7,35.4,72.6,34.8,72.6,34.1z M73.6,34.1c0,0.9,0.3,1.7,0.8,2.2c0.5,0.5,1.1,0.8,1.9,0.8
				c0.8,0,1.4-0.3,1.9-0.8C78.8,35.8,79,35,79,34c0-0.6-0.1-1.2-0.3-1.7c-0.2-0.5-0.5-0.8-0.9-1.1c-0.4-0.3-0.9-0.4-1.4-0.4
				c-0.7,0-1.4,0.3-1.9,0.8C73.9,32.1,73.6,32.9,73.6,34.1z"/>
			<path d="M80.9,37.9V30H82l4.1,6.2V30h1v7.9H86l-4.1-6.2v6.2H80.9z"/>
			<path d="M88,34.1c0-1.3,0.4-2.3,1.1-3.1c0.7-0.7,1.6-1.1,2.7-1.1c0.7,0,1.4,0.2,2,0.5c0.6,0.3,1,0.8,1.3,1.5
				c0.3,0.6,0.5,1.3,0.5,2.1c0,0.8-0.2,1.5-0.5,2.1c-0.3,0.6-0.8,1.1-1.4,1.4c-0.6,0.3-1.2,0.5-1.9,0.5c-0.7,0-1.4-0.2-2-0.5
				c-0.6-0.4-1-0.8-1.3-1.5C88.1,35.4,88,34.8,88,34.1z M89,34.1c0,0.9,0.3,1.7,0.8,2.2c0.5,0.5,1.1,0.8,1.9,0.8
				c0.8,0,1.4-0.3,1.9-0.8c0.5-0.6,0.8-1.3,0.8-2.3c0-0.6-0.1-1.2-0.3-1.7c-0.2-0.5-0.5-0.8-0.9-1.1c-0.4-0.3-0.9-0.4-1.4-0.4
				c-0.7,0-1.4,0.3-1.9,0.8C89.3,32.1,89,32.9,89,34.1z"/>
			<path d="M96.3,37.9V30h1.1l4.1,6.2V30h1v7.9h-1.1l-4.1-6.2v6.2H96.3z"/>
			<path d="M103.4,34.1c0-1.3,0.4-2.3,1.1-3.1c0.7-0.7,1.6-1.1,2.7-1.1c0.7,0,1.4,0.2,2,0.5c0.6,0.3,1,0.8,1.3,1.5
				c0.3,0.6,0.5,1.3,0.5,2.1c0,0.8-0.2,1.5-0.5,2.1c-0.3,0.6-0.8,1.1-1.4,1.4c-0.6,0.3-1.2,0.5-1.9,0.5c-0.7,0-1.4-0.2-2-0.5
				s-1-0.8-1.3-1.5C103.5,35.4,103.4,34.8,103.4,34.1z M104.4,34.1c0,0.9,0.3,1.7,0.8,2.2c0.5,0.5,1.1,0.8,1.9,0.8
				c0.8,0,1.4-0.3,1.9-0.8c0.5-0.6,0.8-1.3,0.8-2.3c0-0.6-0.1-1.2-0.3-1.7c-0.2-0.5-0.5-0.8-0.9-1.1c-0.4-0.3-0.9-0.4-1.4-0.4
				c-0.7,0-1.4,0.3-1.9,0.8C104.7,32.1,104.4,32.9,104.4,34.1z"/>
			<path d="M111.7,37.9V30h1.1l4.1,6.2V30h1v7.9h-1.1l-4.1-6.2v6.2H111.7z"/>
			<path d="M118.8,34.1c0-1.3,0.4-2.3,1.1-3.1c0.7-0.7,1.6-1.1,2.7-1.1c0.7,0,1.4,0.2,2,0.5c0.6,0.3,1,0.8,1.3,1.5
				c0.3,0.6,0.5,1.3,0.5,2.1c0,0.8-0.2,1.5-0.5,2.1c-0.3,0.6-0.8,1.1-1.4,1.4c-0.6,0.3-1.2,0.5-1.9,0.5c-0.7,0-1.4-0.2-2-0.5
				c-0.6-0.4-1-0.8-1.3-1.5C118.9,35.4,118.8,34.8,118.8,34.1z M119.8,34.1c0,0.9,0.3,1.7,0.8,2.2c0.5,0.5,1.1,0.8,1.9,0.8
				c0.8,0,1.4-0.3,1.9-0.8c0.5-0.6,0.8-1.3,0.8-2.3c0-0.6-0.1-1.2-0.3-1.7c-0.2-0.5-0.5-0.8-0.9-1.1c-0.4-0.3-0.9-0.4-1.4-0.4
				c-0.7,0-1.4,0.3-1.9,0.8C120.1,32.1,119.8,32.9,119.8,34.1z"/>
			<path d="M127.1,37.9V30h1.1l4.1,6.2V30h1v7.9h-1.1l-4.1-6.2v6.2H127.1z"/>
			<path d="M134.2,34.1c0-1.3,0.4-2.3,1.1-3.1c0.7-0.7,1.6-1.1,2.7-1.1c0.7,0,1.4,0.2,2,0.5c0.6,0.3,1,0.8,1.3,1.5
				c0.3,0.6,0.5,1.3,0.5,2.1c0,0.8-0.2,1.5-0.5,2.1c-0.3,0.6-0.8,1.1-1.4,1.4c-0.6,0.3-1.2,0.5-1.9,0.5c-0.7,0-1.4-0.2-2-0.5
				s-1-0.8-1.3-1.5C134.3,35.4,134.2,34.8,134.2,34.1z M135.2,34.1c0,0.9,0.3,1.7,0.8,2.2c0.5,0.5,1.1,0.8,1.9,0.8
				c0.8,0,1.4-0.3,1.9-0.8c0.5-0.6,0.8-1.3,0.8-2.3c0-0.6-0.1-1.2-0.3-1.7c-0.2-0.5-0.5-0.8-0.9-1.1c-0.4-0.3-0.9-0.4-1.4-0.4
				c-0.7,0-1.4,0.3-1.9,0.8C135.5,32.1,135.2,32.9,135.2,34.1z"/>
			<path d="M142.5,37.9V30h1.1l4.1,6.2V30h1v7.9h-1.1l-4.1-6.2v6.2H142.5z"/>
			<path d="M149.6,34.1c0-1.3,0.4-2.3,1.1-3.1c0.7-0.7,1.6-1.1,2.7-1.1c0.7,0,1.4,0.2,2,0.5c0.6,0.3,1,0.8,1.3,1.5
				c0.3,0.6,0.5,1.3,0.5,2.1c0,0.8-0.2,1.5-0.5,2.1c-0.3,0.6-0.8,1.1-1.4,1.4c-0.6,0.3-1.2,0.5-1.9,0.5c-0.7,0-1.4-0.2-2-0.5
				c-0.6-0.4-1-0.8-1.3-1.5C149.7,35.4,149.6,34.8,149.6,34.1z M150.6,34.1c0,0.9,0.3,1.7,0.8,2.2c0.5,0.5,1.1,0.8,1.9,0.8
				c0.8,0,1.4-0.3,1.9-0.8c0.5-0.6,0.8-1.3,0.8-2.3c0-0.6-0.1-1.2-0.3-1.7c-0.2-0.5-0.5-0.8-1-1.1c-0.4-0.3-0.9-0.4-1.4-0.4
				c-0.7,0-1.4,0.3-1.9,0.8C150.9,32.1,150.6,32.9,150.6,34.1z"/>
		</g>
		<g>
			<path d="M3.9,47v-7.9H5l4.1,6.2v-6.2h1V47H9l-4.1-6.2V47H3.9z"/>
			<path d="M11,43.1c0-1.3,0.4-2.3,1.1-3.1c0.7-0.7,1.6-1.1,2.7-1.1c0.7,0,1.4,0.2,2,0.5c0.6,0.3,1,0.8,1.3,1.5
				c0.3,0.6,0.5,1.3,0.5,2.1c0,0.8-0.2,1.5-0.5,2.1c-0.3,0.6-0.8,1.1-1.4,1.4c-0.6,0.3-1.2,0.5-1.9,0.5c-0.7,0-1.4-0.2-2-0.5
				c-0.6-0.4-1-0.8-1.3-1.5C11.1,44.5,11,43.8,11,43.1z M12,43.2c0,0.9,0.3,1.7,0.8,2.2c0.5,0.5,1.1,0.8,1.9,0.8
				c0.8,0,1.4-0.3,1.9-0.8c0.5-0.6,0.8-1.3,0.8-2.3c0-0.6-0.1-1.2-0.3-1.7c-0.2-0.5-0.5-0.8-0.9-1.1c-0.4-0.3-0.9-0.4-1.4-0.4
				c-0.7,0-1.4,0.3-1.9,0.8C12.3,41.1,12,42,12,43.2z"/>
			<path d="M19.3,47v-7.9h1.1l4.1,6.2v-6.2h1V47h-1.1l-4.1-6.2V47H19.3z"/>
			<path d="M26.4,43.1c0-1.3,0.4-2.3,1.1-3.1c0.7-0.7,1.6-1.1,2.7-1.1c0.7,0,1.4,0.2,2,0.5c0.6,0.3,1,0.8,1.3,1.5
				c0.3,0.6,0.5,1.3,0.5,2.1c0,0.8-0.2,1.5-0.5,2.1c-0.3,0.6-0.8,1.1-1.4,1.4c-0.6,0.3-1.2,0.5-1.9,0.5c-0.7,0-1.4-0.2-2-0.5
				c-0.6-0.4-1-0.8-1.3-1.5C26.5,44.5,26.4,43.8,26.4,43.1z M27.4,43.2c0,0.9,0.3,1.7,0.8,2.2c0.5,0.5,1.1,0.8,1.9,0.8
				c0.8,0,1.4-0.3,1.9-0.8c0.5-0.6,0.8-1.3,0.8-2.3c0-0.6-0.1-1.2-0.3-1.7c-0.2-0.5-0.5-0.8-0.9-1.1c-0.4-0.3-0.9-0.4-1.4-0.4
				c-0.7,0-1.4,0.3-1.9,0.8C27.7,41.1,27.4,42,27.4,43.2z"/>
			<path d="M34.7,47v-7.9h1.1l4.1,6.2v-6.2h1V47h-1.1l-4.1-6.2V47H34.7z"/>
			<path d="M41.8,43.1c0-1.3,0.4-2.3,1.1-3.1c0.7-0.7,1.6-1.1,2.7-1.1c0.7,0,1.4,0.2,2,0.5c0.6,0.3,1,0.8,1.3,1.5
				c0.3,0.6,0.5,1.3,0.5,2.1c0,0.8-0.2,1.5-0.5,2.1c-0.3,0.6-0.8,1.1-1.4,1.4c-0.6,0.3-1.2,0.5-1.9,0.5c-0.7,0-1.4-0.2-2-0.5
				c-0.6-0.4-1-0.8-1.3-1.5C41.9,44.5,41.8,43.8,41.8,43.1z M42.8,43.2c0,0.9,0.3,1.7,0.8,2.2c0.5,0.5,1.1,0.8,1.9,0.8
				c0.8,0,1.4-0.3,1.9-0.8c0.5-0.6,0.8-1.3,0.8-2.3c0-0.6-0.1-1.2-0.3-1.7c-0.2-0.5-0.5-0.8-0.9-1.1c-0.4-0.3-0.9-0.4-1.4-0.4
				c-0.7,0-1.4,0.3-1.9,0.8C43.1,41.1,42.8,42,42.8,43.2z"/>
			<path d="M50.1,47v-7.9h1.1l4.1,6.2v-6.2h1V47h-1.1l-4.1-6.2V47H50.1z"/>
			<path d="M57.2,43.1c0-1.3,0.4-2.3,1.1-3.1c0.7-0.7,1.6-1.1,2.7-1.1c0.7,0,1.4,0.2,2,0.5c0.6,0.3,1,0.8,1.3,1.5
				c0.3,0.6,0.5,1.3,0.5,2.1c0,0.8-0.2,1.5-0.5,2.1c-0.3,0.6-0.8,1.1-1.4,1.4c-0.6,0.3-1.2,0.5-1.9,0.5c-0.7,0-1.4-0.2-2-0.5
				c-0.6-0.4-1-0.8-1.3-1.5C57.3,44.5,57.2,43.8,57.2,43.1z M58.2,43.2c0,0.9,0.3,1.7,0.8,2.2c0.5,0.5,1.1,0.8,1.9,0.8
				c0.8,0,1.4-0.3,1.9-0.8c0.5-0.6,0.8-1.3,0.8-2.3c0-0.6-0.1-1.2-0.3-1.7c-0.2-0.5-0.5-0.8-0.9-1.1c-0.4-0.3-0.9-0.4-1.4-0.4
				c-0.7,0-1.4,0.3-1.9,0.8C58.5,41.1,58.2,42,58.2,43.2z"/>
			<path d="M65.5,47v-7.9h1.1l4.1,6.2v-6.2h1V47h-1.1l-4.1-6.2V47H65.5z"/>
			<path d="M72.6,43.1c0-1.3,0.4-2.3,1.1-3.1c0.7-0.7,1.6-1.1,2.7-1.1c0.7,0,1.4,0.2,2,0.5c0.6,0.3,1,0.8,1.3,1.5
				c0.3,0.6,0.5,1.3,0.5,2.1c0,0.8-0.2,1.5-0.5,2.1c-0.3,0.6-0.8,1.1-1.4,1.4c-0.6,0.3-1.2,0.5-1.9,0.5c-0.7,0-1.4-0.2-2-0.5
				c-0.6-0.4-1-0.8-1.3-1.5C72.7,44.5,72.6,43.8,72.6,43.1z M73.6,43.2c0,0.9,0.3,1.7,0.8,2.2c0.5,0.5,1.1,0.8,1.9,0.8
				c0.8,0,1.4-0.3,1.9-0.8c0.5-0.6,0.8-1.3,0.8-2.3c0-0.6-0.1-1.2-0.3-1.7c-0.2-0.5-0.5-0.8-0.9-1.1c-0.4-0.3-0.9-0.4-1.4-0.4
				c-0.7,0-1.4,0.3-1.9,0.8C73.9,41.1,73.6,42,73.6,43.2z"/>
			<path d="M80.9,47v-7.9H82l4.1,6.2v-6.2h1V47H86l-4.1-6.2V47H80.9z"/>
			<path d="M88,43.1c0-1.3,0.4-2.3,1.1-3.1c0.7-0.7,1.6-1.1,2.7-1.1c0.7,0,1.4,0.2,2,0.5c0.6,0.3,1,0.8,1.3,1.5
				c0.3,0.6,0.5,1.3,0.5,2.1c0,0.8-0.2,1.5-0.5,2.1c-0.3,0.6-0.8,1.1-1.4,1.4c-0.6,0.3-1.2,0.5-1.9,0.5c-0.7,0-1.4-0.2-2-0.5
				c-0.6-0.4-1-0.8-1.3-1.5C88.1,44.5,88,43.8,88,43.1z M89,43.2c0,0.9,0.3,1.7,0.8,2.2c0.5,0.5,1.1,0.8,1.9,0.8
				c0.8,0,1.4-0.3,1.9-0.8c0.5-0.6,0.8-1.3,0.8-2.3c0-0.6-0.1-1.2-0.3-1.7c-0.2-0.5-0.5-0.8-0.9-1.1c-0.4-0.3-0.9-0.4-1.4-0.4
				c-0.7,0-1.4,0.3-1.9,0.8C89.3,41.1,89,42,89,43.2z"/>
			<path d="M96.3,47v-7.9h1.1l4.1,6.2v-6.2h1V47h-1.1l-4.1-6.2V47H96.3z"/>
			<path d="M103.4,43.1c0-1.3,0.4-2.3,1.1-3.1c0.7-0.7,1.6-1.1,2.7-1.1c0.7,0,1.4,0.2,2,0.5c0.6,0.3,1,0.8,1.3,1.5
				c0.3,0.6,0.5,1.3,0.5,2.1c0,0.8-0.2,1.5-0.5,2.1c-0.3,0.6-0.8,1.1-1.4,1.4c-0.6,0.3-1.2,0.5-1.9,0.5c-0.7,0-1.4-0.2-2-0.5
				c-0.6-0.4-1-0.8-1.3-1.5C103.5,44.5,103.4,43.8,103.4,43.1z M104.4,43.2c0,0.9,0.3,1.7,0.8,2.2c0.5,0.5,1.1,0.8,1.9,0.8
				c0.8,0,1.4-0.3,1.9-0.8c0.5-0.6,0.8-1.3,0.8-2.3c0-0.6-0.1-1.2-0.3-1.7c-0.2-0.5-0.5-0.8-0.9-1.1c-0.4-0.3-0.9-0.4-1.4-0.4
				c-0.7,0-1.4,0.3-1.9,0.8C104.7,41.1,104.4,42,104.4,43.2z"/>
			<path d="M111.7,47v-7.9h1.1l4.1,6.2v-6.2h1V47h-1.1l-4.1-6.2V47H111.7z"/>
			<path d="M118.8,43.1c0-1.3,0.4-2.3,1.1-3.1c0.7-0.7,1.6-1.1,2.7-1.1c0.7,0,1.4,0.2,2,0.5c0.6,0.3,1,0.8,1.3,1.5
				c0.3,0.6,0.5,1.3,0.5,2.1c0,0.8-0.2,1.5-0.5,2.1c-0.3,0.6-0.8,1.1-1.4,1.4c-0.6,0.3-1.2,0.5-1.9,0.5c-0.7,0-1.4-0.2-2-0.5
				c-0.6-0.4-1-0.8-1.3-1.5C118.9,44.5,118.8,43.8,118.8,43.1z M119.8,43.2c0,0.9,0.3,1.7,0.8,2.2c0.5,0.5,1.1,0.8,1.9,0.8
				c0.8,0,1.4-0.3,1.9-0.8c0.5-0.6,0.8-1.3,0.8-2.3c0-0.6-0.1-1.2-0.3-1.7c-0.2-0.5-0.5-0.8-0.9-1.1c-0.4-0.3-0.9-0.4-1.4-0.4
				c-0.7,0-1.4,0.3-1.9,0.8C120.1,41.1,119.8,42,119.8,43.2z"/>
			<path d="M127.1,47v-7.9h1.1l4.1,6.2v-6.2h1V47h-1.1l-4.1-6.2V47H127.1z"/>
			<path d="M134.2,43.1c0-1.3,0.4-2.3,1.1-3.1c0.7-0.7,1.6-1.1,2.7-1.1c0.7,0,1.4,0.2,2,0.5c0.6,0.3,1,0.8,1.3,1.5
				c0.3,0.6,0.5,1.3,0.5,2.1c0,0.8-0.2,1.5-0.5,2.1c-0.3,0.6-0.8,1.1-1.4,1.4c-0.6,0.3-1.2,0.5-1.9,0.5c-0.7,0-1.4-0.2-2-0.5
				c-0.6-0.4-1-0.8-1.3-1.5C134.3,44.5,134.2,43.8,134.2,43.1z M135.2,43.2c0,0.9,0.3,1.7,0.8,2.2c0.5,0.5,1.1,0.8,1.9,0.8
				c0.8,0,1.4-0.3,1.9-0.8c0.5-0.6,0.8-1.3,0.8-2.3c0-0.6-0.1-1.2-0.3-1.7c-0.2-0.5-0.5-0.8-0.9-1.1c-0.4-0.3-0.9-0.4-1.4-0.4
				c-0.7,0-1.4,0.3-1.9,0.8C135.5,41.1,135.2,42,135.2,43.2z"/>
			<path d="M142.5,47v-7.9h1.1l4.1,6.2v-6.2h1V47h-1.1l-4.1-6.2V47H142.5z"/>
			<path d="M149.6,43.1c0-1.3,0.4-2.3,1.1-3.1c0.7-0.7,1.6-1.1,2.7-1.1c0.7,0,1.4,0.2,2,0.5c0.6,0.3,1,0.8,1.3,1.5
				c0.3,0.6,0.5,1.3,0.5,2.1c0,0.8-0.2,1.5-0.5,2.1c-0.3,0.6-0.8,1.1-1.4,1.4c-0.6,0.3-1.2,0.5-1.9,0.5c-0.7,0-1.4-0.2-2-0.5
				c-0.6-0.4-1-0.8-1.3-1.5C149.7,44.5,149.6,43.8,149.6,43.1z M150.6,43.2c0,0.9,0.3,1.7,0.8,2.2c0.5,0.5,1.1,0.8,1.9,0.8
				c0.8,0,1.4-0.3,1.9-0.8c0.5-0.6,0.8-1.3,0.8-2.3c0-0.6-0.1-1.2-0.3-1.7c-0.2-0.5-0.5-0.8-1-1.1c-0.4-0.3-0.9-0.4-1.4-0.4
				c-0.7,0-1.4,0.3-1.9,0.8C150.9,41.1,150.6,42,150.6,43.2z"/>
		</g>
		<g>
			<path d="M3.9,56v-7.9H5l4.1,6.2v-6.2h1V56H9l-4.1-6.2V56H3.9z"/>
			<path d="M11,52.2c0-1.3,0.4-2.3,1.1-3.1c0.7-0.7,1.6-1.1,2.7-1.1c0.7,0,1.4,0.2,2,0.5c0.6,0.3,1,0.8,1.3,1.5
				c0.3,0.6,0.5,1.3,0.5,2.1c0,0.8-0.2,1.5-0.5,2.1c-0.3,0.6-0.8,1.1-1.4,1.4c-0.6,0.3-1.2,0.5-1.9,0.5c-0.7,0-1.4-0.2-2-0.5
				c-0.6-0.4-1-0.8-1.3-1.5C11.1,53.5,11,52.9,11,52.2z M12,52.2c0,0.9,0.3,1.7,0.8,2.2c0.5,0.5,1.1,0.8,1.9,0.8
				c0.8,0,1.4-0.3,1.9-0.8c0.5-0.6,0.8-1.3,0.8-2.3c0-0.6-0.1-1.2-0.3-1.7c-0.2-0.5-0.5-0.8-0.9-1.1c-0.4-0.3-0.9-0.4-1.4-0.4
				c-0.7,0-1.4,0.3-1.9,0.8C12.3,50.2,12,51,12,52.2z"/>
			<path d="M19.3,56v-7.9h1.1l4.1,6.2v-6.2h1V56h-1.1l-4.1-6.2V56H19.3z"/>
			<path d="M26.4,52.2c0-1.3,0.4-2.3,1.1-3.1c0.7-0.7,1.6-1.1,2.7-1.1c0.7,0,1.4,0.2,2,0.5c0.6,0.3,1,0.8,1.3,1.5
				c0.3,0.6,0.5,1.3,0.5,2.1c0,0.8-0.2,1.5-0.5,2.1c-0.3,0.6-0.8,1.1-1.4,1.4c-0.6,0.3-1.2,0.5-1.9,0.5c-0.7,0-1.4-0.2-2-0.5
				c-0.6-0.4-1-0.8-1.3-1.5C26.5,53.5,26.4,52.9,26.4,52.2z M27.4,52.2c0,0.9,0.3,1.7,0.8,2.2c0.5,0.5,1.1,0.8,1.9,0.8
				c0.8,0,1.4-0.3,1.9-0.8c0.5-0.6,0.8-1.3,0.8-2.3c0-0.6-0.1-1.2-0.3-1.7c-0.2-0.5-0.5-0.8-0.9-1.1c-0.4-0.3-0.9-0.4-1.4-0.4
				c-0.7,0-1.4,0.3-1.9,0.8C27.7,50.2,27.4,51,27.4,52.2z"/>
			<path d="M34.7,56v-7.9h1.1l4.1,6.2v-6.2h1V56h-1.1l-4.1-6.2V56H34.7z"/>
			<path d="M41.8,52.2c0-1.3,0.4-2.3,1.1-3.1c0.7-0.7,1.6-1.1,2.7-1.1c0.7,0,1.4,0.2,2,0.5c0.6,0.3,1,0.8,1.3,1.5
				c0.3,0.6,0.5,1.3,0.5,2.1c0,0.8-0.2,1.5-0.5,2.1c-0.3,0.6-0.8,1.1-1.4,1.4c-0.6,0.3-1.2,0.5-1.9,0.5c-0.7,0-1.4-0.2-2-0.5
				c-0.6-0.4-1-0.8-1.3-1.5C41.9,53.5,41.8,52.9,41.8,52.2z M42.8,52.2c0,0.9,0.3,1.7,0.8,2.2c0.5,0.5,1.1,0.8,1.9,0.8
				c0.8,0,1.4-0.3,1.9-0.8c0.5-0.6,0.8-1.3,0.8-2.3c0-0.6-0.1-1.2-0.3-1.7c-0.2-0.5-0.5-0.8-0.9-1.1c-0.4-0.3-0.9-0.4-1.4-0.4
				c-0.7,0-1.4,0.3-1.9,0.8C43.1,50.2,42.8,51,42.8,52.2z"/>
			<path d="M50.1,56v-7.9h1.1l4.1,6.2v-6.2h1V56h-1.1l-4.1-6.2V56H50.1z"/>
			<path d="M57.2,52.2c0-1.3,0.4-2.3,1.1-3.1c0.7-0.7,1.6-1.1,2.7-1.1c0.7,0,1.4,0.2,2,0.5c0.6,0.3,1,0.8,1.3,1.5
				c0.3,0.6,0.5,1.3,0.5,2.1c0,0.8-0.2,1.5-0.5,2.1c-0.3,0.6-0.8,1.1-1.4,1.4c-0.6,0.3-1.2,0.5-1.9,0.5c-0.7,0-1.4-0.2-2-0.5
				c-0.6-0.4-1-0.8-1.3-1.5C57.3,53.5,57.2,52.9,57.2,52.2z M58.2,52.2c0,0.9,0.3,1.7,0.8,2.2c0.5,0.5,1.1,0.8,1.9,0.8
				c0.8,0,1.4-0.3,1.9-0.8c0.5-0.6,0.8-1.3,0.8-2.3c0-0.6-0.1-1.2-0.3-1.7c-0.2-0.5-0.5-0.8-0.9-1.1c-0.4-0.3-0.9-0.4-1.4-0.4
				c-0.7,0-1.4,0.3-1.9,0.8C58.5,50.2,58.2,51,58.2,52.2z"/>
			<path d="M65.5,56v-7.9h1.1l4.1,6.2v-6.2h1V56h-1.1l-4.1-6.2V56H65.5z"/>
			<path d="M72.6,52.2c0-1.3,0.4-2.3,1.1-3.1c0.7-0.7,1.6-1.1,2.7-1.1c0.7,0,1.4,0.2,2,0.5c0.6,0.3,1,0.8,1.3,1.5
				c0.3,0.6,0.5,1.3,0.5,2.1c0,0.8-0.2,1.5-0.5,2.1c-0.3,0.6-0.8,1.1-1.4,1.4c-0.6,0.3-1.2,0.5-1.9,0.5c-0.7,0-1.4-0.2-2-0.5
				c-0.6-0.4-1-0.8-1.3-1.5C72.7,53.5,72.6,52.9,72.6,52.2z M73.6,52.2c0,0.9,0.3,1.7,0.8,2.2c0.5,0.5,1.1,0.8,1.9,0.8
				c0.8,0,1.4-0.3,1.9-0.8c0.5-0.6,0.8-1.3,0.8-2.3c0-0.6-0.1-1.2-0.3-1.7c-0.2-0.5-0.5-0.8-0.9-1.1c-0.4-0.3-0.9-0.4-1.4-0.4
				c-0.7,0-1.4,0.3-1.9,0.8C73.9,50.2,73.6,51,73.6,52.2z"/>
			<path d="M80.9,56v-7.9H82l4.1,6.2v-6.2h1V56H86l-4.1-6.2V56H80.9z"/>
			<path d="M88,52.2c0-1.3,0.4-2.3,1.1-3.1c0.7-0.7,1.6-1.1,2.7-1.1c0.7,0,1.4,0.2,2,0.5c0.6,0.3,1,0.8,1.3,1.5
				c0.3,0.6,0.5,1.3,0.5,2.1c0,0.8-0.2,1.5-0.5,2.1c-0.3,0.6-0.8,1.1-1.4,1.4c-0.6,0.3-1.2,0.5-1.9,0.5c-0.7,0-1.4-0.2-2-0.5
				c-0.6-0.4-1-0.8-1.3-1.5C88.1,53.5,88,52.9,88,52.2z M89,52.2c0,0.9,0.3,1.7,0.8,2.2c0.5,0.5,1.1,0.8,1.9,0.8
				c0.8,0,1.4-0.3,1.9-0.8c0.5-0.6,0.8-1.3,0.8-2.3c0-0.6-0.1-1.2-0.3-1.7c-0.2-0.5-0.5-0.8-0.9-1.1c-0.4-0.3-0.9-0.4-1.4-0.4
				c-0.7,0-1.4,0.3-1.9,0.8C89.3,50.2,89,51,89,52.2z"/>
			<path d="M96.3,56v-7.9h1.1l4.1,6.2v-6.2h1V56h-1.1l-4.1-6.2V56H96.3z"/>
			<path d="M103.4,52.2c0-1.3,0.4-2.3,1.1-3.1c0.7-0.7,1.6-1.1,2.7-1.1c0.7,0,1.4,0.2,2,0.5c0.6,0.3,1,0.8,1.3,1.5
				c0.3,0.6,0.5,1.3,0.5,2.1c0,0.8-0.2,1.5-0.5,2.1c-0.3,0.6-0.8,1.1-1.4,1.4c-0.6,0.3-1.2,0.5-1.9,0.5c-0.7,0-1.4-0.2-2-0.5
				c-0.6-0.4-1-0.8-1.3-1.5C103.5,53.5,103.4,52.9,103.4,52.2z M104.4,52.2c0,0.9,0.3,1.7,0.8,2.2c0.5,0.5,1.1,0.8,1.9,0.8
				c0.8,0,1.4-0.3,1.9-0.8c0.5-0.6,0.8-1.3,0.8-2.3c0-0.6-0.1-1.2-0.3-1.7c-0.2-0.5-0.5-0.8-0.9-1.1c-0.4-0.3-0.9-0.4-1.4-0.4
				c-0.7,0-1.4,0.3-1.9,0.8C104.7,50.2,104.4,51,104.4,52.2z"/>
			<path d="M111.7,56v-7.9h1.1l4.1,6.2v-6.2h1V56h-1.1l-4.1-6.2V56H111.7z"/>
			<path d="M118.8,52.2c0-1.3,0.4-2.3,1.1-3.1c0.7-0.7,1.6-1.1,2.7-1.1c0.7,0,1.4,0.2,2,0.5c0.6,0.3,1,0.8,1.3,1.5
				c0.3,0.6,0.5,1.3,0.5,2.1c0,0.8-0.2,1.5-0.5,2.1c-0.3,0.6-0.8,1.1-1.4,1.4c-0.6,0.3-1.2,0.5-1.9,0.5c-0.7,0-1.4-0.2-2-0.5
				c-0.6-0.4-1-0.8-1.3-1.5C118.9,53.5,118.8,52.9,118.8,52.2z M119.8,52.2c0,0.9,0.3,1.7,0.8,2.2c0.5,0.5,1.1,0.8,1.9,0.8
				c0.8,0,1.4-0.3,1.9-0.8c0.5-0.6,0.8-1.3,0.8-2.3c0-0.6-0.1-1.2-0.3-1.7c-0.2-0.5-0.5-0.8-0.9-1.1c-0.4-0.3-0.9-0.4-1.4-0.4
				c-0.7,0-1.4,0.3-1.9,0.8C120.1,50.2,119.8,51,119.8,52.2z"/>
			<path d="M127.1,56v-7.9h1.1l4.1,6.2v-6.2h1V56h-1.1l-4.1-6.2V56H127.1z"/>
			<path d="M134.2,52.2c0-1.3,0.4-2.3,1.1-3.1c0.7-0.7,1.6-1.1,2.7-1.1c0.7,0,1.4,0.2,2,0.5c0.6,0.3,1,0.8,1.3,1.5
				c0.3,0.6,0.5,1.3,0.5,2.1c0,0.8-0.2,1.5-0.5,2.1c-0.3,0.6-0.8,1.1-1.4,1.4c-0.6,0.3-1.2,0.5-1.9,0.5c-0.7,0-1.4-0.2-2-0.5
				c-0.6-0.4-1-0.8-1.3-1.5C134.3,53.5,134.2,52.9,134.2,52.2z M135.2,52.2c0,0.9,0.3,1.7,0.8,2.2c0.5,0.5,1.1,0.8,1.9,0.8
				c0.8,0,1.4-0.3,1.9-0.8c0.5-0.6,0.8-1.3,0.8-2.3c0-0.6-0.1-1.2-0.3-1.7c-0.2-0.5-0.5-0.8-0.9-1.1c-0.4-0.3-0.9-0.4-1.4-0.4
				c-0.7,0-1.4,0.3-1.9,0.8C135.5,50.2,135.2,51,135.2,52.2z"/>
			<path d="M142.5,56v-7.9h1.1l4.1,6.2v-6.2h1V56h-1.1l-4.1-6.2V56H142.5z"/>
			<path d="M149.6,52.2c0-1.3,0.4-2.3,1.1-3.1c0.7-0.7,1.6-1.1,2.7-1.1c0.7,0,1.4,0.2,2,0.5c0.6,0.3,1,0.8,1.3,1.5
				c0.3,0.6,0.5,1.3,0.5,2.1c0,0.8-0.2,1.5-0.5,2.1c-0.3,0.6-0.8,1.1-1.4,1.4c-0.6,0.3-1.2,0.5-1.9,0.5c-0.7,0-1.4-0.2-2-0.5
				c-0.6-0.4-1-0.8-1.3-1.5C149.7,53.5,149.6,52.9,149.6,52.2z M150.6,52.2c0,0.9,0.3,1.7,0.8,2.2c0.5,0.5,1.1,0.8,1.9,0.8
				c0.8,0,1.4-0.3,1.9-0.8c0.5-0.6,0.8-1.3,0.8-2.3c0-0.6-0.1-1.2-0.3-1.7c-0.2-0.5-0.5-0.8-1-1.1c-0.4-0.3-0.9-0.4-1.4-0.4
				c-0.7,0-1.4,0.3-1.9,0.8C150.9,50.2,150.6,51,150.6,52.2z"/>
		</g>
		<g>
			<path d="M3.9,65.1v-7.9H5l4.1,6.2v-6.2h1v7.9H9l-4.1-6.2v6.2H3.9z"/>
			<path d="M11,61.3c0-1.3,0.4-2.3,1.1-3.1c0.7-0.7,1.6-1.1,2.7-1.1c0.7,0,1.4,0.2,2,0.5c0.6,0.3,1,0.8,1.3,1.5
				c0.3,0.6,0.5,1.3,0.5,2.1c0,0.8-0.2,1.5-0.5,2.1c-0.3,0.6-0.8,1.1-1.4,1.4c-0.6,0.3-1.2,0.5-1.9,0.5c-0.7,0-1.4-0.2-2-0.5
				c-0.6-0.4-1-0.8-1.3-1.5C11.1,62.6,11,61.9,11,61.3z M12,61.3c0,0.9,0.3,1.7,0.8,2.2c0.5,0.5,1.1,0.8,1.9,0.8
				c0.8,0,1.4-0.3,1.9-0.8c0.5-0.6,0.8-1.3,0.8-2.3c0-0.6-0.1-1.2-0.3-1.7c-0.2-0.5-0.5-0.8-0.9-1.1c-0.4-0.3-0.9-0.4-1.4-0.4
				c-0.7,0-1.4,0.3-1.9,0.8C12.3,59.2,12,60.1,12,61.3z"/>
			<path d="M19.3,65.1v-7.9h1.1l4.1,6.2v-6.2h1v7.9h-1.1l-4.1-6.2v6.2H19.3z"/>
			<path d="M26.4,61.3c0-1.3,0.4-2.3,1.1-3.1c0.7-0.7,1.6-1.1,2.7-1.1c0.7,0,1.4,0.2,2,0.5c0.6,0.3,1,0.8,1.3,1.5
				c0.3,0.6,0.5,1.3,0.5,2.1c0,0.8-0.2,1.5-0.5,2.1c-0.3,0.6-0.8,1.1-1.4,1.4c-0.6,0.3-1.2,0.5-1.9,0.5c-0.7,0-1.4-0.2-2-0.5
				c-0.6-0.4-1-0.8-1.3-1.5C26.5,62.6,26.4,61.9,26.4,61.3z M27.4,61.3c0,0.9,0.3,1.7,0.8,2.2c0.5,0.5,1.1,0.8,1.9,0.8
				c0.8,0,1.4-0.3,1.9-0.8c0.5-0.6,0.8-1.3,0.8-2.3c0-0.6-0.1-1.2-0.3-1.7c-0.2-0.5-0.5-0.8-0.9-1.1c-0.4-0.3-0.9-0.4-1.4-0.4
				c-0.7,0-1.4,0.3-1.9,0.8C27.7,59.2,27.4,60.1,27.4,61.3z"/>
			<path d="M34.7,65.1v-7.9h1.1l4.1,6.2v-6.2h1v7.9h-1.1l-4.1-6.2v6.2H34.7z"/>
			<path d="M41.8,61.3c0-1.3,0.4-2.3,1.1-3.1c0.7-0.7,1.6-1.1,2.7-1.1c0.7,0,1.4,0.2,2,0.5c0.6,0.3,1,0.8,1.3,1.5
				c0.3,0.6,0.5,1.3,0.5,2.1c0,0.8-0.2,1.5-0.5,2.1c-0.3,0.6-0.8,1.1-1.4,1.4c-0.6,0.3-1.2,0.5-1.9,0.5c-0.7,0-1.4-0.2-2-0.5
				s-1-0.8-1.3-1.5C41.9,62.6,41.8,61.9,41.8,61.3z M42.8,61.3c0,0.9,0.3,1.7,0.8,2.2c0.5,0.5,1.1,0.8,1.9,0.8
				c0.8,0,1.4-0.3,1.9-0.8c0.5-0.6,0.8-1.3,0.8-2.3c0-0.6-0.1-1.2-0.3-1.7c-0.2-0.5-0.5-0.8-0.9-1.1c-0.4-0.3-0.9-0.4-1.4-0.4
				c-0.7,0-1.4,0.3-1.9,0.8C43.1,59.2,42.8,60.1,42.8,61.3z"/>
			<path d="M50.1,65.1v-7.9h1.1l4.1,6.2v-6.2h1v7.9h-1.1l-4.1-6.2v6.2H50.1z"/>
			<path d="M57.2,61.3c0-1.3,0.4-2.3,1.1-3.1c0.7-0.7,1.6-1.1,2.7-1.1c0.7,0,1.4,0.2,2,0.5c0.6,0.3,1,0.8,1.3,1.5
				c0.3,0.6,0.5,1.3,0.5,2.1c0,0.8-0.2,1.5-0.5,2.1c-0.3,0.6-0.8,1.1-1.4,1.4c-0.6,0.3-1.2,0.5-1.9,0.5c-0.7,0-1.4-0.2-2-0.5
				c-0.6-0.4-1-0.8-1.3-1.5C57.3,62.6,57.2,61.9,57.2,61.3z M58.2,61.3c0,0.9,0.3,1.7,0.8,2.2c0.5,0.5,1.1,0.8,1.9,0.8
				c0.8,0,1.4-0.3,1.9-0.8c0.5-0.6,0.8-1.3,0.8-2.3c0-0.6-0.1-1.2-0.3-1.7c-0.2-0.5-0.5-0.8-0.9-1.1c-0.4-0.3-0.9-0.4-1.4-0.4
				c-0.7,0-1.4,0.3-1.9,0.8C58.5,59.2,58.2,60.1,58.2,61.3z"/>
			<path d="M65.5,65.1v-7.9h1.1l4.1,6.2v-6.2h1v7.9h-1.1l-4.1-6.2v6.2H65.5z"/>
			<path d="M72.6,61.3c0-1.3,0.4-2.3,1.1-3.1c0.7-0.7,1.6-1.1,2.7-1.1c0.7,0,1.4,0.2,2,0.5c0.6,0.3,1,0.8,1.3,1.5
				c0.3,0.6,0.5,1.3,0.5,2.1c0,0.8-0.2,1.5-0.5,2.1c-0.3,0.6-0.8,1.1-1.4,1.4c-0.6,0.3-1.2,0.5-1.9,0.5c-0.7,0-1.4-0.2-2-0.5
				c-0.6-0.4-1-0.8-1.3-1.5C72.7,62.6,72.6,61.9,72.6,61.3z M73.6,61.3c0,0.9,0.3,1.7,0.8,2.2c0.5,0.5,1.1,0.8,1.9,0.8
				c0.8,0,1.4-0.3,1.9-0.8c0.5-0.6,0.8-1.3,0.8-2.3c0-0.6-0.1-1.2-0.3-1.7c-0.2-0.5-0.5-0.8-0.9-1.1c-0.4-0.3-0.9-0.4-1.4-0.4
				c-0.7,0-1.4,0.3-1.9,0.8C73.9,59.2,73.6,60.1,73.6,61.3z"/>
			<path d="M80.9,65.1v-7.9H82l4.1,6.2v-6.2h1v7.9H86l-4.1-6.2v6.2H80.9z"/>
			<path d="M88,61.3c0-1.3,0.4-2.3,1.1-3.1c0.7-0.7,1.6-1.1,2.7-1.1c0.7,0,1.4,0.2,2,0.5c0.6,0.3,1,0.8,1.3,1.5
				c0.3,0.6,0.5,1.3,0.5,2.1c0,0.8-0.2,1.5-0.5,2.1c-0.3,0.6-0.8,1.1-1.4,1.4c-0.6,0.3-1.2,0.5-1.9,0.5c-0.7,0-1.4-0.2-2-0.5
				c-0.6-0.4-1-0.8-1.3-1.5C88.1,62.6,88,61.9,88,61.3z M89,61.3c0,0.9,0.3,1.7,0.8,2.2c0.5,0.5,1.1,0.8,1.9,0.8
				c0.8,0,1.4-0.3,1.9-0.8c0.5-0.6,0.8-1.3,0.8-2.3c0-0.6-0.1-1.2-0.3-1.7c-0.2-0.5-0.5-0.8-0.9-1.1c-0.4-0.3-0.9-0.4-1.4-0.4
				c-0.7,0-1.4,0.3-1.9,0.8C89.3,59.2,89,60.1,89,61.3z"/>
			<path d="M96.3,65.1v-7.9h1.1l4.1,6.2v-6.2h1v7.9h-1.1l-4.1-6.2v6.2H96.3z"/>
			<path d="M103.4,61.3c0-1.3,0.4-2.3,1.1-3.1c0.7-0.7,1.6-1.1,2.7-1.1c0.7,0,1.4,0.2,2,0.5c0.6,0.3,1,0.8,1.3,1.5
				c0.3,0.6,0.5,1.3,0.5,2.1c0,0.8-0.2,1.5-0.5,2.1c-0.3,0.6-0.8,1.1-1.4,1.4c-0.6,0.3-1.2,0.5-1.9,0.5c-0.7,0-1.4-0.2-2-0.5
				s-1-0.8-1.3-1.5C103.5,62.6,103.4,61.9,103.4,61.3z M104.4,61.3c0,0.9,0.3,1.7,0.8,2.2c0.5,0.5,1.1,0.8,1.9,0.8
				c0.8,0,1.4-0.3,1.9-0.8c0.5-0.6,0.8-1.3,0.8-2.3c0-0.6-0.1-1.2-0.3-1.7c-0.2-0.5-0.5-0.8-0.9-1.1c-0.4-0.3-0.9-0.4-1.4-0.4
				c-0.7,0-1.4,0.3-1.9,0.8C104.7,59.2,104.4,60.1,104.4,61.3z"/>
			<path d="M111.7,65.1v-7.9h1.1l4.1,6.2v-6.2h1v7.9h-1.1l-4.1-6.2v6.2H111.7z"/>
			<path d="M118.8,61.3c0-1.3,0.4-2.3,1.1-3.1c0.7-0.7,1.6-1.1,2.7-1.1c0.7,0,1.4,0.2,2,0.5c0.6,0.3,1,0.8,1.3,1.5
				c0.3,0.6,0.5,1.3,0.5,2.1c0,0.8-0.2,1.5-0.5,2.1c-0.3,0.6-0.8,1.1-1.4,1.4c-0.6,0.3-1.2,0.5-1.9,0.5c-0.7,0-1.4-0.2-2-0.5
				c-0.6-0.4-1-0.8-1.3-1.5C118.9,62.6,118.8,61.9,118.8,61.3z M119.8,61.3c0,0.9,0.3,1.7,0.8,2.2c0.5,0.5,1.1,0.8,1.9,0.8
				c0.8,0,1.4-0.3,1.9-0.8c0.5-0.6,0.8-1.3,0.8-2.3c0-0.6-0.1-1.2-0.3-1.7c-0.2-0.5-0.5-0.8-0.9-1.1c-0.4-0.3-0.9-0.4-1.4-0.4
				c-0.7,0-1.4,0.3-1.9,0.8C120.1,59.2,119.8,60.1,119.8,61.3z"/>
			<path d="M127.1,65.1v-7.9h1.1l4.1,6.2v-6.2h1v7.9h-1.1l-4.1-6.2v6.2H127.1z"/>
			<path d="M134.2,61.3c0-1.3,0.4-2.3,1.1-3.1c0.7-0.7,1.6-1.1,2.7-1.1c0.7,0,1.4,0.2,2,0.5c0.6,0.3,1,0.8,1.3,1.5
				c0.3,0.6,0.5,1.3,0.5,2.1c0,0.8-0.2,1.5-0.5,2.1c-0.3,0.6-0.8,1.1-1.4,1.4c-0.6,0.3-1.2,0.5-1.9,0.5c-0.7,0-1.4-0.2-2-0.5
				s-1-0.8-1.3-1.5C134.3,62.6,134.2,61.9,134.2,61.3z M135.2,61.3c0,0.9,0.3,1.7,0.8,2.2c0.5,0.5,1.1,0.8,1.9,0.8
				c0.8,0,1.4-0.3,1.9-0.8c0.5-0.6,0.8-1.3,0.8-2.3c0-0.6-0.1-1.2-0.3-1.7c-0.2-0.5-0.5-0.8-0.9-1.1c-0.4-0.3-0.9-0.4-1.4-0.4
				c-0.7,0-1.4,0.3-1.9,0.8C135.5,59.2,135.2,60.1,135.2,61.3z"/>
			<path d="M142.5,65.1v-7.9h1.1l4.1,6.2v-6.2h1v7.9h-1.1l-4.1-6.2v6.2H142.5z"/>
			<path d="M149.6,61.3c0-1.3,0.4-2.3,1.1-3.1c0.7-0.7,1.6-1.1,2.7-1.1c0.7,0,1.4,0.2,2,0.5c0.6,0.3,1,0.8,1.3,1.5
				c0.3,0.6,0.5,1.3,0.5,2.1c0,0.8-0.2,1.5-0.5,2.1c-0.3,0.6-0.8,1.1-1.4,1.4c-0.6,0.3-1.2,0.5-1.9,0.5c-0.7,0-1.4-0.2-2-0.5
				c-0.6-0.4-1-0.8-1.3-1.5C149.7,62.6,149.6,61.9,149.6,61.3z M150.6,61.3c0,0.9,0.3,1.7,0.8,2.2c0.5,0.5,1.1,0.8,1.9,0.8
				c0.8,0,1.4-0.3,1.9-0.8c0.5-0.6,0.8-1.3,0.8-2.3c0-0.6-0.1-1.2-0.3-1.7c-0.2-0.5-0.5-0.8-1-1.1c-0.4-0.3-0.9-0.4-1.4-0.4
				c-0.7,0-1.4,0.3-1.9,0.8C150.9,59.2,150.6,60.1,150.6,61.3z"/>
		</g>
		<g>
			<path d="M3.9,74.1v-7.9H5l4.1,6.2v-6.2h1v7.9H9L4.9,68v6.2H3.9z"/>
			<path d="M11,70.3c0-1.3,0.4-2.3,1.1-3.1c0.7-0.7,1.6-1.1,2.7-1.1c0.7,0,1.4,0.2,2,0.5c0.6,0.3,1,0.8,1.3,1.5
				c0.3,0.6,0.5,1.3,0.5,2.1c0,0.8-0.2,1.5-0.5,2.1c-0.3,0.6-0.8,1.1-1.4,1.4c-0.6,0.3-1.2,0.5-1.9,0.5c-0.7,0-1.4-0.2-2-0.5
				c-0.6-0.4-1-0.8-1.3-1.5C11.1,71.7,11,71,11,70.3z M12,70.3c0,0.9,0.3,1.7,0.8,2.2c0.5,0.5,1.1,0.8,1.9,0.8
				c0.8,0,1.4-0.3,1.9-0.8c0.5-0.6,0.8-1.3,0.8-2.3c0-0.6-0.1-1.2-0.3-1.7c-0.2-0.5-0.5-0.8-0.9-1.1c-0.4-0.3-0.9-0.4-1.4-0.4
				c-0.7,0-1.4,0.3-1.9,0.8C12.3,68.3,12,69.1,12,70.3z"/>
			<path d="M19.3,74.1v-7.9h1.1l4.1,6.2v-6.2h1v7.9h-1.1L20.3,68v6.2H19.3z"/>
			<path d="M26.4,70.3c0-1.3,0.4-2.3,1.1-3.1c0.7-0.7,1.6-1.1,2.7-1.1c0.7,0,1.4,0.2,2,0.5c0.6,0.3,1,0.8,1.3,1.5
				c0.3,0.6,0.5,1.3,0.5,2.1c0,0.8-0.2,1.5-0.5,2.1c-0.3,0.6-0.8,1.1-1.4,1.4c-0.6,0.3-1.2,0.5-1.9,0.5c-0.7,0-1.4-0.2-2-0.5
				c-0.6-0.4-1-0.8-1.3-1.5C26.5,71.7,26.4,71,26.4,70.3z M27.4,70.3c0,0.9,0.3,1.7,0.8,2.2c0.5,0.5,1.1,0.8,1.9,0.8
				c0.8,0,1.4-0.3,1.9-0.8c0.5-0.6,0.8-1.3,0.8-2.3c0-0.6-0.1-1.2-0.3-1.7c-0.2-0.5-0.5-0.8-0.9-1.1c-0.4-0.3-0.9-0.4-1.4-0.4
				c-0.7,0-1.4,0.3-1.9,0.8C27.7,68.3,27.4,69.1,27.4,70.3z"/>
			<path d="M34.7,74.1v-7.9h1.1l4.1,6.2v-6.2h1v7.9h-1.1L35.7,68v6.2H34.7z"/>
			<path d="M41.8,70.3c0-1.3,0.4-2.3,1.1-3.1c0.7-0.7,1.6-1.1,2.7-1.1c0.7,0,1.4,0.2,2,0.5c0.6,0.3,1,0.8,1.3,1.5
				c0.3,0.6,0.5,1.3,0.5,2.1c0,0.8-0.2,1.5-0.5,2.1c-0.3,0.6-0.8,1.1-1.4,1.4c-0.6,0.3-1.2,0.5-1.9,0.5c-0.7,0-1.4-0.2-2-0.5
				c-0.6-0.4-1-0.8-1.3-1.5C41.9,71.7,41.8,71,41.8,70.3z M42.8,70.3c0,0.9,0.3,1.7,0.8,2.2c0.5,0.5,1.1,0.8,1.9,0.8
				c0.8,0,1.4-0.3,1.9-0.8c0.5-0.6,0.8-1.3,0.8-2.3c0-0.6-0.1-1.2-0.3-1.7c-0.2-0.5-0.5-0.8-0.9-1.1c-0.4-0.3-0.9-0.4-1.4-0.4
				c-0.7,0-1.4,0.3-1.9,0.8C43.1,68.3,42.8,69.1,42.8,70.3z"/>
			<path d="M50.1,74.1v-7.9h1.1l4.1,6.2v-6.2h1v7.9h-1.1L51.1,68v6.2H50.1z"/>
			<path d="M57.2,70.3c0-1.3,0.4-2.3,1.1-3.1c0.7-0.7,1.6-1.1,2.7-1.1c0.7,0,1.4,0.2,2,0.5c0.6,0.3,1,0.8,1.3,1.5
				c0.3,0.6,0.5,1.3,0.5,2.1c0,0.8-0.2,1.5-0.5,2.1c-0.3,0.6-0.8,1.1-1.4,1.4c-0.6,0.3-1.2,0.5-1.9,0.5c-0.7,0-1.4-0.2-2-0.5
				c-0.6-0.4-1-0.8-1.3-1.5C57.3,71.7,57.2,71,57.2,70.3z M58.2,70.3c0,0.9,0.3,1.7,0.8,2.2c0.5,0.5,1.1,0.8,1.9,0.8
				c0.8,0,1.4-0.3,1.9-0.8c0.5-0.6,0.8-1.3,0.8-2.3c0-0.6-0.1-1.2-0.3-1.7c-0.2-0.5-0.5-0.8-0.9-1.1c-0.4-0.3-0.9-0.4-1.4-0.4
				c-0.7,0-1.4,0.3-1.9,0.8C58.5,68.3,58.2,69.1,58.2,70.3z"/>
			<path d="M65.5,74.1v-7.9h1.1l4.1,6.2v-6.2h1v7.9h-1.1L66.5,68v6.2H65.5z"/>
			<path d="M72.6,70.3c0-1.3,0.4-2.3,1.1-3.1c0.7-0.7,1.6-1.1,2.7-1.1c0.7,0,1.4,0.2,2,0.5c0.6,0.3,1,0.8,1.3,1.5
				c0.3,0.6,0.5,1.3,0.5,2.1c0,0.8-0.2,1.5-0.5,2.1c-0.3,0.6-0.8,1.1-1.4,1.4c-0.6,0.3-1.2,0.5-1.9,0.5c-0.7,0-1.4-0.2-2-0.5
				c-0.6-0.4-1-0.8-1.3-1.5C72.7,71.7,72.6,71,72.6,70.3z M73.6,70.3c0,0.9,0.3,1.7,0.8,2.2c0.5,0.5,1.1,0.8,1.9,0.8
				c0.8,0,1.4-0.3,1.9-0.8c0.5-0.6,0.8-1.3,0.8-2.3c0-0.6-0.1-1.2-0.3-1.7c-0.2-0.5-0.5-0.8-0.9-1.1c-0.4-0.3-0.9-0.4-1.4-0.4
				c-0.7,0-1.4,0.3-1.9,0.8C73.9,68.3,73.6,69.1,73.6,70.3z"/>
			<path d="M80.9,74.1v-7.9H82l4.1,6.2v-6.2h1v7.9H86L81.9,68v6.2H80.9z"/>
			<path d="M88,70.3c0-1.3,0.4-2.3,1.1-3.1c0.7-0.7,1.6-1.1,2.7-1.1c0.7,0,1.4,0.2,2,0.5c0.6,0.3,1,0.8,1.3,1.5
				c0.3,0.6,0.5,1.3,0.5,2.1c0,0.8-0.2,1.5-0.5,2.1c-0.3,0.6-0.8,1.1-1.4,1.4c-0.6,0.3-1.2,0.5-1.9,0.5c-0.7,0-1.4-0.2-2-0.5
				c-0.6-0.4-1-0.8-1.3-1.5C88.1,71.7,88,71,88,70.3z M89,70.3c0,0.9,0.3,1.7,0.8,2.2c0.5,0.5,1.1,0.8,1.9,0.8
				c0.8,0,1.4-0.3,1.9-0.8c0.5-0.6,0.8-1.3,0.8-2.3c0-0.6-0.1-1.2-0.3-1.7c-0.2-0.5-0.5-0.8-0.9-1.1c-0.4-0.3-0.9-0.4-1.4-0.4
				c-0.7,0-1.4,0.3-1.9,0.8C89.3,68.3,89,69.1,89,70.3z"/>
			<path d="M96.3,74.1v-7.9h1.1l4.1,6.2v-6.2h1v7.9h-1.1L97.3,68v6.2H96.3z"/>
			<path d="M103.4,70.3c0-1.3,0.4-2.3,1.1-3.1c0.7-0.7,1.6-1.1,2.7-1.1c0.7,0,1.4,0.2,2,0.5c0.6,0.3,1,0.8,1.3,1.5
				c0.3,0.6,0.5,1.3,0.5,2.1c0,0.8-0.2,1.5-0.5,2.1c-0.3,0.6-0.8,1.1-1.4,1.4c-0.6,0.3-1.2,0.5-1.9,0.5c-0.7,0-1.4-0.2-2-0.5
				c-0.6-0.4-1-0.8-1.3-1.5C103.5,71.7,103.4,71,103.4,70.3z M104.4,70.3c0,0.9,0.3,1.7,0.8,2.2c0.5,0.5,1.1,0.8,1.9,0.8
				c0.8,0,1.4-0.3,1.9-0.8c0.5-0.6,0.8-1.3,0.8-2.3c0-0.6-0.1-1.2-0.3-1.7c-0.2-0.5-0.5-0.8-0.9-1.1c-0.4-0.3-0.9-0.4-1.4-0.4
				c-0.7,0-1.4,0.3-1.9,0.8C104.7,68.3,104.4,69.1,104.4,70.3z"/>
			<path d="M111.7,74.1v-7.9h1.1l4.1,6.2v-6.2h1v7.9h-1.1l-4.1-6.2v6.2H111.7z"/>
			<path d="M118.8,70.3c0-1.3,0.4-2.3,1.1-3.1c0.7-0.7,1.6-1.1,2.7-1.1c0.7,0,1.4,0.2,2,0.5c0.6,0.3,1,0.8,1.3,1.5
				c0.3,0.6,0.5,1.3,0.5,2.1c0,0.8-0.2,1.5-0.5,2.1c-0.3,0.6-0.8,1.1-1.4,1.4c-0.6,0.3-1.2,0.5-1.9,0.5c-0.7,0-1.4-0.2-2-0.5
				c-0.6-0.4-1-0.8-1.3-1.5C118.9,71.7,118.8,71,118.8,70.3z M119.8,70.3c0,0.9,0.3,1.7,0.8,2.2c0.5,0.5,1.1,0.8,1.9,0.8
				c0.8,0,1.4-0.3,1.9-0.8c0.5-0.6,0.8-1.3,0.8-2.3c0-0.6-0.1-1.2-0.3-1.7c-0.2-0.5-0.5-0.8-0.9-1.1c-0.4-0.3-0.9-0.4-1.4-0.4
				c-0.7,0-1.4,0.3-1.9,0.8C120.1,68.3,119.8,69.1,119.8,70.3z"/>
			<path d="M127.1,74.1v-7.9h1.1l4.1,6.2v-6.2h1v7.9h-1.1l-4.1-6.2v6.2H127.1z"/>
			<path d="M134.2,70.3c0-1.3,0.4-2.3,1.1-3.1c0.7-0.7,1.6-1.1,2.7-1.1c0.7,0,1.4,0.2,2,0.5c0.6,0.3,1,0.8,1.3,1.5
				c0.3,0.6,0.5,1.3,0.5,2.1c0,0.8-0.2,1.5-0.5,2.1c-0.3,0.6-0.8,1.1-1.4,1.4c-0.6,0.3-1.2,0.5-1.9,0.5c-0.7,0-1.4-0.2-2-0.5
				c-0.6-0.4-1-0.8-1.3-1.5C134.3,71.7,134.2,71,134.2,70.3z M135.2,70.3c0,0.9,0.3,1.7,0.8,2.2c0.5,0.5,1.1,0.8,1.9,0.8
				c0.8,0,1.4-0.3,1.9-0.8c0.5-0.6,0.8-1.3,0.8-2.3c0-0.6-0.1-1.2-0.3-1.7c-0.2-0.5-0.5-0.8-0.9-1.1c-0.4-0.3-0.9-0.4-1.4-0.4
				c-0.7,0-1.4,0.3-1.9,0.8C135.5,68.3,135.2,69.1,135.2,70.3z"/>
			<path d="M142.5,74.1v-7.9h1.1l4.1,6.2v-6.2h1v7.9h-1.1l-4.1-6.2v6.2H142.5z"/>
			<path d="M149.6,70.3c0-1.3,0.4-2.3,1.1-3.1c0.7-0.7,1.6-1.1,2.7-1.1c0.7,0,1.4,0.2,2,0.5c0.6,0.3,1,0.8,1.3,1.5
				c0.3,0.6,0.5,1.3,0.5,2.1c0,0.8-0.2,1.5-0.5,2.1c-0.3,0.6-0.8,1.1-1.4,1.4c-0.6,0.3-1.2,0.5-1.9,0.5c-0.7,0-1.4-0.2-2-0.5
				c-0.6-0.4-1-0.8-1.3-1.5C149.7,71.7,149.6,71,149.6,70.3z M150.6,70.3c0,0.9,0.3,1.7,0.8,2.2c0.5,0.5,1.1,0.8,1.9,0.8
				c0.8,0,1.4-0.3,1.9-0.8c0.5-0.6,0.8-1.3,0.8-2.3c0-0.6-0.1-1.2-0.3-1.7c-0.2-0.5-0.5-0.8-1-1.1c-0.4-0.3-0.9-0.4-1.4-0.4
				c-0.7,0-1.4,0.3-1.9,0.8C150.9,68.3,150.6,69.1,150.6,70.3z"/>
		</g>
		<g>
			<path d="M3.9,83.2v-7.9H5l4.1,6.2v-6.2h1v7.9H9L4.9,77v6.2H3.9z"/>
			<path d="M11,79.4c0-1.3,0.4-2.3,1.1-3.1c0.7-0.7,1.6-1.1,2.7-1.1c0.7,0,1.4,0.2,2,0.5c0.6,0.3,1,0.8,1.3,1.5
				c0.3,0.6,0.5,1.3,0.5,2.1c0,0.8-0.2,1.5-0.5,2.1c-0.3,0.6-0.8,1.1-1.4,1.4c-0.6,0.3-1.2,0.5-1.9,0.5c-0.7,0-1.4-0.2-2-0.5
				c-0.6-0.4-1-0.8-1.3-1.5C11.1,80.7,11,80.1,11,79.4z M12,79.4c0,0.9,0.3,1.7,0.8,2.2c0.5,0.5,1.1,0.8,1.9,0.8
				c0.8,0,1.4-0.3,1.9-0.8c0.5-0.6,0.8-1.3,0.8-2.3c0-0.6-0.1-1.2-0.3-1.7c-0.2-0.5-0.5-0.8-0.9-1.1c-0.4-0.3-0.9-0.4-1.4-0.4
				c-0.7,0-1.4,0.3-1.9,0.8C12.3,77.3,12,78.2,12,79.4z"/>
			<path d="M19.3,83.2v-7.9h1.1l4.1,6.2v-6.2h1v7.9h-1.1L20.3,77v6.2H19.3z"/>
			<path d="M26.4,79.4c0-1.3,0.4-2.3,1.1-3.1c0.7-0.7,1.6-1.1,2.7-1.1c0.7,0,1.4,0.2,2,0.5c0.6,0.3,1,0.8,1.3,1.5
				c0.3,0.6,0.5,1.3,0.5,2.1c0,0.8-0.2,1.5-0.5,2.1c-0.3,0.6-0.8,1.1-1.4,1.4c-0.6,0.3-1.2,0.5-1.9,0.5c-0.7,0-1.4-0.2-2-0.5
				c-0.6-0.4-1-0.8-1.3-1.5C26.5,80.7,26.4,80.1,26.4,79.4z M27.4,79.4c0,0.9,0.3,1.7,0.8,2.2c0.5,0.5,1.1,0.8,1.9,0.8
				c0.8,0,1.4-0.3,1.9-0.8c0.5-0.6,0.8-1.3,0.8-2.3c0-0.6-0.1-1.2-0.3-1.7c-0.2-0.5-0.5-0.8-0.9-1.1c-0.4-0.3-0.9-0.4-1.4-0.4
				c-0.7,0-1.4,0.3-1.9,0.8C27.7,77.3,27.4,78.2,27.4,79.4z"/>
			<path d="M34.7,83.2v-7.9h1.1l4.1,6.2v-6.2h1v7.9h-1.1L35.7,77v6.2H34.7z"/>
			<path d="M41.8,79.4c0-1.3,0.4-2.3,1.1-3.1c0.7-0.7,1.6-1.1,2.7-1.1c0.7,0,1.4,0.2,2,0.5c0.6,0.3,1,0.8,1.3,1.5
				c0.3,0.6,0.5,1.3,0.5,2.1c0,0.8-0.2,1.5-0.5,2.1c-0.3,0.6-0.8,1.1-1.4,1.4c-0.6,0.3-1.2,0.5-1.9,0.5c-0.7,0-1.4-0.2-2-0.5
				c-0.6-0.4-1-0.8-1.3-1.5C41.9,80.7,41.8,80.1,41.8,79.4z M42.8,79.4c0,0.9,0.3,1.7,0.8,2.2c0.5,0.5,1.1,0.8,1.9,0.8
				c0.8,0,1.4-0.3,1.9-0.8c0.5-0.6,0.8-1.3,0.8-2.3c0-0.6-0.1-1.2-0.3-1.7c-0.2-0.5-0.5-0.8-0.9-1.1c-0.4-0.3-0.9-0.4-1.4-0.4
				c-0.7,0-1.4,0.3-1.9,0.8C43.1,77.3,42.8,78.2,42.8,79.4z"/>
			<path d="M50.1,83.2v-7.9h1.1l4.1,6.2v-6.2h1v7.9h-1.1L51.1,77v6.2H50.1z"/>
			<path d="M57.2,79.4c0-1.3,0.4-2.3,1.1-3.1c0.7-0.7,1.6-1.1,2.7-1.1c0.7,0,1.4,0.2,2,0.5c0.6,0.3,1,0.8,1.3,1.5
				c0.3,0.6,0.5,1.3,0.5,2.1c0,0.8-0.2,1.5-0.5,2.1c-0.3,0.6-0.8,1.1-1.4,1.4c-0.6,0.3-1.2,0.5-1.9,0.5c-0.7,0-1.4-0.2-2-0.5
				c-0.6-0.4-1-0.8-1.3-1.5C57.3,80.7,57.2,80.1,57.2,79.4z M58.2,79.4c0,0.9,0.3,1.7,0.8,2.2c0.5,0.5,1.1,0.8,1.9,0.8
				c0.8,0,1.4-0.3,1.9-0.8c0.5-0.6,0.8-1.3,0.8-2.3c0-0.6-0.1-1.2-0.3-1.7c-0.2-0.5-0.5-0.8-0.9-1.1c-0.4-0.3-0.9-0.4-1.4-0.4
				c-0.7,0-1.4,0.3-1.9,0.8C58.5,77.3,58.2,78.2,58.2,79.4z"/>
			<path d="M65.5,83.2v-7.9h1.1l4.1,6.2v-6.2h1v7.9h-1.1L66.5,77v6.2H65.5z"/>
			<path d="M72.6,79.4c0-1.3,0.4-2.3,1.1-3.1c0.7-0.7,1.6-1.1,2.7-1.1c0.7,0,1.4,0.2,2,0.5c0.6,0.3,1,0.8,1.3,1.5
				c0.3,0.6,0.5,1.3,0.5,2.1c0,0.8-0.2,1.5-0.5,2.1c-0.3,0.6-0.8,1.1-1.4,1.4c-0.6,0.3-1.2,0.5-1.9,0.5c-0.7,0-1.4-0.2-2-0.5
				c-0.6-0.4-1-0.8-1.3-1.5C72.7,80.7,72.6,80.1,72.6,79.4z M73.6,79.4c0,0.9,0.3,1.7,0.8,2.2c0.5,0.5,1.1,0.8,1.9,0.8
				c0.8,0,1.4-0.3,1.9-0.8c0.5-0.6,0.8-1.3,0.8-2.3c0-0.6-0.1-1.2-0.3-1.7c-0.2-0.5-0.5-0.8-0.9-1.1c-0.4-0.3-0.9-0.4-1.4-0.4
				c-0.7,0-1.4,0.3-1.9,0.8C73.9,77.3,73.6,78.2,73.6,79.4z"/>
			<path d="M80.9,83.2v-7.9H82l4.1,6.2v-6.2h1v7.9H86L81.9,77v6.2H80.9z"/>
			<path d="M88,79.4c0-1.3,0.4-2.3,1.1-3.1c0.7-0.7,1.6-1.1,2.7-1.1c0.7,0,1.4,0.2,2,0.5c0.6,0.3,1,0.8,1.3,1.5
				c0.3,0.6,0.5,1.3,0.5,2.1c0,0.8-0.2,1.5-0.5,2.1c-0.3,0.6-0.8,1.1-1.4,1.4c-0.6,0.3-1.2,0.5-1.9,0.5c-0.7,0-1.4-0.2-2-0.5
				c-0.6-0.4-1-0.8-1.3-1.5C88.1,80.7,88,80.1,88,79.4z M89,79.4c0,0.9,0.3,1.7,0.8,2.2c0.5,0.5,1.1,0.8,1.9,0.8
				c0.8,0,1.4-0.3,1.9-0.8c0.5-0.6,0.8-1.3,0.8-2.3c0-0.6-0.1-1.2-0.3-1.7c-0.2-0.5-0.5-0.8-0.9-1.1c-0.4-0.3-0.9-0.4-1.4-0.4
				c-0.7,0-1.4,0.3-1.9,0.8C89.3,77.3,89,78.2,89,79.4z"/>
			<path d="M96.3,83.2v-7.9h1.1l4.1,6.2v-6.2h1v7.9h-1.1L97.3,77v6.2H96.3z"/>
			<path d="M103.4,79.4c0-1.3,0.4-2.3,1.1-3.1c0.7-0.7,1.6-1.1,2.7-1.1c0.7,0,1.4,0.2,2,0.5c0.6,0.3,1,0.8,1.3,1.5
				c0.3,0.6,0.5,1.3,0.5,2.1c0,0.8-0.2,1.5-0.5,2.1c-0.3,0.6-0.8,1.1-1.4,1.4c-0.6,0.3-1.2,0.5-1.9,0.5c-0.7,0-1.4-0.2-2-0.5
				c-0.6-0.4-1-0.8-1.3-1.5C103.5,80.7,103.4,80.1,103.4,79.4z M104.4,79.4c0,0.9,0.3,1.7,0.8,2.2c0.5,0.5,1.1,0.8,1.9,0.8
				c0.8,0,1.4-0.3,1.9-0.8c0.5-0.6,0.8-1.3,0.8-2.3c0-0.6-0.1-1.2-0.3-1.7c-0.2-0.5-0.5-0.8-0.9-1.1c-0.4-0.3-0.9-0.4-1.4-0.4
				c-0.7,0-1.4,0.3-1.9,0.8C104.7,77.3,104.4,78.2,104.4,79.4z"/>
			<path d="M111.7,83.2v-7.9h1.1l4.1,6.2v-6.2h1v7.9h-1.1l-4.1-6.2v6.2H111.7z"/>
			<path d="M118.8,79.4c0-1.3,0.4-2.3,1.1-3.1c0.7-0.7,1.6-1.1,2.7-1.1c0.7,0,1.4,0.2,2,0.5c0.6,0.3,1,0.8,1.3,1.5
				c0.3,0.6,0.5,1.3,0.5,2.1c0,0.8-0.2,1.5-0.5,2.1c-0.3,0.6-0.8,1.1-1.4,1.4c-0.6,0.3-1.2,0.5-1.9,0.5c-0.7,0-1.4-0.2-2-0.5
				c-0.6-0.4-1-0.8-1.3-1.5C118.9,80.7,118.8,80.1,118.8,79.4z M119.8,79.4c0,0.9,0.3,1.7,0.8,2.2c0.5,0.5,1.1,0.8,1.9,0.8
				c0.8,0,1.4-0.3,1.9-0.8c0.5-0.6,0.8-1.3,0.8-2.3c0-0.6-0.1-1.2-0.3-1.7c-0.2-0.5-0.5-0.8-0.9-1.1c-0.4-0.3-0.9-0.4-1.4-0.4
				c-0.7,0-1.4,0.3-1.9,0.8C120.1,77.3,119.8,78.2,119.8,79.4z"/>
			<path d="M127.1,83.2v-7.9h1.1l4.1,6.2v-6.2h1v7.9h-1.1l-4.1-6.2v6.2H127.1z"/>
			<path d="M134.2,79.4c0-1.3,0.4-2.3,1.1-3.1c0.7-0.7,1.6-1.1,2.7-1.1c0.7,0,1.4,0.2,2,0.5c0.6,0.3,1,0.8,1.3,1.5
				c0.3,0.6,0.5,1.3,0.5,2.1c0,0.8-0.2,1.5-0.5,2.1c-0.3,0.6-0.8,1.1-1.4,1.4c-0.6,0.3-1.2,0.5-1.9,0.5c-0.7,0-1.4-0.2-2-0.5
				c-0.6-0.4-1-0.8-1.3-1.5C134.3,80.7,134.2,80.1,134.2,79.4z M135.2,79.4c0,0.9,0.3,1.7,0.8,2.2c0.5,0.5,1.1,0.8,1.9,0.8
				c0.8,0,1.4-0.3,1.9-0.8c0.5-0.6,0.8-1.3,0.8-2.3c0-0.6-0.1-1.2-0.3-1.7c-0.2-0.5-0.5-0.8-0.9-1.1c-0.4-0.3-0.9-0.4-1.4-0.4
				c-0.7,0-1.4,0.3-1.9,0.8C135.5,77.3,135.2,78.2,135.2,79.4z"/>
			<path d="M142.5,83.2v-7.9h1.1l4.1,6.2v-6.2h1v7.9h-1.1l-4.1-6.2v6.2H142.5z"/>
			<path d="M149.6,79.4c0-1.3,0.4-2.3,1.1-3.1c0.7-0.7,1.6-1.1,2.7-1.1c0.7,0,1.4,0.2,2,0.5c0.6,0.3,1,0.8,1.3,1.5
				c0.3,0.6,0.5,1.3,0.5,2.1c0,0.8-0.2,1.5-0.5,2.1c-0.3,0.6-0.8,1.1-1.4,1.4c-0.6,0.3-1.2,0.5-1.9,0.5c-0.7,0-1.4-0.2-2-0.5
				c-0.6-0.4-1-0.8-1.3-1.5C149.7,80.7,149.6,80.1,149.6,79.4z M150.6,79.4c0,0.9,0.3,1.7,0.8,2.2c0.5,0.5,1.1,0.8,1.9,0.8
				c0.8,0,1.4-0.3,1.9-0.8c0.5-0.6,0.8-1.3,0.8-2.3c0-0.6-0.1-1.2-0.3-1.7c-0.2-0.5-0.5-0.8-1-1.1c-0.4-0.3-0.9-0.4-1.4-0.4
				c-0.7,0-1.4,0.3-1.9,0.8C150.9,77.3,150.6,78.2,150.6,79.4z"/>
		</g>
		<g>
			<path d="M3.9,92.3v-7.9H5l4.1,6.2v-6.2h1v7.9H9l-4.1-6.2v6.2H3.9z"/>
			<path d="M11,88.4c0-1.3,0.4-2.3,1.1-3.1c0.7-0.7,1.6-1.1,2.7-1.1c0.7,0,1.4,0.2,2,0.5c0.6,0.3,1,0.8,1.3,1.5
				c0.3,0.6,0.5,1.3,0.5,2.1c0,0.8-0.2,1.5-0.5,2.1c-0.3,0.6-0.8,1.1-1.4,1.4c-0.6,0.3-1.2,0.5-1.9,0.5c-0.7,0-1.4-0.2-2-0.5
				c-0.6-0.4-1-0.8-1.3-1.5C11.1,89.8,11,89.1,11,88.4z M12,88.4c0,0.9,0.3,1.7,0.8,2.2c0.5,0.5,1.1,0.8,1.9,0.8
				c0.8,0,1.4-0.3,1.9-0.8c0.5-0.6,0.8-1.3,0.8-2.3c0-0.6-0.1-1.2-0.3-1.7c-0.2-0.5-0.5-0.8-0.9-1.1c-0.4-0.3-0.9-0.4-1.4-0.4
				c-0.7,0-1.4,0.3-1.9,0.8C12.3,86.4,12,87.2,12,88.4z"/>
			<path d="M19.3,92.3v-7.9h1.1l4.1,6.2v-6.2h1v7.9h-1.1l-4.1-6.2v6.2H19.3z"/>
			<path d="M26.4,88.4c0-1.3,0.4-2.3,1.1-3.1c0.7-0.7,1.6-1.1,2.7-1.1c0.7,0,1.4,0.2,2,0.5c0.6,0.3,1,0.8,1.3,1.5
				c0.3,0.6,0.5,1.3,0.5,2.1c0,0.8-0.2,1.5-0.5,2.1c-0.3,0.6-0.8,1.1-1.4,1.4c-0.6,0.3-1.2,0.5-1.9,0.5c-0.7,0-1.4-0.2-2-0.5
				c-0.6-0.4-1-0.8-1.3-1.5C26.5,89.8,26.4,89.1,26.4,88.4z M27.4,88.4c0,0.9,0.3,1.7,0.8,2.2c0.5,0.5,1.1,0.8,1.9,0.8
				c0.8,0,1.4-0.3,1.9-0.8c0.5-0.6,0.8-1.3,0.8-2.3c0-0.6-0.1-1.2-0.3-1.7c-0.2-0.5-0.5-0.8-0.9-1.1c-0.4-0.3-0.9-0.4-1.4-0.4
				c-0.7,0-1.4,0.3-1.9,0.8C27.7,86.4,27.4,87.2,27.4,88.4z"/>
			<path d="M34.7,92.3v-7.9h1.1l4.1,6.2v-6.2h1v7.9h-1.1l-4.1-6.2v6.2H34.7z"/>
			<path d="M41.8,88.4c0-1.3,0.4-2.3,1.1-3.1c0.7-0.7,1.6-1.1,2.7-1.1c0.7,0,1.4,0.2,2,0.5c0.6,0.3,1,0.8,1.3,1.5
				c0.3,0.6,0.5,1.3,0.5,2.1c0,0.8-0.2,1.5-0.5,2.1c-0.3,0.6-0.8,1.1-1.4,1.4c-0.6,0.3-1.2,0.5-1.9,0.5c-0.7,0-1.4-0.2-2-0.5
				c-0.6-0.4-1-0.8-1.3-1.5C41.9,89.8,41.8,89.1,41.8,88.4z M42.8,88.4c0,0.9,0.3,1.7,0.8,2.2c0.5,0.5,1.1,0.8,1.9,0.8
				c0.8,0,1.4-0.3,1.9-0.8c0.5-0.6,0.8-1.3,0.8-2.3c0-0.6-0.1-1.2-0.3-1.7c-0.2-0.5-0.5-0.8-0.9-1.1c-0.4-0.3-0.9-0.4-1.4-0.4
				c-0.7,0-1.4,0.3-1.9,0.8C43.1,86.4,42.8,87.2,42.8,88.4z"/>
			<path d="M50.1,92.3v-7.9h1.1l4.1,6.2v-6.2h1v7.9h-1.1l-4.1-6.2v6.2H50.1z"/>
			<path d="M57.2,88.4c0-1.3,0.4-2.3,1.1-3.1c0.7-0.7,1.6-1.1,2.7-1.1c0.7,0,1.4,0.2,2,0.5c0.6,0.3,1,0.8,1.3,1.5
				c0.3,0.6,0.5,1.3,0.5,2.1c0,0.8-0.2,1.5-0.5,2.1c-0.3,0.6-0.8,1.1-1.4,1.4c-0.6,0.3-1.2,0.5-1.9,0.5c-0.7,0-1.4-0.2-2-0.5
				c-0.6-0.4-1-0.8-1.3-1.5C57.3,89.8,57.2,89.1,57.2,88.4z M58.2,88.4c0,0.9,0.3,1.7,0.8,2.2c0.5,0.5,1.1,0.8,1.9,0.8
				c0.8,0,1.4-0.3,1.9-0.8c0.5-0.6,0.8-1.3,0.8-2.3c0-0.6-0.1-1.2-0.3-1.7c-0.2-0.5-0.5-0.8-0.9-1.1c-0.4-0.3-0.9-0.4-1.4-0.4
				c-0.7,0-1.4,0.3-1.9,0.8C58.5,86.4,58.2,87.2,58.2,88.4z"/>
			<path d="M65.5,92.3v-7.9h1.1l4.1,6.2v-6.2h1v7.9h-1.1l-4.1-6.2v6.2H65.5z"/>
			<path d="M72.6,88.4c0-1.3,0.4-2.3,1.1-3.1c0.7-0.7,1.6-1.1,2.7-1.1c0.7,0,1.4,0.2,2,0.5c0.6,0.3,1,0.8,1.3,1.5
				c0.3,0.6,0.5,1.3,0.5,2.1c0,0.8-0.2,1.5-0.5,2.1c-0.3,0.6-0.8,1.1-1.4,1.4c-0.6,0.3-1.2,0.5-1.9,0.5c-0.7,0-1.4-0.2-2-0.5
				c-0.6-0.4-1-0.8-1.3-1.5C72.7,89.8,72.6,89.1,72.6,88.4z M73.6,88.4c0,0.9,0.3,1.7,0.8,2.2c0.5,0.5,1.1,0.8,1.9,0.8
				c0.8,0,1.4-0.3,1.9-0.8c0.5-0.6,0.8-1.3,0.8-2.3c0-0.6-0.1-1.2-0.3-1.7c-0.2-0.5-0.5-0.8-0.9-1.1c-0.4-0.3-0.9-0.4-1.4-0.4
				c-0.7,0-1.4,0.3-1.9,0.8C73.9,86.4,73.6,87.2,73.6,88.4z"/>
			<path d="M80.9,92.3v-7.9H82l4.1,6.2v-6.2h1v7.9H86l-4.1-6.2v6.2H80.9z"/>
			<path d="M88,88.4c0-1.3,0.4-2.3,1.1-3.1c0.7-0.7,1.6-1.1,2.7-1.1c0.7,0,1.4,0.2,2,0.5c0.6,0.3,1,0.8,1.3,1.5
				c0.3,0.6,0.5,1.3,0.5,2.1c0,0.8-0.2,1.5-0.5,2.1c-0.3,0.6-0.8,1.1-1.4,1.4c-0.6,0.3-1.2,0.5-1.9,0.5c-0.7,0-1.4-0.2-2-0.5
				c-0.6-0.4-1-0.8-1.3-1.5C88.1,89.8,88,89.1,88,88.4z M89,88.4c0,0.9,0.3,1.7,0.8,2.2c0.5,0.5,1.1,0.8,1.9,0.8
				c0.8,0,1.4-0.3,1.9-0.8c0.5-0.6,0.8-1.3,0.8-2.3c0-0.6-0.1-1.2-0.3-1.7c-0.2-0.5-0.5-0.8-0.9-1.1c-0.4-0.3-0.9-0.4-1.4-0.4
				c-0.7,0-1.4,0.3-1.9,0.8C89.3,86.4,89,87.2,89,88.4z"/>
			<path d="M96.3,92.3v-7.9h1.1l4.1,6.2v-6.2h1v7.9h-1.1l-4.1-6.2v6.2H96.3z"/>
			<path d="M103.4,88.4c0-1.3,0.4-2.3,1.1-3.1c0.7-0.7,1.6-1.1,2.7-1.1c0.7,0,1.4,0.2,2,0.5c0.6,0.3,1,0.8,1.3,1.5
				c0.3,0.6,0.5,1.3,0.5,2.1c0,0.8-0.2,1.5-0.5,2.1c-0.3,0.6-0.8,1.1-1.4,1.4c-0.6,0.3-1.2,0.5-1.9,0.5c-0.7,0-1.4-0.2-2-0.5
				c-0.6-0.4-1-0.8-1.3-1.5C103.5,89.8,103.4,89.1,103.4,88.4z M104.4,88.4c0,0.9,0.3,1.7,0.8,2.2c0.5,0.5,1.1,0.8,1.9,0.8
				c0.8,0,1.4-0.3,1.9-0.8c0.5-0.6,0.8-1.3,0.8-2.3c0-0.6-0.1-1.2-0.3-1.7c-0.2-0.5-0.5-0.8-0.9-1.1c-0.4-0.3-0.9-0.4-1.4-0.4
				c-0.7,0-1.4,0.3-1.9,0.8C104.7,86.4,104.4,87.2,104.4,88.4z"/>
			<path d="M111.7,92.3v-7.9h1.1l4.1,6.2v-6.2h1v7.9h-1.1l-4.1-6.2v6.2H111.7z"/>
			<path d="M118.8,88.4c0-1.3,0.4-2.3,1.1-3.1c0.7-0.7,1.6-1.1,2.7-1.1c0.7,0,1.4,0.2,2,0.5c0.6,0.3,1,0.8,1.3,1.5
				c0.3,0.6,0.5,1.3,0.5,2.1c0,0.8-0.2,1.5-0.5,2.1c-0.3,0.6-0.8,1.1-1.4,1.4c-0.6,0.3-1.2,0.5-1.9,0.5c-0.7,0-1.4-0.2-2-0.5
				c-0.6-0.4-1-0.8-1.3-1.5C118.9,89.8,118.8,89.1,118.8,88.4z M119.8,88.4c0,0.9,0.3,1.7,0.8,2.2c0.5,0.5,1.1,0.8,1.9,0.8
				c0.8,0,1.4-0.3,1.9-0.8c0.5-0.6,0.8-1.3,0.8-2.3c0-0.6-0.1-1.2-0.3-1.7c-0.2-0.5-0.5-0.8-0.9-1.1c-0.4-0.3-0.9-0.4-1.4-0.4
				c-0.7,0-1.4,0.3-1.9,0.8C120.1,86.4,119.8,87.2,119.8,88.4z"/>
			<path d="M127.1,92.3v-7.9h1.1l4.1,6.2v-6.2h1v7.9h-1.1l-4.1-6.2v6.2H127.1z"/>
			<path d="M134.2,88.4c0-1.3,0.4-2.3,1.1-3.1c0.7-0.7,1.6-1.1,2.7-1.1c0.7,0,1.4,0.2,2,0.5c0.6,0.3,1,0.8,1.3,1.5
				c0.3,0.6,0.5,1.3,0.5,2.1c0,0.8-0.2,1.5-0.5,2.1c-0.3,0.6-0.8,1.1-1.4,1.4c-0.6,0.3-1.2,0.5-1.9,0.5c-0.7,0-1.4-0.2-2-0.5
				c-0.6-0.4-1-0.8-1.3-1.5C134.3,89.8,134.2,89.1,134.2,88.4z M135.2,88.4c0,0.9,0.3,1.7,0.8,2.2c0.5,0.5,1.1,0.8,1.9,0.8
				c0.8,0,1.4-0.3,1.9-0.8c0.5-0.6,0.8-1.3,0.8-2.3c0-0.6-0.1-1.2-0.3-1.7c-0.2-0.5-0.5-0.8-0.9-1.1c-0.4-0.3-0.9-0.4-1.4-0.4
				c-0.7,0-1.4,0.3-1.9,0.8C135.5,86.4,135.2,87.2,135.2,88.4z"/>
		</g>
		<g>
			<path d="M25.7,156.3v-25.5L2.5,96.1h9.6L24,114.3c2.2,3.4,4.2,6.8,6.2,10.2c1.8-3.2,4.1-6.7,6.7-10.6l11.6-17.7h9.3l-24,34.7
				v25.5H25.7z"/>
			<path d="M60.9,156.3V96.1h43.4v7.1H68.9v18.4H102v7.1H68.9v20.4h36.8v7.1H60.9z"/>
			<path d="M109.8,136.9l7.5-0.6c0.4,3,1.2,5.5,2.5,7.4c1.3,1.9,3.3,3.5,6,4.7c2.7,1.2,5.8,1.8,9.2,1.8c3,0,5.7-0.5,8-1.4
				c2.3-0.9,4-2.1,5.2-3.7c1.1-1.6,1.7-3.3,1.7-5.1c0-1.9-0.5-3.5-1.6-4.9c-1.1-1.4-2.9-2.6-5.4-3.5c-1.6-0.6-5.2-1.6-10.7-2.9
				c-5.5-1.3-9.4-2.6-11.6-3.7c-2.9-1.5-5-3.4-6.4-5.6c-1.4-2.2-2.1-4.7-2.1-7.5c0-3,0.9-5.9,2.6-8.5c1.7-2.6,4.2-4.6,7.5-6
				c3.3-1.4,7-2.1,11-2.1c4.4,0,8.4,0.7,11.8,2.2c3.4,1.4,6,3.6,7.8,6.3c1.8,2.8,2.8,6,2.9,9.5l-7.6,0.6c-0.4-3.8-1.8-6.7-4.2-8.6
				c-2.4-1.9-5.8-2.9-10.4-2.9c-4.8,0-8.3,0.9-10.5,2.6c-2.2,1.8-3.3,3.9-3.3,6.4c0,2.2,0.8,3.9,2.3,5.3c1.5,1.4,5.5,2.8,12,4.3
				c6.4,1.5,10.9,2.7,13.3,3.8c3.5,1.6,6.1,3.6,7.7,6.1c1.7,2.5,2.5,5.3,2.5,8.5c0,3.2-0.9,6.2-2.7,9c-1.8,2.8-4.4,5-7.9,6.6
				c-3.4,1.6-7.3,2.4-11.5,2.4c-5.4,0-10-0.8-13.6-2.4c-3.7-1.6-6.5-4-8.6-7.2C111,144.5,109.9,140.9,109.8,136.9z"/>
		</g>
	</g>
</g>
</svg>
