<?xml version="1.0" encoding="utf-8"?>
<!-- Generator: Adobe Illustrator 18.1.1, SVG Export Plug-In . SVG Version: 6.00 Build 0)  -->
<svg version="1.1" id="draw" xmlns="http://www.w3.org/2000/svg" xmlns:xlink="http://www.w3.org/1999/xlink" x="0px" y="0px"
	 viewBox="0 0 160 160" enable-background="new 0 0 160 160" xml:space="preserve">
<g>
	<rect fill="#FFFFFF" width="160" height="160"/>
	<path fill="#FFFFFF" stroke="#000000" d="M2,73C2,73-0.5,9.5,9,6s47-4.5,72.5-4.5s65.5-1,72,5s4.5,67,4.5,67v9c0,0,2.6,59.8-3.5,70
		c-4.5,7.5-61.5,5-72.5,5c-12.5,0-70-0.5-75-7.5S2,81.5,2,81.5L2,73z"/>
	<g>
		<path fill="none" d="M157.6,142v-3.2c-0.7,0.4-1.5,0.9-2.3,1.3C156.1,140.8,156.9,141.4,157.6,142z"/>
		<path fill="none" d="M136.8,160h11.9c-1.5-0.3-2.8-0.5-3.7-0.5C142.8,159.5,140.1,159.7,136.8,160z"/>
		<path fill="none" d="M86.8,100.9l-0.3,4.7c5.7-2.8,11.3-6.3,16.6-10.5c5.4-4.2,12-9.6,20-16c-8.1,2.1-15.3,4.8-21.6,8.2
			C95.3,90.7,90.4,95.2,86.8,100.9z"/>
		<polygon fill="none" points="26.2,51.8 38.9,39.6 31.6,29.7 14.7,42.7 15,45 		"/>
		<path fill="none" d="M40.2,82.7l-3.4-8.1c-0.9,0.5-5,3.4-12.5,8.6c-7.5,5.2-11.2,8.6-11.2,10.1v2.1c4.9-1.9,9.5-3.9,14-6.1
			C31.7,87.2,36,85,40.2,82.7z"/>
		<path fill="none" d="M6.4,149.3v0.9h0.4C6.6,149.8,6.5,149.5,6.4,149.3z"/>
		<path fill="none" d="M97.2,124.6c0,0.5,0,1,0,1.4c0,0.4,0,0.8,0,1.2l4.2,17.9c6.8-2.6,12.3-5.1,16.5-7.5c4.2-2.4,7.8-5.6,10.5-9.6
			c3.3-5,6.2-10.2,8.8-15.5c2.6-5.3,4.9-10.6,7-16l-3.9,1c-8,8.8-15,15.6-21.1,20.3C113.2,122.5,105.8,124.8,97.2,124.6z"/>
		<polygon fill="none" points="48.3,103 41.3,107.4 52.4,112.1 		"/>
		<path d="M157.6,138.9c1.2-6.5,0.4-54.1,0.4-54.1c-4-5.1-6.5-6.6-11.5-8.5l-4.2-1.6c1.9-0.7,3.6-1.2,5.1-1.6
			c1.5-0.3,2.9-0.5,4.3-0.5c2,0,2.6-0.1,6.2,1.1l0.4-20.8c-5.5-2.7-8.9-3.4-13.8-3.4c-1.6,0-3.2,0.2-5.1,0.5
			c-1.8,0.3-3.6,0.9-5.3,1.6l-0.8-11.9c1.2-0.5,4.6-1.7,10.3-3.5c5.6-1.8,9.8-2.7,12.6-2.7c0.8,0,0.2-0.4,2,0.2c0,0-1.9-24.1-3.2-25
			s-2.7-1.2-6.3-1.2c-1.4,0-3.6,0.4-6.6,1.2c-3,0.8-6.1,1.7-9.2,2.7c-0.9-2.4-1.7-4.6-2.5-6.5c-0.8-1.9-0.8-1.5-1.6-2.7
			c-0.1-0.1-0.2-0.2-0.3-0.4l-26.5-0.4c1.2,3.3,1.2,4.2,1.2,6c0,1.7-0.2,4.3-0.6,7.8c-0.4,3.5-0.6,6-0.6,7.5
			c-1,0.2-5.6,1.8-13.8,4.8c-8.1,3-13,4.5-14.6,4.5c-1.4,0-3.4-0.5-6.1-1.6c-2.7-1-4.6-1.6-5.8-1.6c-1.4,0-2.4,0.8-3.1,2.3
			c-0.7,1.6-1.1,3.3-1.3,5.2L43.3,25.1V23c1.4-0.9,4.4-2,9.1-3.4s7-3.7,7-7c0-4-1.1-7.4-3.4-10.3c-0.6-0.8,0.1,0.3-0.7-0.4L26.9,3.2
			c1.1,1.7,0-0.1,0.9,1.3c-1,0.7-4.1,2.9-9.1,6.6c-5,3.7-9.4,7.2-13.1,10.4c-2.1,1.8-0.7,0.7-2.3,2.4L1.6,55.6
			C5,59.1,7.3,62,11.7,65.1c-3.3,3.4-5,5.5-9.6,10.8L2.9,114c0.6,0.9-0.1,3.2-0.1,3.2s0.2,2.9,0.2,6.5c0,0,1.5,23.6,4.2,26.4
			s5.2,2.6,5.4,2.9l7.6,1.2c-1.4-3.9-1.3-3.6-4.3-10.6c-5.6-13.3-9.4-21.4-11.3-24.2c0.7,0.3,1.9,0.9,3.5,1.6c1.6,0.7,2.9,1,3.8,1
			c0.5,0,1.3-0.2,2.5-0.5c1.1-0.3,2-0.7,2.7-1c0.2,1,1,5,2.3,12c1.4,6.9,2.9,13,4.5,18.2c1.1,3.5,2.5,5.3,3.1,4.9l20,1.2
			c0.6,0.1-0.8-4.7-3.3-10.9c-2.9-7.4-5.3-13.1-7-17.3c-1.4-2.6-2.9-5-4.7-7.3c-1.7-2.2-3.6-4.3-5.7-6.2l12.2-5.7
			c-0.9,0.9-1.6,1.8-2.1,2.7c-0.5,1-0.8,1.9-0.8,2.7c0,0.3,1.6,4,4.8,10.9s5.1,11,5.6,12.2c1.2,3.5,2.7,7.3,4.4,11.4
			c1.7,4.2,2.1,4.7,3.3,5.9c1.2,1,3.5,1.3,4.7,2h10.1c0.3-0.3,0.6-0.6,0.8-0.9c1.1-1.6,1.6-1.1,1.6-3.9c0-6.8-1.3-13.2-4-19.4
			c-2.7-6.2-6.4-11.9-11-17.3c5.4-0.2,9-1.3,10.9-3.5c1.9-2.2,2.9-6,2.9-11.6c0-5.7-1.9-11.4-5.7-17.2c-3.8-5.7-8.4-11.3-13.8-16.6
			c1.2-1.6,2.6-2.9,4-4c1.5-1.1,3-1.7,4.5-1.7c2.4-0.2,4.3-0.8,5.7-1.8c1.4-1,2.1-2.8,2.1-5.2c0-0.9-0.3-1.9-0.8-3.1
			c-0.5-1.2-1-2.3-1.3-3.1c3.1,1.6,6.2,2.9,9.2,4.2c3,1.2,5.8,1.8,8.4,1.8c2.6,0,6.4-0.7,11.4-2.1c5-1.4,8.2-2.2,9.6-2.3v12
			c-1.4,0.3-5.9,1.8-13.5,4.3c-7.6,2.5-12.6,3.8-14.8,3.8c-0.7,0-1.7-0.2-3.1-0.5c-1.4-0.3-2.4-0.5-3.1-0.5c-1,0-2,0.6-2.9,1.8
			c-0.9,1.2-1.3,2.3-1.3,3.4c0,2.8,2.4,5.7,7.1,8.8c4.8,3.1,8.8,5.5,12.1,7c-3.6,3.5-6.4,7.4-8.2,11.7c-1.8,4.3-2.7,8.9-2.7,13.8
			c0,8.3,1.1,18.2,3.4,29.8c1.2,6.2,1.9,8.9,3.7,12.8l56.2-0.4l10-1.1c0,0,6-1.1,8.1-3.5s3.2-10.6,3.2-10.6V138.9z M128.4,128
			c-2.8,4-6.3,7.2-10.5,9.6c-4.2,2.4-9.8,4.9-16.5,7.5l-4.2-17.9c0-0.3,0-0.7,0-1.2c0-0.4,0-0.9,0-1.4c8.7,0.2,16-2.1,22.1-6.8
			c6.1-4.7,13.1-11.4,21.1-20.3l3.9-1c-2.1,5.4-4.4,10.7-7,16 M103.1,95.1c-5.4,4.2-10.9,7.8-16.6,10.5l0.3-4.7
			c3.6-5.7,8.6-10.3,14.8-13.6c6.2-3.4,13.4-6.1,21.6-8.2C115.2,85.5,108.5,90.8,103.1,95.1z M48.3,103l4.2,9.1l-11.2-4.7L48.3,103z
			 M31.6,29.7l7.3,9.9L26.2,51.8L15,45l-0.3-2.3L31.6,29.7z M13.2,93.4c0-1.6,3.7-4.9,11.2-10.1c7.5-5.2,11.6-8.1,12.5-8.6l3.4,8.1
			c-4.2,2.3-8.5,4.5-13,6.6c-4.5,2.2-9.2,4.2-14,6.1V93.4z"/>
	</g>
	<path fill="#FFFFFF" stroke="#000000" d="M96,72.9c0,0,23,3.4,34.5,18.4c0,0-2.2,7.8-9.6,9.6c0,0-9.8-18.4-23.4-19.9
		C83.8,79.5,96,72.9,96,72.9z"/>
	<path fill="#FFFFFF" stroke="#000000" d="M71.2,73.1c0,0-55.7-1.6-71.2,0v8.2c25.7-1.5,68,0,68,0"/>
	<path fill="#FFFFFF" stroke="#000000" d="M88.4,77.7c0,0,7.3,0.4,9,3.2c0,0-10,12.3-14.7,15.2l-3.8-7.6L88.4,77.7z"/>
	<path fill="#FFFFFF" stroke="#000000" d="M97.4,81c-2.5-2.5-5.1-2.7-5.1-2.7l3.6-5.4c0,0,50,0,64,1.1v8.1
		C144.2,80.8,97.4,81,97.4,81z"/>
	<path fill="#FFFFFF" stroke="#000000" d="M71.2,73.1c0,0-25.7,2.1-38,18.1c0,0,8.2,2.8,10,10c0,0,7.5-19.9,24.8-19.9
		C68,81.4,66.8,77.6,71.2,73.1z"/>
	<path fill="#FFFFFF" stroke="#000000" d="M71.2,73.1c0,0,15.3-2.5,24.7-0.3c0,0-9.7,13.6-13.3,23.3c0,0-8.5-10.5-14.7-14.8
		C68,81.4,67.7,77.2,71.2,73.1z"/>
</g>
</svg>
