<?xml version="1.0" encoding="iso-8859-1"?>
<!-- Generator: Adobe Illustrator 18.1.1, SVG Export Plug-In . SVG Version: 6.00 Build 0)  -->
<svg version="1.1" xmlns="http://www.w3.org/2000/svg" xmlns:xlink="http://www.w3.org/1999/xlink" x="0px" y="0px"
	 viewBox="0 0 250 250" style="enable-background:new 0 0 250 250;" xml:space="preserve">
<g id="ca1">
	<rect style="fill:#FFFFFF;" width="250" height="250"/>
</g>
<g id="ca2">
	<g>
		<g>
			<path style="fill:#EA5541;" d="M123.556,43.459c21.292-0.532,33.577,1.593,47.367,7.503
				c14.667,6.286,21.623,20.327,22.512,37.663c1.75,34.135-11.396,68.399-26.501,77.798c-11.626,7.232-23.233,7.857-42.983,7.857
				c-20.931,0-36.113-4.115-44.812-10.769c-13.427-10.268-26.354-44.727-24.38-74.347c1.075-16.133,9.11-33.211,29.514-40.863
				C97.908,43.188,108.53,43.834,123.556,43.459z"/>
			<g>
				<path style="fill:none;" d="M123.556,43.459c21.292-0.532,33.577,1.593,47.367,7.503c14.667,6.286,21.623,20.327,22.512,37.663
					c1.75,34.135-11.396,68.399-26.501,77.798c-11.626,7.232-23.233,7.857-42.983,7.857c-20.931,0-36.113-4.115-44.812-10.769
					c-13.427-10.268-26.354-44.727-24.38-74.347c1.075-16.133,9.11-33.211,29.514-40.863
					C97.908,43.188,108.53,43.834,123.556,43.459z"/>
				<path style="fill:#EA4F45;" d="M123.485,44.206c22.684-0.49,53.332,1.33,64.656,24.619c6.052,12.446,5.295,27.714,3.792,41.072
					c-1.579,14.026-5.532,28.112-12.298,40.54c-5.444,10-13.034,16.871-23.975,20.275c-12.241,3.808-26.355,3.191-38.996,2.643
					c-12.1-0.524-25.097-2.584-35.443-9.275c-8.97-5.803-14.025-16.955-17.808-26.521c-7.868-19.897-12.471-45.888-3.521-66.134
					c4.738-10.719,13.965-18.231,24.701-22.444C97.018,44.105,110.381,44.502,123.485,44.206c0.956-0.022,1.105-1.516,0.141-1.494
					c-12.926,0.293-25.571,0.172-37.987,4.303C74.951,50.57,66.012,57.611,60.316,67.326c-11.444,19.521-6.602,46.388,0.179,66.591
					c3.304,9.844,7.987,19.911,15.207,27.52c5.958,6.278,15.011,9.449,23.268,11.186c13.13,2.764,26.674,2.743,40.024,2.113
					c9.881-0.466,20-2.245,28.425-7.742c11.209-7.314,17.105-21.477,21.044-33.69c5.408-16.773,7.767-35.966,4.71-53.413
					c-2.388-13.631-10.377-24.735-23.203-30.145c-14.786-6.237-30.457-7.377-46.344-7.035
					C122.669,42.732,122.52,44.226,123.485,44.206z"/>
			</g>
		</g>
		<g>
			<path style="fill:#AD3F3E;" d="M122.809,50.584c-0.879-0.684-0.373-17.318,1.131-19.841c0.765-1.283,3.146,0.31,2.079,1.254
				c-1.94,1.717-1.195,17.916-1.488,18.571C124.309,51.064,123.481,51.106,122.809,50.584z"/>
		</g>
	</g>
</g>
<g id="ca3">
	<g>
		<g>
			<g>
				<path style="fill:none;" d="M59.591,209.158c7.768-2.415,12.794-4.224,14.696-8.503c0.84-1.889,1.889-4.619,1.889-4.619
					s1.47,0.188,2.939,0.842c1.888,0.839,1.573,1.889,0.524,4.092c-2.204,4.629-2.547,6.557,5.248,4.095
					c2.626-0.828,5.093-1.948,8.292-4.409c2.79-2.146,4.093-3.777,6.298-6.297c-3.149,2.834-6.811,7.309-3.464,9.131
					c3.459,1.884,10.953-3.08,12.596-4.723c2.367-2.367,2.724-5.767,6.613-5.354c4.951,0.526-0.63,5.354-1.889,8.502
					c1.259-2.204,4.612-7.32,6.613-8.397c2.728-1.469,6.721-0.518,5.563,2.311c-0.962,2.349-4.303,5.142,2.624,4.512
					c2.205-0.314,6.613-1.783,9.236-3.253"/>
				<path style="fill:#4C5635;" d="M59.656,209.525c4.914-1.542,10.446-2.909,13.931-6.965c1.454-1.691,1.701-6.387,3.984-5.842
					c4.459,1.064,0.638,5.748,0.334,8.064c-0.435,3.314,6.146,0.917,7.048,0.648c6.153-1.832,10.716-6.134,14.831-10.859
					c0.279-0.32-0.242-0.787-0.547-0.498c-1.537,1.45-6.085,5.383-4.835,8.015c1.275,2.685,3.974,2.357,6.476,1.629
					c2.62-0.763,6.193-2.612,8.038-4.737c0.789-0.909,1.448-1.837,2.107-2.843c0.814-1.244,6.734-4.173,5.627-0.389
					c-0.631,2.157-2.678,3.993-3.667,6.036c-0.185,0.382,0.441,0.707,0.656,0.344c2.107-3.575,4.756-8.883,9.537-8.9
					c3.592-0.012,0.221,5.104,0.364,6.461c0.409,3.869,12.719-1.614,13.99-2.266c0.427-0.219,0.109-0.895-0.32-0.674
					c-3.636,1.864-7.565,3.414-11.708,3.266c-2.671-0.095,0.178-3.203,0.379-4.152c0.673-3.186-2.391-3.648-4.929-3.151
					c-1.377,0.27-2.537,1.44-3.383,2.464c-0.788,0.952-1.525,1.923-2.245,2.928c-0.453,0.65-0.892,1.311-1.316,1.982
					c-0.884,1.072-0.7,1.191,0.553,0.357c1.072-1.772,4.818-5.403,1.903-7.117c-3.406-2.003-5.853,2.168-7.355,4.301
					c-1.669,2.37-4.806,3.827-7.363,4.976c-3.63,1.631-7.852-0.708-5.003-4.808c3.518-5.061,0.259-1.123-1.42,0.551
					c-2.667,2.658-5.98,4.658-9.476,6.007c-1.606,0.62-3.287,1.025-4.975,1.34c-3.726,0.694-1.228-3.847-0.881-4.592
					c1.668-3.59,0.008-4.802-3.779-5.435c-0.165-0.028-0.328,0.094-0.385,0.241c-1.065,2.75-1.965,5.526-4.166,7.6
					c-3.073,2.893-8.252,4.066-12.133,5.285C59.074,208.933,59.198,209.669,59.656,209.525L59.656,209.525z"/>
			</g>
		</g>
		<g>
			<g>
				<path style="fill:none;" d="M137.266,197.192c4.093-2.52,9.288-8.03,13.383-7.243c-5.827-0.472-7.191,6.299-3.727,7.558
					c4.723,1.575,4.514-4.88,4.514-7.715c0,4.724-1.228,7.994-3.148,12.228c-3.619,7.98-9.952,1.98-4.408-2.625
					c1.21-1.005,6.161-2.269,7.872-2.938c2.413-0.945,5.395-1.505,7.871-2.651c4.251-1.967,4.566-2.046,10.393-5.643
					c-9.92,10.13,8.653,10.503,2.623,1.365c-3.457-5.238-6.637,3.138,1.68,1.154c4.697-1.12,11.65-2.413,13.959-4.197"/>
				<path style="fill:#4C5635;" d="M137.507,197.477c2.307-1.516,4.444-3.261,6.691-4.861c1.008-0.718,8.158-4.449,3.163-2.435
					c-1.831,0.739-3.208,3.45-2.571,5.355c0.739,2.215,2.825,3.106,4.989,2.165c2.406-1.046,2.031-5.918,2.027-7.874
					c0-0.474-0.727-0.556-0.742-0.07c-0.156,4.717-1.551,12.749-5.933,15.53c-3.655-1.913-3.814-3.893-0.478-5.942
					c0.635-0.311,1.287-0.58,1.956-0.807c1.48-0.562,3.015-0.982,4.521-1.466c6.273-2.021,11.954-4.247,17.585-7.674
					c1.027-0.625-0.569,0.371-1.089,1.144c-0.442,0.656-0.697,1.404-0.887,2.163c-0.184,0.731-0.074,1.743,0.417,2.346
					c1.319,1.62,3.501,1.707,5.294,0.857c4.917-2.329-1.531-10.728-3.366-7.938c-1.002,1.522,0.211,3.186,1.945,3.324
					c3.025,0.24,6.119-0.871,9.039-1.55c2.834-0.659,5.89-1.332,8.367-2.922c0.398-0.256,0.085-0.934-0.32-0.674
					c-2.863,1.837-6.387,2.445-9.657,3.205c-1.4,0.326-2.806,0.636-4.206,0.962c-1.238,0.341-2.495,0.363-3.771,0.068
					c0.93-1.867,1.701-1.822,2.313,0.134c1.615,2.705,0.107,5.257-2.893,5.182c-4.824-0.12-1.121-5.649,0.354-7.252
					c0.26-0.281-0.009-0.863-0.401-0.621c-6.742,4.147-13.529,6.847-21.092,9.222c-2.507,0.787-9.454,3.241-7.217,7.465
					c2.114,3.991,5.707,0.254,7.047-2.279c1.757-3.321,2.773-6.982,3.158-10.699c-0.621-1.316-0.852-1.354-0.693-0.113
					c-0.01,0.65-0.048,1.299-0.114,1.945c0.068,2.738-1.682,3.584-5.25,2.536c-2.067-3.323,2.673-5.573,4.921-5.583
					c0.472-0.002,0.558-0.71,0.07-0.742c-5.293-0.359-9.587,4.652-13.659,7.33C136.623,197.172,137.109,197.738,137.507,197.477
					L137.507,197.477z"/>
			</g>
		</g>
		<g>
			<g>
				<path style="fill:none;" d="M101.157,192.259c0.104-0.21,0.315-0.524,0.525-0.734"/>
				<path style="fill:#4C5635;" d="M101.463,192.473c0.128-0.238,0.276-0.465,0.46-0.664c0.323-0.348-0.155-0.922-0.482-0.568
					c-0.23,0.248-0.429,0.506-0.589,0.805C100.626,192.464,101.235,192.896,101.463,192.473L101.463,192.473z"/>
			</g>
		</g>
	</g>
</g>
</svg>
