<?xml version="1.0" encoding="iso-8859-1"?>
<!-- Generator: Adobe Illustrator 18.1.1, SVG Export Plug-In . SVG Version: 6.00 Build 0)  -->
<svg version="1.1" xmlns="http://www.w3.org/2000/svg" xmlns:xlink="http://www.w3.org/1999/xlink" x="0px" y="0px"
	 viewBox="0 0 250 250" style="enable-background:new 0 0 250 250;" xml:space="preserve">
<g id="ca1">
	<rect style="fill:#FFFFFF;" width="250" height="250"/>
</g>
<g id="ca2">
	<g>
		<g>
			<g>
				<path style="fill:none;" d="M54.075,203.333c12.917-1.667,13.333-7,21.417-7.833c2.081,0.186-2.99,8.326-4.25,11.75
					c3-8.25,5.999-11.75,13.5-11.75c3.25,1.75-4.134,8.398-1.75,10.25c7.366,0.648,17-11.75,25.75-13.25
					c-9.25,1-15.444,13.423-7.75,11.75c5.75-1.25,6.148-7.922,8.75-12c-5.75,8.75,1.606,11.107,7.5,9.5
					c6.43-2.68,14.106-8.286,20.001-11.5c-0.25,10.5-7,14.25-14.251,7.5c11.251-1.75,13.319,0.033,19.571-2.113
					c7.68-2.637,6.998-2.915,13.18-6.137c-3.215,2.679-6.5,8-4.5,9c6.25,1.75,10.355-5.464,16.25-9.75c-15.75,17,20.5,3.25,28-2.25"
					/>
				<path style="fill:#4C5635;" d="M54.14,203.7c4.059-0.604,7.782-1.597,11.402-3.551c0.804-0.434,10.052-5.76,10.056-3.72
					c0.007,3.146-3.144,7.143-4.407,9.947c0.925-0.145,1.414-0.716,1.466-1.714c0.606-1.482,1.389-2.877,2.264-4.214
					c1.742-2.663,4.384-3.924,7.417-4.435c4.974-0.838-0.049,7.115-0.2,8.727c-0.163,1.739,1.755,1.402,2.804,1.28
					c3.475-0.403,6.786-3.064,9.543-5.013c4.478-3.163,8.838-6.931,14.32-8.142c0.468-0.104,0.347-0.811-0.13-0.734
					c-3.972,0.637-14.156,6.213-11.121,11.718c1.06,1.923,4.43,0.546,5.754-0.107c3.909-1.93,4.772-7.883,6.737-11.279
					c0.238-0.412-0.362-0.843-0.611-0.428c-3.074,5.124-2.495,11.104,4.869,10.543c5.151-0.393,9.714-3.829,13.988-6.47
					c2.631-1.626,5.238-3.288,7.908-4.85c1.377-0.806-0.465,5.255-0.191,4.32c-0.553,1.894-1.76,3.485-3.428,4.552
					c-1.588,1.015-3.574,0.631-5.219,0.088c0.75,0.248-4.901-2.016-2.514-2.362c2.928-0.426,5.885-0.579,8.84-0.631
					c3.129-0.055,6.033-0.29,9.033-1.253c4.244-1.361,7.979-3.327,11.867-5.443c-0.715,0.39-2.355,2.216-3.359,3.886
					c-0.402,0.67-1.193,2.186-0.965,3.086c1.775,7.026,14.873-6.351,16.311-7.574c0.717-0.61-0.984,0.446-1.346,0.898
					c-0.473,0.59-0.873,1.224-1.26,1.871c-0.387,0.648-0.627,1.334-0.76,2.071c-0.189,1.042,0.492,1.797,1.352,2.224
					c3.936,1.958,10.961-1.23,14.672-2.506c5.629-1.934,11.607-4.242,16.498-7.702c0.393-0.277-0.092-0.845-0.482-0.568
					c-5.754,4.068-13,6.631-19.678,8.688c-2.922,0.899-6.039,1.738-9.117,1.69c-5.361-0.083-0.191-5.933,1.342-7.63
					c0.297-0.327-0.227-0.745-0.547-0.498c-3.01,2.324-5.582,5.122-8.5,7.552c-1.146,0.954-9.08,5.01-7.363-0.217
					c0.762-2.324,2.853-4.428,4.596-6.017c0.305-0.276-0.016-0.825-0.4-0.621c-5.186,2.743-10.115,5.583-15.924,6.887
					c-5.342,1.198-11.281,0.541-16.731,1.333c-0.351,0.051-0.379,0.475-0.149,0.673c7.939,6.849,14.308,1.609,14.836-7.77
					c0.016-0.266-0.271-0.518-0.531-0.372c-5.875,3.291-11.386,7.182-17.369,10.284c-3.242,1.682-7.88,2.781-10.866-0.097
					c-1.214-1.171-0.715-5.811,0.062-7.154c-0.566,0.979-0.962,2.074-1.385,3.118c-1.404,3.461-2.649,6.627-6.598,7.818
					c-5.863,1.769-1.016-5.959,0.226-7.235c0.985-1.014,2.212-1.786,3.429-2.477c0.867-0.492,5.054-2.438,1.891-1.45
					c-2.044,0.639-4.003,1.817-5.776,2.994c-5.019,3.331-9.878,8.182-15.883,9.571c-3.498,0.811,0.336-5.73,0.739-6.633
					c0.442-0.993,0.53-1.936,0.04-2.901c-1.001-1.972-6.096,0.124-7.469,0.773c-3.969,1.88-5.801,6.801-7.232,10.595
					c-0.17,0.452,0.521,0.704,0.7,0.26c0.485-1.206,6.734-11.987,3.935-12.251c-2.671-0.252-5.792,1.636-7.951,2.941
					c-4.3,2.602-8.554,4.149-13.565,4.896C53.534,203.036,53.665,203.771,54.14,203.7L54.14,203.7z"/>
			</g>
		</g>
	</g>
</g>
<g id="ca3">
	<g>
		<g>
			<path style="fill:#500054;" d="M162.622,70.819c0,0-22.46,14.438-45.32,22.059c-22.86,7.619-52.538,10.829-63.767,15.64
				c-11.23,4.814-27.273,19.252-24.464,33.288c2.806,14.038,30.48,37.701,69.784,25.669c39.302-12.032,88.633-40.506,103.071-62.967
				l7.218-33.688l-25.266-7.621L162.622,70.819z"/>
			<g>
				<path style="fill:none;" d="M162.622,70.819c0,0-22.46,14.438-45.32,22.059c-22.86,7.619-52.538,10.829-63.767,15.64
					c-11.23,4.814-27.273,19.252-24.464,33.288c2.806,14.038,30.48,37.701,69.784,25.669
					c39.302-12.032,88.633-40.506,103.071-62.967l7.218-33.688l-25.266-7.621L162.622,70.819z"/>
				<path style="fill:#500054;" d="M162.461,70.48c-18.722,11.987-39.257,21.122-60.839,26.434
					c-12.343,3.038-24.898,5.099-37.276,7.976c-9.191,2.136-16.925,5.637-24.075,11.929c-7.082,6.231-13.136,15.248-11.568,25.052
					c0.937,5.863,5.715,11.373,9.993,15.136c16.59,14.593,39.583,16.912,60.225,10.837c16.871-4.965,33.141-12.381,48.636-20.623
					c14.995-7.976,29.626-17.221,42.307-28.576c4.627-4.143,8.947-8.725,12.371-13.922c1.204-1.828,1.247-5.691,1.695-7.785
					c1.862-8.694,3.726-17.388,5.588-26.083c0.033-0.155-0.097-0.343-0.243-0.387c-8.36-2.522-16.722-5.044-25.082-7.566
					c-1.948-0.587-6.517,2.124-8.318,2.77C171.403,67.275,166.932,68.877,162.461,70.48c-0.454,0.163-0.13,0.839,0.322,0.678
					c5.858-2.1,11.718-4.201,17.577-6.301c1.512-0.542,3.076-1.4,4.096-1.093c3.035,0.915,6.069,1.831,9.104,2.746
					c3.591,1.083,7.182,2.166,10.772,3.249c1.198,0.361,2.398,0.723,3.596,1.084c1.099,0.331,0.825,0.019,0.773,0.264
					c-1.318,6.153-2.637,12.307-3.955,18.461c-1.066,4.971-1.256,12.048-4.191,16.301c-5.871,8.506-14.314,15.302-22.521,21.428
					c-20.941,15.636-45.042,27.712-69.568,36.586c-22.195,8.03-46.214,9.872-66.124-4.84c-5.662-4.184-11.322-10.229-12.902-17.303
					c-2.799-12.531,9.466-24.066,18.902-30.068c7.948-5.054,17.768-6.497,26.835-8.351c12.09-2.473,24.209-4.803,36.089-8.183
					c18.126-5.157,35.662-13.829,51.518-23.981C163.185,70.901,162.868,70.219,162.461,70.48z"/>
			</g>
		</g>
		<g>
			<path style="fill:#8EC43E;" d="M185.813,58.057c0,0-7.419,2.207-9.825,3.81c-2.408,1.604-11.633,10.428-20.455,2.808
				c0,0,0.199,1.805,1.804,3.409c1.604,1.604,5.215,2.808,9.025,1.805c3.811-1.003,8.622-0.602,9.223-0.002
				c0,0-0.399,4.012-3.809,7.422c-3.409,3.408-15.242,14.437-4.211,31.482c0,0-4.212-13.436,7.619-19.251
				c0,0,6.017-2.407,14.839,0.801c0,0,6.816-0.4,11.633-4.811c0,0-7.22,7.62-8.023,11.23c-0.802,3.608-6.602,22.14-3.914,23.934
				c0,0,17.266-19.057,23.164-27.945c5.905-8.894,1.203-18.048,3.811-23.061c2.605-5.012,5.614-6.817,5.614-10.427
				c0-3.609-5.614-5.615-7.82-5.815c-2.207-0.2-5.614,4.012-8.421,3.611C203.258,56.653,188.22,57.654,185.813,58.057z"/>
			<g>
				<path style="fill:none;" d="M185.813,58.057c0,0-7.419,2.207-9.825,3.81c-2.408,1.604-11.633,10.428-20.455,2.808
					c0,0,0.199,1.805,1.804,3.409c1.604,1.604,5.215,2.808,9.025,1.805c3.811-1.003,8.622-0.602,9.223-0.002
					c0,0-0.399,4.012-3.809,7.422c-3.409,3.408-15.242,14.437-4.211,31.482c0,0-4.212-13.436,7.619-19.251
					c0,0,6.017-2.407,14.839,0.801c0,0,6.816-0.4,11.633-4.811c0,0-7.22,7.62-8.023,11.23c-0.802,3.608-6.602,22.14-3.914,23.934
					c0,0,17.266-19.057,23.164-27.945c5.905-8.894,1.203-18.048,3.811-23.061c2.605-5.012,5.614-6.817,5.614-10.427
					c0-3.609-5.614-5.615-7.82-5.815c-2.207-0.2-5.614,4.012-8.421,3.611C203.258,56.653,188.22,57.654,185.813,58.057z"/>
				<path style="fill:#8EC43E;" d="M185.748,57.688c-3.287,0.989-7.178,1.89-10.002,3.893c-6.348,4.5-12.692,8.423-19.998,2.787
					c-0.263-0.203-0.642,0.061-0.584,0.372c0.777,4.251,5.601,6.569,9.647,5.818c2.054-0.381,10.903-2.535,10.116,0.648
					c-0.832,3.359-3.24,5.559-5.489,7.966c-8.234,8.812-8.395,19.688-2.212,29.78c0.202,0.33,0.84,0.211,0.708-0.226
					c-2.16-7.184,0.447-17.077,8.538-19.179c2.32-0.603,4.749-0.549,7.117-0.354c2.319,0.191,4.688,1.696,6.95,1.475
					c1.409-0.138,2.858-0.448,4.197-0.9c1.223-0.414,2.369-0.884,3.534-1.442c1.743-0.835,1.863-1.722,3.061-2.996
					c-2.331,2.48-4.512,5.114-6.413,7.937c-1.768,2.624-2.276,5.827-3.089,8.833c-1.104,4.081-2.148,8.185-2.842,12.358
					c-0.288,1.732-1.041,5.035,0.445,6.478c0.189,0.183,0.421,0.163,0.594-0.028c5.781-6.389,11.436-12.906,16.867-19.595
					c3.299-4.062,6.791-8.164,8.575-13.144c2.586-7.221-1.093-14.406,3.291-21.189c1.556-2.407,5.67-6.545,3.331-9.772
					c-1.486-2.052-5.789-5.108-8.542-4.019c-2.623,1.037-4.872,3.757-7.881,3.447c-1.966-0.202-4.023-0.03-5.99,0.054
					C195.051,56.889,190.338,57.021,185.748,57.688c-0.479,0.069-0.347,0.808,0.131,0.738c5.531-0.804,11.265-0.962,16.843-1.082
					c1.808-0.038,3.605,0.281,5.352-0.237c3.678-1.091,5.203-4.08,9.609-2.386c7.377,2.837,2.276,9.024-0.417,13.192
					c-1.726,2.671-1.866,5.282-1.762,8.401c0.197,5.901,0.208,10.954-2.928,16.22c-1.564,2.627-3.648,5.032-5.547,7.419
					c-4.148,5.215-8.523,10.253-12.922,15.257c-1.294,1.471-2.596,2.934-3.904,4.392c-1.578,1.76-0.816-2.004-0.705-3.276
					c0.508-5.846,2.403-11.627,3.933-17.269c1.429-5.275,4.761-9.295,8.468-13.239c0.323-0.344-0.104-0.889-0.484-0.572
					c-4.543,3.769-9.138,5.19-14.632,3.743c-3.522-0.928-7.438-0.956-10.967-0.04c-6.271,1.628-9.282,8.68-9.351,14.543
					c-0.015,1.208,0.137,2.419,0.329,3.608c0.311,1.911,1.25,1.761,0.143-0.047c-3.541-5.78-4.561-12.574-2.329-18.984
					c2.398-6.884,10.375-10.794,11.351-18.144c0.024-0.181-0.096-0.311-0.243-0.387c-4.536-2.347-10.505,1.016-15.222-0.104
					c-0.712-0.333-1.425-0.665-2.137-0.997c-2.596-3.9-3.167-4.71-1.713-2.43c0.828,0.639,1.789,1.005,2.732,1.421
					c1.663,0.733,3.555,0.711,5.324,0.591c3.702-0.251,7.13-2.591,10.012-4.734c3.302-2.457,7.256-3.679,11.167-4.855
					C186.336,58.289,186.211,57.548,185.748,57.688z"/>
			</g>
		</g>
	</g>
</g>
</svg>
