<?xml version="1.0" encoding="iso-8859-1"?>
<!-- Generator: Adobe Illustrator 18.1.1, SVG Export Plug-In . SVG Version: 6.00 Build 0)  -->
<svg version="1.1" xmlns="http://www.w3.org/2000/svg" xmlns:xlink="http://www.w3.org/1999/xlink" x="0px" y="0px"
	 viewBox="0 0 250 250" style="enable-background:new 0 0 250 250;" xml:space="preserve">
<g id="ca1">
	<rect style="fill:#FFFFFF;" width="250" height="250"/>
</g>
<g id="ca2">
	<g>
		<g>
			<path style="fill:none;" d="M48.664,207.369c12.385-0.302,32.926-2.719,38.967-16.615c0.604,10.875,0,12.084-10.875,12.084
				c-0.604,0-0.604,0,0,0c12.687,4.229,29.991-3.589,36.853-13.896c-2.772,5.133-11.781,10.573-5.739,12.084
				c6.646,0,27.187-10.271,29.904-15.105c1.209,3.625,1.209,14.198-13.643,9.834c11.529,6.78,28.747-10.136,40.883-12.001
				c-4.833-1.209-15.817,6.861-10.323,10.928c4.904,3.63,13.895-8.156,11.479-11.479c-8.458,2.706,1.208,7.551,6.646,6.645
				c9.241-1.539,17.219-2.416,29-10.874"/>
			<path style="fill:#4C5635;" d="M48.628,207.74c10.308-0.294,22.093-1.382,30.902-7.292c1.979-1.328,3.722-2.808,5.32-4.569
				c2.407-2.656,2.528-6.226,2.569-0.489c0.05,7.143-5.227,7.077-11.08,7.077c-0.478,0-0.551,0.742-0.07,0.742
				c2.673,0,5.469,1.12,8.229,1.171c2.786,0.052,5.565-0.474,8.259-1.125c5.917-1.43,11.404-4.513,16.045-8.393
				c0.996-0.834,1.89-1.777,2.777-2.723c0.304-0.332,0.598-0.673,0.882-1.022c0.95-0.551,1.035-1.026,0.256-1.425
				c-1.467,2.408-3.735,4.322-5.587,6.436c-1.886,2.15-2.426,4.211,0.612,5.247c2.483,0.848,7.445-1.69,9.688-2.568
				c5.067-1.983,10.087-4.496,14.632-7.493c1.725-1.136,3.396-2.317,4.884-3.755c0.526-0.509,0.724-0.703,0.587-1.159
				c0.246,0.821,0.316,1.709,0.348,2.559c0.299,7.97-7.879,7.985-13.618,6.447c-0.378-0.102-0.744,0.444-0.343,0.655
				c13.556,7.137,28.332-9.573,41.161-11.939c0.427-0.078,0.381-0.677-0.029-0.738c-5.062-0.77-17.476,7.556-9.911,11.992
				c4.995,2.93,13.765-7.768,11.368-12.332c-0.1-0.191-0.301-0.252-0.497-0.177c-8.409,3.2,1.296,7.421,5.771,7.455
				c10.613,0.079,21.833-5.16,30.275-11.064c0.395-0.275-0.091-0.843-0.482-0.568c-6.641,4.643-13.504,7.853-21.441,9.512
				c-3.007,0.629-6.263,1.392-9.341,1.369c-2.059-0.016-4.136-0.772-5.919-1.747c-3.461-1.893,2.156-5.925,1.064-1.628
				c-0.671,2.642-2.814,5.057-4.781,6.812c-1.679,1.498-4.033,2.669-6.251,1.368c-3.556-2.086,0.23-5.871,1.705-7.187
				c1.018-0.907,2.234-1.562,3.443-2.172c0.845-0.399,1.726-0.694,2.644-0.885c1.499,0.34,1.918,0.152,1.258-0.562
				c-2.636,0.485-5.166,1.658-7.576,2.775c-5.907,2.737-11.418,6.229-17.46,8.689c-3.134,1.277-6.401,2.05-9.793,1.895
				c-1.018-0.047-3.06-0.3-3.494-0.392c1.703,0.362,3.336,0.601,5.078,0.622c6.279,0.078,9.079-5.816,7.432-11.304
				c-0.086-0.287-0.478-0.451-0.673-0.149c-3.632,5.626-12.363,8.944-18.228,11.535c-3.25,1.436-6.648,2.742-10.166,3.318
				c-5.491,0.898,0.502-6.031,0.999-6.562c1.421-1.518,2.756-3.062,3.841-4.844c0.248-0.407-0.332-0.825-0.611-0.428
				c-4.147,5.894-10.13,9.878-16.754,12.533c-3.811,1.527-7.893,2.259-11.982,2.377c-2.831,0.081-5.507-1.171-8.229-1.171
				c-0.478,0-0.551,0.742-0.07,0.742c3.283,0,7.916,0.494,10.472-2.051c2.387-2.378,1.413-7.528,1.258-10.469
				c-0.021-0.409-0.578-0.36-0.717-0.066c-6.551,13.88-24.991,15.985-38.582,16.374C48.224,207.012,48.149,207.754,48.628,207.74
				L48.628,207.74z"/>
		</g>
	</g>
	<g>
		<g>
			<path style="fill:none;" d="M115.422,185.921c1.208-0.302,2.114-1.208,2.719-2.416"/>
			<path style="fill:#4C5635;" d="M115.487,186.288c1.404-0.384,2.351-1.39,3.004-2.653c0.221-0.428-0.482-0.681-0.7-0.26
				c-0.519,1.007-1.312,1.872-2.434,2.179C114.897,185.68,115.022,186.415,115.487,186.288L115.487,186.288z"/>
		</g>
	</g>
</g>
<g id="ca3">
	<path style="fill:#00A04E;" d="M176.725,41.926c-1.165,1.632-13.568,13.569-19.239,13.974c0,0-5.062-9.114-6.886-9.315
		c-1.821-0.203,1.621,9.72-2.227,13.164c0,0-5.063-10.733-6.684-9.519c-1.62,1.215,0.811,8.91-2.025,11.34
		c0,0-0.81-9.315-1.822-10.328c-1.013-1.013-7.898,11.948-7.898,11.948s-0.608-8.708-1.014-9.923
		c-0.404-1.215-6.278,6.278-7.088,7.493c0,0-2.024-7.696-3.239-8.506c-1.216-0.809-5.671,10.126-5.671,10.126
		s-3.848-6.278-4.86-6.075c-1.013,0.203-2.633,9.113-3.038,9.923c0,0-6.278-8.708-7.088-7.898
		c-0.811,0.81,0.405,11.746,0.405,11.746s-6.885-6.481-7.897-5.468c-1.013,1.013,1.417,7.493,1.214,9.721
		c0,0-5.265-7.292-6.075-6.481c-0.81,0.81,0,9.721,0,9.721s-7.088-2.633-7.898-1.822c-0.81,0.81,4.051,7.29,4.051,8.505
		c0,0-7.089-5.468-7.494-5.063c-0.405,0.405,5.266,10.126,4.658,11.948c0,0-7.493-5.467-8.506-4.455
		c-1.012,1.012,4.86,9.721,5.266,12.555c0,0-7.898-2.227-8.101-1.214c-0.203,1.013,7.088,5.062,9.518,8.708c0,0-6.48-1.215-6.886,0
		c-0.405,1.214,7.695,2.431,8.708,5.063c0,0-6.48-1.215-5.873-0.203c0.607,1.013,6.682,5.063,7.493,6.278
		c0,0-3.848-1.417-3.848-0.202c0.001,1.215,6.278,4.253,7.088,7.088c0,0,7.493,12.354,0.406,21.061c0,0-21.062,17.012-23.695,24.505
		c0,0,1.418,1.821,2.43,1.215c0,0,5.873-11.139,22.074-23.694c0,0,11.948-4.657,21.264-0.203c0,0,2.835,1.216,6.278,1.823
		c0,0,10.328,9.113,11.543,11.543c0,0,2.431-1.619-0.809-5.67c0,0,4.455,2.835,6.076,6.48c0,0,1.215,1.62,1.822,0.203
		c0.607-1.418-1.216-6.482-1.216-6.482s8.101,5.671,8.709,5.064c0.607-0.608-2.835-7.291-2.835-7.291s5.467,2.634,8.303,7.898
		c0,0,2.025,1.621-0.203-7.898c0,0,2.431-2.025,9.317,4.051c0,0,1.821-2.228-1.014-9.113c0,0,10.935-0.405,10.936-3.241
		c0,0-5.468-3.036-7.088-3.036c0,0,10.733-3.039,9.923-5.469c0,0-9.113-0.607-9.923-1.417c0,0,10.328,0.202,12.961,1.214
		c2.633,1.013-4.657-5.468-7.291-6.885c0,0,15.594-1.823,13.163-4.253c-2.43-2.43-10.936-4.456-10.936-4.456
		s14.178-6.48,12.961-7.695c-1.215-1.215-8.91-2.43-8.91-2.43s12.354-4.659,10.733-6.278c-1.62-1.621-10.126-3.24-10.126-3.24
		s12.15-5.67,11.138-6.683c-1.012-1.013-11.139-2.633-11.139-2.633s8.71-8.303,7.899-9.113c-0.811-0.81-7.089,0.203-7.089,0.203
		s8.91-1.62,8.102-2.43c-0.811-0.81-7.695-4.456-8.506-4.86c-0.81-0.406,9.315-4.455,8.304-5.468
		c-1.014-1.013-9.924-2.633-10.127-2.836c-0.201-0.203,8.304-15.998,10.329-19.239c2.025-3.24,6.479-10.531,5.265-11.34
		C181.585,35.852,177.736,40.509,176.725,41.926z"/>
</g>
</svg>
