<?xml version="1.0" encoding="iso-8859-1"?>
<!-- Generator: Adobe Illustrator 18.1.1, SVG Export Plug-In . SVG Version: 6.00 Build 0)  -->
<svg version="1.1" xmlns="http://www.w3.org/2000/svg" xmlns:xlink="http://www.w3.org/1999/xlink" x="0px" y="0px"
	 viewBox="0 0 250 250" style="enable-background:new 0 0 250 250;" xml:space="preserve">
<g id="ca1">
	<rect style="fill:#FFFFFF;" width="250" height="250"/>
</g>
<g id="ca2">
	<g>
		<path style="fill:#FACD89;stroke:#FACD89;stroke-width:0.25;" d="M44.706,104.072c0.739-0.739,25.399-22.438,30.084-27.123
			c4.686-4.687,28.606-32.059,31.811-37.732c3.205-5.67,10.11-15.532,14.302-16.273c4.191-0.741,17.754,20.22,22.932,26.877
			c5.179,6.659,21.454,30.331,22.687,31.564c1.234,1.234,43.154,30.331,46.362,33.539c3.206,3.206,13.808,11.343,12.823,15.783
			c-0.988,4.437-38.716,27.862-49.567,39.207c-10.851,11.343-19.974,24.906-24.412,31.318c-4.439,6.412-13.81,22.688-17.262,23.675
			c-3.454,0.983-40.687-34.278-49.072-42.17c-8.385-7.891-42.661-39.702-46.36-42.907c-3.7-3.206-16.275-14.795-12.823-18.741
			C29.665,117.143,44.706,104.072,44.706,104.072z"/>
		<path style="fill:#FFFCD1;stroke:#FFFCD1;stroke-width:0.25;" d="M29.911,124.293c0,0-1.479-1.972,0.986-4.437
			c2.466-2.467,38.223-34.771,43.894-40.441c5.672-5.672,33.785-40.196,36.989-44.388c3.205-4.192,8.63-13.069,13.315-6.412
			c4.685,6.659,35.758,48.086,40.196,53.018c4.438,4.933,51.887,35.595,55.976,42.661c2.714,4.686,3.7,6.164-1.477,10.356
			c-5.181,4.193-36.004,24.168-46.607,34.771s-27.867,38.223-30.824,43.155c-2.96,4.929-7.151,9.615-10.85,7.892
			c-3.7-1.729-47.101-43.156-57.211-51.787C64.188,160.049,30.652,127.006,29.911,124.293z"/>
	</g>
</g>
<g id="ca3">
	<g>
		<g>
			<path style="fill:none;" d="M70.457,195.5c7.666-3,15.833-5.499,24.96-6.12c7.54,0.621-9.92,15.037-16.46,24.453
				c8-8.333,11.233-13.676,17-20.166c4-4.501,5-5.166,9.5-3.499c1.166,6.332-6.51,9.5-12.333,9.5c13-0.5,20.166-9.835,31.999-11.501
				c-9,2.333-12.666,8.999-8,9.666c3.827,0.547,6.167-3.333,9.168-10c-5.168,18.167,11.833,0.667,16.166-1
				c4.333-1.667-0.167,4.831-1.333,8.833c1.166-3.668,5.166-10,10.333-9.833c5.294,0.171-3.333,8.5,2,8.501
				c9.667-0.667,19.167-5.167,27.333-11.001"/>
			<path style="fill:#4C5635;" d="M70.617,195.837c5.24-2.018,10.546-3.72,16.041-4.893c0.865-0.185,10.954-2.23,10.047,0.792
				c-0.428,1.426-1.597,2.748-2.488,3.902c-4.85,6.283-10.93,11.514-15.565,17.981c-0.241,0.337,0.251,0.812,0.547,0.498
				c5.764-6.083,10.698-12.8,16.126-19.164c1.647-1.932,3.456-4.483,6.061-5.202c2.738-0.513,3.886,0.723,3.446,3.707
				c-0.604,2.152-2.861,3.434-4.675,4.353c-0.775,0.393-7.917,2.425-3.955,1.943c1.911-0.231,3.758-0.811,5.579-1.407
				c3.813-1.25,7.344-3.343,10.871-5.219c1.96-1.043,3.955-1.99,6.008-2.836c1.23-0.487,2.488-0.894,3.773-1.219
				c3.143-0.866,0.596-0.638,0.999-0.789c-2.778,1.043-10.511,4.584-8.353,8.853c2.104,4.162,7.566-1.723,8.658-3.412
				c0.844-1.306,1.494-2.762,2.166-4.154c-0.189-0.56-0.305-0.696-0.346-0.411c-0.245,1.086-0.446,2.145-0.573,3.25
				c-0.118,1.03-0.119,3.004,0.984,3.601c2.731,1.477,6.435-1.715,8.525-3.178c2.006-1.404,3.921-2.933,5.916-4.352
				c1.623-1.154,3.819-1.255,2.679,1.524c-0.762,1.857-1.669,3.626-2.313,5.531c-0.154,0.456,0.537,0.713,0.699,0.26
				c1.043-2.912,2.634-5.378,4.876-7.508c0.511-0.485,6.437-4.129,6.523-0.812c0.02,0.792-0.494,1.807-0.779,2.542
				c-0.455,1.171-1.551,3.354-0.148,4.336c2.568,1.798,9.25-0.833,11.795-1.711c6.231-2.15,11.899-5.262,17.292-9.025
				c0.395-0.274-0.091-0.842-0.482-0.568c-6.772,4.726-13.961,8.406-22.061,10.221c-0.91,0.203-6.408,1.413-6.47-0.476
				c-0.026-0.779,0.492-1.794,0.773-2.518c0.389-0.998,1.002-2.25,0.806-3.366c-0.358-2.032-3.202-1.415-4.501-1.094
				c-3.575,0.885-6.065,4.85-7.589,7.871c-0.854,1.691,0.304,1.102,0.77-0.052c0.461-1.139,1.009-2.249,1.51-3.371
				c0.489-1.099,0.943-2.175,0.82-3.382c-0.163-1.599-2.984-0.066-3.558,0.278c-2.717,1.638-5.148,3.777-7.745,5.595
				c-1.425,0.997-2.903,1.9-4.513,2.562c-4.792,1.974-2.642-5.52-2.152-7.355c0.123-0.465-0.498-0.7-0.7-0.26
				c-1.649,3.596-4.144,10.876-9.425,9.603c-3.325-0.802,1.066-4.87,1.445-5.219c1.978-1.823,4.707-2.805,7.228-3.553
				c0.45-0.133,0.356-0.816-0.13-0.734c-11.468,1.933-20.164,10.718-31.999,11.501c-0.418,0.027-0.389,0.754,0.03,0.738
				c5.928-0.211,13.424-2.829,12.735-9.936c-0.012-0.126-0.122-0.246-0.238-0.285c-2.663-0.913-4.566-1.225-6.905,0.509
				c-3.556,2.634-6.325,6.981-9.037,10.421c-1.424,1.805-2.853,3.604-4.311,5.382c-0.99,1.205-2.017,2.38-3.045,3.553
				c0.991-1.13-4.117,5.763-1.766,2.654c2.993-3.955,6.537-7.487,9.866-11.152c1.623-1.787,9.347-8.523,6.75-11.572
				c-1.629-1.914-7.034-0.032-8.891,0.271c-6.164,1.007-12.14,3.042-17.95,5.279C69.848,195.336,70.17,196.009,70.617,195.837
				L70.617,195.837z"/>
		</g>
	</g>
</g>
</svg>
