<?xml version="1.0" encoding="iso-8859-1"?>
<!-- Generator: Adobe Illustrator 18.1.1, SVG Export Plug-In . SVG Version: 6.00 Build 0)  -->
<svg version="1.1" xmlns="http://www.w3.org/2000/svg" xmlns:xlink="http://www.w3.org/1999/xlink" x="0px" y="0px"
	 viewBox="0 0 250 250" style="enable-background:new 0 0 250 250;" xml:space="preserve">
<g id="ca1">
	<rect style="fill:#FFFFFF;" width="250" height="250"/>
</g>
<g id="ca2">
	<g>
		<g>
			<g>
				<path style="fill:none;" d="M54.989,214.259c10.191-3.882,27.176-12.617,34.94-20.382c-3.882,2.911,0.485,8.25-1.941,11.162
					c-2.427,2.911-9.706,1.94-11.162-0.485c6.309,0,15.043,0.971,21.353-1.456c7.279-2.911,8.735-8.979,17.712-10.919
					c-5.823,0.484-12.132,10.434-7.521,10.434c5.581-0.242,6.794-5.339,8.735-10.677c-1.456,4.125-5.095,10.435-1.456,9.706
					c10.191-1.94,32.513-14.316,28.632-23.536c-8.25,0.729-11.648,20.625-4.854,20.625c4.367-1.457,4.854-5.824,1.213-8.493
					c6.795,2.911,24.992,0.242,32.029-3.396c-9.705,3.882-11.646,10.433-6.551,9.705c5.338-1.456,7.764-3.397,8.734-9.705
					c-2.426,4.853-2.52,8.625,2.426,8.491c8.979-0.242,14.803-6.308,19.896-10.676"/>
				<path style="fill:#4C5635;" d="M55.149,214.596c8.456-3.284,16.583-7.44,24.276-12.242c3.159-1.972,6.182-4.154,9.013-6.573
					c1.509-1.289,0.15-1.864-0.249-0.233c-0.295,1.204-0.324,2.179-0.221,3.413c0.267,3.206,0.139,6.664-3.694,7.419
					c-1.46,0.174-2.899,0.065-4.317-0.324c-1.062-0.244-3.207-1.149-0.328-1.083c4.788,0.11,9.515,0.289,14.272-0.372
					c9.001-1.25,13.465-9.869,22.055-12.054c0.461-0.117,0.35-0.815-0.13-0.734c-2.678,0.454-12.084,6.47-9.189,10.303
					c1.283,1.699,3.795,0.614,5.339-0.185c3.266-1.69,4.38-6.783,5.478-9.864c0.162-0.454-0.53-0.709-0.7-0.26
					c-0.586,1.549-5.103,9.086-2.055,10.217c3.122,1.159,10.271-3.133,12.845-4.403c6.271-3.094,20.178-10.702,17.072-19.674
					c-0.053-0.156-0.25-0.231-0.4-0.207c-9.643,1.544-11.227,24.203-3.436,20.81c2.307-1.004,2.918-3.443,2.396-5.64
					c-0.299-1.252-1.018-1.699-1.896-2.03c1.588,0.6,3.369,0.734,5.041,0.879c8.578,0.74,18.734-0.809,26.508-4.579
					c0.434-0.21,0.121-0.865-0.32-0.674c-1.914,0.829-13.199,6.722-8.562,10.15c1.879,1.391,5.787-0.922,7.281-1.888
					c2.66-1.718,3.469-4.985,3.996-7.891c0.08-0.442-0.555-0.524-0.721-0.165c-1.639,3.525-3.076,9.376,2.84,8.988
					c8.346-0.547,14.021-5.508,20.074-10.759c0.363-0.314-0.119-0.885-0.482-0.568c-5.486,4.759-10.686,9.419-18.168,10.491
					c-7.062,1.012-5.16-4.024-4.166-6.599c-0.703,1.823-1.688,3.865-3.051,5.289c-0.898,0.938-2.162,1.446-3.33,1.935
					c-1.812,1.269-3.25,0.841-4.312-1.282c0.42-1.027,1.039-1.919,1.859-2.678c1.135-1.221,2.711-2.15,4.113-2.972
					c2.029-1.188,2.385-1.843,0.01-0.922c-3.002,1.163-6.221,1.814-9.379,2.398c-6.197,1.146-13.689,2.138-19.74-0.146
					c-0.424-0.16-0.648,0.39-0.344,0.655c6.277,5.49-1.293,9.569-3.391,6.289c-0.48-0.753-0.615-1.697-0.76-2.561
					c-0.424-2.544,0.168-5.32,0.881-7.742c0.594-2.015,1.6-3.88,2.885-5.531c0.916-1.178,2.154-1.975,3.566-2.407
					c1.41-0.432,0.232,4.231,0.102,4.576c-1.928,5.035-7.852,8.751-12.201,11.419c-4.418,2.709-9.271,4.92-14.267,6.31
					c-4.749,1.32-1.525-4.559-0.742-6.419c0.875-2.078-0.167-1.492-0.68-0.043c-0.802,2.268-1.708,4.419-3.379,6.205
					c-1.477,1.577-6.062,1.97-4.818-1.27c0.571-1.486,1.863-2.88,2.946-3.985c1.648-1.684,6.378-4.436,1.038-2.169
					c-4.735,2.009-7.847,6.58-12.362,9.001c-6.533,3.503-15.27,2.034-22.384,1.967c-0.318-0.004-0.543,0.345-0.32,0.612
					c1.947,2.335,6.225,3.066,9.043,2.074c6.73-2.368,0.331-8.527,4.585-12.708c0.34-0.334-0.135-0.904-0.482-0.568
					c-9.541,9.209-22.598,15.566-34.859,20.329C54.38,214.096,54.703,214.77,55.149,214.596L55.149,214.596z"/>
			</g>
		</g>
	</g>
</g>
<g id="ca3">
	<g>
		<g>
			<path style="fill:#F0E3E9;" d="M197.18,61.566c0,0,0.69-1.213-1.224-4.343c-2.327-3.806-10.089-6.149-14.238-7.552
				c-14.886-5.036-50.492-2.69-50.492-2.69c4.472,4.472-0.521,5.558-0.521,5.558c-1.406,8.159-22.332,6.75-28.721,6.75
				c-6.389,0-7.028-6.622-7.028-6.622c-11.982-1.59-31.44,7.06-40.752,12.117c-3.005,1.632-1.415,4.449-1.415,4.449
				s26.834,13.333,48.556,13.333C123.068,82.566,173.86,84.885,197.18,61.566z"/>
			<g>
				<path style="fill:none;" d="M197.18,61.566c0,0,0.69-1.213-1.224-4.343c-2.327-3.806-10.089-6.149-14.238-7.552
					c-14.886-5.036-50.492-2.69-50.492-2.69c4.472,4.472-0.521,5.558-0.521,5.558c-1.406,8.159-22.332,6.75-28.721,6.75
					c-6.389,0-7.028-6.622-7.028-6.622c-11.982-1.59-31.44,7.06-40.752,12.117c-3.005,1.632-1.415,4.449-1.415,4.449
					s26.834,13.333,48.556,13.333C123.068,82.566,173.86,84.885,197.18,61.566z"/>
				<path style="fill:#F0E3E9;" d="M197.531,61.696c2.048-5.053-6.607-8.997-9.808-10.312c-6.69-2.748-13.57-4.041-20.745-4.686
					c-11.854-1.066-23.945-0.858-35.818-0.088c-0.29,0.019-0.394,0.415-0.221,0.612c2.638,3.013,1.542,4.479-0.3,4.946
					c-0.119,0.03-0.254,0.108-0.286,0.239c-1.746,6.983-14.322,6.513-19.79,6.593c-5.669,0.083-14.325,1.163-15.237-6.399
					c-0.02-0.166-0.174-0.292-0.334-0.309c-9.264-0.967-18.631,2.319-27.121,5.676c-4.416,1.746-8.721,3.786-12.925,5.991
					c-1.861,0.977-3.623,2.518-2.74,4.837c0.356,0.935,0.9,1.007,1.809,1.435c3.11,1.462,6.285,2.783,9.48,4.045
					c9.781,3.865,19.979,6.876,30.429,8.205c8.114,1.032,16.63,0.566,24.799,0.502c9.148-0.072,18.293-0.494,27.39-1.49
					c18.107-1.981,37.85-6.539,51.31-19.642c0.345-0.335-0.137-0.911-0.484-0.572c-15.896,15.474-40.099,18.963-61.301,20.381
					c-21.304,1.425-42.873,1.646-63.349-5.007c-4.549-1.478-9.017-3.213-13.42-5.078c-1.116-0.473-5.374-1.763-5.819-2.666
					C49.801,62.33,84.033,53.63,87.609,53.13c0.642-0.089,6.918-0.758,7.032-0.031c0.169,1.075,0.6,2.081,1.095,3.04
					c1.506,2.919,4.498,3.496,7.484,3.536c7.619,0.103,15.805,0.632,23.058-2.125c2.059-0.783,3.753-2.142,4.604-4.185
					c0.395-0.945,2.489-1.195,2.535-2.702c0.031-1.037-0.195-1.969-0.91-2.786c-0.8-0.913-1.65-0.504,0.024-0.599
					c3.141-0.178,6.284-0.288,9.429-0.37c9.114-0.238,18.269-0.138,27.346,0.767c4.525,0.451,8.982,1.244,13.299,2.689
					c2.516,0.843,4.993,1.735,7.415,2.826c2.49,1.121,8.247,4.695,6.808,8.247C196.645,61.885,197.351,62.143,197.531,61.696z"/>
			</g>
		</g>
		<g>
			<path style="fill:#C2C6C8;" d="M52.789,69.232c0,0,26.834,13.333,48.556,13.333c21.723,0,72.515,2.319,95.834-21
				c0,0,3.503,60.846,7.897,69.71c2.81,5.669-39.202,21.652-75.619,23.569c-20.497,0.126-81.779-7.028-82.418-23.64
				C47.039,131.205,56.623,78.816,52.789,69.232z"/>
			<g>
				<path style="fill:none;" d="M52.789,69.232c0,0,26.834,13.333,48.556,13.333c21.723,0,72.515,2.319,95.834-21
					c0,0,3.503,60.846,7.897,69.71c2.81,5.669-39.202,21.652-75.619,23.569c-20.497,0.126-81.779-7.028-82.418-23.64
					C47.039,131.205,56.623,78.816,52.789,69.232z"/>
				<path style="fill:#C2C6C8;" d="M52.659,69.584c16.121,7.962,33.92,13.26,51.946,13.368c19.573,0.118,39.236,0.013,58.439-4.27
					c9.519-2.122,18.817-5.505,27.017-10.841c1.999-1.301,3.858-2.797,5.65-4.367c0.564-0.495,1.062-2.475,1.13-1.323
					c0.111,1.875,0.23,3.748,0.353,5.622c1.041,16.029,2.22,32.09,4.304,48.021c0.664,5.077,1.048,10.929,3.24,15.642
					c1.927,4.142-16.917,10.554-19.148,11.374c-21.556,7.922-45.311,12.778-68.305,11.179c-18.364-1.278-37.527-3.79-54.845-10.267
					c-5.431-2.031-13.977-5.468-14.992-12.066c-0.577-3.756,1.478-9.162,2.07-12.859c1.536-9.581,2.896-19.199,3.825-28.858
					c0.617-6.407,2.052-14.614-0.215-20.868c-0.164-0.454-0.841-0.129-0.678,0.322c2.212,6.1,0.724,14.201,0.146,20.475
					c-0.805,8.746-2.051,17.453-3.395,26.13c-0.773,4.995-1.599,9.982-2.497,14.956c-0.669,3.704,3.614,7.148,6.205,8.919
					c6.216,4.246,13.972,6.374,21.166,8.238c8.951,2.319,18.115,3.83,27.276,5.025c8.139,1.062,16.342,1.806,24.549,2.042
					c11.475,0.33,23.192-1.907,34.357-4.334c13.876-3.017,29.344-6.888,41.454-14.63c1.492-0.954,4.126-2.628,3.828-4.748
					c-0.487-3.463-1.981-7.04-2.553-10.583c-3.156-19.575-4.296-39.602-5.439-59.382c-0.016-0.28-0.421-0.407-0.611-0.221
					c-19.549,19.029-51.294,20.601-77.009,20.945c-12.737,0.17-25.326,0.311-37.789-2.706c-10.009-2.423-19.979-6.074-29.22-10.638
					C52.485,68.666,52.23,69.373,52.659,69.584z"/>
			</g>
		</g>
	</g>
</g>
</svg>
