<?xml version="1.0" encoding="iso-8859-1"?>
<!-- Generator: Adobe Illustrator 18.1.1, SVG Export Plug-In . SVG Version: 6.00 Build 0)  -->
<svg version="1.1" xmlns="http://www.w3.org/2000/svg" xmlns:xlink="http://www.w3.org/1999/xlink" x="0px" y="0px"
	 viewBox="0 0 250 250" style="enable-background:new 0 0 250 250;" xml:space="preserve">
<g id="ca1">
	<rect style="fill:#FFFFFF;" width="250" height="250"/>
</g>
<g id="ca2">
	<g>
		<g>
			<path style="fill:none;" d="M100.891,187.331c0.52-0.519,1.038-1.037,1.384-1.557"/>
			<path style="fill:#475237;" d="M101.132,187.615c0.514-0.513,1.033-1.027,1.448-1.627c0.274-0.395-0.337-0.824-0.611-0.428
				c-0.38,0.548-0.85,1.017-1.319,1.486C100.312,187.384,100.791,187.957,101.132,187.615L101.132,187.615z"/>
		</g>
	</g>
	<g>
		<g>
			<path style="fill:none;" d="M50.59,198.121c2.485-1.158,14.01-5.967,13.056-2.188c-0.603,2.384-2.462,6.631-4.208,8.377
				c4.438-4.439,11.069-10.724,14.183-10.724c2.767,0-0.218,6.84-2.825,9.446c3.055-3.054,9.132-10.483,13.375-10.483
				c3.035,0-4.497,8.648-0.173,8.648c6.168-0.863,9.168-5.863,14.739-11.069c-3.904,4.54-5.329,10.551-2.173,9.686
				c7.956-1.211,17.709-10.74,22.657-20.755c-2.805,6.418-4.843,12.453-7.609,19.025c3.113-4.151,8.302-9.685,11.069-9.685
				c5.068,0-1.007,8.641-5.448,5.794c8.082,8.083,17.324-7.869,24.935-7.869c-4.843,1.58-7.956,9.224-3.113,9.224
				c2.518,0,7.495-7.148,7.841-9.57c0,2.422-3.632,8.052-1.422,8.052c5.881,0,10.606-8.314,17.68-9.781
				c5.881-0.864,1.038,5.881-1.037,7.956c2.051-3.535,4.945-7.338,8.895-8.028c2.226-0.39,5.044-1.071,4.304,1.696
				c-0.499,1.868-4.426,5.332-0.169,4.727c5.233-0.745,17.722-5.329,24.117-8.541"/>
			<path style="fill:#4C5635;" d="M50.75,198.458c2.658-1.21,5.394-2.249,8.204-3.048c1.188-0.338,4.932-1.607,4.011,1.516
				c-0.767,2.6-2.088,5.106-3.833,7.17c-0.273,0.323,0.248,0.796,0.547,0.498c3.096-3.076,6.242-6.095,9.761-8.688
				c1.896-1.398,5.674-2.726,4.433,1.297c-0.645,2.089-1.939,4.001-3.384,5.616c-0.282,0.314,0.252,0.801,0.547,0.498
				c3.568-3.654,7.238-8.783,12.327-10.305c2.094-0.626-0.298,4.16-0.424,4.449c-0.436,1.005-0.816,2.064-0.587,3.159
				c0.463,2.209,4.777,0.089,5.64-0.297c2.069-0.925,3.782-2.666,5.372-4.22c1.098-1.073,2.139-2.212,3.204-3.318
				c2.599-2.697,0.095-0.485-0.736,1.001c-0.464,0.83-2.604,5.377-0.678,6.217c2.947,1.285,7.659-2.069,9.961-3.6
				c5.336-3.548,9.562-8.889,12.872-14.29c0.267-0.472,0.534-0.943,0.8-1.415c0.171-0.268-0.05-0.278-0.664-0.028
				c-0.73,1.702-1.401,3.429-2.08,5.152c-1.594,4.045-3.117,8.114-4.782,12.131c-0.168,0.406,0.405,0.669,0.656,0.344
				c2.005-2.602,4.16-5.039,6.61-7.232c0.218-0.195,6.76-4.436,5.479-0.213c-0.807,2.659-4.176,4.165-6.643,2.99
				c-0.416-0.198-0.632,0.398-0.343,0.655c4.337,3.867,8.766,2.012,13.1-0.925c3.221-2.183,6.085-4.886,9.71-6.413
				c3.234-1.362,0.236-0.186-0.716,0.595c-0.823,0.675-1.654,1.779-2.078,2.732c-1.224,2.748-0.495,6.817,3.389,4.993
				c2.379-1.116,4.217-4.217,5.512-6.333c0.18-0.314,0.353-0.631,0.52-0.95c0.435-0.914,0.268-2.621-0.213-0.764
				c-0.41,1.588-1.177,3.09-1.667,4.657c-1.322,4.221,4.687,1.436,6.118,0.45c4.11-2.831,7.555-6.6,12.524-7.927
				c2.222,1.092,2.642,2.4,1.261,3.924c-0.463,0.823-1.067,1.571-1.648,2.312c0.768-0.978,4-4.267,5.862-5.453
				c3-1.914,6.756-0.203,4.64,3.2c-0.216,0.347-0.595,1.063-0.513,1.524c0.247,1.4,2.388,0.845,3.229,0.704
				c7.98-1.333,16.163-4.899,23.375-8.432c0.432-0.211,0.112-0.886-0.32-0.674c-4.915,2.407-10.032,4.372-15.209,6.138
				c-2.614,0.892-5.27,1.674-7.975,2.233c-3.301,0.682-0.323-3.104-0.233-4.184c0.214-2.561-1.36-2.592-3.597-2.301
				c-4.939,0.643-7.851,4.365-10.278,8.384c-0.206,0.341,0.24,0.824,0.547,0.498c2.112-2.241,7.031-9.026,0.732-8.607
				c-4.044,0.269-7.985,4.363-10.936,6.693c-1.229,0.972-8.041,5.486-6.612,0.925c0.579-1.848,1.506-3.541,1.726-5.486
				c0.047-0.412-0.62-0.581-0.721-0.165c-0.591,2.435-2.22,4.561-3.763,6.482c-0.458,0.486-0.916,0.973-1.374,1.46
				c-1.331,1.541-2.69,0.83-4.08-2.132c0.684-2.355,2.852-4.09,4.999-4.997c0.415-0.175,0.169-0.732-0.225-0.704
				c-6.139,0.442-10.827,6.549-16.054,9.185c-2.666,1.344-5.284,1.203-7.732-0.478c-0.419,0.174-0.509,0.276-0.271,0.305
				c1.065,0.201,0.762,0.171,1.838,0.114c1.731-0.092,3.726-1.811,4.47-3.278c1.797-3.544-1.639-4.66-4.374-2.76
				c-1.844,1.28-3.421,2.78-4.972,4.399c-0.351,0.386-0.701,0.773-1.049,1.162c-0.354,0.393-1.904,3.381-1.261,1.828
				c2.37-5.718,4.431-11.556,6.872-17.245c0.194-0.453-0.485-0.674-0.7-0.26c-3.222,6.222-7.559,11.645-13.039,16.027
				c-2.438,1.95-5.193,3.398-8.185,4.262c-5.013,1.445,0.485-7.724,1.395-8.876c0.262-0.332-0.242-0.792-0.547-0.498
				c-2.596,2.498-4.987,5.199-7.659,7.616c-1.288,1.166-2.78,2.018-4.356,2.723c-5.139,2.295-3.17-1.704-2.53-3.18
				c0.259-0.596,2.469-4.41,0.667-4.747c-4.147-0.776-8.652,4.825-11.068,7.34c-0.789,0.822-1.562,1.66-2.347,2.487
				c0.515,0.697,0.917,0.55,1.204-0.44c0.441-0.643,0.841-1.311,1.199-2.003c0.649-1.164,1.869-3.549,1.474-5.008
				c-0.691-2.551-3.59-0.988-5.098,0.02c-2.779,1.857-5.252,4.064-7.687,6.346c-0.712,0.677-1.418,1.361-2.117,2.052
				c0.3,0.97,0.652,0.792,1.057-0.532c0.824-1.243,1.395-2.693,1.968-4.057c3.522-8.386-9.553-2.142-12.773-0.676
				C49.993,197.983,50.312,198.657,50.75,198.458L50.75,198.458z"/>
		</g>
	</g>
</g>
<g id="ca3">
	<path style="fill:#ED6C00;" d="M135.47,49.898c-4.068-0.108-11.927,2.124-11.927,2.124c-4.753-2.154-12.717-1.848-16.41-1.708
		c0,0-27.212,3.709-40.896,12.238c-11.664,7.27-24.629,27.627-24.811,40.311c-0.154,10.687,2.578,41.266,35.73,53.341
		c33.152,12.074,64.45,12.012,96.801,1.636c28.339-9.089,36.21-30.073,34.524-56.694c-1.685-26.622-24.178-39.105-38.422-45.232
		C161.026,52.029,150.247,50.292,135.47,49.898z"/>
	<path style="fill:#BAD300;" d="M130.011,55.444c-4.288,0.704-7.276,1.612-7.2,3.611c0.077,1.998,5.098,2.474,8.428,2.346
		c3.331-0.128,6.625-1.253,6.548-3.253C137.711,56.15,132.663,55.008,130.011,55.444z"/>
	<path style="fill:none;" d="M147.867,68.771c0,0,0,0-2.1-2.588c0,0-8.147-3.691-14.528-4.782
		c-6.38-1.089-23.033-0.454-23.033-0.454c-9.275,1.688-15.861,3.942-15.861,3.942"/>
	<path style="fill:none;" d="M136.033,55.88c0,0,3.294-2.113,9.225-3.021c5.804-0.889,10.345-0.061,14.213,0.958"/>
	<path style="fill:none;" d="M139.619,62.415c-0.102-2.665,4.51-4.175,6.509-4.251c3.829-0.146,7.384,1.219,7.384,1.219"/>
	<path style="fill:none;" d="M121.697,56.095c0,0-0.253-1.425-2.451-3.075c-2.749-2.063-12.198-0.534-12.198-0.534"/>
</g>
</svg>
