<?xml version="1.0" encoding="iso-8859-1"?>
<!-- Generator: Adobe Illustrator 18.1.1, SVG Export Plug-In . SVG Version: 6.00 Build 0)  -->
<svg version="1.1" xmlns="http://www.w3.org/2000/svg" xmlns:xlink="http://www.w3.org/1999/xlink" x="0px" y="0px"
	 viewBox="0 0 250 250" style="enable-background:new 0 0 250 250;" xml:space="preserve">
<g id="ca1">
	<rect style="fill:#FFFFFF;" width="250" height="250"/>
</g>
<g id="ca2">
	<g>
		<g>
			<path style="fill:none;" d="M37.667,204.666C49,206,59.708,193.327,56.897,186.579c-6.187,1.125-8.064,19.265-6.939,24.326
				c0.562-4.499,0.702-10.371,8.034-10.371c6.272,0,1.125,11.248-5.061,3.374c4.499,9.561,17.881-2.585,27.63-5.1
				c-7.943,0.659-10.577,8.184-3.365,7.267c4.601-0.585,2.078-4.572,4.585-7.079c-1.867,4.265-0.7,9.492,12.472,2.481
				c4.847-2.58,19.475-11.628,14.615-18.376c-8.086,0-12.975,14.961-8.998,18.938c7.568,1.688,6.848-3.095,2.833-5.643
				c6.937,0,12.203-2.906,20.674-4.098c-5.94,1.116-6.549,8.436-3.936,8.436c7.753,0,9.64-8.436,3.936-8.436
				c-2.812,8.998,17.897-2.068,23.219-2.068c-7.102,0-8.627,8.436-3.756,8.436c11.811,0,31.73-20.808,26.383-20.808
				c-5.346,0-10.16,12.597-9.598,18.783c1.125-2.812,0.666-6.846,5.902-7.934c6.252-1.297-2.477,7.194,3.381,6.448
				c4.894-0.624,11.305-7.038,21.621-8.48c-7.131,0.499-9.609,7.222-5.363,7.812c3.656-0.236,4.6-2.477,5.363-7.812
				c-1.17,4.679,0.416,8.047,4.779,7.34c4.482-0.826,14.428-5.149,18.83-9.238"/>
			<path style="fill:#4C5635;" d="M37.632,205.037c8.785,0.626,23.041-8.194,19.602-18.618c-0.047-0.145-0.258-0.248-0.402-0.207
				c-7.72,2.173-8.393,18.56-7.242,24.758c0.078,0.419,0.689,0.389,0.739-0.029c0.355-2.989,0.52-6.094,2.687-8.433
				c1.202-1.297,7.489-3.223,7.438,0.822c-0.062,4.834-5.521,2.285-7.239,0.337c-0.273-0.31-0.83,0.02-0.622,0.401
				c5.503,10.064,21.047-2.88,28.032-4.893c0.454-0.131,0.356-0.801-0.13-0.734c-3.163,0.434-6.473,1.606-7.763,4.786
				c-0.636,1.566,0.75,3.092,2.284,3.217c2.567,0.21,5.169-0.26,5.628-3.152c0.143-0.902,0.725-5.632,0.209-2.643
				c-0.147,0.853-0.292,1.934,0.121,2.751c2.86,5.662,14.008-1.807,17.112-3.73c4.8-2.974,15.281-9.836,11.119-16.729
				c-0.094-0.156-0.22-0.22-0.402-0.207c-7.564,0.534-13.453,12.436-9.69,18.96c0.928,1.608,5.891,1.747,6.663-0.235
				c0.369-0.945,0.306-1.9-0.271-2.775c-0.528-0.803-1.074-1.38-1.78-2.016c0.716,0.645,3.867-0.358,4.693-0.508
				c3.905-0.709,7.699-2.035,11.575-2.892c3.985-0.881,1.037-1.213-0.577,0.776c-1.373,1.692-3.046,5.285-0.668,6.901
				c4.734,3.219,13.026-8.305,4.664-9.019c-0.154-0.014-0.344,0.081-0.385,0.241c-2.278,8.876,16.966,0.108,19.871-0.793
				c0.901-0.279,1.813-0.505,2.74-0.681c0.864,0.019,0.764-0.23-0.302-0.748c-0.743,0.053-1.454,0.378-2.135,0.642
				c-1.597,0.619-3.192,2.478-3.445,4.196c-0.725,4.91,4.063,4.486,7.44,3.503c5.808-1.69,11.056-5.805,15.511-9.741
				c2.555-2.258,7.414-6.177,7.78-9.908c0.277-2.832-4.619,0.313-5.169,0.821c-4.271,3.946-6.33,11.614-6.061,17.246
				c0.018,0.382,0.604,0.395,0.717,0.065c0.619-1.825,0.9-3.685,1.843-5.396c0.222-0.404,6.545-4.423,5.497-0.649
				c-0.164,0.592-0.405,1.17-0.604,1.751c-0.361,1.055-0.631,2.498,0.669,2.98c2.097,0.778,5.115-1.054,6.855-1.948
				c5.369-2.762,10.297-5.45,16.359-6.466c0.477-0.08,0.346-0.797-0.129-0.734c-2.936,0.386-10.556,3.866-6.928,7.887
				c1.138,1.261,3.218,0.482,4.416-0.154c2.332-1.239,2.598-5.1,2.947-7.33c0.076-0.481-0.651-0.533-0.742-0.07
				c-3.075,15.604,19.355,2.651,24.222-1.579c0.362-0.314-0.118-0.885-0.482-0.568c-2.8,2.433-21.353,14.683-23.309,5.9
				c0.803-1.869,0.58-2.617-0.668-2.244c-0.162,1.169-0.465,2.297-0.906,3.383c-2.357,3.628-3.994,3.25-4.913-1.134
				c0.736-1.074,1.697-1.887,2.884-2.438c2.117,0.118,2.744-0.344,1.883-1.384c-1.015,0.198-2.018,0.447-3.008,0.745
				c-1.429,0.393-2.805,0.967-4.171,1.532c-3.017,1.249-5.821,2.976-8.719,4.466c-2.595,1.335-6.649,2.446-5.15-1.758
				c0.853-2.392,0.289-3.606-2.357-3.221c-2.163,0.314-3.717,1.625-4.734,3.474c-0.48,0.871-0.67,1.942-0.91,2.897
				c-0.614,2.441,0.337-1.625,0.408-2.137c0.546-3.883,2.163-7.759,4.312-11.008c0.561-0.81,1.214-1.538,1.962-2.185
				c0.934-1.084,1.98-1.165,3.14-0.241c-0.277,1.049-1.102,2.024-1.74,2.879c-3.361,4.506-8.023,8.244-12.641,11.382
				c-2.793,1.898-5.841,3.467-9.088,4.412c-1.865,0.543-5.69,1.389-5.781-2.227c-0.084-3.33,3.6-4.802,6.27-4.99
				c0.483-0.034,0.342-0.759-0.129-0.734c-5.247,0.273-10.581,3.225-15.566,4.671c-1.097,0.318-2.208,0.562-3.331,0.762
				c-0.646,0.108-1.299,0.159-1.956,0.152c-3.982,0.029-1.04-3.643,0.393-1.398c2.089,3.272-3.377,5.847-5.459,6.242
				c-2.086-0.773-2.731-1.98-1.935-3.622c0.636-2.2,2.679-3.44,4.763-4.004c0.457-0.123,0.353-0.811-0.13-0.734
				c-6.913,1.094-13.536,3.888-20.574,4.094c-0.353,0.01-0.579,0.44-0.249,0.677c0.825,0.589,5.232,4.142,1.089,5.25
				c-2.125,0.568-4.034-0.462-4.567-2.498c-0.7-2.67,0.246-5.771,1.184-8.245c1.146-3.023,3.257-5.759,6.17-7.213
				c5.077-2.534,2.186,5.389,0.821,7.199c-3.234,4.29-8.449,7.426-13.094,9.945c-3.589,1.946-15.441,6.632-11.962-2.015
				c0.164-0.407-0.403-0.67-0.656-0.344c-1.783,2.302-0.825,6.111-4.344,6.926c-3.513-1.646-4.128-3.193-1.844-4.641
				c1.199-0.871,2.53-1.44,3.993-1.707c0.315-0.506,0.336-0.7,0.063-0.584c-0.739,0.236-1.468,0.502-2.186,0.797
				c-6.205,2.4-12.436,7.706-19.347,7.554c-1.332-0.029-3.582-1.357-4.174-1.872c0.882,0.767,1.602,1.266,2.669,1.676
				c0.941,0.362,2.355,0.127,3.127-0.524c1.327-1.118,2.917-4.182,0.86-5.521c-2.974-1.936-7.125-0.145-8.946,2.534
				c-1.065,1.568-1.296,3.773-1.54,5.595c-0.217,1.621,0.394,1.371,0.268-0.132c-0.125-1.486-0.041-2.998,0.037-4.485
				c0.172-3.269,0.736-6.525,1.577-9.685c0.35-1.315,0.845-2.578,1.395-3.82c0.075-0.169,3.333-5.598,3.861-2.596
				c0.718,4.08-2.831,8.354-5.494,10.94c-3.666,3.559-8.677,5.419-13.749,5.058C37.222,204.261,37.152,205.003,37.632,205.037
				L37.632,205.037z"/>
		</g>
	</g>
</g>
<g id="ca3">
	<g>
		<path style="fill:#EEDA00;" d="M35.541,89.165c0,0,28.137,20.224,56.273,25.499c22.034,4.131,65.067,7.035,91.445-3.517
			c23.105-9.242,32.532-21.103,32.532-21.103c0-3.517-7.913-7.035-15.826-9.672c-7.914-2.638-18.465,2.638-18.465,2.638
			c-14.069,9.672-41.325,11.43-56.273,11.43c-14.948,0-48.375-9.242-52.756-12.309c-4.396-3.079-15.388-3.079-21.103-1.759
			C47.941,81.164,35.541,89.165,35.541,89.165z"/>
		<g>
			<path style="fill:none;" d="M35.541,89.165c0,0,28.137,20.224,56.273,25.499c22.034,4.131,65.067,7.035,91.445-3.517
				c23.105-9.242,32.532-21.103,32.532-21.103c0-3.517-7.913-7.035-15.826-9.672c-7.914-2.638-18.465,2.638-18.465,2.638
				c-14.069,9.672-41.325,11.43-56.273,11.43c-14.948,0-48.375-9.242-52.756-12.309c-4.396-3.079-15.388-3.079-21.103-1.759
				C47.941,81.164,35.541,89.165,35.541,89.165z"/>
			<path style="fill:#EEDA00;" d="M35.326,89.472c15.341,10.974,33.223,19.838,51.494,24.488
				c21.208,5.396,44.784,5.914,66.466,4.031c21.67-1.882,43.224-9.311,59.449-24.243c3.445-3.171,4.739-4.605,0.21-8.018
				c-8.746-6.593-19.48-7.799-29.445-3.997c-1.906,0.728-3.432,1.796-5.214,2.809c-3.773,2.143-7.971,3.553-12.116,4.759
				c-8.174,2.377-16.731,3.454-25.192,4.152c-15.24,1.257-29.279-0.353-44.12-3.914c-6.401-1.536-12.778-3.29-18.994-5.466
				c-4.424-1.548-8.04-3.936-12.781-4.612c-5.621-0.801-12.016-0.592-17.163,1.956c-4.338,2.147-8.473,4.793-12.539,7.41
				c-0.4,0.258-0.085,0.939,0.322,0.678c5.806-3.737,12-8.382,18.973-9.304c5.503-0.728,12.692-0.755,17.58,2.238
				c2.146,1.314,4.607,2.092,6.977,2.899c17.222,5.863,35.775,10.086,54.026,9.314c11.585-0.49,23.207-1.753,34.371-4.999
				c8.944-2.602,16.057-8.465,25.479-9.56c4.292-0.499,8.192,1.074,12.108,2.587c1.05,0.406,11.846,5.192,10.249,7.173
				c-1.281,1.59-2.827,2.986-4.342,4.346c-8.706,7.811-19.511,13.508-30.431,17.519c-13.427,4.932-28.31,6.045-42.489,6.299
				c-12.959,0.232-25.973-0.676-38.803-2.485c-22.857-3.223-44.913-13.274-63.644-26.673C35.362,88.576,34.933,89.191,35.326,89.472
				z"/>
		</g>
	</g>
	<g>
		<path style="fill:#EEDA00;" d="M51.891,99.262c-1.047-0.577-2.056-1.145-3.022-1.699c-8.143-4.671-13.328-8.398-13.328-8.398
			l0.879,7.034c0,0,4.808,7.813,13.545,16.499l10.639-6.142L51.891,99.262z"/>
		<g>
			<path style="fill:none;" d="M51.891,99.262c-1.047-0.577-2.056-1.145-3.022-1.699c-8.143-4.671-13.328-8.398-13.328-8.398
				l0.879,7.034c0,0,4.808,7.813,13.545,16.499l10.639-6.142L51.891,99.262z"/>
			<path style="fill:#EEDA00;" d="M52.106,98.955c-5.589-3.111-11.139-6.378-16.35-10.097c-0.278-0.198-0.624,0.057-0.584,0.372
				c0.293,2.351-0.013,5.75,1.318,7.769c3.806,5.773,8.336,11.03,13.189,15.942c0.112,0.113,0.295,0.184,0.447,0.096
				c3.546-2.047,7.093-4.095,10.639-6.143c0.255-0.147,0.279-0.457,0.054-0.646C57.915,103.817,55.011,101.386,52.106,98.955
				c-0.371-0.311-0.799,0.306-0.431,0.614c1.453,1.216,2.905,2.432,4.357,3.647c1.085,0.909,2.171,1.817,3.257,2.727
				c0.267,0.223,0.534,0.447,0.801,0.67c0.445,0.372,0.512-0.488,0.024-0.206c-2.348,1.355-4.695,2.711-7.042,4.066
				c-0.98,0.565-1.96,1.131-2.939,1.697c-0.498,0.288-4.25-4.326-4.87-5.019c-2.731-3.058-5.252-6.32-7.575-9.698
				c-1.309-1.903-1.229-3.959-1.515-6.239c-0.062-0.501-0.125-1.001-0.188-1.501c-0.101-0.811-0.714-0.278-0.39-0.048
				c0.951,0.671,1.92,1.316,2.89,1.959c4.277,2.841,8.705,5.449,13.189,7.945C52.095,99.802,52.529,99.19,52.106,98.955z"/>
		</g>
	</g>
	<g>
		<path style="fill:#00693E;" d="M51.891,99.262c10.673,5.88,25.298,12.66,39.923,15.402c22.034,4.131,65.067,7.035,91.445-3.517
			c23.105-9.242,32.532-21.103,32.532-21.103v6.594c0,0-7.718,15.104-20.672,26.71c-5.212,4.669-11.27,8.772-18.016,11.098
			c-3.127,1.078-6.804,1.933-10.876,2.589c-7.283,1.174-15.833,1.714-24.771,1.767c-26.816,0.158-57.128-4.075-67.227-8.751
			c-9.862-4.566-18.055-11.18-24.264-17.353L48.333,108c0,0,3.333,1,2,1c0,0,0.333-1.666,1.333-1.666S49,104,49,104l-0.333-2
			c0,0,1.666,1.667,3.333,1.667s-1.333-3.333-1.333-3.333L51.891,99.262z"/>
		<g>
			<path style="fill:none;" d="M51.891,99.262c10.673,5.88,25.298,12.66,39.923,15.402c22.034,4.131,65.067,7.035,91.445-3.517
				c23.105-9.242,32.532-21.103,32.532-21.103v6.594c0,0-7.718,15.104-20.672,26.71c-5.212,4.669-11.27,8.772-18.016,11.098
				c-3.127,1.078-6.804,1.933-10.876,2.589c-7.283,1.174-15.833,1.714-24.771,1.767c-26.816,0.158-57.128-4.075-67.227-8.751
				c-9.862-4.566-18.055-11.18-24.264-17.353L48.333,108c0,0,3.333,1,2,1c0,0,0.333-1.666,1.333-1.666S49,104,49,104l-0.333-2
				c0,0,1.666,1.667,3.333,1.667s-1.333-3.333-1.333-3.333L51.891,99.262z"/>
			<path style="fill:#00693E;" d="M51.676,99.569c11.506,6.283,23.733,11.911,36.595,14.735c10.536,2.314,21.346,3.409,32.1,4.059
				c23.536,1.423,48.06,0.265,69.731-9.788c8.547-3.964,16.795-9.17,23.587-15.739c0.595-0.575,1.172-1.171,1.725-1.787
				c1.023-1.14,0.005-0.289,0.005-0.855c0,2.741,0.514,5.473-0.841,7.894c-5.701,10.197-13.204,19.588-22.166,27.085
				c-11.941,9.99-26.572,12.198-41.632,13.01c-21.595,1.165-44.075-0.487-65.221-5.076c-9.716-2.108-17.999-6.454-25.951-12.442
				c-3.744-2.82-8.549-5.957-10.119-10.476c-0.187-0.539-0.374-1.077-0.561-1.615c-0.286-0.824-0.773-0.241,0.091,0.038
				c1.577,0.509,1.909-0.175,3.064-1.135c0.132-0.109,0.164-0.294,0.096-0.447c-0.716-1.617-2.683-2.335-2.976-4.094
				c0.069-0.771-0.085-0.894-0.464-0.367c0.51,0.464,1.276,0.956,1.908,1.19c0.98,0.364,1.202,0.376,1.966,0.063
				c0.113-0.046,0.209-0.181,0.213-0.304c0.062-2.166-2.497-2.389-0.691-3.97c0.363-0.318-0.121-0.892-0.485-0.572
				c-0.408,0.357-0.816,0.715-1.224,1.072c-0.152,0.133-0.179,0.373-0.043,0.529c1.534,1.755,0.03,2.507-1.499,1.117
				c-0.256-0.232-0.633,0.081-0.584,0.372c0.197,1.186,0.123,1.899,0.974,2.699c2.03,1.908,1.323,1.963,0.71,4.106
				c-0.073,0.255,0.12,0.569,0.417,0.499c0.105-0.024,0.21-0.049,0.315-0.074c0.322-0.076,0.416-0.472,0.15-0.677
				c-0.68-0.523-1.59-0.721-2.399-0.97c-0.335-0.103-0.577,0.202-0.469,0.513c0.428,1.232,0.766,3.879,1.685,4.78
				c3.418,3.351,7.008,6.463,10.833,9.344c6.848,5.156,14.256,8.927,22.55,11.005c19.454,4.875,40.289,6.065,60.268,5.867
				c10.39-0.102,20.95-0.816,31.027-3.471c9.65-2.541,17.781-8.673,24.732-15.62c6.015-6.012,11.092-13.035,15.41-20.343
				c1.997-3.381,1.665-5.6,1.665-9.644c0-0.377-0.436-0.554-0.681-0.25c-5.808,7.203-14.633,12.394-22.678,16.58
				c-14.264,7.423-29.728,10.302-45.645,11.288c-15.109,0.936-30.388,0.11-45.387-1.838c-17.728-2.303-34.019-8.36-49.667-16.905
				C51.686,98.725,51.251,99.337,51.676,99.569z"/>
		</g>
	</g>
</g>
</svg>
