<?xml version="1.0" encoding="iso-8859-1"?>
<!-- Generator: Adobe Illustrator 18.1.1, SVG Export Plug-In . SVG Version: 6.00 Build 0)  -->
<svg version="1.1" xmlns="http://www.w3.org/2000/svg" xmlns:xlink="http://www.w3.org/1999/xlink" x="0px" y="0px"
	 viewBox="0 0 250 250" style="enable-background:new 0 0 250 250;" xml:space="preserve">
<g id="ca1">
	<rect style="fill:#FFFFFF;" width="250" height="250"/>
</g>
<g id="ca2">
	<g>
		<g>
			<path style="fill:none;" d="M67.25,208.741c6.667-2,17.54-11,22.27-17.667c-3.333,6-12.333,13.667,1,13.667
				c6,0,13.333-8,18-11.333c-4.731,4.264-6.52,7.183-1.681,9.681c5.223,2.696,10.348-9.015,1.014-9.015
				c-3.333,12,35.333-0.666,25.333-12.666c-4-4.667-15,25.333-9,28c6,2,9.325-18.07,0.666-14c8.397,2.666,17.397-0.158,25.667-6.667
				c-4.77,3.259-4.811,7.968-3.77,9.009c4.5,1.75,10-1.75,11.75-8.75c-3.742,10.396-2.28,10.48,21,1.75"/>
			<path style="fill:#4C5635;" d="M67.41,209.078c6.203-2.093,11.579-6.555,16.304-10.947c1.034-0.962,2.042-1.979,2.984-3.031
				c0.582-0.632,1.147-1.279,1.692-1.942c0.862-0.473,0.988-0.985,0.379-1.539c-1.263,2.155-2.877,4.098-4.22,6.203
				c-5.656,8.87,8.195,7.879,12.886,4.771c3.06-2.027,5.824-4.407,8.627-6.77c1.931-1.626,1.764-2.363-0.241-0.295
				c-0.524,0.54-1.381,1.551-1.682,2.28c-1.319,3.206,1.249,6.113,4.67,6.029c2.611-0.064,4.201-3.021,4.569-5.233
				c0.567-3.407-2.744-4.746-5.491-4.901c-0.151-0.009-0.347,0.077-0.385,0.241c-2.405,10.476,17.5,2.566,20.838,0.566
				c3.434-2.057,7.122-5.335,6.831-9.688c-0.196-2.928-2.711-5.745-5.121-3.007c-3.803,4.321-5.851,10.792-7.08,16.295
				c-0.472,2.114-2.663,10.795,1.18,11.668c7.218,1.642,9.697-18.407,0.541-14.708c-0.289,0.117-0.278,0.601,0.031,0.686
				c5.867,1.633,11.371,0.984,16.985-1.244c1.583-0.628,3.062-1.495,4.532-2.344c0.526-0.331,1.051-0.665,1.573-1.003
				c1.356-0.256,1.782-0.853,1.277-1.789c-1.488,1.154-2.849,3.239-3.12,5.124c-0.408,2.845,0.569,4.564,3.827,4.034
				c4.976-0.81,7.691-4.843,9.051-9.406c0.137-0.458-0.537-0.716-0.699-0.26c-0.716,2.011-3.294,7.32-0.002,8.432
				c1.976,0.667,4.695-0.402,6.552-0.935c5.076-1.456,10.02-3.432,14.96-5.28c0.45-0.168,0.128-0.842-0.32-0.674
				c-2.584,0.967-19.829,9.273-21.895,5.441c-0.462-0.857,0.04-2.392,0.257-3.232c0.119-0.429,0.247-0.854,0.384-1.276
				c0.146-0.47,0.148-2.755-0.366-1.03c-1.02,3.422-3.638,6.264-7.043,7.321c-2.761,0.857-4.425-1.387-3.723-3.905
				c0.564-2.026,2.223-3.477,3.807-4.707c0.381-0.295-0.1-0.858-0.482-0.568c-4.133,3.127-8.365,5.518-13.374,6.889
				c-2.445,0.669-5.009,0.74-7.521,0.6c-1.044-0.048-2.051-0.266-3.021-0.654c1.302-0.197,2.22,0.269,2.753,1.396
				c1.807,3.084,0.157,12.544-4.355,12.472c-6.572-0.106,3.382-23.523,5.168-26.03c1.794-2.516,3.654-1.395,4.409,1.247
				c0.608,2.134-0.596,4.214-1.879,5.807c-3.013,3.737-8.149,5.9-12.617,7.261c-3.165,0.963-7.881,2.086-10.848,0.069
				c-0.61-0.415-1.923-3.109-0.039-3.003c3.04,0.172,4.141,2.753,3.39,5.289c-0.539,1.821-2.195,3.266-4.12,3.312
				c-3.051-0.513-3.973-2.51-2.763-5.99c1.002-1.238,2.102-2.381,3.299-3.429c0.353-0.329-0.097-0.856-0.482-0.568
				c-5.848,4.359-11.381,11.406-19.276,11.206c-9.985-0.252-1.474-9.121,0.823-13.042c0.241-0.411-0.322-0.819-0.611-0.428
				c-5.338,7.222-13.491,14.631-22.124,17.544C66.635,208.558,66.959,209.23,67.41,209.078L67.41,209.078z"/>
		</g>
	</g>
	<g>
		<g>
			<path style="fill:none;" d="M75.25,197c8,0,10-0.75,17.5-2.75"/>
			<path style="fill:#4C5635;" d="M75.215,197.371c6.153-0.033,11.677-1.166,17.6-2.754c0.461-0.123,0.335-0.859-0.13-0.734
				c-5.873,1.573-11.282,2.712-17.4,2.746C74.808,196.631,74.734,197.374,75.215,197.371L75.215,197.371z"/>
		</g>
	</g>
</g>
<g id="ca3">
	<path style="fill:#F7EEDA;" d="M129.773,50.752c-9.065,0.394-64.986,14.253-70.949,18.919C49.759,76.767,47,138.256,47,138.256
		S119.131,169,129.773,169C140.416,169,209,140.62,209,140.62s-0.789-63.065-9.46-70.949
		C193.352,64.047,138.438,50.376,129.773,50.752z"/>
	<path style="fill:#53B332;" d="M127.099,55.102c0,0-2.742,1.994-1.247,4.736c0.643,1.178,2.991,1.994,4.736,1.496
		c1.745-0.499,1.745-4.237,1.745-4.237s-2.127,1.305-3.241,0.747C127.099,56.847,127.099,55.102,127.099,55.102z"/>
	<path style="fill:#53B332;" d="M130.334,60c0,0,1.999,0.667,4.333,0.667c2.334,0,4-1,4-1s-1,2.666,0,4.333c0,0-2.667,0-4,0
		c-1.333,0-4.666,0.333-4.666,0.333S132.001,62,130.334,60z"/>
	<path style="fill:#53B332;" d="M135,53.333c1,0,2.666,6,2.666,6s0.668-1-2.666-1s-3.667-1.666-3.667-1.666L135,53.333z"/>
	<path style="fill:#53B332;" d="M127,58.333c0,0,3.333,4.667,1,4.667c-2.333,0-2,3.667-2,3.667s-2.666-1.334-4.666-1.334
		s1-3.666,1-3.666s2.334,1.333,3-0.667S127,58.333,127,58.333z"/>
</g>
</svg>
