<?xml version="1.0" encoding="iso-8859-1"?>
<!-- Generator: Adobe Illustrator 18.1.1, SVG Export Plug-In . SVG Version: 6.00 Build 0)  -->
<svg version="1.1" xmlns="http://www.w3.org/2000/svg" xmlns:xlink="http://www.w3.org/1999/xlink" x="0px" y="0px"
	 viewBox="0 0 180 180" style="enable-background:new 0 0 180 180;" xml:space="preserve">
<g id="ca1">
	<rect style="fill:#F19EC2;" width="180" height="180"/>
</g>
<g id="ca2">
	
		<rect x="10" y="59.44" style="fill:#595757;stroke:#000000;stroke-linecap:round;stroke-linejoin:round;" width="121.732" height="104.787"/>
	
		<rect x="14.905" y="64.344" style="fill:#FDD35C;stroke:#000000;stroke-linecap:round;stroke-linejoin:round;" width="111.923" height="94.979"/>
	<polygon style="fill:#595757;stroke:#000000;stroke-linecap:round;stroke-linejoin:round;" points="125.144,65.774 123.473,63.099 
		19.03,71.479 20.702,74.154 	"/>
	<polygon style="fill:#595757;stroke:#000000;stroke-linecap:round;stroke-linejoin:round;" points="10,59.44 131.732,59.44 
		131.732,164.227 10,164.227 10,159.322 126.828,159.322 126.828,64.344 14.905,64.344 14.905,159.322 10,159.322 	"/>
	<polygon style="fill:#595757;stroke:#000000;stroke-linecap:round;stroke-linejoin:round;" points="125.144,157.894 
		20.702,166.271 20.702,74.154 125.144,65.774 	"/>
	<polygon style="fill:#595757;stroke:#000000;stroke-linecap:round;stroke-linejoin:round;" points="20.702,74.154 19.03,71.479 
		19.03,163.597 20.702,166.271 	"/>
	
		<line style="fill:#595757;stroke:#000000;stroke-linecap:round;stroke-linejoin:round;" x1="126.828" y1="159.322" x2="131.732" y2="159.322"/>
	
		<line style="fill:#595757;stroke:#000000;stroke-linecap:round;stroke-linejoin:round;" x1="14.905" y1="64.344" x2="10" y2="64.344"/>
	
		<line style="fill:#595757;stroke:#000000;stroke-linecap:round;stroke-linejoin:round;" x1="126.828" y1="64.344" x2="131.732" y2="64.344"/>
	<polygon style="fill:#595757;stroke:#000000;stroke-linecap:round;stroke-linejoin:round;" points="10,59.44 46.72,32 168.453,32 
		131.732,59.44 	"/>
	<polygon style="fill:#595757;stroke:#000000;stroke-linecap:round;stroke-linejoin:round;" points="131.732,59.44 168.453,32 
		168.453,136.787 131.732,164.227 	"/>
</g>
<g id="ca3">
	<polygon style="fill:#FFFFFF;stroke:#000000;stroke-linecap:round;stroke-linejoin:round;" points="65.982,89.522 42.718,91.389 
		42.718,119.746 65.982,117.879 	"/>
	<polygon style="fill:#FFFFFF;stroke:#000000;stroke-linecap:round;stroke-linejoin:round;" points="70.07,125.551 65.982,125.879 
		65.982,130.863 70.07,130.535 	"/>
	<polygon style="fill:#FFFFFF;stroke:#000000;stroke-linecap:round;stroke-linejoin:round;" points="77.461,124.957 73.373,125.285 
		73.373,130.27 77.461,129.941 	"/>
	<path style="fill:none;stroke:#000000;stroke-linecap:round;stroke-linejoin:round;" d="M42.718,114.201
		c0,0,11.49,1.887,23.264-1.867"/>
	<polygon style="fill:#FFFFFF;stroke:#000000;stroke-linecap:round;stroke-linejoin:round;" points="100.725,86.733 77.461,88.6 
		77.461,116.957 100.725,115.09 	"/>
	<path style="fill:none;stroke:#000000;stroke-linecap:round;stroke-linejoin:round;" d="M77.461,111.412
		c0,0,11.49,1.887,23.263-1.867"/>
</g>
<g id="ca4">
	<circle style="fill:#9FD9F6;stroke:#000000;" cx="85.19" cy="128.686" r="3.729"/>
	<circle style="fill:#9FD9F6;stroke:#000000;" cx="100.753" cy="125.754" r="7.833"/>
	<circle style="fill:#9FD9F6;stroke:#000000;" cx="126.534" cy="113.334" r="16.333"/>
</g>
</svg>
