<?xml version="1.0" encoding="iso-8859-1"?>
<!-- Generator: Adobe Illustrator 18.1.1, SVG Export Plug-In . SVG Version: 6.00 Build 0)  -->
<svg version="1.1" xmlns="http://www.w3.org/2000/svg" xmlns:xlink="http://www.w3.org/1999/xlink" x="0px" y="0px"
	 viewBox="0 0 180 180" style="enable-background:new 0 0 180 180;" xml:space="preserve">
<g id="ca1">
	<rect x="0.001" style="fill:#FFFFFF;" width="179.999" height="180"/>
</g>
<g id="ca2">
	<polygon style="fill:#CBA8B8;" points="0,180 0,156.667 180,132.001 180,180 	"/>
	<path style="fill:#F2A3C5;" d="M0,171.667c0,0,33.167,7.5,62-21.333s33.001,41.001,63.667,22.667S180,169.334,180,169.334V0H0
		V171.667z"/>
	<path style="fill:#B2B0D6;" d="M0,139.667c0,0,34-15.999,42.333,1.334s36.333,28.332,36.333,20.666
		c0-7.666,13.667-18.667,20.667-18.667S172,157.667,180,139.334V0H0V139.667z"/>
	<path style="fill:#D4C8E1;" d="M0,151.001c0,0,40.333-57,65-40.667s36.334,24.333,51.667,16.333s-3-37.667,23.333-26
		s40-21.999,40-21.999V0H0V151.001z"/>
	<path style="fill:#F5B9C6;" d="M0,98.334c0,0,33.666,38,70.666,36s3.667-46.667,21.667-46.667s29.668,37.334,41.334,37.334
		c11.666,0,46.333-32.667,46.333-32.667V0H0V98.334z"/>
	<path style="fill:#FFE9A5;" d="M0,115.334c0,0,58-36.333,69-61.333s27,24.333,40,28.333s52.667,78.332,71,29.333V0H0V115.334z"/>
	<path style="fill:#FADBE8;" d="M0,71.001c17,6.333,34.511-5.562,51.333-1.667s58.333,53,74.667,16.667
		c16.333-36.333,54,13.666,54,13.666V0H0V71.001z"/>
	<path style="fill:#EF8EB8;" d="M0,37.668c0,0,13.333,19.333,29,19.333s28-1,43,7.333s46.001-4,57.667-12
		c11.666-8,50.333-16,50.333-16V0H0V37.668z"/>
	<path style="fill:#F4AF9F;" d="M0,50.668c0,0,20-43.667,33.667-36.667S53.333,71.668,70,73.668s21.334-26.334,31.667-26.334
		s21.667,17.334,32,17.334C144,64.668,172,85.334,180,85.334V0H0V50.668z"/>
	<path style="fill:#F5B8D3;" d="M0,30.001c0,0,9.667-10,20-6s53.666,7,60,7s26.562,0.105,31.333-4.667
		c4.771-4.771,26.167-4.167,29.334-1c3.167,3.167,0.5,22.833,14.333,36.667s25,8.333,25,8.333V0H0V30.001z"/>
	<path style="fill:#D1A6B9;" d="M0,0h180v81.001c0,0-5.001-34-35.667-41s-28.001-32-46-26c-17.999,6-63.667,13.666-75.667,6S0,0,0,0
		z"/>
</g>
<g id="ca3">
	<g>
		<g>
			<path style="fill:#FFFFFF;" d="M82.169,152.166v-102.9H45.011V35.251h89.98v14.015H97.832v102.9H82.169z"/>
		</g>
		<rect x="45.011" y="66.041" style="fill:#FFFFFF;" width="22.382" height="37.625"/>
		<polygon style="fill:#FFFFFF;" points="45.011,107.112 78.959,107.112 78.959,152.166 45.011,152.166 45.011,148.19 
			74.983,148.19 74.983,111.088 45.011,111.088 		"/>
		<polygon style="fill:#FFFFFF;" points="72.224,127.651 49.051,127.651 49.051,117.887 68.184,117.887 68.184,122.601 
			72.224,122.601 72.224,113.847 45.011,113.847 45.011,131.691 72.224,131.691 		"/>
		<rect x="51.883" y="120.719" style="fill:#FFFFFF;" width="13.469" height="4.1"/>
		<rect x="45.011" y="135.059" style="fill:#FFFFFF;" width="27.213" height="3.704"/>
		<rect x="45.011" y="141.456" style="fill:#FFFFFF;" width="27.213" height="3.704"/>
		<polygon style="fill:#FFFFFF;" points="134.99,107.112 101.043,107.112 101.043,152.166 134.99,152.166 134.99,148.19 
			105.018,148.19 105.018,111.088 134.99,111.088 		"/>
		<polygon style="fill:#FFFFFF;" points="107.777,127.651 130.95,127.651 130.95,117.887 111.816,117.887 111.816,122.601 
			107.777,122.601 107.777,113.847 134.99,113.847 134.99,131.691 107.777,131.691 		"/>
		<rect x="114.648" y="120.719" style="fill:#FFFFFF;" width="13.469" height="4.1"/>
		<rect x="107.777" y="135.059" style="fill:#FFFFFF;" width="27.213" height="3.704"/>
		<rect x="107.777" y="141.456" style="fill:#FFFFFF;" width="27.213" height="3.704"/>
		<polygon style="fill:#FFFFFF;" points="74.706,78.473 74.706,59.954 71.003,56.251 45.011,56.251 45.011,52.547 72.877,52.547 
			78.433,58.103 78.433,78.473 		"/>
		<rect x="45.011" y="59.954" style="fill:#FFFFFF;" width="27.696" height="3.712"/>
		<rect x="69.206" y="66.166" style="fill:#FFFFFF;" width="3.5" height="12.307"/>
		<polygon style="fill:#FFFFFF;" points="78.959,85.166 72.956,85.166 72.956,99.916 78.959,99.916 78.959,103.666 69.206,103.666 
			69.206,81.416 78.959,81.416 		"/>
		<rect x="112.608" y="66.041" style="fill:#FFFFFF;" width="22.382" height="37.625"/>
		<polygon style="fill:#FFFFFF;" points="105.295,78.473 105.295,59.954 108.998,56.251 134.99,56.251 134.99,52.547 
			107.123,52.547 101.568,58.103 101.568,78.473 		"/>
		<rect x="107.295" y="59.954" style="fill:#FFFFFF;" width="27.695" height="3.712"/>
		<rect x="107.295" y="66.166" style="fill:#FFFFFF;" width="3.5" height="12.307"/>
		<polygon style="fill:#FFFFFF;" points="101.043,85.166 107.045,85.166 107.045,99.916 101.043,99.916 101.043,103.666 
			110.795,103.666 110.795,81.416 101.043,81.416 		"/>
		<polygon style="fill:#FFFFFF;" points="90.001,167.057 123.101,167.057 134.99,155.167 128.768,155.167 121.101,162.834 
			90.001,162.834 58.901,162.834 51.234,155.167 45.011,155.167 56.901,167.057 		"/>
		<polygon style="fill:#FFFFFF;" points="89.999,12.944 56.901,12.944 45.01,24.834 51.233,24.834 58.901,17.167 89.999,17.167 
			121.1,17.167 128.768,24.834 134.99,24.834 123.1,12.944 		"/>
		<polygon style="fill:#FFFFFF;" points="90.001,160.166 109.879,160.166 109.879,158.666 121.101,158.666 121.101,155.167 
			106.545,155.167 106.545,156.833 90.001,156.833 73.456,156.833 73.456,155.167 58.901,155.167 58.901,158.666 70.123,158.666 
			70.123,160.166 		"/>
		<polygon style="fill:#FFFFFF;" points="40.011,59.954 20.011,59.954 20.011,98.832 31.177,109.999 40.011,109.999 40.011,106.166 
			33.01,106.166 23.677,96.832 23.677,63.832 40.011,63.832 		"/>
		<polygon style="fill:#FFFFFF;" points="40.011,66.499 26.344,66.499 26.344,84.499 29.678,84.499 29.678,69.833 40.011,69.833 		
			"/>
		<polygon style="fill:#FFFFFF;" points="32.344,72.5 40.011,72.5 40.011,96.832 36.844,96.832 36.844,75.666 32.344,75.666 		"/>
		<rect x="26.344" y="87.499" style="fill:#FFFFFF;" width="3.334" height="9.333"/>
		<rect x="33.01" y="98.666" style="fill:#FFFFFF;" width="7" height="3"/>
		<polygon style="fill:#FFFFFF;" points="139.99,59.954 159.99,59.954 159.99,98.832 148.824,109.999 139.99,109.999 
			139.99,106.166 146.99,106.166 156.324,96.832 156.324,63.832 139.99,63.832 		"/>
		<polygon style="fill:#FFFFFF;" points="139.99,66.499 153.657,66.499 153.657,84.499 150.323,84.499 150.323,69.833 
			139.99,69.833 		"/>
		<polygon style="fill:#FFFFFF;" points="147.656,72.5 139.99,72.5 139.99,96.832 143.156,96.832 143.156,75.666 147.656,75.666 		
			"/>
		<rect x="150.323" y="87.499" style="fill:#FFFFFF;" width="3.334" height="9.333"/>
		<rect x="139.99" y="98.666" style="fill:#FFFFFF;" width="7" height="3"/>
		<rect x="58.901" y="20.5" style="fill:#FFFFFF;" width="62.199" height="4.334"/>
		<rect x="45.01" y="28.167" style="fill:#FFFFFF;" width="89.98" height="4"/>
	</g>
</g>
</svg>
