<?xml version="1.0" encoding="iso-8859-1"?>
<!-- Generator: Adobe Illustrator 18.1.1, SVG Export Plug-In . SVG Version: 6.00 Build 0)  -->
<svg version="1.1" xmlns="http://www.w3.org/2000/svg" xmlns:xlink="http://www.w3.org/1999/xlink" x="0px" y="0px"
	 viewBox="0 0 180 180" style="enable-background:new 0 0 180 180;" xml:space="preserve">
<g id="ca1">
	<rect style="fill:#00A0E9;" width="180" height="180"/>
</g>
<g id="ca2">
	<circle style="fill:#FFFFFF;" cx="6" cy="6" r="6"/>
	<circle style="fill:#FFFFFF;" cx="18" cy="6" r="6"/>
	<circle style="fill:#FFFFFF;" cx="30" cy="6" r="6"/>
	<circle style="fill:#FFFFFF;" cx="42" cy="6" r="6"/>
	<circle style="fill:#FFFFFF;" cx="54" cy="6" r="6"/>
	<circle style="fill:#FFFFFF;" cx="66" cy="6" r="6"/>
	<circle style="fill:#FFFFFF;" cx="78" cy="6" r="6"/>
	<circle style="fill:#FFFFFF;" cx="90" cy="6" r="6"/>
	<circle style="fill:#FFFFFF;" cx="102" cy="6" r="6"/>
	<circle style="fill:#FFFFFF;" cx="114" cy="6" r="6"/>
	<circle style="fill:#FFFFFF;" cx="126" cy="6" r="6"/>
	<circle style="fill:#FFFFFF;" cx="138" cy="6" r="6"/>
	<circle style="fill:#FFFFFF;" cx="150" cy="6" r="6"/>
	<circle style="fill:#FFFFFF;" cx="162" cy="6" r="6"/>
	<circle style="fill:#FFFFFF;" cx="174" cy="6" r="6"/>
	<circle style="fill:#FFFFFF;" cx="6" cy="18" r="6"/>
	<circle style="fill:#FFFFFF;" cx="18" cy="18" r="6"/>
	<circle style="fill:#FFFFFF;" cx="30" cy="18" r="6"/>
	<circle style="fill:#FFFFFF;" cx="42" cy="18" r="6"/>
	<circle style="fill:#FFFFFF;" cx="54" cy="18" r="6"/>
	<circle style="fill:#FFFFFF;" cx="66" cy="18" r="6"/>
	<circle style="fill:#FFFFFF;" cx="78" cy="18" r="6"/>
	<circle style="fill:#FFFFFF;" cx="90" cy="18" r="6"/>
	<circle style="fill:#FFFFFF;" cx="102" cy="18" r="6"/>
	<circle style="fill:#FFFFFF;" cx="114" cy="18" r="6"/>
	<circle style="fill:#FFFFFF;" cx="126" cy="18" r="6"/>
	<circle style="fill:#FFFFFF;" cx="138" cy="18" r="6"/>
	<circle style="fill:#FFFFFF;" cx="150" cy="18" r="6"/>
	<circle style="fill:#FFFFFF;" cx="162" cy="18" r="6"/>
	<circle style="fill:#FFFFFF;" cx="174" cy="18" r="6"/>
	<circle style="fill:#FFFFFF;" cx="6" cy="30" r="6"/>
	<circle style="fill:#FFFFFF;" cx="18" cy="30" r="6"/>
	<circle style="fill:#FFFFFF;" cx="30" cy="30" r="6"/>
	<circle style="fill:#FFFFFF;" cx="42" cy="30" r="6"/>
	<circle style="fill:#FFFFFF;" cx="54" cy="30" r="6"/>
	<circle style="fill:#FFFFFF;" cx="66" cy="30" r="6"/>
	<circle style="fill:#FFFFFF;" cx="78" cy="30" r="6"/>
	<circle style="fill:#FFFFFF;" cx="90" cy="30" r="6"/>
	<circle style="fill:#FFFFFF;" cx="102" cy="30" r="6"/>
	<circle style="fill:#FFFFFF;" cx="114" cy="30" r="6"/>
	<circle style="fill:#FFFFFF;" cx="126" cy="30" r="6"/>
	<circle style="fill:#FFFFFF;" cx="138" cy="30" r="6"/>
	<circle style="fill:#FFFFFF;" cx="150" cy="30" r="6"/>
	<circle style="fill:#FFFFFF;" cx="162" cy="30" r="6"/>
	<circle style="fill:#FFFFFF;" cx="174" cy="30" r="6"/>
	<circle style="fill:#FFFFFF;" cx="6" cy="42" r="6"/>
	<circle style="fill:#FFFFFF;" cx="18" cy="42" r="6"/>
	<circle style="fill:#FFFFFF;" cx="30" cy="42" r="6"/>
	<circle style="fill:#FFFFFF;" cx="42" cy="42" r="6"/>
	<circle style="fill:#FFFFFF;" cx="54" cy="42" r="6"/>
	<circle style="fill:#FFFFFF;" cx="66" cy="42" r="6"/>
	<circle style="fill:#FFFFFF;" cx="78" cy="42" r="6"/>
	<circle style="fill:#FFFFFF;" cx="90" cy="42" r="6"/>
	<circle style="fill:#FFFFFF;" cx="102" cy="42" r="6"/>
	<circle style="fill:#FFFFFF;" cx="114" cy="42" r="6"/>
	<circle style="fill:#FFFFFF;" cx="126" cy="42" r="6"/>
	<circle style="fill:#FFFFFF;" cx="138" cy="42" r="6"/>
	<circle style="fill:#FFFFFF;" cx="150" cy="42" r="6"/>
	<circle style="fill:#FFFFFF;" cx="162" cy="42" r="6"/>
	<circle style="fill:#FFFFFF;" cx="174" cy="42" r="6"/>
	<circle style="fill:#FFFFFF;" cx="6" cy="54" r="6"/>
	<circle style="fill:#FFFFFF;" cx="18" cy="54" r="6"/>
	<circle style="fill:#FFFFFF;" cx="30" cy="54" r="6"/>
	<circle style="fill:#FFFFFF;" cx="42" cy="54" r="6"/>
	<circle style="fill:#FFFFFF;" cx="54" cy="54" r="6"/>
	<circle style="fill:#FFFFFF;" cx="66" cy="54" r="6"/>
	<circle style="fill:#FFFFFF;" cx="78" cy="54" r="6"/>
	<circle style="fill:#FFFFFF;" cx="90" cy="54" r="6"/>
	<circle style="fill:#FFFFFF;" cx="102" cy="54" r="6"/>
	<circle style="fill:#FFFFFF;" cx="114" cy="54" r="6"/>
	<circle style="fill:#FFFFFF;" cx="126" cy="54" r="6"/>
	<circle style="fill:#FFFFFF;" cx="138" cy="54" r="6"/>
	<circle style="fill:#FFFFFF;" cx="150" cy="54" r="6"/>
	<circle style="fill:#FFFFFF;" cx="162" cy="54" r="6"/>
	<circle style="fill:#FFFFFF;" cx="174" cy="54" r="6"/>
	<circle style="fill:#FFFFFF;" cx="6" cy="66" r="6"/>
	<circle style="fill:#FFFFFF;" cx="18" cy="66" r="6"/>
	<circle style="fill:#FFFFFF;" cx="30" cy="66" r="6"/>
	<circle style="fill:#FFFFFF;" cx="42" cy="66" r="6"/>
	<circle style="fill:#FFFFFF;" cx="54" cy="66" r="6"/>
	<circle style="fill:#FFFFFF;" cx="66" cy="66" r="6"/>
	<circle style="fill:#FFFFFF;" cx="78" cy="66" r="6"/>
	<circle style="fill:#FFFFFF;" cx="90" cy="66" r="6"/>
	<circle style="fill:#FFFFFF;" cx="102" cy="66" r="6"/>
	<circle style="fill:#FFFFFF;" cx="114" cy="66" r="6"/>
	<circle style="fill:#FFFFFF;" cx="126" cy="66" r="6"/>
	<circle style="fill:#FFFFFF;" cx="138" cy="66" r="6"/>
	<circle style="fill:#FFFFFF;" cx="150" cy="66" r="6"/>
	<circle style="fill:#FFFFFF;" cx="162" cy="66" r="6"/>
	<circle style="fill:#FFFFFF;" cx="174" cy="66" r="6"/>
	<circle style="fill:#FFFFFF;" cx="6" cy="78" r="6"/>
	<circle style="fill:#FFFFFF;" cx="18" cy="78" r="6"/>
	<circle style="fill:#FFFFFF;" cx="30" cy="78" r="6"/>
	<circle style="fill:#FFFFFF;" cx="42" cy="78" r="6"/>
	<circle style="fill:#FFFFFF;" cx="54" cy="78" r="6"/>
	<circle style="fill:#FFFFFF;" cx="66" cy="78" r="6"/>
	<circle style="fill:#FFFFFF;" cx="78" cy="78" r="6"/>
	<circle style="fill:#FFFFFF;" cx="90" cy="78" r="6"/>
	<circle style="fill:#FFFFFF;" cx="102" cy="78" r="6"/>
	<circle style="fill:#FFFFFF;" cx="114" cy="78" r="6"/>
	<circle style="fill:#FFFFFF;" cx="126" cy="78" r="6"/>
	<circle style="fill:#FFFFFF;" cx="138" cy="78" r="6"/>
	<circle style="fill:#FFFFFF;" cx="150" cy="78" r="6"/>
	<circle style="fill:#FFFFFF;" cx="162" cy="78" r="6"/>
	<circle style="fill:#FFFFFF;" cx="174" cy="78" r="6"/>
	<circle style="fill:#FFFFFF;" cx="6" cy="90" r="6"/>
	<circle style="fill:#FFFFFF;" cx="18" cy="90" r="6"/>
	<circle style="fill:#FFFFFF;" cx="30" cy="90" r="6"/>
	<circle style="fill:#FFFFFF;" cx="42" cy="90" r="6"/>
	<circle style="fill:#FFFFFF;" cx="54" cy="90" r="6"/>
	<circle style="fill:#FFFFFF;" cx="66" cy="90" r="6"/>
	<circle style="fill:#FFFFFF;" cx="78" cy="90" r="6"/>
	<circle style="fill:#FFFFFF;" cx="90" cy="90" r="6"/>
	<circle style="fill:#FFFFFF;" cx="102" cy="90" r="6"/>
	<circle style="fill:#FFFFFF;" cx="114" cy="90" r="6"/>
	<circle style="fill:#FFFFFF;" cx="126" cy="90" r="6"/>
	<circle style="fill:#FFFFFF;" cx="138" cy="90" r="6"/>
	<circle style="fill:#FFFFFF;" cx="150" cy="90" r="6"/>
	<circle style="fill:#FFFFFF;" cx="162" cy="90" r="6"/>
	<circle style="fill:#FFFFFF;" cx="174" cy="90" r="6"/>
	<circle style="fill:#FFFFFF;" cx="6" cy="102" r="6"/>
	<circle style="fill:#FFFFFF;" cx="18" cy="102" r="6"/>
	<circle style="fill:#FFFFFF;" cx="30" cy="102" r="6"/>
	<circle style="fill:#FFFFFF;" cx="42" cy="102" r="6"/>
	<circle style="fill:#FFFFFF;" cx="54" cy="102" r="6"/>
	<circle style="fill:#FFFFFF;" cx="66" cy="102" r="6"/>
	<circle style="fill:#FFFFFF;" cx="78" cy="102" r="6"/>
	<circle style="fill:#FFFFFF;" cx="90" cy="102" r="6"/>
	<circle style="fill:#FFFFFF;" cx="102" cy="102" r="6"/>
	<circle style="fill:#FFFFFF;" cx="114" cy="102" r="6"/>
	<circle style="fill:#FFFFFF;" cx="126" cy="102" r="6"/>
	<circle style="fill:#FFFFFF;" cx="138" cy="102" r="6"/>
	<circle style="fill:#FFFFFF;" cx="150" cy="102" r="6"/>
	<circle style="fill:#FFFFFF;" cx="162" cy="102" r="6"/>
	<circle style="fill:#FFFFFF;" cx="174" cy="102" r="6"/>
	<circle style="fill:#FFFFFF;" cx="6" cy="114" r="6"/>
	<circle style="fill:#FFFFFF;" cx="18" cy="114" r="6"/>
	<circle style="fill:#FFFFFF;" cx="30" cy="114" r="6"/>
	<circle style="fill:#FFFFFF;" cx="42" cy="114" r="6"/>
	<circle style="fill:#FFFFFF;" cx="54" cy="114" r="6"/>
	<circle style="fill:#FFFFFF;" cx="66" cy="114" r="6"/>
	<circle style="fill:#FFFFFF;" cx="78" cy="114" r="6"/>
	<circle style="fill:#FFFFFF;" cx="90" cy="114" r="6"/>
	<circle style="fill:#FFFFFF;" cx="102" cy="114" r="6"/>
	<circle style="fill:#FFFFFF;" cx="114" cy="114" r="6"/>
	<circle style="fill:#FFFFFF;" cx="126" cy="114" r="6"/>
	<circle style="fill:#FFFFFF;" cx="138" cy="114" r="6"/>
	<circle style="fill:#FFFFFF;" cx="150" cy="114" r="6"/>
	<circle style="fill:#FFFFFF;" cx="162" cy="114" r="6"/>
	<circle style="fill:#FFFFFF;" cx="174" cy="114" r="6"/>
	<circle style="fill:#FFFFFF;" cx="6" cy="126" r="6"/>
	<circle style="fill:#FFFFFF;" cx="18" cy="126" r="6"/>
	<circle style="fill:#FFFFFF;" cx="30" cy="126" r="6"/>
	<circle style="fill:#FFFFFF;" cx="42" cy="126" r="6"/>
	<circle style="fill:#FFFFFF;" cx="54" cy="126" r="6"/>
	<circle style="fill:#FFFFFF;" cx="66" cy="126" r="6"/>
	<circle style="fill:#FFFFFF;" cx="78" cy="126" r="6"/>
	<circle style="fill:#FFFFFF;" cx="90" cy="126" r="6"/>
	<circle style="fill:#FFFFFF;" cx="102" cy="126" r="6"/>
	<circle style="fill:#FFFFFF;" cx="114" cy="126" r="6"/>
	<circle style="fill:#FFFFFF;" cx="126" cy="126" r="6"/>
	<circle style="fill:#FFFFFF;" cx="138" cy="126" r="6"/>
	<circle style="fill:#FFFFFF;" cx="150" cy="126" r="6"/>
	<circle style="fill:#FFFFFF;" cx="162" cy="126" r="6"/>
	<circle style="fill:#FFFFFF;" cx="174" cy="126" r="6"/>
	<circle style="fill:#FFFFFF;" cx="6" cy="138" r="6"/>
	<circle style="fill:#FFFFFF;" cx="18" cy="138" r="6"/>
	<circle style="fill:#FFFFFF;" cx="30" cy="138" r="6"/>
	<circle style="fill:#FFFFFF;" cx="42" cy="138" r="6"/>
	<circle style="fill:#FFFFFF;" cx="54" cy="138" r="6"/>
	<circle style="fill:#FFFFFF;" cx="66" cy="138" r="6"/>
	<circle style="fill:#FFFFFF;" cx="78" cy="138" r="6"/>
	<circle style="fill:#FFFFFF;" cx="90" cy="138" r="6"/>
	<circle style="fill:#FFFFFF;" cx="102" cy="138" r="6"/>
	<circle style="fill:#FFFFFF;" cx="114" cy="138" r="6"/>
	<circle style="fill:#FFFFFF;" cx="126" cy="138" r="6"/>
	<circle style="fill:#FFFFFF;" cx="138" cy="138" r="6"/>
	<circle style="fill:#FFFFFF;" cx="150" cy="138" r="6"/>
	<circle style="fill:#FFFFFF;" cx="162" cy="138" r="6"/>
	<circle style="fill:#FFFFFF;" cx="174" cy="138" r="6"/>
	<circle style="fill:#FFFFFF;" cx="6" cy="150" r="6"/>
	<circle style="fill:#FFFFFF;" cx="18" cy="150" r="6"/>
	<circle style="fill:#FFFFFF;" cx="30" cy="150" r="6"/>
	<circle style="fill:#FFFFFF;" cx="42" cy="150" r="6"/>
	<circle style="fill:#FFFFFF;" cx="54" cy="150" r="6"/>
	<circle style="fill:#FFFFFF;" cx="66" cy="150" r="6"/>
	<circle style="fill:#FFFFFF;" cx="78" cy="150" r="6"/>
	<circle style="fill:#FFFFFF;" cx="90" cy="150" r="6"/>
	<circle style="fill:#FFFFFF;" cx="102" cy="150" r="6"/>
	<circle style="fill:#FFFFFF;" cx="114" cy="150" r="6"/>
	<circle style="fill:#FFFFFF;" cx="126" cy="150" r="6"/>
	<circle style="fill:#FFFFFF;" cx="138" cy="150" r="6"/>
	<circle style="fill:#FFFFFF;" cx="150" cy="150" r="6"/>
	<circle style="fill:#FFFFFF;" cx="162" cy="150" r="6"/>
	<circle style="fill:#FFFFFF;" cx="174" cy="150" r="6"/>
	<circle style="fill:#FFFFFF;" cx="6" cy="162" r="6"/>
	<circle style="fill:#FFFFFF;" cx="18" cy="162" r="6"/>
	<circle style="fill:#FFFFFF;" cx="30" cy="162" r="6"/>
	<circle style="fill:#FFFFFF;" cx="42" cy="162" r="6"/>
	<circle style="fill:#FFFFFF;" cx="54" cy="162" r="6"/>
	<circle style="fill:#FFFFFF;" cx="66" cy="162" r="6"/>
	<circle style="fill:#FFFFFF;" cx="78" cy="162" r="6"/>
	<circle style="fill:#FFFFFF;" cx="90" cy="162" r="6"/>
	<circle style="fill:#FFFFFF;" cx="102" cy="162" r="6"/>
	<circle style="fill:#FFFFFF;" cx="114" cy="162" r="6"/>
	<circle style="fill:#FFFFFF;" cx="126" cy="162" r="6"/>
	<circle style="fill:#FFFFFF;" cx="138" cy="162" r="6"/>
	<circle style="fill:#FFFFFF;" cx="150" cy="162" r="6"/>
	<circle style="fill:#FFFFFF;" cx="162" cy="162" r="6"/>
	<circle style="fill:#FFFFFF;" cx="174" cy="162" r="6"/>
	<circle style="fill:#FFFFFF;" cx="6" cy="174" r="6"/>
	<circle style="fill:#FFFFFF;" cx="18" cy="174" r="6"/>
	<circle style="fill:#FFFFFF;" cx="30" cy="174" r="6"/>
	<circle style="fill:#FFFFFF;" cx="42" cy="174" r="6"/>
	<circle style="fill:#FFFFFF;" cx="54" cy="174" r="6"/>
	<circle style="fill:#FFFFFF;" cx="66" cy="174" r="6"/>
	<circle style="fill:#FFFFFF;" cx="78" cy="174" r="6"/>
	<circle style="fill:#FFFFFF;" cx="90" cy="174" r="6"/>
	<circle style="fill:#FFFFFF;" cx="102" cy="174" r="6"/>
	<circle style="fill:#FFFFFF;" cx="114" cy="174" r="6"/>
	<circle style="fill:#FFFFFF;" cx="126" cy="174" r="6"/>
	<circle style="fill:#FFFFFF;" cx="138" cy="174" r="6"/>
	<circle style="fill:#FFFFFF;" cx="150" cy="174" r="6"/>
	<circle style="fill:#FFFFFF;" cx="162" cy="174" r="6"/>
	<circle style="fill:#FFFFFF;" cx="174" cy="174" r="6"/>
</g>
<g id="ca3">
	<polygon style="fill:#3E3A39;stroke:#000000;" points="49.91,63.739 36.65,53.951 28.952,40.395 35.037,21.291 58.075,7.96 
		88.972,5.262 119.822,11.127 144.817,26.206 156.698,52.725 157.85,79.225 152.765,103.263 139.821,121.292 108.155,137.24 	"/>
	<polyline style="fill:#F9F5A4;stroke:#000000;" points="88.278,111.353 30.956,109.041 36.966,124.759 108.155,137.24 
		127.34,115.184 135.66,90.319 125.722,62.815 75.797,55.419 49.91,63.739 54.07,109.974 	"/>
	<path style="fill:#FFFFFF;stroke:#000000;" d="M69.224,90.193c0,0,1.387-8.321-4.161-8.321c-5.547,0-9.708,5.547-14.792,10.632
		C50.271,92.504,57.205,88.344,69.224,90.193z"/>
	<polygon style="fill:#9FA0A0;stroke:#000000;" points="80.419,71.598 80.419,78.069 114.165,80.843 114.165,76.683 	"/>
	<path style="fill:#F9F5A4;stroke:#000000;" d="M24.368,75.525c0,0,28.021,16.839,48.218,19.246
		c1.521,0.181,3.354,3.108,2.961,6.404c-0.393,3.295-2.862,5.711-4.383,5.53c-19.738-2.353-50.406-0.886-50.406-0.886"/>
	<polygon style="fill:#9FA0A0;stroke:#000000;" points="68.4,71.598 68.4,78.069 51.296,80.843 51.296,76.683 	"/>
	<path style="fill:#FFFFFF;stroke:#000000;" d="M79.957,90.088c0,0-0.462-8.321,5.085-8.321c13.868,0,20.803,6.472,28.661,10.632
		C113.703,92.399,91.977,88.239,79.957,90.088z"/>
	
		<ellipse transform="matrix(0.993 0.1183 -0.1183 0.993 10.8857 -2.0326)" style="fill:#F9F5A4;stroke:#000000;" cx="22.563" cy="90.673" rx="9.014" ry="15.255"/>
	<ellipse style="stroke:#000000;" cx="85.034" cy="85.466" rx="0.932" ry="3.107"/>
	<ellipse style="stroke:#000000;" cx="65.172" cy="85.466" rx="0.932" ry="3.107"/>
	<polyline style="fill:#F9F5A4;stroke:#000000;" points="156,180 146.293,159.66 108.155,152.264 108.155,137.24 75.79,131.565 
		75.79,150.877 33.961,159.66 25.178,180 	"/>
</g>
<g id="ca4">
	<path style="fill:#866062;stroke:#000000;" d="M25.178,180l8.783-20.34l41.829-8.783c0,0,5.21,9.623,15.71,9.623
		s16.655-8.236,16.655-8.236l38.138,7.396L156,180"/>
</g>
</svg>
