<?xml version="1.0" encoding="iso-8859-1"?>
<!-- Generator: Adobe Illustrator 18.1.1, SVG Export Plug-In . SVG Version: 6.00 Build 0)  -->
<svg version="1.1" xmlns="http://www.w3.org/2000/svg" xmlns:xlink="http://www.w3.org/1999/xlink" x="0px" y="0px"
	 viewBox="0 0 180 180" style="enable-background:new 0 0 180 180;" xml:space="preserve">
<g id="ca1">
	<rect style="fill:#8F82BC;" width="180" height="180"/>
</g>
<g id="ca2">
	<path style="fill:#FFFFFF;" d="M33,79.808C38.017,79.808,41.999,90,55.498,90c13.501,0,17.482-7.192,22.501-7.192
		c-5.019,0-9-7.808-22.501-7.808C41.999,75,38.017,79.808,33,79.808z"/>
	<path style="fill:#FFFFFF;" d="M101.999,82.808c5.017,0,8.999,7.192,22.498,7.192c13.501,0,17.482-10.192,22.501-10.192
		c-5.019,0-9-4.808-22.501-4.808C110.998,75,107.016,82.808,101.999,82.808z"/>
	<path style="fill:#FFFFFF;" d="M67.623,110.334v10.06c0,0,0.261,1.17-1.31,1.17h-7.336c-1.571,0-1.31-1.17-1.31-1.17v-10.06H67.623
		z"/>
	<path style="fill:#FFFFFF;" d="M78.913,110.334v10.06c0,0,0.261,1.17-1.31,1.17h-7.336c-1.571,0-1.31-1.17-1.31-1.17v-10.06H78.913
		z"/>
	<path style="fill:#FFFFFF;" d="M90.202,110.334v10.06c0,0,0.261,1.17-1.31,1.17h-7.336c-1.571,0-1.31-1.17-1.31-1.17v-10.06H90.202
		z"/>
	<path style="fill:#FFFFFF;" d="M101.491,110.334v10.06c0,0,0.261,1.17-1.31,1.17h-7.336c-1.572,0-1.311-1.17-1.311-1.17v-10.06
		H101.491z"/>
	<path style="fill:#FFFFFF;" d="M112.781,110.334v10.06c0,0,0.262,1.17-1.311,1.17h-7.336c-1.571,0-1.311-1.17-1.311-1.17v-10.06
		H112.781z"/>
	<path style="fill:#FFFFFF;" d="M124.07,110.334v10.06c0,0,0.262,1.17-1.311,1.17h-7.335c-1.572,0-1.311-1.17-1.311-1.17v-10.06
		H124.07z"/>
	<path style="fill:#FFFFFF;" d="M67.623,134.23v-10.06c0,0,0.261-1.17-1.31-1.17h-7.336c-1.571,0-1.31,1.17-1.31,1.17v10.06H67.623z
		"/>
	<path style="fill:#FFFFFF;" d="M78.913,134.23v-10.06c0,0,0.261-1.17-1.31-1.17h-7.336c-1.571,0-1.31,1.17-1.31,1.17v10.06H78.913z
		"/>
	<path style="fill:#FFFFFF;" d="M90.202,134.23v-10.06c0,0,0.261-1.17-1.31-1.17h-7.336c-1.571,0-1.31,1.17-1.31,1.17v10.06H90.202z
		"/>
	<path style="fill:#FFFFFF;" d="M101.491,134.23v-10.06c0,0,0.261-1.17-1.31-1.17h-7.336c-1.572,0-1.311,1.17-1.311,1.17v10.06
		H101.491z"/>
	<path style="fill:#FFFFFF;" d="M112.781,134.23v-10.06c0,0,0.262-1.17-1.311-1.17h-7.336c-1.571,0-1.311,1.17-1.311,1.17v10.06
		H112.781z"/>
	<path style="fill:#FFFFFF;" d="M124.07,134.23v-10.06c0,0,0.262-1.17-1.311-1.17h-7.335c-1.572,0-1.311,1.17-1.311,1.17v10.06
		H124.07z"/>
</g>
<g id="ca3">
	<circle style="fill:#4C829A;" cx="124.497" cy="82.464" r="6.798"/>
	<circle style="fill:#003856;" cx="124.497" cy="82.464" r="2.871"/>
	
		<line style="fill:#003856;stroke:#003856;stroke-width:0.25;stroke-linecap:round;stroke-linejoin:round;" x1="124.497" y1="85.863" x2="124.497" y2="88.733"/>
	
		<line style="fill:#003856;stroke:#003856;stroke-width:0.25;stroke-linecap:round;stroke-linejoin:round;" x1="127.896" y1="82.464" x2="130.767" y2="82.464"/>
	
		<line style="fill:#003856;stroke:#003856;stroke-width:0.25;stroke-linecap:round;stroke-linejoin:round;" x1="124.497" y1="79.065" x2="124.497" y2="76.195"/>
	
		<line style="fill:#003856;stroke:#003856;stroke-width:0.25;stroke-linecap:round;stroke-linejoin:round;" x1="121.098" y1="82.464" x2="118.227" y2="82.464"/>
	
		<line style="fill:#003856;stroke:#003856;stroke-width:0.25;stroke-linecap:round;stroke-linejoin:round;" x1="126.9" y1="84.867" x2="128.93" y2="86.896"/>
	
		<line style="fill:#003856;stroke:#003856;stroke-width:0.25;stroke-linecap:round;stroke-linejoin:round;" x1="126.9" y1="80.061" x2="128.93" y2="78.031"/>
	
		<line style="fill:#003856;stroke:#003856;stroke-width:0.25;stroke-linecap:round;stroke-linejoin:round;" x1="122.094" y1="80.061" x2="120.064" y2="78.031"/>
	
		<line style="fill:#003856;stroke:#003856;stroke-width:0.25;stroke-linecap:round;stroke-linejoin:round;" x1="122.094" y1="84.867" x2="120.064" y2="86.896"/>
	
		<line style="fill:#003856;stroke:#003856;stroke-width:0.25;stroke-linecap:round;stroke-linejoin:round;" x1="127.612" y1="83.824" x2="130.242" y2="84.972"/>
	
		<line style="fill:#003856;stroke:#003856;stroke-width:0.25;stroke-linecap:round;stroke-linejoin:round;" x1="125.856" y1="79.349" x2="127.004" y2="76.718"/>
	
		<line style="fill:#003856;stroke:#003856;stroke-width:0.25;stroke-linecap:round;stroke-linejoin:round;" x1="121.382" y1="81.104" x2="118.751" y2="79.956"/>
	
		<line style="fill:#003856;stroke:#003856;stroke-width:0.25;stroke-linecap:round;stroke-linejoin:round;" x1="123.138" y1="85.579" x2="121.989" y2="88.211"/>
	
		<line style="fill:#003856;stroke:#003856;stroke-width:0.25;stroke-linecap:round;stroke-linejoin:round;" x1="127.66" y1="81.223" x2="130.333" y2="80.174"/>
	
		<line style="fill:#003856;stroke:#003856;stroke-width:0.25;stroke-linecap:round;stroke-linejoin:round;" x1="123.255" y1="79.3" x2="122.206" y2="76.628"/>
	
		<line style="fill:#003856;stroke:#003856;stroke-width:0.25;stroke-linecap:round;stroke-linejoin:round;" x1="121.333" y1="83.705" x2="118.66" y2="84.754"/>
	
		<line style="fill:#003856;stroke:#003856;stroke-width:0.25;stroke-linecap:round;stroke-linejoin:round;" x1="125.738" y1="85.628" x2="126.787" y2="88.301"/>
	<circle style="fill:#4C829A;" cx="55.497" cy="82.464" r="6.798"/>
	<circle style="fill:#003856;" cx="55.497" cy="82.464" r="2.87"/>
	
		<line style="fill:#003856;stroke:#003856;stroke-width:0.25;stroke-linecap:round;stroke-linejoin:round;" x1="55.498" y1="85.864" x2="55.498" y2="88.733"/>
	
		<line style="fill:#003856;stroke:#003856;stroke-width:0.25;stroke-linecap:round;stroke-linejoin:round;" x1="58.896" y1="82.464" x2="61.767" y2="82.464"/>
	
		<line style="fill:#003856;stroke:#003856;stroke-width:0.25;stroke-linecap:round;stroke-linejoin:round;" x1="55.498" y1="79.065" x2="55.498" y2="76.195"/>
	
		<line style="fill:#003856;stroke:#003856;stroke-width:0.25;stroke-linecap:round;stroke-linejoin:round;" x1="52.099" y1="82.464" x2="49.228" y2="82.464"/>
	
		<line style="fill:#003856;stroke:#003856;stroke-width:0.25;stroke-linecap:round;stroke-linejoin:round;" x1="57.9" y1="84.868" x2="59.93" y2="86.897"/>
	
		<line style="fill:#003856;stroke:#003856;stroke-width:0.25;stroke-linecap:round;stroke-linejoin:round;" x1="57.9" y1="80.061" x2="59.93" y2="78.031"/>
	
		<line style="fill:#003856;stroke:#003856;stroke-width:0.25;stroke-linecap:round;stroke-linejoin:round;" x1="53.094" y1="80.061" x2="51.064" y2="78.031"/>
	
		<line style="fill:#003856;stroke:#003856;stroke-width:0.25;stroke-linecap:round;stroke-linejoin:round;" x1="53.094" y1="84.868" x2="51.064" y2="86.897"/>
	
		<line style="fill:#003856;stroke:#003856;stroke-width:0.25;stroke-linecap:round;stroke-linejoin:round;" x1="58.612" y1="83.824" x2="61.243" y2="84.971"/>
	
		<line style="fill:#003856;stroke:#003856;stroke-width:0.25;stroke-linecap:round;stroke-linejoin:round;" x1="56.857" y1="79.349" x2="58.004" y2="76.717"/>
	
		<line style="fill:#003856;stroke:#003856;stroke-width:0.25;stroke-linecap:round;stroke-linejoin:round;" x1="52.382" y1="81.104" x2="49.751" y2="79.956"/>
	
		<line style="fill:#003856;stroke:#003856;stroke-width:0.25;stroke-linecap:round;stroke-linejoin:round;" x1="54.138" y1="85.579" x2="52.99" y2="88.21"/>
	
		<line style="fill:#003856;stroke:#003856;stroke-width:0.25;stroke-linecap:round;stroke-linejoin:round;" x1="58.661" y1="81.223" x2="61.333" y2="80.174"/>
	
		<line style="fill:#003856;stroke:#003856;stroke-width:0.25;stroke-linecap:round;stroke-linejoin:round;" x1="54.255" y1="79.299" x2="53.207" y2="76.627"/>
	
		<line style="fill:#003856;stroke:#003856;stroke-width:0.25;stroke-linecap:round;stroke-linejoin:round;" x1="52.334" y1="83.706" x2="49.661" y2="84.754"/>
	
		<line style="fill:#003856;stroke:#003856;stroke-width:0.25;stroke-linecap:round;stroke-linejoin:round;" x1="56.738" y1="85.627" x2="57.787" y2="88.3"/>
	<path style="fill:#8F82BC;" d="M90.75,134.75v-2c-18.75,0-24.75-12-33.75-12c9,0,15-5,33.75-5s25.75,5,34.75,5c-9,0-16,12-34.75,12
		V134.75h37.75V108.5H53.75v26.25H90.75z"/>
</g>
<g id="ca4">
	<path style="fill:#FFF100;" d="M44.333,143c0-8.963,0.136-19.012,7.333-19.012c-7.197,0-7.333-5.16-7.333-14.123
		c0,8.963-0.136,14.123-7.334,14.123C44.198,123.988,44.333,134.037,44.333,143z"/>
</g>
</svg>
