<?xml version="1.0" encoding="iso-8859-1"?>
<!-- Generator: Adobe Illustrator 18.1.1, SVG Export Plug-In . SVG Version: 6.00 Build 0)  -->
<svg version="1.1" xmlns="http://www.w3.org/2000/svg" xmlns:xlink="http://www.w3.org/1999/xlink" x="0px" y="0px"
	 viewBox="0 0 180 180" style="enable-background:new 0 0 180 180;" xml:space="preserve">
<g id="ca1">
	<rect style="fill:#009944;" width="180" height="180"/>
</g>
<g id="ca2">
	<g>
		<g>
			<path style="fill:#B3AAAF;stroke:#000000;" d="M99.262,170.746c0,1.981-3.715,3.587-8.297,3.587
				c-4.583,0-8.298-1.605-8.298-3.587"/>
			<path style="fill:#D3EDFB;stroke:#000000;" d="M111.497,135.291c0-18.104,11.466-29.269,11.466-29.269
				c11.649-9.545,19.084-24.948,19.084-41.185c0-28.745-23.302-52.047-52.047-52.047c-28.744,0-52.047,23.302-52.047,52.047
				c0,16.234,7.434,31.64,19.084,41.185c0,0,11.466,11.163,11.466,29.267"/>
			<path style="fill:#F0D53B;stroke:#000000;" d="M90.965,170.729c18.563,0,20.532-4.503,20.532-4.503v-3.094v-0.379l1.546-1.547
				l-1.546-1.545l1.546-1.547l-1.546-1.547l1.546-1.547l-1.546-1.547l1.546-1.547l-1.546-1.545l1.546-1.547l-1.546-1.548
				l1.546-1.547l-1.546-1.547l-42.994-0.001l-1.548,1.547l1.548,1.547l-1.548,1.547l1.548,1.547l-1.548,1.547l1.548,1.545
				l-1.548,1.547l1.548,1.547l-1.548,1.547l1.548,1.547l-1.548,1.545l1.548,1.547v0.379v3.094
				C68.503,166.224,72.402,170.729,90.965,170.729L90.965,170.729z"/>
			<line style="fill:#FFFFFF;stroke:#000000;" x1="68.503" y1="147.286" x2="111.497" y2="147.287"/>
			<line style="fill:#FFFFFF;stroke:#000000;" x1="68.503" y1="150.38" x2="111.497" y2="150.382"/>
			<line style="fill:#FFFFFF;stroke:#000000;" x1="68.503" y1="153.472" x2="111.497" y2="153.474"/>
			<line style="fill:#FFFFFF;stroke:#000000;" x1="68.503" y1="156.565" x2="111.497" y2="156.567"/>
			<line style="fill:#FFFFFF;stroke:#000000;" x1="68.503" y1="159.659" x2="111.497" y2="159.661"/>
			<line style="fill:#FFFFFF;stroke:#000000;" x1="68.503" y1="162.751" x2="111.497" y2="162.753"/>
			<rect x="68.503" y="135.29" style="fill:#F0D53B;stroke:#000000;" width="42.994" height="8.903"/>
		</g>
		<g>
			<path style="fill:#FFFFFF;stroke:#000000;" d="M90,73.65c0,8.939-6.399,14.615-14.291,14.615S61.418,82.59,61.418,73.65V58.951
				H90V73.65z"/>
			<path d="M82.367,72.874c0,4.166-2.98,5.972-6.658,5.972c-3.678,0-6.659-1.806-6.659-5.972V58.951h13.317V72.874z"/>
			<path style="fill:#FFFFFF;stroke:#000000;" d="M118.581,73.65c0,8.939-6.399,14.615-14.29,14.615S90,82.59,90,73.65V58.951
				h28.581V73.65z"/>
			<path d="M110.95,72.874c0,4.166-2.981,5.972-6.659,5.972c-3.678,0-6.659-1.806-6.659-5.972V58.951h13.318V72.874z"/>
		</g>
		<path style="fill:none;stroke:#000000;" d="M77.567,135.29V97.667c0-2.762,2.001-5,3.75-5c1.749,0,3.75,2.238,3.75,5
			s-0.418,5-2.167,5c-1.748,0-2.166-2.238-2.166-5s3.418-5,5.166-5c1.749,0,4.167,2.238,4.167,5s-0.418,5-2.167,5
			c-1.748,0-2.166-2.238-2.166-5s3.418-5,5.166-5c1.748,0,4.166,2.238,4.166,5s-0.418,5-2.166,5c-1.748,0-2.166-2.238-2.166-5
			s3.418-5,5.166-5c1.748,0,4.166,2.238,4.166,5s-0.418,5-2.166,5c-1.748,0-2.166-2.238-2.166-5s2.251-5,3.999-5
			s3.501,2.238,3.501,5v37.624"/>
	</g>
</g>
</svg>
