<?xml version="1.0" encoding="iso-8859-1"?>
<!-- Generator: Adobe Illustrator 18.1.1, SVG Export Plug-In . SVG Version: 6.00 Build 0)  -->
<svg version="1.1" id="Layer_1" xmlns="http://www.w3.org/2000/svg" xmlns:xlink="http://www.w3.org/1999/xlink" x="0px" y="0px"
	 viewBox="0 90 612 612" style="enable-background:new 0 90 612 612;" xml:space="preserve">
<g id="ca1">
	<rect y="90" style="fill:#FFFFFF;" width="612" height="612"/>
</g>
<g id="ca2">
	<path style="fill:none;stroke:#009944;stroke-linecap:round;stroke-linejoin:round;" d="M598.4,702c0,0-6.8-129.2-164.9-129.2h-255
		C20.4,572.8,13.6,702,13.6,702"/>
	<path style="fill:#FFFFFF;stroke:#009944;stroke-linecap:round;stroke-linejoin:round;" d="M527.065,509.121
		c0,71.067-98.42,128.68-219.824,128.68c-121.407,0-219.824-57.61-219.824-128.68"/>
	<path style="fill:none;stroke:#009944;stroke-linecap:round;stroke-linejoin:round;" d="M605.2,447.639
		c0,43.571-126.63,94.979-297.952,94.979c-171.319,0-297.949-51.405-297.949-94.979c0-58.375,25.854-111.826,80.424-111.826
		c0-92.218,100.776-160.847,217.525-160.847c116.753,0,217.529,68.629,217.529,160.847C579.343,335.81,605.2,389.265,605.2,447.639z
		"/>
	<path style="fill:none;stroke:#009944;stroke-linecap:round;stroke-linejoin:round;" d="M390.075,391.25
		c0,19.088-37.084,55.444-82.834,55.444s-82.834-36.353-82.834-55.444c0-19.091,37.087-34.568,82.834-34.568
		C352.988,356.679,390.075,372.156,390.075,391.25z"/>
	
		<line style="fill:none;stroke:#009944;stroke-linecap:round;stroke-linejoin:round;" x1="307.238" y1="446.691" x2="307.248" y2="542.615"/>
	<path style="fill:none;stroke:#009944;stroke-linecap:round;stroke-linejoin:round;" d="M125.457,298.417l111.326,23.61
		c0,0-3.709,31.477-24.738,34.85c-21.029,3.373-74.219-26.979-74.219-26.979L125.457,298.417z"/>
	<path style="fill:none;stroke:#009944;stroke-linecap:round;stroke-linejoin:round;" d="M492.102,298.417l-111.323,23.61
		c0,0,3.709,31.477,24.735,34.85c21.032,3.373,74.219-26.979,74.219-26.979L492.102,298.417z"/>
	<path style="fill:none;stroke:#009944;stroke-linecap:round;stroke-linejoin:round;" d="M237.636,416.199
		c24.113,0,41.303,4.74,41.303,25.888"/>
	<path style="fill:none;stroke:#009944;stroke-linecap:round;stroke-linejoin:round;" d="M376.842,416.199
		c-24.116,0-41.303,4.74-41.303,25.888"/>
	<path style="fill:none;stroke:#009944;stroke-linecap:round;stroke-linejoin:round;" d="M117.786,256.182
		c0,0-18.87-82.746-3.553-145.554c0,0,41.361,52.598,86.608,84.769"/>
	<path style="fill:none;stroke:#009944;stroke-linecap:round;stroke-linejoin:round;" d="M129.696,242.378
		c0,0-12.481-54.733-2.349-96.274c0,0,27.356,34.789,57.287,56.069"/>
	<path style="fill:none;stroke:#009944;stroke-linecap:round;stroke-linejoin:round;" d="M484.803,242.378
		c0,0,12.485-54.733,2.353-96.274c0,0-27.36,34.789-57.29,56.069"/>
	<path style="fill:none;stroke:#009944;stroke-linecap:round;stroke-linejoin:round;" d="M496.713,256.182
		c0,0,18.87-82.746,3.55-145.554c0,0-41.358,52.598-86.608,84.769"/>
	<path style="fill:none;stroke:#009944;stroke-linecap:round;stroke-linejoin:round;" d="M355.334,541.241
		c7.004,17.496,11.288,29.76,13.491,49.677c2.336,21.124,29.668,24.803,46.679,19.914c21.009-6.032,36.567-16.293,26.452-36.805
		c-12.478-25.32-40.457-36.815-40.457-36.815"/>
	<path style="fill:none;stroke:#009944;stroke-linecap:round;stroke-linejoin:round;" d="M380.831,539.358
		c0,0,32.12,40.021,32.12,53.808"/>
	<path style="fill:none;stroke:#009944;stroke-linecap:round;stroke-linejoin:round;" d="M154.292,527.76
		c0,0-7.079,43.411-16.609,52.938c0,0-12.645-27.683-12.645-59.84"/>
	<path style="fill:none;stroke:#009944;stroke-linecap:round;stroke-linejoin:round;" d="M460.207,527.76
		c0,0,7.079,43.411,16.609,52.938c0,0,12.645-27.683,12.645-59.84"/>
	<path style="fill:none;stroke:#009944;stroke-linecap:round;stroke-linejoin:round;" d="M261.307,290.96
		c0,0,21.447,32.167,21.447,52.085"/>
	<path style="fill:none;stroke:#009944;stroke-linecap:round;stroke-linejoin:round;" d="M282.754,278.707
		c0,0,13.787,44.424,13.787,65.872"/>
	<path style="fill:none;stroke:#009944;stroke-linecap:round;stroke-linejoin:round;" d="M353.223,290.96
		c0,0-21.447,32.167-21.447,52.085"/>
	<path style="fill:none;stroke:#009944;stroke-linecap:round;stroke-linejoin:round;" d="M331.775,278.707
		c0,0-13.79,44.424-13.79,65.872"/>
</g>
</svg>
