<?xml version="1.0" encoding="iso-8859-1"?>
<!-- Generator: Adobe Illustrator 18.1.1, SVG Export Plug-In . SVG Version: 6.00 Build 0)  -->
<svg version="1.1" xmlns="http://www.w3.org/2000/svg" xmlns:xlink="http://www.w3.org/1999/xlink" x="0px" y="0px"
	 viewBox="0 0 180 180" style="enable-background:new 0 0 180 180;" xml:space="preserve">
<g id="ca1">
	<rect style="fill:#FFF100;" width="180" height="180"/>
</g>
<g id="ca2">
	<g>
		<path style="fill:none;" d="M139.86,9.335c0.245-0.32,0.838-0.114,1.271,0.147c4.854,2.944,5.564,2.442,8.683,3.444
			c2.429,0.782,3.693,1.25,4.537,1.892c0.849,0.647,0.686,1.412,1.697,2.183c0.789,0.601,1.154,0.336,2.391,1.276
			c1.233,0.941,2.304,2.341,3.329,4.117c3.667,6.349,7.345,9.878,7.367,10.324c0.053,1.065-0.42,1.416-1.244,1.025
			c-12.428-5.885-15.851-5.777-18.61-7.987c-2.513-2.011-2.557-3.537-3.072-4.506c-1.157-2.182-5.763-9.898-6.164-10.29
			C139.289,10.228,139.662,9.595,139.86,9.335z M135.064,55.827c0.55-0.059,8.802-3.258,11.022-4.251
			c0.986-0.441,1.945-1.599,5.115-1.637c3.481-0.042,6.072,2.116,19.286,5.079c0.876,0.197,1.03,0.755,0.345,1.549
			c-0.288,0.335-5.282,0.844-11.976,3.55c-1.872,0.757-3.55,1.196-5.08,1.177c-1.527-0.018-1.652-0.446-2.628-0.457
			c-1.254-0.016-1.59,0.678-2.64,0.665c-1.045-0.012-2.311-0.417-4.671-1.28c-3.027-1.111-3.273-1.934-8.825-2.591
			c-0.497-0.059-1.081-0.257-1.076-0.655C133.941,56.655,134.033,55.938,135.064,55.827z M93.219,30.886
			c5.126-2.44,5.096-3.309,7.645-5.366c1.987-1.601,3.072-2.401,4.072-2.753c1.006-0.354,1.557,0.202,2.756-0.22
			c0.936-0.33,0.915-0.78,2.379-1.298c1.464-0.514,3.222-0.64,5.269-0.522c7.32,0.421,12.289-0.715,12.674-0.489
			c0.919,0.541,0.953,1.128,0.174,1.603c-11.742,7.155-13.531,10.075-16.894,11.169c-3.061,0.996-4.359,0.195-5.452,0.094
			c-2.459-0.23-11.438-0.619-11.984-0.498c-1.027,0.23-1.352-0.429-1.459-0.738C92.266,31.488,92.763,31.106,93.219,30.886z
			 M125.227,117.622c0.047,2.551,0.014,3.899-0.32,4.905c-0.336,1.013-1.113,1.106-1.515,2.313c-0.312,0.94,0.056,1.2-0.433,2.674
			c-0.491,1.473-1.469,2.938-2.816,4.483c-4.818,5.526-6.965,10.15-7.381,10.316c-0.99,0.394-1.475,0.06-1.372-0.845
			c1.541-13.664,0.33-16.867,1.526-20.194c1.089-3.029,2.518-3.565,3.268-4.366c1.689-1.802,7.498-8.658,7.738-9.166
			c0.447-0.951,1.166-0.804,1.477-0.7c0.383,0.128,0.379,0.755,0.272,1.25C124.459,113.838,125.164,114.347,125.227,117.622z
			 M115.738,98.899c-0.521,0.185-7.803,5.215-9.731,6.696c-0.857,0.658-1.521,2.007-4.595,2.781
			c-3.377,0.851-6.398-0.646-19.938-0.457c-0.898,0.013-1.178-0.494-0.696-1.427c0.203-0.393,4.942-2.049,10.823-6.236
			c1.645-1.171,3.175-1.988,4.667-2.325c1.49-0.338,1.711,0.049,2.662-0.167c1.223-0.276,1.389-1.029,2.413-1.261
			c1.019-0.23,2.344-0.132,4.84,0.16c3.202,0.377,3.634,1.119,9.186,0.468c0.497-0.059,1.111-0.001,1.199,0.387
			C116.639,97.833,116.715,98.552,115.738,98.899z M66.804,103.991c-0.397,0.965-1.241,1.992-2.916,3.866
			c-2.152,2.401-3.007,2.326-5.669,7.242c-0.239,0.439-0.639,0.909-1.007,0.758c-0.298-0.122-0.93-0.474-0.652-1.473
			c0.149-0.532,0.226-9.382,0.125-11.812c-0.045-1.08-0.767-2.399,0.37-5.358c1.248-3.25,4.211-4.859,11.849-16.042
			c0.507-0.742,1.082-0.678,1.567,0.252c0.205,0.392-1.168,5.221-1.129,12.441c0.012,2.018-0.201,3.74-0.784,5.155
			c-0.581,1.412-1.025,1.37-1.395,2.272C66.684,102.451,67.204,103.02,66.804,103.991z M68.418,61.145
			c-1.015-0.371-2.509-0.208-4.81-2.391c-2.526-2.396-2.88-5.749-10.294-17.081c-0.491-0.752-0.213-1.259,0.832-1.352
			c0.441-0.04,4.377,3.075,11.064,5.799c1.87,0.761,3.379,1.615,4.464,2.695c1.083,1.077,0.874,1.471,1.566,2.158
			c0.888,0.886,1.612,0.622,2.357,1.363c0.74,0.736,1.367,1.909,2.458,4.172c1.396,2.906,1,3.668,4.525,8.007
			c0.314,0.389,0.596,0.938,0.315,1.22c-0.226,0.229-0.793,0.678-1.61,0.04C78.85,65.436,70.703,61.981,68.418,61.145z
			 M72.24,133.105c0.117-0.427,4.411-3.027,9.3-8.34c1.367-1.486,2.694-2.603,4.085-3.241c1.388-0.638,1.684-0.305,2.57-0.713
			c1.139-0.523,1.146-1.294,2.1-1.732c0.949-0.436,2.266-0.613,4.768-0.845c3.212-0.294,3.787,0.345,9.085-1.441
			c0.474-0.159,1.087-0.231,1.253,0.131c0.135,0.292,0.357,0.979-0.525,1.522c-0.472,0.288-6.557,6.715-8.137,8.563
			c-0.703,0.821-1.072,2.278-3.922,3.671c-3.127,1.531-6.393,0.69-19.601,3.676C72.339,134.554,71.961,134.115,72.24,133.105z
			 M116.59,53.844c-1.145,1.663-2.304,2.954-3.591,3.781c-1.284,0.826-1.625,0.538-2.443,1.066c-1.057,0.678-0.954,1.441-1.838,2.01
			c-0.878,0.564-2.157,0.925-4.603,1.504c-3.139,0.74-3.797,0.189-8.792,2.701c-0.447,0.224-1.044,0.38-1.26,0.046
			c-0.175-0.271-0.491-0.921,0.307-1.581c0.427-0.352,5.55-7.567,6.856-9.62c0.581-0.912,0.742-2.406,3.368-4.185
			c2.882-1.952,6.232-1.579,18.893-6.386c0.84-0.319,1.275,0.062,1.142,1.103C124.573,44.722,120.685,47.898,116.59,53.844z
			 M94.202,71.939c3.481-0.042,6.072,2.116,19.286,5.079c0.876,0.197,1.03,0.755,0.345,1.549c-0.288,0.335-5.282,0.844-11.976,3.55
			c-1.872,0.757-3.55,1.196-5.08,1.177c-1.527-0.018-1.652-0.446-2.628-0.456c-1.254-0.016-1.59,0.678-2.64,0.665
			c-1.045-0.012-2.311-0.417-4.671-1.28c-3.027-1.111-3.273-1.934-8.825-2.591c-0.497-0.059-1.081-0.257-1.076-0.655
			c0.004-0.322,0.096-1.039,1.127-1.15c0.55-0.059,8.802-3.258,11.022-4.251C90.073,73.134,91.032,71.977,94.202,71.939z
			 M52.574,29.233c0.117-0.427,4.411-3.027,9.3-8.34c1.367-1.486,2.694-2.602,4.085-3.241c1.388-0.638,1.684-0.305,2.57-0.713
			c1.139-0.524,1.146-1.294,2.1-1.733c0.949-0.436,2.266-0.613,4.768-0.845c3.211-0.293,3.787,0.344,9.084-1.441
			c0.474-0.16,1.087-0.231,1.253,0.131c0.134,0.292,0.358,0.98-0.525,1.522c-0.472,0.288-6.556,6.715-8.137,8.564
			c-0.702,0.822-1.072,2.278-3.921,3.671c-3.128,1.53-6.394,0.69-19.602,3.676C52.673,30.683,52.295,30.245,52.574,29.233z
			 M62.113,143.292c0.402,0.987,0.073,1.475-0.834,1.379c-13.675-1.439-16.87-0.204-20.206-1.375
			c-3.036-1.066-3.583-2.492-4.39-3.235c-1.814-1.676-8.714-7.434-9.223-7.669c-0.955-0.441-0.813-1.161-0.712-1.472
			c0.126-0.383,0.753-0.385,1.249-0.282c5.555,1.171,6.059,0.462,9.333,0.375c2.551-0.065,3.898-0.044,4.907,0.283
			c1.015,0.328,1.115,1.105,2.324,1.498c0.943,0.306,1.201-0.065,2.678,0.412c1.475,0.48,2.949,1.446,4.504,2.782
			C57.306,140.766,61.944,142.879,62.113,143.292z M49.77,72.07c0.967,0.448,1.058,1.03,0.329,1.578
			c-10.99,8.265-12.486,11.345-15.726,12.761c-2.949,1.288-4.32,0.618-5.417,0.624c-2.47,0.01-11.443,0.498-11.976,0.671
			c-1,0.329-1.387-0.296-1.524-0.592c-0.169-0.366,0.288-0.795,0.721-1.057c4.864-2.928,4.749-3.79,7.086-6.085
			c1.822-1.786,2.824-2.688,3.785-3.137c0.967-0.451,1.569,0.05,2.722-0.487c0.899-0.42,0.834-0.866,2.241-1.523
			c1.407-0.654,3.144-0.95,5.192-1.033C44.53,73.497,49.364,71.883,49.77,72.07z M14.472,21.743c-2.722-1.72-2.936-3.23-3.555-4.137
			c-1.394-2.039-6.829-9.195-7.273-9.539C2.812,7.424,3.112,6.755,3.28,6.474C3.488,6.127,4.1,6.267,4.56,6.479
			c5.152,2.385,5.802,1.806,9.013,2.455c2.5,0.507,3.809,0.83,4.72,1.375c0.915,0.547,0.839,1.326,1.93,1.979
			c0.851,0.509,1.185,0.205,2.517,1.002c1.332,0.798,2.551,2.07,3.768,3.72c4.352,5.901,8.399,8.998,8.472,9.44
			c0.171,1.052-0.26,1.452-1.122,1.156C20.85,23.143,17.461,23.631,14.472,21.743z M5.975,57.085
			c-0.868-0.231-0.999-0.795-0.284-1.561c0.302-0.324,5.312-0.635,12.108-3.073c1.9-0.682,3.594-1.055,5.123-0.975
			c1.526,0.079,1.633,0.511,2.608,0.56c1.252,0.065,1.615-0.615,2.664-0.56c1.043,0.054,2.292,0.508,4.616,1.464
			c2.981,1.23,3.194,2.062,8.716,2.938c0.494,0.078,1.07,0.299,1.049,0.697c-0.017,0.321-0.138,1.034-1.172,1.105
			c-0.551,0.036-8.923,2.906-11.182,3.81c-1.003,0.402-2.007,1.521-5.177,1.433C21.563,62.829,19.06,60.569,5.975,57.085z
			 M12.262,135.314c-0.99,0.394-1.474,0.06-1.372-0.845c1.541-13.664,0.33-16.867,1.526-20.194c1.089-3.029,2.518-3.565,3.269-4.366
			c1.689-1.802,7.498-8.658,7.737-9.166c0.448-0.951,1.166-0.804,1.477-0.7c0.383,0.128,0.379,0.755,0.273,1.25
			c-1.212,5.546-0.506,6.055-0.445,9.33c0.047,2.551,0.015,3.899-0.32,4.905c-0.336,1.013-1.113,1.106-1.514,2.313
			c-0.312,0.94,0.056,1.2-0.433,2.674c-0.491,1.473-1.469,2.938-2.815,4.483C14.824,130.524,12.678,135.148,12.262,135.314z
			 M40.639,173.544c-12.045-6.633-15.468-6.734-18.088-9.108c-2.385-2.161-2.336-3.687-2.792-4.684
			c-1.021-2.248-5.147-10.232-5.524-10.649c-0.709-0.775-0.299-1.384-0.085-1.632c0.264-0.304,0.843-0.064,1.26,0.225
			c4.665,3.234,5.404,2.776,8.456,3.967c2.376,0.93,3.61,1.474,4.413,2.166c0.808,0.696,0.598,1.451,1.56,2.282
			c0.751,0.648,1.132,0.405,2.309,1.419c1.173,1.015,2.156,2.478,3.071,4.312c3.272,6.562,6.728,10.308,6.723,10.755
			C41.931,173.662,41.438,173.984,40.639,173.544z M73.048,160.751c-0.783,1.861-1.655,3.36-2.748,4.432
			c-1.09,1.07-1.481,0.857-2.177,1.541c-0.896,0.878-0.641,1.605-1.391,2.341c-0.745,0.731-1.925,1.344-4.201,2.408
			c-2.923,1.362-3.68,0.957-8.061,4.43c-0.392,0.311-0.945,0.585-1.224,0.301c-0.226-0.229-0.668-0.801-0.021-1.61
			c0.346-0.431,3.897-8.537,4.76-10.812c0.383-1.011,0.238-2.507,2.447-4.781c2.426-2.498,5.783-2.812,17.202-10.091
			c0.758-0.482,1.262-0.198,1.342,0.848C79.012,150.198,75.851,154.098,73.048,160.751z M127.878,156.82
			c-13.183,3.906-15.66,6.27-19.191,6.466c-3.213,0.178-4.264-0.929-5.294-1.307c-2.317-0.854-10.896-3.529-11.456-3.553
			c-1.052-0.041-1.197-0.761-1.222-1.087c-0.031-0.401,0.548-0.643,1.045-0.738c5.58-1.045,5.773-1.894,8.765-3.228
			c2.332-1.038,3.586-1.534,4.643-1.617c1.063-0.086,1.453,0.593,2.72,0.492c0.989-0.079,1.085-0.519,2.633-0.644
			c1.546-0.121,3.277,0.207,5.226,0.845c6.968,2.284,12.062,2.459,12.376,2.776C128.871,155.984,128.754,156.561,127.878,156.82z
			 M126.26,78.283c-1.021-2.248-5.146-10.232-5.523-10.648c-0.71-0.775-0.299-1.384-0.086-1.632
			c0.265-0.304,0.844-0.063,1.261,0.225c4.665,3.234,5.403,2.776,8.456,3.967c2.377,0.93,3.609,1.474,4.413,2.166
			c0.808,0.696,0.599,1.451,1.56,2.282c0.751,0.648,1.132,0.405,2.309,1.419c1.173,1.015,2.156,2.478,3.071,4.312
			c3.272,6.562,6.727,10.308,6.723,10.755c-0.012,1.065-0.506,1.388-1.305,0.947c-12.045-6.633-15.468-6.734-18.088-9.108
			C126.666,80.807,126.715,79.281,126.26,78.283z M133.653,100.275c0.047-0.4,0.661-0.526,1.167-0.524
			c5.677,0.043,6.029-0.752,9.222-1.489c2.486-0.571,3.812-0.817,4.865-0.698c1.061,0.12,1.312,0.861,2.576,1.005
			c0.985,0.112,1.163-0.302,2.706-0.128c1.542,0.177,3.178,0.831,4.968,1.831c6.401,3.575,11.367,4.723,11.615,5.095
			c0.591,0.888,0.364,1.431-0.543,1.518c-13.688,1.31-16.573,3.155-20.075,2.671c-3.189-0.44-4.008-1.729-4.946-2.297
			c-2.111-1.281-10.018-5.551-10.564-5.682C133.62,101.335,133.616,100.601,133.653,100.275z M136.191,128.024
			c0.302-0.324,5.312-0.636,12.107-3.073c1.9-0.682,3.594-1.055,5.123-0.975c1.525,0.078,1.633,0.512,2.607,0.561
			c1.252,0.064,1.615-0.615,2.664-0.561c1.043,0.055,2.292,0.509,4.615,1.465c2.981,1.23,3.195,2.062,8.717,2.938
			c0.493,0.078,1.069,0.3,1.049,0.697c-0.017,0.321-0.138,1.034-1.172,1.104c-0.551,0.037-8.924,2.906-11.182,3.811
			c-1.004,0.402-2.007,1.52-5.177,1.433c-3.48-0.096-5.983-2.355-19.069-5.839C135.607,129.354,135.475,128.791,136.191,128.024z
			 M139.474,165.92c-0.898,0.013-1.178-0.494-0.696-1.427c0.203-0.393,4.941-2.049,10.823-6.236
			c1.645-1.171,3.175-1.988,4.667-2.325c1.49-0.338,1.711,0.049,2.662-0.167c1.223-0.276,1.389-1.029,2.413-1.261
			c1.019-0.23,2.344-0.132,4.84,0.16c3.202,0.377,3.634,1.119,9.186,0.468c0.497-0.059,1.111-0.001,1.199,0.387
			c0.071,0.314,0.147,1.033-0.829,1.381c-0.521,0.185-7.803,5.215-9.732,6.696c-0.857,0.658-1.52,2.007-4.595,2.781
			C156.035,167.227,153.014,165.73,139.474,165.92z"/>
		<path style="fill:#EE87B4;" d="M173.738,156.899c0.977-0.348,0.9-1.066,0.829-1.381c-0.088-0.388-0.702-0.445-1.199-0.387
			c-5.552,0.651-5.983-0.091-9.186-0.468c-2.496-0.292-3.821-0.391-4.84-0.16c-1.024,0.231-1.19,0.984-2.413,1.261
			c-0.951,0.216-1.172-0.171-2.662,0.167c-1.492,0.337-3.022,1.154-4.667,2.325c-5.882,4.188-10.62,5.844-10.823,6.236
			c-0.481,0.933-0.202,1.439,0.696,1.427c13.54-0.189,16.562,1.308,19.938,0.457c3.074-0.775,3.737-2.123,4.595-2.781
			C165.936,162.114,173.218,157.084,173.738,156.899z"/>
		<path style="fill:#EE87B4;" d="M115.368,97.132c-5.552,0.651-5.983-0.091-9.186-0.468c-2.496-0.292-3.821-0.391-4.84-0.16
			c-1.024,0.231-1.19,0.984-2.413,1.261c-0.951,0.216-1.172-0.171-2.662,0.167c-1.492,0.337-3.022,1.154-4.667,2.325
			c-5.882,4.188-10.62,5.844-10.823,6.236c-0.481,0.933-0.202,1.439,0.696,1.427c13.54-0.189,16.562,1.308,19.938,0.457
			c3.074-0.774,3.737-2.123,4.595-2.781c1.929-1.481,9.211-6.512,9.731-6.696c0.977-0.348,0.9-1.066,0.829-1.381
			C116.479,97.131,115.865,97.073,115.368,97.132z"/>
		<path style="fill:#EE87B4;" d="M177.768,168.432c-1.492,0.337-3.022,1.154-4.667,2.325c-5.882,4.188-10.62,5.844-10.823,6.236
			c-0.481,0.933-0.202,1.439,0.696,1.427c9.84-0.138,14.123,0.614,17.026,0.71v-10.805
			C179.37,168.365,179.003,168.151,177.768,168.432z"/>
		<path style="fill:#EE87B4;" d="M10.238,101.399c0.976-0.348,0.9-1.066,0.829-1.381c-0.088-0.388-0.702-0.445-1.199-0.387
			c-5.552,0.651-5.983-0.091-9.186-0.468C0.441,99.136,0.22,99.111,0,99.087v9.473c0.173-0.173,0.338-0.334,0.507-0.464
			C2.435,106.614,9.718,101.584,10.238,101.399z"/>
		<path style="fill:#EE87B4;" d="M77.636,148.909c-11.419,7.278-14.776,7.593-17.202,10.091c-2.209,2.274-2.065,3.77-2.447,4.781
			c-0.862,2.274-4.414,10.381-4.76,10.812c-0.648,0.809-0.205,1.381,0.021,1.61c0.279,0.284,0.832,0.01,1.224-0.301
			c4.381-3.473,5.138-3.067,8.061-4.43c2.276-1.064,3.456-1.677,4.201-2.408c0.75-0.735,0.495-1.463,1.391-2.341
			c0.695-0.684,1.087-0.471,2.177-1.541c1.093-1.071,1.965-2.57,2.748-4.432c2.803-6.653,5.964-10.553,5.93-10.994
			C78.897,148.711,78.394,148.427,77.636,148.909z"/>
		<path style="fill:#EE87B4;" d="M135.014,57.632c5.552,0.657,5.798,1.479,8.825,2.591c2.36,0.863,3.626,1.268,4.671,1.28
			c1.05,0.013,1.386-0.681,2.64-0.665c0.976,0.011,1.101,0.438,2.628,0.457c1.53,0.019,3.208-0.42,5.08-1.177
			c6.693-2.706,11.688-3.214,11.976-3.55c0.686-0.794,0.531-1.352-0.345-1.549c-13.214-2.962-15.805-5.121-19.286-5.079
			c-3.17,0.038-4.129,1.195-5.115,1.637c-2.221,0.993-10.473,4.192-11.022,4.251c-1.031,0.111-1.123,0.828-1.127,1.15
			C133.933,57.375,134.517,57.573,135.014,57.632z"/>
		<path style="fill:#EE87B4;" d="M76.938,78.977c-0.005,0.398,0.579,0.596,1.076,0.655c5.552,0.657,5.798,1.479,8.825,2.591
			c2.36,0.863,3.626,1.267,4.671,1.28c1.05,0.013,1.386-0.681,2.64-0.665c0.976,0.011,1.101,0.438,2.628,0.456
			c1.53,0.019,3.208-0.42,5.08-1.177c6.693-2.706,11.688-3.214,11.976-3.55c0.686-0.794,0.531-1.352-0.345-1.549
			c-13.214-2.962-15.805-5.121-19.286-5.079c-3.17,0.038-4.129,1.195-5.115,1.637c-2.221,0.993-10.473,4.192-11.022,4.251
			C77.033,77.938,76.941,78.655,76.938,78.977z"/>
		<path style="fill:#EE87B4;" d="M14.333,36.067c0.686-0.794,0.531-1.352-0.345-1.549C6.796,32.905,2.754,31.532,0,30.622v9.786
			c0.753-0.198,1.533-0.457,2.357-0.791C9.051,36.911,14.045,36.402,14.333,36.067z"/>
		<path style="fill:#EE87B4;" d="M18.988,176.018C6.154,173.14,3.341,171.021,0,170.941V180h10.375
			c5.126-1.739,8.716-2.15,8.958-2.434C20.019,176.773,19.864,176.215,18.988,176.018z"/>
		<path style="fill:#EE87B4;" d="M68.557,99.02c0.584-1.415,0.796-3.137,0.784-5.155c-0.039-7.22,1.334-12.048,1.129-12.441
			c-0.485-0.93-1.06-0.994-1.567-0.252c-7.637,11.183-10.601,12.792-11.849,16.042c-1.137,2.96-0.416,4.278-0.37,5.358
			c0.101,2.431,0.024,11.28-0.125,11.812c-0.277,0.999,0.354,1.351,0.652,1.473c0.368,0.151,0.768-0.318,1.007-0.758
			c2.662-4.916,3.518-4.841,5.669-7.242c1.674-1.874,2.518-2.901,2.916-3.866c0.4-0.972-0.12-1.54,0.358-2.699
			C67.532,100.39,67.976,100.432,68.557,99.02z"/>
		<path style="fill:#EE87B4;" d="M80.895,65.737c0.281-0.283,0-0.831-0.315-1.22c-3.525-4.339-3.128-5.101-4.525-8.007
			c-1.091-2.264-1.718-3.436-2.458-4.172c-0.745-0.741-1.469-0.478-2.357-1.363c-0.692-0.687-0.484-1.081-1.566-2.158
			c-1.084-1.08-2.594-1.935-4.464-2.695c-6.687-2.724-10.623-5.839-11.064-5.799c-1.045,0.093-1.323,0.6-0.832,1.352
			c7.414,11.332,7.768,14.686,10.294,17.081c2.3,2.182,3.794,2.02,4.81,2.391c2.285,0.836,10.433,4.291,10.868,4.631
			C80.102,66.415,80.669,65.965,80.895,65.737z"/>
		<path style="fill:#EE87B4;" d="M123.487,43.18c-12.66,4.808-16.011,4.434-18.893,6.386c-2.626,1.779-2.787,3.273-3.368,4.185
			c-1.307,2.053-6.43,9.267-6.856,9.62c-0.798,0.66-0.481,1.31-0.307,1.581c0.216,0.335,0.812,0.178,1.26-0.046
			c4.995-2.512,5.653-1.961,8.792-2.701c2.445-0.58,3.725-0.941,4.603-1.504c0.884-0.568,0.781-1.332,1.838-2.01
			c0.818-0.529,1.159-0.241,2.443-1.066c1.287-0.827,2.446-2.118,3.591-3.781c4.096-5.946,7.983-9.122,8.039-9.561
			C124.763,43.243,124.327,42.861,123.487,43.18z"/>
		<path style="fill:#EE87B4;" d="M53.549,30.485c13.208-2.986,16.474-2.146,19.602-3.676c2.849-1.393,3.219-2.85,3.921-3.671
			c1.581-1.848,7.665-8.275,8.137-8.564c0.883-0.543,0.66-1.23,0.525-1.522c-0.166-0.362-0.779-0.291-1.253-0.131
			c-5.298,1.786-5.873,1.148-9.084,1.441c-2.502,0.231-3.819,0.409-4.768,0.845c-0.955,0.439-0.961,1.209-2.1,1.733
			c-0.886,0.408-1.182,0.075-2.57,0.713c-1.391,0.639-2.718,1.754-4.085,3.241c-4.889,5.312-9.183,7.913-9.3,8.34
			C52.295,30.245,52.673,30.683,53.549,30.485z"/>
		<path style="fill:#EE87B4;" d="M73.215,134.355c13.208-2.985,16.474-2.145,19.601-3.676c2.85-1.393,3.219-2.85,3.922-3.671
			c1.58-1.849,7.665-8.275,8.137-8.563c0.883-0.543,0.66-1.23,0.525-1.522c-0.166-0.362-0.779-0.29-1.253-0.131
			c-5.298,1.786-5.873,1.147-9.085,1.441c-2.502,0.231-3.818,0.409-4.768,0.845c-0.955,0.438-0.961,1.209-2.1,1.732
			c-0.886,0.408-1.182,0.075-2.57,0.713c-1.391,0.639-2.718,1.755-4.085,3.241c-4.889,5.312-9.183,7.913-9.3,8.34
			C71.961,134.115,72.339,134.554,73.215,134.355z"/>
		<path style="fill:#EE87B4;" d="M30.221,61.492c2.258-0.903,10.63-3.773,11.182-3.81c1.034-0.071,1.155-0.784,1.172-1.105
			c0.021-0.398-0.556-0.619-1.049-0.697c-5.521-0.876-5.735-1.708-8.716-2.938c-2.324-0.956-3.573-1.41-4.616-1.464
			c-1.049-0.055-1.412,0.625-2.664,0.56c-0.975-0.049-1.082-0.482-2.608-0.56c-1.529-0.08-3.222,0.293-5.123,0.975
			C11.003,54.889,5.993,55.2,5.691,55.524c-0.716,0.766-0.584,1.33,0.284,1.561c13.086,3.484,15.589,5.744,19.069,5.839
			C28.214,63.013,29.217,61.894,30.221,61.492z"/>
		<path style="fill:#EE87B4;" d="M160.721,133.992c2.258-0.904,10.631-3.773,11.182-3.811c1.034-0.07,1.155-0.783,1.172-1.104
			c0.021-0.397-0.556-0.619-1.049-0.697c-5.521-0.876-5.735-1.708-8.717-2.938c-2.323-0.956-3.572-1.41-4.615-1.465
			c-1.049-0.055-1.412,0.625-2.664,0.561c-0.975-0.049-1.082-0.482-2.607-0.561c-1.529-0.08-3.223,0.293-5.123,0.975
			c-6.795,2.438-11.806,2.749-12.107,3.073c-0.717,0.767-0.584,1.329,0.283,1.562c13.086,3.483,15.589,5.743,19.069,5.839
			C158.714,135.513,159.717,134.395,160.721,133.992z"/>
		<path style="fill:#EE87B4;" d="M34.978,26.45c-0.072-0.442-4.12-3.539-8.472-9.44c-1.217-1.649-2.436-2.922-3.768-3.72
			c-1.332-0.797-1.666-0.493-2.517-1.002c-1.091-0.653-1.015-1.433-1.93-1.979c-0.91-0.545-2.22-0.868-4.72-1.375
			c-3.211-0.649-3.86-0.07-9.013-2.455C4.1,6.267,3.488,6.127,3.28,6.474c-0.168,0.281-0.468,0.95,0.364,1.594
			c0.443,0.344,5.879,7.5,7.273,9.539c0.619,0.906,0.833,2.417,3.555,4.137c2.989,1.888,6.378,1.399,19.384,5.863
			C34.718,27.902,35.148,27.502,34.978,26.45z"/>
		<path style="fill:#EE87B4;" d="M48.868,11.902C49.066,11.517,47.754,6.925,47.669,0h-9.773c1.9,2.26,4.824,5.56,9.382,12.166
			C47.796,12.916,48.38,12.85,48.868,11.902z"/>
		<path style="fill:#EE87B4;" d="M22.458,120.515c0.489-1.474,0.121-1.733,0.433-2.674c0.401-1.207,1.179-1.301,1.514-2.313
			c0.335-1.006,0.367-2.354,0.32-4.905c-0.062-3.275-0.768-3.784,0.445-9.33c0.107-0.495,0.111-1.122-0.273-1.25
			c-0.311-0.104-1.029-0.251-1.477,0.7c-0.24,0.508-6.048,7.364-7.737,9.166c-0.751,0.801-2.179,1.337-3.269,4.366
			c-1.196,3.327,0.015,6.53-1.526,20.194c-0.102,0.905,0.382,1.239,1.372,0.845c0.416-0.166,2.562-4.789,7.381-10.316
			C20.99,123.453,21.968,121.987,22.458,120.515z"/>
		<path style="fill:#EE87B4;" d="M103.454,13.314c0.416-0.166,2.562-4.789,7.382-10.316c0.894-1.026,1.607-2.017,2.142-2.998
			h-10.028c-0.059,2.833-0.22,6.725-0.867,12.469C101.98,13.374,102.464,13.708,103.454,13.314z"/>
		<path style="fill:#EE87B4;" d="M125.398,107.042c-0.311-0.104-1.029-0.251-1.477,0.7c-0.24,0.508-6.049,7.364-7.738,9.166
			c-0.75,0.801-2.179,1.337-3.268,4.366c-1.196,3.327,0.015,6.53-1.526,20.194c-0.103,0.905,0.382,1.239,1.372,0.845
			c0.416-0.166,2.562-4.789,7.381-10.316c1.348-1.545,2.325-3.011,2.816-4.483c0.488-1.474,0.12-1.733,0.433-2.674
			c0.401-1.207,1.179-1.301,1.515-2.313c0.334-1.006,0.367-2.354,0.32-4.905c-0.062-3.275-0.768-3.784,0.444-9.33
			C125.777,107.797,125.781,107.17,125.398,107.042z"/>
		<path style="fill:#EE87B4;" d="M150.154,109.555c3.502,0.484,6.387-1.361,20.075-2.671c0.907-0.087,1.134-0.63,0.543-1.518
			c-0.248-0.372-5.214-1.52-11.615-5.095c-1.79-1-3.426-1.654-4.968-1.831c-1.543-0.174-1.721,0.24-2.706,0.128
			c-1.264-0.144-1.516-0.885-2.576-1.005c-1.053-0.119-2.379,0.127-4.865,0.698c-3.192,0.737-3.545,1.532-9.222,1.489
			c-0.506-0.002-1.12,0.124-1.167,0.524c-0.037,0.325-0.033,1.06,0.99,1.301c0.546,0.131,8.453,4.4,10.564,5.682
			C146.146,107.826,146.966,109.114,150.154,109.555z"/>
		<path style="fill:#EE87B4;" d="M146.209,21.25c0.516,0.969,0.56,2.495,3.072,4.506c2.76,2.209,6.183,2.101,18.61,7.987
			c0.824,0.39,1.297,0.04,1.244-1.025c-0.022-0.446-3.7-3.975-7.367-10.324c-1.025-1.775-2.096-3.175-3.329-4.117
			c-1.236-0.939-1.602-0.675-2.391-1.276c-1.012-0.77-0.849-1.536-1.697-2.183c-0.844-0.642-2.108-1.109-4.537-1.892
			c-3.119-1.002-3.829-0.5-8.683-3.444c-0.434-0.261-1.026-0.467-1.271-0.147c-0.198,0.26-0.571,0.893,0.184,1.625
			C140.446,11.351,145.052,19.068,146.209,21.25z"/>
		<path style="fill:#EE87B4;" d="M124.746,178.697c-1.012-0.77-0.849-1.536-1.697-2.183c-0.844-0.642-2.108-1.109-4.537-1.892
			c-3.119-1.002-3.829-0.5-8.683-3.443c-0.434-0.262-1.026-0.467-1.271-0.148c-0.198,0.261-0.571,0.894,0.185,1.624
			c0.286,0.28,2.706,4.278,4.493,7.344h13.933c-0.011-0.008-0.021-0.02-0.031-0.027C125.9,179.033,125.535,179.299,124.746,178.697z
			"/>
		<path style="fill:#EE87B4;" d="M93.857,32.606c0.547-0.121,9.525,0.268,11.984,0.498c1.093,0.101,2.392,0.902,5.452-0.094
			c3.362-1.094,5.151-4.014,16.894-11.169c0.779-0.475,0.745-1.062-0.174-1.603c-0.385-0.226-5.354,0.91-12.674,0.489
			c-2.047-0.118-3.805,0.008-5.269,0.522c-1.464,0.518-1.443,0.968-2.379,1.298c-1.199,0.422-1.75-0.134-2.756,0.22
			c-1,0.353-2.085,1.153-4.072,2.753c-2.55,2.057-2.52,2.926-7.645,5.366c-0.456,0.219-0.953,0.602-0.82,0.982
			C92.506,32.177,92.83,32.836,93.857,32.606z"/>
		<path style="fill:#EE87B4;" d="M164.398,4.868c0.107,0.309,0.432,0.968,1.459,0.738c0.547-0.121,9.525,0.268,11.984,0.498
			c0.58,0.054,1.229,0.299,2.158,0.374V0h-8.81c-1.246,1.171-2.251,2.115-5.972,3.886C164.763,4.106,164.266,4.488,164.398,4.868z"
			/>
		<path style="fill:#EE87B4;" d="M115.745,152.449c-1.948-0.638-3.68-0.966-5.226-0.845c-1.548,0.125-1.644,0.565-2.633,0.644
			c-1.267,0.101-1.656-0.578-2.72-0.492c-1.057,0.083-2.311,0.579-4.643,1.617c-2.991,1.334-3.185,2.183-8.765,3.228
			c-0.497,0.095-1.076,0.337-1.045,0.738c0.025,0.326,0.17,1.046,1.222,1.087c0.56,0.023,9.139,2.699,11.456,3.553
			c1.03,0.378,2.081,1.484,5.294,1.307c3.531-0.196,6.009-2.56,19.191-6.466c0.876-0.26,0.993-0.836,0.243-1.595
			C127.808,154.908,122.713,154.733,115.745,152.449z"/>
		<path style="fill:#EE87B4;" d="M32.011,74.823c-1.407,0.658-1.342,1.104-2.241,1.523c-1.152,0.537-1.755,0.037-2.722,0.487
			c-0.961,0.448-1.962,1.351-3.785,3.137c-2.337,2.295-2.223,3.157-7.086,6.085c-0.433,0.262-0.89,0.691-0.721,1.057
			c0.137,0.296,0.524,0.921,1.524,0.592c0.533-0.173,9.506-0.662,11.976-0.671c1.097-0.006,2.468,0.664,5.417-0.624
			c3.24-1.416,4.736-4.497,15.726-12.761c0.729-0.548,0.638-1.13-0.329-1.578c-0.405-0.188-5.24,1.427-12.566,1.72
			C35.155,73.873,33.417,74.169,32.011,74.823z"/>
		<path style="fill:#EE87B4;" d="M175.27,73.347c-1.152,0.537-1.755,0.037-2.722,0.487c-0.961,0.448-1.962,1.351-3.784,3.137
			c-2.338,2.295-2.223,3.157-7.087,6.085c-0.433,0.262-0.89,0.691-0.722,1.057c0.138,0.296,0.524,0.921,1.524,0.592
			c0.532-0.173,9.507-0.662,11.976-0.671c1.098-0.006,2.469,0.664,5.418-0.624c0.044-0.019,0.084-0.042,0.127-0.062V71.073
			c-0.917,0.167-1.751,0.407-2.489,0.75C176.104,72.481,176.168,72.927,175.27,73.347z"/>
		<path style="fill:#EE87B4;" d="M44.561,132.794c-1.209-0.393-1.309-1.17-2.324-1.498c-1.009-0.327-2.356-0.349-4.907-0.283
			c-3.274,0.087-3.778,0.796-9.333-0.375c-0.496-0.102-1.123-0.101-1.249,0.282c-0.101,0.311-0.243,1.03,0.712,1.472
			c0.508,0.235,7.409,5.993,9.223,7.669c0.807,0.743,1.353,2.169,4.39,3.235c3.336,1.171,6.531-0.064,20.206,1.375
			c0.908,0.096,1.237-0.392,0.834-1.379c-0.168-0.413-4.807-2.526-10.37-7.304c-1.555-1.336-3.029-2.302-4.504-2.782
			C45.762,132.729,45.504,133.1,44.561,132.794z"/>
		<path style="fill:#EE87B4;" d="M32.149,157.529c-1.177-1.014-1.558-0.77-2.309-1.419c-0.962-0.831-0.753-1.586-1.56-2.282
			c-0.803-0.692-2.037-1.236-4.413-2.166c-3.052-1.19-3.792-0.732-8.456-3.967c-0.417-0.288-0.996-0.528-1.26-0.225
			c-0.214,0.248-0.625,0.856,0.085,1.632c0.377,0.416,4.503,8.4,5.524,10.649c0.455,0.998,0.406,2.523,2.792,4.684
			c2.62,2.374,6.042,2.476,18.088,9.108c0.799,0.441,1.292,0.118,1.304-0.947c0.005-0.447-3.45-4.193-6.723-10.755
			C34.306,160.007,33.323,158.544,32.149,157.529z"/>
		<path style="fill:#EE87B4;" d="M148.443,91.129c0.005-0.447-3.45-4.193-6.723-10.755c-0.915-1.835-1.898-3.298-3.071-4.312
			c-1.177-1.014-1.558-0.771-2.309-1.419c-0.962-0.831-0.753-1.586-1.56-2.282c-0.804-0.692-2.036-1.236-4.413-2.166
			c-3.053-1.19-3.791-0.732-8.456-3.967c-0.417-0.288-0.996-0.528-1.261-0.225c-0.213,0.248-0.624,0.857,0.086,1.632
			c0.377,0.416,4.502,8.4,5.523,10.648c0.455,0.998,0.406,2.523,2.791,4.685c2.62,2.374,6.043,2.476,18.088,9.108
			C147.938,92.517,148.432,92.194,148.443,91.129z"/>
	</g>
</g>
<g id="ca3">
	<path style="fill:#E6002D;stroke:#000000;" d="M90,137.409c14.667,0,36.667-15,40.999-6.667
		c4.334,8.333-22.665,13.667-40.999,13.667c-18.334,0-45.333-5.334-41-13.667S75.333,137.409,90,137.409z"/>
	<path style="fill:#BAE3F9;stroke:#000000;" d="M66.234,141.319c-1.238-2.025-2.234-2.569-7.859-4.569
		c-5.971-2.123-7.083-1.848-7.961-0.969C49.535,136.66,50,148.617,50,150.719c0,2.102,0.534,8.856,2.485,8.856
		c1.952,0,0.901-3.753,1.952-3.753c1.05,0-0.15,7.355,2.702,7.355c2.552,0,1.9-5.404,3.401-5.404c1.501,0,0.085,7.58,3.327,7.58
		C66.375,165.354,67.567,143.5,66.234,141.319z"/>
	<path style="fill:#814200;stroke:#000000;" d="M170.395,52.707l-8.45,1.025c0,0-15.495-4.015-30.283-2.221
		c-14.789,1.794-28.874,9.399-28.874,9.399l-8.258,2.61l-5.546,0.673l-5.546,0.673l-8.643-0.559c0,0-15.493-4.016-30.282-2.221
		c-14.79,1.794-28.873,9.399-28.873,9.399l-8.451,1.026l0.577,4.753l9.477,7.427c0,0,7.204,15.205,31.5,12.256
		c24.296-2.949,26.776-13.434,28.168-15.211c1.392-1.777,3.473-11.14,7.169-11.588l11.093-1.346
		c3.696-0.449,7.955,8.145,9.731,9.537c1.777,1.393,6.692,10.98,30.989,8.032c24.295-2.948,27.654-19.435,27.654-19.435l7.426-9.477
		L170.395,52.707z"/>
	<path style="fill:#FFFFFF;stroke:#000000;" d="M19.257,74.797c0,0,14.212-6.548,26.888-8.087
		c12.677-1.538,27.322-0.099,27.643,2.542c0.32,2.64,4.548,19.814-24.502,23.339C20.236,96.117,19.257,74.797,19.257,74.797z"/>
	<path style="fill:#FFFFFF;stroke:#000000;" d="M159.214,57.814c0,0-15.367-2.959-28.044-1.42
		c-12.675,1.538-26.552,6.439-26.231,9.079c0.32,2.64,0.322,20.327,29.372,16.802C163.362,78.749,159.214,57.814,159.214,57.814z"/>
	<circle cx="82.221" cy="106.408" r="4.789"/>
	<path style="fill:#FFFFFF;stroke:#000000;stroke-linecap:round;stroke-linejoin:round;" d="M81.273,114.174l-6.043,6.045
		c0,0,1.955,3.652,0.349,5.258c0,0-3.045,2.242-4.571,0.719c-1.307-1.31-0.795-3.062-0.795-3.062s-0.608,1.658-3.062-0.795
		c-2.453-2.453-0.795-3.061-0.795-3.061s-0.607,1.658-3.062-0.795c-1.715-1.715,0.717-4.574,0.717-4.574
		c1.794-1.793,5.26,0.35,5.26,0.35l6.043-6.041"/>
	
		<line style="fill:none;stroke:#000000;stroke-linecap:round;stroke-linejoin:round;" x1="75.838" y1="111.195" x2="69.983" y2="117.047"/>
	
		<line style="fill:none;stroke:#000000;stroke-linecap:round;stroke-linejoin:round;" x1="78.104" y1="113.459" x2="72.25" y2="119.314"/>
	<circle cx="98.183" cy="106.408" r="4.789"/>
	<path style="fill:#FFFFFF;stroke:#000000;stroke-linecap:round;stroke-linejoin:round;" d="M99.131,114.174l6.043,6.045
		c0,0-1.955,3.652-0.348,5.258c0,0,3.044,2.242,4.57,0.719c1.307-1.31,0.795-3.062,0.795-3.062s0.608,1.658,3.062-0.795
		c2.453-2.453,0.795-3.061,0.795-3.061s0.607,1.658,3.062-0.795c1.715-1.715-0.717-4.574-0.717-4.574
		c-1.793-1.793-5.26,0.35-5.26,0.35l-6.043-6.041"/>
	
		<line style="fill:none;stroke:#000000;stroke-linecap:round;stroke-linejoin:round;" x1="104.566" y1="111.195" x2="110.421" y2="117.047"/>
	
		<line style="fill:none;stroke:#000000;stroke-linecap:round;stroke-linejoin:round;" x1="102.301" y1="113.459" x2="108.154" y2="119.314"/>
	<path style="fill:none;stroke:#000000;" d="M53.266,141.742c0,0,0.5,6.008,1.498,6.008c0.999,0,1.664-6.008,1.664-6.008"/>
	<path style="fill:none;stroke:#000000;" d="M57.61,148.952c0,0,0.5,6.008,1.498,6.008c0.999,0,1.664-6.008,1.664-6.008"/>
</g>
</svg>
