<?xml version="1.0" encoding="iso-8859-1"?>
<!-- Generator: Adobe Illustrator 18.1.1, SVG Export Plug-In . SVG Version: 6.00 Build 0)  -->
<svg version="1.1" xmlns="http://www.w3.org/2000/svg" xmlns:xlink="http://www.w3.org/1999/xlink" x="0px" y="0px"
	 viewBox="0 0 180 180" style="enable-background:new 0 0 180 180;" xml:space="preserve">
<g id="ca1">
	<polygon style="fill:#D8E698;" points="96.985,0 -0.001,13.436 0.001,0 	"/>
	<polygon style="fill:#E3EB98;" points="180,5 0.001,29.936 -0.001,13.436 96.985,0 180,0 	"/>
	<polygon style="fill:#D8E698;" points="180,21.5 0.001,46.436 0.001,29.936 180,5 	"/>
	<polygon style="fill:#EEEF99;" points="180,38 0.001,62.936 0.001,46.436 180,21.5 	"/>
	<polygon style="fill:#D8E698;" points="180,54.5 0.001,79.436 0.001,62.936 180,38 	"/>
	<polygon style="fill:#E3EB98;" points="180,71 0.001,95.936 0.001,79.436 180,54.5 	"/>
	<polygon style="fill:#D8E698;" points="180,87.5 0.001,112.436 0.001,95.936 180,71 	"/>
	<polygon style="fill:#EEEF99;" points="180,104 0.001,128.936 0.001,112.436 180,87.5 	"/>
	<polygon style="fill:#D8E698;" points="180,120.5 0.001,145.436 0.001,128.936 180,104 	"/>
	<polygon style="fill:#E3EB98;" points="180,137 0.001,161.936 0.001,145.436 180,120.5 	"/>
	<polygon style="fill:#D8E698;" points="180,153.5 0.001,178.436 0.001,161.936 180,137 	"/>
	<polygon style="fill:#EEEF99;" points="180,170 107.813,180 0.001,180 0.001,178.436 180,153.5 	"/>
	<polygon style="fill:#D8E698;" points="180,180 180,170 107.813,180 	"/>
</g>
<g id="ca2">
	<g>
		<path style="fill:#FFFFFF;stroke:#000000;" d="M119.579,119.226L41.802,130c0,0,18.518-23.232,7.744-34.007
			C38.771,85.219,60.993,46.835,60.993,46.835l77.778-10.774c0,0-18.518,23.232-7.744,34.007
			C141.801,80.842,119.579,119.226,119.579,119.226z"/>
		<path style="fill:#EFEFEF;stroke:#000000;" d="M129.095,67.475L47.54,92.835c0.473,1.277,1.152,2.396,2.07,3.314
			c1.193,1.192,1.785,2.439,2.325,3.889l0,0l81.555-25.359c-0.45-1.866-1.253-3.468-2.49-4.706
			C130.199,69.173,129.591,68.396,129.095,67.475L129.095,67.475z"/>
		<path style="fill:#EFEFEF;stroke:#000000;" d="M82.343,59.766c0,4.787-6.925,9.668-13,9.668s-9-2.881-9-7.668
			c0-4.785,6.925-9.666,13-9.666S82.343,54.98,82.343,59.766z"/>
		<path style="stroke:#000000;" d="M66.059,61.246c0,1.244-1.799,2.512-3.377,2.512c-1.579,0-2.338-0.748-2.338-1.992
			c0-1.243,1.799-2.511,3.377-2.511C65.299,59.255,66.059,60.003,66.059,61.246z"/>
		<path style="fill:#EFEFEF;stroke:#000000;" d="M120.01,54.766c0,4.787-6.926,9.667-13,9.667c-6.076,0-9-2.88-9-7.667
			c0-4.786,6.924-9.667,13-9.667C117.084,47.099,120.01,49.98,120.01,54.766z"/>
		<path style="stroke:#000000;" d="M103.726,56.246c0,1.244-1.8,2.512-3.378,2.512c-1.578,0-2.338-0.748-2.338-1.992
			c0-1.244,1.799-2.511,3.377-2.511C102.966,54.254,103.726,55.002,103.726,56.246z"/>
	</g>
</g>
</svg>
