<?xml version="1.0" encoding="iso-8859-1"?>
<!-- Generator: Adobe Illustrator 18.1.1, SVG Export Plug-In . SVG Version: 6.00 Build 0)  -->
<svg version="1.1" xmlns="http://www.w3.org/2000/svg" xmlns:xlink="http://www.w3.org/1999/xlink" x="0px" y="0px"
	 viewBox="0 0 180 180" style="enable-background:new 0 0 180 180;" xml:space="preserve">
<g id="ca1">
	<rect style="fill:#FEEBBE;" width="180" height="180"/>
</g>
<g id="ca2">
	<polygon style="fill:#FFFFFF;stroke:#000000;" points="24.68,87.284 78.653,87.284 76.633,108.832 39.832,106.476 18.956,90.314 	
		"/>
	<polygon style="stroke:#000000;" points="78.653,85.284 74.276,72.152 30.303,66.765 13,80.57 56.351,82.927 	"/>
	<polygon style="fill:#FFFFFF;stroke:#000000;" points="154.412,87.284 100.439,87.284 102.459,108.832 139.26,106.476 
		160.137,90.314 	"/>
	<polygon style="stroke:#000000;" points="100.439,85.284 104.816,72.152 148.789,66.765 166.092,80.57 122.742,82.927 	"/>
	<path style="fill:#F39800;stroke:#000000;" d="M139.26,159c7.16,0,12.963-5.804,12.963-12.963c0-7.159-5.803-12.963-12.963-12.963
		H39.832c-7.159,0-12.963,5.804-12.963,12.963c0,7.159,5.804,12.963,12.963,12.963H139.26z"/>
	<path style="fill:#E6002D;stroke:#000000;" d="M102.963,159c0-7.159-5.804-12.963-12.963-12.963S77.037,151.841,77.037,159H102.963
		z"/>
	<path d="M52.727,87.284c0,7.16,5.804,12.963,12.963,12.963c7.159,0,12.963-5.804,12.963-12.963H52.727z"/>
	<path d="M100.439,87.284c0,7.16,5.804,12.963,12.963,12.963c7.159,0,12.963-5.804,12.963-12.963H100.439z"/>
	<circle cx="82.403" cy="121.602" r="5.769"/>
	<circle cx="96.69" cy="121.602" r="5.769"/>
	<polygon points="180,59.372 64.333,59.372 59.333,40.706 54.334,59.372 0,59.372 0,0 180,0 	"/>
	<polygon style="fill:#FFFFFF;stroke:#000000;" points="50.679,133.074 45.255,145.423 39.832,133.074 	"/>
	<polygon style="fill:#FFFFFF;stroke:#000000;" points="139.26,133.074 133.836,145.423 128.412,133.074 	"/>
</g>
</svg>
