<?xml version="1.0" encoding="iso-8859-1"?>
<!-- Generator: Adobe Illustrator 18.1.1, SVG Export Plug-In . SVG Version: 6.00 Build 0)  -->
<svg version="1.1" xmlns="http://www.w3.org/2000/svg" xmlns:xlink="http://www.w3.org/1999/xlink" x="0px" y="0px"
	 viewBox="0 0 180 180" style="enable-background:new 0 0 180 180;" xml:space="preserve">
<g id="ca1">
	<rect style="fill:#FFFFFF;" width="180" height="180"/>
</g>
<g id="ca2">
	<path style="fill:#00A0E9;stroke:#FFFFFF;" d="M61.334,141.588c-11.902,2.361-32.333-1.333-42,8.334
		c-9.667,9.667-3.144,17.594,5.333,17c9.333-0.653,10.833,1.333,19,1.333c3.536,0,19,0.334,27.667,2s20.999,1.333,33.333,1.333
		c12.414,0,29.663,1.261,40-1c10.667-2.333,18.667-2,18.667-7.333c0-5.333-5.666-18-16.333-20.334
		c-10.667-2.334-23.399,0.146-29.667-1.666C110.176,139.186,73.887,139.098,61.334,141.588z"/>
</g>
<g id="ca3">
	<path style="fill:#CE749C;stroke:#FFFFFF;" d="M128.5,58.566c0,4.802-16.697,8.695-38.531,8.695
		c-21.832,0-39.469-3.893-39.469-8.695c0-4.802,17.638-8.695,39.469-8.695C111.803,49.871,128.5,53.764,128.5,58.566z"/>
	<path style="fill:#C9CACA;stroke:#FFFFFF;" d="M86.487,5.011c0,0,5.358,19.416,5.544,27.414c0.185,7.998-6.421,2.82-6.295,8.319
		c0.128,5.498,10.374,86.207,10.593,95.706c0,0-1.306,1.56-3.805,1.616c-2.453,0.483-3.724-0.795-3.724-0.795
		c-1.838-9.32-6.226-91.015-7.29-96.411c-1.064-5.396-6.377,1.258-7.925-6.591c-1.548-7.849-3.184-28.126-3.184-28.126l2-0.141
		c0,0,3.943,21.586,4.658,23.483l3.384-0.239L77.271,5.66l2.164-0.152c0,0,3.872,19.54,4.649,23.483l3.722-0.262L84.261,5.168
		L86.487,5.011z"/>
	<path style="fill:#DDD9AC;stroke:#FFFFFF;" d="M86.998,139.52c2.581-0.338,18.825-59.565,22.097-69.367
		c3.271-9.801,7.657-23.472,7.657-23.472c4.419-1.108,10.553-4.742,12.531-10.673c2.712-8.121,2.065-21.977-3.785-23.929
		c-5.85-1.953-14.688,8.739-17.398,16.858c-2.091,6.265,0.845,13.189,4.114,16.635c0,0-4.705,13.565-7.977,23.367
		c-3.271,9.802-24.94,66.308-23.993,68.733C80.244,137.672,82.579,140.101,86.998,139.52z"/>
	<path style="fill:#C9CACA;stroke:#FFFFFF;" d="M66.05,12.175c0,0,6.569,19.04,7.257,27.01c0.688,7.971-6.231,3.219-5.759,8.699
		c0.474,5.479,15.777,85.385,16.595,94.85c0,0-1.206,1.639-3.696,1.854c-2.417,0.637-3.766-0.56-3.766-0.56
		c-2.421-9.187-11.941-90.442-13.342-95.761c-1.402-5.318-6.285,1.656-8.323-6.08c-2.038-7.736-4.948-27.869-4.948-27.869
		l1.988-0.267c0,0,5.293,21.295,6.125,23.144l3.363-0.451l-4.652-23.341l2.15-0.288c0,0,5.095,19.258,6.119,23.144l3.697-0.495
		l-5.02-23.292L66.05,12.175z"/>
	<path style="fill:#DDD9AC;stroke:#FFFFFF;" d="M91.402,147.577c2.26-1.295-5.224-62.251-5.921-72.56
		c-0.7-10.31-1.838-24.622-1.838-24.622c3.667-2.704,7.96-8.396,7.537-14.634c-0.58-8.542-6.443-21.113-12.596-20.695
		c-6.153,0.417-10.265,13.665-9.686,22.206c0.446,6.589,5.792,11.879,10.125,13.823c0,0,0.803,14.335,1.504,24.645
		c0.699,10.309,2.128,70.811,3.927,72.693C84.454,148.433,87.535,149.793,91.402,147.577z"/>
	<path style="fill:#DDD9AC;stroke:#FFFFFF;" d="M99.999,146.22c2.354-1.113-0.318-62.468-0.205-72.801
		c0.113-10.332,0.103-24.69,0.103-24.69c3.869-2.408,8.595-7.745,8.663-13.998c0.094-8.56-4.765-21.553-10.931-21.62
		c-6.168-0.068-11.308,12.816-11.401,21.376c-0.072,6.604,4.842,12.297,9.009,14.576c0,0-0.324,14.353-0.438,24.687
		c-0.113,10.332-3.44,70.761-1.795,72.777C93.004,146.527,95.969,148.126,99.999,146.22z"/>
	<path style="fill:#C9CACA;stroke:#FFFFFF;" d="M139.43,22.257c0,0-2.255,20.015-5.06,27.507c-2.806,7.492-7.01,0.228-8.939,5.378
		c-1.928,5.151-22.464,83.873-25.796,92.77c0,0-1.793,0.961-4.133,0.083c-2.457-0.464-3.161-2.124-3.161-2.124
		c1.764-9.334,28.104-86.79,29.125-92.194c1.021-5.405-6.387-1.207-4.901-9.068c1.485-7.861,7.515-27.289,7.515-27.289l1.909,0.614
		c0,0-4.376,21.502-4.419,23.529l3.229,1.038l5.835-23.074l2.065,0.664c0,0-3.68,19.578-4.427,23.527l3.552,1.142l5.48-23.188
		L139.43,22.257z"/>
	<path style="fill:#C9CACA;stroke:#FFFFFF;" d="M109.984,21.979c0,0,1.502,20.086,0.137,27.968
		c-1.365,7.883-6.846,1.525-7.785,6.944c-0.938,5.419-6.5,86.585-8.123,95.947c0,0-1.582,1.277-4.045,0.85c-2.5,0-3.5-1.5-3.5-1.5
		c0-9.5,11.5-90.499,11.5-95.999s-6.5,0-6.5-8s2.316-28.21,2.316-28.21l1.99,0.249c0,0-0.307,21.941,0.027,23.941l3.365,0.42
		l1.449-23.756l2.154,0.269c0,0,0.018,19.92,0.018,23.939l3.703,0.463l1.078-23.802L109.984,21.979z"/>
	<path style="fill:#C9CACA;stroke:#FFFFFF;" d="M80.596,16.984c0,0,6.256,19.145,6.814,27.126c0.559,7.98-6.282,3.116-5.899,8.603
		c0.385,5.486,14.381,85.63,15.044,95.107c0,0-1.232,1.619-3.726,1.792c-2.428,0.598-3.757-0.62-3.757-0.62
		c-2.271-9.225-10.462-90.625-11.776-95.966c-1.314-5.34-6.312,1.554-8.224-6.215c-1.912-7.768-4.492-27.946-4.492-27.946
		l1.992-0.234c0,0,4.945,21.378,5.747,23.241l3.369-0.396l-4.27-23.414l2.155-0.253c0,0,4.778,19.339,5.739,23.241l3.705-0.435
		l-4.64-23.371L80.596,16.984z"/>
	<path style="fill:#DDD9AC;stroke:#FFFFFF;" d="M83.976,148.52c2-1.666-15.959-60.396-18.438-70.427
		c-2.48-10.032-6.087-23.929-6.087-23.929c3.142-3.3,6.38-9.651,4.879-15.721c-2.054-8.311-10.012-19.672-15.999-18.192
		c-5.987,1.479-7.735,15.241-5.681,23.551c1.584,6.412,7.768,10.692,12.373,11.854c0,0,3.282,13.977,5.762,24.009
		c2.479,10.031,14.399,69.366,16.497,70.907C77.281,150.571,80.552,151.374,83.976,148.52z"/>
	<path style="fill:#DDD9AC;stroke:#FFFFFF;" d="M96.235,151.754c2.252-1.305-5.537-62.223-6.288-72.529
		c-0.751-10.306-1.962-24.613-1.962-24.613c3.653-2.722,7.918-8.436,7.463-14.672c-0.623-8.538-6.549-21.08-12.7-20.632
		c-6.151,0.448-10.197,13.717-9.575,22.255c0.479,6.587,5.852,11.85,10.195,13.771c0,0,0.876,14.331,1.627,24.637
		c0.751,10.307,2.485,70.801,4.293,72.674C89.29,152.646,92.379,153.99,96.235,151.754z"/>
	<path style="fill:#EE87B4;stroke:#FFFFFF;" d="M50.5,58.566c0,44.5,20.5,90.001,20.5,90.001c0,6.075,8.283,9,18.501,9
		c10.217,0,18.5-2.925,18.5-9c0,0,20.5-45.5,20.5-90.001c0,4.802-16.697,8.695-38.531,8.695C68.137,67.261,50.5,63.368,50.5,58.566z
		"/>
</g>
<g id="ca4">
	<path style="fill:#595757;stroke:#FFFFFF;" d="M59,84.333c0,0,14.334,2,21,2v5.334c0,0-14.767-1.207-20.333-3L59,84.333z"/>
	<path style="fill:#595757;stroke:#FFFFFF;" d="M120,84.333c0,0-14.334,2-21,2v5.334c0,0,14.767-1.207,20.334-3L120,84.333z"/>
	<path style="fill:#DCDDDD;stroke:#FFFFFF;" d="M59,93.873c0,0,14.334,2,21,2v5.334c0,0-14.767-1.207-20.333-3L59,93.873z"/>
	<path style="fill:#DCDDDD;stroke:#FFFFFF;" d="M120,93.873c0,0-14.334,2-21,2v5.334c0,0,14.767-1.207,20.334-3L120,93.873z"/>
	<polygon style="fill:#E5005A;stroke:#FFFFFF;" points="86.806,100.657 85.806,117 92.347,117 91.418,100.657 	"/>
	<circle cx="108.667" cy="97.668" r="2.105"/>
	<circle cx="71.149" cy="97.668" r="2.105"/>
</g>
</svg>
