<?xml version="1.0" encoding="iso-8859-1"?>
<!-- Generator: Adobe Illustrator 18.1.1, SVG Export Plug-In . SVG Version: 6.00 Build 0)  -->
<svg version="1.1" xmlns="http://www.w3.org/2000/svg" xmlns:xlink="http://www.w3.org/1999/xlink" x="0px" y="0px"
	 viewBox="0 0 180 180" style="enable-background:new 0 0 180 180;" xml:space="preserve">
<g id="ca1">
	<rect style="fill:#FFFFFF;" width="180" height="180"/>
	<rect style="fill:#FFF100;" width="180" height="3"/>
	<rect y="3" style="fill:#FFFFFF;" width="180" height="3"/>
	<rect y="6" style="fill:#00A0E9;" width="180" height="3"/>
	<rect y="9" style="fill:#FFFFFF;" width="180" height="3"/>
	<rect y="12" style="fill:#E4007F;" width="180" height="3"/>
	<rect y="15" style="fill:#FFFFFF;" width="180" height="3"/>
	<rect y="21" style="fill:#FFFFFF;" width="180" height="3"/>
	<rect y="24" style="fill:#E60012;" width="180" height="3"/>
	<rect y="27" style="fill:#FFFFFF;" width="180" height="3"/>
	<rect y="30" style="fill:#0068B7;" width="180" height="3"/>
	<rect y="33" style="fill:#FFFFFF;" width="180" height="3"/>
	<rect y="36" style="fill:#F39800;" width="180" height="3"/>
	<rect y="39" style="fill:#FFFFFF;" width="180" height="3"/>
	<rect y="42" style="fill:#920783;" width="180" height="3"/>
	<rect y="45" style="fill:#FFFFFF;" width="180" height="3"/>
	<rect y="18" style="fill:#009944;" width="180" height="3"/>
	<rect y="48" style="fill:#FFF100;" width="180" height="3"/>
	<rect y="51" style="fill:#FFFFFF;" width="180" height="3"/>
	<rect y="54" style="fill:#00A0E9;" width="180" height="3"/>
	<rect y="57" style="fill:#FFFFFF;" width="180" height="3"/>
	<rect y="60" style="fill:#E4007F;" width="180" height="3"/>
	<rect y="63" style="fill:#FFFFFF;" width="180" height="3"/>
	<rect y="69" style="fill:#FFFFFF;" width="180" height="3"/>
	<rect y="72" style="fill:#E60012;" width="180" height="3"/>
	<rect y="75" style="fill:#FFFFFF;" width="180" height="3"/>
	<rect y="78" style="fill:#0068B7;" width="180" height="3"/>
	<rect y="81" style="fill:#FFFFFF;" width="180" height="3"/>
	<rect y="84" style="fill:#F39800;" width="180" height="3"/>
	<rect y="87" style="fill:#FFFFFF;" width="180" height="3"/>
	<rect y="90" style="fill:#920783;" width="180" height="3"/>
	<rect y="93" style="fill:#FFFFFF;" width="180" height="3"/>
	<rect y="66" style="fill:#009944;" width="180" height="3"/>
	<rect y="96" style="fill:#FFF100;" width="180" height="3"/>
	<rect y="99" style="fill:#FFFFFF;" width="180" height="3"/>
	<rect y="102" style="fill:#00A0E9;" width="180" height="3"/>
	<rect y="105" style="fill:#FFFFFF;" width="180" height="3"/>
	<rect y="108" style="fill:#E4007F;" width="180" height="3"/>
	<rect y="111" style="fill:#FFFFFF;" width="180" height="3"/>
	<rect y="117" style="fill:#FFFFFF;" width="180" height="3"/>
	<rect y="120" style="fill:#E60012;" width="180" height="3"/>
	<rect y="123" style="fill:#FFFFFF;" width="180" height="3"/>
	<rect y="126" style="fill:#0068B7;" width="180" height="3"/>
	<rect y="129" style="fill:#FFFFFF;" width="180" height="3"/>
	<rect y="132" style="fill:#F39800;" width="180" height="3"/>
	<rect y="135" style="fill:#FFFFFF;" width="180" height="3"/>
	<rect y="138" style="fill:#920783;" width="180" height="3"/>
	<rect y="141" style="fill:#FFFFFF;" width="180" height="3"/>
	<rect y="114" style="fill:#009944;" width="180" height="3"/>
	<rect y="144" style="fill:#FFF100;" width="180" height="3"/>
	<rect y="147" style="fill:#FFFFFF;" width="180" height="3"/>
	<rect y="150" style="fill:#00A0E9;" width="180" height="3"/>
	<rect y="153" style="fill:#FFFFFF;" width="180" height="3"/>
	<rect y="156" style="fill:#E4007F;" width="180" height="3"/>
	<rect y="159" style="fill:#FFFFFF;" width="180" height="3"/>
	<rect y="165" style="fill:#FFFFFF;" width="180" height="3"/>
	<rect y="168" style="fill:#E60012;" width="180" height="3"/>
	<rect y="171" style="fill:#FFFFFF;" width="180" height="3"/>
	<rect y="174" style="fill:#0068B7;" width="180" height="3"/>
	<rect y="177" style="fill:#FFFFFF;" width="180" height="3"/>
	<rect y="162" style="fill:#009944;" width="180" height="3"/>
</g>
<g id="ca2">
	<path style="fill:#FFFFFF;stroke:#000000;stroke-linejoin:round;" d="M156.498,180c9.666-93-27.665-125.332-27.665-125.332
		c2.334-1,6.667,0,6.667,0c-7-3.667-14.333-5-14.333-5c3-1.333,7.666-0.667,7.666-0.667c-8-3-13.666-3.667-13.666-3.667
		c2-1.333,4-2.666,4-2.666L88.75,40.335l-30.417,2.333c0,0,2,1.333,4,2.666c0,0-5.667,0.667-13.667,3.667
		c0,0,4.667-0.666,7.667,0.667c0,0-7.333,1.333-14.333,5c0,0,4.333-1,6.667,0C48.667,54.668,11.335,87,21,180"/>
</g>
<g id="ca3">
	<path style="fill:#FFF100;stroke:#000000;stroke-linecap:round;stroke-linejoin:round;" d="M109.75,133.169
		c0,0-10,40.333-21,40.333s-21-40.333-21-40.333H109.75z"/>
	<path style="fill:#E5004F;stroke:#000000;stroke-linecap:round;stroke-linejoin:round;" d="M109.75,133.169
		c0,0-12.667,29.333-21,29.333s-21-29.333-21-29.333H109.75z"/>
	<circle style="fill:#FFFFFF;stroke:#000000;" cx="60.583" cy="91.669" r="28.167"/>
	<path d="M63.833,91.669c0,15.557-1.455,22.167-3.25,22.167s-3.25-6.61-3.25-22.167c0-15.556,1.455-28.167,3.25-28.167
		S63.833,76.113,63.833,91.669z"/>
	<path style="fill:#FFFFFF;stroke:#000000;" d="M32.417,91.669H88.75c0-15.556-12.61-28.167-28.167-28.167
		C45.027,63.502,32.417,76.113,32.417,91.669z"/>
	<circle style="fill:#FFFFFF;stroke:#000000;" cx="116.916" cy="91.669" r="28.167"/>
	<path d="M120.166,91.669c0,15.557-1.455,22.167-3.25,22.167c-1.795,0-3.25-6.61-3.25-22.167c0-15.556,1.455-28.167,3.25-28.167
		C118.711,63.502,120.166,76.113,120.166,91.669z"/>
	<path style="fill:#FFFFFF;stroke:#000000;" d="M88.75,91.669h56.333c0-15.556-12.61-28.167-28.167-28.167
		C101.36,63.502,88.75,76.113,88.75,91.669z"/>
	<path style="fill:#FFF100;stroke:#000000;stroke-linecap:round;stroke-linejoin:round;" d="M67.75,133.169
		c0,0,12.334,15.333,21,15.333c8.666,0,21-15.333,21-15.333s-12.334-15.334-21-15.334C80.084,117.835,67.75,133.169,67.75,133.169z"
		/>
	<path style="fill:#E60012;stroke:#000000;stroke-linecap:round;stroke-linejoin:round;" d="M68.084,52.668
		c0,0,10.999-4.333,20.666-4.333s20.666,4.333,20.666,4.333s18.039-26.518,6-31.333c-10-4-16.166,16.166-16.166,16.166
		S101.084,5,88.75,5s-10.5,32.501-10.5,32.501s-6.166-20.166-16.167-16.166C50.045,26.15,68.084,52.668,68.084,52.668z"/>
</g>
</svg>
