<?xml version="1.0" encoding="iso-8859-1"?>
<!-- Generator: Adobe Illustrator 18.1.1, SVG Export Plug-In . SVG Version: 6.00 Build 0)  -->
<svg version="1.1" xmlns="http://www.w3.org/2000/svg" xmlns:xlink="http://www.w3.org/1999/xlink" x="0px" y="0px"
	 viewBox="0 0 180 180" style="enable-background:new 0 0 180 180;" xml:space="preserve">
<g id="ca1">
	<rect width="180" height="180"/>
</g>
<g id="ca2">
	<path style="fill:#FFF100;" d="M72.496,20.109C58.134,32.892,48.274,53.123,48.274,73.863c0,38.543,31.245,69.788,69.787,69.788
		c13.122,0,25.399-3.621,35.884-9.92c-13.253,15.959-33.244,26.119-55.608,26.119c-39.902,0-72.25-32.348-72.25-72.249
		C26.087,56.803,45.356,30.507,72.496,20.109z"/>
	<polygon style="fill:#FFF100;" points="102.069,46.482 80.039,53.448 101.955,60.762 88.523,41.962 88.34,65.066 	"/>
	<polygon style="fill:#FFF100;" points="138.389,97.148 116.364,104.135 138.288,111.428 124.839,92.641 124.677,115.745 	"/>
</g>
</svg>
