<?xml version="1.0" encoding="iso-8859-1"?>
<!-- Generator: Adobe Illustrator 18.1.1, SVG Export Plug-In . SVG Version: 6.00 Build 0)  -->
<svg version="1.1" xmlns="http://www.w3.org/2000/svg" xmlns:xlink="http://www.w3.org/1999/xlink" x="0px" y="0px"
	 viewBox="0 0 180 180" style="enable-background:new 0 0 180 180;" xml:space="preserve">
<g id="ca1">
	<rect style="fill:#9FD9F6;" width="180" height="180"/>
	<polygon style="fill:#FFFFFF;" points="0,180 4.667,165.334 7.667,173.334 11.667,154.667 16.333,154.334 20,149 26,158.334 
		31.333,170.667 31.333,163.334 34.833,166.834 34.833,152.667 40.917,158.751 45.5,154.167 49.333,167 52.667,159 55.667,165 
		59,149 64.334,156.334 65.666,162.667 68,175 72.334,163.334 71,155.334 76.666,156.334 77.334,163.334 79.666,169.334 81.666,160 
		82.666,166.667 85.334,157.667 89,151 93,157 95.333,165.667 99.333,156 101.333,163.334 104.667,151 111.333,151 112,157.667 
		116.667,165.334 119.667,159 121,164.667 122.333,151 126.667,150.334 129,157 133.667,167.334 138.667,174 136.667,164.667 
		137.333,157.334 140.333,163 143.667,158 146.667,165.667 150.333,160.667 153.333,154.667 157,163.667 158.775,169.214 
		159.667,159 163.667,164.334 166,156.667 172,150 174.667,158 177.667,166 180,155.667 180,180 	"/>
	<polygon style="fill:#FFFFFF;" points="180,0 175.334,14.666 172.334,6.666 168.334,25.333 163.667,20.666 160,31 154,21.666 
		148.666,9.333 148.666,16.666 145.167,13.166 145.167,27.333 139.083,21.249 134.5,25.833 130.667,13 127.334,21 124.334,15 
		121,31 115.667,23.666 114.334,17.333 112,5 107.667,16.666 109,24.666 103.334,23.666 102.667,16.666 100.334,10.666 98.334,20 
		97.334,13.333 94.666,22.333 91,29 87,23 84.667,14.333 80.667,24 78.667,16.666 75.333,29 68.667,29 68,22.333 63.333,14.666 
		60.333,21 59,15.333 57.667,29 53.333,29.666 51,23 46.333,12.666 41.333,6 43.333,15.333 42.667,22.666 39.667,17 36.333,22 
		33.333,14.333 29.667,19.333 26.667,25.333 23,16.333 22.489,14.737 20.333,21 16.333,15.666 14,23.333 8,30 5.333,22 2.333,14 
		0,24.333 0,0 	"/>
	<polygon style="fill:#FFFFFF;" points="-0.001,0.001 14.665,4.667 6.666,7.667 25.333,11.667 27.667,16.333 31,20.001 
		21.666,26.001 9.333,31.335 16.666,31.335 13.165,34.833 27.333,34.833 21.249,40.917 25.833,45.501 13,49.333 21,52.667 
		15,55.667 31,59.001 23.666,64.333 17.333,65.667 4.999,68.001 16.666,72.333 24.666,71.001 23.666,76.667 16.666,77.333 
		10.665,79.667 20,81.666 13.333,82.666 22.333,85.334 29,89 23,93 14.333,95.333 24,99.333 16.666,101.333 29,104.667 29,111.333 
		22.333,112 14.666,116.667 21,119.667 15.333,121 29,122.333 29.666,126.667 23,129 12.666,133.667 6,138.667 15.333,136.667 
		22.666,137.333 17,140.333 22,143.667 14.333,146.667 19.333,150.333 25.333,153.333 16.333,157 15,159.667 21,159.667 
		15.666,163.667 23.333,166 30,172 22,174.667 14,177.667 24.333,180 0,180 	"/>
	<polygon style="fill:#FFFFFF;" points="180,180 165.334,175.334 173.334,172.334 154.667,168.334 154.667,165.667 148.999,160 
		158.334,154 170.667,148.666 163.334,148.666 166.834,145.168 152.667,145.168 158.751,139.084 154.167,134.5 167,130.668 
		159,127.334 165,124.334 148.999,121 156.334,115.668 162.667,114.334 175,112 163.334,107.668 155.333,109 156.334,103.334 
		163.334,102.668 169.334,100.334 160,98.334 166.667,97.334 157.667,94.666 150.999,91 156.999,87 165.667,84.668 155.999,80.668 
		163.333,78.668 150.999,75.334 150.999,68.668 157.667,68 165.333,63.334 158.999,60.334 164.667,59 150.999,57.668 
		150.333,53.334 156.999,51 167.333,46.334 173.999,41.334 164.667,43.334 157.333,42.668 162.999,39.668 157.999,36.334 
		165.667,33.334 160.667,29.668 154.667,26.668 162,21.333 169.863,18.198 158.999,20.334 164.333,16.334 156.667,14 149.999,8 
		157.999,5.334 165.999,2.334 155.667,0 180,0 	"/>
</g>
<g id="ca2">
	<g>
		<path style="fill:#595757;stroke:#000000;stroke-width:0.5;stroke-linecap:round;stroke-linejoin:round;" d="M144.911,89.771
			c0,0,15.975-19.169,12.781-47.285C154.496,14.371,119.354,4.466,89,4.466c-30.354,0-65.497,9.904-68.692,38.021
			c-3.195,28.116,12.78,47.285,12.78,47.285"/>
		<path style="fill:#FEEBBE;stroke:#000000;stroke-width:0.5;stroke-linecap:round;stroke-linejoin:round;" d="M92.193,176.677
			l25.241-3.516l26.199-31.949l-3.194-28.116l4.472-23.324L133.09,66.448c0,0-8.758,13.738-44.09,13.738
			c-35.333,0-44.09-13.738-44.09-13.738L33.088,89.771l4.473,23.324l-3.195,28.116l26.199,31.949l25.241,3.516H92.193z"/>
		
			<rect x="53.167" y="131.834" style="fill:#FFFFFF;stroke:#000000;stroke-width:0.5;stroke-linecap:round;stroke-linejoin:round;" width="71.668" height="14.332"/>
		
			<line style="fill:#FFFFFF;stroke:#000000;stroke-width:0.5;stroke-linecap:round;stroke-linejoin:round;" x1="53.167" y1="139" x2="124.834" y2="139"/>
		<polyline style="fill:#FFFFFF;stroke:#000000;stroke-width:0.5;stroke-linecap:round;stroke-linejoin:round;" points="89,131.834 
			89,139 89,146.166 		"/>
		<polyline style="fill:#FFFFFF;stroke:#000000;stroke-width:0.5;stroke-linecap:round;stroke-linejoin:round;" points="
			81.334,131.834 81.334,139 81.334,146.166 		"/>
		<polyline style="fill:#FFFFFF;stroke:#000000;stroke-width:0.5;stroke-linecap:round;stroke-linejoin:round;" points="
			73.666,131.834 73.666,139 73.666,146.166 		"/>
		<polyline style="fill:#FFFFFF;stroke:#000000;stroke-width:0.5;stroke-linecap:round;stroke-linejoin:round;" points="
			66.334,131.834 66.334,139 66.334,146.166 		"/>
		<polyline style="fill:#FFFFFF;stroke:#000000;stroke-width:0.5;stroke-linecap:round;stroke-linejoin:round;" points="
			59.667,131.834 59.667,139 59.667,146.166 		"/>
		<polyline style="fill:#FFFFFF;stroke:#000000;stroke-width:0.5;stroke-linecap:round;stroke-linejoin:round;" points="97,131.834 
			97,139 97,146.166 		"/>
		<polyline style="fill:#FFFFFF;stroke:#000000;stroke-width:0.5;stroke-linecap:round;stroke-linejoin:round;" points="
			104.667,131.834 104.667,139 104.667,146.166 		"/>
		<polyline style="fill:#FFFFFF;stroke:#000000;stroke-width:0.5;stroke-linecap:round;stroke-linejoin:round;" points="
			112,131.834 112,139 112,146.166 		"/>
		<polyline style="fill:#FFFFFF;stroke:#000000;stroke-width:0.5;stroke-linecap:round;stroke-linejoin:round;" points="
			118.667,131.834 118.667,139 118.667,146.166 		"/>
		<polygon style="fill:#595757;stroke:#000000;stroke-width:0.5;stroke-linecap:round;stroke-linejoin:round;" points="
			42.992,90.251 42.992,98.238 82.61,103.352 82.61,86.097 		"/>
		<path style="fill:#F39800;stroke:#000000;stroke-width:0.5;stroke-linecap:round;stroke-linejoin:round;" d="M70.789,126.994
			c1.758,0.159,4.952,0,7.509-1.917c2.555-1.917,2.875-4.473,2.875-6.39s-1.279-3.354,0-6.23c1.277-2.875-1.12-9.105-1.12-9.105
			c0.479,2.716-2.555,4.472-2.555,4.472c0.32-0.958,0.32-1.597,0-2.555c-0.32-0.959-1.597-7.829-1.597-7.829
			c0.159,4.474-0.959,8.308-0.959,8.308c-1.278-1.758-3.516-11.98-3.516-11.98s-2.237,10.223-3.514,11.98
			c0,0-1.119-3.834-0.958-8.308c0,0-1.278,6.87-1.598,7.829c-0.319,0.958-0.319,1.597,0,2.555c0,0-3.036-1.756-2.556-4.472
			c0,0-2.396,6.23-1.118,9.105c1.277,2.876,0,4.313,0,6.23s0.318,4.473,2.875,6.39c2.555,1.917,5.751,2.076,7.508,1.917H70.789z"/>
		<path style="fill:#FFF100;stroke:#000000;stroke-width:0.5;stroke-linecap:round;stroke-linejoin:round;" d="M71.428,123.16
			c0,0,5.592-2.852,5.592-4.952c0-4.475-5.592-6.709-5.592-10.385c0,3.676-5.59,5.91-5.59,10.385
			C65.837,120.309,71.428,123.16,71.428,123.16z"/>
		<polygon style="fill:#595757;stroke:#000000;stroke-width:0.5;stroke-linecap:round;stroke-linejoin:round;" points="
			135.648,90.251 135.648,98.238 96.029,103.352 96.029,86.097 		"/>
		<path style="fill:#F39800;stroke:#000000;stroke-width:0.5;stroke-linecap:round;stroke-linejoin:round;" d="M107.851,126.994
			c-1.758,0.159-4.951,0-7.509-1.917c-2.556-1.917-2.875-4.473-2.875-6.39s1.278-3.354,0-6.23c-1.278-2.875,1.119-9.105,1.119-9.105
			c-0.479,2.716,2.556,4.472,2.556,4.472c-0.32-0.958-0.32-1.597,0-2.555c0.32-0.959,1.597-7.829,1.597-7.829
			c-0.159,4.474,0.958,8.308,0.958,8.308c1.279-1.758,3.517-11.98,3.517-11.98s2.236,10.223,3.514,11.98
			c0,0,1.119-3.834,0.958-8.308c0,0,1.279,6.87,1.599,7.829c0.318,0.958,0.318,1.597,0,2.555c0,0,3.035-1.756,2.556-4.472
			c0,0,2.396,6.23,1.118,9.105c-1.278,2.876,0,4.313,0,6.23s-0.318,4.473-2.876,6.39c-2.556,1.917-5.751,2.076-7.508,1.917H107.851z
			"/>
		<path style="fill:#FFF100;stroke:#000000;stroke-width:0.5;stroke-linecap:round;stroke-linejoin:round;" d="M107.213,123.16
			c0,0-5.593-2.852-5.593-4.952c0-4.475,5.593-6.709,5.593-10.385c0,3.676,5.59,5.91,5.59,10.385
			C112.803,120.309,107.213,123.16,107.213,123.16z"/>
		<path style="fill:#BAE3F9;stroke:#000000;stroke-width:0.5;stroke-linecap:round;stroke-linejoin:round;" d="M43.167,118.834
			c0,0,3,0,3-3s-3-8-3-8s-3,5-3,8S43.167,118.834,43.167,118.834z"/>
	</g>
</g>
</svg>
