<?xml version="1.0" encoding="iso-8859-1"?>
<!-- Generator: Adobe Illustrator 18.1.1, SVG Export Plug-In . SVG Version: 6.00 Build 0)  -->
<svg version="1.1" xmlns="http://www.w3.org/2000/svg" xmlns:xlink="http://www.w3.org/1999/xlink" x="0px" y="0px"
	 viewBox="0 0 180 180" style="enable-background:new 0 0 180 180;" xml:space="preserve">
<g id="ca1">
	<rect style="fill:#FFFFFF;" width="180" height="180"/>
</g>
<g id="ca2">
	<ellipse style="fill:#E60039;stroke:#000000;" cx="74.832" cy="155.667" rx="15.333" ry="7.833"/>
	<ellipse style="fill:#E60039;stroke:#000000;" cx="89.509" cy="126.296" rx="35.193" ry="29.058"/>
	<circle style="fill:#FFFFFF;stroke:#000000;" cx="69.384" cy="87.719" r="24.128"/>
	<circle style="stroke:#000000;" cx="74.12" cy="81.803" r="11.759"/>
	<circle style="fill:#FFFFFF;stroke:#000000;" cx="119.443" cy="86.428" r="22.869"/>
	<circle style="stroke:#000000;" cx="116.179" cy="81.23" r="11.146"/>
	
		<ellipse transform="matrix(0.9926 0.1217 -0.1217 0.9926 16.0735 -10.7565)" style="fill:#FFFFFF;stroke:#000000;" cx="96.061" cy="126.157" rx="7.749" ry="12.268"/>
	<path style="fill:#E60039;stroke:#000000;" d="M54.95,125.122c0,0-8.069-5.064-9.588-0.819c-1.519,4.244,3.512,17.798,6.467,18.993
		c2.955,1.195,6.623-5.02,6.623-5.02"/>
	<path style="fill:#E60039;stroke:#000000;" d="M123.667,122.256c0,0,7.162-6.282,9.336-2.333c2.173,3.949-0.641,18.13-3.368,19.78
		c-2.727,1.649-7.337-3.904-7.337-3.904"/>
	<circle style="fill:#FFFFFF;" cx="107.334" cy="131.666" r="2.167"/>
	<circle style="fill:#FFFFFF;" cx="114.001" cy="127" r="3.25"/>
	<circle style="fill:#FFFFFF;" cx="115.166" cy="117.498" r="4.084"/>
</g>
<g id="ca3" style="display:none;">
	<path style="display:inline;opacity:0.4;fill:#00B9EF;" d="M36.092,39.12c0,0-8.914,7.534-8.914,44.129
		c0,36.594,12.548,87.928,13.848,89.229c1.3,1.299,2.6,3.289,7.122,3.289h85.02c4.521,0,5.821-1.99,7.121-3.289
		c1.3-1.301,13.85-52.635,13.85-89.229c0-36.595-8.915-44.129-8.915-44.129"/>
	<path style="display:inline;" d="M40.395,25.272c0,0,0,1.139,0,1.657c-0.841,0.208-1.924,0.835-1.924,2.323
		c0,1.493,1.073,2.051,1.924,2.206c0,0.603,0,2.339,0,2.652c-0.275,0.275-4.657,4.656-4.657,4.656
		c-0.34,0.285-9.06,8.074-9.06,44.483c0,36.014,12.46,88.047,13.995,89.583l0.437,0.454c1.187,1.259,2.813,2.981,7.039,2.981h85.02
		c4.225,0,5.851-1.723,7.038-2.981l0.437-0.454c1.534-1.535,13.996-53.568,13.996-89.582c0-36.409-8.721-44.198-9.093-44.511
		c0,0-4.35-4.353-4.625-4.628c0-0.313,0-2.05,0-2.652c0.851-0.155,1.924-0.713,1.924-2.207c0-1.487-1.083-2.114-1.924-2.323
		c0-0.518,0-1.657,0-1.657h-1v2.514l0.459,0.04c0.15,0.013,1.465,0.163,1.465,1.426c0,1.201-1.189,1.274-1.427,1.276l-0.494,0.005
		l-0.003,0.495v3.497l4.949,4.949c0.116,0.102,8.769,7.982,8.769,43.776c0,35.574-12.3,86.884-13.725,88.899
		c-0.003,0.001-0.436,0.451-0.436,0.451c-1.18,1.25-2.518,2.667-6.311,2.667h-85.02c-3.794,0-5.132-1.417-6.312-2.668l-0.457-0.475
		c-1.402-1.988-13.702-53.299-13.702-88.876c0-35.794,8.651-43.674,8.738-43.749l4.979-4.976v-3.992l-0.498-0.005
		c-0.238-0.002-1.426-0.075-1.426-1.276c0-1.262,1.314-1.413,1.464-1.426l0.457-0.04l0.002-0.458v-2.056H40.395z"/>
	<polygon style="display:inline;fill:#CBBE00;stroke:#000000;" points="90.658,8 40.895,8 40.895,10.467 39.579,12.112 
		40.895,13.757 39.579,15.402 40.895,17.047 39.579,18.692 40.895,20.337 39.579,21.982 40.895,23.627 39.579,25.272 90.658,25.272 
		141.737,25.272 140.422,23.627 141.737,21.982 140.422,20.337 141.737,18.692 140.422,17.047 141.737,15.402 140.422,13.757 
		141.737,12.112 140.422,10.467 140.422,8 	"/>
	<line style="display:inline;fill:#FFFFFF;stroke:#000000;" x1="140.422" y1="10.467" x2="40.895" y2="13.757"/>
	<line style="display:inline;fill:#FFFFFF;stroke:#000000;" x1="140.422" y1="13.757" x2="40.895" y2="17.047"/>
	<line style="display:inline;fill:#FFFFFF;stroke:#000000;" x1="140.422" y1="17.047" x2="40.895" y2="20.337"/>
	<line style="display:inline;fill:#FFFFFF;stroke:#000000;" x1="140.422" y1="20.337" x2="40.895" y2="23.627"/>
	<circle style="display:inline;fill:#FFFFFF;" cx="37.663" cy="76.463" r="3.29"/>
	<path style="display:inline;fill:#FFFFFF;" d="M44.577,116.406c0.335,1.787-1.023,3.455-2.824,3.695
		c-1.801,0.242-3.365-1.037-3.698-2.822c-3.976-21.377-3.639-30.395-3.639-30.395c-0.056-1.816,1.372-3.332,3.188-3.388
		c1.816-0.055,3.333,1.373,3.389,3.188C40.993,86.684,40.493,94.62,44.577,116.406z"/>
</g>
<g id="ca4">
	<rect style="opacity:0.3;fill:#00A0E9;" width="180" height="180"/>
</g>
</svg>
