<?xml version="1.0" encoding="iso-8859-1"?>
<!-- Generator: Adobe Illustrator 18.1.1, SVG Export Plug-In . SVG Version: 6.00 Build 0)  -->
<svg version="1.1" xmlns="http://www.w3.org/2000/svg" xmlns:xlink="http://www.w3.org/1999/xlink" x="0px" y="0px"
	 viewBox="0 0 180 180" style="enable-background:new 0 0 180 180;" xml:space="preserve">
<g id="ca1">
	<rect style="fill:#E6002D;" width="180" height="180.001"/>
</g>
<g id="ca2">
	<g>
		<polygon style="fill:#DCDDDD;stroke:#000000;stroke-linecap:round;stroke-linejoin:round;" points="75.334,5.001 104.666,5.001 
			106.333,19.667 73.668,19.667 		"/>
		<polygon style="fill:#EFEFEF;stroke:#000000;stroke-linecap:round;stroke-linejoin:round;" points="29,29.001 48,11.001 
			75.334,5.001 73.668,19.667 		"/>
		<polygon style="fill:#BFC0C0;stroke:#000000;stroke-linecap:round;stroke-linejoin:round;" points="151,29.001 132,11.001 
			104.666,5.001 106.333,19.667 		"/>
		<polygon style="fill:#EFEFEF;stroke:#000000;stroke-linecap:round;stroke-linejoin:round;" points="45.213,37.653 71.668,34.001 
			74.983,58.333 41.334,62.334 		"/>
		<polygon style="fill:#BFC0C0;stroke:#000000;stroke-linecap:round;stroke-linejoin:round;" points="134.787,37.653 
			108.333,34.001 105.018,58.333 138.666,62.334 		"/>
		<polygon style="fill:#F7F8F8;stroke:#000000;stroke-linecap:round;stroke-linejoin:round;" points="19.113,53.333 29,29.001 
			47,22.667 42.667,59.001 		"/>
		<polygon style="fill:#B5B5B6;stroke:#000000;stroke-linecap:round;stroke-linejoin:round;" points="160.887,53.333 151,29.001 
			133,22.667 137.333,59.001 		"/>
		<polygon style="fill:#B5B5B6;stroke:#000000;stroke-linecap:round;stroke-linejoin:round;" points="111.721,151.999 
			125.396,170.999 147.184,151.999 130.911,139.218 		"/>
		<polygon style="fill:#C9CACA;stroke:#000000;stroke-linecap:round;stroke-linejoin:round;" points="90,121.999 90,141.667 
			130.911,139.218 125.128,127.667 104.212,121.999 		"/>
		<polygon style="fill:#B5B5B6;stroke:#000000;stroke-linecap:round;stroke-linejoin:round;" points="94.291,67.667 99.386,74.667 
			104.212,121.999 95.363,113.999 		"/>
		<polygon style="fill:#EFEFEF;stroke:#000000;stroke-linecap:round;stroke-linejoin:round;" points="99.386,74.667 110.916,67.001 
			135.317,67.001 144.703,72.667 		"/>
		<polygon style="fill:#DCDDDD;stroke:#000000;stroke-linecap:round;stroke-linejoin:round;" points="135.317,67.001 133.44,50.667 
			113.598,50.667 110.916,67.001 		"/>
		<polygon style="fill:#EFEFEF;stroke:#000000;stroke-linecap:round;stroke-linejoin:round;" points="99.386,74.667 105.017,58.333 
			113.598,50.667 110.916,67.001 		"/>
		<polygon style="fill:#B5B5B6;stroke:#000000;stroke-linecap:round;stroke-linejoin:round;" points="133.44,50.667 135.317,67.001 
			144.703,72.667 141.753,57.333 		"/>
		<polygon style="fill:#9FA0A0;stroke:#000000;stroke-linecap:round;stroke-linejoin:round;" points="99.386,74.667 100.535,85.945 
			126.469,127.999 104.212,121.999 		"/>
		<polygon style="fill:#B5B5B6;stroke:#000000;stroke-linecap:round;stroke-linejoin:round;" points="100.535,85.943 
			125.396,136.333 144.167,141.333 139.753,83.667 		"/>
		<polygon style="fill:#898989;stroke:#000000;stroke-linecap:round;stroke-linejoin:round;" points="139.753,83.667 
			162.765,90.333 147.184,151.999 144.167,141.333 		"/>
		<polygon style="fill:#DCDDDD;stroke:#000000;stroke-linecap:round;stroke-linejoin:round;" points="125.396,136.333 
			147.184,151.999 144.167,141.333 		"/>
		<polygon style="fill:#9FA0A0;stroke:#000000;stroke-linecap:round;stroke-linejoin:round;" points="144.703,72.667 
			158.619,70.333 162.765,90.333 139.753,83.667 		"/>
		<polygon style="fill:#898989;stroke:#000000;stroke-linecap:round;stroke-linejoin:round;" points="141.753,57.333 
			160.887,53.333 158.619,70.333 144.703,72.667 		"/>
		<polygon style="fill:#C9CACA;stroke:#000000;stroke-linecap:round;stroke-linejoin:round;" points="90,156.667 111.721,151.999 
			125.396,170.999 90,176.999 		"/>
		<polygon style="fill:#EFEFEF;stroke:#000000;stroke-linecap:round;stroke-linejoin:round;" points="68.28,151.999 54.604,170.999 
			32.817,151.999 49.089,139.218 		"/>
		<polygon style="fill:#EFEFEF;stroke:#000000;stroke-linecap:round;stroke-linejoin:round;" points="90,121.999 90,141.667 
			49.089,139.218 54.872,127.667 75.789,121.999 		"/>
		<polygon style="fill:#FFFFFF;stroke:#000000;stroke-linecap:round;stroke-linejoin:round;" points="85.71,67.667 80.615,74.667 
			75.789,121.999 84.637,113.999 		"/>
		<polygon style="fill:#EFEFEF;stroke:#000000;stroke-linecap:round;stroke-linejoin:round;" points="80.615,74.667 69.085,67.001 
			44.683,67.001 35.297,72.667 		"/>
		<polygon style="fill:#E6E6E6;stroke:#000000;stroke-linecap:round;stroke-linejoin:round;" points="44.683,67.001 46.56,50.667 
			66.403,50.667 69.085,67.001 		"/>
		<polygon style="fill:#C9CACA;stroke:#000000;stroke-linecap:round;stroke-linejoin:round;" points="80.615,74.667 74.983,58.333 
			66.403,50.667 69.085,67.001 		"/>
		<polygon style="fill:#EFEFEF;stroke:#000000;stroke-linecap:round;stroke-linejoin:round;" points="46.56,50.667 44.683,67.001 
			35.297,72.667 38.247,57.333 		"/>
		<polygon style="fill:#C9CACA;stroke:#000000;stroke-linecap:round;stroke-linejoin:round;" points="80.615,74.667 79.464,85.946 
			53.532,127.999 75.789,121.999 		"/>
		<polygon style="fill:#DCDDDD;stroke:#000000;stroke-linecap:round;stroke-linejoin:round;" points="79.465,85.943 54.604,136.333 
			35.833,141.333 40.247,83.667 		"/>
		<polygon style="fill:#EFEFEF;stroke:#000000;stroke-linecap:round;stroke-linejoin:round;" points="40.247,83.667 17.236,90.333 
			32.817,151.999 35.833,141.333 		"/>
		<polygon style="fill:#B5B5B6;stroke:#000000;stroke-linecap:round;stroke-linejoin:round;" points="54.604,136.333 
			32.817,151.999 35.833,141.333 		"/>
		<polygon style="fill:#F7F8F8;stroke:#000000;stroke-linecap:round;stroke-linejoin:round;" points="35.297,72.667 21.381,70.333 
			17.236,90.333 40.247,83.667 		"/>
		<polygon style="fill:#EFEFEF;stroke:#000000;stroke-linecap:round;stroke-linejoin:round;" points="38.247,57.333 19.113,53.333 
			21.381,70.333 35.297,72.667 		"/>
		<polygon style="fill:#E6E6E6;stroke:#000000;stroke-linecap:round;stroke-linejoin:round;" points="90,156.667 68.28,151.999 
			54.604,170.999 90,176.999 		"/>
		<polygon style="fill:#DCDDDD;stroke:#000000;stroke-linecap:round;stroke-linejoin:round;" points="90,113.999 84.637,113.999 
			85.71,67.667 90,67.667 94.291,67.667 95.363,113.999 		"/>
		<polygon style="fill:#FFFFFF;stroke:#000000;stroke-linecap:round;stroke-linejoin:round;" points="90,121.999 75.789,121.999 
			84.637,113.999 90,113.999 95.363,113.999 104.212,121.999 		"/>
		<polygon style="fill:#F7F8F8;stroke:#000000;stroke-linecap:round;stroke-linejoin:round;" points="85.71,67.667 83.334,54.667 
			74.983,58.333 80.615,74.667 		"/>
		<polygon style="fill:#C9CACA;stroke:#000000;stroke-linecap:round;stroke-linejoin:round;" points="94.291,67.667 96.666,54.667 
			105.017,58.333 99.385,74.667 		"/>
		<polygon style="fill:#DCDDDD;stroke:#000000;stroke-linecap:round;stroke-linejoin:round;" points="83.334,54.667 96.666,54.667 
			94.291,67.667 85.71,67.667 		"/>
		<polygon style="fill:#EFEFEF;stroke:#000000;stroke-linecap:round;stroke-linejoin:round;" points="74.983,58.333 83.334,54.667 
			96.666,54.667 105.017,58.333 108.333,34.001 90,32.667 71.668,34.001 		"/>
		<polygon style="fill:#EFEFEF;stroke:#000000;stroke-linecap:round;stroke-linejoin:round;" points="47,22.667 73.668,19.667 
			71.668,34.001 45.213,37.654 		"/>
		<polygon style="fill:#C9CACA;stroke:#000000;stroke-linecap:round;stroke-linejoin:round;" points="133,22.667 106.333,19.667 
			108.333,34.001 134.787,37.654 		"/>
		<polygon style="fill:#E6E6E6;stroke:#000000;stroke-linecap:round;stroke-linejoin:round;" points="73.668,19.667 90,19.001 
			106.333,19.667 108.333,34.001 90,32.667 71.668,34.001 		"/>
	</g>
</g>
</svg>
