<?xml version="1.0" encoding="iso-8859-1"?>
<!-- Generator: Adobe Illustrator 18.1.1, SVG Export Plug-In . SVG Version: 6.00 Build 0)  -->
<svg version="1.1" xmlns="http://www.w3.org/2000/svg" xmlns:xlink="http://www.w3.org/1999/xlink" x="0px" y="0px"
	 viewBox="0 0 180 180" style="enable-background:new 0 0 180 180;" xml:space="preserve">
<g id="ca1">
	<rect style="fill:#0068B7;" width="180" height="180"/>
</g>
<g id="ca2">
	<path style="fill:#E60039;stroke:#000000;" d="M110.418,27.691c0,0,2.383,6.597,6.748,10.865c0,0,6.752,8.537,6.752,57.814
		c0,49.277,0.396,67.903-3.574,71.783c-3.971,3.88-5.953,5.432-29.384,5.432c-23.43,0-25.415-1.552-29.385-5.432
		c-3.971-3.88-3.574-22.506-3.574-71.783c0-49.277,6.751-57.814,6.751-57.814c4.368-4.268,6.75-10.865,6.75-10.865
		s3.164,2.642,6.164,1.975c3-0.667,4-2,5-2s2.667,3,4.334,3s4.667-3,6-3s3.666,4,6.333,4s5-4,5-4S106.667,31,108,31
		S110.418,27.691,110.418,27.691z"/>
	<circle style="fill:#C9CACA;stroke:#000000;" cx="73" cy="33.667" r="1.834"/>
	<circle style="fill:#C9CACA;stroke:#000000;" cx="81.666" cy="32.667" r="1.834"/>
	<circle style="fill:#C9CACA;stroke:#000000;" cx="92.333" cy="32.334" r="1.833"/>
	<circle style="fill:#C9CACA;stroke:#000000;" cx="103.999" cy="33.333" r="1.834"/>
	<circle style="fill:#C9CACA;stroke:#000000;" cx="110.332" cy="34.667" r="1.834"/>
	<path style="fill:none;stroke:#000000;stroke-width:0.25;stroke-dasharray:2;" d="M77,30.334c0,0,1.334,6.666,0,9.333
		S70.667,71.333,71.334,105c0.666,33.667,0.666,58.334,2.333,60.667c1.667,2.333,5,7.333,5,7.333"/>
	<path style="fill:none;stroke:#000000;stroke-width:0.25;stroke-dasharray:2;" d="M87,31.667c0,0,3.001,9.667,2.334,14.667
		c-0.667,5,0.999,48.667,1.666,56.333s-1,60-1,64s-1.334,6.666-1.334,6.666"/>
	<path style="fill:none;stroke:#000000;stroke-width:0.25;stroke-dasharray:2;" d="M100,32.667c0,0,1.999,7,4.333,8s5,44,5,60.333
		S108,166.333,106,169.333S102.667,173,102.667,173"/>
	<path style="fill:none;stroke:#000000;stroke-width:0.75;" d="M69.334,31.334c0,0,0-2,1-5.334c1-3.333,11.333-26,11.333-26"/>
	<path style="fill:none;stroke:#000000;stroke-width:0.75;" d="M112.333,32.334c0,0,0.666-3.334,0-5.334s-12-27-12-27"/>
	<path style="fill:none;stroke:#000000;stroke-width:0.75;" d="M88,29.667c0,0-0.667-2.667-0.334-4.667C88,23,89,0,89,0"/>
	<path style="fill:none;stroke:#000000;stroke-width:0.75;" d="M96,29c0,0,0.667-1,0.667-3.333S93,0,93,0"/>
	<g>
		<path style="fill:#FFFFFF;stroke:#000000;stroke-width:0.75;" d="M88.224,80.669c0,2.32-4.954-0.121-11.065-0.121
			s-11.065,2.441-11.065,0.121c0-2.322,4.954-6.366,11.065-6.366S88.224,78.347,88.224,80.669z"/>
		<ellipse style="fill:#595757;stroke:#000000;stroke-width:0.75;" cx="77.159" cy="77.47" rx="1.833" ry="3.166"/>
		<ellipse style="stroke:#000000;stroke-width:0.75;" cx="77.158" cy="75.719" rx="1.333" ry="1.416"/>
	</g>
	<g>
		<path style="fill:#FFFFFF;stroke:#000000;stroke-width:0.75;" d="M115.732,80.669c0,2.32-4.955-0.121-11.066-0.121
			s-11.064,2.441-11.064,0.121c0-2.322,4.953-6.366,11.064-6.366S115.732,78.347,115.732,80.669z"/>
		<ellipse style="fill:#595757;stroke:#000000;stroke-width:0.75;" cx="104.667" cy="77.47" rx="1.833" ry="3.166"/>
		<ellipse style="stroke:#000000;stroke-width:0.75;" cx="104.666" cy="75.719" rx="1.334" ry="1.417"/>
	</g>
</g>
</svg>
