<?xml version="1.0" encoding="iso-8859-1"?>
<!-- Generator: Adobe Illustrator 18.1.1, SVG Export Plug-In . SVG Version: 6.00 Build 0)  -->
<svg version="1.1" xmlns="http://www.w3.org/2000/svg" xmlns:xlink="http://www.w3.org/1999/xlink" x="0px" y="0px"
	 viewBox="0 0 180 180" style="enable-background:new 0 0 180 180;" xml:space="preserve">
<g id="ca1">
	<rect x="0.001" style="fill:#FFF100;" width="179.999" height="180"/>
</g>
<g id="ca2">
	<g>
		<path style="fill:#00A0E9;stroke:#000000;" d="M100.426,180c-0.001-24.812,24.252-45.929,24.252-45.929
			c14.173-13.046,23.349-33.891,23.349-57.377c0-39.518-25.981-68.65-58.029-68.649C57.952,8.044,31.974,37.177,31.974,76.694
			c0,23.484,9.173,44.325,23.343,57.372c0,0,24.251,21.116,24.251,45.93"/>
		<path style="fill:#FFF100;stroke:#000000;" d="M142.485,76.361c0,36.007-23.497,65.197-52.486,65.197
			c-28.984,0.001-52.485-29.189-52.484-65.198c0-36.007,23.499-62.293,52.484-62.294C118.988,14.067,142.485,40.354,142.485,76.361z
			"/>
		<path style="fill:#FFF100;stroke:#000000;" d="M86.731,177.239c0.735,2.412,5.554,2.372,6.247-0.04
			c0-12.5,12.767-33.065,12.767-33.065c-4.201,3.048-10.537,4.283-15.812,4.283c-5.81,0-11.179-1.481-16.778-4.284
			C73.155,144.133,86.732,164.738,86.731,177.239z"/>
		<line style="fill:none;stroke:#9FA0A0;stroke-width:0.5;" x1="51.076" y1="120.188" x2="89.999" y2="120.188"/>
		<line style="fill:none;stroke:#9FA0A0;stroke-width:0.5;" x1="38.156" y1="86.364" x2="89.999" y2="86.364"/>
		<line style="fill:none;stroke:#9FA0A0;stroke-width:0.5;" x1="37.56" y1="73.815" x2="89.999" y2="73.815"/>
		<line style="fill:none;stroke:#9FA0A0;stroke-width:0.5;" x1="52.601" y1="32.262" x2="52.601" y2="122.196"/>
		<g>
			<circle style="fill:#FFFFFF;stroke:#000000;stroke-width:0.5;" cx="72.133" cy="57.148" r="11.833"/>
			<path style="fill:none;stroke:#E60012;stroke-linecap:round;stroke-linejoin:round;stroke-dasharray:1.5;" d="M81.069,49.405
				c-2.169,2.497-5.369,4.076-8.936,4.076c-3.569,0-6.767-1.58-8.937-4.076"/>
			<path style="fill:none;stroke:#E60012;stroke-linecap:round;stroke-linejoin:round;stroke-dasharray:1.5;" d="M81.07,64.892
				c-2.17-2.498-5.37-4.076-8.937-4.076c-3.568,0-6.767,1.578-8.937,4.076"/>
		</g>
		<line style="fill:none;stroke:#9FA0A0;stroke-width:0.5;" x1="37.642" y1="80.14" x2="89.999" y2="80.14"/>
		<line style="fill:none;stroke:#9FA0A0;stroke-width:0.5;" x1="39.278" y1="93.115" x2="89.999" y2="93.115"/>
		<line style="fill:none;stroke:#9FA0A0;stroke-width:0.5;" x1="47.028" y1="113.874" x2="47.028" y2="40.122"/>
		<line style="fill:none;stroke:#9FA0A0;stroke-width:0.5;" x1="57.915" y1="128.07" x2="57.915" y2="26.77"/>
		<path style="fill:none;stroke:#9FA0A0;stroke-width:0.5;" d="M37.996,68.132c0,0,21.804,0.85,34.137,0.85"/>
		<path style="fill:none;stroke:#9FA0A0;stroke-width:0.5;" d="M38.854,62.219c0,0,22.278,6.763,33.278,6.763
			c11.001,0,4.535,0.191,17.867,0"/>
		<path style="fill:none;stroke:#9FA0A0;stroke-width:0.5;" d="M40.393,55.655c0,0,19.407-10.34,31.74-10.34"/>
		<path style="fill:none;stroke:#9FA0A0;stroke-width:0.5;" d="M42.983,48.212c0,0,13.816-2.896,29.149-2.896s2.912,0,17.867,0"/>
		<line style="fill:none;stroke:#9FA0A0;stroke-width:0.5;" x1="46.297" y1="41.388" x2="89.999" y2="41.388"/>
		<line style="fill:none;stroke:#9FA0A0;stroke-width:0.5;" x1="49.984" y1="35.615" x2="89.999" y2="35.615"/>
		<line style="fill:none;stroke:#9FA0A0;stroke-width:0.5;" x1="54.316" y1="30.318" x2="89.999" y2="30.318"/>
		<line style="fill:none;stroke:#9FA0A0;stroke-width:0.5;" x1="59.804" y1="25.154" x2="89.999" y2="25.154"/>
		<path style="fill:none;stroke:#9FA0A0;stroke-width:0.5;" d="M64.39,21.826c0,0-4.09,24.914-4.09,35.324
			c0,10.408,4.09,76.253,4.09,76.253"/>
		<path style="fill:none;stroke:#9FA0A0;stroke-width:0.5;" d="M69.393,19.002c0,0-9.093,26.475-9.093,38.147
			c0,11.67,9.093,79.319,9.093,79.319"/>
		<path style="fill:none;stroke:#9FA0A0;stroke-width:0.5;" d="M73.573,17.203c0,0,10.393,26.947,10.393,39.947
			c0,12.999-10.393,81.285-10.393,81.285"/>
		<line style="fill:none;stroke:#9FA0A0;stroke-width:0.5;" x1="128.924" y1="120.189" x2="89.999" y2="120.189"/>
		<line style="fill:none;stroke:#9FA0A0;stroke-width:0.5;" x1="141.846" y1="86.365" x2="89.999" y2="86.364"/>
		<line style="fill:none;stroke:#9FA0A0;stroke-width:0.5;" x1="142.44" y1="73.815" x2="89.999" y2="73.815"/>
		<line style="fill:none;stroke:#9FA0A0;stroke-width:0.5;" x1="127.4" y1="32.261" x2="127.399" y2="122.196"/>
		<g>
			<circle style="fill:#FFFFFF;stroke:#000000;stroke-width:0.5;" cx="107.868" cy="57.148" r="11.833"/>
			<path style="fill:none;stroke:#E60012;stroke-linecap:round;stroke-linejoin:round;stroke-dasharray:1.5;" d="M116.805,64.892
				c-2.17-2.498-5.369-4.076-8.937-4.075c-3.568-0.001-6.767,1.579-8.936,4.075"/>
			<path style="fill:none;stroke:#E60012;stroke-linecap:round;stroke-linejoin:round;stroke-dasharray:1.5;" d="M116.805,49.407
				c-2.169,2.496-5.369,4.075-8.937,4.075c-3.568,0.001-6.767-1.578-8.937-4.075"/>
		</g>
		<line style="fill:none;stroke:#9FA0A0;stroke-width:0.5;" x1="142.359" y1="80.14" x2="89.999" y2="80.14"/>
		<line style="fill:none;stroke:#9FA0A0;stroke-width:0.5;" x1="140.723" y1="93.117" x2="89.999" y2="93.117"/>
		<line style="fill:none;stroke:#9FA0A0;stroke-width:0.5;" x1="132.973" y1="113.874" x2="132.973" y2="40.122"/>
		<line style="fill:none;stroke:#9FA0A0;stroke-width:0.5;" x1="122.086" y1="128.07" x2="122.086" y2="26.77"/>
		<path style="fill:none;stroke:#9FA0A0;stroke-width:0.5;" d="M142.006,68.132c0,0-21.805,0.85-34.138,0.85"/>
		<path style="fill:none;stroke:#9FA0A0;stroke-width:0.5;" d="M141.146,62.219c0,0-22.278,6.763-33.278,6.763
			s-4.535,0.191-17.869,0"/>
		<path style="fill:none;stroke:#9FA0A0;stroke-width:0.5;" d="M139.608,55.655c0,0-19.408-10.34-31.741-10.34"/>
		<path style="fill:none;stroke:#9FA0A0;stroke-width:0.5;" d="M137.018,48.212c0,0-13.816-2.896-29.15-2.896
			c-15.332,0-2.912,0-17.868,0"/>
		<line style="fill:none;stroke:#9FA0A0;stroke-width:0.5;" x1="133.704" y1="41.388" x2="89.999" y2="41.388"/>
		<line style="fill:none;stroke:#9FA0A0;stroke-width:0.5;" x1="130.016" y1="35.614" x2="89.999" y2="35.615"/>
		<line style="fill:none;stroke:#9FA0A0;stroke-width:0.5;" x1="125.684" y1="30.318" x2="89.999" y2="30.318"/>
		<line style="fill:none;stroke:#9FA0A0;stroke-width:0.5;" x1="120.196" y1="25.154" x2="89.999" y2="25.154"/>
		<path style="fill:none;stroke:#9FA0A0;stroke-width:0.5;" d="M115.611,21.826c0,0,4.09,24.914,4.09,35.324
			c0,10.408-4.09,76.253-4.09,76.253"/>
		<path style="fill:none;stroke:#9FA0A0;stroke-width:0.5;" d="M110.608,19.002c0,0,9.093,26.475,9.093,38.147
			c0,11.671-9.093,79.321-9.093,79.321"/>
		<path style="fill:none;stroke:#9FA0A0;stroke-width:0.5;" d="M106.427,17.203c0,0-10.392,26.947-10.392,39.947
			c0.001,12.998,10.392,81.285,10.392,81.285"/>
		<g>
			<circle style="fill:#FFFFFF;stroke:#000000;stroke-width:0.5;" cx="89.999" cy="108.002" r="11.833"/>
			<path style="fill:none;stroke:#E60012;stroke-linecap:round;stroke-linejoin:round;stroke-dasharray:1.5;" d="M97.743,116.938
				c-2.497-2.169-4.076-5.369-4.076-8.936c0-3.569,1.58-6.768,4.076-8.938"/>
			<path style="fill:none;stroke:#E60012;stroke-linecap:round;stroke-linejoin:round;stroke-dasharray:1.5;" d="M82.256,116.938
				c2.498-2.17,4.076-5.37,4.076-8.937c0-3.568-1.578-6.768-4.076-8.938"/>
		</g>
		<path style="fill:none;stroke:#9FA0A0;stroke-width:0.5;" d="M79.523,140.258c0,0-1.357-20.257-1.357-32.257s5.8-35.09,5.8-50.852
			s-4.442-41.904-4.442-41.904"/>
		<path style="fill:none;stroke:#9FA0A0;stroke-width:0.5;" d="M100.478,140.258c0,0,1.357-20.257,1.357-32.257
			s-5.8-35.09-5.8-50.852s4.442-41.904,4.442-41.904"/>
		<path style="fill:none;stroke:#9FA0A0;stroke-width:0.5;" d="M86.037,141.375c0,0-7.871-23.374-7.871-33.374
			s5.8-31.371,5.8-50.852c0-19.482,2.071-42.916,2.071-42.916"/>
		<path style="fill:none;stroke:#9FA0A0;stroke-width:0.5;" d="M93.964,141.375c0,0,7.871-23.374,7.871-33.374
			s-5.8-31.371-5.8-50.852c0-19.482-2.071-42.916-2.071-42.916"/>
		<path style="fill:none;stroke:#9FA0A0;stroke-width:0.5;" d="M40.796,99.092c0,0,34.777-2.924,49.203-2.924
			c14.427,0,49.206,2.924,49.206,2.924"/>
		<path style="fill:none;stroke:#9FA0A0;stroke-width:0.5;" d="M42.898,105.145c0,0,36.763-8.977,47.101-8.977
			c10.339,0,47.103,8.977,47.103,8.977"/>
		<path style="fill:none;stroke:#9FA0A0;stroke-width:0.5;" d="M45.176,110.292c0,0,31.15,9.542,44.823,9.542
			c13.674,0,44.826-9.542,44.826-9.542"/>
		<path style="fill:none;stroke:#9FA0A0;stroke-width:0.5;" d="M48.266,115.894c0,0,28.06,3.94,41.733,3.94
			c13.674,0,41.736-3.94,41.736-3.94"/>
		<line style="fill:none;stroke:#9FA0A0;stroke-width:0.5;" x1="55.699" y1="125.709" x2="124.302" y2="125.709"/>
		<line style="fill:none;stroke:#9FA0A0;stroke-width:0.5;" x1="61" y1="130.706" x2="119" y2="130.706"/>
		<path style="fill:none;stroke:#000000;" d="M142.485,76.361c0,36.007-23.497,65.197-52.486,65.197
			c-28.984,0.001-52.485-29.189-52.484-65.198c0-36.007,23.499-62.293,52.484-62.294C118.988,14.067,142.485,40.354,142.485,76.361z
			"/>
	</g>
</g>
</svg>
