<?xml version="1.0" encoding="iso-8859-1"?>
<!-- Generator: Adobe Illustrator 18.1.1, SVG Export Plug-In . SVG Version: 6.00 Build 0)  -->
<svg version="1.1" xmlns="http://www.w3.org/2000/svg" xmlns:xlink="http://www.w3.org/1999/xlink" x="0px" y="0px"
	 viewBox="0 0 180 180" style="enable-background:new 0 0 180 180;" xml:space="preserve">
<g id="ca1">
	<rect style="fill:#009E96;" width="180" height="180"/>
</g>
<g id="ca2">
	<rect x="81.451" y="5.383" style="fill:#CBBE00;stroke:#000000;" width="7.428" height="172.9"/>
	<rect x="88.879" y="5.383" style="fill:#E9D900;stroke:#000000;" width="4.377" height="172.9"/>
	<path style="fill:#DFD000;stroke:#000000;" d="M135.174,100.824c-40.741,16.499-86.36,0.892-86.36,0.892l0.38,0.134
		c-11.317-3.647-19.86-20.166-19.86-39.991c0-19.603,8.353-35.972,19.48-39.863l0,0.006c0,0,45.619-15.607,86.36,0.891"/>
	<ellipse style="fill:#F3E100;stroke:#000000;" cx="127.986" cy="61.858" rx="24.579" ry="40.741"/>
</g>
<g id="ca3">
	<ellipse style="fill:none;stroke:#000000;stroke-width:0.25;" cx="128.25" cy="61.877" rx="22.25" ry="38.623"/>
	<ellipse style="fill:none;stroke:#000000;stroke-width:0.25;" cx="128.75" cy="61.625" rx="20" ry="36.375"/>
	<ellipse style="fill:none;stroke:#000000;stroke-width:0.25;" cx="129.25" cy="61.5" rx="18.25" ry="33.75"/>
	<ellipse style="fill:none;stroke:#000000;stroke-width:0.25;" cx="129.833" cy="61.5" rx="16.167" ry="31.416"/>
	<ellipse style="fill:none;stroke:#000000;stroke-width:0.25;" cx="130.333" cy="61.208" rx="13.833" ry="28.875"/>
	<ellipse style="fill:none;stroke:#000000;stroke-width:0.25;" cx="130.833" cy="61.125" rx="11.5" ry="26.125"/>
	<ellipse style="fill:none;stroke:#000000;stroke-width:0.25;" cx="131.333" cy="61.084" rx="9.5" ry="22.75"/>
	<ellipse style="fill:none;stroke:#000000;stroke-width:0.25;" cx="131.75" cy="61.084" rx="7.25" ry="19.75"/>
	<ellipse style="fill:none;stroke:#000000;stroke-width:0.25;" cx="131.999" cy="61.084" rx="5.167" ry="16.583"/>
	<ellipse style="fill:none;stroke:#000000;stroke-width:0.25;" cx="132.666" cy="60.917" rx="3.333" ry="13.083"/>
	<ellipse style="fill:none;stroke:#000000;stroke-width:0.25;" cx="133.167" cy="61.167" rx="1.666" ry="9.667"/>
</g>
<g id="ca4">
	<polygon style="fill:#898989;stroke:#000000;" points="130,45 114.5,48.75 114.5,52 130,50 	"/>
	<polygon style="fill:#898989;stroke:#000000;" points="134.75,45 146.25,48.75 146.25,52 134.75,50 	"/>
	<path style="fill:#FFFFFF;stroke:#000000;" d="M130.596,58.289c-1.152-3.09-3.62-5.773-9.184-3.698
		c-5.563,2.075-7.208,4.104-6.536,5.906c0.673,1.802,4.71-0.771,7.436-1.788C125.037,57.694,131.748,61.379,130.596,58.289z"/>
	<path style="fill:#FFFFFF;stroke:#000000;" d="M134.167,58.289c1.152-3.09,1.62-5.773,7.184-3.698
		c5.563,2.075,5.208,4.104,4.536,5.906c-0.673,1.802-2.71-0.771-5.436-1.788C137.726,57.694,133.015,61.379,134.167,58.289z"/>
	<path style="fill:#EA5504;stroke:#000000;" d="M132.167,68c1,0,1.667-1.667,1.667-1.667c1.667,1.667,10.833,7.834,10.833,7.834
		s-9,1.166-10.833,1.166c-1.833,0-1.001,0-1.667,0c-0.666,0-0.834,0-2.667,0c-1.833,0-13.833-1.166-13.833-1.166
		S128.833,68,130.5,66.333C130.5,66.333,131.167,68,132.167,68z"/>
</g>
<g id="ca5">
	<path style="fill:none;stroke:#000000;stroke-width:0.25;stroke-linecap:round;stroke-linejoin:round;" d="M48.5,23.5
		c1.115,0.145,1.644-0.28,2.514-0.473c0.609-0.135,1.925-0.299,2.735-0.529c0.966-0.274,4.509-0.852,5.001-1.498"/>
	<path style="fill:none;stroke:#000000;stroke-width:0.25;stroke-linecap:round;stroke-linejoin:round;" d="M63.25,20
		c3.555,0.561,6.607-2.267,10-1.25"/>
	<path style="fill:none;stroke:#000000;stroke-width:0.25;stroke-linecap:round;stroke-linejoin:round;" d="M77.75,18
		c3.797,0,7.289-0.622,11-0.25"/>
	<path style="fill:none;stroke:#000000;stroke-width:0.25;stroke-linecap:round;stroke-linejoin:round;" d="M93.25,17.75
		c4.3,0,7.624,0.251,11.5,1.25"/>
	<path style="fill:none;stroke:#000000;stroke-width:0.25;stroke-linecap:round;stroke-linejoin:round;" d="M108.5,18.25
		c3.568,0.687,7.373,1.24,10.75,2.25"/>
	<path style="fill:none;stroke:#000000;stroke-width:0.25;stroke-linecap:round;stroke-linejoin:round;" d="M43.5,27
		c2.967-0.032,4.884-0.513,7.062-1.877c1.957-1.225,2.614-1.605,5.188-1.623"/>
	<path style="fill:none;stroke:#000000;stroke-width:0.25;stroke-linecap:round;stroke-linejoin:round;" d="M58.75,23
		c2.969,0,5.747-0.327,8.637-0.498c1.376-0.082,2.615,0.052,3.674-0.379c0.788-0.321,0.824-0.954,1.688-1.123"/>
	<path style="fill:none;stroke:#000000;stroke-width:0.25;stroke-linecap:round;stroke-linejoin:round;" d="M75.75,20.5
		c7.717-0.304,17.071-0.361,24.25,1.25"/>
	<path style="fill:none;stroke:#000000;stroke-width:0.25;stroke-linecap:round;stroke-linejoin:round;" d="M97,19.25
		c3.379,0,6.627-0.06,9.896,0.857c2.818,0.79,6.46,3.104,9.354,2.893"/>
	<path style="fill:none;stroke:#000000;stroke-width:0.25;stroke-linecap:round;stroke-linejoin:round;" d="M65.5,25.25
		c1.648,0.273,2.809-0.62,4.334-1.123c3.231-1.064,7.117-1.024,10.37-1.642c1.62-0.308,3.646-0.83,5.296,0.014"/>
	<path style="fill:none;stroke:#000000;stroke-width:0.25;stroke-linecap:round;stroke-linejoin:round;" d="M82.5,24
		c6.406,0,14.363-1.344,20.524,0.439c2.144,0.621,3.593,1.545,5.976,1.311"/>
	<path style="fill:none;stroke:#000000;stroke-width:0.25;stroke-linecap:round;stroke-linejoin:round;" d="M102.25,21.75
		c2.508,0.761,4.99,1.844,7.53,2.573c1.151,0.331,2.562,0.308,3.47,1.177"/>
	<path style="fill:none;stroke:#000000;stroke-width:0.25;stroke-linecap:round;stroke-linejoin:round;" d="M41,30.25
		c1.786,0.344,2.993-0.634,4.494-1c1.926-0.469,3.704-0.295,5.75-0.5c3.632-0.363,6.524-1.5,10.506-1.5"/>
	<path style="fill:none;stroke:#000000;stroke-width:0.25;stroke-linecap:round;stroke-linejoin:round;" d="M53.25,25.5
		c2.774,1.116,5.607-1.997,8.75-1"/>
	<path style="fill:none;stroke:#000000;stroke-width:0.25;stroke-linecap:round;stroke-linejoin:round;" d="M37.5,33.75
		c1.693-0.253,3.428-0.983,5-1.5"/>
	<path style="fill:none;stroke:#000000;stroke-width:0.25;stroke-linecap:round;stroke-linejoin:round;" d="M47.5,31.25
		c5.545,0,12.021,0.316,16.25-2.5"/>
	<path style="fill:none;stroke:#000000;stroke-width:0.25;stroke-linecap:round;stroke-linejoin:round;" d="M68,28.25
		c2.168,0.119,3.947-0.789,6.042-1c1.504-0.152,3.177-0.058,4.693,0.001c3.525,0.136,7.588,0.807,11.015,0.499"/>
	<path style="fill:none;stroke:#000000;stroke-width:0.25;stroke-linecap:round;stroke-linejoin:round;" d="M90.75,26.25
		c4.712-0.144,8.66,1.514,13,2"/>
	<path style="fill:none;stroke:#000000;stroke-width:0.25;stroke-linecap:round;stroke-linejoin:round;" d="M98.75,30.5
		c2.443,1.008,6.673,0.268,9.25,1"/>
	<path style="fill:none;stroke:#000000;stroke-width:0.25;stroke-linecap:round;stroke-linejoin:round;" d="M105.75,27.25
		c1.665,0.285,4.293,0.544,5.5,1.5"/>
	<path style="fill:none;stroke:#000000;stroke-width:0.25;stroke-linecap:round;stroke-linejoin:round;" d="M60,33
		c3.634-1.737,9.833-3.575,14-2.25"/>
	<path style="fill:none;stroke:#000000;stroke-width:0.25;stroke-linecap:round;stroke-linejoin:round;" d="M78.75,30
		c4.092,0,11.794-1.462,15.5,0.25"/>
	<path style="fill:none;stroke:#000000;stroke-width:0.25;stroke-linecap:round;stroke-linejoin:round;" d="M85.5,32.75
		c5.066,0,10.193-0.252,15.253,0.001c1.207,0.06,3.38,0.079,4.247,0.749"/>
	<path style="fill:none;stroke:#000000;stroke-width:0.25;stroke-linecap:round;stroke-linejoin:round;" d="M67.75,33
		c3.584,0,7.166,0,10.75,0"/>
	<path style="fill:none;stroke:#000000;stroke-width:0.25;stroke-linecap:round;stroke-linejoin:round;" d="M39.25,36.25
		c3.647,0.336,8.422-0.699,12.128-1.002c1.809-0.147,2.865-0.829,4.372-0.998"/>
	<path style="fill:none;stroke:#000000;stroke-width:0.25;stroke-linecap:round;stroke-linejoin:round;" d="M35.5,40
		c1.646-1.842,6.857-1.726,9.25-2c2.505-0.287,5.225,0,7.75,0"/>
	<path style="fill:none;stroke:#000000;stroke-width:0.25;stroke-linecap:round;stroke-linejoin:round;" d="M56.5,36.5
		c6.446,0,12.415-0.292,18.75-0.25"/>
	<path style="fill:none;stroke:#000000;stroke-width:0.25;stroke-linecap:round;stroke-linejoin:round;" d="M79.25,36
		c1.522-1.631,7.884-0.358,10.22-0.062c2.264,0.287,4.501,0.642,6.78,0.562"/>
	<path style="fill:none;stroke:#000000;stroke-width:0.25;stroke-linecap:round;stroke-linejoin:round;" d="M96,34.75
		c3.551,0,6.092,0.898,9.5,1.25"/>
	<path style="fill:none;stroke:#000000;stroke-width:0.25;stroke-linecap:round;stroke-linejoin:round;" d="M33.25,43.5
		c3.496,0.19,6.621-0.983,9.5-2"/>
	<path style="fill:none;stroke:#000000;stroke-width:0.25;stroke-linecap:round;stroke-linejoin:round;" d="M47.25,41.5
		c2.548-0.384,4.74-1.766,7.5-2c2.356-0.2,5.406-0.874,7.5-0.5"/>
	<path style="fill:none;stroke:#000000;stroke-width:0.25;stroke-linecap:round;stroke-linejoin:round;" d="M65.5,40
		c2.688-0.843,6.092-1.916,9.25-2c2.371-0.063,4.639,0.683,7,0.5"/>
	<path style="fill:none;stroke:#000000;stroke-width:0.25;stroke-linecap:round;stroke-linejoin:round;" d="M86,38.5
		c3.415,0,6.859-0.06,10.249,0.251c1.951,0.179,3.842,0.935,6.001,0.749"/>
	<path style="fill:none;stroke:#000000;stroke-width:0.25;stroke-linecap:round;stroke-linejoin:round;" d="M71,42.25
		c6.917,0.87,14.013,0.5,21,0.5"/>
	<path style="fill:none;stroke:#000000;stroke-width:0.25;stroke-linecap:round;stroke-linejoin:round;" d="M80.25,40.75
		C87.987,40.797,96.068,40.62,103,43"/>
	<path style="fill:none;stroke:#000000;stroke-width:0.25;stroke-linecap:round;stroke-linejoin:round;" d="M87.5,46.25
		c4.519-0.001,9.434,1.403,13.75,1"/>
	<path style="fill:none;stroke:#000000;stroke-width:0.25;stroke-linecap:round;stroke-linejoin:round;" d="M59,45.5
		c6.175,0.067,12.322,0.5,18.5,0.5"/>
	<path style="fill:none;stroke:#000000;stroke-width:0.25;stroke-linecap:round;stroke-linejoin:round;" d="M50,44
		c3.151,0.429,7.165-1.205,9.988-1.498c2.45-0.254,5.298-0.471,7.512-0.502"/>
	<path style="fill:none;stroke:#000000;stroke-width:0.25;stroke-linecap:round;stroke-linejoin:round;" d="M48,42.5
		c-2.096,0-5.025-0.259-6.5,1"/>
	<path style="fill:none;stroke:#000000;stroke-width:0.25;stroke-linecap:round;stroke-linejoin:round;" d="M33.25,46
		c5.936-0.155,12.438-0.081,18.25,0.5"/>
	<path style="fill:none;stroke:#000000;stroke-width:0.25;stroke-linecap:round;stroke-linejoin:round;" d="M40.25,49
		c3.067-1.635,9.035-1.017,12.644-1.002c3.965,0.018,7.081-0.871,10.96,0.226c4.107,1.162,8.624,1.477,12.896,1.526"/>
	<path style="fill:none;stroke:#000000;stroke-width:0.25;stroke-linecap:round;stroke-linejoin:round;" d="M75.5,47.5
		c2.598,1.246,8.203,0.517,11.504,0.986c1.863,0.265,4.175,1.081,5.996,1.014"/>
	<path style="fill:none;stroke:#000000;stroke-width:0.25;stroke-linecap:round;stroke-linejoin:round;" d="M86.75,51.5
		c4.099,0,9.838-0.918,13.5,0.75"/>
	<path style="fill:none;stroke:#000000;stroke-width:0.25;stroke-linecap:round;stroke-linejoin:round;" d="M31.5,51.5
		c5.692,0.319,11.491-1.753,17.25-1.5"/>
	<path style="fill:none;stroke:#000000;stroke-width:0.25;stroke-linecap:round;stroke-linejoin:round;" d="M32.5,48.5
		c1.667,0,3.333,0,5,0"/>
	<path style="fill:none;stroke:#000000;stroke-width:0.25;stroke-linecap:round;stroke-linejoin:round;" d="M48.25,52.75
		C55.112,52.459,64.563,51.885,71,54"/>
	<path style="fill:none;stroke:#000000;stroke-width:0.25;stroke-linecap:round;stroke-linejoin:round;" d="M73,51.5
		c3.517,0.08,6.935,1.356,10.25,1.5"/>
	<path style="fill:none;stroke:#000000;stroke-width:0.25;stroke-linecap:round;stroke-linejoin:round;" d="M82.25,55.5
		c3.53,0.333,12.523,1.983,14.5-1"/>
	<path style="fill:none;stroke:#000000;stroke-width:0.25;stroke-linecap:round;stroke-linejoin:round;" d="M72,57
		c4.007-0.002,9.197,1.337,12.75-0.25"/>
	<path style="fill:none;stroke:#000000;stroke-width:0.25;stroke-linecap:round;stroke-linejoin:round;" d="M86.5,58.5
		c3.052-0.193,6.157,0.466,9.267,0.25c1.674-0.117,3.106-0.813,4.733-0.5"/>
	<path style="fill:none;stroke:#000000;stroke-width:0.25;stroke-linecap:round;stroke-linejoin:round;" d="M52.5,56.25
		c4.246,0,7.753-1,12-1"/>
	<path style="fill:none;stroke:#000000;stroke-width:0.25;stroke-linecap:round;stroke-linejoin:round;" d="M32.5,54.5
		c2.309,0.554,4.826,0.738,7.308,0.749c1.657,0.007,7.009,0.874,7.942-0.499"/>
	<path style="fill:none;stroke:#000000;stroke-width:0.25;stroke-linecap:round;stroke-linejoin:round;" d="M33.5,59.5
		c4.25,0,8.5,0,12.75,0"/>
	<path style="fill:none;stroke:#000000;stroke-width:0.25;stroke-linecap:round;stroke-linejoin:round;" d="M45.75,58
		c4.332,1.312,9.269,0.199,13.5,1.5"/>
	<path style="fill:none;stroke:#000000;stroke-width:0.25;stroke-linecap:round;stroke-linejoin:round;" d="M63.25,59.5
		c4.848,0.01,9.653,0.486,14.5,0.5"/>
	<path style="fill:none;stroke:#000000;stroke-width:0.25;stroke-linecap:round;stroke-linejoin:round;" d="M73.75,62.75
		c4.085,0,8.171-0.022,12.256,0c1.422,0.008,6.102-0.093,6.744-1"/>
	<path style="fill:none;stroke:#000000;stroke-width:0.25;stroke-linecap:round;stroke-linejoin:round;" d="M88.75,65.25
		c4.411,0,9.534,0.861,13.75,0.25"/>
	<path style="fill:none;stroke:#000000;stroke-width:0.25;stroke-linecap:round;stroke-linejoin:round;" d="M95.25,62.25
		c2.673,0,4.876-0.479,7.5-0.5"/>
	<path style="fill:none;stroke:#000000;stroke-width:0.25;stroke-linecap:round;stroke-linejoin:round;" d="M41.75,62
		c3.557-0.155,7.206,0.914,10.75,0.5c1.805-0.211,2.996-1.228,4.75-1"/>
	<path style="fill:none;stroke:#000000;stroke-width:0.25;stroke-linecap:round;stroke-linejoin:round;" d="M56,64.25
		c2.359,0,5.234,0.481,7.412-0.377c1.421-0.56,2.171-2.065,4.088-1.623"/>
	<path style="fill:none;stroke:#000000;stroke-width:0.25;stroke-linecap:round;stroke-linejoin:round;" d="M66.5,65.5
		c3.597-0.002,7.153,0.25,10.751,0.25c2.953,0,7.381-0.729,10.249,0.25"/>
	<path style="fill:none;stroke:#000000;stroke-width:0.25;stroke-linecap:round;stroke-linejoin:round;" d="M30.75,65
		c3.121,0,6.395,0.319,9.499,0c2.042-0.21,7.461,0.242,8.751-1"/>
	<path style="fill:none;stroke:#000000;stroke-width:0.25;stroke-linecap:round;stroke-linejoin:round;" d="M30.75,62.25
		c2.747-0.07,5.482,0.25,8.25,0.25"/>
	<path style="fill:none;stroke:#000000;stroke-width:0.25;stroke-linecap:round;stroke-linejoin:round;" d="M30,57.5
		c1.995-0.147,4.896-0.139,6.75,0.5"/>
	<path style="fill:none;stroke:#000000;stroke-width:0.25;stroke-linecap:round;stroke-linejoin:round;" d="M46.25,68
		c1.537-2.371,7.995-0.668,10.272-0.486c2.62,0.209,4.976,1.148,6.728-0.264"/>
	<path style="fill:none;stroke:#000000;stroke-width:0.25;stroke-linecap:round;stroke-linejoin:round;" d="M67.25,68
		c5.207,1.037,11.134,0.75,16.5,0.75"/>
	<path style="fill:none;stroke:#000000;stroke-width:0.25;stroke-linecap:round;stroke-linejoin:round;" d="M86.5,67.75
		c5.121,0.453,10.334,0.5,15.5,0.5"/>
	<path style="fill:none;stroke:#000000;stroke-width:0.25;stroke-linecap:round;stroke-linejoin:round;" d="M31.25,68.25
		c2.527-1.581,6.183-1,9.25-1"/>
	<path style="fill:none;stroke:#000000;stroke-width:0.25;stroke-linecap:round;stroke-linejoin:round;" d="M33,70
		c3.9,1.191,10.951,1.225,14.5,0c2.208-0.762,3.373-1.502,6-1.5"/>
	<path style="fill:none;stroke:#000000;stroke-width:0.25;stroke-linecap:round;stroke-linejoin:round;" d="M52.75,70.5
		c2.439,2.106,8.547,1.059,11.712,1.194c2.001,0.086,4.025,0.056,6.038,0.056"/>
	<path style="fill:none;stroke:#000000;stroke-width:0.25;stroke-linecap:round;stroke-linejoin:round;" d="M76,71.25
		c3.695,1.765,9.234-0.145,13.456,0c3.535,0.122,6.89,1.05,10.294,1.25"/>
	<path style="fill:none;stroke:#000000;stroke-width:0.25;stroke-linecap:round;stroke-linejoin:round;" d="M44.75,73.75
		c3.697-0.154,7.405,1.289,11.133,1.448c1.789,0.077,3.577,0.047,5.367,0.052"/>
	<path style="fill:none;stroke:#000000;stroke-width:0.25;stroke-linecap:round;stroke-linejoin:round;" d="M67,74.75
		c3.082,0,6.271,0.231,9.229-0.377c1.369-0.282,2.544-0.623,4.271-0.623"/>
	<path style="fill:none;stroke:#000000;stroke-width:0.25;stroke-linecap:round;stroke-linejoin:round;" d="M84.5,74
		c6.193,1.797,13.468,1.25,20,1.25"/>
	<path style="fill:none;stroke:#000000;stroke-width:0.25;stroke-linecap:round;stroke-linejoin:round;" d="M32.5,74.25
		c2.843,0,6.05-0.196,8.5,0.5"/>
	<path style="fill:none;stroke:#000000;stroke-width:0.25;stroke-linecap:round;stroke-linejoin:round;" d="M36.75,76.5
		c3.686-0.131,7.904,0.722,11.513,1.243c1.727,0.249,4.988,1.46,5.987-0.493"/>
	<path style="fill:none;stroke:#000000;stroke-width:0.25;stroke-linecap:round;stroke-linejoin:round;" d="M56.5,78.25
		c2.686,0,5.372,0,8.058,0c1.649,0,6.15,0.725,7.442-0.5"/>
	<path style="fill:none;stroke:#000000;stroke-width:0.25;stroke-linecap:round;stroke-linejoin:round;" d="M75.5,78.5
		c5.202,0.147,15.608,2.223,20-0.75"/>
	<path style="fill:none;stroke:#000000;stroke-width:0.25;stroke-linecap:round;stroke-linejoin:round;" d="M86.25,82.75
		c2.186-0.008,4.365,0.074,6.543-0.111c2.296-0.195,6.399,0.071,8.522-0.891c1.417-0.642,2.001-2.01,3.435-2.498"/>
	<path style="fill:none;stroke:#000000;stroke-width:0.25;stroke-linecap:round;stroke-linejoin:round;" d="M65.75,80.75
		c5.097-0.088,10.34,0.5,15.5,0.5"/>
	<path style="fill:none;stroke:#000000;stroke-width:0.25;stroke-linecap:round;stroke-linejoin:round;" d="M46,80.75
		c5.077,0,10.113-0.085,15-0.5"/>
	<path style="fill:none;stroke:#000000;stroke-width:0.25;stroke-linecap:round;stroke-linejoin:round;" d="M32,79
		c4.323,0,8.277-0.28,12.5-0.25"/>
	<path style="fill:none;stroke:#000000;stroke-width:0.25;stroke-linecap:round;stroke-linejoin:round;" d="M35.5,82.5
		c7.229,1.207,14.583,1,22,1"/>
	<path style="fill:none;stroke:#000000;stroke-width:0.25;stroke-linecap:round;stroke-linejoin:round;" d="M60,84
		c2.938,2.671,11.848,0.75,16,0.75"/>
	<path style="fill:none;stroke:#000000;stroke-width:0.25;stroke-linecap:round;stroke-linejoin:round;" d="M79.5,85.25
		c3.481,0.685,9.424,1.745,13.01,1.012c1.932-0.395,3.643-1.961,5.99-1.512"/>
	<path style="fill:none;stroke:#000000;stroke-width:0.25;stroke-linecap:round;stroke-linejoin:round;" d="M103,85
		c1.53,0.066,2.886-0.588,4.5-0.5"/>
	<path style="fill:none;stroke:#000000;stroke-width:0.25;stroke-linecap:round;stroke-linejoin:round;" d="M44,86.5
		c6.435-0.378,14.243,2.17,20.25,0.25"/>
	<path style="fill:none;stroke:#000000;stroke-width:0.25;stroke-linecap:round;stroke-linejoin:round;" d="M68.75,88.5
		c6.695,0,13.321,0.5,20,0.5"/>
	<path style="fill:none;stroke:#000000;stroke-width:0.25;stroke-linecap:round;stroke-linejoin:round;" d="M92.25,89
		c5.258-0.344,11.462,1.781,16.25,0.25"/>
	<path style="fill:none;stroke:#000000;stroke-width:0.25;stroke-linecap:round;stroke-linejoin:round;" d="M37,88
		c3.784-0.082,7.407,1.653,11.165,1.948C50.091,90.1,52.065,90,54,90"/>
	<path style="fill:none;stroke:#000000;stroke-width:0.25;stroke-linecap:round;stroke-linejoin:round;" d="M58,91.25
		c5.35,0.386,10.612,1.253,16,1.25"/>
	<path style="fill:none;stroke:#000000;stroke-width:0.25;stroke-linecap:round;stroke-linejoin:round;" d="M80.25,91.5
		c6.006,0.02,11.978,0.5,18,0.5"/>
	<path style="fill:none;stroke:#000000;stroke-width:0.25;stroke-linecap:round;stroke-linejoin:round;" d="M94.25,95.75
		c4.012,0,8.849,0.812,12.736,0.025c1.762-0.355,2.696-0.996,4.764-1.025"/>
	<path style="fill:none;stroke:#000000;stroke-width:0.25;stroke-linecap:round;stroke-linejoin:round;" d="M102.25,92.5
		c2.75,0,5.5,0,8.25,0"/>
	<path style="fill:none;stroke:#000000;stroke-width:0.25;stroke-linecap:round;stroke-linejoin:round;" d="M45,92.75
		c7.579-0.187,15.401,0.624,22.75,2.5"/>
	<path style="fill:none;stroke:#000000;stroke-width:0.25;stroke-linecap:round;stroke-linejoin:round;" d="M70.75,94.5
		c6.25,0,12.5,0,18.75,0"/>
	<path style="fill:none;stroke:#000000;stroke-width:0.25;stroke-linecap:round;stroke-linejoin:round;" d="M56.5,96.25
		c2.422-0.087,4.704,1.382,7.162,1.523c2.256,0.131,4.58-0.023,6.842-0.023c1.874,0,3.971-0.235,5.746,0.25"/>
	<path style="fill:none;stroke:#000000;stroke-width:0.25;stroke-linecap:round;stroke-linejoin:round;" d="M79.5,98.75
		c5.602,0,11.159,0.25,16.75,0.25"/>
	<path style="fill:none;stroke:#000000;stroke-width:0.25;stroke-linecap:round;stroke-linejoin:round;" d="M90.75,97.5
		c2.113,0.35,4.319,0.251,6.5,0.25"/>
	<path style="fill:none;stroke:#000000;stroke-width:0.25;stroke-linecap:round;stroke-linejoin:round;" d="M101.25,99.75
		c5.417,0,10.833,0,16.25,0"/>
	<path style="fill:none;stroke:#000000;stroke-width:0.25;stroke-linecap:round;stroke-linejoin:round;" d="M107,98
		c2.125,0,5.82,0.723,7-1"/>
	<path style="fill:none;stroke:#000000;stroke-width:0.25;stroke-linecap:round;stroke-linejoin:round;" d="M41,95
		c3.99,0.008,8.439,1.502,12.25,1"/>
	<path style="fill:none;stroke:#000000;stroke-width:0.25;stroke-linecap:round;stroke-linejoin:round;" d="M38.25,90.75
		c2.097,0.005,4.181,0.403,6.25,0.25"/>
	<path style="fill:none;stroke:#000000;stroke-width:0.25;stroke-linecap:round;stroke-linejoin:round;" d="M47,98.75
		c5.625,0.015,11.427,1.317,17,1"/>
	<path style="fill:none;stroke:#000000;stroke-width:0.25;stroke-linecap:round;stroke-linejoin:round;" d="M54,102
		c4.118-0.076,8.438,0.505,12.5,1c2.103,0.256,4.812,0.031,6.75,0.75"/>
	<path style="fill:none;stroke:#000000;stroke-width:0.25;stroke-linecap:round;stroke-linejoin:round;" d="M68.25,100.25
		c3.446,1.676,11.335,1.234,15.5,1"/>
	<path style="fill:none;stroke:#000000;stroke-width:0.25;stroke-linecap:round;stroke-linejoin:round;" d="M75.25,105.25
		c2.416,1.901,8.645,1.103,11.761,1.256c2.52,0.124,5.248,0.289,7.739,0.244"/>
	<path style="fill:none;stroke:#000000;stroke-width:0.25;stroke-linecap:round;stroke-linejoin:round;" d="M79.25,103.75
		c2.514,1.135,6.648,0.1,9.444,0.25c1.277,0.068,2.483,0.434,3.806,0.25"/>
	<path style="fill:none;stroke:#000000;stroke-width:0.25;stroke-linecap:round;stroke-linejoin:round;" d="M88,101.75
		c6.202,0,12.309,0.25,18.5,0.25"/>
	<path style="fill:none;stroke:#000000;stroke-width:0.25;stroke-linecap:round;stroke-linejoin:round;" d="M95.5,105.25
		c3.463,0,7.48,0.739,10.579-0.874c0.729-0.38,1.324-1.146,1.908-1.4c0.985-0.43,1.644,0.401,2.513-0.476"/>
	<path style="fill:none;stroke:#000000;stroke-width:0.25;stroke-linecap:round;stroke-linejoin:round;" d="M107.5,106.5
		c4.378-0.918,9.454-3.396,14.25-3"/>
	<path style="fill:none;stroke:#000000;stroke-width:0.25;stroke-linecap:round;stroke-linejoin:round;" d="M112.5,101.75
		c2.417,0,4.833,0,7.25,0"/>
	<path style="fill:none;stroke:#000000;stroke-width:0.25;stroke-linecap:round;stroke-linejoin:round;" d="M54.5,50
		c3.943,0.541,9.256,0.953,13.25,0.5"/>
	<path style="fill:none;stroke:#000000;stroke-width:0.25;stroke-linecap:round;stroke-linejoin:round;" d="M77,31.5
		c1.75,0,3.5,0,5.25,0"/>
	<path style="fill:none;stroke:#000000;stroke-width:0.25;stroke-linecap:round;stroke-linejoin:round;" d="M104,39
		c0.895-0.931,2.418-0.356,3.5,0"/>
	<path style="fill:none;stroke:#000000;stroke-width:0.25;stroke-linecap:round;stroke-linejoin:round;" d="M100.25,44.5
		c2.019,0.534,2.884,0.19,5,0.25"/>
	<path style="fill:none;stroke:#000000;stroke-width:0.25;stroke-linecap:round;stroke-linejoin:round;" d="M99,49.25
		c1.671,0.005,3.158,0.176,4.75,0.25"/>
	<path style="fill:none;stroke:#000000;stroke-width:0.25;stroke-linecap:round;stroke-linejoin:round;" d="M98.75,54
		c1.601,0.103,2.944,0.861,4.5,1.25"/>
	<path style="fill:none;stroke:#000000;stroke-width:0.25;stroke-linecap:round;stroke-linejoin:round;" d="M99,70.25
		c1.797-0.022,3.092-0.438,4.75-0.5"/>
</g>
</svg>
