<?xml version="1.0" encoding="iso-8859-1"?>
<!-- Generator: Adobe Illustrator 18.1.1, SVG Export Plug-In . SVG Version: 6.00 Build 0)  -->
<svg version="1.1" xmlns="http://www.w3.org/2000/svg" xmlns:xlink="http://www.w3.org/1999/xlink" x="0px" y="0px"
	 viewBox="0 0 180 180" style="enable-background:new 0 0 180 180;" xml:space="preserve">
<g id="ca1">
	<rect style="fill:#FFFFFF;" width="180" height="180"/>
</g>
<g id="ca2">
	<path style="fill:#FFFFFF;stroke:#000000;" d="M46.914,148.712c0,8.585,17.269,21.335,36.338,22.714l9.416-0.092
		c1.667,1.667,15.332,4,20.332,4s17.666-2.667,25-2.667s16.333,2.667,21,0.667s16-14.482,16-18.667c0,0-9.666,11.334-17.333,13.667
		c-7.667,2.333-11.334-4.667-24.667-1.667s-17.519,1.102-17.519,1.102c9.064-3.179,18.734-14.191,18.734-19.61"/>
</g>
<g id="ca3">
	<path style="fill:#EDC300;stroke:#000000;" d="M121.508,16.081c0,0,45.026,0,45.026,31.558c0,31.558-2.412,87.159,0,93.546H11.892
		c0,0,2.412,8.266,2.412-93.546C14.304,47.638,14.304-19.61,121.508,16.081z"/>
	<path style="fill:#FFE9A9;stroke:#000000;" d="M157.223,63.042v68.749c0,12.035-30.299,21.791-67.674,21.791
		c-37.374,0-67.672-9.756-67.672-21.791V63.042c0,0,99.631-15.403,99.631-25.547L157.223,63.042z"/>
	<path style="fill:#FFFFFF;stroke:#000000;" d="M92.295,57.968c0,0,34.307-0.376,41.006,14.652
		c6.701,15.028,9.917,31.935,9.917,31.935s-30.018-5.261-36.182-16.155C100.873,77.505,92.295,57.968,92.295,57.968z"/>
	<path style="fill:#FFFFFF;stroke:#000000;" d="M86.803,57.968c0,0-34.306-0.375-41.005,14.652
		c-6.701,15.028-9.917,31.935-9.917,31.935s30.017-5.261,36.182-16.155S86.803,57.968,86.803,57.968z"/>
	<ellipse style="fill:#9FA0A0;stroke:#000000;" cx="83.05" cy="88.399" rx="3.752" ry="5.259"/>
	<ellipse style="fill:#9FA0A0;stroke:#000000;" cx="96.047" cy="88.399" rx="3.752" ry="5.259"/>
	<path style="fill:#E4007F;stroke:#000000;" d="M90.287,126.157c12.597-7.89,52.931-7.515,52.931-7.515s-41.941-8.265-45.426-13.148
		c0,0-3.753,3.006-7.505,3.382h-1.476c-3.752-0.376-7.505-3.382-7.505-3.382c-3.484,4.884-45.426,13.148-45.426,13.148
		s40.334-0.375,52.931,7.515H90.287z"/>
	<path style="stroke:#000000;" d="M75.993,58.6c0,0-2.557,7.891,6.225,9.48l4.584-10.111C86.803,57.968,80.943,57.929,75.993,58.6z"
		/>
	<path style="stroke:#000000;" d="M103.104,58.599c0,0,2.557,7.891-6.226,9.481l-4.584-10.111
		C92.295,57.968,98.154,57.928,103.104,58.599z"/>
</g>
<g id="ca4" style="display:none;">
	<line style="display:inline;fill:none;stroke:#0068B7;" x1="34.506" y1="61.169" x2="34.506" y2="75.335"/>
	<line style="display:inline;fill:none;stroke:#0068B7;" x1="27.502" y1="62.279" x2="27.502" y2="85.777"/>
	<polyline style="display:inline;fill:none;stroke:#0068B7;" points="31.004,61.738 31.004,85.236 31.004,92.002 	"/>
	<line style="display:inline;fill:none;stroke:#0068B7;" x1="38.008" y1="60.379" x2="38.008" y2="70.002"/>
	<polyline style="display:inline;fill:none;stroke:#0068B7;" points="24,63.042 24,86.539 24,98.668 	"/>
	<line style="display:inline;fill:none;stroke:#0068B7;" x1="27.502" y1="89.002" x2="27.502" y2="102.668"/>
	<line style="display:inline;fill:none;stroke:#0068B7;" x1="31.004" y1="96.335" x2="31.004" y2="109.335"/>
	<line style="display:inline;fill:none;stroke:#0068B7;" x1="34.506" y1="79.668" x2="34.506" y2="98.002"/>
	<line style="display:inline;fill:none;stroke:#0068B7;" x1="38.008" y1="74.002" x2="38.008" y2="90.668"/>
	<line style="display:inline;fill:none;stroke:#0068B7;" x1="41.68" y1="59.742" x2="41.68" y2="78.002"/>
	<line style="display:inline;fill:none;stroke:#0068B7;" x1="45.953" y1="58.986" x2="45.953" y2="71"/>
	<line style="display:inline;fill:none;stroke:#0068B7;" x1="49.957" y1="58.265" x2="49.957" y2="61.25"/>
	<line style="display:inline;fill:none;stroke:#0068B7;" x1="49.957" y1="63.25" x2="49.957" y2="67.266"/>
	<line style="display:inline;fill:none;stroke:#0068B7;" x1="53.672" y1="57.583" x2="53.672" y2="64.714"/>
	<line style="display:inline;fill:none;stroke:#0068B7;" x1="57.43" y1="56.879" x2="57.43" y2="62.913"/>
	<line style="display:inline;fill:none;stroke:#0068B7;" x1="61.185" y1="56.162" x2="61.185" y2="58.25"/>
	<line style="display:inline;fill:none;stroke:#0068B7;" x1="61.185" y1="59.75" x2="61.185" y2="61.551"/>
	<line style="display:inline;fill:none;stroke:#0068B7;" x1="64.649" y1="55.487" x2="64.649" y2="60.573"/>
	<line style="display:inline;fill:none;stroke:#0068B7;" x1="24" y1="101.75" x2="24" y2="123.75"/>
	<line style="display:inline;fill:none;stroke:#0068B7;" x1="24" y1="126" x2="24" y2="137.229"/>
	<line style="display:inline;fill:none;stroke:#0068B7;" x1="27.502" y1="106.5" x2="27.502" y2="131.5"/>
	<line style="display:inline;fill:none;stroke:#0068B7;" x1="27.502" y1="133.75" x2="27.502" y2="140.5"/>
	<line style="display:inline;fill:none;stroke:#0068B7;" x1="31.004" y1="113.5" x2="31.004" y2="139.75"/>
	<line style="display:inline;fill:none;stroke:#0068B7;" x1="34.506" y1="101.5" x2="34.506" y2="127"/>
	<line style="display:inline;fill:none;stroke:#0068B7;" x1="34.506" y1="130.25" x2="34.506" y2="144.47"/>
	<line style="display:inline;fill:none;stroke:#0068B7;" x1="38.008" y1="104.141" x2="38.008" y2="113"/>
	<line style="display:inline;fill:none;stroke:#0068B7;" x1="38.008" y1="115.5" x2="38.008" y2="118.213"/>
	<line style="display:inline;fill:none;stroke:#0068B7;" x1="41.68" y1="107.25" x2="41.68" y2="117.447"/>
	<line style="display:inline;fill:none;stroke:#0068B7;" x1="45.798" y1="102.29" x2="45.798" y2="109.25"/>
	<line style="display:inline;fill:none;stroke:#0068B7;" x1="45.798" y1="111.75" x2="45.798" y2="116.559"/>
	<line style="display:inline;fill:none;stroke:#0068B7;" x1="49.656" y1="101.188" x2="49.656" y2="112.5"/>
	<line style="display:inline;fill:none;stroke:#0068B7;" x1="38.008" y1="123.25" x2="38.008" y2="137.25"/>
	<line style="display:inline;fill:none;stroke:#0068B7;" x1="38.008" y1="141.185" x2="38.008" y2="145.911"/>
	<line style="display:inline;fill:none;stroke:#0068B7;" x1="41.68" y1="118.692" x2="41.68" y2="132.5"/>
	<line style="display:inline;fill:none;stroke:#0068B7;" x1="41.68" y1="134.5" x2="41.68" y2="147.194"/>
	<line style="display:inline;fill:none;stroke:#0068B7;" x1="45.798" y1="118.803" x2="45.798" y2="127.75"/>
	<line style="display:inline;fill:none;stroke:#0068B7;" x1="45.798" y1="130" x2="45.798" y2="146.5"/>
	<line style="display:inline;fill:none;stroke:#0068B7;" x1="49.656" y1="118.956" x2="49.656" y2="138.25"/>
	<line style="display:inline;fill:none;stroke:#0068B7;" x1="49.656" y1="141.185" x2="49.656" y2="149.393"/>
	<line style="display:inline;fill:none;stroke:#0068B7;" x1="68.638" y1="54.693" x2="68.638" y2="59.693"/>
	<line style="display:inline;fill:none;stroke:#0068B7;" x1="72.481" y1="53.909" x2="72.481" y2="59.047"/>
	<line style="display:inline;fill:none;stroke:#0068B7;" x1="76.753" y1="53.013" x2="76.753" y2="57.84"/>
	<line style="display:inline;fill:none;stroke:#0068B7;" x1="80.438" y1="52.217" x2="80.438" y2="58.173"/>
	<line style="display:inline;fill:none;stroke:#0068B7;" x1="83.93" y1="51.44" x2="83.93" y2="58.011"/>
	<line style="display:inline;fill:none;stroke:#0068B7;" x1="87.416" y1="50.642" x2="87.416" y2="69.25"/>
	<line style="display:inline;fill:none;stroke:#0068B7;" x1="90.602" y1="49.886" x2="90.602" y2="56.5"/>
	<line style="display:inline;fill:none;stroke:#0068B7;" x1="94.236" y1="49" x2="94.236" y2="57.991"/>
	<line style="display:inline;fill:none;stroke:#0068B7;" x1="97.871" y1="48.051" x2="97.871" y2="54.5"/>
	<line style="display:inline;fill:none;stroke:#0068B7;" x1="101.505" y1="47.051" x2="101.505" y2="58.415"/>
	<line style="display:inline;fill:none;stroke:#0068B7;" x1="105.14" y1="46.039" x2="105.14" y2="55.75"/>
	<line style="display:inline;fill:none;stroke:#0068B7;" x1="108.774" y1="44.782" x2="108.774" y2="58"/>
	<line style="display:inline;fill:none;stroke:#0068B7;" x1="112.408" y1="43.664" x2="112.408" y2="54.5"/>
	<line style="display:inline;fill:none;stroke:#0068B7;" x1="116.043" y1="42.028" x2="116.043" y2="58.25"/>
	<line style="display:inline;fill:none;stroke:#0068B7;" x1="119.678" y1="40.23" x2="119.678" y2="50"/>
	<line style="display:inline;fill:none;stroke:#0068B7;" x1="123.312" y1="38.795" x2="123.312" y2="60.25"/>
	<line style="display:inline;fill:none;stroke:#0068B7;" x1="126.947" y1="41.771" x2="126.947" y2="55.25"/>
	<line style="display:inline;fill:none;stroke:#0068B7;" x1="130.581" y1="43.985" x2="130.581" y2="60.519"/>
	<line style="display:inline;fill:none;stroke:#0068B7;" x1="134.216" y1="46.585" x2="134.216" y2="68.116"/>
	<line style="display:inline;fill:none;stroke:#0068B7;" x1="138.264" y1="49.481" x2="138.264" y2="61.75"/>
	<line style="display:inline;fill:none;stroke:#0068B7;" x1="142.448" y1="52.473" x2="142.448" y2="75.5"/>
	<line style="display:inline;fill:none;stroke:#0068B7;" x1="146.797" y1="55.585" x2="146.797" y2="84.5"/>
	<line style="display:inline;fill:none;stroke:#0068B7;" x1="150.626" y1="58.323" x2="150.626" y2="66.25"/>
	<line style="display:inline;fill:none;stroke:#0068B7;" x1="154.433" y1="61.046" x2="154.433" y2="83.5"/>
	<line style="display:inline;fill:none;stroke:#0068B7;" x1="53.672" y1="99.888" x2="53.672" y2="114.768"/>
	<line style="display:inline;fill:none;stroke:#0068B7;" x1="53.672" y1="119.171" x2="53.672" y2="132.5"/>
	<line style="display:inline;fill:none;stroke:#0068B7;" x1="53.672" y1="137.5" x2="53.672" y2="150.268"/>
	<line style="display:inline;fill:none;stroke:#0068B7;" x1="57.43" y1="98.487" x2="57.43" y2="107.25"/>
	<line style="display:inline;fill:none;stroke:#0068B7;" x1="57.43" y1="119.427" x2="57.43" y2="150.976"/>
	<line style="display:inline;fill:none;stroke:#0068B7;" x1="61.185" y1="96.856" x2="61.185" y2="110.75"/>
	<line style="display:inline;fill:none;stroke:#0068B7;" x1="61.185" y1="124.25" x2="61.185" y2="143.75"/>
	<line style="display:inline;fill:none;stroke:#0068B7;" x1="64.649" y1="95.036" x2="64.649" y2="104.5"/>
	<line style="display:inline;fill:none;stroke:#0068B7;" x1="64.649" y1="109.25" x2="64.649" y2="112.006"/>
	<line style="display:inline;fill:none;stroke:#0068B7;" x1="64.649" y1="120.095" x2="64.649" y2="137.25"/>
	<line style="display:inline;fill:none;stroke:#0068B7;" x1="64.649" y1="142.5" x2="64.649" y2="152.057"/>
	<line style="display:inline;fill:none;stroke:#0068B7;" x1="68.638" y1="92.301" x2="68.638" y2="103.75"/>
	<line style="display:inline;fill:none;stroke:#0068B7;" x1="68.638" y1="120.584" x2="68.638" y2="147"/>
	<line style="display:inline;fill:none;stroke:#0068B7;" x1="72.062" y1="88.399" x2="72.062" y2="96.25"/>
	<line style="display:inline;fill:none;stroke:#0068B7;" x1="72.062" y1="102.5" x2="72.062" y2="109.829"/>
	<line style="display:inline;fill:none;stroke:#0068B7;" x1="72.062" y1="121.097" x2="72.062" y2="130.75"/>
	<line style="display:inline;fill:none;stroke:#0068B7;" x1="72.062" y1="135.75" x2="72.062" y2="150.5"/>
	<line style="display:inline;fill:none;stroke:#0068B7;" x1="75.993" y1="80.987" x2="75.993" y2="90.25"/>
	<line style="display:inline;fill:none;stroke:#0068B7;" x1="75.993" y1="93.75" x2="75.993" y2="108.454"/>
	<line style="display:inline;fill:none;stroke:#0068B7;" x1="75.993" y1="126" x2="75.993" y2="147.5"/>
	<line style="display:inline;fill:none;stroke:#0068B7;" x1="80.438" y1="71.877" x2="80.438" y2="84.627"/>
	<line style="display:inline;fill:none;stroke:#0068B7;" x1="80.438" y1="93.75" x2="80.438" y2="101"/>
	<line style="display:inline;fill:none;stroke:#0068B7;" x1="80.438" y1="122.842" x2="80.438" y2="136"/>
	<line style="display:inline;fill:none;stroke:#0068B7;" x1="80.438" y1="141.185" x2="80.438" y2="153.384"/>
	<line style="display:inline;fill:none;stroke:#0068B7;" x1="83.93" y1="64.36" x2="83.93" y2="77.25"/>
	<line style="display:inline;fill:none;stroke:#0068B7;" x1="83.93" y1="94.539" x2="83.93" y2="107.196"/>
	<line style="display:inline;fill:none;stroke:#0068B7;" x1="83.93" y1="129.5" x2="83.93" y2="153.506"/>
	<line style="display:inline;fill:none;stroke:#0068B7;" x1="87.416" y1="73.278" x2="87.416" y2="106.75"/>
	<line style="display:inline;fill:none;stroke:#0068B7;" x1="87.416" y1="126" x2="87.416" y2="152.25"/>
	<line style="display:inline;fill:none;stroke:#0068B7;" x1="90.602" y1="61.5" x2="90.602" y2="81.5"/>
	<line style="display:inline;fill:none;stroke:#0068B7;" x1="90.602" y1="88.25" x2="90.602" y2="97"/>
	<line style="display:inline;fill:none;stroke:#0068B7;" x1="90.602" y1="129.75" x2="90.602" y2="144"/>
	<line style="display:inline;fill:none;stroke:#0068B7;" x1="94.236" y1="66.5" x2="94.236" y2="83.793"/>
	<line style="display:inline;fill:none;stroke:#0068B7;" x1="94.236" y1="93.658" x2="94.236" y2="107.676"/>
	<line style="display:inline;fill:none;stroke:#0068B7;" x1="94.236" y1="126" x2="94.236" y2="146.75"/>
	<line style="display:inline;fill:none;stroke:#0068B7;" x1="94.236" y1="149.25" x2="94.236" y2="153.528"/>
	<line style="display:inline;fill:none;stroke:#0068B7;" x1="97.871" y1="71.75" x2="97.871" y2="80"/>
	<line style="display:inline;fill:none;stroke:#0068B7;" x1="97.788" y1="93.056" x2="97.788" y2="103.25"/>
	<line style="display:inline;fill:none;stroke:#0068B7;" x1="97.792" y1="123.081" x2="97.792" y2="140"/>
	<line style="display:inline;fill:none;stroke:#0068B7;" x1="101.505" y1="79" x2="101.505" y2="107.802"/>
	<line style="display:inline;fill:none;stroke:#0068B7;" x1="101.505" y1="122.146" x2="101.505" y2="148.25"/>
	<line style="display:inline;fill:none;stroke:#0068B7;" x1="105.14" y1="84.925" x2="105.14" y2="100.5"/>
	<line style="display:inline;fill:none;stroke:#0068B7;" x1="105.14" y1="104.5" x2="105.14" y2="109.195"/>
	<line style="display:inline;fill:none;stroke:#0068B7;" x1="105.14" y1="126" x2="105.14" y2="139.25"/>
	<line style="display:inline;fill:none;stroke:#0068B7;" x1="105.14" y1="144.25" x2="105.14" y2="152.998"/>
	<line style="display:inline;fill:none;stroke:#0068B7;" x1="108.774" y1="96.5" x2="108.774" y2="107.25"/>
	<line style="display:inline;fill:none;stroke:#0068B7;" x1="108.774" y1="120.824" x2="108.774" y2="147.25"/>
	<line style="display:inline;fill:none;stroke:#0068B7;" x1="112.408" y1="93.761" x2="112.408" y2="111.44"/>
	<line style="display:inline;fill:none;stroke:#0068B7;" x1="112.408" y1="126" x2="112.408" y2="151.25"/>
	<line style="display:inline;fill:none;stroke:#0068B7;" x1="116.043" y1="95.917" x2="116.043" y2="105.25"/>
	<line style="display:inline;fill:none;stroke:#0068B7;" x1="116.043" y1="125" x2="116.043" y2="138.5"/>
	<line style="display:inline;fill:none;stroke:#0068B7;" x1="119.678" y1="52.25" x2="119.678" y2="62.145"/>
	<line style="display:inline;fill:none;stroke:#0068B7;" x1="126.947" y1="58" x2="126.947" y2="65.636"/>
	<line style="display:inline;fill:none;stroke:#0068B7;" x1="138.264" y1="64.068" x2="138.264" y2="84"/>
	<line style="display:inline;fill:none;stroke:#0068B7;" x1="142.448" y1="79" x2="142.448" y2="100.959"/>
	<line style="display:inline;fill:none;stroke:#0068B7;" x1="146.797" y1="89.25" x2="146.797" y2="111"/>
	<line style="display:inline;fill:none;stroke:#0068B7;" x1="146.797" y1="114.5" x2="146.797" y2="143.415"/>
	<line style="display:inline;fill:none;stroke:#0068B7;" x1="150.626" y1="70" x2="150.626" y2="95"/>
	<line style="display:inline;fill:none;stroke:#0068B7;" x1="150.626" y1="98.5" x2="150.626" y2="122.5"/>
	<line style="display:inline;fill:none;stroke:#0068B7;" x1="150.626" y1="127" x2="150.626" y2="140"/>
	<line style="display:inline;fill:none;stroke:#0068B7;" x1="154.433" y1="88" x2="154.433" y2="105"/>
	<line style="display:inline;fill:none;stroke:#0068B7;" x1="154.433" y1="109.25" x2="154.433" y2="133.5"/>
	<line style="display:inline;fill:none;stroke:#0068B7;" x1="123.312" y1="99.123" x2="123.312" y2="108"/>
	<line style="display:inline;fill:none;stroke:#0068B7;" x1="123.312" y1="120.5" x2="123.312" y2="136.5"/>
	<line style="display:inline;fill:none;stroke:#0068B7;" x1="123.312" y1="139.25" x2="123.312" y2="150.678"/>
	<line style="display:inline;fill:none;stroke:#0068B7;" x1="130.581" y1="101.528" x2="130.581" y2="115.954"/>
	<polyline style="display:inline;fill:none;stroke:#0068B7;" points="130.581,118.906 130.581,132.25 130.581,134.75 
		130.581,142.75 	"/>
	<line style="display:inline;fill:none;stroke:#0068B7;" x1="130.581" y1="145.5" x2="130.581" y2="149.118"/>
	<line style="display:inline;fill:none;stroke:#0068B7;" x1="134.216" y1="102.531" x2="134.216" y2="109.5"/>
	<line style="display:inline;fill:none;stroke:#0068B7;" x1="134.216" y1="113.5" x2="134.216" y2="116.759"/>
	<line style="display:inline;fill:none;stroke:#0068B7;" x1="134.216" y1="123.5" x2="134.216" y2="133.75"/>
	<line style="display:inline;fill:none;stroke:#0068B7;" x1="134.216" y1="137.75" x2="134.216" y2="148.159"/>
	<line style="display:inline;fill:none;stroke:#0068B7;" x1="138.264" y1="103.523" x2="138.264" y2="116"/>
	<line style="display:inline;fill:none;stroke:#0068B7;" x1="138.264" y1="120.5" x2="138.264" y2="136.75"/>
	<line style="display:inline;fill:none;stroke:#0068B7;" x1="142.448" y1="107" x2="142.448" y2="118.488"/>
	<line style="display:inline;fill:none;stroke:#0068B7;" x1="142.448" y1="120.5" x2="142.448" y2="136"/>
	<line style="display:inline;fill:none;stroke:#0068B7;" x1="142.448" y1="138.25" x2="142.448" y2="145.382"/>
</g>
<g id="ca5">
	<polygon style="fill:#FFFFFF;stroke:#000000;" points="14.304,44.638 14.304,54 166.477,54 166.534,44.638 	"/>
	<polygon style="fill:#FFFFFF;stroke:#000000;" points="135.5,44.638 90.45,4 45.4,44.638 	"/>
</g>
</svg>
